<svg width="9" height="8" viewBox="0 0 9 8" fill="none" xmlns="http://www.w3.org/2000/svg">
<path d="M8.98118 6.31117V7.36303H0C0.0125261 6.26992 0.977032 5.359 2.89352 4.63026C3.49477 4.41026 4.08976 4.19026 4.67848 3.97026C5.35489 3.70902 5.86219 3.46152 6.2004 3.22777C6.62628 2.92528 6.84549 2.60216 6.85802 2.25841C6.87054 1.92841 6.73276 1.64998 6.44466 1.42311C6.06887 1.12749 5.46762 0.979676 4.6409 0.979676C3.20041 0.979676 2.44884 1.58123 2.38621 2.78434H0.244258C0.244258 1.95935 0.632566 1.29592 1.40918 0.794053C2.22337 0.264685 3.34446 0 4.77243 0C6.22545 0 7.33401 0.254372 8.0981 0.763116C8.69935 1.16874 8.99997 1.65342 8.99997 2.21716C8.99997 3.09028 8.02294 3.90151 6.06887 4.65088C5.34236 4.919 4.61585 5.18712 3.88934 5.45525C3.17536 5.75774 2.73694 6.04305 2.5741 6.31117H8.98118Z" fill="#A1A4B2"/>
</svg>
