<svg width="177" height="123" viewBox="0 0 177 123" fill="none" xmlns="http://www.w3.org/2000/svg">
<mask id="mask0_1006_747" style="mask-type:alpha" maskUnits="userSpaceOnUse" x="0" y="0" width="178" height="123">
<rect width="177.002" height="122.928" rx="10" fill="#AFDBC5"/>
</mask>
<g mask="url(#mask0_1006_747)">
<path d="M177 -3.71514H-6.69302V178.369H177V-3.71514Z" fill="#4C53B4"/>
<path d="M150.224 102.72C165.551 71.3095 148.841 31.8778 112.902 14.6472C76.9621 -2.58342 35.4026 8.91184 20.0759 40.3226C4.74917 71.7334 21.4592 111.165 57.3987 128.396C93.3383 145.626 134.898 134.131 150.224 102.72Z" fill="#5F65BF"/>
<path d="M166.121 16.0191C164.856 14.7572 163.135 14.2019 161.577 14.5333C162.569 13.4098 162.714 11.5963 161.882 10.2944C161.035 8.96879 159.264 8.26594 157.672 8.62465C156.366 8.9178 155.265 9.78999 154.692 10.9353C154.826 10.003 154.817 8.86136 154.363 7.74518C153.812 6.39048 152.67 5.37809 151.378 5.10314C149.804 4.76811 147.973 5.5711 146.922 7.05872C146.248 8.01285 145.798 9.23463 145.634 10.5019C145.384 9.62975 144.798 8.82858 143.994 8.34788C142.798 7.63411 141.18 7.61226 139.87 8.28961C138.65 8.92145 137.695 10.1432 137.315 11.5617C136.99 12.778 137.067 14.1036 137.537 15.4146C136.404 14.4495 135.213 13.5245 133.617 13.8049C132.548 13.9925 131.664 14.6443 131.194 15.593C130.726 16.5362 130.744 17.6196 131.242 18.5664C132.083 20.1651 133.804 21.163 136.501 21.6163C138.367 21.9295 140.289 21.9496 142.146 21.9678C142.491 21.9714 142.835 21.9751 143.18 21.9805C143.452 21.9842 143.693 21.9896 143.915 21.9969C145.438 22.0442 146.962 22.0752 148.445 22.0879C149.082 22.0934 149.716 22.0971 150.351 22.0971C152.657 22.0971 154.938 22.057 157.159 21.9787C157.708 21.9587 158.267 21.9295 158.807 21.9022C159.604 21.8603 160.427 21.8185 161.237 21.8057C162.6 21.782 163.818 21.722 164.927 21.2303C165.886 20.8043 167.169 20.0741 167.255 18.652C167.31 17.7507 166.897 16.7911 166.121 16.0191Z" fill="#93A1ED"/>
<path d="M174.915 44.7831C174.037 43.9091 172.847 43.5249 171.767 43.7543C172.454 42.975 172.555 41.7205 171.978 40.8173C171.392 39.8996 170.165 39.4116 169.063 39.6593C168.157 39.8632 167.397 40.4659 166.998 41.2598C167.09 40.6134 167.084 39.8232 166.77 39.0493C166.39 38.1116 165.597 37.4105 164.702 37.2194C163.613 36.9863 162.343 37.5435 161.616 38.5741C161.149 39.235 160.837 40.0817 160.723 40.9594C160.55 40.3548 160.145 39.7995 159.588 39.4681C158.759 38.9746 157.639 38.9583 156.731 39.428C155.887 39.865 155.225 40.7117 154.963 41.695C154.737 42.538 154.79 43.4557 155.117 44.3643C154.332 43.6961 153.508 43.0551 152.402 43.25C151.662 43.3793 151.05 43.8308 150.723 44.4881C150.4 45.1418 150.411 45.892 150.756 46.5475C151.338 47.6546 152.53 48.3465 154.399 48.6597C155.692 48.8764 157.022 48.8909 158.309 48.9037C158.548 48.9055 158.787 48.9091 159.026 48.9128C159.215 48.9164 159.38 48.9201 159.535 48.9237C160.589 48.9565 161.645 48.9783 162.672 48.9874C163.113 48.9911 163.554 48.9929 163.993 48.9929C165.589 48.9929 167.171 48.9656 168.708 48.911C169.089 48.8982 169.476 48.8782 169.849 48.8582C170.4 48.829 170.971 48.7999 171.532 48.7908C172.476 48.7744 173.319 48.7325 174.087 48.392C174.75 48.0971 175.639 47.5909 175.7 46.6058C175.738 45.9812 175.452 45.3166 174.915 44.7831Z" fill="#93A1ED"/>
<path d="M13.8677 81.6624C13.2137 81.0124 12.3265 80.7247 11.5238 80.8958C12.0363 80.315 12.1098 79.3809 11.6817 78.709C11.2446 78.0244 10.3316 77.662 9.51049 77.8477C8.83634 77.9989 8.26873 78.4486 7.97298 79.0404C8.04279 78.5597 8.03728 77.9697 7.80399 77.3943C7.51926 76.6951 6.92961 76.1726 6.26464 76.0305C5.45272 75.8576 4.5067 76.2727 3.9648 77.0393C3.61762 77.5309 3.38433 78.1627 3.29983 78.8164C3.17125 78.3667 2.86815 77.9533 2.45301 77.7057C1.8358 77.3379 1.00183 77.327 0.325843 77.6766C-0.304224 78.0025 -0.796521 78.6325 -0.993073 79.3645C-1.16207 79.9909 -1.12166 80.6755 -0.877346 81.3529C-1.46149 80.8558 -2.07686 80.3769 -2.89981 80.5225C-3.45089 80.6191 -3.90644 80.9559 -4.15076 81.4457C-4.39139 81.9319 -4.38405 82.4909 -4.12688 82.9789C-3.69336 83.8037 -2.80612 84.319 -1.41373 84.5521C-0.451179 84.7141 0.540763 84.7232 1.49964 84.7342C1.67782 84.736 1.85601 84.7378 2.03235 84.7396C2.1738 84.7414 2.29687 84.7451 2.41076 84.7487C3.19697 84.7724 3.98317 84.7888 4.74733 84.7961C5.07614 84.7997 5.40312 84.8015 5.73009 84.8015C6.91859 84.8015 8.09606 84.7815 9.2423 84.7396C9.52519 84.7287 9.81359 84.7141 10.0928 84.6996C10.5043 84.6777 10.9286 84.6559 11.3456 84.6486C12.0491 84.6358 12.6774 84.6067 13.2486 84.3518C13.7428 84.1315 14.4059 83.7545 14.45 83.0226C14.4794 82.5564 14.2663 82.0612 13.8677 81.6624Z" fill="#93A1ED"/>
<path d="M175.165 90.4186C174.537 89.7941 173.684 89.5173 172.913 89.683C173.405 89.1258 173.477 88.2281 173.063 87.5817C172.644 86.9244 171.766 86.5766 170.978 86.7533C170.33 86.8989 169.786 87.3305 169.501 87.8986C169.568 87.4361 169.564 86.8698 169.338 86.3181C169.066 85.6462 168.499 85.1454 167.859 85.0089C167.08 84.8432 166.171 85.2401 165.651 85.9776C165.317 86.451 165.095 87.0555 165.012 87.6837C164.889 87.2522 164.599 86.8534 164.2 86.6167C163.609 86.2634 162.806 86.2525 162.157 86.5876C161.553 86.9007 161.079 87.5071 160.892 88.2081C160.73 88.8108 160.769 89.4681 161.002 90.1182C160.44 89.6411 159.85 89.1823 159.06 89.3206C158.531 89.4135 158.092 89.7358 157.859 90.2074C157.628 90.6754 157.635 91.2107 157.883 91.6805C158.3 92.4725 159.152 92.9678 160.49 93.1918C161.413 93.3465 162.367 93.3575 163.287 93.3666C163.458 93.3684 163.629 93.3702 163.8 93.372C163.936 93.3738 164.053 93.3775 164.163 93.3793C164.918 93.403 165.673 93.4175 166.408 93.4248C166.724 93.4285 167.038 93.4285 167.352 93.4285C168.495 93.4285 169.625 93.4084 170.725 93.3702C170.997 93.3611 171.274 93.3465 171.542 93.332C171.937 93.3119 172.345 93.2901 172.746 93.2846C173.421 93.2737 174.024 93.2427 174.573 92.9988C175.047 92.7875 175.685 92.4252 175.727 91.7205C175.754 91.2762 175.549 90.8028 175.165 90.4186Z" fill="#93A1ED"/>
<path d="M16.647 43.645C15.9802 42.9822 15.0746 42.689 14.2553 42.8638C14.777 42.272 14.8542 41.3179 14.417 40.6333C13.9725 39.9359 13.0393 39.5663 12.2017 39.7538C11.5146 39.9086 10.936 40.3674 10.6329 40.9701C10.7027 40.4785 10.699 39.8776 10.4602 39.2913C10.17 38.5794 9.56934 38.0459 8.88967 37.9002C8.06122 37.7236 7.09683 38.146 6.54391 38.929C6.18939 39.4315 5.95242 40.0743 5.86609 40.7407C5.73567 40.2819 5.42706 39.8594 5.00273 39.6063C4.3745 39.2312 3.52217 39.2185 2.83332 39.5754C2.19223 39.9068 1.68891 40.5513 1.48868 41.2979C1.31785 41.937 1.35826 42.6362 1.60625 43.3263C1.00925 42.8183 0.382852 42.3321 -0.456625 42.4796C-1.01873 42.5779 -1.48347 42.9221 -1.73145 43.421C-1.9776 43.9163 -1.96842 44.488 -1.70574 44.9851C-1.26304 45.8263 -0.35743 46.3507 1.06252 46.5911C2.04527 46.7568 3.05558 46.7659 4.03283 46.7768C4.21469 46.7786 4.39471 46.7804 4.57656 46.7823C4.71984 46.7841 4.84659 46.7877 4.96415 46.7914C5.76506 46.8169 6.5678 46.8314 7.34849 46.8405C7.68281 46.8442 8.01713 46.846 8.35145 46.846C9.56383 46.846 10.7652 46.8241 11.9335 46.7841C12.2219 46.7732 12.5158 46.7586 12.8005 46.744C13.2193 46.7222 13.6528 46.7003 14.079 46.693C14.7954 46.6803 15.4383 46.6493 16.0206 46.3908C16.524 46.1668 17.1999 45.7826 17.2459 45.0343C17.2734 44.5554 17.0548 44.051 16.647 43.645Z" fill="#93A1ED"/>
<path d="M36.969 125.523C35.5803 124.139 33.6919 123.529 31.9836 123.893C33.071 122.66 33.2308 120.67 32.3197 119.241C31.3921 117.786 29.4486 117.016 27.7017 117.407C26.267 117.73 25.062 118.686 24.4319 119.944C24.5789 118.92 24.5679 117.668 24.0719 116.444C23.4675 114.958 22.2129 113.848 20.7967 113.545C19.0699 113.177 17.0603 114.059 15.9067 115.69C15.1665 116.737 14.6742 118.077 14.4923 119.468C14.2186 118.511 13.5757 117.631 12.6921 117.105C11.3805 116.322 9.60424 116.298 8.16776 117.041C6.83047 117.733 5.78159 119.075 5.3646 120.632C5.0064 121.967 5.09274 123.422 5.60892 124.86C4.36531 123.802 3.05926 122.786 1.30866 123.094C0.134863 123.3 -0.8332 124.015 -1.34938 125.055C-1.86372 126.089 -1.84351 127.278 -1.29794 128.318C-0.375804 130.071 1.51256 131.166 4.47369 131.664C6.52187 132.009 8.62883 132.03 10.6678 132.05C11.0462 132.054 11.4246 132.058 11.8012 132.063C12.1006 132.067 12.3633 132.074 12.6076 132.081C14.2774 132.132 15.9508 132.167 17.5784 132.182C18.2764 132.189 18.9744 132.191 19.6688 132.191C22.1982 132.191 24.702 132.147 27.1377 132.06C27.7402 132.038 28.3538 132.007 28.9453 131.976C29.8197 131.93 30.7234 131.885 31.6107 131.868C33.1059 131.843 34.4432 131.777 35.6593 131.237C36.71 130.769 38.1189 129.967 38.2126 128.409C38.2732 127.422 37.8195 126.371 36.969 125.523Z" fill="#93A1ED"/>
<path d="M31.4379 9.91209C30.1998 8.67938 28.519 8.13495 26.9962 8.45906C27.9661 7.35927 28.1076 5.5876 27.2956 4.31483C26.469 3.01839 24.7368 2.33193 23.1809 2.68153C21.9024 2.96923 20.8278 3.81956 20.2675 4.9412C20.398 4.02896 20.3888 2.91278 19.9461 1.8221C19.4079 0.498347 18.2892 -0.492191 17.0272 -0.759854C15.4897 -1.08761 13.6968 -0.302823 12.67 1.15203C12.0105 2.0843 11.5715 3.27877 11.4099 4.51694C11.1656 3.66479 10.5924 2.88001 9.80623 2.41205C8.63794 1.71467 7.05451 1.69282 5.77417 2.3556C4.582 2.97287 3.64884 4.16916 3.27594 5.55482C2.95815 6.74383 3.03346 8.04027 3.49453 9.32214C2.38687 8.37894 1.22225 7.47399 -0.337302 7.74893C-1.38252 7.93284 -2.24587 8.57013 -2.7051 9.49694C-3.1625 10.4183 -3.14597 11.478 -2.65918 12.403C-1.83624 13.9653 -0.155445 14.9413 2.48239 15.3855C4.30646 15.6933 6.18564 15.7115 8.00052 15.7297C8.33668 15.7333 8.67468 15.737 9.01084 15.7406C9.27719 15.7442 9.51232 15.7497 9.72908 15.757C11.217 15.8025 12.7067 15.8335 14.1579 15.8462C14.7806 15.8517 15.4015 15.8553 16.0206 15.8553C18.2726 15.8553 20.5045 15.8171 22.6758 15.7388C23.2121 15.7187 23.7595 15.6914 24.2867 15.6641C25.0656 15.6241 25.8702 15.5822 26.6619 15.5694C27.9937 15.5458 29.1858 15.4875 30.2696 15.0068C31.2065 14.5898 32.4611 13.8761 32.5456 12.4868C32.6007 11.6037 32.1966 10.6659 31.4379 9.91209Z" fill="#93A1ED"/>
<path d="M133.197 73.587C129.313 69.7196 124.038 68.0134 119.262 69.0313C122.304 65.5844 122.746 60.0236 120.198 56.0305C117.603 51.9646 112.175 49.8087 107.29 50.9085C103.282 51.8098 99.9114 54.481 98.1516 57.9952C98.5612 55.1365 98.5337 51.6332 97.1431 48.2136C95.455 44.0603 91.9483 40.9558 87.9878 40.1127C83.1622 39.0839 77.5431 41.5494 74.3229 46.1069C72.2545 49.033 70.875 52.7803 70.3717 56.6642C69.6075 53.9893 67.8092 51.5312 65.3422 50.06C61.6757 47.8731 56.7123 47.8039 52.6968 49.8833C48.9568 51.8189 46.0287 55.5698 44.8622 59.9162C43.863 63.6453 44.0999 67.713 45.5456 71.7316C42.0701 68.7746 38.4201 65.9359 33.5266 66.7953C30.2476 67.3707 27.54 69.37 26.0962 72.2779C24.6615 75.1693 24.7148 78.4924 26.2431 81.3948C28.8222 86.2965 34.0978 89.3555 42.3714 90.7484C48.0934 91.7117 53.9844 91.7699 59.6826 91.8264C60.7388 91.8373 61.7969 91.8482 62.8513 91.8628C63.6871 91.8755 64.4237 91.8919 65.1052 91.912C69.7747 92.0558 74.4478 92.1505 78.9961 92.1942C80.9487 92.2124 82.8977 92.2215 84.8412 92.2215C91.9079 92.2215 98.9084 92.0995 105.718 91.8555C107.402 91.7954 109.114 91.708 110.771 91.6225C113.214 91.4968 115.74 91.3675 118.222 91.3238C122.401 91.2528 126.139 91.0689 129.537 89.5576C132.475 88.2503 136.411 86.0088 136.674 81.6515C136.843 78.8948 135.575 75.9541 133.197 73.587Z" fill="#74C7E5"/>
<path d="M72.016 66.7936C71.6614 66.8337 71.4079 67.1523 71.4483 67.5019C71.5751 68.5962 71.013 69.778 70.078 70.3752C69.1448 70.9724 67.8259 70.9943 66.8726 70.428C65.9192 69.8617 65.3167 68.7 65.4085 67.6021C65.4379 67.2506 65.1734 66.9411 64.8189 66.912C64.4607 66.881 64.1521 67.145 64.1227 67.4964C64.062 68.2193 64.2053 68.9477 64.5066 69.605C64.1961 70.0584 63.792 70.4499 63.3254 70.7376C63.2244 70.7995 63.1932 70.9306 63.2556 71.0307C63.296 71.0963 63.3659 71.1308 63.4393 71.1308C63.4779 71.1308 63.5183 71.1199 63.5532 71.0981C64.0051 70.8195 64.4056 70.4517 64.7289 70.0292C65.0485 70.5664 65.4838 71.0362 66.0037 71.3912C65.8182 71.7936 65.5095 72.1432 65.122 72.3617C65.0191 72.42 64.9824 72.5493 65.0411 72.6531C65.0797 72.7223 65.1532 72.7605 65.2285 72.7605C65.2652 72.7605 65.3001 72.7514 65.335 72.7332C65.7869 72.4801 66.1488 72.0795 66.3747 71.6152C67.0048 71.952 67.7175 72.1214 68.4321 72.1214C69.2569 72.1214 70.0835 71.8974 70.7797 71.4513C72.1317 70.5864 72.916 68.9422 72.7324 67.3562C72.6919 67.0048 72.3705 66.7535 72.016 66.7936Z" fill="#231F20"/>
<path d="M99.3324 70.7376C98.8659 70.4499 98.4617 70.0584 98.1513 69.605C98.4526 68.9477 98.5958 68.2193 98.5352 67.4983C98.5058 67.1468 98.1991 66.8865 97.839 66.912C97.4845 66.9411 97.22 67.2488 97.2494 67.6021C97.3394 68.7 96.7369 69.8617 95.7853 70.428C94.832 70.9943 93.5149 70.9724 92.5799 70.3752C91.6467 69.778 91.0828 68.5962 91.2095 67.5019C91.2499 67.1505 90.9965 66.8337 90.6419 66.7936C90.2892 66.7535 89.9678 67.0048 89.9274 67.3562C89.7437 68.9404 90.528 70.5864 91.88 71.4513C92.5781 71.8974 93.4028 72.1214 94.2276 72.1214C94.9422 72.1214 95.6531 71.952 96.285 71.6152C96.5109 72.0795 96.8728 72.4801 97.3247 72.7332C97.3578 72.7514 97.3945 72.7605 97.4312 72.7605C97.5065 72.7605 97.58 72.7223 97.6186 72.6531C97.6774 72.5511 97.6406 72.42 97.5378 72.3617C97.1502 72.1451 96.8416 71.7955 96.656 71.3912C97.1759 71.038 97.6112 70.5682 97.9309 70.0292C98.2542 70.4535 98.6546 70.8195 99.1083 71.0981C99.1432 71.1199 99.1837 71.1308 99.2222 71.1308C99.2939 71.1308 99.3637 71.0944 99.4059 71.0307C99.4629 70.9324 99.4335 70.8013 99.3324 70.7376Z" fill="#231F20"/>
<path d="M76.1784 81.9391C75.4987 81.1834 74.301 80.9285 73.333 81.3364C72.3337 81.7552 71.7073 82.8222 71.8763 83.8182C72.0618 84.9125 73.1364 85.5061 74.121 85.6081C74.2349 85.619 74.3451 85.6263 74.4553 85.6263C75.2378 85.6263 75.9193 85.3313 76.3216 84.8051C76.948 83.9857 76.8856 82.7275 76.1784 81.9391Z" fill="#91D9F2"/>
<path d="M67.4234 75.0273C66.347 74.3918 64.8168 74.3445 63.6044 74.3609C62.2414 74.3791 60.7149 74.563 59.4622 75.1238C58.518 75.5462 57.9798 76.4712 58.4445 77.469C58.9644 78.587 60.41 78.933 61.5269 79.0695C63.3491 79.2917 67.2416 79.4119 68.2133 77.4435C68.6615 76.5313 68.2868 75.5371 67.4234 75.0273Z" fill="#57B6DC"/>
<path d="M105.419 75.0273C104.342 74.3918 102.812 74.3445 101.6 74.3609C100.237 74.3791 98.7101 74.563 97.4573 75.1238C96.5131 75.5462 95.9749 76.4712 96.4397 77.469C96.9595 78.587 98.4052 78.933 99.522 79.0695C101.344 79.2917 105.237 79.4119 106.208 77.4435C106.655 76.5313 106.282 75.5371 105.419 75.0273Z" fill="#57B6DC"/>
<path d="M30.321 69.4701C27.9532 70.4516 26.4065 73.0936 26.7225 75.6173C27.0384 78.141 29.1895 80.3296 31.7263 80.7066C31.785 80.7157 31.8438 80.7193 31.9044 80.7193C32.4849 80.7193 32.9864 80.2896 33.0727 79.7215C33.1205 79.4119 33.0415 79.1024 32.8541 78.8493C32.6668 78.598 32.3912 78.4323 32.079 78.3868C30.5543 78.1592 29.2611 76.8446 29.0701 75.3278C28.8809 73.811 29.8103 72.2214 31.2321 71.6333C32.6558 71.0434 34.4486 71.504 35.4038 72.704C35.6004 72.9498 35.8814 73.1045 36.1937 73.141C36.5078 73.1774 36.8164 73.09 37.0644 72.897C37.3124 72.7021 37.4685 72.4236 37.5071 72.114C37.5457 71.8045 37.4557 71.4967 37.2609 71.2509C35.672 69.2535 32.687 68.4887 30.321 69.4701Z" fill="#57B6DC"/>
<path d="M55.0755 50.3277C51.8995 50.8721 48.9935 53.1682 47.489 56.3201C46.1958 59.0313 45.8872 62.3799 46.6202 65.7466C46.7377 66.2819 47.2227 66.6716 47.7756 66.6716C47.8601 66.6716 47.9446 66.6625 48.0254 66.6443C48.334 66.5787 48.5985 66.3966 48.7694 66.1326C48.9402 65.8686 48.999 65.5554 48.931 65.2495C48.3065 62.3835 48.5526 59.5685 49.6254 57.3197C50.8047 54.847 53.0476 53.0517 55.4742 52.6347C58.0018 52.2032 60.7278 53.4359 61.8171 55.5044C61.964 55.783 62.2102 55.9869 62.5114 56.0816C62.8127 56.1763 63.1342 56.1471 63.4134 56.0033C63.992 55.7047 64.2179 54.9945 63.9149 54.421C62.3498 51.4421 58.63 49.7196 55.0755 50.3277Z" fill="#57B6DC"/>
<path d="M91.5071 46.1598C90.5501 43.1663 87.2565 40.9977 83.8471 41.1215C80.875 41.2271 77.9249 42.8968 75.952 45.588C74.3778 47.7366 73.384 50.5171 73.0001 53.8528C72.9266 54.4956 73.3932 55.0783 74.0434 55.1511C74.0894 55.1566 74.1334 55.1584 74.1775 55.1584C74.7782 55.1584 75.2834 54.7123 75.3513 54.1187C75.6893 51.1908 76.5362 48.7836 77.8679 46.9646C79.4146 44.8524 81.6814 43.5432 83.9316 43.4649C86.3178 43.3794 88.6048 44.8433 89.2514 46.8663C89.3469 47.1649 89.5545 47.4107 89.8355 47.5546C90.1166 47.6984 90.4362 47.7257 90.7356 47.631C91.3583 47.4362 91.7037 46.7771 91.5071 46.1598Z" fill="#57B6DC"/>
<path d="M120.2 56.0306C122.748 60.0237 122.303 65.5827 119.263 69.0314C120.701 68.7254 122.184 68.6672 123.659 68.8383C130.263 63.689 134.649 55.6992 135.459 47.2468C136.356 37.9041 133.582 28.168 128.218 21.8388C122.752 15.3876 115.286 11.5019 106.03 10.2892C100.64 9.58273 94.2497 10.4258 89.7474 12.4323C85.2341 14.4444 81.1689 18.1279 78.3033 22.8039C75.7922 26.9007 74.0931 31.8225 73.2554 37.4288C73.2407 37.5254 73.294 37.6182 73.384 37.6565C73.474 37.6947 73.5787 37.6656 73.6394 37.5891C75.5865 35.0508 78.9701 33.1717 83.1693 32.2941C87.2712 31.4383 91.4245 31.7533 94.8669 33.1826C98.651 34.7522 101.697 37.7803 103.017 41.2817C104.443 45.0636 103.831 49.4209 101.458 52.3816C101.414 52.438 101.399 52.5127 101.421 52.5801C101.443 52.6474 101.498 52.7002 101.568 52.7203C101.921 52.8186 102.251 52.8932 102.575 52.9643C103.98 52.0029 105.576 51.2909 107.292 50.9049C112.174 49.8106 117.604 51.9646 120.2 56.0306Z" fill="#F5C371"/>
<path d="M107.553 29.6538C107.402 28.9127 107.09 28.228 106.811 27.6454C106.656 27.3267 106.273 27.1902 105.951 27.3431C105.63 27.4961 105.494 27.8766 105.646 28.1953C105.894 28.7088 106.168 29.3078 106.289 29.905C106.372 30.3166 106.419 30.9193 106.168 31.4564C105.852 32.1319 105.069 32.6017 104.221 32.6254C103.425 32.6491 102.56 32.2976 101.857 31.664C101.592 31.4254 101.184 31.4455 100.945 31.7059C100.705 31.9681 100.725 32.3723 100.988 32.609C101.904 33.4357 103.051 33.9036 104.149 33.9036C104.184 33.9036 104.221 33.9036 104.256 33.9018C105.582 33.8654 106.82 33.097 107.338 31.9917C107.652 31.3217 107.726 30.5132 107.553 29.6538Z" fill="#231F20"/>
<path d="M86.1689 22.4433C84.2585 21.7987 82.0376 23.7706 82.3334 25.7208C82.4509 26.4892 82.8826 27.2685 83.4741 27.7783C84.5873 28.7361 86.4242 28.1516 87.3408 27.2048C88.7093 25.79 88.0334 23.0733 86.1689 22.4433Z" fill="#FFEAA3"/>
<path d="M99.1302 26.4638C98.4451 24.876 96.7882 24.3298 95.28 25.0581C94.4259 25.4714 93.6103 26.2344 93.5111 27.2158C93.3403 28.9128 94.6867 30.934 96.5953 30.324C98.1034 29.8396 99.8558 28.1426 99.1302 26.4638Z" fill="#FFEAA3"/>
<path d="M106.329 14.0475C106.047 13.8544 105.738 13.6979 105.418 13.5868C104.057 13.1134 102.573 13.3847 101.636 14.5008C99.7974 16.6931 101.337 20.3931 104.43 19.7157C105.709 19.4353 107.241 18.6596 107.663 17.3304C108.08 16.0212 107.389 14.774 106.329 14.0475Z" fill="#FFEAA3"/>
<path d="M127.454 24.2878C127.203 23.5668 126.578 23.0169 125.865 22.762C124.179 22.1574 122.469 23.2591 122.019 24.9178C121.738 25.9539 122.061 27.1994 123.095 27.7165C124.33 28.3337 125.79 27.66 126.681 26.7532C127.348 26.0777 127.787 25.242 127.454 24.2878Z" fill="#FFEAA3"/>
<path d="M129.127 34.4172C126.749 34.3353 124.539 36.0997 124.73 38.5669C124.732 38.5906 124.737 38.6125 124.743 38.6361C124.743 38.9348 124.805 39.2407 124.956 39.5502C125.419 40.5043 126.361 41.249 127.34 41.6296C129.52 42.4818 131.96 41.6751 132.325 39.2243C132.665 36.9464 131.756 34.5065 129.127 34.4172Z" fill="#FFEAA3"/>
<path d="M115.154 43.3391C113.863 43.177 112.61 44.315 112.057 45.3802C111.513 46.4272 111.844 47.7091 112.747 48.4483C114.155 49.6009 116.309 48.9345 117.129 47.5506C118.201 46.1686 117.2 43.594 115.154 43.3391Z" fill="#FFEAA3"/>
<path d="M129.117 52.3307C128.132 50.7793 126.315 50.7866 124.927 51.8591C123.878 52.6694 123.196 54.0933 123.703 55.3842C124.179 56.5987 125.485 57.2561 126.749 57.2852C129.524 57.3489 130.406 54.3627 129.117 52.3307Z" fill="#FFEAA3"/>
<path d="M115.742 28.308C113.448 28.3991 111.894 30.4329 110.731 32.2028C110.431 32.5834 110.213 33.0167 110.167 33.5211C110.088 34.3805 110.551 35.1799 111.363 35.504C113.185 36.2323 115.437 34.1165 116.374 32.7873C117.18 31.642 118.183 28.2115 115.742 28.308Z" fill="#FFEAA3"/>
<path d="M97.606 13.3154C97.4076 12.5961 96.4928 12.4286 95.9656 12.394C87.9676 11.8641 80.7301 19.3824 77.3924 26.5929C76.8468 27.7728 76.4574 28.9582 76.2388 30.1199L76.226 30.1854C76.0919 30.8883 75.9412 31.6858 75.8861 32.3941C75.8641 32.6745 75.9229 32.944 76.0514 33.1534C76.1029 33.2372 76.1653 33.3118 76.237 33.3719C76.3821 33.4957 76.5419 33.5576 76.7164 33.5576C76.7642 33.5576 76.8119 33.5522 76.8615 33.5431C77.4843 33.4247 78.0831 32.5726 78.3127 32.1392C78.7683 31.278 79.0916 30.3439 79.4038 29.4425C79.5251 29.0929 79.6463 28.7433 79.7749 28.3974C81.1636 24.661 83.2853 21.6148 86.0811 19.3442C88.6124 17.2884 91.7425 16.1103 94.7477 15.1435C94.8469 15.1107 94.9902 15.0743 95.1592 15.0306C95.9123 14.8339 97.1725 14.5025 97.5344 13.8835C97.6354 13.705 97.6611 13.5138 97.606 13.3154Z" fill="#FFF4D1"/>
<path d="M99.9129 11.5801C99.5915 11.3944 99.2112 11.4071 98.8714 11.5346C98.6841 11.6056 98.5261 11.7003 98.4214 11.8787C98.0117 12.5743 99.0202 13.5211 99.7164 13.3518C100.056 13.2699 100.334 13.0077 100.416 12.669C100.525 12.232 100.291 11.7986 99.9129 11.5801Z" fill="#FFF4D1"/>
<path d="M135.537 46.3145C135.557 46.0122 135.576 45.7081 135.588 45.4059C135.427 45.5752 135.291 45.7846 135.197 46.0413C133.678 50.1273 131.341 53.9238 128.347 57.112C127.058 58.485 125.662 59.7377 124.203 60.9194C124.436 60.7301 123.509 58.5287 123.378 58.2155C122.991 57.285 122.504 56.3946 121.931 55.5607C120.805 53.9238 119.346 52.509 117.662 51.4419C114.137 49.2078 110.055 48.8108 106.119 50.1109C105.072 50.4569 104.12 50.9212 103.253 51.6204C102.792 51.6714 102.335 51.7351 101.883 51.8116C101.749 52.0082 101.605 52.1994 101.456 52.3851C101.412 52.4416 101.398 52.5162 101.42 52.5836C101.442 52.651 101.497 52.7038 101.567 52.7238C101.919 52.8221 102.25 52.8968 102.573 52.9678C103.979 52.0064 105.575 51.2945 107.291 50.9084C112.175 49.8105 117.603 51.9645 120.199 56.0305C122.333 59.3753 122.366 63.82 120.533 67.2031C120.533 67.2031 120.533 67.205 120.531 67.205C120.463 67.3288 120.393 67.4508 120.322 67.5728C120.316 67.5801 120.313 67.5892 120.307 67.5965C120.239 67.7093 120.169 67.8186 120.098 67.9278C120.087 67.9442 120.077 67.9606 120.066 67.9752C120 68.0753 119.93 68.1755 119.859 68.2738C119.842 68.2956 119.828 68.3193 119.811 68.3412C119.743 68.4359 119.671 68.5269 119.6 68.6179C119.58 68.6434 119.561 68.6689 119.543 68.6926C119.451 68.8073 119.357 68.9202 119.26 69.0295C120.698 68.7236 122.181 68.6653 123.656 68.8364C130.26 63.6871 134.646 55.6972 135.456 47.2449C135.486 46.939 135.511 46.6331 135.532 46.3272C135.537 46.3236 135.537 46.3181 135.537 46.3145Z" fill="#EBCE72"/>
<path d="M38.1591 40.6972C38.0342 40.4787 37.7532 40.4022 37.5327 40.526L31.8438 43.7271L35.7399 36.5584C35.8299 36.3909 35.8079 36.187 35.6811 36.0431C35.5562 35.9011 35.3541 35.8501 35.1741 35.9157C32.5914 36.8734 30.1079 38.1116 27.7952 39.5974C27.5821 39.734 27.5215 40.0162 27.6592 40.2274C27.797 40.4386 28.0817 40.4987 28.2948 40.3622C30.2052 39.1367 32.2332 38.0825 34.3365 37.2212L30.2769 44.6885C30.1795 44.8669 30.2144 45.0872 30.3595 45.2293C30.4477 45.3149 30.5634 45.3586 30.681 45.3586C30.7581 45.3586 30.8371 45.3385 30.9069 45.2985L37.9846 41.3145C38.2069 41.1925 38.284 40.9157 38.1591 40.6972Z" fill="#F7E9BC"/>
<path d="M43.3522 53.0096C43.253 52.7784 42.983 52.6709 42.7497 52.7693C41.5538 53.2736 40.3157 53.6943 39.0556 54.0256C40.167 52.3268 41.0817 50.506 41.7835 48.6032C41.8422 48.4429 41.8055 48.2627 41.6898 48.137C41.5722 48.0114 41.394 47.9622 41.2287 48.0078C39.096 48.6014 37.057 49.4827 35.1668 50.628C34.9501 50.7591 34.8821 51.0395 35.0144 51.2543C35.1466 51.4692 35.4295 51.5366 35.6463 51.4055C37.1985 50.4641 38.8572 49.7084 40.5876 49.1513C39.8161 51.034 38.826 52.8221 37.6357 54.479C37.5254 54.632 37.5218 54.8377 37.6265 54.9943C37.7128 55.1236 37.8579 55.1983 38.0104 55.1983C38.0435 55.1983 38.0765 55.1946 38.1078 55.1873C39.8179 54.8177 41.5006 54.2842 43.1116 53.605C43.343 53.5085 43.4514 53.2409 43.3522 53.0096Z" fill="#F7E9BC"/>
<path d="M33.2435 30.0542C33.1296 29.8302 32.8523 29.7392 32.6263 29.8521L23.2506 34.5426C25.0086 30.9027 27.1266 27.4267 29.5605 24.1947C29.6781 24.0381 29.6817 23.8233 29.5697 23.663C29.4576 23.5028 29.2537 23.43 29.0645 23.4846C25.905 24.3932 22.9439 25.8116 20.2638 27.7035C20.058 27.8491 20.0084 28.1332 20.1554 28.3389C20.3024 28.5429 20.5889 28.592 20.7965 28.4464C23.0137 26.8805 25.4311 25.6477 27.9973 24.7737C25.6129 28.0913 23.55 31.6438 21.8564 35.351C21.7756 35.5276 21.816 35.7334 21.9574 35.8681C22.0456 35.9519 22.1595 35.9956 22.2752 35.9956C22.345 35.9956 22.4167 35.9792 22.4828 35.9464L33.0415 30.6642C33.2656 30.5531 33.3574 30.2781 33.2435 30.0542Z" fill="#F7E9BC"/>
<path d="M48.525 40.0254C47.726 40.0254 47.7241 41.2563 48.525 41.2563C49.3241 41.2563 49.3259 40.0254 48.525 40.0254Z" fill="#ADB9D1"/>
<path d="M51.2808 24.6666C50.7517 24.6666 50.7517 25.4805 51.2808 25.4805C51.8098 25.4805 51.8098 24.6666 51.2808 24.6666Z" fill="#ADB9D1"/>
<path d="M70.0153 11.786C68.7203 11.786 68.7185 13.7817 70.0153 13.7817C71.3104 13.7817 71.314 11.786 70.0153 11.786Z" fill="#ADB9D1"/>
<path d="M51.0056 13.1862C50.8178 13.1862 50.8178 13.4739 51.0056 13.4739C51.1934 13.4739 51.1934 13.1862 51.0056 13.1862Z" fill="#ADB9D1"/>
<path d="M6.92084 30.9027C6.68698 30.9027 6.68698 31.2615 6.92084 31.2615C7.15469 31.2615 7.15469 30.9027 6.92084 30.9027Z" fill="#ADB9D1"/>
<path d="M19.32 37.6182H19.0444C18.745 37.6182 18.4603 37.8785 18.4731 38.1844C18.4878 38.4903 18.7248 38.7507 19.0444 38.7507H19.32C19.6194 38.7507 19.9041 38.4903 19.8912 38.1844C19.8765 37.8767 19.6396 37.6182 19.32 37.6182Z" fill="#ADB9D1"/>
<path d="M6.36952 62.6949C5.21776 62.6949 5.21593 64.4702 6.36952 64.4702C7.52127 64.4702 7.52311 62.6949 6.36952 62.6949Z" fill="#ADB9D1"/>
<path d="M19.5954 70.4369C18.5649 70.4369 18.5631 72.0247 19.5954 72.0247C20.6259 72.0229 20.6278 70.4369 19.5954 70.4369Z" fill="#ADB9D1"/>
<path d="M20.6978 77.6184C20.4824 77.6184 20.4805 77.9498 20.6978 77.9498C20.9132 77.9498 20.9132 77.6184 20.6978 77.6184Z" fill="#ADB9D1"/>
<path d="M5.79798 99.4175C5.41957 99.4175 5.41957 100 5.79798 100C6.17638 100 6.17638 99.4175 5.79798 99.4175Z" fill="#ADB9D1"/>
<path d="M20.6775 103.915C19.5203 103.915 19.5184 105.698 20.6775 105.698C21.8348 105.699 21.8366 103.915 20.6775 103.915Z" fill="#ADB9D1"/>
<path d="M39.5977 105.789C38.9805 105.789 38.9805 106.739 39.5977 106.739C40.2149 106.739 40.2149 105.789 39.5977 105.789Z" fill="#ADB9D1"/>
<path d="M56.6684 110.454C56.6592 110.268 56.5986 110.077 56.4571 109.947C56.4076 109.911 56.3598 109.873 56.3102 109.836C56.1981 109.771 56.0769 109.74 55.9465 109.738C55.7444 109.713 55.5185 109.829 55.3807 109.969C55.2356 110.117 55.1548 110.319 55.1548 110.527C55.1529 110.942 55.5001 111.344 55.941 111.319C56.132 111.308 56.312 111.246 56.4516 111.109C56.5766 110.985 56.6702 110.781 56.6629 110.603C56.6629 110.59 56.6592 110.577 56.6592 110.567C56.6647 110.527 56.6702 110.49 56.6684 110.454Z" fill="#ADB9D1"/>
<path d="M7.63529 112.107C6.71131 112.107 6.70947 113.531 7.63529 113.531C8.55927 113.531 8.5611 112.107 7.63529 112.107Z" fill="#ADB9D1"/>
<path d="M113.81 113.562C113.418 113.58 113.089 113.875 113.089 114.275V114.458C113.089 114.831 113.42 115.19 113.81 115.171C114.201 115.153 114.53 114.858 114.53 114.458V114.275C114.53 113.902 114.199 113.543 113.81 113.562Z" fill="#ADB9D1"/>
<path d="M124.832 115.472H124.648C124.547 115.472 124.547 115.628 124.648 115.628H124.832C124.933 115.628 124.933 115.472 124.832 115.472Z" fill="#ADB9D1"/>
<path d="M170.203 121.106C168.905 121.106 168.903 123.105 170.203 123.105C171.502 123.105 171.504 121.106 170.203 121.106Z" fill="#ADB9D1"/>
<path d="M169.653 106.996C168.712 106.996 168.71 108.445 169.653 108.445C170.593 108.445 170.595 106.996 169.653 106.996Z" fill="#ADB9D1"/>
<path d="M132.73 110.75C132.172 110.75 132.17 111.612 132.73 111.612C133.289 111.61 133.29 110.75 132.73 110.75Z" fill="#ADB9D1"/>
<path d="M129.135 102.726C129.075 102.666 129.012 102.604 128.951 102.544C128.79 102.384 128.549 102.285 128.321 102.285C128.103 102.285 127.842 102.382 127.691 102.544C127.535 102.712 127.419 102.934 127.43 103.169C127.441 103.403 127.52 103.624 127.691 103.793L127.875 103.975C128.037 104.135 128.277 104.234 128.505 104.234C128.724 104.234 128.984 104.137 129.135 103.975C129.291 103.808 129.407 103.586 129.396 103.351C129.385 103.116 129.306 102.895 129.135 102.726Z" fill="#ADB9D1"/>
<path d="M161.386 100.953C160.874 100.953 160.874 101.741 161.386 101.741C161.899 101.743 161.899 100.953 161.386 100.953Z" fill="#ADB9D1"/>
<path d="M149.079 89.3754C148.665 89.3754 148.665 90.0127 149.079 90.0127C149.492 90.0127 149.492 89.3754 149.079 89.3754Z" fill="#ADB9D1"/>
<path d="M139.344 78.72H139.159C139.097 78.72 139.097 78.8165 139.159 78.8165H139.344C139.406 78.8183 139.406 78.72 139.344 78.72Z" fill="#ADB9D1"/>
<path d="M141.959 67.2541C141.793 67.1048 141.591 67.0101 141.363 67.0101H141.18C140.965 67.0101 140.737 67.103 140.585 67.2541C140.439 67.398 140.329 67.6365 140.338 67.8441C140.348 68.0589 140.419 68.2829 140.585 68.434C140.75 68.5833 140.952 68.678 141.18 68.678H141.363C141.578 68.678 141.806 68.5852 141.959 68.434C142.104 68.2902 142.214 68.0517 142.205 67.8441C142.194 67.6292 142.122 67.4053 141.959 67.2541Z" fill="#ADB9D1"/>
<path d="M144.411 53.8236V54.0056C144.411 54.1021 144.564 54.1021 144.564 54.0056V53.8236C144.562 53.727 144.411 53.727 144.411 53.8236Z" fill="#ADB9D1"/>
<path d="M158.08 80.3316H157.966C157.158 80.3316 157.156 81.577 157.966 81.577H158.08C158.888 81.577 158.89 80.3316 158.08 80.3316Z" fill="#ADB9D1"/>
<path d="M151.283 62.8531C150.005 62.8531 150.001 64.8232 151.283 64.8232C152.562 64.8232 152.565 62.8531 151.283 62.8531Z" fill="#ADB9D1"/>
<path d="M167.081 54.5012C166.541 54.5012 166.541 55.3333 167.081 55.3333C167.621 55.3315 167.621 54.5012 167.081 54.5012Z" fill="#ADB9D1"/>
<path d="M140.445 42.1851H140.261C140.03 42.1851 139.787 42.2853 139.622 42.4473C139.466 42.6021 139.348 42.857 139.357 43.081C139.379 43.5653 139.754 43.9768 140.261 43.9768H140.445C140.676 43.9768 140.919 43.8767 141.084 43.7146C141.24 43.5598 141.358 43.3049 141.349 43.081C141.326 42.5966 140.952 42.1851 140.445 42.1851Z" fill="#ADB9D1"/>
<path d="M160.651 31.0651H160.284C159.902 31.0651 159.534 31.3983 159.551 31.7916C159.569 32.1849 159.872 32.5181 160.284 32.5181H160.651C161.033 32.5181 161.401 32.1849 161.384 31.7916C161.366 31.3983 161.061 31.0651 160.651 31.0651Z" fill="#ADB9D1"/>
<path d="M171.673 34.3444C170.497 34.3444 170.496 36.1562 171.673 36.1562C172.849 36.158 172.851 34.3444 171.673 34.3444Z" fill="#ADB9D1"/>
<path d="M172.04 25.7264C171.73 25.7264 171.73 26.2035 172.04 26.2035C172.351 26.2035 172.351 25.7264 172.04 25.7264Z" fill="#ADB9D1"/>
<path d="M165.749 2.88562C165.58 2.71811 165.302 2.59247 165.06 2.60157C164.808 2.6125 164.546 2.69444 164.371 2.88562C164.197 3.07499 164.085 3.30806 164.085 3.56844V3.75052C164.085 3.99816 164.193 4.25854 164.371 4.43334C164.54 4.60086 164.817 4.7265 165.06 4.71739C165.312 4.70647 165.574 4.62453 165.749 4.43334C165.923 4.24397 166.035 4.0109 166.035 3.75052V3.56844C166.035 3.32081 165.927 3.06042 165.749 2.88562Z" fill="#ADB9D1"/>
<path d="M153.601 0.137941H153.487C152.108 0.137941 152.104 2.26468 153.487 2.26468H153.601C154.981 2.26468 154.985 0.137941 153.601 0.137941Z" fill="#ADB9D1"/>
<path d="M127.036 8.55016C125.704 8.55016 125.7 10.6022 127.036 10.6022C128.368 10.6041 128.371 8.55016 127.036 8.55016Z" fill="#ADB9D1"/>
<path d="M105.176 1.54006C104.434 1.54006 104.432 2.68355 105.176 2.68355C105.918 2.68355 105.92 1.54006 105.176 1.54006Z" fill="#ADB9D1"/>
<path d="M75.0506 0.545905C73.9632 0.545905 73.9613 2.22108 75.0506 2.22108C76.1381 2.22108 76.1399 0.545905 75.0506 0.545905Z" fill="#ADB9D1"/>
<path d="M64.3962 39.4773C63.9719 39.4773 63.9719 40.1292 64.3962 40.1292C64.8205 40.1292 64.8205 39.4773 64.3962 39.4773Z" fill="#ADB9D1"/>
<path d="M36.4016 22.6126C36.3961 22.6126 36.3961 22.6198 36.4016 22.6198C36.407 22.6198 36.407 22.6126 36.4016 22.6126Z" fill="#515763"/>
<path d="M57.6217 2.12799L57.3462 1.85486C57.1992 1.70919 56.931 1.69827 56.7859 1.85486C56.6408 2.01145 56.6298 2.25545 56.7859 2.41022C56.8778 2.50126 56.9696 2.5923 57.0614 2.68334C57.2084 2.82901 57.4766 2.83994 57.6217 2.68334C57.7668 2.52675 57.7797 2.28276 57.6217 2.12799Z" fill="#515763"/>
<path d="M1.9611 21.0027H1.68556C1.41002 21.0027 1.14734 21.2431 1.1602 21.5235C1.17306 21.8057 1.39165 22.0442 1.68556 22.0442H1.9611C2.23664 22.0442 2.49932 21.8039 2.48646 21.5235C2.4736 21.2412 2.25685 21.0027 1.9611 21.0027Z" fill="#515763"/>
<path d="M13.5335 52.4704C12.5819 52.4704 12.5801 53.938 13.5335 53.938C14.485 53.938 14.4868 52.4704 13.5335 52.4704Z" fill="#515763"/>
<path d="M-0.188337 89.297H-0.263651C-1.25008 89.297 -1.25192 90.8174 -0.263651 90.8174H-0.188337C0.799931 90.8193 0.801768 89.297 -0.188337 89.297Z" fill="#515763"/>
<path d="M45.8431 121.016H45.6594C45.4684 121.016 45.2865 121.182 45.2957 121.377C45.3049 121.573 45.4555 121.737 45.6594 121.737H45.8431C46.0342 121.737 46.216 121.572 46.2068 121.377C46.1995 121.18 46.047 121.016 45.8431 121.016Z" fill="#515763"/>
<path d="M144.487 118.438C144.453 118.438 144.453 118.486 144.487 118.486C144.52 118.488 144.52 118.438 144.487 118.438Z" fill="#515763"/>
<path d="M157.712 110.18C156.887 110.18 156.885 111.45 157.712 111.45C158.537 111.451 158.539 110.18 157.712 110.18Z" fill="#515763"/>
<path d="M172.959 78.5359C172.182 78.5359 172.182 79.7322 172.959 79.7322C173.736 79.7304 173.736 78.5359 172.959 78.5359Z" fill="#515763"/>
<path d="M157.529 53.5559C157.183 53.5704 156.891 53.8326 156.891 54.1877V54.3698C156.891 54.6994 157.183 55.0162 157.529 55.0016C157.874 54.9871 158.166 54.7248 158.166 54.3698V54.1877C158.166 53.8581 157.872 53.5413 157.529 53.5559Z" fill="#515763"/>
<path d="M139.894 24.3077C139.635 24.3077 139.635 24.7064 139.894 24.7064C140.154 24.7083 140.154 24.3077 139.894 24.3077Z" fill="#515763"/>
<path d="M173.694 7.17538C173.649 7.17538 173.649 7.2424 173.694 7.2424C173.739 7.24421 173.739 7.17538 173.694 7.17538Z" fill="#515763"/>
<path d="M111.238 7.01889C111.225 7.01889 111.225 7.03803 111.238 7.03803C111.25 7.03629 111.25 7.01889 111.238 7.01889Z" fill="#515763"/>
<path d="M98.0123 5.83698C97.6597 5.85336 97.3621 6.11921 97.3621 6.48155V6.66364C97.3621 7.00049 97.6615 7.32278 98.0123 7.30821C98.365 7.29183 98.6626 7.02598 98.6626 6.66364V6.48155C98.6626 6.1447 98.3632 5.82241 98.0123 5.83698Z" fill="#515763"/>
<path d="M65.8842 24.9378C64.6424 24.9378 64.6406 26.8497 65.8842 26.8497C67.1241 26.8497 67.1278 24.9378 65.8842 24.9378Z" fill="#F2E3B5"/>
<path d="M38.5175 21.8842C38.3356 21.7039 38.0399 21.5692 37.779 21.5819C37.509 21.5947 37.2298 21.6821 37.0406 21.8842C36.8532 22.0863 36.7356 22.3357 36.7356 22.6162V22.8893C36.7356 23.1551 36.8514 23.4337 37.0406 23.6213C37.2224 23.8015 37.5182 23.9363 37.779 23.9235C38.049 23.9108 38.3283 23.8234 38.5175 23.6213C38.7048 23.4191 38.8224 23.1697 38.8224 22.8893V22.6162C38.8224 22.3503 38.7067 22.0717 38.5175 21.8842Z" fill="#F2E3B5"/>
<path d="M38.3305 7.6981C38.1114 7.6981 38.1095 8.03677 38.3305 8.03677C38.5515 8.03677 38.5515 7.6981 38.3305 7.6981Z" fill="#F2E3B5"/>
<path d="M18.4931 19.4424H18.2176C17.9843 19.4424 17.762 19.6463 17.773 19.883C17.784 20.1216 17.9696 20.3255 18.2176 20.3255H18.4931C18.7264 20.3255 18.9487 20.1216 18.9376 19.883C18.9266 19.6463 18.7429 19.4424 18.4931 19.4424Z" fill="#F2E3B5"/>
<path d="M0.0321519 53.7072C-0.733848 53.7072 -0.735684 54.8871 0.0321519 54.8871C0.798151 54.8871 0.799988 53.7072 0.0321519 53.7072Z" fill="#F2E3B5"/>
<path d="M26.2084 54.9924H25.9329C25.7235 54.9924 25.5214 55.1745 25.5324 55.3893C25.5416 55.6042 25.7088 55.7863 25.9329 55.7863H26.2084C26.4178 55.7863 26.6199 55.6042 26.6089 55.3893C26.5997 55.1745 26.4325 54.9924 26.2084 54.9924Z" fill="#F2E3B5"/>
<path d="M23.4527 86.7606C22.6959 86.7606 22.694 87.926 23.4527 87.926C24.2095 87.926 24.2113 86.7606 23.4527 86.7606Z" fill="#F2E3B5"/>
<path d="M13.2577 91.7062C12.5395 91.7062 12.5377 92.8133 13.2577 92.8133C13.976 92.8133 13.9778 91.7062 13.2577 91.7062Z" fill="#F2E3B5"/>
<path d="M0.967027 106.961C0.895387 106.744 0.759454 106.528 0.548207 106.42C0.393905 106.342 0.232256 106.28 0.0559107 106.287C-0.184727 106.298 -0.436387 106.382 -0.605384 106.56C-0.794588 106.761 -0.884597 106.997 -0.893782 107.267C-0.902966 107.516 -0.789076 107.804 -0.603547 107.973C-0.276573 108.27 0.160615 108.321 0.550044 108.114C0.748433 108.008 0.910082 107.784 0.968864 107.573C0.992744 107.487 0.998255 107.391 0.994581 107.294C1.00744 107.181 1.00193 107.068 0.967027 106.961Z" fill="#F2E3B5"/>
<path d="M35.189 93.6108C34.5993 93.6108 34.5993 94.5176 35.189 94.5176C35.7786 94.5176 35.7786 93.6108 35.189 93.6108Z" fill="#F2E3B5"/>
<path d="M130.893 119.866C129.877 119.866 129.875 121.43 130.893 121.43C131.909 121.431 131.911 119.866 130.893 119.866Z" fill="#F2E3B5"/>
<path d="M144.565 120.024C144.505 119.964 144.442 119.902 144.382 119.842C144.22 119.682 143.981 119.583 143.752 119.583C143.533 119.583 143.272 119.68 143.122 119.842C142.966 120.009 142.85 120.232 142.861 120.466C142.872 120.699 142.951 120.922 143.122 121.091C143.182 121.151 143.245 121.213 143.305 121.273C143.467 121.433 143.706 121.532 143.935 121.532C144.154 121.532 144.415 121.435 144.565 121.273C144.722 121.106 144.837 120.883 144.826 120.649C144.815 120.415 144.734 120.193 144.565 120.024Z" fill="#F2E3B5"/>
<path d="M156.61 118.966C156.079 118.966 156.079 119.784 156.61 119.784C157.141 119.782 157.141 118.966 156.61 118.966Z" fill="#F2E3B5"/>
<path d="M147.609 101.557C147.425 101.564 147.269 101.704 147.269 101.894V102.076C147.269 102.252 147.425 102.42 147.609 102.413C147.793 102.405 147.949 102.265 147.949 102.076V101.894C147.949 101.717 147.793 101.55 147.609 101.557Z" fill="#F2E3B5"/>
<path d="M137.138 93.3213C136.411 93.3213 136.409 94.4411 137.138 94.4411C137.866 94.4429 137.868 93.3213 137.138 93.3213Z" fill="#F2E3B5"/>
<path d="M175.163 95.894C174.465 95.894 174.465 96.9683 175.163 96.9683C175.861 96.9683 175.861 95.894 175.163 95.894Z" fill="#F2E3B5"/>
<path d="M147.502 78.1464C147.442 78.0863 147.379 78.0244 147.319 77.9643C147.183 77.8296 146.933 77.8187 146.799 77.9643C146.665 78.11 146.654 78.3358 146.799 78.4796L146.982 78.6617C147.118 78.7965 147.368 78.8074 147.502 78.6617C147.636 78.5179 147.647 78.2921 147.502 78.1464Z" fill="#F2E3B5"/>
<path d="M162.121 69.5793C161.773 69.5793 161.772 70.1146 162.121 70.1146C162.468 70.1146 162.47 69.5793 162.121 69.5793Z" fill="#F2E3B5"/>
<path d="M169.652 64.7613C169.36 64.774 169.114 64.9962 169.114 65.2948V65.4769C169.114 65.7554 169.362 66.0231 169.652 66.0104C169.945 65.9976 170.191 65.7755 170.191 65.4769V65.2948C170.191 65.0162 169.943 64.7485 169.652 64.7613Z" fill="#F2E3B5"/>
<path d="M147.425 35.6699C147.232 35.679 147.067 35.8246 147.067 36.0249V36.116C147.067 36.3017 147.231 36.4783 147.425 36.471C147.618 36.4619 147.784 36.3163 147.784 36.116V36.0249C147.784 35.8392 147.618 35.6626 147.425 35.6699Z" fill="#F2E3B5"/>
<path d="M136.956 31.7897C136.714 31.7897 136.714 32.1593 136.956 32.1593C137.197 32.1575 137.197 31.7897 136.956 31.7897Z" fill="#F2E3B5"/>
<path d="M171.489 15.6787H171.305C171.067 15.6787 170.835 15.8881 170.848 16.1321C170.859 16.3779 171.05 16.5854 171.305 16.5854H171.489C171.728 16.5854 171.959 16.3761 171.946 16.1321C171.935 15.8862 171.746 15.6787 171.489 15.6787Z" fill="#F2E3B5"/>
<path d="M174.428 9.25305C173.299 9.25305 173.297 10.9938 174.428 10.9938C175.558 10.9938 175.56 9.25305 174.428 9.25305Z" fill="#F2E3B5"/>
<path d="M134.855 0.665991C134.807 0.622291 134.749 0.594978 134.682 0.594978H134.637C134.574 0.594978 134.508 0.622291 134.464 0.665991C134.422 0.70787 134.389 0.777062 134.392 0.83715C134.396 0.90088 134.416 0.964609 134.464 1.00831C134.512 1.05201 134.57 1.07932 134.637 1.07932H134.682C134.745 1.07932 134.811 1.05201 134.855 1.00831C134.897 0.96643 134.93 0.897238 134.927 0.83715C134.923 0.773421 134.903 0.709691 134.855 0.665991Z" fill="#F2E3B5"/>
<path d="M120.423 -1.24245C119.379 -1.24245 119.377 0.365355 120.423 0.365355C121.466 0.367176 121.468 -1.24245 120.423 -1.24245Z" fill="#F2E3B5"/>
<path d="M110.32 7.33554C109.3 7.33554 109.298 8.90511 110.32 8.90511C111.339 8.90511 111.341 7.33554 110.32 7.33554Z" fill="#F2E3B5"/>
<path d="M87.358 7.55405C87.0947 7.55405 87.0929 7.9601 87.358 7.9601C87.6214 7.95828 87.6232 7.55405 87.358 7.55405Z" fill="#F2E3B5"/>
<path d="M66.0493 42.1045C65.9648 42.1045 65.9648 42.2331 66.0493 42.2331C66.1337 42.235 66.1337 42.1045 66.0493 42.1045Z" fill="#F2E3B5"/>
</g>
</svg>
