<svg width="164" height="132" viewBox="0 0 164 132" fill="none" xmlns="http://www.w3.org/2000/svg">
<mask id="mask0_1006_9019" style="mask-type:alpha" maskUnits="userSpaceOnUse" x="-4" y="0" width="177" height="210">
<rect x="-4" width="176.435" height="210" rx="10" fill="#8E97FD"/>
</mask>
<g mask="url(#mask0_1006_9019)">
<g clip-path="url(#clip0_1006_9019)">
<path d="M150.386 27H147V44H150.386V27Z" fill="#9BA3FF"/>
<path d="M155.693 32.7142H152.307V43.9997H155.693V32.7142Z" fill="#9BA3FF"/>
<path d="M161.007 38.1H157.621V44H161.007V38.1Z" fill="#9BA3FF"/>
</g>
<g clip-path="url(#clip1_1006_9019)">
<path d="M85.5 132C104.554 132 120 129.314 120 126C120 122.686 104.554 120 85.5 120C66.4462 120 51 122.686 51 126C51 129.314 66.4462 132 85.5 132Z" fill="#808AFF"/>
</g>
<path d="M79.6816 48.1561C79.6816 48.1561 78.3301 63.0966 83.9284 62.8715C89.9338 62.6269 88.3185 48.1561 88.3185 48.1561C87.5336 45.8237 87.221 44.4405 87.5727 41.9939H80.2809C80.6326 44.4405 80.4632 45.8237 79.6816 48.1561Z" fill="#FDBCA0"/>
<path d="M80.4275 44.884C81.2547 45.1319 82.0884 45.3603 82.9514 45.432C83.7689 45.5005 84.6091 45.4483 85.4233 45.3603C86.1007 45.2852 86.8237 45.1645 87.5011 44.9394C87.3936 44.0521 87.4099 43.1387 87.576 41.9905H80.2842C80.4438 43.1159 80.4926 44.0163 80.4275 44.884Z" fill="#F0A38B"/>
<path d="M83.9283 44.0327C86.0094 44.0327 88.0122 43.2107 89.4778 41.7297C91.2234 39.9681 92.5912 38.0043 92.9918 35.698C93.5063 32.736 92.5065 29.7772 90.3245 27.3959H77.5288C75.3468 29.774 74.347 32.736 74.8616 35.698C75.2621 38.0043 76.6332 39.9681 78.3756 41.7297C79.8444 43.2074 81.8473 44.0327 83.9283 44.0327Z" fill="#FDBCA0"/>
<path d="M84.5635 49.8982C84.2997 50.1885 84.0522 50.5049 83.8177 50.8213C83.5344 50.6256 83.3097 50.3875 83.0622 50.1428C83.0394 50.12 82.9938 50.1428 83.0035 50.1754C83.1436 50.5604 83.4367 50.8735 83.7363 51.141C83.8014 51.1965 83.8926 51.203 83.9578 51.141C84.2737 50.8311 84.5831 50.469 84.8273 50.0971C84.9315 49.9438 84.6905 49.7579 84.5635 49.8982Z" fill="#DF8370"/>
<path d="M91.6046 49.3272C89.6603 49.4936 87.7421 49.81 85.85 50.2928C85.736 50.3222 85.7848 50.4951 85.8988 50.469C87.7812 50.0514 89.6831 49.7676 91.6046 49.6371C91.8065 49.6241 91.8033 49.3109 91.6046 49.3272Z" fill="#DF8370"/>
<path d="M76.2491 49.3272C78.1934 49.4936 80.1116 49.81 82.0037 50.2928C82.1177 50.3222 82.0689 50.4951 81.9549 50.469C80.0725 50.0514 78.1706 49.7676 76.2491 49.6371C76.0504 49.6241 76.0504 49.3109 76.2491 49.3272Z" fill="#DF8370"/>
<path d="M76.5844 22.4702C73.8651 24.0295 71.9501 26.4858 71.9175 29.7871C71.885 33.5092 76.4118 39.4365 76.3499 39.2897C74.8453 35.6687 74.4513 30.6842 78.2063 28.1887C78.5808 27.9407 79.0498 27.7972 79.3852 27.5069C79.3754 25.5398 78.291 23.6347 76.5844 22.4702Z" fill="#3F4553"/>
<path d="M91.0049 22.4702C93.7243 24.0295 95.6392 26.4858 95.6718 29.7871C95.7044 33.5092 93.48 36.8203 91.2654 39.6322C91.8289 38.4056 93.1348 30.6809 89.3798 28.1887C89.0053 27.9407 88.5363 27.7972 88.2009 27.5069C88.2139 25.5398 89.3016 23.6347 91.0049 22.4702Z" fill="#424495"/>
<path d="M130.05 20.4999C127.973 19.4658 125.546 19.244 123.286 19.7039C122.192 19.9257 121.156 20.3139 120.169 20.8391C119.515 21.1849 118.851 21.6808 118.088 21.7395C117.164 21.808 116.353 21.2045 115.665 20.6695C113.529 19.0058 111.357 17.5476 108.608 17.1464C107.279 16.9507 105.794 17.0942 104.765 17.9097C103.71 16.5136 102.137 15.5186 100.404 15.1532C98.1116 14.6705 95.9329 15.3588 94.1319 16.7419C93.1158 16.2428 91.3377 15.5251 91.1129 15.4631C84.3389 13.5972 75.0898 18.3306 76.2883 26.313C77.3174 33.1732 85.9901 36.344 91.9988 34.9348C93.2949 37.3912 96.4019 37.962 98.7956 36.6833C98.9779 36.8236 99.1603 36.9638 99.3459 37.1008C103.166 39.9063 107.612 41.7298 112.412 40.9012C114.236 40.5848 115.942 39.9258 117.512 38.9798C119.004 40.102 120.967 40.4576 122.775 39.5898C124.12 38.9472 125.022 37.7598 125.344 36.4158C125.367 36.4158 125.39 36.4158 125.413 36.4158C129.406 36.3669 133.639 34.3802 134.659 30.1884C135.587 26.3782 133.522 22.2255 130.05 20.4999Z" fill="#4E5567"/>
<path d="M111.897 19.257C113.21 20.3303 113.988 21.8015 113.171 23.4228C112.506 24.7439 111.311 25.7063 110.441 26.8774C109.422 28.2475 109.246 30.0058 110.917 31.0072C112.562 31.9924 114.623 30.7658 115.994 29.8361C117.688 28.6846 119.505 25.354 120.964 23.9251C127.445 17.5803 133.88 24.3623 133.906 24.3851C133.066 22.7345 131.724 21.335 130.05 20.4999C127.972 19.4658 125.546 19.244 123.286 19.7039C122.192 19.9258 121.156 20.314 120.169 20.8392C119.515 21.185 118.85 21.6808 118.088 21.7395C117.163 21.808 116.352 21.2045 115.665 20.6695C113.529 19.0059 111.357 17.5477 108.608 17.1464C107.308 16.9572 105.859 17.0942 104.833 17.8641C107.071 16.9931 110.103 17.7858 111.897 19.257Z" fill="#3F4553"/>
<path d="M129.158 35.3394C127.572 35.5253 126.087 35.4373 124.628 34.7881C123.999 36.4224 122.713 38.0731 120.895 38.3308C119.674 38.5037 118.231 38.122 117.981 36.8269C109.396 43.8275 99.7723 36.0179 98.8441 34.5532C96.1671 36.3017 92.7931 34.1683 91.7933 31.4379C89.7546 32.2306 87.4032 31.9859 85.4231 31.1345C81.7333 29.5524 79.6881 25.1909 80.9777 21.3416C82.0524 18.1415 84.9151 15.9526 88.0871 15.062C81.9026 15.0261 75.2622 19.4757 76.288 26.3131C77.3172 33.1733 85.9866 36.3441 91.9985 34.9349C93.2947 37.3913 96.4016 37.9622 98.7953 36.6834C98.9776 36.8237 99.16 36.9639 99.3457 37.101C103.166 39.9064 107.611 41.7299 112.412 40.9013C114.235 40.5849 115.942 39.926 117.512 38.9799C119.003 40.1021 120.967 40.4577 122.775 39.59C124.12 38.9473 125.022 37.7599 125.344 36.4159C125.367 36.4159 125.39 36.4159 125.413 36.4159C127.318 36.3931 129.275 35.9266 130.916 34.9936C130.34 35.1665 129.741 35.2709 129.158 35.3394Z" fill="#3F4553"/>
<path d="M81.6421 37.4467C80.5022 37.6359 78.6491 37.6978 77.5972 36.5691C77.3888 36.3441 77.1054 36.5985 77.366 36.8236C77.4083 36.8595 77.4506 36.8921 77.493 36.9247C77.3692 36.9606 77.239 36.9769 77.1022 36.9671C77.0989 36.9671 77.0989 36.9704 77.1022 36.9736C77.2683 37.0291 77.4376 37.0454 77.6037 37.0128C77.607 37.0161 77.6102 37.0193 77.6135 37.0193C77.4702 37.1139 77.2976 37.1531 77.1282 37.2085C77.125 37.2085 77.125 37.2118 77.1282 37.215C77.3367 37.2346 77.5549 37.2085 77.7275 37.0976C77.747 37.1107 77.7665 37.1172 77.7861 37.1302C77.6558 37.2314 77.5093 37.3064 77.3432 37.3455C77.3269 37.3488 77.3301 37.3749 77.3464 37.3749C77.5581 37.3847 77.76 37.3325 77.9294 37.215C77.9652 37.2346 78.0043 37.2509 78.0401 37.2705C77.9196 37.3586 77.7959 37.4369 77.6558 37.5021C77.6428 37.5086 77.6493 37.5315 77.6623 37.5315C77.848 37.538 78.0108 37.4434 78.1574 37.3325C78.2029 37.3553 78.2485 37.3716 78.2974 37.3912C78.2355 37.4532 78.1639 37.5119 78.0955 37.5706C78.0857 37.5804 78.0955 37.5935 78.1085 37.5935C78.2257 37.5641 78.3332 37.5152 78.4244 37.4467C79.4698 37.8773 80.6943 37.8903 81.743 37.5119C81.8537 37.4662 81.7691 37.4271 81.6421 37.4467Z" fill="#3F4553"/>
<path d="M86.322 37.4467C87.4618 37.6359 89.3149 37.6978 90.3668 36.5691C90.5752 36.3441 90.8586 36.5985 90.598 36.8236C90.5557 36.8595 90.5134 36.8921 90.471 36.9247C90.598 36.9606 90.725 36.9769 90.8618 36.9671C90.8651 36.9671 90.8651 36.9704 90.8618 36.9736C90.6957 37.0291 90.5264 37.0454 90.3603 37.0128C90.357 37.0161 90.3538 37.0193 90.3505 37.0193C90.4938 37.1139 90.6664 37.1531 90.8358 37.2085C90.839 37.2085 90.839 37.2118 90.8358 37.215C90.6273 37.2346 90.4091 37.2085 90.2365 37.0976C90.217 37.1107 90.1975 37.1172 90.1779 37.1302C90.3082 37.2314 90.4547 37.3064 90.6208 37.3455C90.6371 37.3488 90.6339 37.3749 90.6176 37.3749C90.4059 37.3847 90.204 37.3325 90.0346 37.215C89.9988 37.2346 89.9597 37.2509 89.9239 37.2705C90.0444 37.3586 90.1681 37.4369 90.3082 37.5021C90.3212 37.5086 90.3147 37.5315 90.3017 37.5315C90.116 37.538 89.9532 37.4434 89.8067 37.3325C89.7611 37.3553 89.7155 37.3716 89.6699 37.3912C89.7317 37.4532 89.8034 37.5119 89.8718 37.5706C89.8816 37.5804 89.8718 37.5935 89.8588 37.5935C89.7415 37.5641 89.634 37.5152 89.5429 37.4467C88.4974 37.8773 87.2729 37.8903 86.221 37.5119C86.1135 37.4662 86.1949 37.4271 86.322 37.4467Z" fill="#3F4553"/>
<path d="M84.7001 39.8248C84.166 40.1021 83.6352 40.213 83.0848 39.8803C83.0457 39.8574 83.0001 39.9129 83.0359 39.9455C83.5082 40.3663 84.3484 40.474 84.8206 39.9814C84.8988 39.8966 84.8011 39.7726 84.7001 39.8248Z" fill="#3F4553"/>
<path d="M85.9213 41.7493C85.2537 41.9483 84.5958 42.0233 83.9445 41.9939C83.2931 42.0233 82.6353 41.9483 81.9677 41.7493C81.9514 41.7428 81.9383 41.7721 81.9546 41.7786C82.5962 42.0527 83.2703 42.1995 83.9445 42.2158C84.6186 42.1995 85.2928 42.0527 85.9343 41.7786C85.9506 41.7721 85.9376 41.746 85.9213 41.7493Z" fill="#3F4553"/>
<path d="M80.883 39.0451C80.8277 39.019 80.7691 38.9962 80.7104 38.9799C79.9647 38.7874 79.0821 38.4221 78.3037 38.5558C77.7533 38.6504 77.6263 39.3191 77.939 39.7139C78.2744 40.1379 78.9323 40.2586 79.4403 40.2978C79.9516 40.3369 80.7528 40.3924 81.1338 39.9911C81.479 39.629 81.2445 39.2213 80.883 39.0451Z" fill="#FBAD8B"/>
<path d="M86.9794 39.0451C87.0348 39.019 87.0934 38.9962 87.1521 38.9799C87.8978 38.7874 88.7804 38.4221 89.5588 38.5558C90.1092 38.6504 90.2362 39.3191 89.9235 39.7139C89.5881 40.1379 88.9302 40.2586 88.4222 40.2978C87.9109 40.3369 87.1097 40.3924 86.7287 39.9911C86.3835 39.629 86.6212 39.2213 86.9794 39.0451Z" fill="#FBAD8B"/>
<path d="M74.0932 34.1616C73.3213 34.0474 72.4941 34.3671 72.6341 35.2838C72.7449 36.0145 73.5298 36.742 74.7282 36.5234C74.4026 35.7666 74.1778 34.9706 74.0932 34.1616Z" fill="#F9CDB9"/>
<path d="M73.3473 34.8794C73.559 34.7032 73.8879 34.625 74.1712 34.6706C74.1549 34.5825 74.1452 34.4912 74.1321 34.4031C73.7446 34.3672 73.2886 34.5271 73.0672 34.8076C72.722 35.248 72.9825 35.7373 73.3636 36.0375C73.4189 36.0831 73.4971 36.0114 73.445 35.9559C73.1681 35.6623 72.976 35.1893 73.3473 34.8794Z" fill="#F8C4AB"/>
<path d="M74.3244 35.3686C74.1225 35.1859 73.8587 35.0848 73.5558 35.0978C73.4874 35.1011 73.4614 35.2153 73.5395 35.2251C73.8163 35.2642 74.0541 35.4077 74.2006 35.6296C74.0313 35.7209 73.9075 35.9199 74.0801 36.083C74.2169 36.2135 74.4188 36.2428 74.611 36.2233C74.5035 35.9427 74.4025 35.6589 74.3244 35.3686Z" fill="#F8C4AB"/>
<path d="M74.025 36.3114C74.0217 36.3081 74.0152 36.3114 74.0185 36.3146C74.1422 36.6213 74.3181 37.339 73.8947 37.4857C73.6114 37.5836 73.5853 37.2183 73.6276 37.0258C73.6667 36.8496 73.7644 36.667 73.8458 36.5104C73.8458 36.5104 73.6504 36.468 73.4713 36.3766C73.2271 36.5854 73.1391 36.8953 73.1815 37.2215C73.2206 37.5184 73.4094 37.8446 73.7449 37.8544C74.0445 37.8642 74.2595 37.6064 74.305 37.3324C74.3572 36.9769 74.2139 36.6017 74.025 36.3114Z" fill="#FDCA27"/>
<path d="M136.345 92.4917C134.515 90.3094 130.555 90.1332 127.956 89.8625C120.143 89.0469 112.132 89.2492 104.315 89.882C100.424 90.1985 96.5514 90.6715 92.6954 91.2945C89.9044 91.748 86.7877 92.0644 84 92.9582C81.2122 92.0644 78.0955 91.7447 75.3045 91.2945C71.4518 90.6682 67.5763 90.1952 63.6845 89.882C55.8683 89.2492 47.8535 89.0469 40.0439 89.8625C37.4483 90.1332 33.4848 90.3094 31.6546 92.4917C29.8862 94.5991 32.0682 97.1533 33.7486 98.4941C36.0707 100.347 39.018 101.26 41.8318 102.06C45.3654 103.058 48.9804 103.736 52.6149 104.252C68.8822 106.548 77.7145 104.855 86.2178 104.751C86.5435 105.165 86.8496 105.596 87.1297 106.043C95.7502 106.098 106.823 105.41 115.382 104.252C119.02 103.759 122.631 103.061 126.165 102.06C128.982 101.264 131.926 100.35 134.248 98.4941C135.928 97.1533 138.111 94.5991 136.345 92.4917Z" fill="#93BFA8"/>
<path d="M124.803 94.0022C125.074 93.6565 126.712 93.2291 127.357 92.942C124.318 93.1867 121.267 93.5521 118.235 93.8652C112.467 94.4589 106.693 95.9889 101.228 97.9037C98.6128 98.8204 96.0042 99.7827 93.4053 100.748C91.3471 101.512 89.3116 102.347 87.3804 103.387C87.6767 103.296 87.9731 103.205 88.2695 103.117C91.3503 102.21 103.905 95.4082 127.152 94.5698C126.614 94.4524 124.699 94.136 124.803 94.0022Z" fill="#66A986"/>
<path d="M43.5384 93.5226C43.2681 93.1768 41.6299 92.7494 40.9851 92.4624C44.0236 92.707 47.0752 93.0724 50.1072 93.3855C55.8749 93.9793 61.649 95.5092 67.1138 97.4241C69.729 98.3407 72.3376 99.303 74.9365 100.269C76.9948 101.032 79.0302 101.867 80.9614 102.908C80.6651 102.816 80.3687 102.725 80.0724 102.637C76.9915 101.73 64.4368 94.9285 41.1903 94.0902C41.7244 93.9727 43.6393 93.6563 43.5384 93.5226Z" fill="#66A986"/>
<path d="M91.8585 100.735C90.5493 100.21 89.1652 100.197 87.8918 100.742C85.7163 101.678 83.0491 100.243 80.7889 100.5C78.7078 100.739 77.441 103.11 79.0335 104.624C79.4178 104.989 83.2803 106.392 89.3997 103.534C90.0706 103.221 90.7252 103.042 91.484 103.051C91.6598 103.055 91.8259 103.221 92.0116 103.201C92.4089 103.152 92.7346 103.081 92.956 102.696C93.4771 101.789 92.6075 101.035 91.8585 100.735Z" fill="#FDB597"/>
<path d="M76.5843 105.547C77.6883 104.669 79.0138 104.258 80.3849 104.418C82.7363 104.692 84.8824 102.552 87.1231 102.151C89.1846 101.782 91.0767 103.691 89.9825 105.602C89.7187 106.062 86.4164 108.512 79.7368 107.527C79.004 107.419 78.3266 107.436 77.6037 107.661C77.4376 107.713 77.3236 107.922 77.1379 107.954C76.7439 108.023 76.4117 108.046 76.0893 107.742C75.3337 107.021 75.9525 106.049 76.5843 105.547Z" fill="#FDBCA0"/>
<path d="M120.967 51.9565C120.214 52.3447 119.423 52.7818 118.684 53.1896C119.075 52.8699 121.243 50.6582 122.087 50.1134C122.178 50.0547 121.963 49.1576 119.745 50.9322C119.084 51.4607 118.303 51.9957 117.681 52.5731C118.472 51.0692 119.133 49.5458 120.169 48.1692C120.211 48.1137 120.198 48.0518 120.162 48.0094C119.951 47.843 119.42 48.0322 119.182 48.2866C118.759 48.7368 117.15 50.4788 116.368 52.3154C116.381 51.6858 116.326 50.6647 115.88 50.456C115.6 50.3222 115.134 50.4984 114.834 50.5212C114.245 50.5636 113.473 50.6484 112.923 50.4135C112.841 50.3809 112.636 50.3548 112.711 50.6256C112.962 51.5129 114.199 51.6238 114.968 51.8195C115.228 52.4524 114.496 53.4897 114.033 53.8029C113.281 54.315 112.183 53.8127 112.372 52.8079C112.538 51.9239 113.066 51.5227 112.6 50.6549C112.447 50.3679 111.789 50.1069 111.936 50.5701C112.314 51.7543 111.229 52.7492 111.089 53.8942C110.978 54.8011 111.457 55.6068 111.939 56.3343C111.91 56.4093 111.887 56.4844 111.861 56.5561C111.206 57.6913 110.698 58.8885 110.33 60.1412C111.17 60.4185 113.639 60.2423 113.629 60.2228C113.639 60.2423 113.926 58.4873 114.583 57.7468C115.303 56.9345 116.209 56.3082 117.075 55.6688C118.895 54.3216 120.745 53.0135 122.621 51.7412C122.729 51.6727 122.641 51.0921 120.967 51.9565Z" fill="#FDBCA0"/>
<path d="M47.2314 51.9565C47.9837 52.3447 48.775 52.7818 49.5143 53.1896C49.1235 52.8699 46.9545 50.6582 46.111 50.1134C46.0199 50.0547 46.2348 49.1576 48.4526 50.9322C49.1137 51.4607 49.8954 51.9957 50.5174 52.5731C49.726 51.0692 49.0649 49.5458 48.0293 48.1692C47.9869 48.1137 47.9999 48.0518 48.0358 48.0094C48.2475 47.843 48.7783 48.0322 49.016 48.2866C49.4394 48.7368 51.0482 50.4788 51.8299 52.3154C51.8168 51.6858 51.8722 50.6647 52.3184 50.456C52.5984 50.3222 53.0642 50.4984 53.3638 50.5212C53.9532 50.5636 54.7251 50.6484 55.2755 50.4135C55.3569 50.3809 55.5621 50.3548 55.4872 50.6256C55.2364 51.5129 53.9988 51.6238 53.2303 51.8195C52.9697 52.4524 53.7025 53.4897 54.1649 53.8029C54.9172 54.315 56.0148 53.8127 55.8259 52.8079C55.6598 51.9239 55.1322 51.5227 55.5979 50.6549C55.751 50.3679 56.4088 50.1069 56.2623 50.5701C55.8845 51.7543 56.969 52.7492 57.109 53.8942C57.2197 54.8011 56.741 55.6068 56.259 56.3343C56.2883 56.4093 56.3111 56.4844 56.3372 56.5561C56.9918 57.6913 57.4998 58.8885 57.8678 60.1412C57.0276 60.4185 54.559 60.2423 54.5688 60.2228C54.559 60.2423 54.2724 58.4873 53.6145 57.7468C52.8948 56.9345 51.9894 56.3082 51.1231 55.6688C49.3026 54.3216 47.4528 53.0135 45.5769 51.7412C45.4695 51.6727 45.5574 51.0921 47.2314 51.9565Z" fill="#FDBCA0"/>
<path d="M109.451 58.9865C108.23 62.1409 104.088 73.7867 102.358 78.7256C101.329 76.0833 98.5479 64.6104 96.2063 51.2911C95.4768 47.1515 90.8164 47.7419 88.3217 48.1562C88.1426 50.9355 85.4493 58.6407 84.0033 58.657C82.5573 58.6407 79.6914 51.4803 79.6849 48.1562C77.1935 47.7419 72.5299 47.1515 71.8004 51.2911C69.4555 64.6104 66.6775 76.0865 65.6484 78.7256C63.9158 73.7867 59.7765 62.1409 58.5552 58.9865C56.9888 59.727 55.2562 60.1347 53.5269 60.2359C54.8654 63.8014 59.2848 89.0502 65.7982 89.0502C68.6218 89.0502 70.4097 86.0458 73.2887 74.9154C73.432 76.7748 73.4808 80.3469 73.4092 84.1016C73.3571 86.8059 71.491 89.931 68.9931 89.3275C68.4883 89.2068 67.8304 89.5885 68.4557 90.267C68.625 90.4529 68.8432 90.59 69.068 90.6943C73.0575 92.5864 73.2138 95.4146 75.5684 97.062C76.9916 98.057 78.7437 98.3701 80.4144 98.7094C82.2251 99.0747 84.0912 99.3488 85.9346 99.0715C88.9991 98.6115 91.3798 96.5597 93.9168 94.9547C95.3335 94.0576 96.7729 93.3399 98.4371 93.0953C102.72 92.4657 102.436 89.4384 101.541 89.5004C98.5413 89.7059 94.5909 85.8762 94.5681 81.6615C94.5519 78.8561 94.6072 76.3671 94.7179 74.9154C97.5969 86.0458 99.3848 89.0502 102.208 89.0502C108.722 89.0502 113.141 63.8014 114.48 60.2359C112.75 60.1347 111.018 59.7237 109.451 58.9865Z" fill="#F2EDE4"/>
<path d="M92.2202 70.0124C92.1877 70.0352 92.1616 70.0581 92.1355 70.0809C91.6047 70.5996 91.1911 71.2226 90.67 71.7511C90.1489 72.2763 89.4748 72.7167 88.7355 72.7134C86.9606 72.7037 86.0715 70.5702 85.0033 69.4839C83.3619 67.8203 81.7694 71.6108 80.5481 72.3546C79.2943 73.1179 78.4442 72.658 77.5193 71.7544C76.9527 71.1998 76.4707 70.5767 75.9463 69.983C75.8096 69.8265 75.4969 69.9928 75.5816 70.1951C76.1938 71.6696 77.578 74.1162 79.405 74.1553C80.5253 74.1781 81.4437 73.5355 82.1797 72.7461C82.5412 72.3579 83.5378 70.2734 84.1859 70.5474C84.3064 70.5996 84.391 70.7072 84.4725 70.8116C84.7949 71.2357 85.0945 71.6826 85.4397 72.0871C85.6188 72.2959 86.1366 72.6417 86.1366 72.9287C86.8694 73.6758 87.8757 74.2629 88.9146 74.1357C89.9763 74.0052 90.8166 73.1734 91.4321 72.2959C91.8685 71.6728 92.2365 71.0008 92.5264 70.2962C92.5687 70.1951 92.6045 70.0679 92.5296 69.9863C92.4482 69.9015 92.3244 69.9406 92.2202 70.0124Z" fill="#D9C9AC"/>
<g clip-path="url(#clip2_1006_9019)">
<path d="M151.99 86.9552L163.135 83.2196L157.548 66.8198L146.403 70.5555C145.966 70.7012 145.729 71.1707 145.88 71.6038L150.933 86.4331C151.08 86.8662 151.553 87.101 151.99 86.9552Z" fill="#3F4553"/>
<path d="M151.998 86.6315L163.421 82.8027L158.038 67.006L146.615 70.8348C146.333 70.9279 146.182 71.2314 146.276 71.5148L151.312 86.2956C151.41 86.5748 151.716 86.7246 151.998 86.6315Z" fill="#DDDDE3"/>
<path d="M152.239 86.5507L163.662 82.7219L158.279 66.9252L146.856 70.754C146.574 70.8471 146.423 71.1506 146.517 71.4339L151.553 86.2147C151.651 86.494 151.957 86.6478 152.239 86.5507Z" fill="#E2E5FF"/>
<path d="M152.855 86.6638L164 82.9281L158.413 66.5324L147.268 70.2681C146.831 70.4138 146.594 70.8833 146.745 71.3164L151.798 86.1458C151.945 86.5788 152.418 86.8095 152.855 86.6638Z" fill="#4E5567"/>
<path d="M157.789 66.742L157.549 66.8223L163.136 83.2222L163.376 83.1418L157.789 66.742Z" fill="#3F4553"/>
<path d="M159.381 79.5527L159.63 79.0266L160.152 79.2937L156.071 67.3176C155.997 67.1072 155.814 67.1234 155.602 67.1962C155.389 67.2691 155.23 67.3662 155.304 67.5767L159.381 79.5527Z" fill="#93BFA8"/>
<path d="M134.338 71.0902L141.84 62.2699L140.323 61.0017L132.822 69.8221L134.338 71.0902Z" fill="#3F4553"/>
<path d="M132.821 69.8191L134.335 71.0859L132.147 72.2799C132.074 72.3203 131.976 72.2353 132 72.1584L132.821 69.8191Z" fill="#F2EDE4"/>
<path d="M132.151 72.2838L132.743 71.96L132.229 71.5269L132.009 72.1583C131.98 72.2352 132.078 72.3202 132.151 72.2838Z" fill="#3F4553"/>
<path d="M133.836 70.6701L141.337 61.8497L140.822 61.4192L133.321 70.2395L133.836 70.6701Z" fill="#4E5567"/>
</g>
<g clip-path="url(#clip3_1006_9019)">
<path d="M51.5028 -14C41.8335 -14 34 -6.16648 34 3.50276C34 13.1665 41.8335 21.0055 51.5028 21.0055C61.1665 21.0055 69.0055 13.172 69.0055 3.50276C69 -6.16648 61.1665 -14 51.5028 -14ZM51.5028 18.0452C43.4708 18.0452 36.9603 11.5347 36.9603 3.50276C36.9603 -4.52922 43.4708 -11.0397 51.5028 -11.0397C59.5347 -11.0397 66.0452 -4.52922 66.0452 3.50276C66.0452 11.5347 59.5347 18.0452 51.5028 18.0452Z" fill="#808AFF"/>
<path d="M64.9209 9.1097C68.0195 1.69977 64.5244 -6.81906 57.1145 -9.91764C49.7046 -13.0162 41.1857 -9.52119 38.0872 -2.11126C34.9886 5.29867 38.4836 13.8175 45.8936 16.9161C53.3035 20.0147 61.8223 16.5196 64.9209 9.1097Z" fill="#AEB4FC"/>
<path d="M64.7383 3.52959C64.7383 2.50974 63.1506 2.50423 63.1506 3.52959C63.1506 4.55495 64.7383 4.55495 64.7383 3.52959Z" fill="#808AFF"/>
<path d="M51.469 16.7383C52.4888 16.7383 52.4943 15.1507 51.469 15.1507C50.4491 15.1507 50.4436 16.7383 51.469 16.7383Z" fill="#808AFF"/>
<path d="M38.2618 3.4698C38.2618 4.48965 39.8495 4.49516 39.8495 3.4698C39.8495 2.44996 38.2618 2.44444 38.2618 3.4698Z" fill="#808AFF"/>
<path d="M57.7544 7.75299C57.6607 7.75299 57.5669 7.73094 57.4843 7.67581L51.2274 3.95476C51.0675 3.86104 50.9683 3.68463 50.9683 3.4972V-6.5028C50.9683 -6.79497 51.2053 -7.03201 51.4975 -7.03201C51.7897 -7.03201 52.0267 -6.79497 52.0267 -6.5028V3.19952L58.0245 6.76622C58.2781 6.91506 58.3608 7.24031 58.2064 7.4939C58.1127 7.65928 57.9363 7.75299 57.7544 7.75299Z" fill="#808AFF"/>
</g>
<path d="M16.6207 39.4065L16.2715 37.4255L14.2463 37.7706C13.925 36.8457 13.4013 36.0312 12.7239 35.3686L13.9111 33.7051L12.249 32.5523L11.0688 34.2089C10.2168 33.7948 9.26706 33.567 8.27541 33.5739L7.91925 31.5653L5.915 31.9104L6.26417 33.9121C5.32839 34.2296 4.50434 34.7473 3.83392 35.4169L2.15091 34.2435L0.984669 35.8862L2.6607 37.0528C2.24169 37.8949 2.01124 38.8336 2.01822 39.8138L0 40.1589L0.349173 42.1399L2.37438 41.7948C2.69562 42.7197 3.21938 43.5342 3.89677 44.1969L2.70959 45.8604L4.37165 47.0131L5.55186 45.3565C6.40384 45.7706 7.35359 45.9984 8.34524 45.9915L8.7014 48.0002L10.7057 47.655L10.3565 45.6533C11.2923 45.3358 12.1163 44.8181 12.7867 44.1486L14.4697 45.322L15.636 43.6792L13.96 42.5127C14.379 41.6706 14.6094 40.7318 14.6024 39.7517L16.6207 39.4065ZM8.63157 41.6222C7.605 41.8017 6.62731 41.1184 6.44574 40.1037C6.26417 39.089 6.95553 38.1227 7.9821 37.9432C9.00867 37.7637 9.98636 38.4471 10.1679 39.4617C10.3495 40.4764 9.66512 41.4428 8.63157 41.6222Z" fill="#9BA3FF"/>
<path d="M35.7278 35.4099V32.918H33.1788C32.9903 31.717 32.5224 30.6126 31.838 29.6601L33.6467 27.8723L31.8659 26.1122L30.0642 27.893C29.1074 27.2097 27.9971 26.7334 26.782 26.5332V24H24.2609V26.5194C23.0458 26.7058 21.9215 27.1683 20.9647 27.8447L19.156 26.0569L17.3752 27.8171L19.177 29.5979C18.4856 30.5436 18.0037 31.6411 17.8012 32.8421H15.2383V35.3339H17.7872C17.9758 36.535 18.4437 37.6394 19.1281 38.5919L17.3194 40.3797L19.1001 42.1398L20.9019 40.359C21.8586 41.0423 22.969 41.5186 24.1841 41.7187V44.252H26.7051V41.7325C27.9203 41.5462 29.0376 41.0837 30.0013 40.4073L31.81 42.195L33.5908 40.4349L31.7891 38.654C32.4805 37.7084 32.9623 36.6109 33.1648 35.4099H35.7278V35.4099ZM25.483 36.4452C24.1911 36.4452 23.1366 35.4098 23.1366 34.126C23.1366 32.849 24.1841 31.8067 25.483 31.8067C26.775 31.8067 27.8295 32.8421 27.8295 34.126C27.8225 35.4029 26.775 36.4452 25.483 36.4452Z" fill="#AEB4FC"/>
<g opacity="0.3">
<path d="M153.995 16.8971L135.266 12.6877C135.082 12.6476 134.966 12.4642 135.009 12.2807L137.367 1.78051C137.407 1.59705 137.591 1.48031 137.774 1.52367L156.503 5.73644C156.687 5.77647 156.803 5.95992 156.76 6.14337L154.398 16.6436C154.358 16.8237 154.178 16.9405 153.995 16.8971Z" fill="#ECECEC"/>
<path d="M135.319 12.4408C135.269 12.4308 135.239 12.3808 135.253 12.3341L137.614 1.83386C137.624 1.78382 137.674 1.7538 137.721 1.76715L156.45 5.97992C156.5 5.98992 156.53 6.03995 156.517 6.08665L154.155 16.5869C154.145 16.6369 154.095 16.6669 154.048 16.6536L135.319 12.4408Z" fill="#F5F4F5"/>
<path d="M153.867 5.14058L140.414 2.11526L140.359 2.35933L153.812 5.38465L153.867 5.14058Z" fill="#706F6E"/>
<path d="M139.105 3.62497L138.485 3.48488C138.408 3.46821 138.358 3.39149 138.375 3.31144L138.471 2.87448C138.488 2.79776 138.565 2.74773 138.645 2.76441L139.265 2.9045C139.342 2.92118 139.392 2.9979 139.375 3.07795L139.279 3.5149C139.259 3.59162 139.182 3.64165 139.105 3.62497Z" fill="#585857"/>
<path d="M138.511 3.36151C138.501 3.35817 138.494 3.34816 138.498 3.33816L138.594 2.9012C138.598 2.8912 138.608 2.88453 138.618 2.88786L139.238 3.02795C139.248 3.03129 139.255 3.0413 139.252 3.0513L139.155 3.48826C139.152 3.49826 139.142 3.50493 139.132 3.5016L138.511 3.36151Z" fill="#5E5E5D"/>
<path d="M140.242 3.87858L139.622 3.73848C139.545 3.72181 139.495 3.64509 139.512 3.56504L139.609 3.12808C139.625 3.05137 139.702 3.00133 139.782 3.01801L140.402 3.1581C140.479 3.17478 140.529 3.2515 140.512 3.33155L140.416 3.7685C140.396 3.84856 140.319 3.89525 140.242 3.87858Z" fill="#585857"/>
<path d="M139.649 3.61825C139.639 3.61492 139.632 3.60491 139.635 3.5949L139.732 3.15795C139.735 3.14794 139.745 3.14127 139.755 3.14461L140.376 3.2847C140.386 3.28803 140.392 3.29804 140.389 3.30805L140.292 3.745C140.289 3.75501 140.279 3.76168 140.269 3.75834L139.649 3.61825Z" fill="#5E5E5D"/>
<path d="M141.38 4.13532L140.759 3.99523C140.683 3.97855 140.633 3.90183 140.649 3.82178L140.746 3.38483C140.763 3.30811 140.839 3.25808 140.92 3.27476L141.54 3.41485C141.617 3.43153 141.667 3.50824 141.65 3.5883L141.553 4.02525C141.533 4.10197 141.457 4.152 141.38 4.13532Z" fill="#585857"/>
<path d="M140.786 3.87185C140.776 3.86852 140.769 3.85851 140.773 3.8485L140.87 3.41155C140.873 3.40154 140.883 3.39487 140.893 3.39821L141.513 3.5383C141.523 3.54163 141.53 3.55164 141.527 3.56165L141.43 3.9986C141.427 4.00861 141.417 4.01528 141.407 4.01194L140.786 3.87185Z" fill="#5E5E5D"/>
<path d="M142.517 4.38868L141.897 4.24859C141.82 4.23191 141.77 4.15519 141.787 4.07514L141.884 3.63818C141.9 3.56147 141.977 3.51143 142.057 3.52811L142.677 3.6682C142.754 3.68488 142.804 3.7616 142.787 3.84165L142.691 4.27861C142.671 4.35866 142.594 4.40869 142.517 4.38868Z" fill="#585857"/>
<path d="M141.924 4.12857C141.914 4.12523 141.907 4.11522 141.91 4.10522L142.007 3.66826C142.01 3.65826 142.02 3.65158 142.03 3.65492L142.651 3.79501C142.661 3.79835 142.667 3.80836 142.664 3.81836L142.567 4.25532C142.564 4.26532 142.554 4.27199 142.544 4.26866L141.924 4.12857Z" fill="#5E5E5D"/>
<path d="M143.651 4.64564L143.031 4.50554C142.954 4.48887 142.904 4.41215 142.921 4.3321L143.018 3.89514C143.034 3.81842 143.111 3.76839 143.191 3.78507L143.811 3.92516C143.888 3.94184 143.938 4.01856 143.921 4.09861L143.825 4.53556C143.808 4.61562 143.731 4.66231 143.651 4.64564Z" fill="#585857"/>
<path d="M143.061 4.38552C143.051 4.38219 143.044 4.37218 143.048 4.36218L143.145 3.92522C143.148 3.91521 143.158 3.90854 143.168 3.91188L143.788 4.05197C143.798 4.05531 143.805 4.06531 143.802 4.07532L143.705 4.51227C143.702 4.52228 143.692 4.52895 143.682 4.52562L143.061 4.38552Z" fill="#5E5E5D"/>
<path d="M144.789 4.90235L144.168 4.76226C144.092 4.74558 144.042 4.66886 144.058 4.58881L144.155 4.15186C144.172 4.07514 144.248 4.02511 144.329 4.04178L144.949 4.18188C145.026 4.19855 145.076 4.27527 145.059 4.35532L144.962 4.79228C144.946 4.86899 144.869 4.91903 144.789 4.90235Z" fill="#585857"/>
<path d="M144.198 4.63888C144.188 4.63554 144.182 4.62554 144.185 4.61553L144.282 4.17858C144.285 4.16857 144.295 4.1619 144.305 4.16524L144.925 4.30533C144.935 4.30866 144.942 4.31867 144.939 4.32868L144.842 4.76563C144.839 4.77564 144.829 4.78231 144.819 4.77897L144.198 4.63888Z" fill="#5E5E5D"/>
<path d="M145.926 5.15595L145.306 5.01586C145.229 4.99918 145.179 4.92246 145.196 4.84241L145.293 4.40546C145.309 4.32874 145.386 4.27871 145.466 4.29539L146.086 4.43548C146.163 4.45215 146.213 4.52887 146.196 4.60892L146.1 5.04588C146.083 5.12593 146.003 5.17596 145.926 5.15595Z" fill="#585857"/>
<path d="M145.336 4.89584C145.326 4.8925 145.319 4.8825 145.322 4.87249L145.419 4.43553C145.422 4.42553 145.432 4.41886 145.442 4.42219L146.063 4.56228C146.073 4.56562 146.08 4.57563 146.076 4.58563L145.979 5.02259C145.976 5.03259 145.966 5.03927 145.956 5.03593L145.336 4.89584Z" fill="#5E5E5D"/>
<path d="M147.064 5.41291L146.443 5.27282C146.367 5.25614 146.317 5.17942 146.333 5.09937L146.43 4.66241C146.447 4.5857 146.523 4.53567 146.604 4.55234L147.224 4.69243C147.301 4.70911 147.351 4.78583 147.334 4.86588L147.237 5.30284C147.217 5.38289 147.141 5.42959 147.064 5.41291Z" fill="#585857"/>
<path d="M146.473 5.15255C146.463 5.14922 146.457 5.13921 146.46 5.1292L146.557 4.69225C146.56 4.68224 146.57 4.67557 146.58 4.67891L147.2 4.819C147.21 4.82234 147.217 4.83234 147.214 4.84235L147.117 5.2793C147.114 5.28931 147.104 5.29598 147.094 5.29264L146.473 5.15255Z" fill="#5E5E5D"/>
<path d="M148.201 5.66962L147.581 5.52953C147.504 5.51285 147.454 5.43614 147.471 5.35608L147.568 4.91913C147.584 4.84241 147.661 4.79238 147.741 4.80906L148.362 4.94915C148.438 4.96583 148.488 5.04254 148.472 5.1226L148.375 5.55955C148.355 5.63627 148.278 5.6863 148.201 5.66962Z" fill="#585857"/>
<path d="M147.607 5.40615C147.597 5.40282 147.591 5.39281 147.594 5.3828L147.691 4.94585C147.694 4.93584 147.704 4.92917 147.714 4.93251L148.334 5.0726C148.344 5.07594 148.351 5.08594 148.348 5.09595L148.251 5.5329C148.248 5.54291 148.238 5.54958 148.228 5.54624L147.607 5.40615Z" fill="#5E5E5D"/>
<path d="M149.338 5.92322L148.718 5.78313C148.641 5.76645 148.591 5.68974 148.608 5.60968L148.705 5.17273C148.721 5.09601 148.798 5.04598 148.878 5.06266L149.499 5.20275C149.575 5.21943 149.625 5.29614 149.609 5.3762L149.512 5.81315C149.492 5.8932 149.415 5.94324 149.338 5.92322Z" fill="#585857"/>
<path d="M148.745 5.66311C148.735 5.65977 148.728 5.64977 148.731 5.63976L148.828 5.20281C148.831 5.1928 148.841 5.18613 148.851 5.18947L149.472 5.32956C149.482 5.33289 149.489 5.3429 149.485 5.35291L149.388 5.78986C149.385 5.79987 149.375 5.80654 149.365 5.8032L148.745 5.66311Z" fill="#5E5E5D"/>
<path d="M150.476 6.17994L149.856 6.03985C149.779 6.02317 149.729 5.94645 149.746 5.8664L149.842 5.42944C149.859 5.35273 149.936 5.30269 150.016 5.31937L150.636 5.45946C150.713 5.47614 150.763 5.55286 150.746 5.63291L150.649 6.06987C150.629 6.14992 150.553 6.19661 150.476 6.17994Z" fill="#585857"/>
<path d="M149.882 5.91982C149.872 5.91649 149.865 5.90648 149.868 5.89648L149.965 5.45952C149.969 5.44951 149.979 5.44284 149.989 5.44618L150.609 5.58627C150.619 5.58961 150.626 5.59961 150.622 5.60962L150.526 6.04657C150.522 6.05658 150.512 6.06325 150.502 6.05992L149.882 5.91982Z" fill="#5E5E5D"/>
<path d="M151.613 6.43689L150.993 6.2968C150.916 6.28013 150.866 6.20341 150.883 6.12336L150.979 5.6864C150.996 5.60968 151.073 5.55965 151.153 5.57633L151.773 5.71642C151.85 5.7331 151.9 5.80982 151.883 5.88987L151.786 6.32682C151.766 6.40354 151.69 6.45357 151.613 6.43689Z" fill="#585857"/>
<path d="M151.019 6.17321C151.009 6.16988 151.003 6.15987 151.006 6.14986L151.103 5.71291C151.106 5.7029 151.116 5.69623 151.126 5.69957L151.746 5.83966C151.756 5.843 151.763 5.853 151.76 5.86301L151.663 6.29996C151.66 6.30997 151.65 6.31664 151.64 6.3133L151.019 6.17321Z" fill="#5E5E5D"/>
<path d="M152.751 6.69028L152.13 6.55019C152.053 6.53351 152.003 6.4568 152.02 6.37674L152.117 5.93979C152.134 5.86307 152.21 5.81304 152.29 5.82972L152.911 5.96981C152.987 5.98649 153.037 6.06321 153.021 6.14326L152.924 6.58021C152.904 6.66026 152.827 6.7103 152.751 6.69028Z" fill="#585857"/>
<path d="M152.157 6.43014C152.147 6.4268 152.14 6.4168 152.144 6.40679L152.24 5.96984C152.244 5.95983 152.254 5.95316 152.264 5.9565L152.884 6.09659C152.894 6.09992 152.901 6.10993 152.897 6.11994L152.801 6.55689C152.797 6.5669 152.787 6.57357 152.777 6.57023L152.157 6.43014Z" fill="#5E5E5D"/>
<path d="M153.888 6.947L153.268 6.8069C153.191 6.79023 153.141 6.71351 153.158 6.63346L153.254 6.1965C153.271 6.11979 153.348 6.06975 153.428 6.08643L154.048 6.22652C154.125 6.2432 154.175 6.31992 154.158 6.39997L154.062 6.83692C154.042 6.91698 153.965 6.96368 153.888 6.947Z" fill="#585857"/>
<path d="M153.294 6.6871C153.284 6.68376 153.278 6.67376 153.281 6.66375L153.378 6.2268C153.381 6.21679 153.391 6.21012 153.401 6.21345L154.022 6.35354C154.032 6.35688 154.038 6.36689 154.035 6.37689L153.938 6.81385C153.935 6.82385 153.925 6.83053 153.915 6.82719L153.294 6.6871Z" fill="#5E5E5D"/>
<path d="M155.022 7.20392L154.402 7.06383C154.325 7.04715 154.275 6.97044 154.292 6.89038L154.388 6.45343C154.405 6.37671 154.482 6.32668 154.562 6.34336L155.182 6.48345C155.259 6.50013 155.309 6.57685 155.292 6.6569L155.195 7.09385C155.179 7.17057 155.102 7.2206 155.022 7.20392Z" fill="#585857"/>
<path d="M154.432 6.94049C154.422 6.93715 154.415 6.92714 154.419 6.91714L154.515 6.48018C154.519 6.47018 154.529 6.46351 154.539 6.46684L155.159 6.60693C155.169 6.61027 155.176 6.62028 155.172 6.63028L155.076 7.06723C155.072 7.07724 155.062 7.08391 155.052 7.08058L154.432 6.94049Z" fill="#5E5E5D"/>
<path d="M138.471 3.6351L139.238 3.80855C139.325 3.82856 139.382 3.91528 139.362 4.00534L139.192 4.75917C139.172 4.84589 139.085 4.9026 138.995 4.88258L138.228 4.70914C138.141 4.68912 138.084 4.6024 138.104 4.51234L138.274 3.75851C138.294 3.67179 138.381 3.61509 138.471 3.6351Z" fill="#585857"/>
<path d="M138.258 4.58548C138.238 4.58215 138.225 4.5588 138.228 4.53878L138.398 3.78496C138.401 3.76494 138.425 3.7516 138.445 3.75494L139.212 3.92838C139.232 3.93172 139.245 3.95507 139.242 3.97508L139.072 4.72891C139.068 4.74892 139.045 4.76226 139.025 4.75893L138.258 4.58548Z" fill="#5E5E5D"/>
<path d="M139.782 3.93168L140.549 4.10513C140.636 4.12514 140.692 4.21187 140.672 4.30193L140.502 5.05575C140.482 5.14248 140.396 5.19918 140.305 5.17917L139.538 5.00572C139.452 4.98571 139.395 4.89898 139.415 4.80893L139.585 4.0551C139.605 3.96504 139.692 3.91167 139.782 3.93168Z" fill="#585857"/>
<path d="M139.569 4.88236C139.549 4.87902 139.535 4.85567 139.539 4.83566L139.709 4.08183C139.712 4.06182 139.735 4.04848 139.755 4.05181L140.523 4.22526C140.543 4.22859 140.556 4.25194 140.553 4.27196L140.382 5.02578C140.379 5.0458 140.356 5.05914 140.336 5.0558L139.569 4.88236Z" fill="#5E5E5D"/>
<path d="M141.093 4.22549L141.861 4.39894C141.947 4.41895 142.004 4.50568 141.984 4.59573L141.814 5.34956C141.794 5.43629 141.707 5.49299 141.617 5.47298L140.85 5.29953C140.763 5.27952 140.706 5.19279 140.726 5.10273L140.897 4.34891C140.917 4.26218 141.007 4.20548 141.093 4.22549Z" fill="#585857"/>
<path d="M140.88 5.17588C140.86 5.17254 140.846 5.14919 140.85 5.12918L141.02 4.37535C141.023 4.35534 141.046 4.34199 141.066 4.34533L141.834 4.51878C141.854 4.52211 141.867 4.54546 141.864 4.56547L141.694 5.3193C141.69 5.33932 141.667 5.35266 141.647 5.34932L140.88 5.17588Z" fill="#5E5E5D"/>
<path d="M142.404 4.51901L143.171 4.69246C143.258 4.71247 143.315 4.79919 143.295 4.88925L143.124 5.64308C143.104 5.72981 143.018 5.78651 142.928 5.7665L142.16 5.59305C142.074 5.57304 142.017 5.48631 142.037 5.39625L142.207 4.64243C142.227 4.5557 142.317 4.499 142.404 4.51901Z" fill="#585857"/>
<path d="M142.191 5.47275C142.171 5.46941 142.157 5.44606 142.161 5.42605L142.331 4.67222C142.334 4.65221 142.357 4.63887 142.377 4.6422L143.145 4.81565C143.165 4.81899 143.178 4.84234 143.175 4.86235L143.005 5.61618C143.001 5.63619 142.978 5.64953 142.958 5.6462L142.191 5.47275Z" fill="#5E5E5D"/>
<path d="M143.715 4.81584L144.482 4.98928C144.568 5.0093 144.625 5.09602 144.605 5.18608L144.435 5.93991C144.415 6.02663 144.328 6.08334 144.238 6.06332L143.471 5.88988C143.384 5.86986 143.328 5.78314 143.348 5.69308L143.518 4.93925C143.541 4.84919 143.628 4.79582 143.715 4.81584Z" fill="#585857"/>
<path d="M143.501 5.76627C143.481 5.76293 143.468 5.73958 143.471 5.71957L143.641 4.96574C143.645 4.94573 143.668 4.93239 143.688 4.93572L144.455 5.10917C144.475 5.1125 144.489 5.13585 144.485 5.15587L144.315 5.9097C144.312 5.92971 144.288 5.94305 144.268 5.93972L143.501 5.76627Z" fill="#5E5E5D"/>
<path d="M145.026 5.10943L145.793 5.28288C145.879 5.30289 145.936 5.38962 145.916 5.47968L145.746 6.23351C145.726 6.32023 145.639 6.37693 145.549 6.35692L144.782 6.18347C144.695 6.16346 144.639 6.07674 144.659 5.98668L144.829 5.23285C144.852 5.14612 144.939 5.08942 145.026 5.10943Z" fill="#585857"/>
<path d="M144.812 6.06003C144.792 6.05669 144.779 6.03335 144.782 6.01333L144.952 5.2595C144.955 5.23949 144.979 5.22615 144.999 5.22948L145.766 5.40293C145.786 5.40627 145.799 5.42962 145.796 5.44963L145.626 6.20346C145.622 6.22347 145.599 6.23681 145.579 6.23348L144.812 6.06003Z" fill="#5E5E5D"/>
<path d="M146.337 5.40602L147.104 5.57946C147.191 5.59948 147.247 5.6862 147.227 5.77626L147.057 6.53009C147.037 6.61681 146.95 6.67352 146.86 6.6535L146.093 6.48006C146.006 6.46004 145.95 6.37332 145.97 6.28326L146.14 5.52943C146.163 5.43937 146.25 5.386 146.337 5.40602Z" fill="#585857"/>
<path d="M146.123 6.35666C146.103 6.35333 146.09 6.32998 146.093 6.30996L146.263 5.55613C146.266 5.53612 146.29 5.52278 146.31 5.52612L147.077 5.69956C147.097 5.7029 147.11 5.72625 147.107 5.74626L146.937 6.50009C146.933 6.5201 146.91 6.53344 146.89 6.53011L146.123 6.35666Z" fill="#5E5E5D"/>
<path d="M147.651 5.69983L148.418 5.87327C148.505 5.89329 148.561 5.98001 148.541 6.07007L148.371 6.8239C148.351 6.91062 148.265 6.96733 148.175 6.94731L147.407 6.77387C147.321 6.75385 147.264 6.66713 147.284 6.57707L147.454 5.82324C147.474 5.73652 147.561 5.67981 147.651 5.69983Z" fill="#585857"/>
<path d="M147.434 6.65042C147.414 6.64709 147.401 6.62374 147.404 6.60373L147.574 5.8499C147.577 5.82988 147.601 5.81654 147.621 5.81988L148.388 5.99332C148.408 5.99666 148.421 6.02001 148.418 6.04002L148.248 6.79385C148.245 6.81386 148.221 6.82721 148.201 6.82387L147.434 6.65042Z" fill="#5E5E5D"/>
<path d="M148.961 5.99313L149.729 6.16658C149.815 6.18659 149.872 6.27332 149.852 6.36337L149.682 7.1172C149.662 7.20393 149.575 7.26063 149.485 7.24062L148.718 7.06717C148.631 7.04716 148.574 6.96043 148.594 6.87037L148.765 6.11655C148.785 6.02982 148.871 5.97312 148.961 5.99313Z" fill="#585857"/>
<path d="M148.748 6.94705C148.728 6.94372 148.715 6.92037 148.718 6.90036L148.888 6.14653C148.892 6.12651 148.915 6.11317 148.935 6.11651L149.702 6.28996C149.722 6.29329 149.735 6.31664 149.732 6.33665L149.562 7.09048C149.559 7.1105 149.535 7.12384 149.515 7.1205L148.748 6.94705Z" fill="#5E5E5D"/>
<path d="M150.272 6.29014L151.04 6.46359C151.126 6.4836 151.183 6.57033 151.163 6.66038L150.993 7.41421C150.973 7.50094 150.886 7.55764 150.796 7.53763L150.029 7.36418C149.942 7.34417 149.886 7.25744 149.906 7.16738L150.076 6.41356C150.096 6.3235 150.182 6.27013 150.272 6.29014Z" fill="#585857"/>
<path d="M150.059 7.24082C150.039 7.23748 150.025 7.21413 150.029 7.19412L150.199 6.44029C150.202 6.42028 150.226 6.40693 150.246 6.41027L151.013 6.58372C151.033 6.58705 151.046 6.6104 151.043 6.63041L150.873 7.38424C150.869 7.40426 150.846 7.4176 150.826 7.41426L150.059 7.24082Z" fill="#5E5E5D"/>
<path d="M151.583 6.58352L152.35 6.75697C152.437 6.77698 152.494 6.86371 152.474 6.95377L152.304 7.7076C152.284 7.79432 152.197 7.85102 152.107 7.83101L151.343 7.65756C151.256 7.63755 151.2 7.55083 151.22 7.46077L151.39 6.70694C151.407 6.62021 151.493 6.56351 151.583 6.58352Z" fill="#585857"/>
<path d="M151.37 7.53433C151.35 7.531 151.336 7.50765 151.34 7.48764L151.51 6.73381C151.513 6.71379 151.537 6.70045 151.557 6.70379L152.324 6.87723C152.344 6.88057 152.357 6.90392 152.354 6.92393L152.18 7.67776C152.177 7.69777 152.154 7.71112 152.134 7.70778L151.37 7.53433Z" fill="#5E5E5D"/>
<path d="M152.894 6.88057L153.661 7.05401C153.748 7.07403 153.805 7.16075 153.785 7.25081L153.615 8.00464C153.595 8.09136 153.508 8.14806 153.418 8.12805L152.651 7.9546C152.564 7.93459 152.507 7.84787 152.527 7.75781L152.697 7.00398C152.717 6.91392 152.807 6.86055 152.894 6.88057Z" fill="#585857"/>
<path d="M152.681 7.83121C152.661 7.82787 152.648 7.80452 152.651 7.78451L152.821 7.03068C152.824 7.01067 152.848 6.99733 152.868 7.00066L153.635 7.17411C153.655 7.17745 153.668 7.20079 153.665 7.22081L153.495 7.97464C153.491 7.99465 153.468 8.00799 153.448 8.00466L152.681 7.83121Z" fill="#5E5E5D"/>
<path d="M154.205 7.17392L154.972 7.34736C155.059 7.36738 155.115 7.4541 155.095 7.54416L154.925 8.29799C154.905 8.38471 154.818 8.44142 154.728 8.4214L153.961 8.24796C153.875 8.22794 153.818 8.14122 153.838 8.05116L154.011 7.29733C154.028 7.21061 154.118 7.1539 154.205 7.17392Z" fill="#585857"/>
<path d="M153.991 8.12473C153.971 8.12139 153.958 8.09804 153.961 8.07803L154.132 7.3242C154.135 7.30419 154.158 7.29085 154.178 7.29418L154.945 7.46763C154.965 7.47096 154.979 7.49431 154.975 7.51433L154.805 8.26816C154.802 8.28817 154.779 8.30151 154.759 8.29818L153.991 8.12473Z" fill="#5E5E5D"/>
<path d="M138.194 4.85583L138.961 5.02928C139.048 5.04929 139.105 5.13602 139.085 5.22608L138.915 5.9799C138.895 6.06663 138.808 6.12333 138.718 6.10332L137.951 5.92987C137.864 5.90986 137.807 5.82313 137.827 5.73307L138.001 4.97925C138.021 4.89252 138.108 4.83582 138.194 4.85583Z" fill="#585857"/>
<path d="M137.981 5.80643C137.961 5.80309 137.948 5.77974 137.951 5.75973L138.121 5.0059C138.124 4.98589 138.148 4.97255 138.168 4.97588L138.935 5.14933C138.955 5.15266 138.968 5.17601 138.965 5.19603L138.795 5.94986C138.792 5.96987 138.768 5.98321 138.748 5.97988L137.981 5.80643Z" fill="#5E5E5D"/>
<path d="M139.509 5.15263L140.276 5.32608C140.363 5.34609 140.419 5.43281 140.399 5.52287L140.229 6.2767C140.209 6.36342 140.123 6.42013 140.032 6.40011L139.265 6.22667C139.179 6.20666 139.122 6.11993 139.142 6.02987L139.312 5.27604C139.332 5.18598 139.419 5.13262 139.509 5.15263Z" fill="#585857"/>
<path d="M139.292 6.10327C139.272 6.09994 139.259 6.07659 139.262 6.05658L139.432 5.30275C139.435 5.28273 139.459 5.26939 139.479 5.27273L140.246 5.44618C140.266 5.44951 140.279 5.47286 140.276 5.49287L140.106 6.2467C140.103 6.26671 140.079 6.28006 140.059 6.27672L139.292 6.10327Z" fill="#5E5E5D"/>
<path d="M140.819 5.44623L141.587 5.61967C141.673 5.63969 141.73 5.72641 141.71 5.81647L141.54 6.5703C141.52 6.65702 141.433 6.71372 141.343 6.69371L140.576 6.52026C140.489 6.50025 140.432 6.41353 140.453 6.32347L140.623 5.56964C140.643 5.48292 140.729 5.42621 140.819 5.44623Z" fill="#585857"/>
<path d="M140.606 6.39682C140.586 6.39349 140.573 6.37014 140.576 6.35013L140.746 5.5963C140.75 5.57628 140.773 5.56294 140.793 5.56628L141.56 5.73972C141.58 5.74306 141.593 5.76641 141.59 5.78642L141.42 6.54025C141.417 6.56026 141.393 6.57361 141.373 6.57027L140.606 6.39682Z" fill="#5E5E5D"/>
<path d="M142.13 5.73974L142.897 5.91319C142.984 5.9332 143.041 6.01993 143.021 6.10999L142.851 6.86382C142.83 6.95054 142.744 7.00724 142.654 6.98723L141.887 6.81378C141.8 6.79377 141.743 6.70705 141.763 6.61699L141.933 5.86316C141.953 5.77644 142.04 5.71973 142.13 5.73974Z" fill="#585857"/>
<path d="M141.917 6.69034C141.897 6.687 141.883 6.66366 141.887 6.64364L142.057 5.88981C142.06 5.8698 142.084 5.85646 142.104 5.85979L142.871 6.03324C142.891 6.03658 142.904 6.05993 142.901 6.07994L142.731 6.83377C142.727 6.85378 142.704 6.86712 142.684 6.86379L141.917 6.69034Z" fill="#5E5E5D"/>
<path d="M143.442 6.03654L144.209 6.20999C144.295 6.23 144.352 6.31672 144.332 6.40678L144.162 7.16061C144.142 7.24734 144.055 7.30404 143.965 7.28403L143.198 7.11058C143.111 7.09057 143.055 7.00384 143.075 6.91378L143.245 6.15995C143.265 6.0699 143.355 6.01653 143.442 6.03654Z" fill="#585857"/>
<path d="M143.228 6.98722C143.208 6.98388 143.194 6.96053 143.198 6.94052L143.368 6.18669C143.371 6.16668 143.395 6.15333 143.415 6.15667L144.182 6.33012C144.202 6.33345 144.215 6.3568 144.212 6.37681L144.042 7.13064C144.038 7.15066 144.015 7.164 143.995 7.16066L143.228 6.98722Z" fill="#5E5E5D"/>
<path d="M144.752 6.32992L145.519 6.50337C145.606 6.52338 145.663 6.61011 145.643 6.70017L145.473 7.454C145.453 7.54072 145.366 7.59742 145.276 7.57741L144.509 7.40396C144.422 7.38395 144.365 7.29723 144.385 7.20717L144.555 6.45334C144.575 6.36661 144.665 6.30991 144.752 6.32992Z" fill="#585857"/>
<path d="M144.539 7.28073C144.519 7.2774 144.506 7.25405 144.509 7.23404L144.679 6.48021C144.682 6.46019 144.706 6.44685 144.726 6.45019L145.493 6.62363C145.513 6.62697 145.526 6.65032 145.523 6.67033L145.353 7.42416C145.349 7.44417 145.326 7.45752 145.306 7.45418L144.539 7.28073Z" fill="#5E5E5D"/>
<path d="M146.063 6.62696L146.83 6.80041C146.917 6.82042 146.973 6.90715 146.953 6.99721L146.783 7.75104C146.763 7.83776 146.677 7.89446 146.586 7.87445L145.819 7.701C145.733 7.68099 145.676 7.59427 145.696 7.50421L145.866 6.75038C145.889 6.66032 145.976 6.60695 146.063 6.62696Z" fill="#585857"/>
<path d="M145.85 7.57761C145.829 7.57427 145.816 7.55092 145.819 7.53091L145.99 6.77708C145.993 6.75707 146.016 6.74373 146.036 6.74706L146.803 6.92051C146.823 6.92385 146.837 6.94719 146.833 6.96721L146.663 7.72104C146.66 7.74105 146.637 7.75439 146.617 7.75106L145.85 7.57761Z" fill="#5E5E5D"/>
<path d="M147.374 6.92032L148.141 7.09376C148.228 7.11378 148.284 7.2005 148.264 7.29056L148.094 8.04439C148.074 8.13111 147.988 8.18782 147.897 8.1678L147.13 7.99436C147.044 7.97434 146.987 7.88762 147.007 7.79756L147.177 7.04373C147.2 6.95701 147.287 6.9003 147.374 6.92032Z" fill="#585857"/>
<path d="M147.16 7.87113C147.14 7.86779 147.127 7.84444 147.13 7.82443L147.3 7.0706C147.304 7.05059 147.327 7.03724 147.347 7.04058L148.114 7.21403C148.134 7.21736 148.147 7.24071 148.144 7.26072L147.974 8.01455C147.971 8.03457 147.947 8.04791 147.927 8.04457L147.16 7.87113Z" fill="#5E5E5D"/>
<path d="M148.685 7.21405L149.452 7.3875C149.539 7.40751 149.595 7.49423 149.575 7.58429L149.405 8.33812C149.385 8.42484 149.299 8.48155 149.209 8.46153L148.441 8.28809C148.355 8.26807 148.298 8.18135 148.318 8.09129L148.488 7.33746C148.511 7.25074 148.598 7.19403 148.685 7.21405Z" fill="#585857"/>
<path d="M148.471 8.16464C148.451 8.16131 148.438 8.13796 148.441 8.11795L148.611 7.36412C148.615 7.34411 148.638 7.33076 148.658 7.3341L149.425 7.50755C149.445 7.51088 149.458 7.53423 149.455 7.55424L149.285 8.30807C149.282 8.32808 149.258 8.34143 149.238 8.33809L148.471 8.16464Z" fill="#5E5E5D"/>
<path d="M149.995 7.51088L150.763 7.68432C150.849 7.70434 150.906 7.79106 150.886 7.88112L150.716 8.63495C150.696 8.72167 150.609 8.77837 150.519 8.75836L149.752 8.58491C149.665 8.5649 149.609 8.47818 149.629 8.38812L149.799 7.63429C149.822 7.54423 149.909 7.49086 149.995 7.51088Z" fill="#585857"/>
<path d="M149.782 8.46152C149.762 8.45818 149.749 8.43483 149.752 8.41482L149.922 7.66099C149.926 7.64098 149.949 7.62764 149.969 7.63097L150.736 7.80442C150.756 7.80776 150.769 7.8311 150.766 7.85112L150.596 8.60495C150.593 8.62496 150.569 8.6383 150.549 8.63497L149.782 8.46152Z" fill="#5E5E5D"/>
<path d="M151.31 7.80444L152.077 7.97789C152.163 7.9979 152.22 8.08463 152.2 8.17468L152.03 8.92851C152.01 9.01524 151.923 9.07194 151.833 9.05193L151.066 8.87848C150.979 8.85847 150.923 8.77174 150.943 8.68168L151.113 7.92786C151.133 7.84113 151.22 7.78443 151.31 7.80444Z" fill="#585857"/>
<path d="M151.093 8.75504C151.073 8.7517 151.059 8.72835 151.063 8.70834L151.233 7.95451C151.236 7.9345 151.26 7.92116 151.28 7.92449L152.047 8.09794C152.067 8.10127 152.08 8.12462 152.077 8.14464L151.907 8.89846C151.903 8.91848 151.88 8.93182 151.86 8.92848L151.093 8.75504Z" fill="#5E5E5D"/>
<path d="M152.621 8.10127L153.388 8.27472C153.475 8.29473 153.531 8.38145 153.511 8.47151L153.341 9.22534C153.321 9.31206 153.234 9.36877 153.144 9.34875L152.377 9.17531C152.29 9.15529 152.234 9.06857 152.254 8.97851L152.424 8.22468C152.444 8.13462 152.531 8.08126 152.621 8.10127Z" fill="#585857"/>
<path d="M152.407 9.05191C152.387 9.04858 152.374 9.02523 152.377 9.00521L152.548 8.25139C152.551 8.23137 152.574 8.21803 152.594 8.22137L153.361 8.39481C153.381 8.39815 153.395 8.4215 153.391 8.44151L153.221 9.19534C153.218 9.21535 153.195 9.22869 153.175 9.22536L152.407 9.05191Z" fill="#5E5E5D"/>
<path d="M153.932 8.39486L154.699 8.56831C154.786 8.58832 154.842 8.67505 154.822 8.76511L154.652 9.51894C154.632 9.60566 154.545 9.66236 154.455 9.64235L153.688 9.4689C153.602 9.44889 153.545 9.36217 153.565 9.27211L153.735 8.51828C153.755 8.43156 153.842 8.37485 153.932 8.39486Z" fill="#585857"/>
<path d="M153.718 9.34546C153.698 9.34213 153.685 9.31878 153.688 9.29876L153.858 8.54493C153.861 8.52492 153.885 8.51158 153.905 8.51492L154.672 8.68836C154.692 8.6917 154.705 8.71505 154.702 8.73506L154.532 9.48889C154.529 9.5089 154.505 9.52224 154.485 9.51891L153.718 9.34546Z" fill="#5E5E5D"/>
<path d="M137.921 6.07654L138.688 6.24998C138.775 6.27 138.832 6.35672 138.812 6.44678L138.642 7.20061C138.622 7.28733 138.535 7.34403 138.445 7.32402L137.678 7.15057C137.591 7.13056 137.534 7.04384 137.554 6.95378L137.724 6.19995C137.748 6.11323 137.835 6.05652 137.921 6.07654Z" fill="#585857"/>
<path d="M137.707 7.02713C137.687 7.0238 137.674 7.00045 137.677 6.98043L137.848 6.22661C137.851 6.20659 137.874 6.19325 137.894 6.19659L138.661 6.37003C138.681 6.37337 138.695 6.39672 138.691 6.41673L138.521 7.17056C138.518 7.19057 138.495 7.20391 138.475 7.20058L137.707 7.02713Z" fill="#5E5E5D"/>
<path d="M139.232 6.36999L139.999 6.54343C140.086 6.56345 140.142 6.65017 140.122 6.74023L139.952 7.49406C139.932 7.58078 139.846 7.63749 139.756 7.61747L138.988 7.44402C138.902 7.42401 138.845 7.33729 138.865 7.24723L139.035 6.4934C139.058 6.40668 139.145 6.35331 139.232 6.36999Z" fill="#585857"/>
<path d="M139.019 7.32422C138.999 7.32088 138.985 7.29754 138.989 7.27752L139.159 6.52369C139.162 6.50368 139.185 6.49034 139.205 6.49367L139.973 6.66712C139.993 6.67046 140.006 6.69381 140.003 6.71382L139.832 7.46765C139.829 7.48766 139.806 7.501 139.786 7.49767L139.019 7.32422Z" fill="#5E5E5D"/>
<path d="M140.542 6.66693L141.31 6.84038C141.396 6.86039 141.453 6.94711 141.433 7.03717L141.263 7.791C141.243 7.87772 141.156 7.93443 141.066 7.91441L140.299 7.74097C140.212 7.72095 140.156 7.63423 140.176 7.54417L140.346 6.79034C140.369 6.70362 140.456 6.64692 140.542 6.66693Z" fill="#585857"/>
<path d="M140.329 7.61752C140.309 7.61419 140.296 7.59084 140.299 7.57083L140.469 6.817C140.473 6.79698 140.496 6.78364 140.516 6.78698L141.283 6.96043C141.303 6.96376 141.316 6.98711 141.313 7.00712L141.143 7.76095C141.14 7.78097 141.116 7.79431 141.096 7.79097L140.329 7.61752Z" fill="#5E5E5D"/>
<path d="M141.857 6.96045L142.624 7.13389C142.711 7.15391 142.768 7.24063 142.748 7.33069L142.577 8.08452C142.557 8.17124 142.471 8.22795 142.381 8.20793L141.614 8.03449C141.527 8.01447 141.47 7.92775 141.49 7.83769L141.66 7.08386C141.68 6.99714 141.767 6.94043 141.857 6.96045Z" fill="#585857"/>
<path d="M141.64 7.91104C141.62 7.90771 141.607 7.88436 141.61 7.86435L141.78 7.11052C141.784 7.0905 141.807 7.07716 141.827 7.0805L142.594 7.25394C142.614 7.25728 142.628 7.28063 142.624 7.30064L142.454 8.05447C142.451 8.07448 142.427 8.08783 142.407 8.08449L141.64 7.91104Z" fill="#5E5E5D"/>
<path d="M143.168 7.25749L143.935 7.43093C144.022 7.45095 144.078 7.53767 144.058 7.62773L143.888 8.38156C143.868 8.46828 143.781 8.52499 143.691 8.50497L142.924 8.33153C142.837 8.31151 142.781 8.22479 142.801 8.13473L142.971 7.3809C142.991 7.29084 143.078 7.23747 143.168 7.25749Z" fill="#585857"/>
<path d="M142.954 8.20792C142.934 8.20458 142.921 8.18123 142.924 8.16122L143.094 7.40739C143.098 7.38738 143.121 7.37404 143.141 7.37737L143.908 7.55082C143.928 7.55416 143.942 7.5775 143.938 7.59752L143.768 8.35135C143.765 8.37136 143.742 8.3847 143.722 8.38137L142.954 8.20792Z" fill="#5E5E5D"/>
<path d="M144.479 7.55084L145.246 7.72429C145.333 7.7443 145.389 7.83102 145.369 7.92108L145.199 8.67491C145.179 8.76164 145.092 8.81834 145.002 8.79833L144.235 8.62488C144.148 8.60487 144.092 8.51814 144.112 8.42808L144.282 7.67426C144.302 7.58753 144.389 7.53083 144.479 7.55084Z" fill="#585857"/>
<path d="M144.265 8.50147C144.245 8.49813 144.232 8.47478 144.235 8.45477L144.405 7.70094C144.408 7.68093 144.432 7.66759 144.452 7.67092L145.219 7.84437C145.239 7.8477 145.252 7.87105 145.249 7.89107L145.079 8.64489C145.075 8.66491 145.052 8.67825 145.032 8.67491L144.265 8.50147Z" fill="#5E5E5D"/>
<path d="M145.79 7.84429L146.557 8.01774C146.644 8.03775 146.7 8.12447 146.68 8.21453L146.51 8.96836C146.49 9.05509 146.403 9.11179 146.313 9.09178L145.546 8.91833C145.46 8.89832 145.403 8.81159 145.423 8.72153L145.593 7.9677C145.613 7.88098 145.7 7.82761 145.79 7.84429Z" fill="#585857"/>
<path d="M145.576 8.79831C145.556 8.79498 145.543 8.77163 145.546 8.75161L145.716 7.99779C145.719 7.97777 145.743 7.96443 145.763 7.96777L146.53 8.14121C146.55 8.14455 146.563 8.1679 146.56 8.18791L146.39 8.94174C146.387 8.96175 146.363 8.97509 146.343 8.97176L145.576 8.79831Z" fill="#5E5E5D"/>
<path d="M147.1 8.14119L147.868 8.31463C147.954 8.33465 148.011 8.42137 147.991 8.51143L147.821 9.26526C147.801 9.35198 147.714 9.40869 147.624 9.38867L146.857 9.21522C146.77 9.19521 146.713 9.10849 146.733 9.01843L146.904 8.2646C146.924 8.17454 147.014 8.12117 147.1 8.14119Z" fill="#585857"/>
<path d="M146.887 9.09186C146.867 9.08852 146.854 9.06517 146.857 9.04516L147.027 8.29133C147.031 8.27132 147.054 8.25798 147.074 8.26131L147.841 8.43476C147.861 8.4381 147.874 8.46145 147.871 8.48146L147.701 9.23529C147.698 9.2553 147.674 9.26864 147.654 9.26531L146.887 9.09186Z" fill="#5E5E5D"/>
<path d="M148.411 8.43478L149.178 8.60823C149.265 8.62824 149.322 8.71497 149.302 8.80503L149.131 9.55885C149.111 9.64558 149.025 9.70228 148.935 9.68227L148.167 9.50882C148.081 9.48881 148.024 9.40208 148.044 9.31202L148.214 8.5582C148.234 8.47147 148.324 8.41477 148.411 8.43478Z" fill="#585857"/>
<path d="M148.198 9.38538C148.178 9.38204 148.164 9.35869 148.168 9.33868L148.338 8.58485C148.341 8.56484 148.364 8.5515 148.384 8.55483L149.152 8.72828C149.172 8.73162 149.185 8.75496 149.182 8.77498L149.008 9.5288C149.005 9.54882 148.982 9.56216 148.962 9.55882L148.198 9.38538Z" fill="#5E5E5D"/>
<path d="M149.722 8.73158L150.489 8.90503C150.576 8.92504 150.633 9.01176 150.613 9.10182L150.442 9.85565C150.422 9.94237 150.336 9.99908 150.246 9.97906L149.479 9.80562C149.392 9.7856 149.335 9.69888 149.355 9.60882L149.525 8.85499C149.549 8.76493 149.635 8.71157 149.722 8.73158Z" fill="#585857"/>
<path d="M149.508 9.68225C149.488 9.67892 149.475 9.6589 149.478 9.63555L149.648 8.88173C149.652 8.86171 149.675 8.84837 149.695 8.85171L150.462 9.02515C150.482 9.02849 150.496 9.05184 150.492 9.07185L150.322 9.82568C150.319 9.84569 150.295 9.85904 150.275 9.8557L149.508 9.68225Z" fill="#5E5E5D"/>
<path d="M151.033 9.02517L151.8 9.19862C151.887 9.21864 151.944 9.30536 151.924 9.39542L151.754 10.1492C151.734 10.236 151.647 10.2927 151.557 10.2727L150.79 10.0992C150.703 10.0792 150.646 9.99248 150.666 9.90242L150.836 9.14859C150.86 9.06187 150.946 9.00516 151.033 9.02517Z" fill="#585857"/>
<path d="M150.819 9.97577C150.799 9.97243 150.786 9.94909 150.789 9.92907L150.959 9.17524C150.963 9.15523 150.986 9.14189 151.006 9.14523L151.773 9.31867C151.793 9.32201 151.807 9.34536 151.803 9.36537L151.633 10.1192C151.63 10.1392 151.607 10.1526 151.587 10.1492L150.819 9.97577Z" fill="#5E5E5D"/>
<path d="M152.344 9.31869L153.111 9.49214C153.198 9.51215 153.254 9.59888 153.234 9.68894L153.064 10.4428C153.044 10.5295 152.957 10.5862 152.867 10.5662L152.1 10.3927C152.013 10.3727 151.957 10.286 151.977 10.1959L152.147 9.44211C152.17 9.35538 152.257 9.29868 152.344 9.31869Z" fill="#585857"/>
<path d="M152.13 10.2726C152.11 10.2693 152.097 10.246 152.1 10.2259L152.27 9.47212C152.274 9.45211 152.297 9.43876 152.317 9.4421L153.084 9.61555C153.104 9.61888 153.118 9.64223 153.114 9.66224L152.944 10.4127C152.941 10.4328 152.918 10.4461 152.898 10.4428L152.13 10.2726Z" fill="#5E5E5D"/>
<path d="M153.658 9.61552L154.425 9.78897C154.512 9.80898 154.568 9.8957 154.548 9.98576L154.378 10.7396C154.358 10.8263 154.272 10.883 154.181 10.863L153.414 10.6896C153.328 10.6695 153.271 10.5828 153.291 10.4928L153.461 9.73893C153.481 9.64887 153.568 9.59551 153.658 9.61552Z" fill="#585857"/>
<path d="M153.441 10.5662C153.421 10.5628 153.408 10.5395 153.411 10.5195L153.581 9.76564C153.584 9.74562 153.608 9.73228 153.628 9.73562L154.395 9.90907C154.415 9.9124 154.428 9.93575 154.425 9.95576L154.255 10.7096C154.252 10.7296 154.228 10.7429 154.208 10.7396L153.441 10.5662Z" fill="#5E5E5D"/>
<path d="M137.647 7.29748L138.414 7.47093C138.501 7.49094 138.558 7.57767 138.538 7.66773L138.368 8.42155C138.348 8.50828 138.261 8.56498 138.171 8.54497L137.404 8.37152C137.317 8.35151 137.26 8.26479 137.28 8.17473L137.451 7.4209C137.471 7.33417 137.561 7.27747 137.647 7.29748Z" fill="#585857"/>
<path d="M137.434 8.24808C137.414 8.24474 137.401 8.22139 137.404 8.20138L137.574 7.44755C137.577 7.42754 137.601 7.4142 137.621 7.41753L138.388 7.59098C138.408 7.59432 138.421 7.61766 138.418 7.63768L138.248 8.39151C138.245 8.41152 138.221 8.42486 138.201 8.42153L137.434 8.24808Z" fill="#5E5E5D"/>
<path d="M138.958 7.591L139.726 7.76445C139.812 7.78446 139.869 7.87118 139.849 7.96124L139.679 8.71507C139.659 8.8018 139.572 8.8585 139.482 8.83849L138.715 8.66504C138.628 8.64503 138.571 8.5583 138.591 8.46824L138.762 7.71442C138.782 7.62769 138.872 7.57099 138.958 7.591Z" fill="#585857"/>
<path d="M138.745 8.5416C138.725 8.53826 138.712 8.51491 138.715 8.4949L138.885 7.74107C138.888 7.72106 138.912 7.70772 138.932 7.71105L139.699 7.8845C139.719 7.88783 139.732 7.91118 139.729 7.9312L139.559 8.68503C139.556 8.70504 139.532 8.71838 139.512 8.71505L138.745 8.5416Z" fill="#5E5E5D"/>
<path d="M140.269 7.88783L141.037 8.06128C141.123 8.08129 141.18 8.16801 141.16 8.25807L140.99 9.0119C140.97 9.09862 140.883 9.15533 140.793 9.13531L140.026 8.96187C139.939 8.94185 139.883 8.85513 139.903 8.76507L140.076 8.01124C140.096 7.92118 140.183 7.86782 140.269 7.88783Z" fill="#585857"/>
<path d="M140.056 8.83826C140.036 8.83492 140.022 8.81157 140.026 8.79156L140.196 8.03773C140.199 8.01772 140.222 8.00438 140.242 8.00771L141.01 8.18116C141.03 8.18449 141.043 8.20784 141.04 8.22786L140.87 8.98169C140.866 9.0017 140.843 9.01504 140.823 9.01171L140.056 8.83826Z" fill="#5E5E5D"/>
<path d="M141.58 8.18139L142.347 8.35484C142.434 8.37485 142.491 8.46158 142.471 8.55164L142.301 9.30547C142.281 9.39219 142.194 9.44889 142.104 9.42888L141.337 9.25543C141.25 9.23542 141.193 9.1487 141.213 9.05864L141.383 8.30481C141.407 8.21809 141.493 8.16138 141.58 8.18139Z" fill="#585857"/>
<path d="M141.367 9.13199C141.347 9.12866 141.333 9.10531 141.337 9.08529L141.507 8.33146C141.51 8.31145 141.534 8.29811 141.554 8.30144L142.321 8.47489C142.341 8.47823 142.354 8.50158 142.351 8.52159L142.181 9.27542C142.177 9.29543 142.154 9.30877 142.134 9.30544L141.367 9.13199Z" fill="#5E5E5D"/>
<path d="M147.59 9.53224L142.884 8.47487C142.797 8.45486 142.714 8.50823 142.694 8.59495L142.51 9.40549C142.497 9.46552 142.534 9.52556 142.594 9.53891L147.344 10.6063C147.43 10.6263 147.52 10.5696 147.54 10.4829L147.71 9.72903C147.734 9.64231 147.68 9.55225 147.59 9.53224Z" fill="#585857"/>
<path d="M142.641 9.41876L142.821 8.62157C142.824 8.60489 142.844 8.59155 142.861 8.59822L147.567 9.65558C147.587 9.65892 147.6 9.68227 147.597 9.70228L147.427 10.4561C147.424 10.4761 147.4 10.4895 147.38 10.4861L142.641 9.41876Z" fill="#5E5E5D"/>
<path d="M148.138 9.65573L148.905 9.82918C148.992 9.84919 149.049 9.93591 149.029 10.026L148.858 10.7798C148.838 10.8665 148.752 10.9232 148.662 10.9032L147.894 10.7298C147.808 10.7098 147.751 10.623 147.771 10.533L147.941 9.77914C147.961 9.69242 148.048 9.63572 148.138 9.65573Z" fill="#585857"/>
<path d="M147.924 10.6063C147.904 10.603 147.891 10.5796 147.894 10.5596L148.064 9.8058C148.068 9.78579 148.091 9.77244 148.111 9.77578L148.878 9.94923C148.898 9.95256 148.912 9.97591 148.908 9.99592L148.738 10.7498C148.735 10.7698 148.711 10.7831 148.691 10.7798L147.924 10.6063Z" fill="#5E5E5D"/>
<path d="M149.449 9.95253L150.216 10.126C150.302 10.146 150.359 10.2327 150.339 10.3228L150.169 11.0766C150.149 11.1633 150.062 11.22 149.972 11.2L149.205 11.0266C149.118 11.0066 149.062 10.9198 149.082 10.8298L149.252 10.0759C149.272 9.98588 149.362 9.93251 149.449 9.95253Z" fill="#585857"/>
<path d="M149.235 10.9032C149.215 10.8998 149.202 10.8765 149.205 10.8565L149.375 10.1026C149.379 10.0826 149.402 10.0693 149.422 10.0726L150.189 10.2461C150.209 10.2494 150.223 10.2728 150.219 10.2928L150.049 11.0466C150.046 11.0666 150.022 11.08 150.002 11.0766L149.235 10.9032Z" fill="#5E5E5D"/>
<path d="M150.759 10.2461L151.526 10.4196C151.613 10.4396 151.67 10.5263 151.65 10.6164L151.48 11.3702C151.46 11.4569 151.373 11.5136 151.283 11.4936L150.516 11.3202C150.429 11.3001 150.372 11.2134 150.392 11.1234L150.562 10.3695C150.582 10.2828 150.672 10.2261 150.759 10.2461Z" fill="#585857"/>
<path d="M150.546 11.1967C150.526 11.1934 150.512 11.17 150.516 11.15L150.686 10.3962C150.689 10.3762 150.713 10.3628 150.733 10.3662L151.5 10.5396C151.52 10.543 151.533 10.5663 151.53 10.5863L151.36 11.3401C151.356 11.3602 151.336 11.3735 151.313 11.3702L150.546 11.1967Z" fill="#5E5E5D"/>
<path d="M152.07 10.5394L152.837 10.7129C152.924 10.7329 152.981 10.8196 152.961 10.9097L152.791 11.6635C152.771 11.7502 152.684 11.8069 152.594 11.7869L151.827 11.6135C151.74 11.5935 151.683 11.5067 151.703 11.4167L151.873 10.6628C151.897 10.5761 151.983 10.5194 152.07 10.5394Z" fill="#585857"/>
<path d="M151.856 11.4902C151.836 11.4869 151.823 11.4636 151.826 11.4435L151.997 10.6897C152 10.6697 152.023 10.6564 152.043 10.6597L152.81 10.8331C152.83 10.8365 152.844 10.8598 152.84 10.8798L152.67 11.6337C152.667 11.6537 152.644 11.667 152.624 11.6637L151.856 11.4902Z" fill="#5E5E5D"/>
<path d="M153.381 10.8364L154.148 11.0099C154.235 11.0299 154.292 11.1166 154.272 11.2067L154.102 11.9605C154.082 12.0472 153.995 12.1039 153.905 12.0839L153.138 11.9105C153.051 11.8905 152.994 11.8037 153.014 11.7137L153.184 10.9599C153.208 10.8698 153.295 10.8164 153.381 10.8364Z" fill="#585857"/>
<path d="M153.168 11.7871C153.148 11.7838 153.135 11.7604 153.138 11.7404L153.308 10.9866C153.311 10.9666 153.335 10.9532 153.355 10.9566L154.122 11.13C154.142 11.1333 154.155 11.1567 154.152 11.1767L153.982 11.9305C153.979 11.9506 153.955 11.9639 153.935 11.9606L153.168 11.7871Z" fill="#5E5E5D"/>
<path d="M147.354 11.6602L143.504 10.7963C143.331 10.7563 143.158 10.8664 143.121 11.0398L142.657 13.0978C142.617 13.2713 142.727 13.4447 142.901 13.4814L146.75 14.3453C146.923 14.3853 147.097 14.2753 147.134 14.1018L147.597 12.0438C147.637 11.8703 147.527 11.7002 147.354 11.6602Z" fill="#EDEDED"/>
<path d="M147.384 11.5367L143.534 10.6728C143.294 10.6195 143.054 10.7696 143.001 11.0097L142.537 13.0678C142.484 13.3079 142.634 13.5481 142.874 13.6014L146.723 14.4653C146.963 14.5187 147.204 14.3686 147.257 14.1285L147.721 12.0704C147.774 11.8303 147.624 11.5935 147.384 11.5367ZM147.137 14.1018C147.097 14.2752 146.927 14.3853 146.753 14.3453L142.904 13.4814C142.731 13.4413 142.621 13.2712 142.661 13.0978L143.124 11.0398C143.164 10.8663 143.334 10.7562 143.508 10.7963L147.357 11.6602C147.53 11.7002 147.64 11.8703 147.6 12.0437L147.137 14.1018Z" fill="#9D9B9B"/>
<path d="M142.888 12.0837L142.661 13.0977C142.621 13.2712 142.731 13.4446 142.904 13.4813L146.754 14.3452C146.927 14.3853 147.1 14.2752 147.137 14.1017L147.364 13.0877L142.888 12.0837Z" fill="#DFDFDE"/>
<path d="M145.109 12.581L142.888 12.0806L142.661 13.0946C142.621 13.2681 142.731 13.4415 142.904 13.4782L144.812 13.9085L145.109 12.581Z" fill="#D9D9DA"/>
<path d="M156.59 5.75305L137.691 1.50359C137.581 1.47691 137.504 1.3735 137.514 1.2601L139.492 -9.55367C139.519 -9.85054 139.799 -10.054 140.089 -9.98729L159.338 -5.65778C159.629 -5.59107 159.795 -5.28754 159.692 -5.00735L156.853 5.60962C156.813 5.71636 156.703 5.77973 156.59 5.75305Z" fill="#E3E1E1"/>
<path d="M138.338 0.46616L140.163 -8.66317C140.189 -8.94336 140.453 -9.13682 140.726 -9.07344L158.368 -5.1075C158.641 -5.04746 158.798 -4.75727 158.701 -4.49376L156.447 4.5355C156.367 4.75565 156.136 4.87906 155.906 4.82903L138.702 0.959819C138.471 0.909786 138.318 0.696312 138.338 0.46616Z" fill="#C7C7C6"/>
<path d="M138.465 0.479475L140.289 -8.65653C140.309 -8.85999 140.499 -9.00009 140.699 -8.95339L158.348 -4.98411C158.544 -4.94075 158.661 -4.73061 158.591 -4.54049L156.33 4.49545C156.273 4.65555 156.106 4.74561 155.939 4.70892L138.725 0.836377C138.561 0.799686 138.448 0.646251 138.465 0.479475Z" fill="#C6E6F2"/>
<path opacity="0.24" d="M138.738 -0.394413C139.065 -0.981465 139.512 -1.53516 140.006 -1.99546C141.286 -3.18625 143.071 -3.84335 144.752 -4.20358C146.733 -4.63053 148.951 -5.50444 150.966 -5.32765C153.761 -5.0875 155.653 -4.66055 158.301 -3.74995L158.591 -4.54047C158.661 -4.73059 158.548 -4.94073 158.348 -4.98409L140.699 -8.95337C140.503 -8.99673 140.309 -8.85664 140.289 -8.65651L138.495 0.149278C138.555 -0.0475181 138.651 -0.237643 138.738 -0.394413Z" fill="#B6E0ED"/>
<path d="M153.851 5.13922L140.403 2.1139L140.409 1.88708L153.968 4.93575L153.851 5.13922Z" fill="#585857"/>
</g>
<path d="M29.8076 67.6373C28.9107 63.8458 25.1193 61.5074 21.3482 62.4079C17.5721 63.3085 15.2432 67.1154 16.1401 70.9018C16.772 73.5626 18.8308 75.507 21.3075 76.1159C21.4502 76.4945 21.7152 78.7919 22.1891 79.5288C22.4031 79.8613 22.6732 79.9176 23.086 79.8306C23.4172 81.0126 24.8033 82.0974 25.9449 81.9899C26.7449 81.9132 27.3259 81.3606 27.5858 80.6186C27.7896 80.0404 27.9527 79.3753 28.0546 78.7305C28.605 78.7152 28.87 78.6589 28.8445 78.1421C28.7986 77.2467 27.8304 74.7804 27.7947 74.4017C29.5528 72.7285 30.409 70.1804 29.8076 67.6373Z" fill="#FDFFFC"/>
<path d="M26.1538 67.3816C26.0468 66.9978 25.6697 66.742 25.2722 66.8392C24.9002 66.9262 24.6199 67.3407 24.732 67.7244C24.7982 67.9598 24.9715 68.1491 25.1804 68.2361C25.0276 69.2288 24.8339 70.2061 24.7524 71.209C24.6759 72.1402 24.5995 73.051 24.3957 73.9567C23.2898 72.2937 22.1891 70.6359 20.9711 69.0548C21.3075 68.7324 21.0527 68.011 20.487 68.144C19.8194 68.3026 20.064 69.3465 20.7367 69.1878C20.7418 69.1878 20.7469 69.1827 20.752 69.1776C22.0158 70.9736 23.2541 72.7952 24.2835 74.7396C24.3956 74.9493 24.7014 74.9033 24.7728 74.6884C25.1091 73.6855 25.2059 72.6621 25.2773 71.6132C25.3588 70.4824 25.5779 69.372 25.6697 68.2463C26.0111 68.1338 26.2557 67.7449 26.1538 67.3816Z" fill="#AEB4FC"/>
<path d="M17.6685 61.2006C16.2467 60.4944 14.8198 59.7832 13.398 59.072C13.1024 58.9287 12.8323 59.3534 13.1279 59.512C14.514 60.2795 15.9052 61.0419 17.2914 61.8095C17.699 62.0346 18.0761 61.4052 17.6685 61.2006Z" fill="#808AFF"/>
<path d="M20.3441 55.7767C20.2269 55.5157 19.8906 55.7051 19.916 55.9404C20.0893 57.4141 20.6346 58.9184 21.0626 60.3409C21.1697 60.6888 21.7047 60.5711 21.6181 60.2078C21.2665 58.7444 20.9607 57.1531 20.3441 55.7767Z" fill="#808AFF"/>
<path d="M26.9692 55.347C26.6023 55.6693 26.378 56.181 26.1487 56.6108C25.9092 57.0611 25.6952 57.5216 25.4913 57.9872C25.3282 58.3659 25.9551 58.5654 26.113 58.1766C26.3016 57.7007 26.5054 57.2402 26.7398 56.7848C26.9386 56.3908 27.2291 56.007 27.3463 55.5823C27.4125 55.3521 27.1373 55.1935 26.9692 55.347Z" fill="#808AFF"/>
</g>
<defs>
<clipPath id="clip0_1006_9019">
<rect width="14" height="17" fill="white" transform="translate(147 27)"/>
</clipPath>
<clipPath id="clip1_1006_9019">
<rect width="69" height="12" fill="white" transform="translate(51 120)"/>
</clipPath>
<clipPath id="clip2_1006_9019">
<rect width="32" height="26" fill="white" transform="translate(132 61)"/>
</clipPath>
<clipPath id="clip3_1006_9019">
<rect width="35" height="35" fill="white" transform="translate(34 -14)"/>
</clipPath>
</defs>
</svg>
