<svg width="333" height="243" viewBox="0 0 333 243" fill="none" xmlns="http://www.w3.org/2000/svg">
<path d="M170.263 240.904C209.54 240.904 241.38 239.662 241.38 238.13C241.38 236.599 209.54 235.357 170.263 235.357C130.987 235.357 99.147 236.599 99.147 238.13C99.147 239.662 130.987 240.904 170.263 240.904Z" fill="#F9F0E3"/>
<path opacity="0.5" d="M45.1442 236.23C70.0766 236.23 90.2883 234.695 90.2883 232.802C90.2883 230.908 70.0766 229.373 45.1442 229.373C20.2117 229.373 0 230.908 0 232.802C0 234.695 20.2117 236.23 45.1442 236.23Z" fill="#F9EAD4"/>
<path d="M328.883 240.911C328.883 242.068 313.515 243 294.554 243C275.593 243 260.224 242.068 260.224 240.911C260.224 239.753 275.593 238.822 294.554 238.822C313.507 238.822 328.883 239.753 328.883 240.911Z" fill="#F9F0E3"/>
<path d="M245.686 74.9193L244.1 77.6564H247.264L245.686 74.9193Z" fill="#E7CCA8"/>
<path d="M245.686 79.9421L244.1 82.6791H247.264L245.686 79.9421Z" fill="#E7CCA8"/>
<path d="M248.966 76.9794L247.497 79.9421H250.428L248.966 76.9794Z" fill="#E7CCA8"/>
<path d="M7.43307 91.2469L5.84753 93.9912H9.01133L7.43307 91.2469Z" fill="#E7CCA8"/>
<path d="M7.43307 96.2697L5.84753 99.0068H9.01133L7.43307 96.2697Z" fill="#E7CCA8"/>
<path d="M10.7134 93.307L9.24419 96.2697H12.1753L10.7134 93.307Z" fill="#E7CCA8"/>
<path d="M242.522 196.15L240.943 198.887H244.1L242.522 196.15Z" fill="#E7CCA8"/>
<path d="M242.522 201.166L240.943 203.91H244.1L242.522 201.166Z" fill="#E7CCA8"/>
<path d="M245.802 198.203L244.34 201.166H247.264L245.802 198.203Z" fill="#E7CCA8"/>
<path d="M180.177 55.5782C180.177 57.5072 178.62 59.065 176.693 59.065C174.765 59.065 173.209 57.5072 173.209 55.5782C173.209 53.6491 174.765 52.0913 176.693 52.0913C178.613 52.0913 180.177 53.6564 180.177 55.5782Z" stroke="white" stroke-miterlimit="10"/>
<path d="M330.708 203.895H258.508C257.439 203.895 256.573 203.029 256.573 201.959C256.573 200.889 257.439 200.023 258.508 200.023H330.708C331.777 200.023 332.643 200.889 332.643 201.959C332.643 203.029 331.777 203.895 330.708 203.895Z" fill="#FEE6C6"/>
<path d="M268.48 238.13C267.396 238.13 266.501 237.468 266.458 236.623L264.581 202.701H272.378L270.501 236.623C270.451 237.468 269.563 238.13 268.48 238.13Z" fill="#FEE6C6"/>
<path d="M321.435 238.13C320.351 238.13 319.457 237.468 319.413 236.623L317.537 202.701H325.333L323.457 236.623C323.406 237.468 322.519 238.13 321.435 238.13Z" fill="#FEE6C6"/>
<path d="M294.612 238.13C293.528 238.13 292.634 237.468 292.59 236.623L290.713 202.701H298.51L296.634 236.623C296.59 237.468 295.696 238.13 294.612 238.13Z" fill="#FEE6C6"/>
<path d="M310.809 193.243C311.848 188.606 308.934 184.005 304.301 182.965C299.668 181.925 295.07 184.841 294.032 189.478C292.993 194.115 295.906 198.717 300.539 199.757C305.172 200.797 309.77 197.88 310.809 193.243Z" fill="#F9D8AC"/>
<path d="M306.751 184.292H297.885C297.39 184.292 296.99 183.891 296.99 183.396C296.99 182.901 297.39 182.501 297.885 182.501H306.751C307.245 182.501 307.645 182.901 307.645 183.396C307.645 183.891 307.245 184.292 306.751 184.292Z" fill="#F9D8AC"/>
<path d="M298.496 168.204C298.808 168.35 299.179 168.903 299.303 169.667C299.427 170.432 299.267 171.087 299.005 171.313C298.699 171.174 298.321 170.614 298.198 169.849C298.074 169.085 298.256 168.437 298.496 168.204Z" fill="#F9D8AC"/>
<path d="M299.078 171.237L298.898 171.267L299.704 176.172L299.884 176.143L299.078 171.237Z" fill="#F9D8AC"/>
<path d="M301.078 171.101C300.743 171.079 300.19 171.393 299.783 172.011C299.376 172.637 299.267 173.3 299.405 173.635C299.732 173.664 300.292 173.343 300.699 172.725C301.114 172.106 301.201 171.436 301.078 171.101Z" fill="#F9D8AC"/>
<path d="M296.976 171.778C297.288 171.647 297.907 171.764 298.496 172.222C299.085 172.681 299.398 173.278 299.376 173.642C299.078 173.78 298.445 173.656 297.856 173.198C297.267 172.739 296.968 172.135 296.976 171.778Z" fill="#F9D8AC"/>
<path d="M297.368 174.181C297.681 174.05 298.299 174.173 298.888 174.625C299.477 175.083 299.79 175.68 299.768 176.044C299.47 176.182 298.837 176.059 298.248 175.6C297.659 175.141 297.361 174.537 297.368 174.181Z" fill="#F9D8AC"/>
<path d="M301.478 173.511C301.143 173.489 300.59 173.802 300.183 174.421C299.776 175.039 299.667 175.709 299.805 176.044C300.132 176.073 300.692 175.753 301.099 175.134C301.507 174.508 301.601 173.838 301.478 173.511Z" fill="#F9D8AC"/>
<path d="M299.863 176.035L299.683 176.064L300.49 180.97L300.669 180.94L299.863 176.035Z" fill="#F9D8AC"/>
<path d="M301.87 175.899C301.536 175.877 300.983 176.19 300.576 176.809C300.168 177.435 300.059 178.097 300.198 178.432C300.525 178.461 301.085 178.148 301.492 177.522C301.899 176.903 301.994 176.234 301.87 175.899Z" fill="#F9D8AC"/>
<path d="M297.761 176.576C298.074 176.445 298.692 176.561 299.281 177.02C299.87 177.478 300.183 178.075 300.161 178.439C299.863 178.578 299.23 178.454 298.641 177.995C298.052 177.537 297.754 176.932 297.761 176.576Z" fill="#F9D8AC"/>
<path d="M298.161 178.985C298.474 178.854 299.092 178.978 299.681 179.429C300.27 179.888 300.583 180.485 300.561 180.849C300.263 180.987 299.63 180.863 299.041 180.405C298.452 179.946 298.147 179.335 298.161 178.985Z" fill="#F9D8AC"/>
<path d="M302.263 178.308C301.929 178.286 301.376 178.599 300.969 179.218C300.561 179.837 300.452 180.507 300.59 180.841C300.918 180.87 301.478 180.55 301.885 179.931C302.3 179.313 302.387 178.636 302.263 178.308Z" fill="#F9D8AC"/>
<path d="M300.655 180.831L300.476 180.861L301.282 185.766L301.461 185.737L300.655 180.831Z" fill="#F9D8AC"/>
<path d="M306.191 171.749C306.438 171.968 306.612 172.536 306.489 173.198C306.365 173.861 306.009 174.341 305.689 174.443C305.441 174.232 305.267 173.657 305.383 172.994C305.514 172.339 305.885 171.866 306.191 171.749Z" fill="#F9D8AC"/>
<path d="M305.613 174.398L304.832 178.651L305.01 178.683L305.792 174.431L305.613 174.398Z" fill="#F9D8AC"/>
<path d="M307.718 174.938C307.405 174.814 306.794 174.894 306.205 175.266C305.623 175.644 305.311 176.154 305.34 176.467C305.638 176.598 306.263 176.51 306.852 176.139C307.434 175.761 307.725 175.244 307.718 174.938Z" fill="#F9D8AC"/>
<path d="M303.623 174.181C303.958 174.174 304.503 174.465 304.918 175.025C305.332 175.586 305.441 176.176 305.303 176.459C304.976 176.474 304.423 176.176 304.009 175.615C303.594 175.054 303.507 174.465 303.623 174.181Z" fill="#F9D8AC"/>
<path d="M303.245 176.27C303.58 176.263 304.125 176.554 304.54 177.114C304.954 177.675 305.063 178.265 304.925 178.548C304.598 178.563 304.045 178.265 303.63 177.704C303.216 177.143 303.121 176.554 303.245 176.27Z" fill="#F9D8AC"/>
<path d="M307.332 177.02C307.02 176.896 306.409 176.976 305.82 177.347C305.238 177.726 304.925 178.235 304.954 178.548C305.252 178.679 305.878 178.592 306.467 178.221C307.049 177.85 307.347 177.325 307.332 177.02Z" fill="#F9D8AC"/>
<path d="M304.853 178.559L304.071 182.811L304.25 182.844L305.032 178.592L304.853 178.559Z" fill="#F9D8AC"/>
<path d="M306.954 179.094C306.642 178.97 306.031 179.051 305.441 179.422C304.86 179.8 304.547 180.31 304.576 180.623C304.874 180.754 305.5 180.667 306.089 180.295C306.671 179.924 306.962 179.407 306.954 179.094Z" fill="#F9D8AC"/>
<path d="M302.86 178.345C303.194 178.337 303.74 178.629 304.154 179.189C304.569 179.75 304.678 180.339 304.54 180.623C304.212 180.638 303.66 180.339 303.245 179.779C302.83 179.218 302.743 178.629 302.86 178.345Z" fill="#F9D8AC"/>
<path d="M304.084 182.717L303.302 186.969L303.481 187.002L304.262 182.75L304.084 182.717Z" fill="#F9D8AC"/>
<path d="M312.286 130.505C312.664 130.745 313.064 131.509 313.107 132.521C313.158 133.525 312.846 134.348 312.482 134.603C312.104 134.384 311.704 133.598 311.653 132.586C311.609 131.582 311.944 130.774 312.286 130.505Z" fill="#FEE6C6"/>
<path d="M312.597 134.507L312.357 134.519L312.67 140.982L312.909 140.971L312.597 134.507Z" fill="#FEE6C6"/>
<path d="M315.195 134.639C314.766 134.559 314.009 134.88 313.384 135.622C312.758 136.365 312.525 137.216 312.656 137.668C313.078 137.762 313.842 137.427 314.467 136.685C315.086 135.942 315.304 135.091 315.195 134.639Z" fill="#FEE6C6"/>
<path d="M309.791 134.901C310.213 134.785 310.998 135.025 311.689 135.702C312.38 136.379 312.7 137.202 312.613 137.668C312.205 137.799 311.405 137.544 310.714 136.867C310.016 136.19 309.718 135.36 309.791 134.901Z" fill="#FEE6C6"/>
<path d="M309.943 138.068C310.365 137.951 311.151 138.192 311.842 138.869C312.533 139.546 312.853 140.368 312.765 140.834C312.358 140.965 311.558 140.71 310.867 140.033C310.169 139.356 309.878 138.526 309.943 138.068Z" fill="#FEE6C6"/>
<path d="M315.347 137.806C314.918 137.726 314.162 138.046 313.536 138.789C312.911 139.531 312.678 140.383 312.809 140.834C313.231 140.929 313.995 140.594 314.62 139.851C315.238 139.109 315.456 138.257 315.347 137.806Z" fill="#FEE6C6"/>
<path d="M312.89 140.861L312.651 140.873L312.962 147.336L313.202 147.325L312.89 140.861Z" fill="#FEE6C6"/>
<path d="M315.5 140.965C315.071 140.885 314.315 141.205 313.689 141.948C313.064 142.69 312.831 143.542 312.962 143.993C313.384 144.088 314.147 143.753 314.773 143.01C315.391 142.268 315.609 141.409 315.5 140.965Z" fill="#FEE6C6"/>
<path d="M310.096 141.227C310.518 141.11 311.304 141.351 311.994 142.028C312.685 142.705 313.005 143.527 312.918 143.993C312.511 144.124 311.711 143.869 311.02 143.192C310.322 142.508 310.023 141.678 310.096 141.227Z" fill="#FEE6C6"/>
<path d="M310.249 144.393C310.671 144.277 311.456 144.517 312.147 145.194C312.838 145.871 313.158 146.694 313.071 147.16C312.664 147.291 311.864 147.036 311.173 146.359C310.474 145.682 310.176 144.852 310.249 144.393Z" fill="#FEE6C6"/>
<path d="M315.653 144.131C315.224 144.051 314.467 144.372 313.842 145.114C313.216 145.857 312.984 146.708 313.115 147.16C313.536 147.254 314.3 146.919 314.926 146.177C315.544 145.434 315.762 144.583 315.653 144.131Z" fill="#FEE6C6"/>
<path d="M313.209 147.158L312.969 147.17L313.282 153.634L313.521 153.622L313.209 147.158Z" fill="#FEE6C6"/>
<path d="M317.711 199.935H310.947C308.249 199.935 306.118 197.628 306.336 194.934L309.849 151.731H318.802L322.315 194.934C322.54 197.628 320.409 199.935 317.711 199.935Z" fill="#FEE6C6"/>
<path d="M319.726 151.862H308.932C308.3 151.862 307.791 151.353 307.791 150.719C307.791 150.086 308.3 149.576 308.932 149.576H319.726C320.359 149.576 320.868 150.086 320.868 150.719C320.868 151.345 320.359 151.862 319.726 151.862Z" fill="#FEE6C6"/>
<path d="M315.682 160.43C315.784 156.805 315.966 153.18 316.155 149.562C316.344 145.944 316.598 142.326 316.824 138.709C317.1 135.091 317.347 131.473 317.66 127.862L318.14 122.446C318.329 120.641 318.489 118.836 318.693 117.031C318.649 118.843 318.562 120.656 318.497 122.468L318.22 127.899C318.031 131.517 317.777 135.134 317.551 138.752C317.267 142.37 317.027 145.988 316.715 149.598C316.402 153.209 316.082 156.82 315.682 160.43Z" fill="#FEE6C6"/>
<path d="M316.024 156.281C315.478 149.038 315.267 141.788 315.136 134.537C315.035 127.287 315.02 120.037 315.34 112.779C315.886 120.022 316.096 127.273 316.227 134.523C316.322 141.773 316.336 149.023 316.024 156.281Z" fill="#FEE6C6"/>
<path d="M315.1 163.08C315.551 159.476 316.075 155.888 316.62 152.306C317.158 148.718 317.762 145.143 318.329 141.562C318.955 137.988 319.551 134.414 320.206 130.847L321.202 125.496C321.559 123.72 321.893 121.937 322.271 120.161C322.053 121.959 321.791 123.757 321.551 125.555L320.759 130.934C320.22 134.523 319.617 138.097 319.049 141.678C318.424 145.253 317.828 148.827 317.173 152.394C316.511 155.968 315.849 159.527 315.1 163.08Z" fill="#FEE6C6"/>
<path d="M313.762 112.889C313.762 113.311 313.42 113.653 312.998 113.653C312.576 113.653 312.234 113.311 312.234 112.889C312.234 112.466 312.576 112.124 312.998 112.124C313.42 112.124 313.762 112.466 313.762 112.889Z" stroke="#FEE6C6" stroke-miterlimit="10"/>
<path d="M317.857 111.018C318.869 111.018 319.69 110.197 319.69 109.183C319.69 108.17 318.869 107.349 317.857 107.349C316.844 107.349 316.024 108.17 316.024 109.183C316.024 110.197 316.844 111.018 317.857 111.018Z" stroke="#FEE6C6" stroke-miterlimit="10"/>
<path d="M321.544 118.632C321.877 118.632 322.148 118.361 322.148 118.028C322.148 117.694 321.877 117.423 321.544 117.423C321.211 117.423 320.94 117.694 320.94 118.028C320.94 118.361 321.211 118.632 321.544 118.632Z" stroke="#FEE6C6" stroke-miterlimit="10"/>
<path d="M323.61 131.072C323.61 131.385 323.355 131.64 323.042 131.64C322.73 131.64 322.475 131.385 322.475 131.072C322.475 130.759 322.73 130.505 323.042 130.505C323.355 130.505 323.61 130.759 323.61 131.072Z" stroke="#FEE6C6" stroke-miterlimit="10"/>
<path d="M309.093 126.275C309.639 126.275 310.082 125.832 310.082 125.285C310.082 124.739 309.639 124.295 309.093 124.295C308.546 124.295 308.103 124.739 308.103 125.285C308.103 125.832 308.546 126.275 309.093 126.275Z" stroke="#FEE6C6" stroke-miterlimit="10"/>
<path d="M285.331 171.313H260.123V198.8H285.331V171.313Z" fill="#F9D8AC"/>
<path d="M282.509 174.392H262.952V195.72H282.509V174.392Z" fill="#FEE6C6"/>
<path d="M31.3908 45.889H27.3324V225.5H31.3908V45.889Z" fill="#FEE6C6"/>
<path d="M50.0679 232.059H8.66215C8.66215 227.626 17.9354 224.037 29.3687 224.037C40.802 224.037 50.0679 227.626 50.0679 232.059Z" fill="#FEE6C6"/>
<path d="M57.843 48.3569H0.880026L1.93463 44.659L2.14555 43.931L4.05837 37.234L4.26929 36.5061L14.6989 0H45.4787L54.8101 36.5061L54.9992 37.234L56.7084 43.931L56.8975 44.659L57.843 48.3569Z" fill="#FEE6C6"/>
<path d="M4.61842 38.8717L2.6765 42.2348H6.55307L4.61842 38.8717Z" fill="#E5CAA6"/>
<path d="M9.01122 42.2348L7.0693 38.8717H10.9531L9.01122 42.2348Z" fill="#E5CAA6"/>
<path d="M12.8878 38.8717L10.9532 42.2348H14.8297L12.8878 38.8717Z" fill="#E5CAA6"/>
<path d="M17.2881 42.2348L15.3462 38.8717H19.2228L17.2881 42.2348Z" fill="#E5CAA6"/>
<path d="M21.1646 38.8717L19.2227 42.2348H23.0993L21.1646 38.8717Z" fill="#E5CAA6"/>
<path d="M25.5577 42.2348L23.6158 38.8717H27.4996L25.5577 42.2348Z" fill="#E5CAA6"/>
<path d="M29.4343 38.8717L27.4996 42.2348H31.3762L29.4343 38.8717Z" fill="#E5CAA6"/>
<path d="M33.8271 42.2348L31.8924 38.8717H35.769L33.8271 42.2348Z" fill="#E5CAA6"/>
<path d="M37.7111 38.8717L35.7692 42.2348H39.6457L37.7111 38.8717Z" fill="#E5CAA6"/>
<path d="M42.1039 42.2348L40.162 38.8717H44.0385L42.1039 42.2348Z" fill="#E5CAA6"/>
<path d="M45.9806 38.8717L44.0387 42.2348H47.9226L45.9806 38.8717Z" fill="#E5CAA6"/>
<path d="M50.3735 42.2348L48.4389 38.8717H52.3154L50.3735 42.2348Z" fill="#E5CAA6"/>
<path d="M54.25 38.8717L52.3154 42.2348H56.1919L54.25 38.8717Z" fill="#E5CAA6"/>
<path d="M54.9992 37.2339H4.05839L4.26931 36.506H54.8101L54.9992 37.2339Z" fill="#E5CAA6"/>
<path d="M56.8975 44.659H1.93459L2.14551 43.9311H56.7084L56.8975 44.659Z" fill="#E5CAA6"/>
<path d="M64.2718 154.904C65.7555 149.153 68.9484 144.014 72.2286 139.064C75.1378 134.667 78.1853 130.293 82.0255 126.682C85.8657 123.064 90.6004 120.218 95.808 119.417C94.5352 123.523 93.2624 127.628 91.9896 131.734C90.7168 135.839 89.4004 140.032 86.8912 143.519C84.2656 147.159 80.4617 149.823 76.4033 151.73C72.3377 153.638 67.9884 154.839 63.6609 156.032" fill="#66A986"/>
<path d="M64.5415 154.978C66.7307 147.196 71.4873 140.121 76.2875 133.693C78.7677 130.366 81.4951 127.236 84.7971 124.71C86.3608 123.509 94.3394 118.217 95.1322 120.714C95.4813 121.82 93.5466 125.817 93.2193 126.872C92.6084 128.845 92.012 130.818 91.3865 132.783C90.2156 136.474 88.9428 140.208 86.6663 143.382C81.3133 150.814 71.9746 153.457 63.596 155.771C63.2614 155.866 63.3996 156.39 63.7414 156.295C71.931 154.032 80.8187 151.484 86.4117 144.598C91.932 137.806 93.5539 127.629 96.0777 119.491C96.1431 119.28 95.9322 119.12 95.7431 119.156C87.8663 120.597 81.7642 125.773 76.9421 131.939C71.6255 138.738 66.3743 146.454 64.0178 154.84C63.916 155.167 64.4397 155.313 64.5415 154.978Z" fill="#66A986"/>
<path d="M55.5448 174.232C61.2906 161.944 67.029 149.649 72.7748 137.362C73.073 136.728 72.1275 136.175 71.8293 136.809C66.0835 149.096 60.3451 161.391 54.5993 173.679C54.3084 174.312 55.2466 174.865 55.5448 174.232Z" fill="#80B996"/>
<path d="M56.374 147.786C56.7085 134.909 61.567 121.893 64.8035 109.511C64.8908 109.169 64.3671 109.023 64.2798 109.365C61.0288 121.813 56.1703 134.836 55.8358 147.786C55.8212 148.135 56.3667 148.135 56.374 147.786Z" fill="#80B996"/>
<path d="M47.7042 150.479C42.2203 145.602 36.6927 140.674 32.3943 134.72C28.1032 128.765 25.0849 121.624 25.3249 114.286C28.8232 119.84 36.2127 121.915 39.8565 127.375C41.0566 129.173 41.7767 131.247 42.4821 133.293C44.4604 139.022 46.446 144.758 48.4243 150.487" fill="#66A986"/>
<path d="M47.8934 150.29C42.1404 145.173 36.2928 139.99 31.9216 133.584C29.747 130.396 27.9651 126.909 26.845 123.211C26.2632 121.289 25.8704 119.324 25.6813 117.329C25.5213 115.611 25.0122 114.992 26.285 116.048C28.0887 117.547 29.6379 119.163 31.5725 120.532C34.2272 122.403 37.0346 124.157 39.0347 126.77C41.6167 130.141 42.664 134.683 44.0386 138.658C45.4132 142.625 46.7806 146.592 48.1552 150.559C48.2716 150.887 48.7952 150.749 48.6789 150.414C47.1515 146.003 45.6314 141.599 44.1041 137.187C42.904 133.708 41.9658 129.871 39.7911 126.836C36.0091 121.551 29.2451 119.542 25.5504 114.141C25.4049 113.922 25.0413 113.995 25.0413 114.279C24.9249 129.901 36.6855 141.038 47.5006 150.669C47.7697 150.909 48.1625 150.523 47.8934 150.29Z" fill="#66A986"/>
<path d="M37.042 123.713C46.0098 141.992 51.901 161.58 54.4975 181.781C54.5848 182.465 55.6757 182.479 55.5885 181.781C52.9701 161.384 47.0426 141.628 37.9803 123.16C37.6748 122.526 36.7293 123.08 37.042 123.713Z" fill="#80B996"/>
<path d="M53.2242 107.333C48.7366 91.5881 48.8676 74.5544 53.6024 58.8746C56.8971 63.6135 59.4208 68.891 61.05 74.4234C62.8683 80.589 63.5738 87.1477 62.5046 93.488C61.4355 99.8284 58.5117 105.936 53.8205 110.325" fill="#66A986"/>
<path d="M53.4865 107.262C51.1882 98.9486 50.0536 90.3808 50.25 81.7547C50.3591 77.1323 50.8246 72.5245 51.6682 67.9748C52.0319 66.0167 52.4683 64.0731 52.9629 62.1441C53.8138 58.8611 54.4102 60.4844 55.6757 62.6682C64.0907 77.1396 66.5563 97.4709 53.6174 110.137C53.3629 110.384 53.7484 110.77 54.0029 110.523C68.3455 96.4809 64.0543 73.8347 53.8284 58.7373C53.6974 58.5481 53.3992 58.5699 53.3265 58.8028C48.6644 74.6937 48.5408 91.4436 52.9483 107.407C53.0574 107.742 53.5811 107.596 53.4865 107.262Z" fill="#66A986"/>
<path d="M65.9162 150.479C64.7235 142.559 67.269 134.435 71.3929 127.571C75.5167 120.707 81.1534 114.898 86.7392 109.161C88.0992 120.095 85.7791 131.458 80.2443 140.98C78.7242 143.6 76.9205 146.126 74.5058 147.953C72.0911 149.78 68.9782 150.858 66.0035 150.319" fill="#80B996"/>
<path d="M66.1927 150.479C65.1526 142.203 67.64 134.195 71.9602 127.171C74.1567 123.604 76.775 120.321 79.5461 117.183C80.8043 115.764 82.0989 114.366 83.4081 112.99C83.9681 112.401 84.5209 111.658 85.1609 111.163C86.1428 110.406 86.0192 109.875 86.6446 110.981C87.241 112.022 86.841 114.687 86.8265 115.873C86.8046 117.707 86.6883 119.542 86.4774 121.369C85.9973 125.387 85.0446 129.376 83.619 133.169C80.8043 140.674 75.5168 151.134 65.989 150.05C65.6399 150.013 65.6472 150.559 65.989 150.596C74.7167 151.593 79.8952 143.142 82.9572 136.212C86.7246 127.702 88.0265 118.384 86.9937 109.162C86.9719 108.943 86.7101 108.783 86.5283 108.965C75.575 120.233 63.4943 133.489 65.6326 150.479C65.6908 150.821 66.2363 150.829 66.1927 150.479Z" fill="#80B996"/>
<path d="M57.435 136.32C56.7586 126.638 58.7078 116.913 61.8935 107.741C65.0791 98.5692 69.4866 89.8849 73.8795 81.2225C76.796 91.1297 77.727 101.779 75.2687 111.81C72.8104 121.841 66.7373 131.174 57.8569 136.429" fill="#80B996"/>
<path d="M57.712 136.321C57.1375 126.341 59.0721 116.535 62.3959 107.16C64.1633 102.173 66.287 97.3179 68.5635 92.5427C69.6545 90.2424 70.7891 87.9639 71.931 85.6928C72.0619 85.4307 73.2183 82.5845 73.4947 82.599C74.4111 82.6354 74.4693 84.4116 74.6584 85.2051C79.0586 103.833 75.0293 125.54 57.7193 136.197C57.4211 136.379 57.6975 136.852 57.9957 136.67C76.993 124.98 79.8005 101.023 74.1493 81.1505C74.0911 80.9321 73.7565 80.8666 73.6474 81.0849C64.8979 98.3443 56.0174 116.434 57.1666 136.321C57.1884 136.67 57.7339 136.678 57.712 136.321Z" fill="#80B996"/>
<path d="M51.5519 101.46C55.9085 126.843 56.6722 152.678 53.8575 178.279C53.7775 178.978 54.8757 178.971 54.9485 178.279C57.7704 152.583 56.9704 126.647 52.6065 101.169C52.4829 100.477 51.4355 100.768 51.5519 101.46Z" fill="#80B996"/>
<path d="M53.3693 109.736C49.1872 106.242 45.5434 100.309 44.5615 94.9513C43.5797 89.5937 43.8706 84.0832 44.2051 78.6455C44.547 73.2078 44.9325 67.7192 44.147 62.3252C48.2272 67.8211 51.6601 73.7975 54.3584 80.0941C56.4021 84.8621 58.0386 89.8922 58.2204 95.0751C58.4022 100.258 57.0058 105.645 53.5802 109.539" fill="#80B996"/>
<path d="M53.5664 109.547C46.8024 103.578 44.2059 95.68 44.1696 86.8356C44.155 82.7373 44.5259 78.6536 44.7296 74.5699C44.8314 72.5243 44.9042 70.4788 44.8751 68.4333C44.8678 67.8437 44.3078 63.7236 44.6714 63.5052C45.9806 62.719 55.2392 82.9193 55.7556 84.4043C58.6503 92.6955 59.2758 102.181 53.3919 109.351C53.1737 109.62 53.5519 110.006 53.7773 109.737C65.4361 95.5272 53.3555 74.4752 44.3805 62.1949C44.2423 62.0057 43.835 62.0348 43.8714 62.3332C45.086 71.8619 43.0204 81.3761 43.7695 90.9121C44.3514 98.3443 47.5588 104.983 53.1737 109.933C53.4428 110.166 53.8282 109.78 53.5664 109.547Z" fill="#80B996"/>
<path d="M47.2235 147.115C49.3327 139.698 48.089 129.587 44.5542 122.729C41.0195 115.879 35.5138 110.209 29.4044 105.506C29.7389 113.412 30.3499 121.426 32.9827 128.888C35.6229 136.356 40.1613 143.556 47.2235 147.115Z" fill="#80B996"/>
<path d="M47.486 147.189C51.8935 130.293 42.4676 115.393 29.6014 105.318C29.4342 105.187 29.1214 105.252 29.136 105.514C29.8051 120.619 32.2489 139.407 47.086 147.356C47.3987 147.524 47.6678 147.051 47.3624 146.883C40.6202 143.273 36.2927 136.859 33.6235 129.835C32.2489 126.217 31.3688 122.424 30.787 118.603C30.3942 116.011 30.1469 113.405 29.9651 110.792C29.9069 109.94 29.7396 109.001 29.8051 108.15C29.8996 106.912 29.4269 106.555 30.6488 106.839C31.8779 107.123 33.8853 109.606 34.7799 110.457C36.1036 111.717 37.3691 113.041 38.5619 114.424C41.2239 117.511 43.5731 120.947 45.1659 124.71C48.1042 131.626 48.8679 139.757 46.9624 147.043C46.8751 147.385 47.3987 147.531 47.486 147.189Z" fill="#80B996"/>
<path d="M78.0478 205.097C78.0478 217.413 73.2693 228.143 66.2072 233.726H43.9369C36.8747 228.143 32.0963 217.413 32.0963 205.097C32.0963 193.588 36.271 183.462 42.5768 177.624H67.5599C73.873 183.462 78.0478 193.581 78.0478 205.097Z" fill="#FEE6C6"/>
<path d="M44.7151 189.511L38.7366 199.885H50.7008L44.7151 189.511Z" stroke="#E6CAA6" stroke-miterlimit="10"/>
<path d="M44.7151 192.045L40.9185 198.625H48.5117L44.7151 192.045Z" stroke="#E6CAA6" stroke-width="0.5" stroke-miterlimit="10"/>
<path d="M53.3556 223.572L46.1261 227.75V219.4L53.3556 223.572Z" stroke="#E6CAA6" stroke-width="0.75" stroke-miterlimit="10"/>
<path d="M50.9554 223.572L47.3261 225.668V221.475L50.9554 223.572Z" stroke="#E6CAA6" stroke-width="0.5" stroke-miterlimit="10"/>
<path d="M63.4942 180.674L57.7048 190.712H69.2909L63.4942 180.674Z" stroke="#E6CAA6" stroke-miterlimit="10"/>
<path d="M63.4942 184.481L60.9995 188.805H65.9962L63.4942 184.481Z" stroke="#E6CAA6" stroke-width="0.5" stroke-miterlimit="10"/>
<path d="M63.4944 224.758L56.8468 209.464H70.1493L63.4944 224.758Z" stroke="#E6CAA6" stroke-miterlimit="10"/>
<path d="M63.4943 221.031L59.2759 211.328H67.72L63.4943 221.031Z" stroke="#E6CAA6" stroke-width="0.5" stroke-miterlimit="10"/>
<path d="M41.4495 211.83C41.4495 210.811 42.2786 209.981 43.2969 209.981C44.3151 209.981 45.1442 210.811 45.1442 211.83C45.1442 212.849 44.3151 213.679 43.2969 213.679C42.2786 213.679 41.4495 212.849 41.4495 211.83Z" stroke="#E6CAA6" stroke-miterlimit="10"/>
<path d="M63.4942 202.512C65.133 202.512 66.4616 201.183 66.4616 199.542C66.4616 197.902 65.133 196.572 63.4942 196.572C61.8553 196.572 60.5268 197.902 60.5268 199.542C60.5268 201.183 61.8553 202.512 63.4942 202.512Z" stroke="#E6CAA6" stroke-miterlimit="10"/>
<path d="M51.5372 185.129C52.1759 185.129 52.6936 184.611 52.6936 183.972C52.6936 183.333 52.1759 182.814 51.5372 182.814C50.8985 182.814 50.3808 183.333 50.3808 183.972C50.3808 184.611 50.8985 185.129 51.5372 185.129Z" stroke="#E6CAA6" stroke-miterlimit="10"/>
<g opacity="0.25">
<path opacity="0.25" d="M69.2329 179.342C65.2472 199.047 56.1122 217.697 42.9333 232.867C43.2606 233.158 43.5952 233.457 43.937 233.726H66.2073C73.2694 228.143 78.0479 217.413 78.0479 205.096C78.0479 194.636 74.6004 185.333 69.2329 179.342Z" fill="#FEE6C6"/>
</g>
<path d="M67.5237 177.624H42.6205C41.8641 177.624 41.2532 177.013 41.2532 176.256V175.972C41.2532 175.215 41.8641 174.603 42.6205 174.603H67.5237C68.2801 174.603 68.891 175.215 68.891 175.972V176.256C68.8983 177.013 68.2801 177.624 67.5237 177.624Z" fill="#F9D8AC"/>
<path d="M69.109 145.034C69.8072 142.661 70.6872 140.339 71.6691 138.061C72.6437 135.782 73.7638 133.562 74.9638 131.393C76.1857 129.231 77.4949 127.127 78.9349 125.111C79.6622 124.106 80.3968 123.109 81.1605 122.133C81.946 121.173 82.7242 120.219 83.5606 119.302C83.2115 119.811 82.8551 120.321 82.4915 120.816L81.4442 122.344C80.7459 123.364 80.0623 124.39 79.4004 125.424C78.0767 127.506 76.7966 129.602 75.5966 131.749C74.382 133.89 73.2619 136.081 72.1709 138.294C71.0873 140.514 70.0908 142.77 69.109 145.034Z" fill="#66A986"/>
<path d="M51.6392 103.476C51.2392 101.241 50.9192 98.9995 50.6137 96.7574C50.3009 94.5154 50.0391 92.266 49.7773 90.024C49.5373 87.7747 49.2972 85.5253 49.1081 83.2687L48.8318 79.8838C48.7663 78.7555 48.679 77.6199 48.6354 76.4916C48.839 77.6054 48.9991 78.7264 49.1882 79.8474L49.6609 83.2105C49.9736 85.4525 50.2355 87.7019 50.4973 89.9512C50.7373 92.2005 50.9773 94.4498 51.1664 96.7137C51.3628 98.9558 51.5374 101.212 51.6392 103.476Z" fill="#66A986"/>
<path d="M34.5692 116.179C35.8056 118.108 36.9038 120.117 37.9366 122.162C38.9767 124.208 39.8931 126.304 40.7513 128.437C41.5877 130.57 42.3586 132.732 43.0132 134.93C43.3332 136.03 43.646 137.136 43.9296 138.242C44.1915 139.356 44.4606 140.47 44.6715 141.598L43.5878 138.344C43.2314 137.26 42.8605 136.182 42.4823 135.105C41.7113 132.958 40.9258 130.817 40.0822 128.706C39.253 126.588 38.3512 124.492 37.442 122.403C36.5111 120.313 35.5437 118.253 34.5692 116.179Z" fill="#66A986"/>
<path d="M60.716 127.047C61.8578 124.274 62.9924 121.507 64.0616 118.712C65.1307 115.917 66.1853 113.122 67.1308 110.29C68.1345 107.473 69.0291 104.619 69.9019 101.766C70.3383 100.339 70.7601 98.9049 71.1747 97.4636L72.4038 93.1396C72.1493 94.6174 71.8293 96.0805 71.5165 97.5509C71.1747 99.0141 70.811 100.47 70.4401 101.919C69.6692 104.823 68.7673 107.684 67.8145 110.53C66.8108 113.354 65.7562 116.172 64.5707 118.93C63.3925 121.675 62.1269 124.397 60.716 127.047Z" fill="#66A986"/>
<path d="M196.992 97.7765H141.913C128.574 97.7765 117.759 108.601 117.759 121.951V181.053H221.153V121.951C221.153 108.601 210.338 97.7765 196.992 97.7765Z" fill="#5C6193"/>
<path d="M208.913 168.044H129.992V181.052H208.913V168.044Z" fill="#4E5567"/>
<path d="M208.913 181.053H123.875V214.116H208.913V181.053Z" fill="#8E97FD"/>
<path d="M215.648 219.015H123.265C120.559 219.015 118.37 216.824 118.37 214.116H220.543C220.543 216.824 218.346 219.015 215.648 219.015Z" fill="#3F414E"/>
<path d="M120.821 234.323H117.759L123.265 219.014H127.548L120.821 234.323Z" fill="#3F414E"/>
<path d="M218.091 234.323H221.153L215.648 219.014H211.364L218.091 234.323Z" fill="#3F414E"/>
<path d="M108.988 107.262C106.027 105.289 103.54 102.479 102.369 99.1159C101.198 95.7528 101.46 91.822 103.445 88.8666C105.431 85.9111 109.22 84.1495 112.69 84.943C112.835 80.2551 117.141 76.841 121.308 74.6936C125.897 72.3278 130.69 70.9593 135.382 73.1067C137.993 74.3078 140.742 76.2587 142.124 78.7846C143.506 81.3033 144.328 84.084 145.128 86.8502C148.408 84.8993 152.873 85.1977 155.87 87.5635C158.866 89.9293 160.183 94.2096 159.048 97.8566C162.758 96.2842 167.252 95.5854 170.663 97.7328C174.249 99.9894 175.486 104.626 175.733 108.863C175.944 112.503 175.58 116.361 173.515 119.36C171.071 122.912 166.743 124.586 162.648 125.933C155.564 128.255 148.27 130.199 140.815 130.417C133.36 130.636 125.679 129.02 119.57 124.747C113.453 120.474 109.14 113.311 109.358 105.849" fill="#4E5567"/>
<path d="M105.082 112.561C101.373 112.757 97.8524 115.109 96.245 118.464C94.6377 121.82 95.0013 126.035 97.1615 129.056C94.0777 129.099 91.0884 130.934 89.6483 133.664C88.2083 136.393 88.3901 139.895 90.092 142.464C91.5321 144.634 93.8813 146.046 96.3178 146.963C103.074 149.504 110.755 148.645 117.461 145.973C121.315 144.437 125.017 142.261 127.614 139.029C130.21 135.797 131.563 131.378 130.443 127.382C129.658 124.594 127.759 122.228 125.519 120.408C123.272 118.588 120.675 117.256 118.093 115.967C113.642 113.747 108.98 111.549 104.005 111.462" fill="#3F4553"/>
<path d="M126.937 161.457H105.525C98.7687 161.457 93.2921 155.975 93.2921 149.213C93.2921 142.45 98.7687 136.969 105.525 136.969H122.494C124.952 136.969 126.945 138.963 126.945 141.424V161.457H126.937Z" fill="#8E97FD"/>
<path d="M129.992 214.115H115.744C110.777 214.115 106.747 210.083 106.747 205.111V136.961H120.995C125.963 136.961 129.992 140.994 129.992 145.966V214.115Z" fill="#8E97FD"/>
<path d="M132.509 75.9747C134.443 75.5161 136.625 75.8655 138.342 77.0448C139.185 77.6344 139.927 78.3987 140.4 79.3087C140.684 79.7381 140.829 80.2331 141.011 80.699C141.149 81.1795 141.244 81.6817 141.324 82.1622C141.084 81.7181 140.931 81.2523 140.684 80.8301C140.429 80.4151 140.226 79.9784 139.92 79.6071C139.389 78.8209 138.698 78.1658 137.927 77.6344C137.164 77.0957 136.291 76.7099 135.382 76.4406C134.465 76.1931 133.505 76.0184 132.509 75.9747Z" fill="white"/>
<path d="M164.889 99.9456C166.925 99.9092 169.034 100.666 170.576 102.129C170.969 102.486 171.282 102.923 171.594 103.345C171.842 103.818 172.133 104.262 172.271 104.772C172.474 105.26 172.54 105.784 172.62 106.293C172.671 106.81 172.649 107.327 172.634 107.829C172.409 106.832 172.184 105.856 171.747 104.983C171.347 104.095 170.78 103.301 170.074 102.646C169.383 101.977 168.569 101.431 167.696 100.987C166.801 100.564 165.87 100.193 164.889 99.9456Z" fill="white"/>
<path d="M152.634 89.2596C153.084 89.3251 153.514 89.4853 153.928 89.6891C154.343 89.8929 154.721 90.1623 155.055 90.4753C155.39 90.7956 155.666 91.1886 155.855 91.6108C156.052 92.0331 156.125 92.5062 156.11 92.9575C155.965 92.528 155.841 92.1058 155.601 91.7419C155.368 91.3779 155.114 91.0358 154.794 90.7373C154.175 90.1404 153.434 89.6673 152.634 89.2596Z" fill="white"/>
<path d="M163.703 120.845C164.619 117.511 164.321 113.74 162.387 110.872C160.452 108.004 156.743 106.272 153.397 107.145C154.423 104.736 152.939 101.86 150.771 100.383C148.611 98.905 145.935 98.4464 143.375 97.864C135.854 96.1534 128.647 93.0597 122.225 88.7867C118.973 86.6247 118.435 87.1124 116.901 83.6256C115.984 84.9723 114.188 87.1634 114.137 88.8303C111.235 86.1806 105.416 85.904 103.438 88.8595C101.453 91.8149 101.191 95.7457 102.362 99.1088C103.533 102.472 106.02 105.282 108.98 107.254L109.344 105.842C109.126 113.304 113.439 120.467 119.555 124.739C125.672 129.012 133.352 130.629 140.8 130.41C147.673 130.206 154.408 128.539 160.968 126.457C162.183 124.732 163.15 122.861 163.703 120.845Z" fill="#3F4553"/>
<path d="M123.381 145.966V205.671H111.744V155.313H108.551C105.184 155.313 102.456 152.583 102.456 149.213C102.456 145.842 105.184 143.112 108.551 143.112H120.53C122.108 143.112 123.381 144.386 123.381 145.966Z" stroke="#8C96FF" stroke-miterlimit="10"/>
<path d="M135.571 96.5609C135.083 92.7465 137.498 89.2961 140.96 88.852C144.429 88.408 147.637 91.1305 148.131 94.9448C148.619 98.7592 146.204 102.21 142.742 102.654C139.273 103.098 136.065 100.368 135.571 96.5609Z" fill="#8E97FD"/>
<path d="M135.571 96.5627C136.058 100.377 139.273 103.107 142.742 102.656C144.182 102.474 145.433 101.76 146.379 100.734C142.073 97.9676 141.316 91.1032 141.178 88.8393C141.106 88.8466 141.04 88.8466 140.967 88.8538C137.498 89.2979 135.083 92.7483 135.571 96.5627Z" fill="#8E97FD"/>
<path d="M126.327 112.321L128.77 123.342L137.338 125.788C137.338 125.788 140.4 122.723 140.4 122.112C140.4 121.5 136.116 109.868 136.116 109.868L126.327 112.321Z" fill="#FDBCA0"/>
<path d="M136.109 109.875L126.319 112.321L127.156 116.084C128.908 116.841 130.887 117.402 133.141 117.678C134.371 117.831 135.636 117.598 136.713 116.972C137.265 116.652 137.782 116.259 138.276 115.844C137.2 112.838 136.109 109.875 136.109 109.875Z" fill="#DF8370"/>
<path d="M112.864 90.2788C112.864 90.2788 111.642 114.162 133.054 115.385C139.782 112.939 144.066 103.753 142.844 96.4007C141.622 89.0558 133.665 76.8047 122.043 80.4807C115.926 82.9339 112.864 90.2788 112.864 90.2788Z" fill="#FDBCA0"/>
<path d="M180.773 117.839L196.33 98.8031C196.948 98.046 197.29 97.0997 197.29 96.117V90.9486C197.29 90.5556 197.545 90.1989 197.916 90.0751C198.512 89.8786 199.123 90.3226 199.123 90.9486V94.5738L204.629 84.7757L211.967 84.1643L202.178 101.307L187.493 127.025L180.773 117.839Z" fill="#FDBCA0"/>
<path d="M249.293 100.688L274.989 109.263L282.895 102.596C285.855 100.099 290.197 99.8585 293.273 102.21C295.055 103.571 295.994 105.485 293.95 108.041C289.055 114.163 274.982 120.896 274.982 120.896L246.224 114.774L249.293 100.688Z" fill="#FDBCA0"/>
<path opacity="0.5" d="M246.238 114.774L260.516 117.817C261.432 112.67 260.719 107.473 260.057 104.284L249.3 100.696L246.238 114.774Z" fill="#DF8370"/>
<path d="M170.373 144.779C170.373 144.779 202.585 108.958 216.993 96.7282C219.393 94.69 222.506 93.7 225.648 93.9548C236.282 94.8137 258.472 98.8538 258.472 98.8538C258.472 98.8538 262.756 114.774 254.799 123.96C249.904 123.349 227.881 119.061 227.881 119.061L183.217 168.044L170.373 144.779Z" fill="#739BE0"/>
<path d="M256.021 131.917L276.822 155.182L294.168 158.159C297.39 158.712 299.412 162.119 298.132 165.133C297.303 167.076 295.317 169.697 290.895 168.656C280.495 166.21 270.705 163.145 270.705 163.145L246.231 143.549L256.021 131.917Z" fill="#FDBCA0"/>
<path opacity="0.5" d="M268.836 146.25L256.021 131.917L246.231 143.549L263.337 157.249C266.159 154.33 268.552 150.61 268.836 146.25Z" fill="#DF8370"/>
<path opacity="0.2" d="M216.855 103.811L171.885 147.509L183.224 168.044L227.888 119.061C227.888 119.061 249.911 123.349 254.806 123.96C255.315 123.378 255.766 122.759 256.181 122.126C248.18 115.582 238.631 108.069 231.517 102.821C227.037 99.5235 220.841 99.9384 216.855 103.811Z" fill="#739BE0"/>
<path d="M152.634 164.368C152.634 164.368 163.645 180.288 179.551 178.454C194.403 176.736 210.847 155.276 222.426 136.991C223.612 135.112 226.266 134.901 227.743 136.554C236.849 146.767 252.966 161.922 252.966 161.922C252.966 161.922 268.261 154.578 268.261 142.938C264.043 137.871 246.442 119.702 235.918 108.907C231.379 104.248 224.034 103.848 219.008 107.975L169.754 148.448L152.634 164.368Z" fill="#97B8FF"/>
<g opacity="0.5">
<path opacity="0.5" d="M179.551 178.454C194.403 176.736 210.847 155.276 222.426 136.99C223.612 135.112 226.266 134.901 227.743 136.554C236.849 146.767 252.966 161.922 252.966 161.922C252.966 161.922 256.53 160.204 260.217 157.125C252.021 148.958 243.336 141.285 234.216 134.173C231.263 131.873 227.757 129.5 224.085 130.228C220.892 130.869 218.644 133.657 216.688 136.263C212.455 141.897 208.229 147.531 203.996 153.165C199.378 159.316 194.498 165.686 187.581 169.042C181.682 171.895 174.606 172.215 168.474 169.908C163.718 168.117 159.587 164.754 156.786 160.517L152.634 164.376C152.634 164.368 163.645 180.288 179.551 178.454Z" fill="#97B8FF"/>
</g>
<path d="M211.975 161.457H233.387C240.143 161.457 245.62 155.975 245.62 149.213C245.62 142.45 240.143 136.969 233.387 136.969H216.419C213.96 136.969 211.967 138.963 211.967 141.424V161.457H211.975Z" fill="#8E97FD"/>
<path d="M208.913 214.115H223.161C228.128 214.115 232.158 210.083 232.158 205.111V136.961H217.91C212.942 136.961 208.913 140.994 208.913 145.966V214.115Z" fill="#8E97FD"/>
<path d="M215 145.966V205.671H226.637V155.313H229.83C233.198 155.313 235.925 152.583 235.925 149.213C235.925 145.842 233.198 143.112 229.83 143.112H217.851C216.273 143.112 215 144.386 215 145.966Z" stroke="#8C96FF" stroke-miterlimit="10"/>
<path d="M118.37 101.3L107.969 104.364C107.969 104.364 111.031 114.774 126.327 121.507L128.159 120.896C128.159 120.896 136.72 125.693 138.865 117.475C142.327 116.266 146.684 115.262 150.095 114.57C153.623 113.857 157.281 114.417 160.43 116.142L172.664 122.861C173.82 123.495 175.267 123.225 176.118 122.213L184.446 112.321L192.941 118.719L181.166 137.478C180.402 138.701 178.824 139.131 177.544 138.468L166.096 132.528L172.824 142.938C172.824 142.938 172.213 161.922 152.633 164.368C145.906 157.635 137.338 149.06 132.443 145.384C127.549 141.708 111.642 131.298 107.358 127.011C103.075 122.723 92.063 107.414 91.4521 99.4581C91.4521 95.1705 115.926 92.1132 115.926 92.1132L118.37 101.3Z" fill="#FFFFFE"/>
<path d="M114.457 125.191C101.671 116.419 96.2524 104.961 93.9613 97.0777C92.4194 97.8129 91.4521 98.6136 91.4521 99.4653C92.063 107.429 103.075 122.73 107.358 127.018C111.642 131.305 127.549 141.715 132.443 145.391C133.316 146.046 134.313 146.861 135.382 147.793C132.771 142.246 127.025 133.817 114.457 125.191Z" fill="#F2F2F2"/>
<path d="M154.415 124.623C154.924 124.477 155.448 124.397 155.979 124.354C156.51 124.303 157.041 124.31 157.579 124.361C158.641 124.463 159.717 124.732 160.685 125.256C161.659 125.751 162.518 126.508 163.143 127.404C163.492 127.833 163.718 128.335 163.972 128.816C164.212 129.304 164.343 129.835 164.532 130.345L164.481 130.243C165.078 131.051 165.63 131.895 166.205 132.718C166.78 133.547 167.318 134.392 167.856 135.251C167.18 134.501 166.51 133.744 165.878 132.972C165.245 132.193 164.583 131.429 163.972 130.636L163.95 130.614L163.914 130.534C163.718 130.068 163.565 129.58 163.339 129.122C163.092 128.685 162.888 128.219 162.561 127.833C162.292 127.411 161.928 127.069 161.579 126.705C161.187 126.399 160.816 126.064 160.365 125.831C159.499 125.329 158.539 124.965 157.521 124.79C156.51 124.616 155.463 124.536 154.415 124.623Z" fill="#97B8FF"/>
<path d="M130.363 98.1187C130.901 98.9704 131.367 100.688 132.727 100.419C133.193 100.324 133.411 99.9677 133.767 99.6911C135.018 98.7157 135.673 100.215 134.785 101.038C134.327 101.46 133.687 101.562 133.098 101.627C132.756 101.664 132.749 102.21 133.098 102.173C133.956 102.079 134.858 101.882 135.411 101.154C135.854 100.572 135.942 99.7712 135.454 99.1888C135.004 98.6647 134.334 98.5774 133.767 98.9559C133.236 99.3053 132.938 100.135 132.072 99.7639C131.454 99.5018 131.163 98.359 130.836 97.8421C130.647 97.551 130.174 97.8203 130.363 98.1187Z" fill="#444359"/>
<path d="M127.476 106.148C130.32 108.535 134.276 108.019 136.378 104.947C136.575 104.656 136.102 104.379 135.905 104.67C134.022 107.429 130.429 107.917 127.861 105.762C127.592 105.536 127.207 105.922 127.476 106.148Z" fill="#444359"/>
<path d="M120.879 96.5026C121.541 94.7992 123.214 93.8602 125.017 94.1805C125.359 94.2387 125.505 93.7146 125.163 93.6564C123.054 93.2851 121.126 94.3625 120.355 96.3643C120.225 96.6846 120.755 96.8229 120.879 96.5026Z" fill="#444359"/>
<path d="M122.617 101.343L121.17 100.506L122.836 100.652L122.617 101.343Z" fill="#444359"/>
<path d="M122.967 101.547C123.738 99.4653 125.861 98.5044 127.956 99.2105C128.29 99.3197 128.436 98.7956 128.101 98.6864C125.716 97.8857 123.308 99.0576 122.443 101.409C122.319 101.729 122.843 101.875 122.967 101.547Z" fill="#444359"/>
<path d="M123.912 99.3414L123.265 97.4415L124.545 98.9847L123.912 99.3414Z" fill="#444359"/>
<path d="M126.901 98.7518L127.345 97.4415L127.629 98.8028L126.901 98.7518Z" fill="#444359"/>
<path d="M137.913 94.2825L138.931 92.9503L138.574 94.5882L137.913 94.2825Z" fill="#444359"/>
<path d="M138.691 94.4718C136.385 93.5691 133.92 94.5809 132.938 96.8521C132.8 97.1724 133.272 97.449 133.411 97.1287C134.305 95.0614 136.444 94.1733 138.553 94.9959C138.873 95.1269 139.011 94.5955 138.691 94.4718Z" fill="#444359"/>
<path d="M135.534 94.4353L135.251 92.448L136.225 94.2023L135.534 94.4353Z" fill="#444359"/>
<path d="M133.331 96.5972L132.509 95.4762L133.782 96.0294L133.331 96.5972Z" fill="#444359"/>
<path d="M198.178 100.696L205.414 77.984C205.604 77.3944 206.142 76.9867 206.767 76.9722L219.75 76.63C220.746 76.6009 221.473 77.5618 221.182 78.5154L213.968 102.108C213.771 102.741 213.175 103.163 212.513 103.141L199.509 102.61C198.549 102.552 197.887 101.613 198.178 100.696Z" fill="#3F4553"/>
<path d="M196.956 100.696L204.193 77.9841C204.382 77.3944 204.92 76.9868 205.545 76.9722L218.528 76.6301C219.524 76.601 220.252 77.5619 219.961 78.5155L212.746 102.108C212.549 102.741 211.953 103.163 211.291 103.142L198.287 102.61C197.319 102.552 196.665 101.613 196.956 100.696Z" fill="#4E5567"/>
<path d="M217.604 80.328L212.768 96.1315L212.077 98.4027L211.749 99.4727C211.633 99.8513 211.342 100.135 210.993 100.252C210.855 100.295 210.716 100.317 210.571 100.31L207.858 100.201L200.018 99.8804C199.232 99.844 198.701 99.0796 198.934 98.3372L202.68 86.5737L204.098 82.126L204.811 79.8985C204.84 79.8039 204.883 79.7092 204.942 79.6292C205.145 79.3016 205.502 79.0905 205.902 79.0759L206.28 79.0687L216.44 78.7993C217.248 78.7775 217.837 79.5564 217.604 80.328Z" fill="#F2EDE4"/>
<g opacity="0.35">
<path opacity="0.35" d="M212.768 96.1315L212.077 98.4026L204.942 79.6291C205.145 79.3016 205.502 79.0905 205.902 79.0759L206.28 79.0686L212.768 96.1315Z" fill="white"/>
</g>
<g opacity="0.35">
<path opacity="0.35" d="M210.993 100.252C210.855 100.295 210.717 100.317 210.571 100.31L207.858 100.201L202.68 86.5737L204.098 82.126L210.993 100.252Z" fill="white"/>
</g>
<path d="M115.701 104.823C118.224 99.0869 118.893 92.55 117.592 86.4135C118.501 89.3325 121.679 90.985 124.712 91.3708C127.745 91.7566 130.821 91.2179 133.876 91.3708C136.931 91.5236 140.233 92.601 141.775 95.2434C142.058 95.7238 142.371 96.3207 142.924 96.3644C143.615 96.4227 144.022 95.6074 144.167 94.9304C145.295 89.8567 143.215 84.2879 139.251 80.9249C135.287 77.5618 129.672 76.3898 124.603 77.5327C119.533 78.6755 115.068 82.0095 112.202 86.3407C110.406 89.0559 109.191 92.1933 109.009 95.4472C108.827 98.6938 109.729 102.05 111.758 104.59C112.26 105.216 112.879 105.82 113.664 105.995C114.45 106.17 115.41 105.726 115.533 104.925" fill="#3F4553"/>
<path d="M115.632 112.14C119.394 111.372 121.775 107.467 120.95 103.417C120.125 99.3678 116.406 96.7077 112.644 97.4756C108.881 98.2435 106.5 102.149 107.325 106.198C108.15 110.247 111.869 112.908 115.632 112.14Z" fill="#8E97FD"/>
<path d="M111.388 101.802C107.257 89.1942 112.428 84.4407 112.66 84.135L112.813 84.1204H112.85L113.002 84.1131C112.828 84.3534 110.748 90.0677 114.144 100.434L111.388 101.802Z" fill="#8E97FD"/>
<path d="M120.108 108.848C109.416 111.687 107.656 105.958 107.678 101.824C107.169 103.156 107.024 104.67 107.336 106.206C108.166 110.261 111.882 112.917 115.642 112.153C117.584 111.746 119.155 110.508 120.108 108.848Z" fill="#8E97FD"/>
</svg>
