<svg width="43" height="35" viewBox="0 0 43 35" fill="none" xmlns="http://www.w3.org/2000/svg">
<path d="M19.5808 18.4164C19.9098 20.9432 16.3876 29.7139 17.1392 34.0679C24.4226 35.6063 41.6007 32.8463 42.9375 27.0583C43.0449 23.1393 42.9063 18.754 42.9825 16.1437C43.1765 9.322 41.9228 -2.36879 30.6219 1.25086C30.0435 1.12905 30.0643 0.272859 24.3671 0.662668C18.857 1.03159 18.5903 10.8638 19.5808 18.4164Z" fill="#8E97FD"/>
<path d="M0.431881 1.07334C-1.85738 12.7989 5.23205 21.5836 15.1268 21.1137C29.1844 20.4489 37.6488 9.34982 33.8045 1.64761L30.0191 1.7033C18.8014 -0.266628 16.1173 8.16647 12.7405 7.8602C10.3128 7.64093 6.30568 5.50394 5.48141 0.558236C5.30132 -0.520701 0.615437 0.137101 0.431881 1.07334Z" fill="#8E97FD"/>
</svg>
