<svg width="121" height="106" viewBox="0 0 121 106" fill="none" xmlns="http://www.w3.org/2000/svg">
<path d="M68.8976 10.8218C63.3845 14.1571 58.7636 18.9365 52.9228 21.6528C46.4924 24.6411 39.1602 24.8693 32.3366 26.7917C20.3867 30.1583 10.1092 39.0388 5.03282 50.3856C-0.0435402 61.7324 0.174865 75.3298 5.61628 86.5047C7.21063 89.7806 9.26988 92.8971 12.0811 95.2133C18.1091 100.183 26.6144 100.765 34.3802 99.9709C42.1461 99.1769 49.8964 97.2389 57.6622 98.0266C63.0912 98.5799 68.3329 100.452 73.7774 100.827C79.1939 101.199 84.6166 100.068 89.7709 98.3579C99.4338 95.1508 108.619 89.6712 114.616 81.4315C120.613 73.1918 122.972 61.9387 119.131 52.4955C115.608 43.8307 107.593 37.7697 103.222 29.4987C101.15 25.5789 99.9424 21.2402 97.7677 17.3767C92.1203 7.33959 78.3327 5.11399 68.8976 10.8218Z" fill="#808AFF"/>
<path d="M41.3597 9.64361C40.4175 10.1094 39.4877 10.6345 38.7482 11.3816C38.0306 12.1068 37.5252 13.007 37.0353 13.901C36.1679 15.4889 35.3006 17.3394 35.9215 19.0368C36.3302 20.1527 37.3348 20.9717 38.4456 21.3937C39.5563 21.8125 40.7638 21.8813 41.9494 21.8657C45.5438 21.8188 49.1256 21.0311 52.411 19.5713C53.4001 19.1305 54.3736 18.6242 55.1941 17.9177C56.0272 17.2019 56.6887 16.2954 57.191 15.317C58.0677 13.6103 58.4203 11.3847 57.244 9.86555C56.4047 8.78088 55.0007 8.32763 53.6591 8.05568C49.3409 7.18045 45.3191 7.68371 41.3597 9.64361Z" fill="#808AFF"/>
<path d="M96.791 99.8809C96.7349 99.8809 96.6787 99.8559 96.6444 99.8059C96.582 99.7246 96.6007 99.6089 96.6818 99.5464C103.131 94.6732 108.164 88.1402 111.231 80.6569C111.758 79.3722 112.048 77.4623 111.446 76.2995C111.187 75.7994 110.781 75.4837 110.245 75.3649C109.53 75.2024 108.788 75.4931 108.145 75.7806C106.8 76.3745 105.496 77.0935 104.27 77.9156C103.671 78.3157 103.078 78.7502 102.513 79.2003C102.445 79.2534 102.348 79.3503 102.232 79.4629C101.665 80.0162 101.203 80.4319 100.841 80.2943C100.75 80.26 100.7 80.1599 100.729 80.0693C100.819 79.763 100.928 79.4754 101.031 79.1972C101.268 78.5658 101.49 77.9656 101.502 77.2373C101.512 76.659 101.384 76.2526 101.122 76.0307C100.885 75.8306 100.52 75.7619 100.039 75.8213C98.9688 75.9557 97.9735 76.5652 97.309 77.4905C97.2622 77.5561 97.1748 77.5842 97.0999 77.5561C97.0219 77.528 96.972 77.4561 96.9751 77.3717C96.997 76.8872 97.0968 76.3902 97.1935 75.9119C97.2434 75.665 97.2934 75.418 97.3308 75.1742C98.2325 69.4602 98.6818 63.6305 98.66 57.8477C98.6537 55.8252 98.2824 51.0427 95.0001 50.2612C92.9721 49.7799 90.944 51.2396 89.7178 52.765C86.7382 56.4817 86.0361 61.6143 85.4714 65.7404C85.4589 65.8342 85.3778 65.8998 85.2842 65.8998C85.1906 65.8967 85.1126 65.8248 85.1032 65.731C85.0003 64.6057 84.37 63.5242 83.3747 62.7677C82.3794 62.0113 81.1688 61.6956 80.0581 61.8988C78.9473 62.1051 77.9333 62.8334 77.2718 63.8962C76.8257 64.612 76.5886 65.406 76.5761 66.178C76.7134 66.5563 76.7664 66.9532 76.7196 67.3534C76.7102 67.4409 76.6385 67.5096 76.5511 67.5159C76.4544 67.5222 76.3826 67.4659 76.3577 67.3815C76.2547 67.0126 76.2048 66.6313 76.2048 66.2437C76.0363 65.8248 75.743 65.4341 75.3374 65.1121C74.4076 64.3682 73.0878 64.1119 72.0551 64.4745C69.9771 65.2059 68.8944 67.494 68.5731 69.3914C68.5731 69.3914 68.5731 69.3914 68.5731 69.3945C68.5575 69.4946 68.4639 69.5602 68.3609 69.5477C68.2611 69.5321 68.1924 69.4352 68.208 69.3351C68.3796 68.2661 67.8929 67.2377 66.8664 66.5062C65.4811 65.5185 63.5654 65.3434 62.2081 66.078C59.5249 67.5347 58.6013 70.9137 58.2987 73.4925C58.2893 73.5863 58.2082 73.6551 58.1146 73.6551C58.1146 73.6551 58.1115 73.6551 58.1083 73.6551C58.0116 73.6519 57.9367 73.5769 57.9305 73.4831L57.3408 64.1462C57.191 61.755 56.4984 57.6726 53.5593 57.2131C50.7668 56.7755 48.8823 60.092 48.3737 61.1173C46.7918 64.2963 45.9775 67.841 46.0087 71.3919C46.0212 71.5451 46.0243 71.6983 46.0181 71.8514C46.0118 71.9515 45.9245 72.0234 45.8309 72.0265C45.731 72.0265 45.6499 71.9452 45.6468 71.8483C45.6436 71.7014 45.6405 71.5576 45.6374 71.4107C45.5532 70.4698 45.0477 69.5383 44.2303 68.8569C43.2911 68.0723 42.1024 67.7535 41.0509 68.0035C39.9994 68.2536 39.079 69.0694 38.586 70.1916C38.0962 71.3138 38.118 72.5454 38.6484 73.4894C38.6921 73.5644 38.6765 73.6613 38.611 73.7176C38.5455 73.7738 38.4488 73.7801 38.3801 73.7301C37.2725 72.933 36.8794 71.5295 36.4987 70.1697C36.0775 68.6693 35.6781 67.2502 34.3802 66.7719C33.0417 66.2781 31.5472 67.2815 30.9294 68.4974C30.2554 69.8228 30.2773 71.4107 30.296 72.8111C30.296 72.9049 30.2305 72.983 30.1369 72.9955C30.0464 73.0111 29.959 72.9517 29.931 72.8642C28.3241 67.2721 24.8952 62.2426 20.2837 58.7073C18.3118 57.1944 15.5412 56.3066 14.1184 57.9227C13.4819 58.6479 13.3197 59.7044 13.2386 60.7359C12.7643 66.8595 14.0529 73.2393 16.8672 78.697C16.9109 78.7783 16.8859 78.8783 16.811 78.9315C16.7362 78.9846 16.6332 78.9752 16.5708 78.9065C15.7627 78.0375 14.8454 77.056 13.6785 76.5934C12.6364 76.1807 11.145 76.2776 10.4367 77.2717C10.0748 77.7812 9.97184 78.4376 9.92816 78.9534C9.78463 80.5538 10.0405 82.1824 10.6707 83.6609C10.7082 83.7515 10.6707 83.8547 10.5834 83.8984C10.496 83.9422 10.3899 83.911 10.34 83.8266C9.42895 82.2355 8.26828 80.4819 6.56472 79.5066C5.039 78.6345 2.68646 78.472 1.32923 79.8849C-1.12315 82.4418 1.75044 86.718 3.10143 88.4372C6.14975 92.3195 9.60679 96.7238 14.4523 98.8619C14.5459 98.9025 14.5864 99.0119 14.5459 99.1057C14.5053 99.1995 14.3961 99.2432 14.3025 99.1995C9.37278 97.0239 5.88766 92.582 2.81127 88.6654C1.40099 86.868 -1.59428 82.3949 1.0609 79.6254C2.54918 78.075 5.09828 78.2407 6.74568 79.1816C8.03115 79.9161 9.01397 81.0633 9.81271 82.2605C9.54439 81.1727 9.45391 80.038 9.55687 78.919C9.60679 78.3595 9.71911 77.6405 10.1341 77.056C10.9609 75.8963 12.6114 75.7713 13.8126 76.2495C14.6644 76.5871 15.3789 77.1716 16.0092 77.7937C13.5006 72.4704 12.4149 66.5906 12.8704 60.7047C12.9546 59.6075 13.1325 58.4822 13.8407 57.6757C15.4195 55.8784 18.4023 56.7974 20.5083 58.4103C24.864 61.7487 28.1744 66.3937 29.9247 71.5951C29.9497 70.4917 30.0807 69.3476 30.5987 68.3255C31.2882 66.972 32.9761 65.8592 34.505 66.4219C35.9839 66.9658 36.4238 68.5412 36.8544 70.0666C37.1352 71.0637 37.4223 72.0859 37.9932 72.833C37.7623 71.9546 37.8466 70.9606 38.2491 70.0385C38.7857 68.81 39.8029 67.9129 40.9667 67.6378C42.1304 67.3627 43.4409 67.7097 44.4674 68.5662C44.9916 69.0038 45.3972 69.5352 45.6655 70.1103C45.8153 66.9345 46.6265 63.7993 48.043 60.9485C48.5828 59.867 50.5765 56.3723 53.6154 56.8443C56.8073 57.3413 57.5499 61.6143 57.709 64.1181L58.1957 71.8171C58.6887 69.4914 59.7558 66.9814 62.0303 65.7467C63.5061 64.9465 65.5809 65.134 67.0786 66.1968C67.8118 66.7188 68.2985 67.3815 68.5013 68.1129C69.038 66.4344 70.1362 64.7495 71.9303 64.1212C73.0941 63.7117 74.5231 63.9868 75.5652 64.8183C75.8429 65.0402 76.0769 65.2903 76.2578 65.5591C76.3577 64.9183 76.5917 64.2806 76.9567 63.693C77.6712 62.5396 78.7788 61.7518 79.9894 61.5268C81.2 61.3017 82.5167 61.6424 83.5962 62.4645C84.37 63.0522 84.941 63.8243 85.2436 64.6683C85.8021 60.6922 86.6258 56.0159 89.4308 52.5243C90.0579 51.7398 92.3231 49.2328 95.0844 49.8924C96.5477 50.2394 99.0094 51.7366 99.0281 57.8383C99.0469 63.6399 98.5976 69.4883 97.6927 75.2211C97.6522 75.468 97.6023 75.7212 97.5523 75.9744C97.4993 76.2401 97.4431 76.5121 97.4026 76.7809C98.1015 76.0432 99.0156 75.5618 99.9891 75.4399C100.579 75.3649 101.037 75.4649 101.356 75.7337C101.711 76.0338 101.88 76.5246 101.867 77.231C101.855 78.025 101.621 78.6502 101.371 79.3128C101.303 79.4941 101.234 79.6786 101.168 79.8692C101.427 79.7129 101.814 79.3347 101.967 79.1847C102.092 79.0628 102.201 78.9565 102.273 78.8971C102.847 78.4376 103.446 78 104.055 77.5936C105.299 76.759 106.622 76.0307 107.986 75.4274C108.735 75.0961 109.533 74.8147 110.317 74.9898C110.966 75.1367 111.452 75.5149 111.764 76.1151C112.426 77.3873 112.142 79.3785 111.565 80.782C108.473 88.3309 103.399 94.917 96.894 99.8277C96.869 99.8684 96.8285 99.8809 96.791 99.8809Z" fill="#8E97FD"/>
<path d="M81.7891 100.308C81.7205 100.311 81.655 100.265 81.6394 100.193C80.8188 96.7198 80.2572 93.1564 79.9701 89.5991C79.8921 88.6333 79.8172 87.4923 79.8578 86.342C79.9764 82.938 81.0746 79.537 83.0371 76.5018C84.853 73.6917 87.4302 71.2035 90.4848 69.2999C90.5534 69.2561 90.647 69.278 90.6907 69.3468C90.7344 69.4156 90.7125 69.5093 90.6439 69.5531C87.6237 71.4317 85.0808 73.8886 83.2899 76.6613C81.3585 79.6496 80.2759 83.0005 80.1604 86.3483C80.1199 87.4829 80.1948 88.6145 80.2728 89.571C80.5598 93.1126 81.1183 96.6636 81.9326 100.121C81.9514 100.202 81.9014 100.28 81.8234 100.299C81.8078 100.305 81.7985 100.308 81.7891 100.308Z" fill="#565D70"/>
<path d="M90.994 68.3247C91.1376 68.1965 91.3092 68.0996 91.4839 68.0184C92.0268 67.7589 92.657 67.5995 93.228 67.7871C93.2811 67.8027 93.331 67.8246 93.3715 67.8652C93.409 67.9027 93.4277 67.9558 93.4371 68.0059C93.4714 68.2028 93.3653 68.3935 93.2498 68.5529C92.8973 69.0311 92.3793 69.3719 91.8146 69.5344C91.4901 69.6282 90.3326 69.8657 90.4699 69.2531C90.5416 68.9124 90.7319 68.556 90.994 68.3247Z" fill="#565D70"/>
<path d="M88.423 71.7853C89.1032 71.7197 89.7896 71.7635 90.4698 71.8166C90.9035 71.851 91.3371 71.8916 91.7708 71.9354C91.8582 71.9448 91.9643 71.9729 91.9799 72.0573C91.9986 72.1511 91.8863 72.2136 91.7989 72.2542C91.1936 72.5262 90.8223 73.1482 90.2701 73.5171C89.8707 73.7828 89.3933 73.9047 88.916 73.9703C88.5166 74.0234 88.111 74.0391 87.7085 74.0172C87.3809 73.9984 87.0408 73.9484 86.7725 73.7609C86.501 73.5702 86.3357 73.2389 86.3294 72.9075C86.3232 72.4949 86.6445 72.248 86.9971 72.1136C87.4526 71.9354 87.9425 71.8291 88.423 71.7853Z" fill="#565D70"/>
<path d="M84.2076 77.49C84.8878 77.4244 85.5742 77.4681 86.2544 77.5213C86.688 77.5557 87.1217 77.5963 87.5554 77.6401C87.6428 77.6494 87.7489 77.6744 87.7645 77.762C87.7832 77.8557 87.6709 77.9183 87.5835 77.9589C86.9782 78.2308 86.6069 78.8529 86.0547 79.2217C85.6553 79.4874 85.1779 79.6093 84.7006 79.675C84.3012 79.7281 83.8956 79.7438 83.4931 79.7219C83.1655 79.7031 82.8254 79.6531 82.5571 79.4656C82.2856 79.2749 82.1203 78.9435 82.114 78.6122C82.1078 78.1996 82.4292 77.9526 82.7817 77.8182C83.2373 77.6432 83.724 77.5369 84.2076 77.49Z" fill="#565D70"/>
<path d="M81.9581 82.8322C82.5821 82.5571 83.2498 82.382 83.9113 82.2195C84.3356 82.1163 84.76 82.0163 85.1843 81.9225C85.2685 81.9038 85.3777 81.8975 85.4214 81.9726C85.4682 82.0569 85.384 82.1507 85.3122 82.2132C84.8224 82.6634 84.6664 83.3698 84.2576 83.8918C83.9612 84.27 83.5462 84.5357 83.1157 84.7452C82.7537 84.9202 82.3731 85.064 81.9831 85.1672C81.668 85.2516 81.3279 85.3109 81.0127 85.2172C80.6945 85.1203 80.4355 84.8608 80.3232 84.5451C80.1859 84.1575 80.4137 83.8199 80.707 83.5824C81.0845 83.2792 81.5151 83.026 81.9581 82.8322Z" fill="#565D70"/>
<path d="M81.6866 89.3899C82.2825 89.0523 82.9253 88.8148 83.5711 88.5866C83.983 88.4428 84.3948 88.3021 84.8098 88.1677C84.8909 88.1396 85.0001 88.1209 85.05 88.1927C85.1031 88.2709 85.0282 88.374 84.9658 88.4459C84.5228 88.9398 84.4354 89.6619 84.0797 90.2214C83.8239 90.6278 83.4339 90.9341 83.0251 91.1842C82.6819 91.3967 82.3169 91.5749 81.9393 91.7156C81.6336 91.8312 81.3028 91.925 80.9815 91.8593C80.657 91.7937 80.3699 91.5624 80.2295 91.2592C80.0548 90.8841 80.2483 90.5277 80.5166 90.262C80.8629 89.9213 81.2654 89.6275 81.6866 89.3899Z" fill="#565D70"/>
<path d="M85.0599 72.5694C85.0599 72.1787 85.0474 71.7848 84.9788 71.4004C84.9257 71.094 84.8383 70.7908 84.7479 70.4939C84.4577 69.5249 84.1239 68.5215 83.4094 67.8056C83.3875 67.7838 83.3626 67.7588 83.3314 67.7494C83.2534 67.7212 83.1691 67.7838 83.1379 67.8619C83.1067 67.9369 83.113 68.0245 83.1098 68.1057C83.1036 68.287 83.0474 68.4621 82.9913 68.634C82.8446 69.0904 82.698 69.5499 82.5513 70.0062C82.3298 70.6939 82.1083 71.391 82.0584 72.1131C82.0085 72.8351 82.1457 73.5947 82.5857 74.1667C82.7323 74.3574 82.9101 74.5262 83.1005 74.6731C83.2814 74.8138 83.4811 74.942 83.7026 74.992C84.0022 75.0607 84.3298 74.9763 84.5607 74.7732C84.8259 74.5419 84.9195 74.1636 84.9569 73.826C85.0099 73.4072 85.0567 72.9914 85.0599 72.5694Z" fill="#565D70"/>
<path d="M81.3964 76.9335C81.2342 76.5771 81.0595 76.2239 80.8379 75.902C80.6601 75.6456 80.4573 75.4081 80.2514 75.1736C79.5868 74.4109 78.8661 73.6389 77.9207 73.2856C77.8895 73.2731 77.8583 73.2638 77.8271 73.2669C77.746 73.2731 77.6929 73.3669 77.696 73.4482C77.6992 73.5294 77.7397 73.6076 77.7709 73.6826C77.8396 73.8514 77.8614 74.0327 77.8832 74.2109C77.9394 74.6891 77.9956 75.1643 78.0517 75.6425C78.136 76.3615 78.2233 77.0867 78.476 77.7618C78.7288 78.4402 79.1718 79.0716 79.8083 79.4123C80.0205 79.5248 80.2514 79.603 80.4885 79.6592C80.71 79.7124 80.944 79.7468 81.1687 79.6999C81.4682 79.6374 81.7334 79.4248 81.8613 79.1435C82.008 78.8215 81.9331 78.4402 81.8301 78.1182C81.6991 77.715 81.568 77.3148 81.3964 76.9335Z" fill="#565D70"/>
<path d="M78.2515 83.2724C77.8989 83.1036 77.537 82.9505 77.1594 82.8473C76.8599 82.766 76.551 82.716 76.2421 82.6691C75.2437 82.516 74.1954 82.3909 73.2438 82.7317C73.2126 82.7442 73.1814 82.7535 73.1595 82.7785C73.1002 82.8379 73.1221 82.9411 73.1751 83.0036C73.2313 83.0661 73.3093 83.0942 73.3842 83.1349C73.5433 83.2193 73.6774 83.3443 73.8085 83.4662C74.1579 83.7944 74.5074 84.1227 74.86 84.4509C75.3872 84.9448 75.9208 85.4449 76.551 85.7981C77.1813 86.1513 77.9239 86.3514 78.629 86.1982C78.8661 86.1482 79.0908 86.0576 79.3061 85.9482C79.512 85.845 79.7085 85.72 79.8521 85.5387C80.0424 85.298 80.1048 84.9635 80.0237 84.6665C79.927 84.3258 79.6274 84.082 79.3404 83.9007C78.9878 83.6788 78.6321 83.4537 78.2515 83.2724Z" fill="#565D70"/>
<path d="M78.4759 89.8056C78.1233 89.6369 77.7614 89.4837 77.3839 89.3805C77.0844 89.2993 76.7755 89.2492 76.4666 89.2024C75.4682 89.0492 74.4198 88.9242 73.4682 89.2649C73.437 89.2774 73.4058 89.2868 73.3839 89.3118C73.3247 89.3712 73.3465 89.4743 73.3995 89.5368C73.4557 89.5993 73.5337 89.6275 73.6086 89.6681C73.7677 89.7525 73.9019 89.8776 74.0329 89.9995C74.3824 90.3277 74.7318 90.6559 75.0844 90.9841C75.6117 91.478 76.1452 91.9781 76.7755 92.3313C77.4057 92.6846 78.1483 92.8846 78.8534 92.7315C79.0906 92.6814 79.3152 92.5908 79.5305 92.4814C79.7364 92.3782 79.933 92.2532 80.0765 92.0719C80.2668 91.8312 80.3292 91.4967 80.2481 91.1998C80.1514 90.8591 79.8519 90.6152 79.5648 90.4339C79.2091 90.2089 78.8534 89.9869 78.4759 89.8056Z" fill="#565D70"/>
<path d="M76.7325 85.5603C77.0476 84.113 78.0461 82.4001 79.5 82.6751C80.5234 82.8689 81.0788 83.9786 81.3814 84.9789C82.046 87.1607 82.255 89.4832 81.9929 91.7495C82.0429 88.7674 82.8603 85.8041 84.3486 83.2222C84.8228 82.3969 85.4905 81.5342 86.4359 81.4498C87.4312 81.3592 88.308 82.2344 88.5794 83.1972C88.8509 84.1631 88.6668 85.1883 88.4796 86.173C89.0443 80.4433 90.2986 74.0885 95.013 70.7969C95.9646 70.1311 97.0723 69.6154 98.2329 69.6154C99.3936 69.6154 100.604 70.2343 101.05 71.3096C101.294 71.8941 101.297 72.5474 101.253 73.1788C100.882 78.4678 97.5465 83.0503 94.0333 87.0201C94.8726 86.6481 95.7431 86.2699 96.6604 86.2574C97.5777 86.2449 98.5668 86.695 98.9037 87.5515C99.3187 88.608 98.6042 89.7896 97.715 90.496C96.8289 91.2025 95.7431 91.662 94.9724 92.4966C96.5886 92.1183 98.7197 91.9558 99.4841 93.4343C99.821 94.0907 99.7493 94.8784 99.5964 95.6005C98.676 99.886 94.9288 103.409 90.6012 104.059C80.7761 105.528 74.9135 93.9001 76.7325 85.5603Z" fill="#F2EDE4"/>
<path d="M84.7072 102.209C84.6978 102.209 84.6885 102.209 84.6791 102.206C84.623 102.19 84.5918 102.131 84.6074 102.077C84.676 101.84 91.4934 78.2804 99.3123 71.4254C99.356 71.3879 99.4215 71.391 99.4589 71.4348C99.4964 71.4786 99.4932 71.5442 99.4496 71.5817C91.6774 78.3992 84.8757 101.896 84.8102 102.134C84.7946 102.181 84.7509 102.209 84.7072 102.209Z" fill="#D9C9AC"/>
<path d="M85.378 100.005C85.3531 100.005 85.3312 99.9989 85.3125 99.9802C78.0209 94.0254 78.829 85.4544 78.8352 85.37C78.8415 85.3137 78.8945 85.27 78.9507 85.2762C79.0068 85.2825 79.0505 85.3325 79.0443 85.3919C79.0349 85.4763 78.2424 93.9379 85.4435 99.8176C85.4872 99.8551 85.4966 99.9208 85.4592 99.9645C85.4373 99.9927 85.4061 100.005 85.378 100.005Z" fill="#D9C9AC"/>
<path d="M87.275 94.335C87.2345 94.335 87.1939 94.31 87.1783 94.2725C85.2314 89.6494 86.4264 82.9945 86.4388 82.9288C86.4482 82.8726 86.5012 82.8319 86.5605 82.8444C86.6167 82.8538 86.6541 82.9101 86.6448 82.9663C86.6323 83.032 85.4498 89.6244 87.3717 94.1912C87.3936 94.2444 87.3686 94.3069 87.3156 94.3288C87.3031 94.3319 87.2906 94.335 87.275 94.335Z" fill="#D9C9AC"/>
<path d="M85.7863 101.137C85.3152 101.137 85.0406 101.112 85.025 101.112C84.9688 101.105 84.9252 101.055 84.9314 100.996C84.9376 100.94 84.9876 100.893 85.0468 100.902C85.1311 100.911 93.5178 101.643 97.758 94.5941C97.7892 94.5441 97.8516 94.5285 97.9015 94.5598C97.9515 94.591 97.9671 94.6535 97.9359 94.7035C94.3852 100.605 87.9828 101.137 85.7863 101.137Z" fill="#D9C9AC"/>
<path d="M88.4234 91.2154C88.3672 91.2154 88.3204 91.1716 88.3173 91.1153C88.3142 91.0591 88.361 91.0091 88.4171 91.0059C88.467 91.0028 93.4436 90.809 96.8881 87.8269C96.9318 87.7894 96.9973 87.7925 97.0348 87.8363C97.0722 87.8801 97.0691 87.9457 97.0254 87.9832C93.5247 91.0153 88.4764 91.2122 88.4265 91.2154C88.4234 91.2154 88.4234 91.2154 88.4234 91.2154Z" fill="#D9C9AC"/>
<path d="M93.0436 80.6594C92.9906 80.6594 92.9438 80.6187 92.9375 80.5625C92.9344 80.525 92.6879 76.7614 94.4664 73.6575C94.4945 73.6075 94.56 73.5918 94.6099 73.62C94.6598 73.6481 94.6786 73.7137 94.6474 73.7637C92.9001 76.8083 93.1435 80.5124 93.1466 80.55C93.1497 80.6062 93.106 80.6594 93.0499 80.6625C93.0499 80.6594 93.0467 80.6594 93.0436 80.6594Z" fill="#D9C9AC"/>
<path d="M95.3992 76.5174C95.3555 76.5174 95.3118 76.4892 95.2993 76.4455C95.2806 76.3892 95.3118 76.3298 95.368 76.3142C95.4054 76.3017 99.0372 75.1514 100.098 73.8667C100.135 73.8229 100.201 73.8167 100.245 73.8542C100.288 73.8917 100.295 73.9573 100.257 74.0011C99.1558 75.3327 95.5802 76.4674 95.4273 76.5143C95.421 76.5143 95.4117 76.5174 95.3992 76.5174Z" fill="#D9C9AC"/>
<path d="M91.6552 84.4286C91.39 84.4286 91.2371 84.3848 91.2153 84.3786C91.1591 84.3598 91.131 84.3036 91.1466 84.2473C91.1654 84.191 91.2215 84.1598 91.2777 84.1785C91.2933 84.1817 92.8471 84.6224 95.0873 82.3374C95.1279 82.2968 95.1934 82.2936 95.234 82.3374C95.2745 82.378 95.2745 82.4437 95.234 82.4843C93.5834 84.1692 92.2948 84.4286 91.6552 84.4286Z" fill="#D9C9AC"/>
<path d="M86.0954 89.9773C85.6742 89.9773 84.6633 89.7554 84.0144 87.7892C83.9956 87.733 84.0268 87.6736 84.0799 87.6579C84.136 87.6392 84.1953 87.6705 84.2109 87.7236C84.9691 90.0148 86.189 89.7679 86.239 89.7554C86.2951 89.7398 86.3513 89.7773 86.3638 89.8335C86.3762 89.8898 86.3419 89.9461 86.2858 89.9586C86.2764 89.9617 86.2078 89.9773 86.0954 89.9773Z" fill="#D9C9AC"/>
<path d="M80.8913 94.5004C80.8881 94.5004 80.8881 94.5004 80.885 94.5004C80.8133 94.4941 79.0847 94.3597 78.0021 92.1185C77.9771 92.0653 77.9989 92.0028 78.052 91.9778C78.1019 91.9528 78.1674 91.9747 78.1924 92.0278C79.222 94.1596 80.8819 94.2878 80.8975 94.2909C80.9537 94.2941 81.0005 94.3441 80.9942 94.4035C80.9942 94.4566 80.9474 94.5004 80.8913 94.5004Z" fill="#D9C9AC"/>
<path d="M82.7009 97.2947C82.679 97.2947 82.6572 97.2885 82.6385 97.2728C82.5917 97.2384 82.5854 97.1728 82.6197 97.1259C82.6291 97.1134 83.6088 95.7818 82.7945 92.2871C82.782 92.2308 82.8163 92.1746 82.8725 92.1621C82.9286 92.1496 82.9848 92.184 82.9973 92.2402C83.8366 95.8474 82.8257 97.2009 82.782 97.2541C82.7601 97.2822 82.7321 97.2947 82.7009 97.2947Z" fill="#D9C9AC"/>
<path d="M89.45 100.718C89.4407 100.718 89.4313 100.718 89.4251 100.714C89.3689 100.699 89.3346 100.642 89.3502 100.586C89.4032 100.38 90.6825 95.4942 93.0506 94.3658C93.1037 94.3408 93.1661 94.3627 93.191 94.4158C93.216 94.4689 93.1941 94.5315 93.1411 94.5565C90.8634 95.6443 89.5686 100.589 89.5561 100.639C89.5405 100.686 89.4968 100.718 89.45 100.718Z" fill="#D9C9AC"/>
<path d="M94.6636 99.9679C94.492 99.9679 94.3329 99.9397 94.1893 99.8804C93.5965 99.6428 93.4655 99.0145 93.4592 98.9863C93.4468 98.9301 93.4842 98.8738 93.5404 98.8644C93.5996 98.8519 93.6527 98.8894 93.6652 98.9457C93.6652 98.952 93.7806 99.4927 94.2705 99.6865C94.779 99.8866 95.5341 99.6522 96.4576 98.9988C96.5044 98.9645 96.57 98.977 96.6043 99.0239C96.6386 99.0707 96.6261 99.1364 96.5793 99.1708C95.8243 99.6991 95.1847 99.9679 94.6636 99.9679Z" fill="#D9C9AC"/>
<rect x="54.1064" y="31.4787" width="5.90212" height="14.7553" rx="2.93028" fill="#FDFFFC"/>
<rect x="44.2696" y="36.3901" width="5.90212" height="14.7553" rx="2.93028" transform="rotate(-41.7192 44.2696 36.3901)" fill="#FDFFFC"/>
<rect x="65.2328" y="32.462" width="5.90212" height="14.7553" rx="2.93028" transform="rotate(43.4252 65.2328 32.462)" fill="#FDFFFC"/>
<path d="M24.1398 69.7291C21.5782 69.7291 19.0478 68.4007 16.6079 65.7718C16.4113 65.5593 16.4238 65.2279 16.636 65.031C16.8482 64.8341 17.1789 64.8466 17.3754 65.0591C19.7592 67.6286 22.196 68.8414 24.6109 68.6632C28.4049 68.3819 30.9353 64.7528 30.9602 64.7153C31.1256 64.4777 31.4501 64.4152 31.6872 64.5809C31.9244 64.7434 31.9868 65.0716 31.8214 65.3092C31.7059 65.4749 28.9759 69.3915 24.6858 69.7104C24.5048 69.7198 24.3207 69.7291 24.1398 69.7291Z" fill="#E9F2DE"/>
<path d="M15.2543 66.8315C15.1731 66.8315 15.092 66.8284 15.0109 66.819C14.7176 66.7846 14.4649 66.694 14.2621 66.5502C13.6225 66.0907 13.5881 65.2155 13.8845 64.6247C14.0125 64.3652 14.3276 64.259 14.5866 64.3902C14.8455 64.5184 14.9485 64.8341 14.8206 65.0936C14.7114 65.3124 14.7363 65.5999 14.8736 65.7C14.9298 65.7406 15.0171 65.7656 15.1295 65.7812C15.4695 65.8188 15.8221 65.7062 16.0748 65.4749C16.3276 65.2436 16.4742 64.9029 16.4711 64.5622C16.468 64.4528 16.4524 64.359 16.4212 64.2871C16.3556 64.1339 16.1965 64.0089 16.0124 63.9683C15.8221 63.9276 15.5943 63.9745 15.4103 64.0964C15.1669 64.2527 14.8424 64.1839 14.6864 63.9432C14.5304 63.6994 14.599 63.3743 14.8393 63.2181C15.2574 62.9461 15.7628 62.8429 16.2277 62.943C16.7425 63.0524 17.1856 63.4119 17.3853 63.8807C17.4695 64.0777 17.5132 64.3027 17.5163 64.5465C17.5257 65.1842 17.2511 65.8219 16.78 66.2532C16.365 66.6221 15.8096 66.8315 15.2543 66.8315Z" fill="#E9F2DE"/>
<path d="M15.8719 69.1942C15.6504 69.1942 15.4445 69.0535 15.3727 68.8285C14.6926 66.6904 16.2089 65.3025 16.2744 65.2431C16.4897 65.0493 16.8204 65.0712 17.0139 65.2869C17.2042 65.5026 17.1886 65.8308 16.9733 66.0246C16.9265 66.0684 15.9 67.0311 16.368 68.5096C16.4554 68.7847 16.3025 69.0817 16.0279 69.1692C15.978 69.1879 15.925 69.1942 15.8719 69.1942Z" fill="#E9F2DE"/>
<path d="M14.5141 69.4882C14.3113 69.4882 14.1179 69.3694 14.0336 69.1724C13.4284 67.7658 14.4237 66.1029 14.4673 66.0341C14.6171 65.7872 14.9385 65.709 15.1881 65.859C15.4346 66.0091 15.5126 66.3311 15.3628 66.578C15.1506 66.9281 14.6733 68.0034 14.9978 68.7567C15.1132 69.0224 14.9915 69.3319 14.7232 69.4444C14.6545 69.4756 14.5828 69.4882 14.5141 69.4882Z" fill="#E9F2DE"/>
<path d="M86.8416 50.2735C75.394 33.2846 57.5191 46.1412 57.5191 46.1412C57.5191 46.1412 40.8548 31.7435 27.9471 47.651C15.0393 63.5553 36.3369 88.5183 55.5784 89.8467C74.8636 90.2344 98.2892 67.2656 86.8416 50.2735Z" fill="#93BFA8"/>
<path d="M86.8411 50.2738C80.523 40.8962 72.2485 40.6118 66.102 42.2403C70.8632 44.1627 84.4917 50.9333 82.4512 64.9058C80.9286 75.343 69.5996 84.1454 61.1691 89.3437C79.0097 85.9115 97.1966 65.6467 86.8411 50.2738Z" fill="#80B996"/>
<path d="M57.5188 46.1446C57.5188 46.1446 48.4269 38.2924 38.4738 40.5962C48.5423 42.8405 54.224 47.9732 54.224 47.9732C55.6529 47.0761 57.5188 46.1446 57.5188 46.1446Z" fill="#80B996"/>
<path d="M33.6217 44.8442C31.6685 46.0883 30.0991 48.0544 29.7029 50.3394C29.6499 50.6395 29.6186 50.9552 29.7185 51.2428C29.8807 51.7117 30.3706 52.0086 30.8636 52.0711C31.3565 52.1337 31.8495 52.0055 32.3206 51.8492C34.642 51.0771 36.7324 49.6142 39.138 49.1735C40.3954 48.9422 41.7058 48.9984 42.9195 48.5983C44.1332 48.2013 45.2845 47.1417 45.2034 45.8663C45.063 43.6657 42.0334 43.0875 40.2955 42.8874C38.1052 42.6373 35.4376 43.6876 33.6217 44.8442Z" fill="#66A986"/>
<path d="M60.2774 46.8101C60.2118 47.0289 60.1682 47.2664 60.2337 47.4853C60.3678 47.926 60.8827 48.1198 61.3351 48.1979C62.4552 48.3917 63.6283 48.2667 64.6798 47.8447C65.3412 47.579 65.9684 47.1852 66.4114 46.6256C67.1571 45.6816 67.335 43.5217 65.7905 43.2435C64.6049 43.0278 62.7578 44.0031 61.853 44.672C61.1385 45.2034 60.5394 45.938 60.2774 46.8101Z" fill="#66A986"/>
<path d="M56.9479 47.3669C56.7731 47.667 56.7575 48.0765 56.976 48.3453C57.1632 48.5766 57.4783 48.6641 57.7716 48.7204C58.0711 48.7767 58.3956 48.811 58.6639 48.6641C58.8074 48.586 58.9198 48.4641 59.0165 48.3328C59.2786 47.9889 59.4658 47.5138 59.2661 47.1293C59.1413 46.8918 58.8917 46.7386 58.6296 46.6761C57.9869 46.5167 57.2942 46.7792 56.9479 47.3669Z" fill="#66A986"/>
<path d="M46.3209 57.063C46.402 57.4881 46.4208 57.8851 46.4083 58.3071C46.3864 58.7228 46.324 59.148 46.1649 59.5637C46.012 59.9794 45.7406 60.3889 45.3475 60.6703C44.9606 60.9578 44.4894 61.0891 44.0433 61.1173C43.8155 61.1329 43.5784 61.111 43.3412 61.0547C43.1041 60.9922 42.8701 60.8797 42.6736 60.7234C42.2711 60.4077 42.0527 59.9638 41.9372 59.5449C41.7094 58.6947 41.7438 57.882 41.8811 57.063C41.9123 56.8786 42.087 56.7536 42.2711 56.7848C42.4458 56.8161 42.5675 56.9755 42.5519 57.1505L42.5487 57.1724C42.5144 57.5225 42.5019 57.907 42.5238 58.2665C42.5456 58.6291 42.5924 58.9885 42.6985 59.3105C42.8046 59.6293 42.9575 59.9107 43.179 60.0732C43.2882 60.1545 43.4099 60.2139 43.5472 60.2483C43.6876 60.2764 43.8373 60.292 43.9996 60.2795C44.3241 60.2608 44.633 60.1732 44.8701 60.0013C45.1166 59.8325 45.2944 59.57 45.4255 59.2667C45.5565 58.9604 45.6251 58.6103 45.6595 58.254C45.6969 57.9008 45.6907 57.5194 45.6595 57.1756L45.6564 57.1568C45.6376 56.9693 45.7749 56.8036 45.9621 56.7879C46.1337 56.7723 46.2897 56.8942 46.3209 57.063Z" fill="#3F4553"/>
<path d="M61.6965 57.1757C61.6653 57.5195 61.6591 57.9009 61.6965 58.2541C61.7277 58.6104 61.7995 58.9605 61.9305 59.2669C62.0616 59.5732 62.2394 59.8326 62.4859 60.0014C62.7262 60.1765 63.0319 60.264 63.3564 60.2796C63.5155 60.2921 63.6684 60.2765 63.8088 60.2484C63.9461 60.214 64.0678 60.1546 64.177 60.0733C64.3954 59.9108 64.5514 59.6295 64.6575 59.3106C64.7636 58.9918 64.8104 58.6292 64.8322 58.2666C64.8572 57.9071 64.8416 57.5226 64.8072 57.1725L64.8041 57.1507C64.7854 56.9631 64.9227 56.7974 65.1099 56.7818C65.2877 56.7662 65.4469 56.8912 65.4749 57.0631C65.6122 57.8821 65.6465 58.6917 65.4188 59.5451C65.3033 59.9639 65.0818 60.4078 64.6824 60.7235C64.4859 60.8798 64.2519 60.9923 64.0147 61.0549C63.7776 61.1111 63.5374 61.133 63.3127 61.1174C62.8697 61.0924 62.3986 60.9579 62.0085 60.6704C61.6185 60.389 61.344 59.9796 61.1911 59.5638C61.032 59.1481 60.9696 58.723 60.9477 58.3072C60.9352 57.8852 60.954 57.4883 61.0351 57.0631C61.0694 56.8787 61.2472 56.7568 61.4313 56.7912C61.6029 56.8224 61.7215 56.9819 61.7059 57.1538L61.6965 57.1757Z" fill="#3F4553"/>
<path d="M53.5098 63.1179C52.9357 63.1179 52.424 63.0428 51.9966 62.9428C50.6518 62.624 49.825 61.9957 49.7875 61.9675C49.6409 61.8519 49.6128 61.6393 49.7251 61.4924C49.8406 61.3455 50.0527 61.3174 50.1994 61.4299C50.3211 61.5237 53.2321 63.6899 56.9762 61.408C57.1353 61.3111 57.3444 61.3611 57.4411 61.5205C57.5378 61.68 57.4879 61.8894 57.3288 61.9863C55.9122 62.849 54.5956 63.1179 53.5098 63.1179Z" fill="#3F4553"/>
<path d="M96.6634 73.099C95.9177 73.099 95.1814 73.0271 94.4482 72.8865C88.077 71.6518 84.5669 65.5282 84.4202 65.2688C84.2767 65.0156 84.3672 64.6968 84.6199 64.5561C84.8727 64.4154 85.1909 64.503 85.3313 64.7562C85.3656 64.8155 88.7603 70.7234 94.6541 71.8612C98.3451 72.5739 102.251 71.2923 106.276 68.0602C106.501 67.8789 106.832 67.9164 107.013 68.1414C107.194 68.3665 107.156 68.6978 106.932 68.8791C103.434 71.683 99.9894 73.099 96.6634 73.099Z" fill="#E9F2DE"/>
<path d="M108.292 70.1579C107.736 70.1579 107.181 69.9485 106.769 69.5734C106.298 69.1452 106.02 68.5075 106.03 67.8667C106.033 67.6198 106.08 67.3978 106.161 67.2009C106.357 66.732 106.8 66.3726 107.318 66.2632C107.783 66.1663 108.289 66.2663 108.707 66.5382C108.95 66.6945 109.019 67.0196 108.86 67.2634C108.7 67.5072 108.376 67.576 108.136 67.4166C107.952 67.2978 107.724 67.2478 107.534 67.2884C107.349 67.3259 107.19 67.451 107.125 67.6073C107.094 67.6792 107.078 67.7729 107.075 67.8823C107.069 68.2231 107.218 68.5638 107.471 68.7951C107.724 69.0264 108.08 69.1389 108.416 69.1014C108.529 69.0889 108.616 69.0608 108.672 69.0201C108.81 68.9232 108.835 68.6325 108.725 68.4137C108.597 68.1543 108.7 67.8386 108.959 67.7104C109.218 67.5791 109.533 67.6854 109.661 67.9449C109.955 68.5356 109.923 69.4109 109.284 69.8704C109.081 70.0173 108.828 70.1079 108.535 70.1392C108.454 70.1548 108.373 70.1579 108.292 70.1579Z" fill="#E9F2DE"/>
<path d="M107.674 72.5238C107.621 72.5238 107.568 72.5144 107.515 72.4988C107.241 72.4113 107.088 72.1143 107.175 71.8393C107.652 70.342 106.585 69.3667 106.573 69.3574C106.358 69.1636 106.339 68.8322 106.529 68.6165C106.719 68.4008 107.05 68.3821 107.269 68.5728C107.334 68.6322 108.85 70.0169 108.17 72.1581C108.102 72.38 107.896 72.5238 107.674 72.5238Z" fill="#E9F2DE"/>
<path d="M109.031 72.8173C108.962 72.8173 108.891 72.8048 108.825 72.7736C108.56 72.6579 108.438 72.3516 108.55 72.0828C108.875 71.3326 108.398 70.2573 108.185 69.9041C108.036 69.6571 108.114 69.3351 108.36 69.1851C108.607 69.0351 108.928 69.1132 109.078 69.3602C109.121 69.4289 110.117 71.0919 109.511 72.4985C109.424 72.6986 109.234 72.8173 109.031 72.8173Z" fill="#E9F2DE"/>
<path d="M49.5817 92.5721C49.198 92.5721 48.8173 92.5659 48.4367 92.5565C48.1465 92.5471 47.9187 92.3064 47.9281 92.0189C47.9375 91.7282 48.1746 91.5094 48.4648 91.5094C52.9577 91.6313 57.7345 91.0186 62.2804 89.737C62.9606 89.5463 63.75 89.2931 64.4582 88.8711C64.7703 88.6836 64.8545 88.5554 64.8701 88.4804C64.9013 88.3241 64.6735 88.0803 64.3678 87.9334C63.6564 87.5958 62.7984 87.5864 62.2149 87.6052C60.1681 87.6771 58.1651 88.2803 56.4178 89.3556C56.1713 89.5057 55.85 89.4307 55.6971 89.1837C55.5473 88.9368 55.6222 88.6148 55.8687 88.4616C57.7688 87.2926 59.9497 86.6362 62.1775 86.558C62.867 86.533 63.8935 86.5518 64.8108 86.9862C65.4067 87.2676 66.0495 87.8802 65.8935 88.6773C65.7843 89.24 65.3256 89.5713 64.9918 89.7714C64.1743 90.259 63.2633 90.5497 62.5612 90.7466C58.2992 91.947 53.8344 92.5721 49.5817 92.5721Z" fill="#E9F2DE"/>
<path d="M61.2568 92.588C57.001 92.588 52.6485 91.969 48.3022 90.7468C47.6002 90.5499 46.6892 90.2592 45.8717 89.7716C45.5379 89.5715 45.0792 89.2402 44.97 88.6775C44.8171 87.8804 45.4567 87.2678 46.0527 86.9864C46.97 86.5519 47.9965 86.5332 48.686 86.5582C50.9137 86.6363 53.0947 87.2928 54.9948 88.4618C55.2413 88.6119 55.3193 88.937 55.1664 89.1839C55.0166 89.4308 54.6922 89.509 54.4457 89.3558C52.6984 88.2837 50.6953 87.6772 48.6486 87.6054C48.0682 87.5866 47.2102 87.596 46.4988 87.9336C46.19 88.0805 45.9653 88.3243 45.9965 88.4775C46.0121 88.5525 46.0932 88.6838 46.4052 88.8682C47.1135 89.2902 47.9029 89.5434 48.5831 89.7341C53.2288 91.0407 57.8778 91.6471 62.3987 91.522C62.692 91.5252 62.9292 91.744 62.9354 92.0316C62.9416 92.3223 62.7139 92.5629 62.4268 92.5692C62.0399 92.5817 61.6468 92.588 61.2568 92.588Z" fill="#E9F2DE"/>
<path d="M61.3755 93.3255C61.2756 93.5599 61.1883 93.8037 61.1852 94.0569C61.1789 94.3101 61.2694 94.5789 61.466 94.7352C61.7374 94.9541 62.1555 94.9103 62.4394 94.704C62.7234 94.4977 62.8887 94.1695 62.9886 93.835C63.1633 93.2598 63.1695 92.6347 63.0104 92.0564C62.9574 91.8657 62.8513 91.6125 62.6235 91.5812C62.4113 91.55 62.3053 91.7438 62.2023 91.8969C61.8903 92.3564 61.5939 92.816 61.3755 93.3255Z" fill="#E9F2DE"/>
<path d="M49.5191 93.3255C49.6189 93.5599 49.7063 93.8037 49.7094 94.0569C49.7156 94.3101 49.6252 94.5789 49.4286 94.7352C49.1571 94.9541 48.7391 94.9103 48.4551 94.704C48.1712 94.4977 48.0058 94.1695 47.906 93.835C47.7313 93.2598 47.725 92.6347 47.8842 92.0564C47.9372 91.8657 48.0433 91.6125 48.271 91.5812C48.4832 91.55 48.5893 91.7438 48.6923 91.8969C49.0043 92.3564 49.3007 92.816 49.5191 93.3255Z" fill="#E9F2DE"/>
<path d="M56.0802 105.995C65.1216 105.995 72.4512 105.097 72.4512 103.991C72.4512 102.884 65.1216 101.987 56.0802 101.987C47.0387 101.987 39.7091 102.884 39.7091 103.991C39.7091 105.097 47.0387 105.995 56.0802 105.995Z" fill="#808AFF"/>
<path d="M34.7857 101.88C34.8543 101.883 34.9199 101.836 34.9355 101.765C35.756 98.2918 36.3177 94.7283 36.6047 91.1711C36.6827 90.2052 36.7576 89.0643 36.717 87.914C36.5985 84.5099 35.5002 81.109 33.5377 78.0738C31.7218 75.2637 29.1446 72.7755 26.09 70.8718C26.0214 70.8281 25.9278 70.85 25.8841 70.9187C25.8404 70.9875 25.8623 71.0813 25.9309 71.125C28.9512 73.0037 31.494 75.4606 33.2849 78.2332C35.2163 81.2215 36.2989 84.5724 36.4144 87.9202C36.4549 89.0549 36.3801 90.1864 36.3021 91.1429C36.015 94.6845 35.4565 98.2355 34.6422 101.693C34.6235 101.774 34.6734 101.852 34.7514 101.871C34.767 101.877 34.7763 101.88 34.7857 101.88Z" fill="#565D70"/>
<path d="M25.5817 69.8967C25.4381 69.7685 25.2665 69.6716 25.0918 69.5904C24.5489 69.3309 23.9187 69.1715 23.3477 69.359C23.2946 69.3747 23.2447 69.3965 23.2042 69.4372C23.1667 69.4747 23.148 69.5278 23.1386 69.5778C23.1043 69.7748 23.2104 69.9655 23.3258 70.1249C23.6784 70.6031 24.1963 70.9438 24.7611 71.1064C25.0856 71.2002 26.2431 71.4377 26.1058 70.8251C26.0372 70.4843 25.8437 70.128 25.5817 69.8967Z" fill="#565D70"/>
<path d="M28.1522 73.3573C27.4721 73.2916 26.7856 73.3354 26.1055 73.3886C25.6718 73.4229 25.2381 73.4636 24.8044 73.5073C24.717 73.5167 24.611 73.5448 24.5954 73.6292C24.5766 73.723 24.689 73.7855 24.7763 73.8262C25.3816 74.0981 25.7529 74.7202 26.3052 75.089C26.7045 75.3547 27.1819 75.4766 27.6593 75.5423C28.0586 75.5954 28.4642 75.611 28.8667 75.5891C29.1943 75.5704 29.5344 75.5204 29.8028 75.3328C30.0742 75.1421 30.2396 74.8108 30.2458 74.4795C30.252 74.0669 29.9307 73.8199 29.5781 73.6855C29.1226 73.5073 28.6359 73.4042 28.1522 73.3573Z" fill="#565D70"/>
<path d="M32.3705 79.0619C31.6903 78.9963 31.0039 79.0401 30.3237 79.0932C29.8901 79.1276 29.4564 79.1682 29.0227 79.212C28.9353 79.2214 28.8292 79.2495 28.8136 79.3339C28.7949 79.4277 28.9072 79.4902 28.9946 79.5308C29.5999 79.8028 29.9712 80.4248 30.5234 80.7937C30.9228 81.0593 31.4002 81.1813 31.8775 81.2469C32.2769 81.3 32.6825 81.3157 33.085 81.2938C33.4126 81.275 33.7527 81.225 34.021 81.0375C34.2925 80.8468 34.4579 80.5154 34.4641 80.1841C34.4703 79.7715 34.149 79.5246 33.7964 79.3902C33.3377 79.2151 32.851 79.1088 32.3705 79.0619Z" fill="#565D70"/>
<path d="M34.6169 84.4041C33.9928 84.129 33.3251 83.954 32.6637 83.7914C32.2394 83.6883 31.815 83.5914 31.3907 83.4945C31.3064 83.4757 31.1972 83.4695 31.1536 83.5445C31.1068 83.6289 31.191 83.7227 31.2628 83.7852C31.7526 84.2353 31.9086 84.9417 32.3174 85.4638C32.6138 85.842 33.0287 86.1077 33.4593 86.3171C33.8212 86.4922 34.2019 86.6359 34.5919 86.7391C34.907 86.8235 35.2471 86.8829 35.5622 86.7891C35.8805 86.6922 36.1394 86.4328 36.2518 86.1171C36.3891 85.7294 36.1613 85.3919 35.868 85.1543C35.4905 84.8511 35.0599 84.5979 34.6169 84.4041Z" fill="#565D70"/>
<path d="M34.8886 90.9619C34.2927 90.6243 33.65 90.3867 33.0041 90.1585C32.5923 90.0148 32.1804 89.8741 31.7655 89.7397C31.6843 89.7116 31.5751 89.6928 31.5252 89.7647C31.4722 89.8428 31.547 89.946 31.6094 90.0179C32.0525 90.5118 32.1399 91.2338 32.4955 91.7934C32.7514 92.1997 33.1414 92.506 33.5501 92.7561C33.8933 92.9687 34.2584 93.1468 34.6359 93.2875C34.9417 93.4032 35.2724 93.4969 35.5938 93.4313C35.9183 93.3656 36.2053 93.1343 36.3457 92.8311C36.5205 92.456 36.327 92.0997 36.0587 91.834C35.7124 91.4933 35.3099 91.1994 34.8886 90.9619Z" fill="#565D70"/>
<path d="M31.5159 74.1443C31.5159 73.7535 31.5284 73.3597 31.597 72.9752C31.65 72.6689 31.7374 72.3657 31.8279 72.0687C32.1181 71.0997 32.4519 70.0963 33.1664 69.3805C33.1882 69.3586 33.2132 69.3336 33.2444 69.3242C33.3224 69.2961 33.4066 69.3586 33.4378 69.4367C33.4691 69.5118 33.4628 69.5993 33.4659 69.6806C33.4722 69.8619 33.5283 70.0369 33.5845 70.2088C33.7311 70.6652 33.8778 71.1247 34.0244 71.5811C34.2459 72.2688 34.4675 72.9658 34.5174 73.6879C34.5673 74.41 34.43 75.1695 33.9901 75.7416C33.8435 75.9322 33.6656 76.101 33.4753 76.248C33.2943 76.3886 33.0946 76.5168 32.8731 76.5668C32.5736 76.6356 32.246 76.5512 32.0151 76.348C31.7499 76.1167 31.6563 75.7384 31.6188 75.4009C31.5658 74.982 31.519 74.5631 31.5159 74.1443Z" fill="#565D70"/>
<path d="M35.1787 78.5059C35.341 78.1496 35.5157 77.7964 35.7372 77.4744C35.9151 77.2181 36.1179 76.9805 36.3238 76.7461C36.9884 75.9834 37.7091 75.2113 38.6545 74.8581C38.6857 74.8456 38.7169 74.8362 38.7481 74.8393C38.8292 74.8456 38.8823 74.9393 38.8791 75.0206C38.876 75.1019 38.8355 75.18 38.8043 75.255C38.7356 75.4238 38.7138 75.6051 38.6919 75.7833C38.6358 76.2616 38.5796 76.7367 38.5235 77.215C38.4392 77.9339 38.3519 78.6591 38.0991 79.3343C37.8464 80.0126 37.4034 80.644 36.7669 80.9847C36.5547 81.0973 36.3238 81.1754 36.0867 81.2317C35.8652 81.2848 35.6312 81.3192 35.4065 81.2723C35.107 81.2098 34.8418 80.9972 34.7139 80.7159C34.5672 80.394 34.6421 80.0126 34.7451 79.6906C34.8792 79.2874 35.0071 78.8873 35.1787 78.5059Z" fill="#565D70"/>
<path d="M38.3242 84.8473C38.6768 84.6785 39.0387 84.5253 39.4162 84.4221C39.7158 84.3409 40.0246 84.2909 40.3335 84.244C41.332 84.0908 42.3803 83.9658 43.3319 84.3065C43.3631 84.3159 43.3943 84.3284 43.4162 84.3534C43.4754 84.4128 43.4536 84.5159 43.4006 84.5784C43.3444 84.641 43.2664 84.6722 43.1915 84.7097C43.0324 84.7941 42.8982 84.9192 42.7672 85.0411C42.4177 85.3693 42.0683 85.6975 41.7157 86.0257C41.1884 86.5196 40.6549 87.0197 40.0246 87.3729C39.3944 87.7262 38.6518 87.9262 37.9467 87.7731C37.7096 87.723 37.4849 87.6324 37.2696 87.523C37.0637 87.4198 36.8671 87.2948 36.7236 87.1135C36.5333 86.8728 36.4709 86.5383 36.552 86.2414C36.6487 85.9007 36.9483 85.6569 37.2353 85.4756C37.591 85.2505 37.9436 85.0254 38.3242 84.8473Z" fill="#565D70"/>
<path d="M38.1027 91.3776C38.4552 91.2088 38.8172 91.0556 39.1947 90.9525C39.4942 90.8712 39.8031 90.8212 40.112 90.7743C41.1104 90.6211 42.1588 90.4961 43.1104 90.8368C43.1416 90.8493 43.1728 90.8587 43.1946 90.8837C43.2539 90.9431 43.2321 91.0462 43.179 91.1088C43.1229 91.1713 43.0449 91.2025 42.97 91.2401C42.8109 91.3244 42.6767 91.4495 42.5457 91.5714C42.1962 91.8996 41.8468 92.2278 41.4942 92.556C40.9669 93.0499 40.4334 93.55 39.8031 93.9033C39.1729 94.2565 38.4303 94.4565 37.7252 94.3034C37.488 94.2534 37.2634 94.1627 37.0481 94.0533C36.8422 93.9501 36.6456 93.8251 36.5021 93.6438C36.3118 93.4031 36.2494 93.0687 36.3305 92.7717C36.4272 92.431 36.7267 92.1872 37.0138 92.0059C37.3663 91.7808 37.722 91.5589 38.1027 91.3776Z" fill="#565D70"/>
<path d="M45.7404 91.8402C45.756 91.7308 45.7685 91.6246 45.7747 91.5151C46.1086 86.6451 40.0993 89.3739 38.5798 91.5933C39.1165 90.5493 38.5986 89.1051 37.5253 88.6362C36.452 88.1705 35.0448 88.7832 34.6517 89.8866C34.9574 87.4047 35.2663 84.9227 35.5721 82.4408C35.7094 81.3311 35.7905 80.0495 34.998 79.2618C34.1088 78.3835 32.5175 78.6711 31.6377 79.5588C30.7578 80.4465 30.424 81.7313 30.2024 82.966C29.126 81.825 26.7953 82.7878 26.8359 84.357C26.97 81.1749 27.0855 77.8802 25.8874 74.9294C25.1198 73.0383 23.3164 71.169 21.3383 71.6567C19.5848 72.088 18.758 74.0886 18.4273 75.8672C17.666 79.9683 18.1527 84.2913 19.8095 88.1174C19.3352 87.0139 17.5131 87.2265 16.8953 88.2549C16.2776 89.2864 16.549 90.6149 17.0108 91.7246C15.8626 90.5524 14.3525 89.6459 12.7144 89.5834C11.0764 89.5209 9.34787 90.4805 8.8549 92.0434C8.35881 93.6095 9.50075 95.5787 11.1388 95.6288C10.0998 95.7507 9.53819 97.0416 9.8034 98.0544C11.1326 103.134 24.6019 103.853 28.658 103.45C34.7484 102.84 40.7109 99.8674 44.3114 94.9067C44.976 93.9877 45.5751 92.9593 45.7404 91.8402Z" fill="#F2EDE4"/>
<path d="M28.552 102.471C28.5208 102.471 28.4896 102.456 28.4678 102.428C25.1168 97.9264 23.4694 90.1274 22.6738 84.3821C21.8126 78.1617 21.744 72.9352 21.744 72.8821C21.744 72.8258 21.7908 72.7758 21.847 72.7758C21.9031 72.7758 21.9499 72.8227 21.953 72.879C21.9562 73.0853 22.2713 93.7471 28.6362 102.303C28.6706 102.349 28.6612 102.415 28.6144 102.449C28.5957 102.465 28.5738 102.471 28.552 102.471Z" fill="#D9C9AC"/>
<path d="M26.6891 101.558C19.2259 101.558 11.9748 97.2598 11.8999 97.2161C11.85 97.1879 11.8344 97.1223 11.8625 97.0723C11.8937 97.0222 11.9561 97.0066 12.006 97.0348C12.0871 97.0816 20.0839 101.82 27.8872 101.308C27.9434 101.308 27.9933 101.348 27.9995 101.405C28.0026 101.461 27.959 101.511 27.9028 101.517C27.5003 101.545 27.0947 101.558 26.6891 101.558Z" fill="#D9C9AC"/>
<path d="M25.7973 97.2293C25.7599 97.2293 25.7224 97.2074 25.7037 97.1699C25.6787 97.1168 25.7006 97.0543 25.7505 97.0293C33.3167 93.2532 33.5975 80.2153 33.5975 80.084C33.5975 80.0278 33.6474 79.9809 33.7036 79.9809C33.7597 79.9809 33.8065 80.0278 33.8065 80.0872C33.8034 80.2185 33.5226 93.3814 25.8441 97.2168C25.8285 97.2262 25.8129 97.2293 25.7973 97.2293Z" fill="#D9C9AC"/>
<path d="M26.2521 98.8112C17.2101 98.8112 11.1978 91.7749 11.1385 91.703C11.101 91.6592 11.1073 91.5936 11.151 91.5561C11.1946 91.5186 11.2602 91.5248 11.2976 91.5686C11.3569 91.6405 17.4067 98.708 26.4518 98.5986C26.508 98.5986 26.5548 98.6455 26.5579 98.7018C26.5579 98.758 26.5111 98.808 26.4549 98.808C26.3863 98.8112 26.3208 98.8112 26.2521 98.8112Z" fill="#D9C9AC"/>
<path d="M24.9049 94.6256C24.8956 94.6256 24.8893 94.6256 24.88 94.6224C19.5197 93.3283 18.2748 88.6802 18.2623 88.6364C18.2467 88.5802 18.281 88.5239 18.3372 88.5083C18.3933 88.4927 18.4495 88.527 18.4651 88.5833C18.4776 88.6302 19.6944 93.1533 24.9299 94.4193C24.986 94.4318 25.0204 94.488 25.0079 94.5443C24.9954 94.5912 24.9548 94.6256 24.9049 94.6256Z" fill="#D9C9AC"/>
<path d="M24.4299 92.9591C24.3925 92.9591 24.355 92.9372 24.3363 92.8997C24.3114 92.8465 24.3332 92.784 24.3831 92.759C27.2973 91.3117 28.9447 83.5847 28.9603 83.5065C28.9727 83.4502 29.0289 83.4127 29.0851 83.4252C29.1412 83.4377 29.1787 83.494 29.1662 83.5503C29.0975 83.8722 27.4813 91.4524 24.4767 92.9465C24.4611 92.9559 24.4455 92.9591 24.4299 92.9591Z" fill="#D9C9AC"/>
<path d="M22.6143 83.2405C22.5924 83.2405 22.5706 83.2343 22.5487 83.2186C20.4489 81.5901 19.5472 77.0263 19.5098 76.8325C19.4973 76.7763 19.5348 76.72 19.594 76.7106C19.6502 76.6981 19.7064 76.7356 19.7157 76.795C19.7251 76.8419 20.6393 81.4744 22.6767 83.053C22.7235 83.0873 22.7297 83.153 22.6954 83.1999C22.6767 83.228 22.6455 83.2405 22.6143 83.2405Z" fill="#D9C9AC"/>
<path d="M23.2885 87.7296C23.2729 87.7296 23.2573 87.7265 23.2417 87.7202C23.1887 87.6952 23.1669 87.6327 23.1918 87.5796C23.2168 87.5264 25.7347 82.2375 25.092 78.2239C25.0826 78.1676 25.1232 78.1145 25.1793 78.1051C25.2355 78.0957 25.2916 78.1332 25.2979 78.1926C25.95 82.2719 23.404 87.6202 23.379 87.6733C23.3665 87.7077 23.3291 87.7296 23.2885 87.7296Z" fill="#D9C9AC"/>
<path d="M27.2634 89.2394C27.226 89.2394 27.1885 89.2175 27.1698 89.18C27.1324 89.1049 26.2556 87.3013 26.2057 85.579C26.2026 85.5227 26.2494 85.4727 26.3087 85.4727C26.368 85.4727 26.4148 85.5165 26.4148 85.5759C26.4616 87.2545 27.3477 89.0737 27.357 89.0924C27.382 89.1456 27.3601 89.2081 27.3102 89.2331C27.2946 89.2362 27.279 89.2394 27.2634 89.2394Z" fill="#D9C9AC"/>
<path d="M19.5818 93.1345C19.067 93.1345 18.4835 93.0907 17.897 92.9532C17.8408 92.9407 17.8065 92.8844 17.819 92.8282C17.8314 92.7719 17.8907 92.7375 17.9438 92.75C19.6193 93.1376 21.3166 92.7531 21.3353 92.75C21.3915 92.7375 21.4476 92.7719 21.4601 92.8282C21.4726 92.8844 21.4383 92.9407 21.3821 92.9532C21.3353 92.9657 20.5834 93.1345 19.5818 93.1345Z" fill="#D9C9AC"/>
<path d="M18.8357 97.2288C18.7921 97.2288 18.7515 97.2038 18.7359 97.1601C18.7265 97.1382 17.8997 94.8657 17.179 93.7404C17.1478 93.6904 17.1603 93.6279 17.2102 93.5966C17.2601 93.5654 17.3225 93.581 17.3537 93.6279C18.0869 94.7719 18.8981 96.9944 18.9325 97.0882C18.9512 97.1413 18.9231 97.2038 18.8701 97.2226C18.8607 97.2288 18.8482 97.2288 18.8357 97.2288Z" fill="#D9C9AC"/>
<path d="M15.4009 98.9417C15.3697 98.9417 15.3385 98.9261 15.3167 98.9011C15.2824 98.8542 15.2886 98.7886 15.3354 98.7542C15.3385 98.751 15.7442 98.4291 15.8034 97.8946C15.8471 97.4882 15.6849 97.06 15.3198 96.6192C15.2824 96.5755 15.2886 96.5098 15.3323 96.4723C15.376 96.4348 15.4415 96.4411 15.479 96.4848C15.8814 96.9693 16.0624 97.4538 16.0094 97.9196C15.9407 98.5447 15.4821 98.9042 15.4634 98.9198C15.4478 98.9355 15.4228 98.9417 15.4009 98.9417Z" fill="#D9C9AC"/>
<path d="M11.8126 94.1564C11.3508 94.1564 10.8204 94.0626 10.2713 93.7782C10.2213 93.75 10.1995 93.6875 10.2276 93.6375C10.2557 93.5875 10.3181 93.5656 10.368 93.5937C11.8812 94.3783 13.2821 93.6031 13.2977 93.5969C13.3477 93.5687 13.4132 93.5875 13.4413 93.6375C13.4693 93.6875 13.4506 93.7531 13.4007 93.7813C13.3601 93.8 12.7112 94.1564 11.8126 94.1564Z" fill="#D9C9AC"/>
<path d="M30.7801 92.0808C30.7427 92.0808 30.7052 92.0589 30.6865 92.0214C30.674 91.9964 29.4634 89.4895 30.0625 86.945C30.075 86.8887 30.1342 86.8544 30.1873 86.8669C30.2434 86.8794 30.2778 86.9356 30.2653 86.9919C29.685 89.4676 30.8612 91.9057 30.8737 91.9308C30.8987 91.9839 30.8768 92.0464 30.8269 92.0714C30.8113 92.0777 30.7957 92.0808 30.7801 92.0808Z" fill="#D9C9AC"/>
<path d="M27.095 100.13C27.0544 100.13 27.017 100.108 27.0014 100.07C26.9764 100.017 26.9983 99.9548 27.0513 99.9329C27.1199 99.9017 33.8094 96.7289 36.7891 90.6117C36.814 90.5585 36.8764 90.5366 36.9295 90.5648C36.9825 90.5898 37.0043 90.6523 36.9763 90.7054C33.9654 96.8915 27.2073 100.092 27.1387 100.127C27.1262 100.127 27.1106 100.13 27.095 100.13Z" fill="#D9C9AC"/>
<path d="M28.2209 102.008C28.171 102.008 28.1273 101.971 28.118 101.921C28.1086 101.864 28.1492 101.811 28.2053 101.802C34.6327 100.783 43.9149 90.6864 44.0085 90.5864C44.046 90.5426 44.1146 90.5395 44.1552 90.5801C44.1988 90.6176 44.202 90.6864 44.1614 90.727C44.0678 90.8302 34.7357 100.98 28.2365 102.008C28.2303 102.008 28.2272 102.008 28.2209 102.008Z" fill="#D9C9AC"/>
<path d="M32.5365 96.3855C32.4803 96.3855 32.4335 96.3417 32.4304 96.2823C32.4304 96.2604 32.3774 94.0755 33.1917 91.9374C33.2136 91.8842 33.2728 91.8561 33.3259 91.878C33.3789 91.8999 33.407 91.9593 33.3852 92.0124C32.5833 94.1098 32.6363 96.2542 32.6363 96.276C32.6426 96.3354 32.5989 96.3823 32.5365 96.3855C32.5396 96.3855 32.5396 96.3855 32.5365 96.3855Z" fill="#D9C9AC"/>
<path d="M35.276 94.7661C34.6614 94.7661 34.2745 94.6286 34.2402 94.6161C34.1871 94.5973 34.1591 94.5348 34.1778 94.4817C34.1965 94.4285 34.2558 94.4004 34.3119 94.4191C34.3307 94.4254 36.0373 95.0193 38.0716 93.597C38.1184 93.5626 38.184 93.5752 38.2183 93.622C38.2526 93.6689 38.2401 93.7346 38.1933 93.769C37.042 94.5754 35.9999 94.7661 35.276 94.7661Z" fill="#D9C9AC"/>
<path d="M37.4443 98.3671C36.527 98.3671 36.1026 97.9608 36.0777 97.9358C36.0371 97.8951 36.0371 97.8295 36.0777 97.7857C36.1182 97.7451 36.1837 97.7451 36.2243 97.7857C36.2337 97.7951 37.1135 98.6203 39.1353 97.7639C39.1884 97.7389 39.2508 97.767 39.2726 97.8201C39.2945 97.8733 39.2695 97.9358 39.2165 97.9577C38.4957 98.264 37.906 98.3671 37.4443 98.3671Z" fill="#D9C9AC"/>
<path d="M31.9907 100.648C31.9345 100.648 31.8877 100.601 31.8846 100.545C31.8846 100.486 31.869 99.1042 32.8331 97.9883C32.8706 97.9445 32.9361 97.9414 32.9798 97.9789C33.0234 98.0164 33.0297 98.0821 32.9891 98.1258C32.0781 99.1792 32.0905 100.526 32.0905 100.542C32.0968 100.601 32.05 100.648 31.9907 100.648Z" fill="#D9C9AC"/>
<path d="M19.2104 53.3303C20.3992 53.3303 20.3992 51.4798 19.2104 51.4798C18.0217 51.4829 18.0217 53.3303 19.2104 53.3303Z" fill="#8E97FD"/>
<path d="M40.8355 21.1682C42.0243 21.1682 42.0243 19.3177 40.8355 19.3177C39.6468 19.3177 39.6436 21.1682 40.8355 21.1682Z" fill="#8E97FD"/>
<path d="M85.6742 39.6448C86.267 39.6448 86.2702 38.7195 85.6742 38.7195C85.0814 38.7195 85.0783 39.6448 85.6742 39.6448Z" fill="#8E97FD"/>
<path d="M36.0714 32.3681C36.6642 32.3681 36.6674 31.4429 36.0714 31.4429C35.4786 31.4429 35.4786 32.3681 36.0714 32.3681Z" fill="#8E97FD"/>
<path d="M94.5603 38.72C95.1532 38.72 95.1563 37.7947 94.5603 37.7947C93.9644 37.7947 93.9644 38.72 94.5603 38.72Z" fill="#8E97FD"/>
<path d="M115.568 61.5826C116.161 61.5826 116.164 60.6574 115.568 60.6574C114.972 60.6574 114.972 61.5826 115.568 61.5826Z" fill="white"/>
<path d="M34.6394 24.1657C35.2322 24.1657 35.2353 23.2404 34.6394 23.2404C34.0466 23.2404 34.0435 24.1657 34.6394 24.1657Z" fill="#59D6B8"/>
<path d="M56.8136 0.92525C57.4064 0.92525 57.4095 0 56.8136 0C56.2208 0 56.2208 0.92525 56.8136 0.92525Z" fill="#59D6B8"/>
<path d="M64.6977 8.19949C65.2905 8.19949 65.2936 7.27424 64.6977 7.27424C64.1017 7.27424 64.1017 8.19949 64.6977 8.19949Z" fill="#59D6B8"/>
<path d="M70.9538 91.3747C71.5466 91.3747 71.5498 90.4494 70.9538 90.4494C70.361 90.4494 70.361 91.3747 70.9538 91.3747Z" fill="#59D6B8"/>
<path d="M104.26 56.5058C104.853 56.5058 104.856 55.5805 104.26 55.5805C103.664 55.5805 103.664 56.5058 104.26 56.5058Z" fill="#59D6B8"/>
<path d="M13.3481 34.3372C13.9409 34.3372 13.944 33.412 13.3481 33.412C12.7552 33.412 12.7552 34.3372 13.3481 34.3372Z" fill="#59D6B8"/>
<path d="M111.967 47.9319C112.56 47.9319 112.563 47.0066 111.967 47.0066C111.374 47.0066 111.371 47.9319 111.967 47.9319Z" fill="#59D6B8"/>
<path d="M3.45697 69.134C4.04978 69.134 4.0529 68.2088 3.45697 68.2088C2.86103 68.2088 2.86103 69.134 3.45697 69.134Z" fill="#8ABFA3"/>
<path d="M83.553 18.4049C84.1458 18.4049 84.149 17.4797 83.553 17.4797C82.9602 17.4797 82.9602 18.4049 83.553 18.4049Z" fill="#8E97FD"/>
<path d="M100.179 86.4168C100.772 86.4168 100.775 85.4916 100.179 85.4916C99.5866 85.4916 99.5866 86.4168 100.179 86.4168Z" fill="white"/>
<path d="M4.37776 59.3129C4.37776 59.2723 4.37776 59.2317 4.37776 59.191C4.37776 58.7065 3.95343 58.2439 3.45422 58.2658C2.955 58.2877 2.53067 58.6721 2.53067 59.191C2.53067 59.2317 2.53067 59.2723 2.53067 59.3129C2.53067 59.7974 2.955 60.2601 3.45422 60.2382C3.95655 60.2132 4.37776 59.8287 4.37776 59.3129Z" fill="#8E97FD"/>
<path d="M105.983 84.4042C106.651 84.4042 106.651 83.3633 105.983 83.3633C105.315 83.3665 105.315 84.4042 105.983 84.4042Z" fill="#8E6DAA"/>
<path d="M114.229 57.8935C115.418 57.8935 115.418 56.043 114.229 56.043C113.041 56.043 113.041 57.8935 114.229 57.8935Z" fill="#8E6DAA"/>
<path d="M75.4592 17.9424C76.6479 17.9424 76.6479 16.092 75.4592 16.092C74.2704 16.092 74.2673 17.9424 75.4592 17.9424Z" fill="#8E97FD"/>
<path d="M14.9143 84.407C16.103 84.407 16.103 82.5565 14.9143 82.5565C13.7255 82.5565 13.7255 84.407 14.9143 84.407Z" fill="#E9F2DE"/>
</svg>
