<svg width="12" height="7" viewBox="0 0 12 7" fill="none" xmlns="http://www.w3.org/2000/svg">
<path d="M8.4907 0.949C7.52509 0.643157 6.35282 0.775312 5.81929 0.571416C4.62447 0.114541 4.02331 -0.115785 3.82418 0.0579029C3.02388 0.756432 6.23258 1.65131 6.12362 2.38004C5.932 2.65568 4.91754 2.79916 4.1999 2.81804C3.33949 2.84069 0.867205 2.24411 0.855934 2.7614C0.848419 3.19562 2.64064 3.6827 3.25683 3.73934C2.61434 3.6827 -0.154773 3.12388 0.00678987 3.82996C0.127022 4.34725 3.32446 4.70218 3.75279 4.73616C3.54614 4.72861 0.487719 4.27929 0.645524 4.79658C0.825873 5.39316 3.6025 5.57817 4.02707 5.61216C3.76406 5.60461 1.15276 5.14017 1.37444 5.77451C1.51345 6.1672 4.04961 6.59765 4.47418 6.6354C6.35282 6.79399 11.0682 5.51776 11.6243 5.25345L12 2.3234C12 2.3234 10.839 1.77969 10.2604 1.59467C9.54274 1.36812 8.85516 1.06227 8.4907 0.949Z" fill="#FDBCA0"/>
</svg>
