<svg width="21" height="8" viewBox="0 0 21 8" fill="none" xmlns="http://www.w3.org/2000/svg">
<path d="M9.73935 6.21376V7.24939H0C0.0135835 6.17315 1.05951 5.27628 3.13778 4.55879C3.78979 4.34219 4.435 4.12559 5.07343 3.90898C5.80693 3.65177 6.35706 3.40809 6.72382 3.17795C7.18566 2.88013 7.42337 2.56199 7.43695 2.22355C7.45053 1.89865 7.30112 1.62451 6.9887 1.40114C6.58119 1.11008 5.92919 0.964555 5.03268 0.964555C3.47058 0.964555 2.65557 1.55683 2.58765 2.74137H0.264878C0.264878 1.92911 0.685965 1.27592 1.52814 0.781797C2.41107 0.260599 3.62679 0 5.1753 0C6.75099 0 7.95312 0.250446 8.78171 0.751337C9.43372 1.1507 9.75972 1.6279 9.75972 2.18294C9.75972 3.04258 8.70021 3.8413 6.58119 4.5791C5.79335 4.84308 5.00551 5.10706 4.21767 5.37105C3.44341 5.66887 2.96799 5.94978 2.7914 6.21376H9.73935Z" fill="#A1A4B2"/>
<path d="M11.2403 1.17777V0.142145H21V1.1067C17.7807 2.92074 16.0081 4.9683 15.6821 7.24939H13.1352C13.2846 6.17315 13.8755 5.08676 14.9078 3.99021C15.8586 2.98166 17.1015 2.04418 18.6365 1.17777H11.2403Z" fill="#A1A4B2"/>
</svg>
