<svg width="235" height="124" viewBox="0 0 235 124" fill="none" xmlns="http://www.w3.org/2000/svg">
<g opacity="0.5">
<path d="M49.9023 6.48661C81.4265 59.672 146.911 83.0424 205.009 61.8385C211.438 59.4926 218.594 62.4378 221.523 68.623L233.478 93.8539C236.792 100.852 233.423 109.167 226.188 111.938C207.743 119 188.457 122.996 168.679 123.834C144.985 124.838 121.605 121.293 99.1848 113.292C76.7643 105.292 56.4239 93.2348 38.7275 77.4588C23.9546 64.2871 11.5605 48.993 1.76239 31.8495C-2.07898 25.1266 0.582015 16.5571 7.58124 13.2386L32.8214 1.28009C39.0089 -1.64989 46.4164 0.601218 49.9023 6.48661Z" fill="#1F265E"/>
</g>
</svg>
