<svg width="110" height="88" viewBox="0 0 110 88" fill="none" xmlns="http://www.w3.org/2000/svg">
<mask id="mask0_1006_6324" style="mask-type:alpha" maskUnits="userSpaceOnUse" x="-68" y="0" width="178" height="211">
<rect x="-67.7803" width="177.78" height="210.926" rx="10" fill="#FFC97E"/>
</mask>
<g mask="url(#mask0_1006_6324)">
<path d="M94.5564 -3.64742C94.5564 -3.64742 77.2744 -15.0938 56.2236 -9.05563C35.1703 -3.01932 20.7999 15.8506 8.7522 30.8275C-3.29732 45.807 -2.77118 64.2491 9.50361 75.6775C21.7784 87.106 34.1428 77.9014 54.1128 82.312C74.0829 86.7226 78.7438 90.8985 97.859 83.8191C116.974 76.7398 126.217 51.0128 117.871 28.1698C109.523 5.32488 94.5564 -3.64742 94.5564 -3.64742Z" fill="#F1B869"/>
<path d="M39.5997 64.8478C38.7655 65.1235 37.8625 64.6678 37.5871 63.8347L32.0169 46.981C31.7779 46.2578 30.9979 45.8642 30.2763 46.1027C29.5547 46.3412 29.1628 47.1221 29.4018 47.8453L33.5599 60.4263C33.8047 61.1668 33.4032 61.967 32.6642 62.2112C31.9253 62.4554 31.1261 62.0521 30.8813 61.3115L28.5857 54.3658C28.4088 53.8306 27.8325 53.5398 27.2985 53.7163C26.7645 53.8928 26.475 54.4698 26.6518 55.005L27.5056 57.5883L25.3755 58.2923L25.2798 58.003L27.1214 57.3944L26.3632 55.1004C26.1337 54.4061 26.5101 53.656 27.2029 53.427C27.8956 53.1981 28.6449 53.5761 28.8744 54.2704L31.17 61.2161C31.3621 61.7976 31.9885 62.1136 32.5686 61.9219C33.1488 61.7302 33.4634 61.1031 33.2713 60.5217L29.1132 47.9407C28.8216 47.0583 29.3003 46.1043 30.1807 45.8134C31.061 45.5224 32.014 46.0033 32.3056 46.8856L37.8758 63.7393C38.0986 64.4133 38.8286 64.7817 39.5041 64.5585C40.1766 64.3362 40.5433 63.6053 40.3206 62.9313L33.5246 42.3689C33.1709 41.2986 33.7519 40.1407 34.8199 39.7877C35.8879 39.4348 37.0445 40.0184 37.3982 41.0887L44.1626 61.5556C44.4016 62.2788 45.1816 62.6724 45.9032 62.4339C46.6248 62.1954 47.0167 61.4145 46.7777 60.6913L41.3872 44.3814C41.0487 43.3574 41.6047 42.2495 42.6265 41.9118C43.6483 41.5741 44.7549 42.1325 45.0934 43.1565L49.0698 55.1879C49.2772 55.8156 49.9574 56.1588 50.5837 55.9518C51.2101 55.7448 51.5517 55.0639 51.3443 54.4362L49.1825 47.8954C48.933 47.1404 49.3422 46.3249 50.0956 46.0759C50.8489 45.8269 51.6664 46.237 51.916 46.992L52.5728 48.9794L54.703 48.2754L54.7986 48.5647L52.3798 49.3641L51.6273 47.0874C51.4304 46.4915 50.7858 46.1687 50.1912 46.3652C49.5966 46.5617 49.2752 47.207 49.4712 47.8L51.6329 54.3408C51.893 55.1276 51.4644 55.9816 50.6793 56.2411C49.8942 56.5006 49.0412 56.0701 48.7811 55.2833L44.8047 43.2519C44.5188 42.387 43.5851 41.9158 42.7221 42.2011C41.859 42.4863 41.39 43.4211 41.6758 44.286L47.0663 60.5959C47.3579 61.4782 46.8792 62.4322 45.9989 62.7232C45.1185 63.0142 44.1656 62.5333 43.8739 61.651L37.1096 41.1841C36.8084 40.2729 35.8247 39.7765 34.9155 40.077C34.0063 40.3775 33.5121 41.3623 33.8133 42.2735L40.6092 62.8359C40.8875 63.6681 40.4338 64.5721 39.5997 64.8478Z" fill="#FEDEA5"/>
<path d="M67.4531 55.641C66.619 55.9167 65.716 55.4611 65.4406 54.6279L59.8704 37.7742C59.6314 37.051 58.8513 36.6574 58.1297 36.8959C57.4081 37.1344 57.0163 37.9153 57.2553 38.6385L61.4134 51.2195C61.6581 51.9601 61.2566 52.7602 60.5177 53.0044C59.7788 53.2486 58.9795 52.8454 58.7348 52.1048L56.4392 45.1591C56.2623 44.6239 55.6859 44.333 55.152 44.5095C54.618 44.686 54.3284 45.263 54.5053 45.7982L55.3591 48.3815L53.2289 49.0856L53.1333 48.7963L54.9749 48.1876L54.2167 45.8936C53.9872 45.1993 54.3636 44.4492 55.0563 44.2202C55.7491 43.9913 56.4984 44.3694 56.7278 45.0637L59.0234 52.0094C59.2156 52.5908 59.8419 52.9069 60.4221 52.7151C61.0023 52.5234 61.3169 51.8964 61.1247 51.3149L56.9667 38.7339C56.6751 37.8516 57.1538 36.8976 58.0341 36.6066C58.9145 36.3157 59.8674 36.7965 60.159 37.6788L65.7293 54.5325C65.952 55.2066 66.6821 55.575 67.3575 55.3517C68.0301 55.1295 68.3968 54.3986 68.174 53.7245L61.3781 33.1622C61.0244 32.0918 61.6054 30.9339 62.6734 30.581C63.7413 30.228 64.8979 30.8116 65.2517 31.8819L72.0161 52.3488C72.2551 53.072 73.0351 53.4656 73.7567 53.2271C74.4783 52.9887 74.8702 52.2078 74.6311 51.4845L69.2407 35.1747C68.9022 34.1506 69.4581 33.0427 70.4799 32.705C71.5017 32.3673 72.6084 32.9257 72.9468 33.9498L76.9232 45.9811C77.1307 46.6089 77.8108 46.9521 78.4372 46.745C79.0635 46.538 79.4052 45.8571 79.1977 45.2294L77.036 38.6887C76.7864 37.9336 77.1957 37.1181 77.9519 36.8682C78.7053 36.6192 79.5199 37.0302 79.7694 37.7853L80.4263 39.7726L82.5564 39.0686L82.652 39.3579L80.2332 40.1573L79.4808 37.8807C79.2838 37.2847 78.6421 36.9609 78.0475 37.1575C77.4529 37.354 77.1286 38.0002 77.3246 38.5933L79.4864 45.134C79.7464 45.9209 79.3179 46.7748 78.5328 47.0343C77.7477 47.2938 76.8946 46.8634 76.6346 46.0765L72.6582 34.0452C72.3723 33.1802 71.4386 32.7091 70.5755 32.9943C69.7125 33.2795 69.2434 34.2143 69.5293 35.0793L74.9198 51.3891C75.2114 52.2715 74.7327 53.2255 73.8523 53.5164C72.972 53.8074 72.019 53.3266 71.7274 52.4442L64.963 31.9773C64.6619 31.0661 63.6782 30.5697 62.769 30.8702C61.8597 31.1707 61.3656 32.1555 61.6668 33.0668L68.4627 53.6291C68.7409 54.4613 68.2873 55.3653 67.4531 55.641Z" fill="#FEDEA5"/>
<path d="M95.307 46.4355C94.4728 46.7112 93.5699 46.2556 93.2945 45.4224L87.7243 28.5687C87.4853 27.8455 86.7052 27.4519 85.9836 27.6904C85.262 27.9289 84.8702 28.7098 85.1092 29.433L89.2672 42.014C89.512 42.7546 89.1105 43.5547 88.3716 43.7989C87.6327 44.0431 86.8334 43.6399 86.5887 42.8993L84.2931 35.9536C84.1162 35.4184 83.5398 35.1276 83.0058 35.304C82.4718 35.4805 82.1823 36.0575 82.3592 36.5927L83.213 39.176L81.0828 39.8801L80.9872 39.5908L82.8287 38.9821L82.0705 36.6881C81.8411 35.9938 82.2175 35.2437 82.9102 35.0148C83.603 34.7858 84.3522 35.1639 84.5817 35.8582L86.8773 42.8039C87.0695 43.3854 87.6958 43.7014 88.276 43.5096C88.8561 43.3179 89.1708 42.6909 88.9786 42.1094L84.8205 29.5284C84.5289 28.6461 85.0077 27.6921 85.888 27.4011C86.7684 27.1102 87.7213 27.591 88.0129 28.4733L93.5831 45.327C93.8059 46.0011 94.536 46.3695 95.2114 46.1462C95.8868 45.923 96.2507 45.1931 96.0279 44.519L89.232 23.9567C88.8782 22.8863 89.4593 21.7284 90.5272 21.3755C91.5952 21.0225 92.7518 21.6061 93.1056 22.6765L99.8699 43.1433C100.109 43.8666 100.889 44.2601 101.611 44.0217C102.332 43.7832 102.724 43.0023 102.485 42.279L97.0946 25.9692C96.7561 24.9451 97.312 23.8372 98.3338 23.4995C99.3556 23.1618 100.462 23.7202 100.801 24.7443L104.777 36.7756C104.985 37.4034 105.665 37.7466 106.291 37.5395C106.917 37.3325 107.259 36.6516 107.052 36.0239L104.89 29.4832C104.64 28.7281 105.05 27.9126 105.806 27.6627C106.559 27.4137 107.374 27.8247 107.623 28.5798L108.28 30.5672L110.41 29.8631L110.506 30.1524L108.087 30.9518L107.335 28.6752C107.138 28.0792 106.496 27.7554 105.901 27.952C105.307 28.1485 104.983 28.7947 105.179 29.3878L107.34 35.9285C107.6 36.7154 107.172 37.5693 106.387 37.8288C105.602 38.0883 104.749 37.6579 104.488 36.871L100.512 24.8397C100.226 23.9747 99.2925 23.5036 98.4294 23.7888C97.5664 24.074 97.0973 25.0088 97.3832 25.8738L102.774 42.1836C103.065 43.066 102.587 44.02 101.706 44.3109C100.826 44.6019 99.8729 44.1211 99.5813 43.2387L92.8169 22.7719C92.5157 21.8606 91.5321 21.3642 90.6228 21.6647C89.7136 21.9652 89.2195 22.95 89.5206 23.8613L96.3166 44.4236C96.5948 45.2558 96.1412 46.1598 95.307 46.4355Z" fill="#FEDEA5"/>
<path d="M52.2968 -0.223669L51.4105 -2.90534L49.5382 -0.800865L52.2968 -0.223669Z" fill="#263238"/>
<path d="M48.7253 -2.08878L48.3038 -1.94951L49.2093 0.79002L49.6307 0.650741L48.7253 -2.08878Z" fill="#263238"/>
<path d="M56.8299 -7.52997C54.8614 -6.87937 53.7968 -4.75303 54.4479 -2.783C55.1 -0.81008 57.2239 0.259226 59.1896 -0.390427C61.1581 -1.04103 62.2227 -3.16737 61.5716 -5.1374C60.9195 -7.11032 58.7985 -8.18058 56.8299 -7.52997ZM58.1261 -1.9129L57.0668 -1.5628L55.8229 -5.32639L56.8822 -5.6765L58.1261 -1.9129ZM60.1956 -2.5969L59.1363 -2.24679L57.8925 -6.01039L58.9518 -6.36049L60.1956 -2.5969Z" fill="#263238"/>
<path d="M96.8101 12.7721C96.5706 12.8513 96.3131 12.7214 96.2338 12.4813L94.9383 8.56148C94.8589 8.32137 94.9882 8.06363 95.2278 7.98445C95.4674 7.90527 95.7248 8.03518 95.8042 8.27528L97.0997 12.1951C97.1781 12.4323 97.0497 12.6929 96.8101 12.7721Z" fill="#FFDB9D"/>
<path d="M95.2213 12.7226C94.9817 12.8017 94.7243 12.6718 94.6449 12.4317L93.6917 9.54755C93.6123 9.30745 93.7417 9.04971 93.9812 8.97053C94.2208 8.89135 94.4783 9.02126 94.5576 9.26136L95.5108 12.1455C95.5902 12.3856 95.4609 12.6434 95.2213 12.7226Z" fill="#FFDB9D"/>
<path d="M93.8045 13.1907C93.5649 13.2699 93.3075 13.14 93.2281 12.8999L92.2749 10.0157C92.1955 9.77563 92.3248 9.51789 92.5644 9.43871C92.804 9.35953 93.0614 9.48944 93.1408 9.72954L94.094 12.6137C94.1734 12.8538 94.044 13.1116 93.8045 13.1907Z" fill="#FFDB9D"/>
<path d="M110.805 7.57218C110.566 7.65136 110.308 7.52145 110.229 7.28134L109.276 4.39717C109.196 4.15706 109.326 3.89933 109.565 3.82015C109.805 3.74097 110.062 3.87087 110.142 4.11098L111.095 6.99515C111.174 7.23526 111.045 7.493 110.805 7.57218Z" fill="#FFDB9D"/>
<path d="M109.388 8.04034C109.148 8.11952 108.891 7.98962 108.812 7.74951L107.858 4.86534C107.779 4.62523 107.908 4.36749 108.148 4.28831C108.387 4.20913 108.645 4.33904 108.724 4.57915L109.677 7.46332C109.757 7.70343 109.628 7.96116 109.388 8.04034Z" fill="#FFDB9D"/>
<path d="M98.2275 12.3034C97.9879 12.3826 97.7305 12.2527 97.6511 12.0126L96.3556 8.09279C96.2762 7.85268 96.4056 7.59495 96.6451 7.51577C96.8847 7.43659 97.1422 7.56649 97.2215 7.8066L98.517 11.7264C98.5954 11.9636 98.4642 12.2252 98.2275 12.3034Z" fill="#FFDB9D"/>
<path d="M99.8691 12.5244C99.6295 12.6036 99.3721 12.4737 99.2927 12.2336L97.5411 6.93391C97.4618 6.6938 97.5911 6.43607 97.8307 6.35689C98.0703 6.27771 98.3277 6.40761 98.4071 6.64772L100.159 11.9474C100.238 12.1875 100.109 12.4453 99.8691 12.5244Z" fill="#FFDB9D"/>
<path d="M101.646 13.1442C101.406 13.2234 101.149 13.0935 101.07 12.8534L98.6 5.38119C98.5207 5.14109 98.65 4.88335 98.8896 4.80417C99.1292 4.72499 99.3866 4.8549 99.466 5.095L101.936 12.5672C102.014 12.8044 101.886 13.0651 101.646 13.1442Z" fill="#FFDB9D"/>
<path d="M108.145 9.02572C107.906 9.1049 107.648 8.975 107.569 8.73489L106.273 4.81508C106.194 4.57497 106.323 4.31724 106.563 4.23806C106.802 4.15888 107.06 4.28878 107.139 4.52889L108.435 8.4487C108.513 8.68591 108.382 8.9475 108.145 9.02572Z" fill="#FFDB9D"/>
<path d="M106.727 9.49441C106.488 9.57359 106.23 9.44368 106.151 9.20358L104.855 5.28377C104.776 5.04366 104.905 4.78592 105.145 4.70674C105.385 4.62757 105.642 4.75747 105.721 4.99758L107.017 8.91738C107.095 9.1546 106.967 9.41523 106.727 9.49441Z" fill="#FFDB9D"/>
<path d="M105.538 10.6512C105.298 10.7304 105.041 10.6005 104.962 10.3604L103.21 5.06071C103.131 4.82061 103.26 4.56287 103.5 4.48369C103.739 4.40451 103.997 4.53441 104.076 4.77452L105.827 10.0742C105.907 10.3143 105.777 10.5721 105.538 10.6512Z" fill="#FFDB9D"/>
<path d="M104.48 12.2074C104.241 12.2866 103.983 12.1567 103.904 11.9166L101.434 4.44434C101.355 4.20424 101.484 3.9465 101.724 3.86732C101.963 3.78814 102.221 3.91805 102.3 4.15815L104.77 11.6304C104.848 11.8676 104.72 12.1282 104.48 12.2074Z" fill="#FFDB9D"/>
<path d="M103.519 14.0553C103.279 14.1344 103.022 14.0045 102.943 13.7644L99.56 3.52953C99.4806 3.28942 99.6099 3.03169 99.8495 2.95251C100.089 2.87333 100.347 3.00323 100.426 3.24334L103.809 13.4782C103.888 13.7183 103.759 13.9761 103.519 14.0553Z" fill="#FFDB9D"/>
<path d="M17.0229 28.1974C16.1419 26.7622 14.3634 26.089 12.7412 26.6251C11.1075 27.1651 10.0727 28.7906 10.2455 30.4855C8.64682 31.2963 7.84711 33.1875 8.41981 34.9203C9.0212 36.7399 10.8779 37.7852 12.7422 37.352L12.5733 36.628C11.0871 36.9748 9.60406 36.1397 9.1241 34.6875C8.64222 33.2295 9.376 31.6329 10.7915 31.0527L11.0677 30.939L11.0144 30.6421C10.7527 29.2108 11.5948 27.787 12.9745 27.331C14.3571 26.874 15.8828 27.5185 16.5246 28.8306L16.6836 29.1567L17.0117 29.0065C17.1118 28.9606 17.2128 28.9176 17.3168 28.8833C18.8523 28.3758 20.5133 29.2162 21.0209 30.7523C21.5296 32.2913 20.6928 33.9541 19.1601 34.4607L19.3934 35.1665C21.3158 34.5312 22.362 32.4462 21.7252 30.5196C21.0837 28.5688 18.954 27.5014 17.0229 28.1974Z" fill="#4A5161"/>
<path d="M16.8054 31.4045C16.769 31.2946 16.6817 31.2047 16.5702 31.1677C16.4588 31.1308 16.3366 31.1487 16.2403 31.2158L12.9062 33.5371C12.7704 33.6301 12.7153 33.8024 12.7669 33.9586L14.1695 38.2024C14.033 38.1962 13.8906 38.2111 13.755 38.256C13.1546 38.4544 12.8284 39.1045 13.0273 39.7062C13.2261 40.3079 13.8755 40.6356 14.4759 40.4372C15.0445 40.2492 15.361 39.6569 15.2265 39.0852L15.238 39.0814L14.1682 35.8443L16.8707 33.966L17.4903 35.8406C17.3566 35.8334 17.2181 35.8503 17.0825 35.8951C16.4821 36.0936 16.1559 36.7437 16.3548 37.3454C16.5536 37.9471 17.203 38.2748 17.8034 38.0763C18.4038 37.8779 18.73 37.2278 18.5311 36.6261C18.5292 36.6203 18.5244 36.6155 18.5225 36.6097L16.8025 31.4055L16.8054 31.4045ZM16.626 33.2254L13.9244 35.1067L13.5543 33.9871L16.2569 32.1088L16.626 33.2254Z" fill="#4A5161"/>
<path d="M46.6976 15.0936C46.5647 14.6915 46.9697 14.0763 46.7925 13.7049C46.6095 13.3257 45.877 13.2598 45.6478 12.9152C45.4167 12.5648 45.6488 11.8623 45.3792 11.5503C45.1048 11.2335 44.3786 11.3612 44.0695 11.0847C43.7566 10.8063 43.8012 10.0695 43.4546 9.83435C43.1079 9.59916 42.4429 9.91201 42.0702 9.72394C41.6974 9.53587 41.5517 8.81392 41.1567 8.6749C40.7657 8.53783 40.1984 9.01088 39.789 8.9248C39.3834 8.84066 39.0529 8.17976 38.6356 8.1476C38.2222 8.11737 37.8009 8.7219 37.3826 8.74464C36.971 8.76836 36.4807 8.21483 36.068 8.29346C35.6641 8.36922 35.4137 9.06484 35.0125 9.19745C34.6113 9.33005 33.9967 8.9235 33.6261 9.10051C33.2479 9.28328 33.1831 10.0171 32.8394 10.2462C32.4899 10.4772 31.7884 10.2438 31.4773 10.5134C31.1614 10.7879 31.2899 11.5156 31.0143 11.8249C30.7368 12.138 30.0013 12.0923 29.767 12.4393C29.5327 12.7862 29.8458 13.4529 29.6586 13.826C29.4714 14.1991 28.7509 14.3442 28.6126 14.7397C28.4763 15.1313 28.9493 15.7001 28.8639 16.1102C28.7805 16.5164 28.1212 16.8466 28.0896 17.2646C28.06 17.6787 28.664 18.1016 28.6873 18.5207C28.7115 18.933 28.1596 19.4235 28.2386 19.837C28.3177 20.2408 29.0095 20.4935 29.1424 20.8956C29.2753 21.2977 28.8703 21.9129 29.0475 22.2843C29.2304 22.6635 29.963 22.7294 30.1922 23.074C30.4232 23.4244 30.1911 24.1269 30.4607 24.4389C30.7351 24.7557 31.4613 24.628 31.7704 24.9045C32.0834 25.1829 32.0387 25.9196 32.3854 26.1548C32.7321 26.39 33.3971 26.0772 33.7698 26.2652C34.1425 26.4533 34.2883 27.1753 34.6832 27.3143C35.0743 27.4514 35.6415 26.9783 36.051 27.0644C36.4566 27.1485 36.7871 27.8094 37.2043 27.8416C37.6177 27.8718 38.0391 27.2673 38.4574 27.2445C38.869 27.2208 39.3593 27.7743 39.7719 27.6957C40.175 27.6171 40.4263 26.9243 40.8275 26.7917C41.2287 26.6591 41.8433 27.0657 42.2138 26.8887C42.5921 26.7059 42.6569 25.9721 43.0006 25.743C43.3501 25.512 44.0516 25.7454 44.3626 25.4757C44.6785 25.2013 44.5501 24.4736 44.8257 24.1643C45.1032 23.8512 45.8387 23.8969 46.073 23.5499C46.3073 23.2029 45.9941 22.5363 46.1814 22.1632C46.3686 21.79 47.0891 21.645 47.2273 21.2495C47.3636 20.8579 46.8907 20.289 46.9761 19.879C47.0595 19.4727 47.7188 19.1425 47.7503 18.7246C47.78 18.3105 47.176 17.8876 47.1527 17.4685C47.1285 17.0561 47.6804 16.5657 47.6013 16.1522C47.5242 15.7445 46.8305 15.4957 46.6976 15.0936Z" fill="#4A5161"/>
<path d="M39.8718 27.8257C39.8487 27.8333 39.8247 27.8381 39.8006 27.8428C39.5294 27.8939 39.2633 27.7476 39.0078 27.6042C38.8157 27.4977 38.6197 27.3891 38.4688 27.3973C38.312 27.4074 38.1252 27.5398 37.9442 27.6702C37.7093 27.8409 37.4628 28.0154 37.1936 27.9953C36.9206 27.9732 36.7008 27.7635 36.4925 27.5595C36.3361 27.4059 36.1719 27.2483 36.0201 27.2151C35.8682 27.1819 35.6546 27.2621 35.4468 27.3404C35.1735 27.4436 34.8916 27.5496 34.634 27.4582C34.3765 27.3668 34.2203 27.1072 34.0707 26.8582C33.9567 26.6681 33.8407 26.4722 33.7024 26.4024C33.564 26.3326 33.338 26.3559 33.1178 26.3774C32.8264 26.4063 32.5254 26.4352 32.2987 26.2823C32.0721 26.1293 31.989 25.8391 31.9088 25.5576C31.8476 25.3436 31.7846 25.1237 31.6675 25.0212C31.5532 24.9178 31.3273 24.8834 31.1101 24.8461C30.8217 24.797 30.5209 24.7488 30.3434 24.5411C30.1668 24.3364 30.1597 24.0339 30.1564 23.743C30.153 23.5195 30.1476 23.2902 30.0623 23.158C29.9789 23.0315 29.7714 22.9364 29.5754 22.8472C29.3074 22.724 29.0297 22.6008 28.911 22.348C28.7951 22.1039 28.8658 21.8142 28.9365 21.5341C28.9898 21.3176 29.047 21.0933 28.9973 20.9429C28.9475 20.7925 28.768 20.6464 28.5962 20.5043C28.3725 20.3215 28.1392 20.1291 28.0906 19.8659C28.0392 19.5941 28.1849 19.3278 28.3277 19.072C28.4338 18.8797 28.5419 18.6836 28.5335 18.5323C28.5232 18.3753 28.3909 18.188 28.2614 18.0093C28.0907 17.7738 27.9162 17.5266 27.9359 17.257C27.9576 16.9835 28.1667 16.7635 28.3699 16.5552C28.5231 16.3987 28.6802 16.2344 28.7131 16.0824C28.7461 15.9303 28.6657 15.7162 28.5873 15.5078C28.484 15.2339 28.3778 14.9514 28.4686 14.6935C28.5595 14.4357 28.8184 14.2795 29.0668 14.13C29.2564 14.016 29.4518 13.9001 29.5213 13.7616C29.5908 13.6231 29.5672 13.3967 29.5455 13.176C29.5163 12.884 29.487 12.5824 29.6403 12.3585C29.7927 12.1317 30.0823 12.0488 30.3632 11.9688C30.5767 11.9078 30.7961 11.8449 30.8982 11.7278C31.0013 11.6135 31.0354 11.3872 31.0724 11.1696C31.121 10.8808 31.1687 10.5795 31.3757 10.4019C31.5799 10.2253 31.8818 10.2186 32.1722 10.2157C32.3953 10.2126 32.6242 10.2075 32.7561 10.1222C32.8822 10.0388 32.9768 9.83105 33.0656 9.63483C33.1883 9.36648 33.3109 9.08849 33.5602 8.97081C33.8036 8.85504 34.0929 8.92629 34.3726 8.99751C34.5889 9.05118 34.8128 9.10873 34.9629 9.05913C35.113 9.00952 35.2585 8.82986 35.4002 8.65789C35.5823 8.43404 35.7741 8.20059 36.0367 8.15231C36.308 8.10116 36.574 8.24747 36.8324 8.3899C37.0245 8.49648 37.2205 8.60499 37.3714 8.59681C37.5282 8.58672 37.715 8.45439 37.8931 8.32492C38.128 8.15422 38.3745 7.9797 38.6437 7.99983C38.9168 8.0219 39.1365 8.23163 39.3448 8.43555C39.5013 8.58921 39.6654 8.74675 39.8173 8.77999C39.9691 8.81323 40.1856 8.73205 40.3906 8.65469C40.6638 8.55153 40.9458 8.44552 41.2033 8.53689C41.4608 8.62827 41.617 8.88789 41.7675 9.13978C41.8816 9.32991 41.9976 9.52583 42.1359 9.59562C42.2742 9.66542 42.5002 9.64207 42.7205 9.62062C43.0119 9.5917 43.3129 9.56281 43.5395 9.71573C43.7662 9.86866 43.8493 10.1589 43.9295 10.4404C43.9906 10.6544 44.0537 10.8743 44.1708 10.9767C44.285 11.0802 44.5109 11.1146 44.7282 11.1519C45.0165 11.201 45.3174 11.2492 45.4949 11.4568C45.6714 11.6616 45.6786 11.9641 45.6819 12.255C45.6853 12.4785 45.6906 12.7078 45.776 12.84C45.8594 12.9665 46.0669 13.0615 46.2629 13.1508C46.5309 13.274 46.8086 13.3972 46.9264 13.6471C47.0422 13.8912 46.9715 14.1809 46.9008 14.461C46.8475 14.6775 46.7903 14.9018 46.8401 15.0522C46.8898 15.2026 47.0693 15.3487 47.2412 15.4908C47.4649 15.6736 47.6982 15.866 47.7467 16.1291C47.7981 16.401 47.6524 16.6673 47.5106 16.926C47.4044 17.1183 47.2935 17.3154 47.3048 17.4657C47.315 17.6227 47.4474 17.81 47.5778 17.9915C47.7485 18.2271 47.9231 18.4743 47.9033 18.7439C47.8816 19.0174 47.6726 19.2373 47.4693 19.4457C47.3161 19.6022 47.1591 19.7664 47.1261 19.9185C47.0931 20.0706 47.1735 20.2847 47.2519 20.493C47.3553 20.7669 47.4615 21.0495 47.3706 21.3074C47.2797 21.5652 47.0208 21.7214 46.7695 21.8718C46.5799 21.9858 46.3845 22.1018 46.315 22.2403C46.2455 22.3787 46.2691 22.6052 46.2908 22.8258C46.3201 23.1178 46.3493 23.4194 46.197 23.6462C46.0437 23.8702 45.755 23.9559 45.4741 24.0359C45.2606 24.0969 45.0412 24.1598 44.9391 24.277C44.836 24.3913 44.8019 24.6175 44.7649 24.8351C44.7163 25.1239 44.6686 25.4253 44.4616 25.6028C44.2574 25.7794 43.9555 25.7861 43.6651 25.789C43.442 25.7922 43.216 25.7963 43.0812 25.8825C42.9551 25.9659 42.8605 26.1737 42.7717 26.3699C42.649 26.6383 42.5264 26.9162 42.2743 27.0349C42.0346 27.1526 41.7415 27.0794 41.4618 27.0082C41.2456 26.9545 41.0216 26.8969 40.8715 26.9466C40.7214 26.9962 40.5759 27.1758 40.4342 27.3478C40.2704 27.5399 40.0998 27.7503 39.8718 27.8257ZM38.2674 27.127C38.3251 27.1079 38.3847 27.0946 38.4472 27.09C38.6857 27.0753 38.9249 27.2081 39.1525 27.335C39.361 27.4522 39.58 27.5724 39.7425 27.5411C39.8984 27.5089 40.0516 27.3234 40.2019 27.139C40.3706 26.9324 40.547 26.7201 40.7808 26.6428C41.0146 26.5656 41.2837 26.6339 41.5412 26.6963C41.7681 26.7529 42.0054 26.8125 42.1498 26.7455C42.299 26.6737 42.4004 26.4477 42.5008 26.2284C42.608 25.9908 42.7209 25.7417 42.9212 25.6113C43.1262 25.4762 43.4003 25.4722 43.6647 25.4683C43.9003 25.4642 44.1455 25.4602 44.2678 25.3556C44.392 25.2471 44.4329 25.0026 44.4708 24.7686C44.5127 24.5077 44.5555 24.2401 44.7164 24.0586C44.8773 23.877 45.14 23.7998 45.3949 23.7284C45.6229 23.6627 45.8596 23.5941 45.9502 23.4615C46.0428 23.325 46.0163 23.0802 45.9927 22.8441C45.9663 22.5801 45.9408 22.3094 46.048 22.0911C46.1551 21.8727 46.391 21.7338 46.6181 21.5978C46.8213 21.4761 47.0321 21.3487 47.0872 21.1957C47.1394 21.0437 47.0533 20.8122 46.97 20.5894C46.8753 20.3416 46.7806 20.0841 46.8301 19.8463C46.8796 19.6085 47.0684 19.4146 47.2524 19.2254C47.42 19.0545 47.5915 18.8759 47.6015 18.7121C47.6123 18.5513 47.4694 18.3515 47.3323 18.1593C47.1779 17.944 47.0177 17.721 47.0038 17.4753C46.9888 17.2364 47.121 16.997 47.2474 16.7691C47.3642 16.5604 47.4838 16.3412 47.4524 16.1783C47.4229 16.0212 47.2347 15.8684 47.0504 15.7175C46.8439 15.5483 46.6318 15.3713 46.5543 15.137C46.4769 14.9027 46.5447 14.6332 46.6067 14.3752C46.6629 14.1481 46.722 13.9104 46.655 13.7657C46.5832 13.6161 46.3574 13.5142 46.1383 13.4134C45.901 13.3057 45.6522 13.1922 45.5218 12.9914C45.3866 12.7858 45.3823 12.5113 45.378 12.2463C45.3737 12.0103 45.3693 11.7647 45.2648 11.642C45.1563 11.5174 44.9122 11.4762 44.6786 11.4378C44.4181 11.3956 44.1509 11.3523 43.9694 11.1909C43.788 11.0294 43.7106 10.7662 43.639 10.5107C43.5731 10.2822 43.5043 10.0451 43.3718 9.95408C43.2364 9.86406 42.9911 9.88735 42.7555 9.91068C42.492 9.9368 42.2218 9.96194 42.0037 9.85431C41.7885 9.74574 41.6466 9.51025 41.5105 9.28248C41.3888 9.07884 41.2613 8.86748 41.1085 8.81208C40.9567 8.75958 40.7258 8.84553 40.5035 8.92861C40.2553 9.02029 39.9993 9.11772 39.7619 9.06783C39.5245 9.01794 39.3306 8.82851 39.1415 8.64392C38.9707 8.47577 38.7922 8.30373 38.6287 8.29358C38.4682 8.28246 38.2689 8.42535 38.0773 8.56248C37.8626 8.71687 37.6401 8.87702 37.3949 8.89068C37.1564 8.90532 36.9173 8.77259 36.6896 8.64567C36.4812 8.52844 36.2622 8.40829 36.0996 8.43956C35.9428 8.46892 35.7906 8.65722 35.6402 8.84169C35.4716 9.04824 35.2961 9.26345 35.0623 9.34072C34.8285 9.41799 34.5594 9.3497 34.3009 9.28433C34.0741 9.22773 33.8367 9.16821 33.6924 9.23517C33.5432 9.30693 33.4418 9.53297 33.3414 9.75227C33.2342 9.98985 33.1212 10.239 32.921 10.3693C32.7159 10.5045 32.4419 10.5084 32.1775 10.5124C31.9419 10.5164 31.6967 10.5205 31.5744 10.6251C31.4501 10.7335 31.4093 10.9781 31.3713 11.212C31.3295 11.4729 31.2867 11.7406 31.1258 11.9221C30.9648 12.1036 30.7012 12.1779 30.4473 12.2522C30.2192 12.318 29.9826 12.3866 29.8919 12.5192C29.8023 12.6547 29.8258 12.9004 29.8494 13.1365C29.8759 13.4005 29.9013 13.6713 29.7942 13.8896C29.687 14.1079 29.4512 14.2468 29.224 14.3829C29.0209 14.5046 28.8101 14.632 28.755 14.785C28.7028 14.937 28.7889 15.1685 28.8721 15.3912C28.964 15.6401 29.0616 15.8966 29.0121 16.1344C28.9626 16.3721 28.7738 16.5661 28.5897 16.7553C28.4221 16.9262 28.2506 17.1048 28.2407 17.2685C28.2298 17.4294 28.3727 17.6292 28.5099 17.8213C28.6643 18.0366 28.8244 18.2597 28.8384 18.5053C28.8533 18.7443 28.7211 18.9837 28.5947 19.2116C28.478 19.4202 28.3584 19.6395 28.3898 19.8024C28.4193 19.9595 28.6075 20.1123 28.7918 20.2631C28.9982 20.4324 29.2104 20.6093 29.2878 20.8437C29.3653 21.078 29.2975 21.3475 29.2354 21.6054C29.1792 21.8326 29.1201 22.0703 29.1872 22.215C29.259 22.3645 29.4857 22.4693 29.7038 22.5673C29.9411 22.675 30.1899 22.7885 30.3203 22.9893C30.4555 23.1949 30.4598 23.4694 30.4641 23.7343C30.4685 23.9703 30.4728 24.216 30.5774 24.3386C30.6858 24.4633 30.93 24.5045 31.1636 24.5428C31.4241 24.5851 31.6913 24.6283 31.8727 24.7898C32.0541 24.9512 32.1315 25.2144 32.2032 25.4699C32.2691 25.6984 32.3379 25.9356 32.4704 26.0266C32.6067 26.1195 32.851 26.0933 33.0866 26.07C33.3502 26.0439 33.6204 26.0187 33.8385 26.1263C34.0565 26.234 34.1955 26.4704 34.3316 26.6982C34.4534 26.9018 34.5808 27.1132 34.7336 27.1686C34.8854 27.2211 35.1164 27.1351 35.3386 27.052C35.5859 26.9575 35.8428 26.8629 36.0803 26.9128C36.3177 26.9627 36.5115 27.1521 36.7006 27.3367C36.8714 27.5049 37.05 27.6769 37.2134 27.6871C37.374 27.6982 37.5704 27.5563 37.7649 27.4182C37.9257 27.3041 38.0913 27.1852 38.2674 27.127Z" fill="#4A5161"/>
<path d="M34.0231 22.4131C33.9134 22.4494 33.7856 22.421 33.7031 22.3263C33.3289 21.9109 33.0028 21.4475 32.7355 20.9487C31.0932 17.8687 32.0541 14.1401 34.8732 12.634C37.6924 11.1278 41.3208 12.4091 42.9631 15.4891C43.057 15.6666 43.146 15.849 43.2226 16.0322C43.2896 16.1866 43.2172 16.3645 43.0632 16.4315C42.9054 16.4965 42.7315 16.4256 42.6645 16.2712C42.5936 16.1053 42.5132 15.9394 42.427 15.7754C40.9437 12.9926 37.6853 11.8233 35.1597 13.1714C32.637 14.5186 31.7884 17.8796 33.2716 20.6624C33.515 21.1178 33.8123 21.5426 34.151 21.9184C34.2632 22.045 34.2561 22.2366 34.13 22.3489C34.102 22.3806 34.0635 22.3997 34.0231 22.4131Z" fill="white"/>
<path d="M34.0713 22.558C33.901 22.6143 33.7116 22.5645 33.5907 22.4312C33.2069 22.0062 32.8742 21.5321 32.603 21.0217C31.7924 19.4991 31.5706 17.7722 31.9871 16.1649C32.4017 14.5518 33.4022 13.2489 34.8046 12.503C36.206 11.7542 37.8418 11.6468 39.4119 12.2028C40.9782 12.7569 42.2875 13.8997 43.0981 15.4223C43.193 15.6028 43.284 15.7909 43.3644 15.9761C43.463 16.2066 43.3567 16.476 43.1239 16.5754C42.8852 16.6768 42.6248 16.5671 42.5253 16.3337C42.4563 16.1735 42.3797 16.0095 42.2954 15.8513C40.8534 13.1447 37.6844 12.0037 35.2348 13.3106C32.7852 14.6176 31.9666 17.8852 33.4096 20.5947C33.6472 21.0424 33.9368 21.4537 34.2698 21.8217C34.4377 22.0101 34.4237 22.2971 34.2397 22.467C34.1887 22.5064 34.1319 22.538 34.0713 22.558ZM35.7653 12.4165C35.4854 12.509 35.2101 12.6257 34.9464 12.7674C33.621 13.475 32.6745 14.7087 32.2803 16.2381C31.8851 17.7742 32.0964 19.4211 32.8715 20.8752C33.1322 21.3634 33.4496 21.8201 33.8171 22.2249C33.8718 22.2838 33.9708 22.2928 34.0315 22.2342C34.0931 22.1785 34.0991 22.0803 34.0405 22.0194C33.6922 21.634 33.3882 21.1986 33.1382 20.7325C31.6147 17.8764 32.4904 14.423 35.0863 13.0356C37.6831 11.6511 41.0366 12.8467 42.5572 15.7038C42.6473 15.8698 42.7268 16.0424 42.7986 16.2112C42.8311 16.2903 42.9186 16.3224 43.0013 16.2919C43.0379 16.2766 43.0668 16.2478 43.0794 16.2083C43.0958 16.1708 43.0949 16.1294 43.0796 16.0927C43.0049 15.9152 42.9168 15.7358 42.8248 15.564C42.0487 14.107 40.7979 13.0155 39.3046 12.4886C38.1179 12.0657 36.8882 12.0454 35.7653 12.4165Z" fill="#263238"/>
<path d="M67.1409 57.6531C67.1409 57.6531 77.9161 50.8959 80.423 46.2167C80.423 46.2167 81.1803 52.0632 84.0616 54.3198C86.943 56.5763 97.1506 61.6932 99.0082 62.7896C100.866 63.886 104.585 66.6808 105.321 66.3316C106.06 65.9814 107.028 61.8107 107.382 60.6223C107.736 59.4367 108.705 58.4361 108.357 56.7348C108.008 55.0306 107.013 55.2538 106.789 55.8638C106.564 56.4738 105.074 58.6382 103.951 59.436C102.828 60.2339 101.624 61.1326 101.624 61.1326C101.624 61.1326 97.222 57.9859 93.3191 53.9267C89.4162 49.8675 84.0211 41.6037 82.6472 40.0234C81.2713 38.4469 79.9255 38.2499 78.4823 38.7269C77.0391 39.2039 72.4208 40.7303 65.5178 46.9683C58.6147 53.2063 60.0506 56.5823 61.2362 57.5831C62.4199 58.5877 64.6961 59.0131 67.1409 57.6531Z" fill="#4592D0"/>
<path d="M105.344 66.4904C104.744 66.6888 103.165 65.6897 100.846 64.1555C100.132 63.6821 99.4562 63.2349 98.9318 62.9269C98.4073 62.6189 97.2153 61.9861 95.7052 61.1856C91.8591 59.1484 86.0456 56.0704 83.9718 54.4455C81.5013 52.512 80.5799 48.0867 80.3402 46.6738C77.5065 51.3037 67.6496 57.5168 67.2231 57.7861C67.2203 57.7871 67.2174 57.788 67.2154 57.7919C64.7234 59.1738 62.3694 58.7453 61.1396 57.7078C60.8334 57.4496 60.1204 56.6969 60.0942 55.2809C60.0655 53.6635 60.9669 50.8883 65.4187 46.8628C72.3459 40.6008 76.9295 39.0859 78.4362 38.5879C80.1074 38.0355 81.4845 38.4628 82.7635 39.9301C83.2269 40.4605 84.1293 41.7281 85.2744 43.3327C87.6201 46.6231 90.8338 51.1251 93.4306 53.8286C96.9737 57.5158 100.979 60.4791 101.624 60.9494C101.924 60.7249 102.928 59.9826 103.864 59.3171C104.965 58.5327 106.437 56.3807 106.647 55.814C106.776 55.4667 107.102 55.2433 107.443 55.2685C107.68 55.2866 108.254 55.4628 108.509 56.7101C108.763 57.9544 108.352 58.822 107.952 59.6568C107.788 60.003 107.633 60.3272 107.529 60.6726C107.463 60.8969 107.371 61.2318 107.265 61.6264C106.624 64.017 105.996 66.1852 105.387 66.4732C105.373 66.4809 105.359 66.4857 105.344 66.4904ZM80.376 46.0748C80.3991 46.0671 80.4269 46.0643 80.451 46.0692C80.5154 46.08 80.5653 46.1341 80.5738 46.1987C80.5804 46.2575 81.3581 52.0106 84.1539 54.2024C86.2067 55.8118 92.0048 58.8821 95.8432 60.9153C97.3571 61.7178 98.5559 62.3516 99.0851 62.6645C99.6144 62.9773 100.294 63.4264 101.012 63.9017C102.523 64.9006 104.812 66.4097 105.257 66.1983C105.791 65.9447 106.589 62.9728 106.973 61.5465C107.081 61.148 107.171 60.8102 107.238 60.586C107.347 60.2193 107.516 59.8683 107.677 59.5297C108.055 58.7372 108.444 57.9187 108.21 56.7736C108.06 56.0498 107.765 55.6018 107.42 55.5747C107.216 55.5587 107.014 55.7025 106.932 55.9219C106.707 56.529 105.205 58.7358 104.042 59.5662C102.933 60.3564 101.73 61.2512 101.718 61.2618C101.664 61.302 101.593 61.3028 101.539 61.2631C101.494 61.2331 97.0803 58.0613 93.2119 54.0389C90.5978 51.3218 87.3794 46.8053 85.026 43.5111C83.8867 41.9142 82.9862 40.6523 82.5323 40.1317C81.3263 38.7494 80.0934 38.3611 78.5289 38.8781C77.0366 39.3713 72.4992 40.871 65.6183 47.0888C61.2493 51.0357 60.3654 53.7184 60.3933 55.2751C60.4158 56.564 61.0559 57.2413 61.3314 57.4743C62.4815 58.4451 64.6952 58.8366 67.0602 57.5255C67.3037 57.3712 77.8422 50.7114 80.2883 46.1487C80.3086 46.1131 80.3413 46.0862 80.376 46.0748ZM67.1417 57.6558L67.1445 57.6549L67.1417 57.6558Z" fill="#263238"/>
<path d="M108.359 56.7373C108.01 55.0331 107.015 55.2563 106.79 55.8662C106.566 56.4762 105.076 58.6407 103.953 59.4385C102.83 60.2363 101.626 61.135 101.626 61.135C101.626 61.135 98.1967 58.6841 94.7088 55.3188C94.2119 57.2639 93.173 58.5186 92.3726 59.2356C95.3513 60.8374 98.1265 62.2691 99.0101 62.7921C100.868 63.8885 104.586 66.6833 105.323 66.3341C106.062 65.9839 107.03 61.8132 107.383 60.6247C107.74 59.4382 108.711 58.4405 108.359 56.7373Z" fill="#FEDEA5"/>
<path d="M105.344 66.4901C104.744 66.6885 103.165 65.6894 100.846 64.1552C100.132 63.6818 99.4564 63.2346 98.932 62.9266C98.4075 62.6186 97.2116 61.9838 95.6977 61.1814C94.6728 60.6377 93.5018 60.0203 92.3011 59.3711C92.2579 59.3469 92.2282 59.3054 92.2216 59.2562C92.2149 59.2071 92.2342 59.159 92.2708 59.1244C93.0433 58.4295 94.0716 57.2008 94.5617 55.2836C94.5762 55.2306 94.6177 55.1913 94.6667 55.1751C94.7196 55.1608 94.7754 55.1744 94.8138 55.2131C97.9437 58.2314 101.06 60.5388 101.621 60.95C101.922 60.7256 102.925 59.9832 103.861 59.3177C104.962 58.5333 106.435 56.3813 106.644 55.8147C106.773 55.4673 107.099 55.2439 107.441 55.2691C107.677 55.2872 108.251 55.4634 108.506 56.7107C108.761 57.9551 108.349 58.8226 107.95 59.6574C107.786 60.0037 107.63 60.3278 107.527 60.6733C107.46 60.8975 107.369 61.2324 107.262 61.627C106.621 64.0177 105.993 66.1859 105.384 66.4739C105.373 66.4806 105.359 66.4853 105.344 66.4901ZM92.6332 59.2036C93.7695 59.8131 94.8684 60.3966 95.8415 60.9093C97.3592 61.7136 98.5581 62.3475 99.0873 62.6603C99.6165 62.9731 100.296 63.4223 101.014 63.8975C102.525 64.8965 104.814 66.4056 105.259 66.1941C105.794 65.9406 106.592 62.9686 106.975 61.5423C107.083 61.1439 107.173 60.806 107.24 60.5818C107.35 60.2152 107.519 59.8641 107.679 59.5256C108.057 58.7331 108.446 57.9146 108.212 56.7695C108.062 56.0456 107.767 55.5977 107.422 55.5706C107.218 55.5545 107.016 55.6983 106.935 55.9177C106.709 56.5248 105.207 58.7316 104.044 59.562C102.935 60.3522 101.732 61.247 101.72 61.2576C101.666 61.2979 101.596 61.2986 101.541 61.2589C101.507 61.2348 98.1867 58.8506 94.7928 55.6051C94.2915 57.3335 93.3788 58.4951 92.6332 59.2036Z" fill="#263238"/>
<path d="M40.2326 25.6596C40.2326 25.6596 42.3631 27.853 42.7847 28.6539C43.2062 29.4548 42.3826 30.2757 41.4652 30.8131C40.5479 31.3506 38.8114 31.2987 37.8446 33.5757C36.8779 35.8526 35.6177 44.8078 35.4488 46.1953C35.2827 47.5818 36.1726 48.3852 37.6289 47.5894C39.0852 46.7936 41.4212 39.9119 41.4212 39.9119C41.4212 39.9119 48.6424 44.4981 49.7201 45.6276C50.7987 46.76 51.3318 49.0899 51.9639 51.4673C52.5931 53.8457 53.3605 57.3496 56.3836 59.4053C59.4066 61.461 64.1031 60.772 67.1378 57.6511C70.1706 54.5342 71.9518 46.6422 69.3019 44.5434C66.6539 42.4407 62.2588 42.4237 60.2205 40.2768C58.1822 38.1299 58.1332 36.5866 57.2699 33.9743C56.4065 31.3621 54.7163 28.1856 54.7163 28.1856C54.7163 28.1856 60.2997 24.7359 67.004 21.4515C69.335 20.3089 66.8921 18.0422 65.2971 17.9436C63.2964 17.8187 55.7429 21.2265 53.5429 21.729C50.3675 22.4576 49.0086 23.6159 48.4678 24.3433C47.927 25.0708 47.2453 26.079 46.4459 26.2662C45.6465 26.4534 43.5426 22.9163 43.5426 22.9163C43.5426 22.9163 42.0631 25.2888 40.2326 25.6596Z" fill="#F37630"/>
<path d="M63.2727 60.2467C60.851 61.047 58.2456 60.8556 56.3 59.5316C53.397 57.5582 52.5464 54.2968 51.9249 51.9127L51.6557 50.885C51.0981 48.7524 50.5692 46.7356 49.6134 45.7327C48.6509 44.7191 42.5823 40.8302 41.5066 40.1428C41.1161 41.2666 39.0765 46.9722 37.7039 47.721C36.9792 48.1146 36.3252 48.1607 35.8662 47.8471C35.4158 47.5403 35.2083 46.9318 35.3001 46.1731C35.4457 44.9569 36.7186 35.8371 37.7047 33.512C38.4532 31.7469 39.6396 31.3355 40.5902 31.0053C40.8894 30.9032 41.1675 30.8049 41.3879 30.6775C41.798 30.4361 43.1015 29.5849 42.6493 28.7203C42.244 27.9494 40.1442 25.7811 40.1212 25.7598C40.0828 25.7212 40.0695 25.6614 40.084 25.6085C40.1014 25.5546 40.1428 25.5152 40.1996 25.5029C41.9454 25.1473 43.3998 22.8536 43.4152 22.8325C43.4422 22.7883 43.4942 22.7615 43.5451 22.7607C43.597 22.7628 43.647 22.788 43.6748 22.8333C44.6812 24.5223 45.9819 26.2102 46.4138 26.1124C47.0891 25.9566 47.7099 25.1128 48.2102 24.4373L48.3491 24.247C48.8484 23.5782 50.1805 22.3389 53.5108 21.5752C54.3352 21.3861 55.9739 20.7643 57.7088 20.1043C60.6734 18.9801 64.0335 17.7059 65.3074 17.7823C66.3794 17.8483 67.8746 18.8655 68.0908 19.9556C68.1841 20.4222 68.0829 21.0846 67.0714 21.5793C60.9869 24.5593 55.7675 27.7155 54.9175 28.2339C55.2404 28.8524 56.6535 31.6166 57.4145 33.9193C57.6038 34.4921 57.7509 35.0051 57.8952 35.4997C58.3996 37.2486 58.7636 38.5146 60.3335 40.1649C61.3699 41.2567 63.0363 41.7841 64.7996 42.3437C66.4275 42.8614 68.1082 43.3937 69.3977 44.4179C70.1696 45.0292 70.629 46.148 70.7262 47.6529C70.9439 51.0241 69.3844 55.557 67.2476 57.7521C66.1155 58.9284 64.7274 59.7659 63.2727 60.2467ZM41.3766 39.7687C41.4199 39.7543 41.467 39.7612 41.5064 39.7835C41.8022 39.9713 48.7544 44.3929 49.8331 45.5253C50.8436 46.5872 51.3811 48.6397 51.9491 50.8137L52.2183 51.8414C52.8274 54.1782 53.6627 57.3741 56.4706 59.2827C59.4649 61.319 64.1048 60.5557 67.0306 57.551C69.0817 55.4452 70.6335 50.9277 70.4232 47.6857C70.3298 46.2694 69.9115 45.2268 69.2087 44.6697C67.9635 43.6822 66.3077 43.1577 64.7087 42.6497C62.9059 42.0775 61.2031 41.5364 60.1129 40.3886C58.4931 38.6842 58.1004 37.3218 57.6037 35.596C57.4604 35.1043 57.3142 34.5943 57.1268 34.0273C56.2768 31.4555 54.6011 28.2935 54.5848 28.2636C54.5484 28.1922 54.5706 28.1046 54.64 28.0625C54.6958 28.028 60.3061 24.5725 66.9411 21.3207C67.6138 20.9925 67.9022 20.5571 67.7983 20.0298C67.6088 19.0785 66.2394 18.1609 65.2943 18.101C64.0848 18.0259 60.6112 19.344 57.8207 20.4042C56.0002 21.0958 54.4269 21.6927 53.5814 21.8856C50.3434 22.6284 49.0682 23.8072 48.5929 24.4424L48.4531 24.6298C47.9249 25.3466 47.2684 26.2375 46.4834 26.4199C45.6956 26.6033 44.0839 24.1004 43.5385 23.2057C43.1509 23.767 41.9807 25.3121 40.5203 25.7467C41.05 26.3032 42.5595 27.9061 42.9159 28.5873C43.3058 29.3312 42.7936 30.2129 41.5384 30.9486C41.2939 31.0904 40.9985 31.1945 40.6887 31.3033C39.7919 31.6125 38.6777 32 37.9814 33.642C37.0078 35.9372 35.7446 45.0089 35.5971 46.2193C35.52 46.8577 35.6777 47.3639 36.032 47.603C36.395 47.8488 36.9355 47.7985 37.5544 47.4624C38.6671 46.8572 40.4739 42.2298 41.2754 39.8695C41.2967 39.8175 41.3304 39.7839 41.3766 39.7687Z" fill="#263238"/>
<path d="M56.8542 20.5985C56.6579 20.673 56.4645 20.7465 56.2759 20.8153C56.6409 22.0552 57.467 24.0219 59.2391 25.5477C59.423 25.4452 59.6145 25.3369 59.8061 25.2287C58.03 23.7781 57.2087 21.7969 56.8542 20.5985Z" fill="#263238"/>
<path d="M59.4216 39.3238C59.2959 39.1568 59.1799 38.9897 59.0744 38.8256C55.0285 41.241 52.2709 45.2971 50.8856 47.7219C50.9774 47.9708 51.0625 48.2282 51.1485 48.4982C52.3922 46.2164 55.1909 41.8291 59.4216 39.3238Z" fill="#263238"/>
<path d="M48.8986 44.9357C49.0868 45.0789 49.2557 45.2123 49.393 45.3274C50.2693 43.6099 52.666 39.7694 57.9314 36.1616C57.8712 35.96 57.8111 35.7489 57.7509 35.5378C52.3286 39.1845 49.8521 43.0739 48.8986 44.9357Z" fill="#263238"/>
<path d="M41.4202 36.7122C42.4191 36.2569 47.1121 33.8715 52.7589 26.855C53.6861 27.7712 54.4686 28.3757 54.5377 28.4299C54.6193 28.4928 54.727 28.5085 54.8193 28.478C54.8338 28.4732 54.8501 28.4646 54.8636 28.457C54.7755 28.2871 54.7237 28.1887 54.7237 28.1887C54.7237 28.1887 54.8142 28.1331 54.9817 28.0297C54.9616 27.9978 54.9395 27.9698 54.9088 27.9447C54.8742 27.9176 51.6174 25.4065 50.506 22.78C50.3135 22.8757 50.1316 22.9743 49.9689 23.073C50.192 23.5833 50.4834 24.087 50.8142 24.5649C46.6976 30.3216 41.6033 32.9069 40.204 33.5362C39.8111 32.8318 39.4151 32.2824 39.1023 31.8981C38.9463 32.017 38.7922 32.1514 38.6438 32.3127C38.9124 32.6507 39.2519 33.1257 39.5941 33.725C39.1148 33.4277 38.5873 33.2363 38.0722 33.1113C37.995 33.2556 37.9168 33.4066 37.8472 33.5739C37.8328 33.6076 37.8192 33.6442 37.8047 33.6778C38.7649 33.8899 39.7794 34.3536 40.3516 35.3293C40.5526 35.8501 40.7294 36.4239 40.8619 37.0475C40.1958 36.3884 39.0204 35.5736 37.2637 35.5381C37.2182 35.7296 37.1726 35.9308 37.128 36.1348C39.7944 36.1136 40.9446 38.063 41.0117 38.1788C41.0251 38.2001 41.0404 38.2175 41.0587 38.2339C41.0955 38.5683 41.1189 38.9103 41.125 39.2677C40.353 38.7046 38.7672 37.8104 36.7418 38.0274C36.7039 38.2324 36.6631 38.4384 36.6262 38.6464C39.0038 38.2938 40.7127 39.6671 41.1197 40.0364C41.1134 40.2983 41.111 40.5526 41.1077 40.804C41.3078 40.2566 41.4257 39.9063 41.4257 39.9063C41.4257 39.9063 41.5352 39.976 41.7254 40.0961C41.7274 40.0345 41.7275 39.9767 41.7295 39.915C41.7664 38.738 41.6395 37.6665 41.4202 36.7122ZM51.1844 25.0843C51.5508 25.5633 51.9422 26.0115 52.329 26.4163C46.9626 33.0995 42.3791 35.5738 41.2627 36.1096C41.1834 35.831 41.0954 35.5648 41.0046 35.3093C41.0017 35.2717 40.9912 35.2303 40.973 35.1946C40.9654 35.181 40.9577 35.1675 40.9491 35.1511C40.8027 34.7663 40.6457 34.4075 40.4828 34.0795C41.9793 33.3955 47.0496 30.786 51.1844 25.0843Z" fill="#263238"/>
<path d="M61.7522 41.3673C61.5476 41.2616 61.3516 41.1531 61.1643 41.0321C56.6162 44.1268 53.5959 48.2986 51.8924 51.1848C51.9172 51.2793 51.942 51.3738 51.9668 51.4683C52.0126 51.6457 52.0613 51.8317 52.11 52.0178C53.7375 49.1438 56.8605 44.6044 61.7522 41.3673Z" fill="#263238"/>
<path d="M57.0629 33.3681C56.994 33.179 56.9213 32.9881 56.8486 32.7971C49.5721 35.6384 47.1781 40.6493 46.4089 43.1754C46.5865 43.2963 46.7604 43.4154 46.9332 43.5315C47.5914 41.2122 49.8105 36.2046 57.0629 33.3681Z" fill="#263238"/>
<path d="M60.655 19.1751C60.4578 19.2467 60.2605 19.3183 60.0604 19.3909C60.2964 20.6766 60.8596 22.3709 62.1576 23.9442C62.3395 23.8456 62.5253 23.7489 62.7129 23.6483C61.4168 22.1097 60.8767 20.4175 60.655 19.1751Z" fill="#263238"/>
<path d="M52.7753 21.9272C53.4746 23.3262 54.7102 25.3983 56.5426 27.0966C56.7168 26.9941 56.9016 26.8849 57.0951 26.7728C55.3202 25.171 54.0932 23.1538 53.3824 21.7683C53.1755 21.8206 52.9716 21.872 52.7753 21.9272Z" fill="#263238"/>
<path d="M55.7675 30.3016C55.6775 30.1068 55.5884 29.9244 55.5051 29.7498C47.4518 33.5345 44.4194 38.4933 43.3279 41.1387C43.4998 41.252 43.6784 41.3662 43.8628 41.4882C44.8963 38.987 47.8489 34.0386 55.7675 30.3016Z" fill="#263238"/>
<path d="M67.1415 57.653C69.6511 55.0747 71.3015 49.2282 70.2959 46.0983C70.0806 45.5148 69.7671 45.0312 69.3447 44.6927C68.9875 44.4064 68.6006 44.1172 68.1963 43.824C66.8957 43.1244 65.3744 42.7062 63.9522 42.2393C58.3793 46.7477 54.8776 53.2702 53.415 55.8393C54.0597 57.1697 54.9746 58.4461 56.3872 59.4072C59.4102 61.4628 64.1067 60.7738 67.1415 57.653Z" fill="#4592D0"/>
<path d="M63.2725 60.2468C60.8508 61.0472 58.2454 60.8558 56.2998 59.5318C55.0284 58.6685 54.0373 57.4815 53.2759 55.9041C53.2548 55.8597 53.2559 55.8048 53.28 55.7615L53.553 55.2798C55.1854 52.3914 58.5793 46.3859 63.8547 42.1202C63.8951 42.0876 63.9461 42.0771 63.997 42.0956C64.2594 42.1822 64.5236 42.2649 64.7918 42.3496C65.9728 42.7262 67.1961 43.1144 68.2671 43.691C68.73 44.0258 69.1083 44.3083 69.4366 44.5752C69.8639 44.9185 70.2004 45.4138 70.4348 46.0455C71.4462 49.1928 69.8351 55.1001 67.2474 57.7619C66.1154 58.9286 64.7273 59.766 63.2725 60.2468ZM53.5856 55.8434C54.3184 57.334 55.2634 58.4592 56.4724 59.279C59.4666 61.3153 64.1065 60.552 67.0324 57.5473C69.5584 54.9508 71.1308 49.1975 70.15 46.1428C69.9376 45.568 69.6327 45.1201 69.2487 44.8106C68.9222 44.5495 68.5507 44.268 68.108 43.9458C67.0763 43.3915 65.8703 43.0071 64.7008 42.6363C64.4606 42.5585 64.2213 42.4836 63.984 42.4048C58.7914 46.6303 55.436 52.5685 53.822 55.4252L53.5856 55.8434Z" fill="#4592D0"/>
<path d="M34.0411 21.2263C33.9189 21.2731 33.8053 21.3364 33.7013 21.4189C32.8578 22.0731 32.9472 23.603 33.9026 24.8371C34.8551 26.0722 36.3109 26.5441 37.1554 25.8927C37.3336 25.7536 37.4676 25.5778 37.5631 25.3729L34.0411 21.2263Z" fill="white"/>
<path d="M36.7914 26.2545C36.419 26.3775 35.9835 26.3675 35.5213 26.2186C34.8793 26.0104 34.261 25.5537 33.7795 24.9299C33.2989 24.309 33.0147 23.5943 32.9736 22.918C32.9317 22.2195 33.1578 21.6442 33.6065 21.2969C33.7211 21.2077 33.8481 21.1368 33.9848 21.0853C34.0454 21.0652 34.1136 21.078 34.1558 21.1282L37.674 25.2729C37.7114 25.3183 37.72 25.3828 37.6958 25.4357C37.5848 25.6714 37.4344 25.8655 37.2457 26.0113C37.108 26.1177 36.9559 26.2001 36.7914 26.2545ZM33.9995 21.4109C33.9254 21.4482 33.859 21.4894 33.7955 21.5393C33.4286 21.8242 33.2459 22.3082 33.2814 22.8997C33.3177 23.5134 33.5828 24.1703 34.025 24.7429C34.4672 25.3155 35.0356 25.7373 35.6199 25.9261C36.1859 26.108 36.6995 26.0538 37.0635 25.7699C37.1906 25.6701 37.2995 25.5443 37.3834 25.3914L33.9995 21.4109Z" fill="#263238"/>
<path d="M34.0411 21.2268C33.9189 21.2736 33.8054 21.3368 33.7014 21.4193C33.6041 21.4932 33.5212 21.5815 33.4509 21.6786L37.1035 25.9296C37.1217 25.9172 37.141 25.9076 37.1583 25.8922C37.3365 25.7531 37.4705 25.5773 37.566 25.3724L34.0411 21.2268Z" fill="white"/>
<path d="M37.1623 26.0605C37.1017 26.0805 37.0228 26.0745 36.9845 26.0262L33.3319 21.7751C33.2849 21.7201 33.2812 21.6411 33.3265 21.5844C33.4113 21.4729 33.5038 21.375 33.6059 21.2963C33.7205 21.2071 33.8475 21.1362 33.9841 21.0846C34.0448 21.0646 34.113 21.0774 34.1552 21.1276L37.6734 25.2722C37.7108 25.3176 37.7193 25.3822 37.6952 25.4351C37.5842 25.6707 37.4338 25.8648 37.2451 26.0106C37.2297 26.0221 37.2162 26.0298 37.2008 26.0413C37.1873 26.049 37.1767 26.0557 37.1623 26.0605ZM33.6475 21.674L37.1197 25.7184C37.2256 25.6224 37.3095 25.5177 37.377 25.3927L33.996 21.4112C33.9219 21.4486 33.8555 21.4898 33.7919 21.5396C33.7409 21.579 33.6918 21.6241 33.6475 21.674Z" fill="#263238"/>
<path d="M41.7779 15.4453C41.855 15.3396 41.9446 15.2426 42.0496 15.163C42.8931 14.5088 44.349 14.9806 45.3015 16.2157C46.2568 17.4498 46.3463 18.9798 45.5056 19.633C45.3275 19.7721 45.1215 19.8562 44.9013 19.8969L41.7779 15.4453Z" fill="white"/>
<path d="M45.1494 19.9909C45.0772 20.0148 45.0031 20.0328 44.9252 20.0489C44.8675 20.0584 44.8089 20.0361 44.7734 19.9868L41.65 15.5352C41.6136 15.483 41.6128 15.4127 41.6494 15.3589C41.7343 15.2378 41.8373 15.1331 41.9519 15.0439C42.86 14.3427 44.4148 14.8236 45.4182 16.1253C45.8987 16.7462 46.1858 17.4599 46.224 18.1372C46.2659 18.8357 46.0427 19.4101 45.594 19.7573C45.464 19.858 45.3168 19.9356 45.1494 19.9909ZM44.9633 19.7283C45.1317 19.6855 45.2808 19.6137 45.4079 19.514C45.7748 19.2291 45.9575 18.7451 45.922 18.1536C45.8847 17.537 45.6206 16.883 45.1784 16.3104C44.2777 15.1448 42.9122 14.6848 42.137 15.2844C42.0735 15.3343 42.0147 15.389 41.9617 15.4514L44.9633 19.7283Z" fill="#263238"/>
<path d="M45.1495 19.9913C45.0773 20.0151 45.0032 20.0332 44.9253 20.0493C44.8676 20.0588 44.809 20.0364 44.7735 19.9872L41.6502 15.5356C41.6137 15.4834 41.6129 15.4131 41.6495 15.3593C41.7344 15.2382 41.8375 15.1335 41.952 15.0443C42.0541 14.9657 42.1696 14.8986 42.2995 14.846C42.3669 14.8174 42.4419 14.8407 42.484 14.9006L45.6744 19.5065C45.7185 19.5722 45.7088 19.6588 45.6481 19.7078C45.6211 19.7327 45.6095 19.7462 45.5932 19.7548C45.4641 19.8584 45.3169 19.936 45.1495 19.9913ZM44.9634 19.7287C45.1058 19.6945 45.2309 19.6371 45.3435 19.5613L42.3066 15.1774C42.2469 15.21 42.1882 15.2454 42.1372 15.2848C42.0736 15.3346 42.0149 15.3894 41.9619 15.4518L44.9634 19.7287Z" fill="#263238"/>
<path d="M47.7791 25.2544C47.383 25.7318 46.939 26.1513 46.4513 26.2644C45.6519 26.4516 43.548 22.9145 43.548 22.9145C43.548 22.9145 42.0646 25.2851 40.2341 25.6558C40.2341 25.6558 42.3646 27.8493 42.7862 28.6502C43.1283 29.2976 42.652 29.9588 41.9732 30.472C42.6973 31.4327 44.7107 33.5141 47.5708 31.7249C50.0709 30.1638 48.8046 27.0397 47.7791 25.2544Z" fill="#FEDEA5"/>
<path d="M46.5381 32.3893C44.1684 33.1725 42.5082 31.4429 41.8473 30.5671C41.8233 30.5333 41.8138 30.4948 41.8167 30.4553C41.8226 30.4148 41.8429 30.3793 41.8766 30.3553C42.3118 30.0253 42.9909 29.3773 42.6469 28.7241C42.2416 27.9531 40.1419 25.7848 40.1188 25.7636C40.0805 25.7249 40.0671 25.6651 40.0816 25.6122C40.099 25.5583 40.1405 25.519 40.1972 25.5066C41.9431 25.151 43.3974 22.8574 43.4128 22.8362C43.4398 22.792 43.4918 22.7652 43.5428 22.7644C43.5947 22.7665 43.6446 22.7917 43.6724 22.8371C44.6789 24.526 45.9795 26.214 46.4115 26.1161C46.7885 26.0268 47.1872 25.7218 47.6565 25.1559C47.6883 25.1165 47.7364 25.0974 47.7855 25.1005C47.8345 25.1035 47.8797 25.1335 47.9036 25.1769C48.931 26.9681 50.2663 30.2137 47.642 31.8544C47.2617 32.0988 46.8931 32.2719 46.5381 32.3893ZM42.184 30.5008C42.9571 31.4742 44.8519 33.245 47.4867 31.5976C49.8087 30.1467 48.7084 27.2438 47.7539 25.5184C47.435 25.8805 46.9928 26.2962 46.484 26.4131C45.6961 26.5964 44.0845 24.0935 43.5391 23.1988C43.1515 23.7601 41.9812 25.3053 40.5208 25.7398C41.0505 26.2964 42.56 27.8993 42.9164 28.5805C43.2345 29.1845 42.9717 29.8618 42.184 30.5008Z" fill="#FEDEA5"/>
<path d="M44.8824 24.9087C44.5515 24.4693 44.2341 24.003 43.9925 23.6305C43.8256 23.4257 43.6606 23.2075 43.4985 22.9883C43.244 23.3709 41.8816 25.3228 40.2281 25.6576C40.2281 25.6576 40.9479 26.4016 41.6339 27.1792C42.382 27.1566 43.392 26.9961 44.0162 26.3565C44.4112 25.9532 44.6872 25.4224 44.8824 24.9087Z" fill="#263238"/>
<path d="M43.0489 27.1023C42.5697 27.2607 42.0629 27.3159 41.6417 27.33C41.5975 27.3317 41.5523 27.3114 41.5226 27.2795C40.8461 26.5115 40.1273 25.7704 40.1216 25.7627C40.0832 25.724 40.0699 25.6643 40.0844 25.6113C40.1018 25.5574 40.1432 25.5181 40.2 25.5057C41.7909 25.1853 43.1205 23.2794 43.3731 22.9007C43.4011 22.8594 43.4473 22.8345 43.4983 22.8337C43.5492 22.8329 43.5953 22.8561 43.6241 22.8948C43.7939 23.1275 43.9579 23.3428 44.1123 23.5292C44.4249 24.0099 44.7298 24.4482 45.0032 24.8103C45.0358 24.8509 45.0415 24.9068 45.026 24.9568C44.7863 25.5879 44.4854 26.0917 44.1318 26.4556C43.8284 26.7677 43.4472 26.9707 43.0489 27.1023ZM41.7038 27.0238C42.4116 26.9953 43.3407 26.8326 43.9101 26.2497C44.2203 25.929 44.4904 25.4868 44.7078 24.9336C44.3759 24.4914 44.0662 24.029 43.8629 23.7143C43.7517 23.581 43.6289 23.4227 43.5023 23.2527C43.0858 23.8428 41.9388 25.3225 40.5187 25.7437C40.7711 26.0037 41.2442 26.5051 41.7038 27.0238Z" fill="#263238"/>
<path d="M33.9033 20.2291C33.9033 20.2291 36.2911 24.1408 37.3683 25.0363C38.4464 25.9346 41.4263 26.4354 42.671 26.1813C43.9157 25.9272 44.2709 24.1636 44.5784 22.7303C44.8859 21.297 44.7696 20.238 43.9762 18.7771C43.1799 17.3171 41.4485 15.149 40.3005 14.0395C39.5567 13.3195 37.1109 13.1363 35.3001 14.2835C33.4893 15.4307 32.8045 18.0861 33.9033 20.2291Z" fill="#FEDEA5"/>
<path d="M42.8815 26.285C42.8238 26.3041 42.7651 26.3203 42.7016 26.3316C41.3549 26.6067 38.3675 26.0634 37.273 25.1544C36.1872 24.2522 33.8742 20.4698 33.7764 20.3095C33.7754 20.3066 33.7716 20.3047 33.7697 20.2989C32.6545 18.1261 33.3059 15.3694 35.2197 14.1561C37.1181 12.9543 39.635 13.1878 40.4066 13.9339C41.5306 15.0192 43.288 17.198 44.1111 18.7101C44.8911 20.1401 45.0564 21.2407 44.7285 22.7674L44.7101 22.8473C44.4181 24.2113 44.0563 25.8968 42.8815 26.285ZM34.0353 20.1534C34.1322 20.3107 36.4347 24.0613 37.4639 24.9181C38.4757 25.7613 41.3661 26.2917 42.6377 26.0319C43.7603 25.8053 44.1211 24.1265 44.4121 22.7789L44.4305 22.699C44.7468 21.2339 44.5929 20.2259 43.8436 18.8498C43.0348 17.3619 41.3023 15.2198 40.1957 14.148C39.5094 13.486 37.1328 13.2992 35.3836 14.4099C33.5969 15.5428 32.994 18.1166 34.0353 20.1534Z" fill="#263238"/>
<path d="M39.1834 21.3078C39.1748 21.3106 39.1661 21.3135 39.1565 21.3134C39.0738 21.3247 38.9979 21.2696 38.9837 21.1877C38.9818 21.1723 38.9267 20.8022 39.1859 20.4919C39.3999 20.2383 39.753 20.1055 40.2338 20.0974C40.3165 20.0958 40.3866 20.1625 40.3893 20.2482C40.391 20.331 40.3217 20.4021 40.239 20.4038C39.8505 20.4102 39.5744 20.5047 39.4202 20.6872C39.2496 20.888 39.2818 21.1405 39.2828 21.1434C39.2971 21.2156 39.2527 21.2849 39.1834 21.3078Z" fill="#263238"/>
<path d="M40.1691 22.8457C39.4821 23.0727 38.8813 22.96 38.8669 22.9551C38.7843 22.9375 38.7325 22.8584 38.7471 22.7766C38.7645 22.6938 38.8435 22.642 38.9252 22.6567C39.0146 22.6753 41.135 23.0655 41.7322 20.4551C41.7497 20.3723 41.8325 20.3225 41.9151 20.3401C41.9978 20.3577 42.0476 20.4407 42.0302 20.5235C41.6937 22.0048 40.8849 22.6091 40.1691 22.8457Z" fill="#263238"/>
<path d="M37.0183 21.8851C36.6921 21.9929 36.448 21.9517 36.4278 21.9487C36.2644 21.9193 36.1541 21.76 36.1823 21.5934C36.2115 21.4298 36.3674 21.3205 36.5299 21.347C36.5674 21.3539 37.2403 21.4235 37.7568 20.3029C37.8283 20.151 38.0073 20.0822 38.159 20.1539C38.3108 20.2257 38.3797 20.4051 38.3083 20.5571C37.9144 21.4189 37.408 21.7563 37.0183 21.8851Z" fill="#263238"/>
<path d="M40.7621 19.0308C40.4648 19.129 40.1667 19.1666 39.9359 19.1659C39.7695 19.1663 39.6313 19.0291 39.6326 18.8586C39.632 18.6919 39.7688 18.5537 39.9361 18.5561C39.9909 18.5573 41.2861 18.5431 41.3244 17.5838C41.3296 17.4153 41.4721 17.2847 41.6404 17.2901C41.8086 17.2955 41.9391 17.4384 41.934 17.607C41.9027 18.4228 41.3365 18.8409 40.7621 19.0308Z" fill="#263238"/>
<path d="M35.5924 20.6137C35.5174 20.6385 35.4348 20.6016 35.4041 20.5283C35.3898 20.4945 35.0519 19.6756 35.4176 18.9804C35.6405 18.5601 36.0641 18.2822 36.6826 18.158C36.7634 18.1409 36.8451 18.1941 36.8632 18.278C36.8803 18.359 36.8302 18.4397 36.7436 18.4587C36.2184 18.5649 35.8632 18.7882 35.6866 19.1257C35.3874 19.6931 35.6803 20.4049 35.6832 20.4136C35.7157 20.4927 35.6809 20.5812 35.602 20.6137C35.6011 20.6108 35.5953 20.6127 35.5924 20.6137Z" fill="#263238"/>
<path d="M38.5115 17.1428C38.4769 17.1542 38.4384 17.1541 38.4009 17.1376C38.325 17.1017 38.2896 17.0139 38.3244 16.9351C38.3302 16.9235 38.9365 15.6289 40.5636 16.0089C40.6463 16.0265 40.6961 16.1095 40.6787 16.1923C40.6612 16.275 40.5784 16.3249 40.4958 16.3073C39.1079 15.983 38.6059 17.0506 38.6001 17.0621C38.5818 17.1035 38.549 17.1304 38.5115 17.1428Z" fill="#263238"/>
<path d="M32.0938 23.0238C32.0938 23.0238 32.6069 25.2834 33.004 25.7778C33.4012 26.2723 36.0041 27.7641 36.5198 28.1424C37.0354 28.5207 37.1276 28.5672 36.867 30.1422C36.6063 31.7173 33.6287 42.3344 34.1388 44.5949C34.6519 46.8544 35.4463 48.7834 37.6303 47.5931C39.8172 46.4019 39.2156 40.0964 39.1061 36.452C38.9966 32.8077 38.6294 28.1511 38.3253 27.2312C38.0223 26.3141 34.3045 25.0047 33.8981 24.8406C33.4946 24.6755 32.9564 23.5217 32.747 22.8882C32.5386 22.2479 32.1864 22.3643 32.0938 23.0238Z" fill="#FEDEA5"/>
<path d="M37.1149 47.9836C36.6127 48.1496 36.1627 48.1443 35.7707 47.9658C34.7687 47.5108 34.309 46.023 33.9934 44.6224C33.6052 42.9056 35.1623 36.5733 36.0925 32.7907C36.4046 31.5164 36.6545 30.5096 36.7187 30.113C36.9619 28.6496 36.9033 28.608 36.4501 28.2733C36.2686 28.1407 35.8739 27.8957 35.4148 27.6111C34.4159 26.9914 33.1693 26.2225 32.8863 25.87C32.4786 25.363 31.9979 23.2885 31.9464 23.0553C31.9436 23.0369 31.9407 23.0186 31.9437 22.9984C32.0041 22.5806 32.168 22.3306 32.3911 22.3082C32.5123 22.2971 32.7381 22.3508 32.8969 22.831C33.1493 23.5947 33.6676 24.5721 33.9597 24.6906C34.001 24.709 34.0808 24.7372 34.1903 24.778C36.9124 25.8069 38.2744 26.5665 38.4752 27.174C38.7955 28.1431 39.1549 32.8632 39.2636 36.4372C39.279 36.9006 39.2983 37.4045 39.3232 37.9353C39.4827 41.6048 39.6992 46.6289 37.7077 47.7139C37.5008 47.8336 37.3025 47.9216 37.1149 47.9836ZM32.2446 23.0177C32.3924 23.6587 32.8143 25.3034 33.1184 25.681C33.3688 25.9929 34.6932 26.8131 35.5701 27.3544C36.0532 27.6536 36.4316 27.8879 36.6054 28.0166C37.2045 28.4539 37.2715 28.6179 37.0138 30.1631C36.9467 30.5703 36.6958 31.5838 36.3828 32.8649C35.4603 36.6225 33.9139 42.9095 34.2858 44.5578C34.57 45.8052 35.0056 47.2881 35.8934 47.6878C36.3487 47.8935 36.8931 47.8163 37.5582 47.4553C39.3841 46.4603 39.1684 41.5451 39.0136 37.9574C38.9906 37.4227 38.9675 36.9169 38.9549 36.4526C38.8381 32.5828 38.4619 28.1218 38.1818 27.2741C38.0689 26.9328 37.2644 26.2713 34.0782 25.0686C33.9677 25.0249 33.8841 24.9947 33.8399 24.9773C33.348 24.7772 32.7927 23.5136 32.5996 22.9292C32.5145 22.6718 32.428 22.6137 32.4088 22.6136C32.3905 22.6165 32.2961 22.699 32.2446 23.0177Z" fill="#263238"/>
<path d="M39.1072 36.4479C39.0963 36.0857 39.0826 35.7148 39.067 35.3381L35.6712 35.148C34.798 38.7834 33.8281 43.2209 34.1399 44.5907C34.653 46.8502 35.4474 48.7793 37.6314 47.589C39.8183 46.3977 39.2176 40.0951 39.1072 36.4479Z" fill="#F26F1F"/>
<path d="M37.1152 47.984C36.613 48.15 36.163 48.1447 35.771 47.9662C34.769 47.5112 34.3093 46.0234 33.9936 44.6228C33.6694 43.1865 34.7128 38.5065 35.5279 35.1117C35.5463 35.0414 35.6098 34.9915 35.6848 34.9956L39.0797 35.1828C39.1575 35.186 39.2199 35.2488 39.2236 35.3278C39.2393 35.7045 39.2539 36.0783 39.2648 36.4405C39.2803 36.9039 39.2995 37.4077 39.3245 37.9385C39.4839 41.6081 39.7004 46.6322 37.709 47.7171C37.5011 47.834 37.3028 47.922 37.1152 47.984ZM35.791 35.3071C34.9885 38.6624 33.9809 43.199 34.2889 44.5572C34.5731 45.8046 35.0088 47.2875 35.8965 47.6872C36.3519 47.8929 36.8963 47.8157 37.5614 47.4547C39.3873 46.4597 39.1715 41.5445 39.0168 37.9568C38.9937 37.4221 38.9706 36.9163 38.958 36.452C38.949 36.1341 38.9381 35.8104 38.9224 35.4819L35.791 35.3071Z" fill="#263238"/>
<path d="M35.0563 37.8124C35.0515 37.8364 35.0466 37.8605 35.0417 37.8846C35.0291 37.9433 35.0156 37.9991 35.003 38.0578C34.9748 38.1858 34.9496 38.3129 34.9205 38.438C35.7505 38.3627 37.1939 38.2932 39.186 38.4017C39.1777 38.1926 39.1685 37.9903 39.1602 37.7909C37.3046 37.6886 35.9228 37.741 35.0563 37.8124Z" fill="#263238"/>
<path d="M38.8162 45.7983C38.8811 45.5779 38.9373 45.3411 38.9868 45.0937C37.0711 45.7686 35.5286 45.8869 34.4767 45.8431C34.5494 46.0629 34.6278 46.2713 34.7121 46.468C35.739 46.4848 37.1286 46.3496 38.8162 45.7983Z" fill="#263238"/>
<path d="M34.3067 41.6575C34.2969 41.7152 34.2872 41.773 34.2804 41.8298C34.2716 41.8905 34.2609 41.955 34.2521 42.0156C34.2375 42.1167 34.2268 42.2101 34.2141 42.3074C35.3886 42.0443 37.2151 41.7872 39.2608 42.0385C39.264 41.8352 39.2663 41.6291 39.2658 41.4239C37.2816 41.1844 35.5158 41.4022 34.3067 41.6575Z" fill="#263238"/>
<path d="M43.5408 13.7179C43.5408 13.7179 45.755 14.3916 46.2176 14.8227C46.6812 15.2567 47.979 17.9628 48.3184 18.5052C48.6577 19.0476 48.6989 19.1431 50.2867 18.997C51.8735 18.848 62.6604 16.6306 64.8716 17.3053C67.0857 17.979 68.9494 18.9097 67.6069 21.0091C66.2645 23.1086 60.03 22.0597 56.4076 21.6878C52.7852 21.3159 48.175 20.6191 47.2814 20.2502C46.3879 19.8813 45.3499 16.0721 45.216 15.6575C45.0822 15.2428 43.9709 14.6218 43.3521 14.3675C42.7391 14.1112 42.8811 13.7658 43.5408 13.7179Z" fill="#FEDEA5"/>
<path d="M66.3292 22.056C64.2567 22.741 60.6748 22.3268 57.885 22.0038C57.3563 21.9443 56.8564 21.8849 56.3959 21.8382C52.8437 21.4752 48.1691 20.7772 47.2275 20.3888C46.6376 20.1442 45.9749 18.7299 45.1474 15.9357C45.114 15.8249 45.0901 15.7429 45.0757 15.6995C44.9792 15.3977 44.0418 14.809 43.3001 14.5023C42.8332 14.31 42.7951 14.0787 42.8136 13.9603C42.8487 13.7369 43.1114 13.5923 43.5307 13.5629C43.55 13.5629 43.5692 13.563 43.5874 13.5698C43.8181 13.638 45.8477 14.2668 46.3238 14.7095C46.6568 15.0197 47.3323 16.3175 47.8784 17.3596C48.1285 17.8353 48.3421 18.2492 48.4504 18.4219C48.762 18.919 48.7984 18.9808 50.2737 18.843C50.6738 18.8038 51.6952 18.6299 52.986 18.4086C56.8181 17.7486 63.2346 16.6451 64.9182 17.1572C66.2857 17.5748 67.7366 18.1382 68.1202 19.173C68.3259 19.7275 68.1968 20.3735 67.7387 21.0896C67.4513 21.5376 66.9613 21.8471 66.3292 22.056ZM43.2647 13.9203C43.1521 13.9575 43.1155 14.0017 43.1126 14.0123C43.1116 14.0287 43.1643 14.1204 43.4131 14.2242C43.98 14.4572 45.199 15.1037 45.3625 15.608C45.3768 15.6514 45.4016 15.7362 45.436 15.85C46.4078 19.1195 47.0091 19.9701 47.3396 20.1079C48.163 20.4487 52.577 21.1429 56.4234 21.5339C56.8839 21.5806 57.3867 21.6391 57.9164 21.7015C61.4781 22.1127 66.3578 22.6755 67.4794 20.925C67.8892 20.2858 68.0028 19.7477 67.8315 19.278C67.4938 18.3628 66.0496 17.8197 64.8292 17.4497C63.2167 16.9591 56.8454 18.054 53.0374 18.7093C51.7379 18.9334 50.7136 19.1083 50.301 19.1484C48.7421 19.2946 48.5845 19.2151 48.2039 18.6061C48.0764 18.4044 47.8714 18.0068 47.606 17.5041C47.1279 16.5904 46.4084 15.2077 46.1137 14.9361C45.7576 14.6046 44.1509 14.0638 43.5244 13.873C43.4119 13.8813 43.3282 13.8993 43.2647 13.9203Z" fill="#263238"/>
<path d="M56.4096 21.6866C56.052 21.6508 55.68 21.6101 55.307 21.5665L55.3624 18.1596C59.0443 17.5492 63.535 16.8961 64.8736 17.3041C67.0878 17.9777 68.9514 18.9085 67.609 21.0079C66.2666 23.1073 60.032 22.0585 56.4096 21.6866Z" fill="#F26F1F"/>
<path d="M66.3292 22.0564C64.2567 22.7414 60.6748 22.3272 57.885 22.0042C57.3563 21.9447 56.8564 21.8853 56.3959 21.8386C56.0344 21.8008 55.6663 21.7621 55.2904 21.7194C55.2135 21.7095 55.153 21.6429 55.156 21.5649L55.2115 18.158C55.2126 18.0838 55.2627 18.0224 55.3387 18.0101C58.7773 17.4384 63.5123 16.7302 64.9211 17.1566C66.2886 17.5743 67.7394 18.1376 68.1231 19.1724C68.3287 19.727 68.1996 20.3729 67.7416 21.0891C67.4513 21.538 66.9584 21.8485 66.3292 22.0564ZM56.4244 21.5372C56.8849 21.5839 57.3876 21.6424 57.9173 21.7048C61.4791 22.116 66.3588 22.6788 67.4803 20.9283C67.8902 20.2891 68.0037 19.751 67.8325 19.2813C67.4948 18.3661 66.0506 17.823 64.8301 17.453C63.4992 17.049 58.9094 17.7316 55.5122 18.2929L55.4621 21.4349C55.787 21.4686 56.109 21.5034 56.4244 21.5372Z" fill="#263238"/>
<path d="M61.9447 22.2377C62.1504 22.2499 62.3514 22.2573 62.5523 22.2647L62.8282 17.1998C62.6955 17.2051 62.5609 17.2143 62.4204 17.2254C62.3926 17.2282 62.3608 17.2291 62.3329 17.2319C62.2954 17.2347 62.255 17.2384 62.2175 17.2412L61.9447 22.2377Z" fill="#263238"/>
<path d="M59.1932 17.5735C59.1412 17.581 59.0864 17.5895 59.0335 17.5942C58.8931 17.6149 58.7517 17.6327 58.6113 17.6535L58.3312 21.9015C58.4869 21.9174 58.6436 21.9362 58.8003 21.955C58.8436 21.96 58.8897 21.964 58.9368 21.9709L59.2268 17.5688C59.2153 17.5726 59.2057 17.5726 59.1932 17.5735Z" fill="#263238"/>
<path d="M66.004 17.6939C65.906 18.705 65.7189 20.5413 65.4986 22.1126C65.7218 22.071 65.9363 22.0225 66.1345 21.9634C66.3304 20.5317 66.494 18.9438 66.5891 17.9529C66.4047 17.8599 66.2068 17.7745 66.004 17.6939Z" fill="#263238"/>
<path d="M102.138 62.0379C102.811 62.1363 103.485 62.5556 103.485 62.5556C103.485 62.5556 103.457 63.3444 102.301 65.0678C103.675 65.7562 104.95 66.5154 105.327 66.3365C106.066 65.9864 107.034 61.8157 107.387 60.6272C107.741 59.4416 108.711 58.441 108.363 56.7397C108.014 55.0356 107.019 55.2587 106.794 55.8687C106.57 56.4787 104.734 58.8376 103.612 59.6383C102.49 60.4361 101.628 61.1413 101.628 61.1413C101.628 61.1413 101.466 61.9394 102.138 62.0379Z" fill="#F37630"/>
<path d="M105.344 66.4904C104.981 66.6106 104.26 66.2519 103.052 65.6276C102.786 65.491 102.507 65.3456 102.227 65.204C102.188 65.1846 102.157 65.1499 102.147 65.1084C102.136 65.067 102.143 65.0198 102.166 64.9833C103.065 63.6434 103.268 62.8802 103.312 62.6376C103.115 62.5262 102.609 62.2635 102.111 62.1906C101.889 62.1581 101.722 62.0593 101.607 61.8952C101.382 61.5747 101.468 61.1261 101.475 61.1078C101.482 61.0731 101.501 61.0414 101.529 61.0193C101.536 61.0136 102.406 60.3026 103.521 59.5105C104.633 58.7194 106.435 56.3913 106.65 55.813C106.779 55.4657 107.105 55.2423 107.446 55.2675C107.683 55.2856 108.256 55.4618 108.512 56.7091C108.766 57.9535 108.355 58.821 107.955 59.6558C107.791 60.0021 107.636 60.3262 107.532 60.6716C107.465 60.8959 107.374 61.2308 107.268 61.6254C106.627 64.016 105.999 66.1842 105.39 66.4722C105.375 66.477 105.359 66.4856 105.344 66.4904ZM102.517 65.0085C102.748 65.1248 102.973 65.243 103.193 65.3564C104.051 65.8042 105.025 66.3073 105.257 66.1982C105.792 65.9447 106.589 62.9727 106.973 61.5464C107.081 61.148 107.171 60.8102 107.238 60.5859C107.348 60.2193 107.516 59.8682 107.677 59.5297C108.055 58.7372 108.444 57.9187 108.21 56.7736C108.06 56.0497 107.765 55.6018 107.42 55.5747C107.216 55.5586 107.014 55.7025 106.933 55.9218C106.703 56.5434 104.871 58.9263 103.696 59.7606C102.735 60.4443 101.959 61.0631 101.768 61.2195C101.757 61.3225 101.746 61.5604 101.86 61.7217C101.926 61.8153 102.024 61.8696 102.159 61.8893C102.856 61.9926 103.535 62.41 103.564 62.4293C103.612 62.4584 103.638 62.5105 103.633 62.5635C103.631 62.5933 103.593 63.3696 102.517 65.0085Z" fill="#263238"/>
<path d="M107.665 55.4913C108.072 57.555 107.657 58.4042 106.176 61.6533C105.02 64.1888 104.724 65.6182 104.653 66.2961C104.959 66.378 105.192 66.3971 105.323 66.3378C106.062 65.9876 107.031 61.8169 107.384 60.6285C107.738 59.4429 108.707 58.4423 108.36 56.741C108.21 56.0075 107.942 55.6338 107.665 55.4913Z" fill="white"/>
<path d="M105.336 66.4934C105.177 66.5459 104.944 66.5297 104.615 66.443C104.542 66.4254 104.493 66.3549 104.504 66.2808C104.585 65.4998 104.916 64.0522 106.039 61.5889L106.125 61.4032C107.531 58.3234 107.908 57.4962 107.517 55.5203C107.505 55.4634 107.53 55.4038 107.576 55.3692C107.622 55.3347 107.685 55.3301 107.739 55.3573C107.99 55.4891 108.331 55.8321 108.512 56.7093C108.766 57.9536 108.355 58.8212 107.955 59.656C107.791 60.0022 107.636 60.3264 107.532 60.6718C107.466 60.8961 107.375 61.231 107.268 61.6256C106.627 64.0162 105.999 66.1844 105.39 66.4724C105.373 66.481 105.356 66.4868 105.336 66.4934ZM104.822 66.1787C105.115 66.2423 105.225 66.2157 105.258 66.1984C105.792 65.9449 106.59 62.9729 106.973 61.5466C107.081 61.1482 107.172 60.8103 107.238 60.5861C107.348 60.2195 107.517 59.8684 107.677 59.5299C108.055 58.7374 108.444 57.9189 108.21 56.7738C108.126 56.3651 108.008 56.096 107.893 55.9222C108.152 57.6945 107.694 58.6996 106.399 61.5342L106.313 61.7198C105.227 64.1004 104.911 65.498 104.822 66.1787Z" fill="#263238"/>
<path d="M58.5667 52.6535C58.5234 52.6678 58.4705 52.6628 58.4311 52.6309C58.3639 52.5825 58.3477 52.4852 58.3959 52.4179C58.3959 52.4179 58.635 52.0854 59.0312 51.5405C59.0794 51.4732 59.1766 51.4572 59.2448 51.5084C59.312 51.5568 59.3281 51.6542 59.2771 51.7224C58.8799 52.2644 58.6446 52.5988 58.6446 52.5988C58.6215 52.6257 58.5955 52.644 58.5667 52.6535Z" fill="white"/>
<path d="M57.6552 53.5295C57.6552 53.5295 64.7586 43.0538 71.275 37.9031C77.7924 32.7552 80.8973 33.7602 81.2786 36.5222C81.6571 39.285 81.0642 48.7866 79.9962 54.2737C78.9282 59.7609 77.0207 68.8402 77.0207 68.8402C77.0207 68.8402 83.1988 73.3219 83.8064 73.8719C84.4131 74.4191 81.6573 75.439 80.279 75.1436C79.1833 74.9089 79.237 75.0131 76.819 74.3619C72.721 73.2583 72.2408 72.4543 72.4647 71.5236C73.1857 68.5417 74.358 65.86 74.117 62.6313C73.677 56.7666 73.863 48.9205 74.3973 49.5974C74.3973 49.5974 72.1761 54.1821 67.6524 57.6025C63.1258 61.0239 59.6553 61.6735 56.3942 59.4013" fill="#73B4EA"/>
<path d="M82.6813 75.0203C81.8702 75.2883 80.8796 75.4296 80.2433 75.2966C79.9232 75.2291 79.7022 75.1898 79.4878 75.1516C78.9745 75.0613 78.4881 74.975 76.7765 74.5139C72.6997 73.4161 72.0532 72.5741 72.3139 71.4932C72.4971 70.7299 72.7129 69.9783 72.9249 69.2536C73.5511 67.0796 74.1415 65.0298 73.9632 62.65C73.6913 58.9984 73.6191 53.3939 73.8922 50.8104C72.9296 52.4024 70.8779 55.3588 67.7398 57.7308C63.088 61.2481 59.56 61.8013 56.2999 59.5319C56.2298 59.4845 56.2146 59.3901 56.2618 59.3199C56.3091 59.2497 56.4062 59.2337 56.4734 59.282C59.6059 61.4652 63.0252 60.9127 67.5537 57.4875C71.1608 54.7615 73.3097 51.2564 74.0043 50.0064C74.0723 49.6695 74.1544 49.4627 74.2545 49.4264C74.2891 49.4149 74.4055 49.3797 74.5101 49.512C74.5475 49.5574 74.5522 49.62 74.528 49.6729C74.5242 49.6806 74.4325 49.8681 74.253 50.1873C73.9854 51.8963 73.8824 57.5811 74.2614 62.6317C74.4443 65.0645 73.8442 67.1432 73.2132 69.3413C73.0041 70.065 72.7902 70.8127 72.608 71.5692C72.4355 72.2873 72.6186 73.0835 76.853 74.2222C78.5512 74.6814 79.0299 74.7638 79.5374 74.856C79.7546 74.8933 79.9796 74.9345 80.3064 75.003C81.453 75.2465 83.4889 74.5576 83.7234 74.095C83.7447 74.0527 83.7438 74.0306 83.7025 73.9929C83.1093 73.4573 76.9926 69.0163 76.9302 68.9727C76.8803 68.9379 76.8573 68.8781 76.8699 68.8194C76.8883 68.7299 78.789 59.6785 79.8454 54.2529C80.9251 48.7042 81.5005 39.2758 81.1277 36.5495C80.9949 35.5762 80.5212 34.8985 79.7641 34.5936C78.7658 34.1887 76.3477 34.099 71.3682 38.0295C64.9452 43.1044 57.8525 53.5156 57.7812 53.6194C57.7339 53.6896 57.6406 53.7076 57.5705 53.6602C57.5004 53.6127 57.4823 53.5192 57.5296 53.4491C57.6009 53.3453 64.7216 42.8928 71.1802 37.79C74.9579 34.8054 78.0458 33.5699 79.8752 34.3098C80.7399 34.6593 81.276 35.4191 81.4278 36.5081C81.8044 39.2556 81.2269 48.736 80.1424 54.3088C79.1462 59.4321 77.394 67.7894 77.1873 68.7819C77.9449 69.3305 83.3279 73.2471 83.9058 73.7652C84.0479 73.8947 84.0812 74.0634 83.9963 74.2327C83.8448 74.5202 83.3192 74.8094 82.6813 75.0203Z" fill="#73B4EA"/>
<path d="M60.1621 50.4765C60.1159 50.4918 60.065 50.4829 60.0237 50.4549C59.9555 50.4036 59.9432 50.3082 59.9914 50.2409C61.4817 48.2498 63.5993 45.522 65.2371 43.8416C65.2939 43.781 65.393 43.7804 65.4505 43.8384C65.512 43.8983 65.5118 43.9946 65.454 44.0522C63.8287 45.7221 61.7198 48.4375 60.2343 50.4237C60.2169 50.4487 60.1909 50.467 60.1621 50.4765Z" fill="white"/>
<path d="M71.8353 53.4024C71.7949 53.4158 71.7487 53.4117 71.7084 53.3866C71.6364 53.343 71.6144 53.2476 71.6578 53.1755L73.4422 50.2722C73.4144 49.6652 73.2192 43.5527 75.9067 39.4492C75.954 39.3791 76.0463 39.3582 76.1164 39.4056C76.1865 39.453 76.2075 39.5456 76.1603 39.6157C73.4004 43.8298 73.7441 50.2365 73.7488 50.2992C73.7497 50.331 73.7439 50.3618 73.7265 50.3867L71.9201 53.3295C71.8979 53.3689 71.8699 53.3909 71.8353 53.4024Z" fill="white"/>
<path d="M80.9415 48.1915C80.9242 48.1972 80.903 48.201 80.8828 48.198C80.7982 48.1939 80.7358 48.1215 80.7398 48.0367L80.8311 46.5401C80.8351 46.4554 80.9074 46.393 80.992 46.3971C81.0766 46.4012 81.1389 46.4737 81.1349 46.5584L81.0437 48.055C81.0426 48.1196 80.9992 48.1724 80.9415 48.1915Z" fill="white"/>
<path d="M81.1131 45.3781C81.0958 45.3838 81.0746 45.3876 81.0544 45.3846C80.9698 45.3805 80.9075 45.3081 80.9115 45.2233L81.2399 39.8041C81.2439 39.7194 81.3162 39.657 81.4008 39.6611C81.4854 39.6652 81.5477 39.7377 81.5437 39.8224L81.2153 45.2416C81.2113 45.3071 81.1708 45.359 81.1131 45.3781Z" fill="white"/>
<path d="M80.2741 75.1484C81.6515 75.4409 84.4111 74.4229 83.8015 73.8767C83.1949 73.3296 77.0158 68.845 77.0158 68.845C77.0158 68.845 77.5213 66.4414 78.1579 63.3591C76.2197 63.7333 74.9138 63.2889 74.1195 62.7942C74.3116 65.9523 73.1711 68.5947 72.4598 71.5284C72.2359 72.4592 72.7161 73.2631 76.8141 74.3667C79.2321 75.0179 79.1784 74.9137 80.2741 75.1484Z" fill="#FEDEA5"/>
<path d="M82.6814 75.0204C81.8703 75.2884 80.8796 75.4297 80.2433 75.2967C79.9233 75.2292 79.7022 75.1899 79.4878 75.1517C78.9746 75.0614 78.4882 74.9751 76.7765 74.514C72.6998 73.4162 72.0533 72.5742 72.314 71.4933C72.4981 70.7329 72.712 69.9851 72.921 69.2614C73.5337 67.1336 74.1115 65.1233 73.9697 62.8052C73.9669 62.7484 73.994 62.6945 74.045 62.6648C74.0931 62.6361 74.1537 62.6353 74.2027 62.6673C74.9326 63.1223 76.2058 63.584 78.1315 63.2106C78.1824 63.2002 78.2324 63.2158 78.267 63.2525C78.3015 63.2892 78.3187 63.3413 78.3061 63.3904C77.7452 66.1107 77.2844 68.3007 77.1864 68.7791C77.944 69.3277 83.327 73.2443 83.9049 73.7624C84.0469 73.892 84.0803 74.0606 83.9953 74.2299C83.8448 74.5203 83.3193 74.8095 82.6814 75.0204ZM74.2865 63.0663C74.3708 65.3167 73.8084 67.2771 73.2142 69.3443C73.007 70.0641 72.7931 70.8119 72.61 71.5655C72.4375 72.2835 72.6206 73.0798 76.855 74.2185C78.5532 74.6776 79.0318 74.7601 79.5394 74.8523C79.7566 74.8896 79.9815 74.9308 80.3083 74.9992C81.455 75.2428 83.4909 74.5539 83.7254 74.0913C83.7466 74.049 83.7457 74.0268 83.7045 73.9891C83.1112 73.4536 76.9946 69.0125 76.9322 68.969C76.8822 68.9342 76.8593 68.8744 76.8719 68.8156C76.8719 68.8156 77.3541 66.5256 77.9654 63.5511C76.2582 63.8298 75.0531 63.4772 74.2865 63.0663Z" fill="#263238"/>
<path d="M77.0163 68.8451C77.0163 68.8451 76.5368 68.6827 76.31 69.6144C76.0833 70.5461 76.0489 71.411 76.0489 71.411L72.9783 69.6085C72.7963 70.2398 72.6163 70.8769 72.4603 71.5285C72.2364 72.4593 72.7166 73.2632 76.8145 74.3668C79.2325 75.018 79.1789 74.9138 80.2746 75.1485C81.6519 75.441 84.4116 74.423 83.802 73.8768C83.1944 73.3268 77.0163 68.8451 77.0163 68.8451Z" fill="#F37630"/>
<path d="M82.6815 75.0202C81.8704 75.2883 80.8797 75.4296 80.2435 75.2965C79.9234 75.229 79.7023 75.1898 79.488 75.1515C78.9747 75.0613 78.4883 74.9749 76.7767 74.5138C72.6999 73.4161 72.0534 72.574 72.3141 71.4931C72.4778 70.8165 72.6685 70.1438 72.8331 69.5664C72.8466 69.5202 72.8794 69.4837 72.9217 69.4665C72.967 69.4483 73.0131 69.4523 73.0563 69.4765L75.9157 71.1531C75.9422 70.8267 76.0069 70.2181 76.1629 69.5761C76.2646 69.1574 76.4324 68.8805 76.6625 68.7532C76.8685 68.6402 77.0463 68.6937 77.0645 68.7005C77.0789 68.7054 77.0943 68.7131 77.1068 68.7218C77.3593 68.9047 83.2983 73.2151 83.905 73.7623C84.0471 73.8918 84.0804 74.0605 83.9955 74.2298C83.8449 74.5202 83.3194 74.8094 82.6815 75.0202ZM73.0701 69.8378C72.9191 70.369 72.7506 70.9638 72.6062 71.5634C72.4337 72.2815 72.6169 73.0777 76.8513 74.2164C78.5494 74.6756 79.0281 74.758 79.5356 74.8502C79.7529 74.8875 79.9778 74.9287 80.3046 74.9972C81.4512 75.2407 83.4872 74.5518 83.7217 74.0892C83.7429 74.0469 83.742 74.0247 83.7007 73.987C83.1257 73.4679 77.3961 69.3065 76.9534 68.9843C76.9265 68.9804 76.8669 68.9841 76.7995 69.0224C76.6975 69.0818 76.5539 69.2383 76.455 69.6464C76.2351 70.5502 76.2008 71.4055 76.1998 71.4122C76.1978 71.4642 76.166 71.5132 76.1207 71.541C76.0745 71.5659 76.0168 71.5657 75.9697 71.5396L73.0701 69.8378Z" fill="#F37630"/>
<path d="M76.8159 74.3667C79.2339 75.0179 79.1803 74.9137 80.276 75.1484C81.5159 75.4125 83.8712 74.6148 83.8906 74.0533C79.4325 75.27 74.6455 72.9726 72.4344 71.6786C72.2982 72.5451 72.939 73.3216 76.8159 74.3667Z" fill="white"/>
<path d="M82.6578 75.0342C81.8698 75.2947 80.9061 75.4399 80.2438 75.2962C79.9238 75.2287 79.7027 75.1895 79.4883 75.1512C78.9751 75.0609 78.4887 74.9746 76.7771 74.5135C72.8329 73.4489 72.1335 72.6308 72.2815 71.6545C72.2902 71.6035 72.3211 71.5612 72.3653 71.5402C72.4125 71.5182 72.4644 71.5202 72.5086 71.5474C74.8819 72.9353 79.5096 75.0896 83.8474 73.9062C83.8946 73.8939 83.9426 73.9037 83.981 73.9327C84.0194 73.9617 84.0415 74.009 84.0385 74.0581C84.0334 74.2074 83.936 74.3583 83.7501 74.5031C83.5036 74.6969 83.1081 74.8854 82.6578 75.0342ZM72.5684 71.9319C72.5971 72.5225 73.215 73.2392 76.8555 74.218C78.5537 74.6772 79.0324 74.7596 79.5399 74.8518C79.7571 74.8891 79.982 74.9303 80.3088 74.9987C81.2248 75.1934 82.8487 74.7786 83.5111 74.303C79.3151 75.247 74.9572 73.2987 72.5684 71.9319Z" fill="#263238"/>
</g>
</svg>
