<svg width="12" height="14" viewBox="0 0 12 14" fill="none" xmlns="http://www.w3.org/2000/svg">
<path d="M5.80329 1.80955C4.83607 1.80955 4.08197 2.08257 3.54099 2.62862C3.04919 3.12386 2.80328 3.75879 2.80328 4.53341C2.80328 5.32072 3.04919 5.96835 3.54099 6.4763C4.08197 7.04774 4.83607 7.33346 5.80329 7.33346C6.80329 7.33346 7.58198 7.04774 8.13936 6.4763C8.66395 5.96835 8.92625 5.32072 8.92625 4.53341C8.92625 3.77149 8.65575 3.13021 8.11477 2.60957C7.57378 2.07622 6.80329 1.80955 5.80329 1.80955ZM0.319673 10.2287H3.12296C3.18853 10.7748 3.44263 11.2192 3.88525 11.5621C4.32788 11.8923 4.90984 12.0573 5.63116 12.0573C6.95903 12.0573 7.90985 11.5113 8.48362 10.4192C8.82788 9.78429 9.06559 8.8065 9.19674 7.48584L9.14756 7.44774C8.37706 8.51443 7.13936 9.04777 5.43444 9.04777C3.81148 9.04777 2.5 8.64141 1.5 7.8287C0.500001 7.00329 0 5.91121 0 4.55246C0 3.2191 0.524591 2.12702 1.57377 1.27621C2.63935 0.425404 4.09017 0 5.92624 0C8.18854 0 9.81149 0.673027 10.7951 2.01908C11.5984 3.13656 12 4.78738 12 6.97154C12 8.82554 11.5246 10.3748 10.5738 11.6192C9.42625 13.1177 7.73772 13.8669 5.50821 13.8669C4.11476 13.8669 2.91804 13.5304 1.91804 12.8574C0.918034 12.1716 0.385247 11.2954 0.319673 10.2287Z" fill="#A4A7B5"/>
</svg>
