<svg width="18" height="22" viewBox="0 0 18 22" fill="none" xmlns="http://www.w3.org/2000/svg">
<path d="M8.21726 22C7.6634 22 2.83301 21.9364 0.853636 19.603C0.145421 18.7676 -0.126969 17.7235 0.0546243 16.5885L0.0727836 16.4886C0.090943 16.4069 0.100023 16.3343 0.118182 16.2616L0.45413 14.936C0.74468 13.9282 1.04431 13.0747 1.38026 12.2757C1.75253 11.404 2.23375 10.5687 2.89657 9.65163C3.75006 8.46219 4.77606 7.1184 6.15617 6.29215C6.61924 6.01976 7.34561 5.70197 8.1991 5.75645C9.06167 5.70197 9.77897 6.01068 10.242 6.29215C11.5677 7.08208 12.5937 8.3714 13.5107 9.65163C14.1645 10.5687 14.6457 11.404 15.027 12.2757C15.4447 13.2381 15.7988 14.3004 16.1075 15.508L16.2982 16.2616C16.5796 17.4783 16.3617 18.5951 15.6444 19.494C13.7286 21.9364 8.7802 22 8.21726 22ZM2.11571 15.7713L1.86148 16.8155C1.75253 17.5056 1.87056 18.0049 2.24283 18.4317C3.46859 19.8754 6.97334 20.1931 8.21726 20.1931H8.22634C9.4975 20.1931 13.0658 19.8663 14.2462 18.3772C14.6184 17.9141 14.7092 17.3694 14.5458 16.6793L14.3733 15.9711C14.0827 14.8543 13.7559 13.8828 13.3836 13.002C13.0567 12.2484 12.6391 11.522 12.058 10.7049C11.3134 9.66071 10.4327 8.49851 9.34314 7.85385C8.97995 7.64502 8.61677 7.54515 8.29898 7.57238L8.21726 7.58146L8.12646 7.57238C7.81775 7.54515 7.44549 7.64502 7.10046 7.85385C6.01998 8.49851 5.13017 9.66071 4.38563 10.7049C3.80453 11.522 3.38687 12.2484 3.06 13.002C2.75129 13.7193 2.4789 14.5002 2.22467 15.39L2.11571 15.7713Z" fill="#E6E7F2"/>
<path d="M14.5095 6.98228C12.5846 6.98228 11.0229 5.42057 11.0229 3.49568C11.0229 1.57079 12.5846 0 14.5095 0C16.4344 0 17.9961 1.56171 17.9961 3.4866C17.9961 5.41149 16.4344 6.98228 14.5095 6.98228ZM14.5095 1.81594C13.5833 1.81594 12.8388 2.56955 12.8388 3.4866C12.8388 4.40365 13.5924 5.15726 14.5095 5.15726C15.4265 5.15726 16.1801 4.40365 16.1801 3.4866C16.1801 2.56955 15.4265 1.81594 14.5095 1.81594Z" fill="#E6E7F2"/>
</svg>
