<svg width="13" height="9" viewBox="0 0 13 9" fill="none" xmlns="http://www.w3.org/2000/svg">
<path fill-rule="evenodd" clip-rule="evenodd" d="M1.44444 0H11.5556C12.3533 0 13 0.727537 13 1.625V7.3125C13 8.20996 12.3533 8.9375 11.5556 8.9375H1.44444C0.6467 8.9375 0 8.20996 0 7.3125V1.625C0 0.727537 0.6467 0 1.44444 0ZM6.41445 3.53726C5.94692 3.53726 5.56791 3.91627 5.56791 4.38379V5.35118C5.56791 5.81871 5.94692 6.19772 6.41445 6.19772C6.88197 6.19772 7.26098 5.81871 7.26098 5.35118V4.38379C7.26098 3.91627 6.88197 3.53726 6.41445 3.53726Z" fill="#E6E7F2"/>
</svg>
