<svg width="606" height="1211" viewBox="0 0 606 1211" fill="none" xmlns="http://www.w3.org/2000/svg">
<path opacity="0.3" d="M340.267 38.0163C429.091 128.891 498.053 239.08 540.96 358.69C543.12 364.701 545.241 371.022 544.361 377.343C543.48 383.664 538.6 389.915 532.209 390.095C526.598 390.245 521.977 385.964 518.036 381.964C506.054 369.802 494.062 357.65 482.08 345.488C473.259 336.546 460.657 326.874 449.475 332.595C442.124 336.366 439.163 345.758 440.363 353.929C441.564 362.1 446.014 369.371 450.295 376.433C450.295 376.433 586.538 647.198 605.231 746.404C589.348 644.587 557.663 549.792 512.525 457.156C508.905 449.735 504.444 437.783 503.994 429.531C503.544 421.28 507.344 412.189 515.006 409.108C526.658 404.417 538.34 415.199 546.301 424.911C557.133 438.113 567.965 451.305 578.796 464.507C582.357 468.848 586.568 473.539 592.169 473.889C598.54 474.299 603.971 468.518 605.421 462.297C606.871 456.076 605.331 449.595 603.731 443.414C571.875 320.393 489.261 153.346 387.245 47.3279L340.267 38.0163Z" fill="#554872"/>
<path opacity="0.3" d="M3.05227e-05 501.944C88.8248 592.819 157.786 703.007 200.693 822.617C202.854 828.628 204.974 834.949 204.094 841.27C203.214 847.591 198.333 853.842 191.942 854.022C186.331 854.172 181.71 849.891 177.77 845.891C165.788 833.729 153.796 821.577 141.814 809.415C132.992 800.473 120.39 790.802 109.208 796.523C101.857 800.293 98.8965 809.685 100.097 817.856C101.297 826.027 105.748 833.299 110.028 840.36C110.028 840.36 246.271 1111.12 264.964 1210.33C249.081 1108.51 217.396 1013.72 172.259 921.083C168.638 913.662 164.177 901.71 163.727 893.459C163.277 885.207 167.078 876.116 174.739 873.035C186.391 868.345 198.073 879.126 206.034 888.838C216.866 902.04 227.698 915.232 238.53 928.435C242.09 932.775 246.301 937.466 251.902 937.816C258.273 938.226 263.704 932.445 265.154 926.224C266.604 920.003 265.064 913.522 263.464 907.341C231.609 784.321 148.995 617.273 46.9778 511.255L3.05227e-05 501.944Z" fill="#554872"/>
<path opacity="0.3" d="M19.5133 382.144C53.4789 383.154 23.2939 592.179 33.4356 559.753C61.4403 470.238 146.674 483.48 205.464 544.751C240.97 581.757 300.44 685.654 329.495 719.29C336.386 727.271 344.667 735.282 355.149 736.513C368.341 738.063 380.643 727.821 385.884 715.609C394.946 694.506 391.525 666.051 388.925 643.917C384.944 609.952 375.743 576.826 366.041 544.121C351.409 494.842 331.565 447.154 307.881 401.567C307.661 401.147 307.451 400.737 307.231 400.327C277.606 343.537 241.12 290.308 198.613 242.39C182.16 223.847 163.287 207.595 142.574 193.982C238.75 291.529 315.012 430.622 355.989 583.237C359.15 595.019 362.15 607.161 362.23 619.223C362.31 631.285 358.97 643.437 351.759 648.858C343.567 655.019 330.985 652.769 323.704 642.817C316.673 633.205 308.641 622.654 302.2 611.152C269.895 553.422 234.119 499.243 195.493 449.535C178.04 427.071 159.807 405.327 139.313 389.355C118.82 373.392 95.726 363.461 73.9323 366.371L19.5133 382.144Z" fill="#554872"/>
<path opacity="0.3" d="M106.538 -4.18179e-06C108.178 -0.0300091 221.967 170.308 292.879 342.367C251.232 270.045 188.551 173.359 54.0091 63.8106C54.1191 63.9006 70.5418 45.1275 72.0521 43.4172C77.423 37.3462 102.947 0.0700073 106.538 -4.18179e-06Z" fill="#554872"/>
<path opacity="0.4" d="M560.463 365.481C560.463 366.448 561.247 367.231 562.214 367.231C563.18 367.231 563.964 366.448 563.964 365.481C563.964 364.514 563.18 363.731 562.214 363.731C561.247 363.731 560.463 364.514 560.463 365.481Z" fill="white"/>
<path opacity="0.4" d="M488.121 214.956C488.121 215.922 488.905 216.706 489.872 216.706C490.838 216.706 491.622 215.922 491.622 214.956C491.622 213.989 490.838 213.205 489.872 213.205C488.905 213.205 488.121 213.989 488.121 214.956Z" fill="white"/>
<path opacity="0.4" d="M538.78 664.781C538.78 665.747 539.563 666.531 540.53 666.531C541.497 666.531 542.28 665.747 542.28 664.781C542.28 663.814 541.497 663.03 540.53 663.03C539.563 663.03 538.78 663.814 538.78 664.781Z" fill="white"/>
<path opacity="0.4" d="M533.709 537.76C533.709 538.726 534.492 539.51 535.459 539.51C536.426 539.51 537.209 538.726 537.209 537.76C537.209 536.793 536.426 536.009 535.459 536.009C534.492 536.009 533.709 536.793 533.709 537.76Z" fill="white"/>
<path opacity="0.4" d="M413.939 400.237C413.939 401.203 414.723 401.987 415.689 401.987C416.656 401.987 417.439 401.203 417.439 400.237C417.439 399.27 416.656 398.486 415.689 398.486C414.723 398.486 413.939 399.27 413.939 400.237Z" fill="white"/>
<path opacity="0.4" d="M147.464 409.488C147.464 410.455 148.248 411.238 149.215 411.238C150.181 411.238 150.965 410.455 150.965 409.488C150.965 408.521 150.181 407.738 149.215 407.738C148.248 407.738 147.464 408.521 147.464 409.488Z" fill="white"/>
<path opacity="0.4" d="M185.211 578.146C185.211 579.113 185.994 579.897 186.961 579.897C187.928 579.897 188.711 579.113 188.711 578.146C188.711 577.18 187.928 576.396 186.961 576.396C185.994 576.396 185.211 577.18 185.211 578.146Z" fill="white"/>
<path opacity="0.4" d="M132.382 643.957C132.382 644.924 133.166 645.707 134.132 645.707C135.099 645.707 135.883 644.924 135.883 643.957C135.883 642.991 135.099 642.207 134.132 642.207C133.166 642.207 132.382 642.991 132.382 643.957Z" fill="white"/>
<path opacity="0.4" d="M466.158 634.656C466.158 635.622 466.941 636.406 467.908 636.406C468.875 636.406 469.658 635.622 469.658 634.656C469.658 633.689 468.875 632.905 467.908 632.905C466.941 632.905 466.158 633.689 466.158 634.656Z" fill="white"/>
<path opacity="0.4" d="M239.79 747.824C239.79 748.791 240.574 749.575 241.54 749.575C242.507 749.575 243.291 748.791 243.291 747.824C243.291 746.858 242.507 746.074 241.54 746.074C240.574 746.074 239.79 746.858 239.79 747.824Z" fill="white"/>
<path opacity="0.4" d="M260.733 526.758C260.733 527.724 261.517 528.508 262.484 528.508C263.45 528.508 264.234 527.724 264.234 526.758C264.234 525.791 263.45 525.007 262.484 525.007C261.517 525.007 260.733 525.791 260.733 526.758Z" fill="white"/>
<path opacity="0.4" d="M249.481 443.404C249.481 444.37 250.265 445.154 251.232 445.154C252.198 445.154 252.982 444.37 252.982 443.404C252.982 442.437 252.198 441.653 251.232 441.653C250.265 441.653 249.481 442.437 249.481 443.404Z" fill="white"/>
<path opacity="0.4" d="M139.713 242.71C139.713 243.677 140.497 244.461 141.463 244.461C142.43 244.461 143.214 243.677 143.214 242.71C143.214 241.744 142.43 240.96 141.463 240.96C140.497 240.96 139.713 241.744 139.713 242.71Z" fill="white"/>
<path opacity="0.4" d="M444.364 341.387C444.364 342.353 445.148 343.137 446.114 343.137C447.081 343.137 447.865 342.353 447.865 341.387C447.865 340.42 447.081 339.637 446.114 339.637C445.148 339.637 444.364 340.42 444.364 341.387Z" fill="white"/>
<path opacity="0.4" d="M479.03 467.408C479.03 468.374 479.813 469.158 480.78 469.158C481.747 469.158 482.53 468.374 482.53 467.408C482.53 466.441 481.747 465.657 480.78 465.657C479.813 465.657 479.03 466.441 479.03 467.408Z" fill="white"/>
<path opacity="0.4" d="M343.497 210.705C343.497 211.672 344.281 212.455 345.247 212.455C346.214 212.455 346.998 211.672 346.998 210.705C346.998 209.738 346.214 208.955 345.247 208.955C344.281 208.955 343.497 209.738 343.497 210.705Z" fill="white"/>
<path opacity="0.4" d="M276.486 221.957C276.486 222.924 277.27 223.707 278.236 223.707C279.203 223.707 279.987 222.924 279.987 221.957C279.987 220.99 279.203 220.207 278.236 220.207C277.27 220.207 276.486 220.99 276.486 221.957Z" fill="white"/>
<path opacity="0.7" d="M410.318 461.677L411.439 467.688L412.559 461.677L414.789 463.217L413.259 460.977L419.27 459.857L413.259 458.746L414.789 456.506L412.559 458.036L411.439 452.035L410.318 458.036L408.078 456.506L409.618 458.746L403.607 459.857L409.618 460.977L408.078 463.217L410.318 461.677Z" fill="#E1D1FF"/>
<path opacity="0.7" d="M259.743 775.779L260.853 781.78L261.974 775.779L264.214 777.309L262.674 775.069L268.685 773.959L262.674 772.839L264.214 770.598L261.974 772.139L260.853 766.128L259.743 772.139L257.503 770.598L259.033 772.839L253.032 773.959L259.033 775.069L257.503 777.309L259.743 775.779Z" fill="#E1D1FF"/>
<path opacity="0.7" d="M269.485 636.206L270.605 642.207L271.725 636.206L273.966 637.736L272.425 635.496L278.436 634.386L272.425 633.265L273.966 631.025L271.725 632.565L270.605 626.554L269.485 632.565L267.254 631.025L268.785 633.265L262.774 634.386L268.785 635.496L267.254 637.736L269.485 636.206Z" fill="#E1D1FF"/>
<path opacity="0.7" d="M395.456 751.835L396.576 757.846L397.696 751.835L399.927 753.365L398.396 751.135L404.407 750.015L398.396 748.895L399.927 746.654L397.696 748.195L396.576 742.184L395.456 748.195L393.215 746.654L394.756 748.895L388.745 750.015L394.756 751.135L393.215 753.365L395.456 751.835Z" fill="#E1D1FF"/>
<path opacity="0.7" d="M527.368 608.171L528.488 614.182L529.608 608.171L531.839 609.701L530.308 607.471L536.319 606.351L530.308 605.231L531.839 602.99L529.608 604.531L528.488 598.52L527.368 604.531L525.127 602.99L526.668 605.231L520.657 606.351L526.668 607.471L525.127 609.701L527.368 608.171Z" fill="#E1D1FF"/>
<path opacity="0.7" d="M220.707 320.993L221.817 327.004L222.937 320.993L225.177 322.524L223.637 320.293L229.648 319.173L223.637 318.053L225.177 315.813L222.937 317.353L221.817 311.342L220.707 317.353L218.466 315.813L219.997 318.053L213.986 319.173L219.997 320.293L218.466 322.524L220.707 320.993Z" fill="#E1D1FF"/>
<path opacity="0.7" d="M176.219 368.731L177.34 374.742L178.45 368.731L180.69 370.262L179.16 368.021L185.161 366.911L179.16 365.791L180.69 363.551L178.45 365.091L177.34 359.08L176.219 365.091L173.979 363.551L175.519 365.791L169.508 366.911L175.519 368.021L173.979 370.262L176.219 368.731Z" fill="#E1D1FF"/>
<path opacity="0.7" d="M447.164 270.705L448.285 276.716L449.405 270.705L451.645 272.245L450.105 270.005L456.116 268.885L450.105 267.765L451.645 265.534L449.405 267.064L448.285 261.053L447.164 267.064L444.934 265.534L446.464 267.765L440.453 268.885L446.464 270.005L444.934 272.245L447.164 270.705Z" fill="#E1D1FF"/>
<path opacity="0.7" d="M442.354 136.693L443.474 142.704L444.594 136.693L446.834 138.223L445.294 135.983L451.305 134.872L445.294 133.752L446.834 131.512L444.594 133.052L443.474 127.041L442.354 133.052L440.123 131.512L441.654 133.752L435.643 134.872L441.654 135.983L440.123 138.223L442.354 136.693Z" fill="#E1D1FF"/>
<path opacity="0.7" d="M552.272 204.974L553.392 210.985L554.512 204.974L556.743 206.504L555.212 204.274L561.223 203.154L555.212 202.034L556.743 199.793L554.512 201.334L553.392 195.322L552.272 201.334L550.032 199.793L551.572 202.034L545.561 203.154L551.572 204.274L550.032 206.504L552.272 204.974Z" fill="#E1D1FF"/>
<path opacity="0.7" d="M136.723 121.7L137.843 127.711L138.963 121.7L141.204 123.23L139.663 121L145.674 119.88L139.663 118.76L141.204 116.519L138.963 118.06L137.843 112.049L136.723 118.06L134.492 116.519L136.023 118.76L130.012 119.88L136.023 121L134.492 123.23L136.723 121.7Z" fill="#E1D1FF"/>
</svg>
