<svg width="11" height="9" viewBox="0 0 11 9" fill="none" xmlns="http://www.w3.org/2000/svg">
<path d="M5.50001 7.40229C6.36101 7.40229 7.06614 7.26692 7.6154 6.9962C8.1795 6.72548 8.46155 6.35808 8.46155 5.89398C8.46155 5.45309 8.1795 5.10503 7.6154 4.84977C7.06614 4.59452 6.36101 4.4669 5.50001 4.4669C4.63901 4.4669 3.92646 4.59452 3.36235 4.84977C2.81309 5.10503 2.53847 5.45309 2.53847 5.89398C2.53847 6.35808 2.81309 6.72548 3.36235 6.9962C3.92646 7.26692 4.63901 7.40229 5.50001 7.40229ZM5.50001 8.4465C3.88192 8.4465 2.56073 8.21832 1.53644 7.76196C0.512147 7.29787 0 6.67521 0 5.89398C0 5.39122 0.252362 4.9658 0.757086 4.61773C1.27665 4.26192 1.97436 4.02601 2.85021 3.90999V3.89838C1.38057 3.59672 0.64575 3.03594 0.64575 2.21605C0.64575 1.51991 1.06883 0.978463 1.91498 0.591719C2.76114 0.19724 3.95615 0 5.50001 0C7.04387 0 8.23888 0.19724 9.08503 0.591719C9.93119 0.978463 10.3543 1.51991 10.3543 2.21605C10.3543 3.03594 9.61945 3.59672 8.14981 3.89838V3.90999C9.02565 4.02601 9.71594 4.26192 10.2207 4.61773C10.7402 4.9658 11 5.39122 11 5.89398C11 6.67521 10.4879 7.29787 9.46358 7.76196C8.43928 8.21832 7.11809 8.4465 5.50001 8.4465ZM5.50001 1.04421C4.78746 1.04421 4.20109 1.15637 3.7409 1.38068C3.28071 1.59725 3.05061 1.89891 3.05061 2.28566C3.05061 2.65693 3.27328 2.95086 3.71863 3.16744C4.17882 3.37628 4.77261 3.4807 5.50001 3.4807C6.2274 3.4807 6.81377 3.37628 7.25912 3.16744C7.71931 2.95086 7.9494 2.65693 7.9494 2.28566C7.9494 1.89891 7.71931 1.59725 7.25912 1.38068C6.79893 1.15637 6.21256 1.04421 5.50001 1.04421Z" fill="#A1A4B2"/>
</svg>
