<svg width="20" height="25" viewBox="0 0 20 25" fill="none" xmlns="http://www.w3.org/2000/svg">
<path d="M10.8018 20.7383C8.90515 25.2959 1.46193 27.4516 2.65522 20.7207C3.02266 18.6423 0.307124 16.9965 0.0621662 15.5195C-0.494239 12.1575 2.84769 11.0779 3.58256 8.01488C4.68837 3.40099 6.51856 -4.25837 18.9239 2.97195C22.6963 5.16636 10.8018 20.7383 10.8018 20.7383Z" fill="#3F414E"/>
<path d="M16.8942 12.3932L16.9152 20.9247C16.4777 23.3794 10.4868 23.7416 10.8017 20.9458L10.7842 17.2814L16.8942 12.3932Z" fill="#F0A38B"/>
<path d="M6.87216 12.2666C6.83367 12.7871 6.76718 13.2618 6.79517 13.7718C6.83367 14.4364 6.97714 15.1116 7.2291 15.7446C7.90098 17.4256 9.30074 19.8134 11.0539 19.8556C14.1474 19.926 18.1577 16.4163 17.6608 11.8833C17.2269 7.92702 13.8989 1.86073 12.6952 4.19581C10.8265 7.82152 8.73034 6.4254 7.39357 8.66553C7.11362 9.13325 6.85467 9.72405 6.87566 11.085C6.88266 11.5281 6.89666 11.9079 6.87216 12.2666Z" fill="#FDBCA0"/>
<path d="M13.2411 14.4997C13.2061 15.4668 13.955 16.2792 14.9173 16.3178C15.8797 16.353 16.688 15.6004 16.7265 14.6334C16.7615 13.6663 16.0126 12.8539 15.0503 12.8152C14.088 12.7765 13.2796 13.5326 13.2411 14.4997Z" fill="#F4A07B"/>
<path d="M6.79517 13.7718C6.83367 14.4364 6.98414 15.1081 7.2291 15.7446C8.02347 15.604 8.64286 14.9252 8.67436 14.0812C8.70935 13.1141 7.96048 12.3018 6.99814 12.2631C6.95615 12.2631 6.91416 12.2631 6.87216 12.2631C6.83367 12.7871 6.76718 13.2618 6.79517 13.7718Z" fill="#F4A07B"/>
<path d="M12.0477 12.2596C12.0477 12.2596 12.7476 13.4271 14.8997 12.1048C15.1692 11.9395 13.9759 12.3088 13.2375 12.3686C12.4816 12.4249 11.8587 12.0064 12.0477 12.2596Z" fill="#002869"/>
<path d="M7.24304 11.507C7.41801 11.7954 8.96824 12.9946 9.53864 11.9326C9.68911 11.6547 9.09072 12.2385 8.39434 11.9818C7.68046 11.7216 7.13105 11.3242 7.24304 11.507Z" fill="#002869"/>
<path d="M11.0716 15.0729C10.6132 15.094 9.90632 14.9814 9.78734 14.4399C9.73485 14.2007 9.85732 13.9968 9.9658 13.7928C10.2458 13.2688 10.4942 12.7905 10.4767 12.1751C10.4732 12.0942 10.5992 12.0766 10.6027 12.1575C10.6202 12.7448 10.4172 13.2231 10.1443 13.733C9.9833 14.0319 9.79084 14.2957 10.0358 14.6227C10.2598 14.9181 10.7077 14.9674 11.0541 14.9498C11.1346 14.9463 11.1521 15.0693 11.0716 15.0729Z" fill="#F27979"/>
<path d="M12.3874 16.3178C12.5238 16.0435 11.0786 17.0106 9.50387 16.1525C8.82849 15.7832 10.4487 17.7737 12.3874 16.3178Z" fill="#F27979"/>
</svg>
