<svg width="28" height="46" viewBox="0 0 28 46" fill="none" xmlns="http://www.w3.org/2000/svg">
<path d="M16.7947 37.3725C20.3924 36.5055 17.9404 29.429 19.8056 27.1298C19.9104 27 19.7253 26.8104 19.6205 26.9438C17.7308 29.271 19.9523 36.3405 16.7249 37.1198C16.5607 37.1584 16.6306 37.4147 16.7947 37.3725Z" fill="#5863E3"/>
<path d="M13.4485 44.2666C17.109 45.5056 21.9782 46.6745 25.6667 45.0493C25.8204 44.9826 25.6877 44.7545 25.534 44.8212C21.9223 46.4148 17.1125 45.2283 13.5183 44.0103C13.3577 43.9577 13.2878 44.2139 13.4485 44.2666Z" fill="#5863E3"/>
<path d="M22.5473 0.192804C23.1691 1.35818 23.934 2.33401 24.9924 3.1238C26.0961 3.94869 27.1091 4.55244 27.7518 5.84067C27.8286 5.99161 28.0592 5.86875 27.9858 5.71782C27.5073 4.75954 26.8436 4.10665 25.9844 3.49237C24.6117 2.51654 23.5917 1.58985 22.7814 0.0664379C22.6975 -0.0809893 22.467 0.0418663 22.5473 0.192804Z" fill="#002869"/>
<path d="M0.709798 13.5385C1.0556 14.8267 0.0286804 16.2378 0.000737125 17.5436C-0.0306991 18.9091 0.947315 19.4917 2.17682 19.7164C2.34099 19.748 2.41434 19.4918 2.24668 19.4602C-1.56758 18.7616 1.55857 15.6832 0.964779 13.4648C0.919372 13.3068 0.66439 13.377 0.709798 13.5385Z" fill="#002869"/>
</svg>
