<svg width="31" height="24" viewBox="0 0 31 24" fill="none" xmlns="http://www.w3.org/2000/svg">
<path d="M19.247 17.6266C18.1269 20.3156 11.139 24.5149 9.98722 23.8974C8.10154 22.8811 1.12068 12.8662 1.70008 10.4807C2.25138 8.21165 8.88812 4.11113 8.88812 4.11113C8.88812 4.11113 15.6934 1.35862 19.4999 1.29157C21.5927 1.25275 29.9712 13.999 28.9528 16.6385C28.4542 17.9195 22.4144 18.7241 19.247 17.6266Z" fill="white"/>
<path d="M19.0748 16.8645C18.7447 19.7758 10.6367 24.4021 9.04597 23.7705C8.11191 23.3999 0.246149 12.3052 0.822035 9.92324C1.37334 7.65418 11.7288 2.62557 11.7288 2.62557C11.7288 2.62557 17.3612 1.55633 21.1712 1.48575C23.264 1.44693 29.6936 13.6285 28.6753 16.2716C28.1801 17.5526 20.8516 18.9924 19.0748 16.8645Z" fill="white"/>
<path d="M18.9133 16.4163C17.7686 20.1075 9.2286 23.9469 8.23835 23.2799C6.6336 22.193 0.562213 12.5946 1.1381 10.2091C1.6894 7.94001 11.936 3.03491 11.936 3.03491C15.0752 2.84435 17.6176 1.79981 21.6874 1.68688C23.7873 1.62689 30.4065 12.8769 29.6093 15.5235C29.1388 17.0903 20.2196 17.962 18.9133 16.4163Z" fill="white"/>
<path d="M17.2314 17.3479C17.2314 17.3479 17.9267 18.8194 19.57 18.1807C21.3504 17.489 21.1572 15.6858 21.1572 15.6858C19.556 15.8375 18.183 16.3033 17.2314 17.3479Z" fill="#E8E2E3"/>
<path d="M18.5587 15.5517C17.9547 16.0034 17.6668 16.7057 17.7089 17.6761C17.9302 18.6006 9.56928 22.5212 7.43429 22.7118C6.00159 22.8388 -0.245367 10.5655 0.00746128 9.10804C0.204105 7.98234 10.0925 3.59245 10.556 2.69965C10.556 2.69965 12.0343 1.581 13.0457 1.83155C14.0429 2.07857 22.5127 0.0247806 23.5099 7.86752e-05C25.0726 -0.0352098 31.021 11.8111 31 14.2002C30.9894 15.1883 21.1607 17.3267 20.8236 16.5151C20.462 15.6364 18.5587 15.5517 18.5587 15.5517Z" fill="#8E97FD"/>
<path d="M10.1382 2.75972L17.709 17.6726C18.471 16.7198 19.8124 15.8447 20.8237 16.5152L13.5303 1.65871C13.1581 0.917654 9.88886 2.26568 10.1382 2.75972Z" fill="#4E5567"/>
<path d="M8.3017 19.3876C10.3068 18.6041 12.203 17.6196 13.9026 16.2892C14.1448 16.1022 14.4152 16.4904 14.1764 16.6809C12.4418 18.036 10.5069 19.0382 8.46675 19.8357C8.18231 19.9486 8.01727 19.5005 8.3017 19.3876Z" fill="#4E5567"/>
<path d="M7.69764 17.482C8.97232 16.8856 10.3664 16.3351 11.4936 15.4741C11.7359 15.287 12.0098 15.6788 11.7675 15.8658C10.6122 16.748 9.16896 17.3197 7.86268 17.9302C7.58528 18.0572 7.42375 17.609 7.69764 17.482Z" fill="#4E5567"/>
</svg>
