<svg width="177" height="123" viewBox="0 0 177 123" fill="none" xmlns="http://www.w3.org/2000/svg">
<mask id="mask0_1006_432" style="mask-type:alpha" maskUnits="userSpaceOnUse" x="0" y="0" width="178" height="123">
<rect width="177.002" height="122.928" rx="10" fill="#AFDBC5"/>
</mask>
<g mask="url(#mask0_1006_432)">
<path d="M177 -3.71514H-6.69308V178.369H177V-3.71514Z" fill="#554A96"/>
<path d="M150.225 102.72C165.551 71.3095 148.841 31.8779 112.902 14.6472C76.9621 -2.58342 35.4026 8.91184 20.0759 40.3226C4.74917 71.7334 21.4592 111.165 57.3988 128.396C93.3383 145.626 134.898 134.131 150.225 102.72Z" fill="#3B3283"/>
<path d="M166.122 16.0191C164.856 14.7572 163.135 14.2019 161.577 14.5333C162.569 13.4098 162.714 11.5963 161.882 10.2944C161.035 8.96879 159.264 8.26594 157.672 8.62465C156.366 8.91781 155.265 9.78999 154.692 10.9353C154.826 10.003 154.817 8.86136 154.363 7.74518C153.812 6.39048 152.67 5.37809 151.378 5.10314C149.804 4.76811 147.973 5.5711 146.922 7.05873C146.248 8.01285 145.798 9.23463 145.634 10.5019C145.384 9.62976 144.798 8.82859 143.994 8.34788C142.798 7.63411 141.18 7.61226 139.87 8.28962C138.65 8.92145 137.695 10.1432 137.315 11.5617C136.99 12.778 137.067 14.1036 137.537 15.4146C136.404 14.4495 135.213 13.5245 133.617 13.8049C132.548 13.9925 131.664 14.6444 131.194 15.593C130.726 16.5362 130.744 17.6196 131.242 18.5664C132.083 20.1651 133.804 21.163 136.501 21.6164C138.367 21.9295 140.289 21.9496 142.146 21.9678C142.491 21.9714 142.835 21.9751 143.18 21.9805C143.452 21.9842 143.693 21.9896 143.915 21.9969C145.438 22.0443 146.962 22.0752 148.445 22.088C149.082 22.0934 149.716 22.0971 150.351 22.0971C152.657 22.0971 154.938 22.057 157.159 21.9787C157.708 21.9587 158.267 21.9295 158.807 21.9022C159.604 21.8604 160.427 21.8185 161.237 21.8057C162.6 21.7821 163.818 21.722 164.928 21.2303C165.886 20.8043 167.169 20.0741 167.255 18.652C167.31 17.7507 166.897 16.7911 166.122 16.0191Z" fill="#6F74C5"/>
<path d="M174.915 44.7831C174.037 43.9091 172.847 43.5249 171.766 43.7544C172.453 42.975 172.554 41.7205 171.978 40.8173C171.392 39.8996 170.165 39.4117 169.062 39.6593C168.157 39.8632 167.396 40.4659 166.998 41.2598C167.09 40.6134 167.084 39.8232 166.77 39.0493C166.39 38.1116 165.596 37.4106 164.702 37.2194C163.612 36.9863 162.343 37.5435 161.616 38.5741C161.149 39.235 160.837 40.0817 160.723 40.9594C160.55 40.3549 160.144 39.7995 159.588 39.4681C158.759 38.9747 157.639 38.9583 156.731 39.428C155.886 39.865 155.225 40.7117 154.962 41.695C154.736 42.538 154.79 43.4557 155.117 44.3643C154.332 43.6961 153.507 43.0552 152.402 43.25C151.661 43.3793 151.05 43.8308 150.723 44.4882C150.399 45.1418 150.41 45.892 150.756 46.5475C151.338 47.6546 152.53 48.3465 154.398 48.6597C155.691 48.8764 157.021 48.891 158.309 48.9037C158.548 48.9055 158.787 48.9092 159.026 48.9128C159.215 48.9164 159.38 48.9201 159.534 48.9237C160.589 48.9565 161.645 48.9784 162.672 48.9875C163.113 48.9911 163.554 48.9929 163.993 48.9929C165.589 48.9929 167.17 48.9656 168.708 48.911C169.088 48.8982 169.476 48.8782 169.849 48.8582C170.4 48.829 170.971 48.7999 171.531 48.7908C172.476 48.7744 173.319 48.7325 174.087 48.392C174.75 48.0971 175.639 47.5909 175.699 46.6058C175.738 45.9812 175.451 45.3166 174.915 44.7831Z" fill="#93A1ED"/>
<path d="M13.8677 81.6624C13.2138 81.0124 12.3265 80.7247 11.5238 80.8958C12.0363 80.315 12.1098 79.3809 11.6818 78.709C11.2446 78.0244 10.3316 77.662 9.51053 77.8477C8.83637 77.9989 8.26876 78.4486 7.97302 79.0404C8.04282 78.5597 8.03731 77.9697 7.80402 77.3944C7.51929 76.6952 6.92964 76.1726 6.26467 76.0305C5.45275 75.8576 4.50673 76.2727 3.96483 77.0393C3.61765 77.5309 3.38436 78.1628 3.29987 78.8164C3.17128 78.3667 2.86819 77.9534 2.45304 77.7057C1.83583 77.3379 1.00186 77.327 0.325873 77.6766C-0.304194 78.0025 -0.796491 78.6325 -0.993043 79.3645C-1.16204 79.9909 -1.12163 80.6755 -0.877316 81.3529C-1.46146 80.8558 -2.07683 80.3769 -2.89978 80.5226C-3.45086 80.6191 -3.90642 80.9559 -4.15073 81.4457C-4.39136 81.9319 -4.38402 82.4909 -4.12685 82.9789C-3.69333 83.8037 -2.80609 84.319 -1.4137 84.5521C-0.451148 84.7141 0.540794 84.7232 1.49967 84.7342C1.67785 84.736 1.85604 84.7378 2.03238 84.7396C2.17383 84.7415 2.2969 84.7451 2.41079 84.7487C3.197 84.7724 3.9832 84.7888 4.74737 84.7961C5.07618 84.7997 5.40315 84.8015 5.73012 84.8015C6.91862 84.8015 8.09609 84.7815 9.24234 84.7396C9.52522 84.7287 9.81362 84.7141 10.0928 84.6996C10.5043 84.6777 10.9286 84.6559 11.3456 84.6486C12.0492 84.6358 12.6774 84.6067 13.2487 84.3518C13.7428 84.1315 14.4059 83.7546 14.45 83.0226C14.4794 82.5564 14.2663 82.0612 13.8677 81.6624Z" fill="#93A1ED"/>
<path d="M175.165 90.4186C174.537 89.7941 173.684 89.5173 172.913 89.683C173.405 89.1258 173.477 88.2282 173.064 87.5818C172.645 86.9244 171.767 86.5767 170.979 86.7533C170.33 86.899 169.786 87.3305 169.502 87.8986C169.568 87.4361 169.564 86.8698 169.338 86.3181C169.066 85.6462 168.499 85.1455 167.86 85.0089C167.081 84.8432 166.171 85.2402 165.652 85.9776C165.317 86.451 165.095 87.0555 165.012 87.6837C164.889 87.2522 164.599 86.8534 164.2 86.6167C163.609 86.2635 162.806 86.2526 162.158 86.5876C161.553 86.9008 161.079 87.5071 160.892 88.2081C160.73 88.8108 160.769 89.4682 161.002 90.1182C160.44 89.6411 159.85 89.1823 159.061 89.3207C158.532 89.4135 158.093 89.7358 157.859 90.2074C157.628 90.6754 157.635 91.2107 157.883 91.6805C158.3 92.4726 159.152 92.9678 160.49 93.1918C161.414 93.3466 162.367 93.3575 163.287 93.3666C163.458 93.3684 163.629 93.3702 163.8 93.3721C163.936 93.3739 164.053 93.3775 164.164 93.3793C164.919 93.403 165.674 93.4176 166.408 93.4249C166.724 93.4285 167.038 93.4285 167.353 93.4285C168.495 93.4285 169.625 93.4085 170.725 93.3702C170.997 93.3611 171.274 93.3466 171.543 93.332C171.937 93.312 172.345 93.2901 172.746 93.2846C173.422 93.2737 174.024 93.2428 174.573 92.9988C175.047 92.7876 175.685 92.4252 175.727 91.7205C175.755 91.2763 175.549 90.8028 175.165 90.4186Z" fill="#93A1ED"/>
<path d="M16.6472 43.645C15.9804 42.9822 15.0748 42.689 14.2555 42.8638C14.7772 42.2721 14.8543 41.3179 14.4172 40.6333C13.9726 39.9359 13.0395 39.5663 12.2018 39.7538C11.5148 39.9086 10.9362 40.3675 10.6331 40.9702C10.7029 40.4785 10.6992 39.8776 10.4604 39.2913C10.1702 38.5794 9.5695 38.0459 8.88983 37.9002C8.06138 37.7236 7.09699 38.146 6.54407 38.929C6.18954 39.4315 5.95258 40.0743 5.86624 40.7407C5.73582 40.2819 5.42722 39.8594 5.00289 39.6063C4.37466 39.2312 3.52232 39.2185 2.83347 39.5754C2.19238 39.9068 1.68906 40.5514 1.48884 41.2979C1.318 41.937 1.35842 42.6362 1.6064 43.3263C1.0094 42.8183 0.383005 42.3321 -0.456472 42.4796C-1.01857 42.578 -1.48332 42.9221 -1.7313 43.421C-1.97745 43.9163 -1.96827 44.488 -1.70559 44.9851C-1.26288 45.8263 -0.357278 46.3507 1.06267 46.5911C2.04543 46.7568 3.05574 46.7659 4.03299 46.7768C4.21484 46.7786 4.39486 46.7804 4.57672 46.7823C4.72 46.7841 4.84675 46.7877 4.96431 46.7914C5.76521 46.8169 6.56795 46.8314 7.34865 46.8405C7.68297 46.8442 8.01729 46.846 8.35161 46.846C9.56399 46.846 10.7653 46.8242 11.9336 46.7841C12.222 46.7732 12.5159 46.7586 12.8007 46.744C13.2195 46.7222 13.653 46.7003 14.0792 46.6931C14.7956 46.6803 15.4385 46.6493 16.0208 46.3908C16.5241 46.1668 17.2001 45.7826 17.246 45.0343C17.2736 44.5554 17.055 44.051 16.6472 43.645Z" fill="#93A1ED"/>
<path d="M36.969 125.523C35.5803 124.139 33.6919 123.529 31.9836 123.893C33.0711 122.66 33.2309 120.67 32.3198 119.241C31.3921 117.786 29.4486 117.016 27.7017 117.407C26.2671 117.73 25.062 118.686 24.432 119.944C24.5789 118.92 24.5679 117.668 24.0719 116.444C23.4676 114.958 22.213 113.848 20.7967 113.545C19.07 113.178 17.0604 114.059 15.9068 115.69C15.1665 116.737 14.6742 118.077 14.4923 119.469C14.2186 118.511 13.5757 117.631 12.6922 117.105C11.3806 116.322 9.60427 116.298 8.16779 117.041C6.83051 117.733 5.78162 119.075 5.36464 120.632C5.00643 121.967 5.09277 123.422 5.60895 124.86C4.36535 123.802 3.05929 122.786 1.30869 123.094C0.134894 123.3 -0.833169 124.015 -1.34935 125.055C-1.86369 126.089 -1.84348 127.278 -1.29791 128.318C-0.375773 130.071 1.51259 131.166 4.47372 131.664C6.5219 132.009 8.62886 132.03 10.6679 132.051C11.0463 132.054 11.4247 132.058 11.8012 132.063C12.1007 132.067 12.3633 132.074 12.6077 132.081C14.2774 132.132 15.9509 132.167 17.5784 132.182C18.2764 132.189 18.9745 132.191 19.6688 132.191C22.1983 132.191 24.702 132.147 27.1378 132.06C27.7403 132.038 28.3538 132.007 28.9453 131.976C29.8197 131.93 30.7235 131.885 31.6107 131.868C33.106 131.843 34.4433 131.777 35.6593 131.237C36.71 130.769 38.119 129.967 38.2126 128.409C38.2733 127.422 37.8195 126.371 36.969 125.523Z" fill="#93A1ED"/>
<path d="M31.438 9.91209C30.1999 8.67938 28.5191 8.13495 26.9963 8.45906C27.9662 7.35928 28.1076 5.5876 27.2957 4.31483C26.4691 3.01839 24.7369 2.33193 23.181 2.68154C21.9025 2.96923 20.8279 3.81956 20.2676 4.9412C20.398 4.02896 20.3889 2.91278 19.9461 1.8221C19.4079 0.498347 18.2892 -0.492191 17.0273 -0.759855C15.4898 -1.08761 13.6969 -0.302823 12.6701 1.15203C12.0106 2.0843 11.5716 3.27877 11.4099 4.51694C11.1656 3.66479 10.5925 2.88001 9.80629 2.41205C8.638 1.71467 7.05457 1.69282 5.77423 2.3556C4.58206 2.97287 3.6489 4.16916 3.276 5.55482C2.95821 6.74383 3.03353 8.04027 3.4946 9.32214C2.38693 8.37895 1.22231 7.47399 -0.337241 7.74894C-1.38245 7.93284 -2.24581 8.57013 -2.70504 9.49694C-3.16244 10.4183 -3.14591 11.478 -2.65912 12.403C-1.83618 13.9653 -0.155384 14.9413 2.48245 15.3855C4.30652 15.6933 6.1857 15.7115 8.00059 15.7297C8.33675 15.7333 8.67474 15.737 9.0109 15.7406C9.27725 15.7442 9.51238 15.7497 9.72914 15.757C11.2171 15.8025 12.7068 15.8335 14.158 15.8462C14.7807 15.8517 15.4016 15.8553 16.0206 15.8553C18.2727 15.8553 20.5046 15.8171 22.6758 15.7388C23.2122 15.7188 23.7596 15.6914 24.2868 15.6641C25.0657 15.6241 25.8702 15.5822 26.662 15.5694C27.9937 15.5458 29.1859 15.4875 30.2697 15.0068C31.2065 14.5898 32.4612 13.8761 32.5457 12.4868C32.6008 11.6037 32.1966 10.6659 31.438 9.91209Z" fill="#6F74C5"/>
<path d="M133.197 73.5871C129.313 69.7196 124.038 68.0135 119.262 69.0313C122.304 65.5845 122.746 60.0236 120.199 56.0305C117.603 51.9646 112.175 49.8087 107.29 50.9085C103.282 51.8098 99.9115 54.481 98.1517 57.9952C98.5613 55.1365 98.5338 51.6332 97.1432 48.2137C95.4551 44.0603 91.9484 40.9558 87.9879 40.1127C83.1623 39.084 77.5432 41.5494 74.323 46.107C72.2546 49.033 70.8751 52.7803 70.3718 56.6642C69.6076 53.9894 67.8093 51.5312 65.3423 50.06C61.6757 47.8732 56.7124 47.804 52.6968 49.8834C48.9568 51.8189 46.0288 55.5699 44.8623 59.9162C43.863 63.6453 44.1 67.713 45.5457 71.7316C42.0702 68.7746 38.4202 65.9359 33.5266 66.7953C30.2477 67.3707 27.5401 69.37 26.0962 72.2779C24.6616 75.1694 24.7149 78.4924 26.2432 81.3948C28.8222 86.2965 34.0979 89.3555 42.3714 90.7485C48.0935 91.7117 53.9845 91.77 59.6827 91.8264C60.7389 91.8374 61.797 91.8483 62.8514 91.8628C63.6872 91.8756 64.4238 91.892 65.1053 91.912C69.7748 92.0559 74.4479 92.1505 78.9962 92.1942C80.9488 92.2124 82.8978 92.2216 84.8413 92.2216C91.9079 92.2216 98.9085 92.0996 105.718 91.8556C107.402 91.7955 109.114 91.7081 110.771 91.6225C113.215 91.4969 115.74 91.3676 118.222 91.3239C122.401 91.2529 126.139 91.069 129.537 89.5577C132.475 88.2503 136.411 86.0088 136.674 81.6516C136.843 78.8948 135.575 75.9542 133.197 73.5871Z" fill="#74C7E5"/>
<path d="M72.0159 66.7936C71.6614 66.8337 71.4079 67.1523 71.4483 67.5019C71.5751 68.5963 71.0129 69.778 70.078 70.3752C69.1448 70.9725 67.8259 70.9943 66.8725 70.428C65.9191 69.8618 65.3166 68.7001 65.4085 67.6021C65.4379 67.2507 65.1733 66.9411 64.8188 66.912C64.4606 66.881 64.152 67.1451 64.1226 67.4965C64.062 68.2194 64.2053 68.9477 64.5065 69.605C64.1961 70.0584 63.792 70.4499 63.3254 70.7376C63.2244 70.7995 63.1931 70.9306 63.2556 71.0307C63.296 71.0963 63.3658 71.1309 63.4393 71.1309C63.4779 71.1309 63.5183 71.12 63.5532 71.0981C64.0051 70.8195 64.4055 70.4517 64.7288 70.0293C65.0484 70.5664 65.4838 71.0362 66.0036 71.3913C65.8181 71.7937 65.5095 72.1433 65.1219 72.3618C65.0191 72.42 64.9823 72.5493 65.0411 72.6531C65.0797 72.7223 65.1531 72.7605 65.2285 72.7605C65.2652 72.7605 65.3001 72.7514 65.335 72.7332C65.7869 72.4801 66.1488 72.0795 66.3747 71.6152C67.0048 71.9521 67.7175 72.1214 68.4321 72.1214C69.2568 72.1214 70.0835 71.8975 70.7797 71.4514C72.1316 70.5865 72.916 68.9422 72.7323 67.3563C72.6919 67.0049 72.3704 66.7536 72.0159 66.7936Z" fill="#231F20"/>
<path d="M99.3326 70.7376C98.866 70.4499 98.4619 70.0584 98.1515 69.605C98.4527 68.9477 98.596 68.2194 98.5354 67.4983C98.506 67.1469 98.1992 66.8865 97.8392 66.912C97.4847 66.9411 97.2201 67.2489 97.2495 67.6021C97.3395 68.7001 96.737 69.8618 95.7855 70.428C94.8321 70.9943 93.515 70.9725 92.58 70.3752C91.6469 69.778 91.0829 68.5963 91.2097 67.5019C91.2501 67.1505 90.9966 66.8337 90.6421 66.7936C90.2894 66.7536 89.9679 67.0049 89.9275 67.3563C89.7438 68.9404 90.5282 70.5865 91.8802 71.4514C92.5782 71.8975 93.403 72.1214 94.2278 72.1214C94.9423 72.1214 95.6532 71.9521 96.2851 71.6152C96.5111 72.0795 96.873 72.4801 97.3248 72.7332C97.3579 72.7514 97.3946 72.7605 97.4314 72.7605C97.5067 72.7605 97.5802 72.7223 97.6187 72.6531C97.6775 72.5511 97.6408 72.42 97.5379 72.3618C97.1503 72.1451 96.8417 71.7955 96.6562 71.3913C97.176 71.038 97.6114 70.5682 97.931 70.0293C98.2543 70.4535 98.6548 70.8195 99.1085 71.0981C99.1434 71.12 99.1838 71.1309 99.2224 71.1309C99.294 71.1309 99.3638 71.0945 99.4061 71.0307C99.463 70.9324 99.4336 70.8013 99.3326 70.7376Z" fill="#231F20"/>
<path d="M76.1784 81.9391C75.4987 81.1835 74.3011 80.9285 73.333 81.3364C72.3337 81.7552 71.7073 82.8222 71.8763 83.8182C72.0619 84.9125 73.1365 85.5061 74.1211 85.6081C74.2349 85.619 74.3452 85.6263 74.4554 85.6263C75.2379 85.6263 75.9194 85.3313 76.3217 84.8051C76.9481 83.9857 76.8856 82.7275 76.1784 81.9391Z" fill="#91D9F2"/>
<path d="M67.4235 75.0273C66.3471 74.3918 64.8169 74.3445 63.6045 74.3609C62.2415 74.3791 60.715 74.563 59.4622 75.1238C58.5181 75.5463 57.9798 76.4712 58.4446 77.4691C58.9644 78.5871 60.4101 78.933 61.527 79.0696C63.3492 79.2917 67.2416 79.4119 68.2134 77.4436C68.6616 76.5313 68.2869 75.5372 67.4235 75.0273Z" fill="#57B6DC"/>
<path d="M105.419 75.0273C104.342 74.3918 102.812 74.3445 101.6 74.3609C100.237 74.3791 98.7101 74.563 97.4574 75.1238C96.5132 75.5463 95.975 76.4712 96.4397 77.4691C96.9596 78.5871 98.4052 78.933 99.5221 79.0696C101.344 79.2917 105.237 79.4119 106.208 77.4436C106.655 76.5313 106.282 75.5372 105.419 75.0273Z" fill="#57B6DC"/>
<path d="M30.3212 69.4702C27.9534 70.4516 26.4067 73.0937 26.7226 75.6174C27.0386 78.141 29.1896 80.3297 31.7264 80.7066C31.7852 80.7157 31.844 80.7194 31.9046 80.7194C32.4851 80.7194 32.9866 80.2896 33.0729 79.7215C33.1207 79.412 33.0417 79.1024 32.8543 78.8494C32.6669 78.5981 32.3914 78.4324 32.0791 78.3869C30.5545 78.1593 29.2613 76.8446 29.0702 75.3278C28.881 73.8111 29.8105 72.2215 31.2323 71.6334C32.6559 71.0434 34.4488 71.5041 35.404 72.704C35.6005 72.9498 35.8816 73.1046 36.1938 73.141C36.508 73.1774 36.8166 73.09 37.0646 72.897C37.3125 72.7022 37.4687 72.4236 37.5072 72.1141C37.5458 71.8045 37.4558 71.4968 37.2611 71.251C35.6722 69.2535 32.6871 68.4888 30.3212 69.4702Z" fill="#57B6DC"/>
<path d="M55.0757 50.3277C51.8996 50.8722 48.9936 53.1683 47.4891 56.3201C46.1959 59.0314 45.8873 62.3799 46.6203 65.7466C46.7378 66.282 47.2228 66.6716 47.7757 66.6716C47.8602 66.6716 47.9447 66.6625 48.0255 66.6443C48.3341 66.5787 48.5986 66.3967 48.7695 66.1326C48.9403 65.8686 48.9991 65.5554 48.9311 65.2495C48.3066 62.3835 48.5527 59.5685 49.6255 57.3198C50.8048 54.8471 53.0477 53.0517 55.4743 52.6348C58.0019 52.2032 60.7279 53.4359 61.8172 55.5044C61.9641 55.783 62.2103 55.9869 62.5116 56.0816C62.8128 56.1763 63.1343 56.1472 63.4135 56.0033C63.9921 55.7047 64.2181 54.9946 63.915 54.421C62.3499 51.4421 58.6301 49.7196 55.0757 50.3277Z" fill="#57B6DC"/>
<path d="M91.5075 46.1598C90.5504 43.1664 87.2568 40.9977 83.8475 41.1216C80.8753 41.2272 77.9252 42.8969 75.9523 45.5881C74.3781 47.7367 73.3843 50.5171 73.0004 53.8529C72.9269 54.4956 73.3935 55.0783 74.0438 55.1511C74.0897 55.1566 74.1338 55.1584 74.1779 55.1584C74.7785 55.1584 75.2837 54.7123 75.3517 54.1187C75.6897 51.1908 76.5365 48.7837 77.8683 46.9646C79.415 44.8525 81.6817 43.5433 83.932 43.465C86.3181 43.3794 88.6051 44.8434 89.2517 46.8663C89.3472 47.1649 89.5548 47.4107 89.8359 47.5546C90.1169 47.6984 90.4365 47.7257 90.736 47.6311C91.3587 47.4362 91.704 46.7771 91.5075 46.1598Z" fill="#57B6DC"/>
<path d="M120.2 56.0306C122.748 60.0237 122.303 65.5827 119.263 69.0314C120.702 68.7255 122.184 68.6672 123.659 68.8384C130.263 63.689 134.649 55.6992 135.459 47.2468C136.356 37.9041 133.582 28.1681 128.218 21.8388C122.752 15.3876 115.286 11.5019 106.03 10.2892C100.64 9.58273 94.2498 10.4258 89.7475 12.4323C85.2341 14.4444 81.169 18.1279 78.3034 22.8039C75.7923 26.9008 74.0931 31.8225 73.2555 37.4289C73.2408 37.5254 73.2941 37.6182 73.3841 37.6565C73.4741 37.6947 73.5788 37.6656 73.6394 37.5891C75.5866 35.0508 78.9702 33.1717 83.1694 32.2941C87.2713 31.4383 91.4246 31.7533 94.867 33.1827C98.6511 34.7522 101.697 37.7803 103.017 41.2818C104.443 45.0636 103.831 49.4209 101.458 52.3816C101.414 52.438 101.399 52.5127 101.421 52.5801C101.443 52.6475 101.498 52.7003 101.568 52.7203C101.921 52.8186 102.251 52.8933 102.575 52.9643C103.98 52.0029 105.576 51.2909 107.292 50.9049C112.175 49.8106 117.604 51.9646 120.2 56.0306Z" fill="#FEABD5"/>
<path d="M107.553 29.6538C107.402 28.9127 107.09 28.2281 106.811 27.6454C106.657 27.3267 106.273 27.1902 105.951 27.3431C105.63 27.4961 105.494 27.8766 105.646 28.1953C105.894 28.7088 106.168 29.3078 106.289 29.9051C106.372 30.3166 106.42 30.9193 106.168 31.4564C105.852 32.1319 105.069 32.6017 104.221 32.6254C103.425 32.6491 102.56 32.2976 101.857 31.664C101.592 31.4255 101.184 31.4455 100.946 31.7059C100.705 31.9681 100.725 32.3723 100.988 32.609C101.904 33.4357 103.051 33.9036 104.149 33.9036C104.184 33.9036 104.221 33.9036 104.256 33.9018C105.582 33.8654 106.82 33.097 107.338 31.9917C107.652 31.3217 107.726 30.5132 107.553 29.6538Z" fill="#231F20"/>
<path d="M86.169 22.4433C84.2586 21.7987 82.0378 23.7707 82.3335 25.7208C82.4511 26.4892 82.8828 27.2685 83.4743 27.7783C84.5874 28.7361 86.4244 28.1516 87.341 27.2048C88.7095 25.79 88.0335 23.0733 86.169 22.4433Z" fill="#FF84C7"/>
<path d="M99.1303 26.4638C98.4451 24.876 96.7882 24.3298 95.2801 25.0581C94.4259 25.4715 93.6103 26.2344 93.5111 27.2158C93.3403 28.9128 94.6868 30.934 96.5953 30.324C98.1034 29.8396 99.8559 28.1426 99.1303 26.4638Z" fill="#FFEAA3"/>
<path d="M106.329 14.0475C106.046 13.8544 105.738 13.6979 105.418 13.5868C104.057 13.1134 102.573 13.3847 101.636 14.5008C99.7971 16.6931 101.336 20.3931 104.43 19.7157C105.708 19.4353 107.24 18.6597 107.663 17.3304C108.08 16.0213 107.389 14.774 106.329 14.0475Z" fill="#FF84C7"/>
<path d="M127.454 24.2878C127.202 23.5668 126.578 23.0169 125.865 22.762C124.179 22.1575 122.469 23.2591 122.019 24.9179C121.738 25.9539 122.061 27.1994 123.095 27.7165C124.329 28.3337 125.79 27.66 126.681 26.7533C127.348 26.0777 127.787 25.242 127.454 24.2878Z" fill="#FF84C7"/>
<path d="M129.127 34.4173C126.749 34.3353 124.539 36.0997 124.73 38.567C124.732 38.5906 124.737 38.6125 124.743 38.6361C124.743 38.9348 124.805 39.2407 124.956 39.5502C125.419 40.5043 126.361 41.2491 127.34 41.6296C129.52 42.4818 131.96 41.6751 132.325 39.2243C132.665 36.9464 131.756 34.5065 129.127 34.4173Z" fill="#FFEAA3"/>
<path d="M115.154 43.3391C113.862 43.177 112.61 44.315 112.057 45.3802C111.513 46.4272 111.844 47.7091 112.747 48.4483C114.155 49.6009 116.309 48.9345 117.129 47.5507C118.201 46.1686 117.2 43.594 115.154 43.3391Z" fill="#FFEAA3"/>
<path d="M129.117 52.3307C128.132 50.7793 126.315 50.7866 124.927 51.8591C123.878 52.6694 123.196 54.0933 123.703 55.3843C124.179 56.5988 125.485 57.2561 126.749 57.2852C129.524 57.3489 130.406 54.3628 129.117 52.3307Z" fill="#FFEAA3"/>
<path d="M115.742 28.308C113.448 28.3991 111.894 30.433 110.731 32.2028C110.431 32.5834 110.213 33.0167 110.167 33.5211C110.088 34.3805 110.551 35.1799 111.363 35.504C113.185 36.2323 115.437 34.1165 116.374 32.7873C117.18 31.642 118.183 28.2115 115.742 28.308Z" fill="#FFEAA3"/>
<path d="M97.606 13.3154C97.4076 12.5961 96.4929 12.4286 95.9657 12.394C87.9676 11.8642 80.7301 19.3824 77.3924 26.593C76.8469 27.7729 76.4574 28.9582 76.2388 30.1199L76.226 30.1855C76.0919 30.8883 75.9413 31.6858 75.8861 32.3942C75.8641 32.6746 75.9229 32.944 76.0515 33.1534C76.1029 33.2372 76.1654 33.3119 76.237 33.3719C76.3821 33.4958 76.5419 33.5577 76.7164 33.5577C76.7642 33.5577 76.812 33.5522 76.8616 33.5431C77.4843 33.4247 78.0831 32.5726 78.3127 32.1392C78.7683 31.278 79.0916 30.3439 79.4039 29.4426C79.5251 29.093 79.6463 28.7434 79.7749 28.3974C81.1637 24.661 83.2853 21.6148 86.0811 19.3442C88.6124 17.2885 91.7425 16.1104 94.7478 15.1435C94.847 15.1107 94.9902 15.0743 95.1592 15.0306C95.9124 14.834 97.1725 14.5026 97.5344 13.8835C97.6354 13.705 97.6611 13.5138 97.606 13.3154Z" fill="#CA6CAA"/>
<path d="M99.9133 11.5801C99.5918 11.3944 99.2116 11.4072 98.8717 11.5346C98.6844 11.6056 98.5264 11.7003 98.4217 11.8787C98.012 12.5743 99.0205 13.5211 99.7167 13.3518C100.057 13.2699 100.334 13.0077 100.417 12.669C100.525 12.232 100.292 11.7986 99.9133 11.5801Z" fill="#CA6CAA"/>
<path d="M135.537 46.3145C135.557 46.0122 135.575 45.7081 135.588 45.4059C135.426 45.5752 135.291 45.7846 135.197 46.0413C133.678 50.1273 131.341 53.9238 128.347 57.1121C127.057 58.485 125.661 59.7377 124.203 60.9194C124.436 60.7301 123.508 58.5287 123.378 58.2155C122.99 57.285 122.504 56.3947 121.931 55.5607C120.804 53.9238 119.346 52.509 117.661 51.442C114.136 49.2078 110.055 48.8108 106.118 50.1109C105.071 50.4569 104.12 50.9212 103.253 51.6204C102.792 51.6714 102.334 51.7351 101.882 51.8116C101.748 52.0082 101.605 52.1994 101.456 52.3852C101.412 52.4416 101.397 52.5163 101.419 52.5836C101.441 52.651 101.497 52.7038 101.566 52.7238C101.919 52.8222 102.25 52.8968 102.573 52.9678C103.978 52.0064 105.574 51.2945 107.29 50.9085C112.175 49.8105 117.603 51.9645 120.198 56.0305C122.333 59.3754 122.366 63.82 120.533 67.2032C120.533 67.2032 120.533 67.205 120.531 67.205C120.463 67.3288 120.393 67.4508 120.321 67.5728C120.316 67.5801 120.312 67.5892 120.307 67.5965C120.239 67.7094 120.169 67.8186 120.097 67.9279C120.086 67.9443 120.077 67.9606 120.066 67.9752C120 68.0754 119.93 68.1755 119.858 68.2738C119.842 68.2957 119.827 68.3193 119.811 68.3412C119.743 68.4359 119.671 68.5269 119.599 68.618C119.579 68.6435 119.561 68.6689 119.543 68.6926C119.451 68.8073 119.357 68.9202 119.26 69.0295C120.698 68.7236 122.18 68.6653 123.655 68.8365C130.259 63.6871 134.646 55.6973 135.456 47.2449C135.485 46.939 135.511 46.6331 135.531 46.3272C135.537 46.3236 135.537 46.3181 135.537 46.3145Z" fill="#EBCE72"/>
<path d="M38.1591 40.6972C38.0342 40.4787 37.7532 40.4022 37.5327 40.5261L31.8437 43.7271L35.7399 36.5584C35.8299 36.3909 35.8078 36.187 35.6811 36.0431C35.5562 35.9011 35.3541 35.8501 35.1741 35.9157C32.5914 36.8734 30.1078 38.1116 27.7952 39.5974C27.5821 39.734 27.5214 40.0162 27.6592 40.2274C27.797 40.4387 28.0817 40.4987 28.2948 40.3622C30.2052 39.1368 32.2332 38.0825 34.3365 37.2212L30.2768 44.6885C30.1795 44.8669 30.2144 45.0873 30.3595 45.2293C30.4477 45.3149 30.5634 45.3586 30.681 45.3586C30.7581 45.3586 30.8371 45.3385 30.9069 45.2985L37.9846 41.3145C38.2069 41.1925 38.284 40.9157 38.1591 40.6972Z" fill="#F7E9BC"/>
<path d="M43.3522 53.0096C43.253 52.7784 42.983 52.671 42.7497 52.7693C41.5539 53.2737 40.3158 53.6943 39.0556 54.0257C40.167 52.3268 41.0818 50.506 41.7835 48.6032C41.8422 48.443 41.8055 48.2627 41.6898 48.1371C41.5722 48.0114 41.394 47.9623 41.2287 48.0078C39.096 48.6014 37.057 49.4827 35.1668 50.628C34.9501 50.7591 34.8821 51.0395 35.0144 51.2543C35.1466 51.4692 35.4295 51.5366 35.6463 51.4055C37.1985 50.4641 38.8572 49.7085 40.5876 49.1513C39.8161 51.034 38.826 52.8221 37.6357 54.4791C37.5255 54.632 37.5218 54.8378 37.6265 54.9944C37.7128 55.1236 37.8579 55.1983 38.0104 55.1983C38.0435 55.1983 38.0765 55.1946 38.1078 55.1874C39.818 54.8177 41.5006 54.2842 43.1116 53.6051C43.343 53.5085 43.4514 53.2409 43.3522 53.0096Z" fill="#F7E9BC"/>
<path d="M33.2435 30.0542C33.1297 29.8302 32.8523 29.7392 32.6263 29.8521L23.2506 34.5426C25.0086 30.9027 27.1266 27.4267 29.5605 24.1947C29.6781 24.0381 29.6817 23.8233 29.5697 23.663C29.4576 23.5028 29.2537 23.43 29.0645 23.4846C25.905 24.3932 22.9439 25.8116 20.2638 27.7035C20.058 27.8491 20.0085 28.1332 20.1554 28.339C20.3024 28.5429 20.5889 28.5921 20.7965 28.4464C23.0137 26.8805 25.4311 25.6478 27.9973 24.7737C25.6129 28.0913 23.5501 31.6438 21.8564 35.351C21.7756 35.5276 21.816 35.7334 21.9574 35.8681C22.0456 35.9519 22.1595 35.9956 22.2752 35.9956C22.345 35.9956 22.4167 35.9792 22.4828 35.9464L33.0415 30.6642C33.2656 30.5531 33.3574 30.2782 33.2435 30.0542Z" fill="#F7E9BC"/>
<path d="M48.5252 40.0254C47.7262 40.0254 47.7243 41.2563 48.5252 41.2563C49.3243 41.2563 49.3261 40.0254 48.5252 40.0254Z" fill="#ADB9D1"/>
<path d="M51.2808 24.6666C50.7518 24.6666 50.7518 25.4805 51.2808 25.4805C51.8099 25.4805 51.8099 24.6666 51.2808 24.6666Z" fill="#ADB9D1"/>
<path d="M70.0156 11.786C68.7205 11.786 68.7187 13.7817 70.0156 13.7817C71.3106 13.7817 71.3143 11.786 70.0156 11.786Z" fill="#ADB9D1"/>
<path d="M51.0054 13.1862C50.818 13.1862 50.818 13.4739 51.0054 13.4739C51.1928 13.4739 51.1928 13.1862 51.0054 13.1862Z" fill="#ADB9D1"/>
<path d="M6.92063 30.9027C6.68734 30.9027 6.68734 31.2615 6.92063 31.2615C7.15392 31.2615 7.15392 30.9027 6.92063 30.9027Z" fill="#ADB9D1"/>
<path d="M19.3201 37.6182H19.0445C18.7451 37.6182 18.4604 37.8785 18.4732 38.1845C18.4879 38.4904 18.7249 38.7507 19.0445 38.7507H19.3201C19.6195 38.7507 19.9042 38.4904 19.8913 38.1845C19.8766 37.8767 19.6397 37.6182 19.3201 37.6182Z" fill="#ADB9D1"/>
<path d="M6.36955 62.6949C5.2178 62.6949 5.21596 64.4702 6.36955 64.4702C7.52131 64.4702 7.52314 62.6949 6.36955 62.6949Z" fill="#ADB9D1"/>
<path d="M19.5954 70.437C18.5649 70.437 18.563 72.0247 19.5954 72.0247C20.6259 72.0229 20.6277 70.437 19.5954 70.437Z" fill="#ADB9D1"/>
<path d="M20.6975 77.6184C20.4825 77.6184 20.4807 77.9498 20.6975 77.9498C20.9124 77.9498 20.9124 77.6184 20.6975 77.6184Z" fill="#ADB9D1"/>
<path d="M5.79822 99.4176C5.41981 99.4176 5.41981 100 5.79822 100C6.17663 100 6.17663 99.4176 5.79822 99.4176Z" fill="#ADB9D1"/>
<path d="M20.6776 103.915C19.5203 103.915 19.5185 105.698 20.6776 105.698C21.8349 105.699 21.8367 103.915 20.6776 103.915Z" fill="#ADB9D1"/>
<path d="M39.5977 105.789C38.9805 105.789 38.9805 106.739 39.5977 106.739C40.2149 106.739 40.2149 105.789 39.5977 105.789Z" fill="#ADB9D1"/>
<path d="M56.6686 110.454C56.6594 110.268 56.5988 110.077 56.4573 109.948C56.4077 109.911 56.36 109.873 56.3104 109.836C56.1983 109.771 56.0771 109.74 55.9467 109.738C55.7446 109.713 55.5187 109.829 55.3809 109.969C55.2358 110.117 55.1549 110.319 55.1549 110.527C55.1531 110.942 55.5003 111.344 55.9411 111.319C56.1322 111.308 56.3122 111.246 56.4518 111.109C56.5767 110.985 56.6704 110.781 56.6631 110.603C56.6631 110.59 56.6594 110.578 56.6594 110.567C56.6649 110.527 56.6704 110.49 56.6686 110.454Z" fill="#ADB9D1"/>
<path d="M7.63538 112.107C6.71141 112.107 6.70957 113.531 7.63538 113.531C8.55936 113.531 8.5612 112.107 7.63538 112.107Z" fill="#ADB9D1"/>
<path d="M113.81 113.562C113.418 113.58 113.09 113.875 113.09 114.275V114.458C113.09 114.831 113.42 115.19 113.81 115.171C114.201 115.153 114.53 114.858 114.53 114.458V114.275C114.53 113.902 114.199 113.544 113.81 113.562Z" fill="#ADB9D1"/>
<path d="M124.831 115.472H124.648C124.547 115.472 124.547 115.628 124.648 115.628H124.831C124.932 115.628 124.932 115.472 124.831 115.472Z" fill="#ADB9D1"/>
<path d="M170.204 121.106C168.905 121.106 168.903 123.105 170.204 123.105C171.502 123.105 171.504 121.106 170.204 121.106Z" fill="#ADB9D1"/>
<path d="M169.653 106.996C168.712 106.996 168.71 108.445 169.653 108.445C170.593 108.445 170.595 106.996 169.653 106.996Z" fill="#ADB9D1"/>
<path d="M132.73 110.75C132.172 110.75 132.17 111.612 132.73 111.612C133.289 111.61 133.291 110.75 132.73 110.75Z" fill="#ADB9D1"/>
<path d="M129.135 102.726C129.075 102.666 129.012 102.604 128.952 102.544C128.79 102.384 128.549 102.286 128.322 102.286C128.103 102.286 127.842 102.382 127.692 102.544C127.535 102.712 127.42 102.934 127.431 103.169C127.442 103.404 127.521 103.624 127.692 103.793L127.875 103.975C128.037 104.135 128.278 104.234 128.505 104.234C128.724 104.234 128.985 104.137 129.135 103.975C129.292 103.808 129.407 103.586 129.396 103.351C129.385 103.116 129.306 102.896 129.135 102.726Z" fill="#ADB9D1"/>
<path d="M161.386 100.953C160.874 100.953 160.874 101.741 161.386 101.741C161.899 101.743 161.899 100.953 161.386 100.953Z" fill="#ADB9D1"/>
<path d="M149.079 89.3754C148.666 89.3754 148.666 90.0127 149.079 90.0127C149.492 90.0127 149.492 89.3754 149.079 89.3754Z" fill="#ADB9D1"/>
<path d="M139.343 78.72H139.159C139.097 78.72 139.097 78.8165 139.159 78.8165H139.343C139.406 78.8183 139.406 78.72 139.343 78.72Z" fill="#ADB9D1"/>
<path d="M141.959 67.2541C141.794 67.1048 141.592 67.0102 141.364 67.0102H141.18C140.965 67.0102 140.737 67.103 140.585 67.2541C140.44 67.398 140.33 67.6365 140.339 67.8441C140.348 68.059 140.42 68.2829 140.585 68.4341C140.75 68.5834 140.952 68.678 141.18 68.678H141.364C141.579 68.678 141.806 68.5852 141.959 68.4341C142.104 68.2902 142.214 68.0517 142.205 67.8441C142.194 67.6292 142.122 67.4053 141.959 67.2541Z" fill="#ADB9D1"/>
<path d="M144.411 53.8236V54.0057C144.411 54.1022 144.564 54.1022 144.564 54.0057V53.8236C144.562 53.7271 144.411 53.7271 144.411 53.8236Z" fill="#ADB9D1"/>
<path d="M158.08 80.3316H157.966C157.158 80.3316 157.156 81.5771 157.966 81.5771H158.08C158.888 81.5771 158.89 80.3316 158.08 80.3316Z" fill="#ADB9D1"/>
<path d="M151.283 62.8531C150.005 62.8531 150.001 64.8233 151.283 64.8233C152.562 64.8233 152.565 62.8531 151.283 62.8531Z" fill="#ADB9D1"/>
<path d="M167.081 54.5012C166.541 54.5012 166.541 55.3333 167.081 55.3333C167.621 55.3315 167.621 54.5012 167.081 54.5012Z" fill="#ADB9D1"/>
<path d="M140.445 42.1851H140.261C140.03 42.1851 139.788 42.2853 139.622 42.4473C139.466 42.6021 139.348 42.857 139.358 43.081C139.38 43.5653 139.754 43.9768 140.261 43.9768H140.445C140.677 43.9768 140.919 43.8767 141.084 43.7146C141.24 43.5598 141.358 43.3049 141.349 43.081C141.327 42.5966 140.952 42.1851 140.445 42.1851Z" fill="#ADB9D1"/>
<path d="M160.652 31.0651H160.284C159.902 31.0651 159.535 31.3983 159.551 31.7916C159.57 32.1849 159.873 32.5181 160.284 32.5181H160.652C161.034 32.5181 161.401 32.1849 161.384 31.7916C161.366 31.3983 161.061 31.0651 160.652 31.0651Z" fill="#ADB9D1"/>
<path d="M171.673 34.3444C170.498 34.3444 170.496 36.1562 171.673 36.1562C172.849 36.158 172.851 34.3444 171.673 34.3444Z" fill="#ADB9D1"/>
<path d="M172.04 25.7264C171.73 25.7264 171.73 26.2035 172.04 26.2035C172.351 26.2035 172.351 25.7264 172.04 25.7264Z" fill="#ADB9D1"/>
<path d="M165.749 2.88563C165.58 2.71811 165.303 2.59247 165.06 2.60157C164.809 2.6125 164.546 2.69444 164.371 2.88563C164.197 3.07499 164.085 3.30806 164.085 3.56844V3.75053C164.085 3.99816 164.193 4.25854 164.371 4.43334C164.54 4.60086 164.818 4.7265 165.06 4.71739C165.312 4.70647 165.575 4.62453 165.749 4.43334C165.924 4.24397 166.036 4.01091 166.036 3.75053V3.56844C166.036 3.32081 165.927 3.06043 165.749 2.88563Z" fill="#ADB9D1"/>
<path d="M153.601 0.137941H153.488C152.108 0.137941 152.104 2.26468 153.488 2.26468H153.601C154.981 2.26468 154.985 0.137941 153.601 0.137941Z" fill="#ADB9D1"/>
<path d="M127.036 8.55016C125.704 8.55016 125.7 10.6022 127.036 10.6022C128.368 10.6041 128.371 8.55016 127.036 8.55016Z" fill="#ADB9D1"/>
<path d="M105.176 1.54006C104.434 1.54006 104.432 2.68355 105.176 2.68355C105.918 2.68355 105.92 1.54006 105.176 1.54006Z" fill="#ADB9D1"/>
<path d="M75.0507 0.545906C73.9632 0.545906 73.9614 2.22108 75.0507 2.22108C76.1381 2.22108 76.14 0.545906 75.0507 0.545906Z" fill="#ADB9D1"/>
<path d="M64.3964 39.4773C63.9721 39.4773 63.9721 40.1292 64.3964 40.1292C64.8207 40.1292 64.8207 39.4773 64.3964 39.4773Z" fill="#ADB9D1"/>
<path d="M36.4014 22.6126C36.3959 22.6126 36.3959 22.6198 36.4014 22.6198C36.4068 22.6198 36.4068 22.6126 36.4014 22.6126Z" fill="#515763"/>
<path d="M57.6216 2.12799L57.3461 1.85486C57.1991 1.70919 56.931 1.69827 56.7858 1.85486C56.6407 2.01145 56.6297 2.25545 56.7858 2.41022C56.8777 2.50126 56.9695 2.5923 57.0614 2.68334C57.2083 2.82901 57.4765 2.83994 57.6216 2.68334C57.7667 2.52675 57.7796 2.28276 57.6216 2.12799Z" fill="#515763"/>
<path d="M1.96086 21.0027H1.68532C1.40978 21.0027 1.14709 21.2431 1.15995 21.5235C1.17281 21.8057 1.39141 22.0442 1.68532 22.0442H1.96086C2.2364 22.0442 2.49908 21.8039 2.48622 21.5235C2.47336 21.2412 2.2566 21.0027 1.96086 21.0027Z" fill="#515763"/>
<path d="M13.5335 52.4704C12.5819 52.4704 12.5801 53.938 13.5335 53.938C14.485 53.938 14.4868 52.4704 13.5335 52.4704Z" fill="#515763"/>
<path d="M-0.188429 89.2971H-0.263743C-1.25017 89.2971 -1.25201 90.8175 -0.263743 90.8175H-0.188429C0.79984 90.8193 0.801677 89.2971 -0.188429 89.2971Z" fill="#515763"/>
<path d="M45.8432 121.016H45.6595C45.4684 121.016 45.2866 121.182 45.2958 121.377C45.3049 121.573 45.4556 121.737 45.6595 121.737H45.8432C46.0342 121.737 46.2161 121.572 46.2069 121.377C46.1995 121.18 46.0471 121.016 45.8432 121.016Z" fill="#515763"/>
<path d="M144.486 118.438C144.453 118.438 144.453 118.486 144.486 118.486C144.518 118.488 144.518 118.438 144.486 118.438Z" fill="#515763"/>
<path d="M157.712 110.18C156.887 110.18 156.886 111.45 157.712 111.45C158.537 111.451 158.539 110.18 157.712 110.18Z" fill="#515763"/>
<path d="M172.959 78.5359C172.182 78.5359 172.182 79.7322 172.959 79.7322C173.736 79.7304 173.736 78.5359 172.959 78.5359Z" fill="#515763"/>
<path d="M157.528 53.5559C157.183 53.5704 156.891 53.8326 156.891 54.1877V54.3698C156.891 54.6994 157.183 55.0162 157.528 55.0016C157.874 54.9871 158.166 54.7249 158.166 54.3698V54.1877C158.166 53.8581 157.872 53.5413 157.528 53.5559Z" fill="#515763"/>
<path d="M139.894 24.3077C139.635 24.3077 139.635 24.7065 139.894 24.7065C140.153 24.7083 140.153 24.3077 139.894 24.3077Z" fill="#515763"/>
<path d="M173.693 7.17539C173.65 7.17539 173.65 7.2424 173.693 7.2424C173.737 7.24422 173.737 7.17539 173.693 7.17539Z" fill="#515763"/>
<path d="M111.238 7.01889C111.225 7.01889 111.225 7.03803 111.238 7.03803C111.25 7.03629 111.25 7.01889 111.238 7.01889Z" fill="#515763"/>
<path d="M98.0123 5.83698C97.6596 5.85337 97.362 6.11921 97.362 6.48156V6.66364C97.362 7.0005 97.6614 7.32278 98.0123 7.30822C98.365 7.29183 98.6625 7.02599 98.6625 6.66364V6.48156C98.6625 6.1447 98.3631 5.82241 98.0123 5.83698Z" fill="#515763"/>
<path d="M65.8842 24.9378C64.6424 24.9378 64.6406 26.8497 65.8842 26.8497C67.1241 26.8497 67.1278 24.9378 65.8842 24.9378Z" fill="#F2E3B5"/>
<path d="M38.5175 21.8842C38.3356 21.7039 38.0399 21.5692 37.779 21.5819C37.509 21.5947 37.2298 21.6821 37.0406 21.8842C36.8532 22.0863 36.7356 22.3358 36.7356 22.6162V22.8893C36.7356 23.1551 36.8514 23.4337 37.0406 23.6213C37.2224 23.8015 37.5182 23.9363 37.779 23.9235C38.0491 23.9108 38.3283 23.8234 38.5175 23.6213C38.7048 23.4192 38.8224 23.1697 38.8224 22.8893V22.6162C38.8224 22.3503 38.7067 22.0717 38.5175 21.8842Z" fill="#F2E3B5"/>
<path d="M38.3301 7.6981C38.1115 7.6981 38.1096 8.03678 38.3301 8.03678C38.5505 8.03678 38.5505 7.6981 38.3301 7.6981Z" fill="#F2E3B5"/>
<path d="M18.4931 19.4424H18.2176C17.9843 19.4424 17.762 19.6463 17.7731 19.883C17.7841 20.1216 17.9696 20.3255 18.2176 20.3255H18.4931C18.7264 20.3255 18.9487 20.1216 18.9377 19.883C18.9266 19.6463 18.743 19.4424 18.4931 19.4424Z" fill="#F2E3B5"/>
<path d="M0.0319079 53.7072C-0.734092 53.7072 -0.735929 54.8872 0.0319079 54.8872C0.797908 54.8872 0.799745 53.7072 0.0319079 53.7072Z" fill="#F2E3B5"/>
<path d="M26.2083 54.9924H25.9328C25.7234 54.9924 25.5213 55.1745 25.5323 55.3894C25.5415 55.6042 25.7087 55.7863 25.9328 55.7863H26.2083C26.4177 55.7863 26.6198 55.6042 26.6088 55.3894C26.5996 55.1745 26.4324 54.9924 26.2083 54.9924Z" fill="#F2E3B5"/>
<path d="M23.4527 86.7607C22.6959 86.7607 22.694 87.926 23.4527 87.926C24.2095 87.926 24.2114 86.7607 23.4527 86.7607Z" fill="#F2E3B5"/>
<path d="M13.2577 91.7063C12.5394 91.7063 12.5376 92.8134 13.2577 92.8134C13.9759 92.8134 13.9778 91.7063 13.2577 91.7063Z" fill="#F2E3B5"/>
<path d="M0.967058 106.961C0.895418 106.744 0.759485 106.528 0.548238 106.42C0.393936 106.342 0.232286 106.28 0.0559413 106.287C-0.184696 106.298 -0.436356 106.382 -0.605354 106.561C-0.794557 106.761 -0.884567 106.998 -0.893752 107.267C-0.902936 107.516 -0.789046 107.804 -0.603516 107.973C-0.276543 108.27 0.160646 108.321 0.550075 108.114C0.748463 108.008 0.910113 107.784 0.968895 107.573C0.992775 107.487 0.998285 107.391 0.994612 107.294C1.00747 107.181 1.00196 107.069 0.967058 106.961Z" fill="#F2E3B5"/>
<path d="M35.189 93.6108C34.5993 93.6108 34.5993 94.5176 35.189 94.5176C35.7787 94.5176 35.7787 93.6108 35.189 93.6108Z" fill="#F2E3B5"/>
<path d="M130.893 119.866C129.877 119.866 129.875 121.43 130.893 121.43C131.909 121.431 131.911 119.866 130.893 119.866Z" fill="#F2E3B5"/>
<path d="M144.565 120.024C144.505 119.964 144.442 119.902 144.382 119.842C144.22 119.682 143.981 119.583 143.752 119.583C143.533 119.583 143.272 119.68 143.121 119.842C142.965 120.009 142.85 120.232 142.861 120.466C142.872 120.7 142.951 120.922 143.121 121.091C143.182 121.151 143.245 121.213 143.305 121.273C143.467 121.433 143.706 121.532 143.935 121.532C144.154 121.532 144.415 121.435 144.565 121.273C144.721 121.106 144.837 120.883 144.826 120.649C144.815 120.415 144.734 120.193 144.565 120.024Z" fill="#F2E3B5"/>
<path d="M156.61 118.966C156.079 118.966 156.079 119.784 156.61 119.784C157.141 119.782 157.141 118.966 156.61 118.966Z" fill="#F2E3B5"/>
<path d="M147.609 101.557C147.425 101.564 147.269 101.704 147.269 101.894V102.076C147.269 102.253 147.425 102.42 147.609 102.413C147.793 102.405 147.949 102.265 147.949 102.076V101.894C147.949 101.717 147.793 101.55 147.609 101.557Z" fill="#F2E3B5"/>
<path d="M137.139 93.3213C136.411 93.3213 136.409 94.4411 137.139 94.4411C137.866 94.4429 137.868 93.3213 137.139 93.3213Z" fill="#F2E3B5"/>
<path d="M175.163 95.8941C174.465 95.8941 174.465 96.9684 175.163 96.9684C175.861 96.9684 175.861 95.8941 175.163 95.8941Z" fill="#F2E3B5"/>
<path d="M147.502 78.1465C147.442 78.0864 147.379 78.0245 147.319 77.9644C147.183 77.8296 146.933 77.8187 146.799 77.9644C146.665 78.11 146.654 78.3358 146.799 78.4797L146.983 78.6618C147.118 78.7965 147.368 78.8074 147.502 78.6618C147.636 78.5179 147.648 78.2921 147.502 78.1465Z" fill="#F2E3B5"/>
<path d="M162.121 69.5793C161.774 69.5793 161.772 70.1146 162.121 70.1146C162.468 70.1146 162.47 69.5793 162.121 69.5793Z" fill="#F2E3B5"/>
<path d="M169.652 64.7613C169.36 64.774 169.114 64.9962 169.114 65.2948V65.4769C169.114 65.7555 169.362 66.0231 169.652 66.0104C169.944 65.9976 170.191 65.7755 170.191 65.4769V65.2948C170.191 65.0162 169.943 64.7486 169.652 64.7613Z" fill="#F2E3B5"/>
<path d="M147.425 35.6699C147.232 35.679 147.067 35.8246 147.067 36.0249V36.116C147.067 36.3017 147.23 36.4783 147.425 36.471C147.618 36.4619 147.783 36.3163 147.783 36.116V36.0249C147.783 35.8392 147.618 35.6626 147.425 35.6699Z" fill="#F2E3B5"/>
<path d="M136.955 31.7897C136.714 31.7897 136.714 32.1594 136.955 32.1594C137.196 32.1575 137.196 31.7897 136.955 31.7897Z" fill="#F2E3B5"/>
<path d="M171.489 15.6787H171.305C171.066 15.6787 170.835 15.8881 170.848 16.1321C170.859 16.3779 171.05 16.5855 171.305 16.5855H171.489C171.728 16.5855 171.959 16.3761 171.946 16.1321C171.935 15.8862 171.746 15.6787 171.489 15.6787Z" fill="#D5A6D2"/>
<path d="M174.428 9.25305C173.299 9.25305 173.297 10.9938 174.428 10.9938C175.558 10.9938 175.56 9.25305 174.428 9.25305Z" fill="#D5A6D2"/>
<path d="M134.855 0.665991C134.808 0.622291 134.749 0.594978 134.683 0.594978H134.637C134.574 0.594978 134.508 0.622291 134.464 0.665991C134.422 0.707871 134.389 0.777063 134.392 0.837151C134.396 0.90088 134.416 0.96461 134.464 1.00831C134.512 1.05201 134.571 1.07932 134.637 1.07932H134.683C134.745 1.07932 134.811 1.05201 134.855 1.00831C134.898 0.966431 134.931 0.897238 134.927 0.837151C134.923 0.773421 134.903 0.709691 134.855 0.665991Z" fill="#F2E3B5"/>
<path d="M120.422 -1.24245C119.379 -1.24245 119.377 0.365355 120.422 0.365355C121.466 0.367176 121.468 -1.24245 120.422 -1.24245Z" fill="#F2E3B5"/>
<path d="M110.319 7.33555C109.3 7.33555 109.298 8.90511 110.319 8.90511C111.339 8.90511 111.341 7.33555 110.319 7.33555Z" fill="#D5A6D2"/>
<path d="M87.3576 7.55405C87.0949 7.55405 87.0931 7.9601 87.3576 7.9601C87.6203 7.95828 87.6221 7.55405 87.3576 7.55405Z" fill="#F2E3B5"/>
<path d="M66.0489 42.1046C65.9649 42.1046 65.9649 42.2332 66.0489 42.2332C66.133 42.235 66.133 42.1046 66.0489 42.1046Z" fill="#F2E3B5"/>
</g>
</svg>
