<svg width="20" height="24" viewBox="0 0 20 24" fill="none" xmlns="http://www.w3.org/2000/svg">
<path d="M4.44288 5.6638C4.44288 8.72748 6.93461 11.2174 10.0002 11.2174C13.066 11.2174 15.5575 8.71989 15.5575 5.6564C15.5575 2.59272 13.0658 0.102779 10.0002 0.102779C6.93452 0.102779 4.44288 2.59281 4.44288 5.6638ZM6.13063 5.6564C6.13063 3.52831 7.86333 1.78952 10.0002 1.78952C12.1371 1.78952 13.8698 3.52831 13.8698 5.6564C13.8698 7.78436 12.1298 9.52327 10.0002 9.52327C7.87062 9.52327 6.13063 7.78436 6.13063 5.6564Z" fill="#98A1BD" stroke="#98A1BD" stroke-width="0.2"/>
<path d="M15.1625 23.8419H4.83755C2.16607 23.8419 0 21.3996 0 18.3874C0 15.3751 2.17509 12.9328 4.83755 12.9328H15.1625C17.834 12.9328 20 15.3853 20 18.3874C20 21.3894 17.834 23.8419 15.1625 23.8419ZM4.83755 14.9681C3.16787 14.9681 1.80506 16.5047 1.80506 18.3874C1.80506 20.27 3.16787 21.8066 4.83755 21.8066H15.1625C16.8321 21.8066 18.195 20.27 18.195 18.3874C18.195 16.5047 16.8321 14.9681 15.1625 14.9681H4.83755Z" fill="#98A1BD"/>
</svg>
