<svg width="44" height="74" viewBox="0 0 44 74" fill="none" xmlns="http://www.w3.org/2000/svg">
<path d="M21.6079 74C33.5416 74 43.2157 71.8339 43.2157 69.1619C43.2157 66.4898 33.5416 64.3237 21.6079 64.3237C9.67417 64.3237 0 66.4898 0 69.1619C0 71.8339 9.67417 74 21.6079 74Z" fill="#F4A17C"/>
<path opacity="0.5" d="M21.6079 74C33.5416 74 43.2157 71.8339 43.2157 69.1619C43.2157 66.4898 33.5416 64.3237 21.6079 64.3237C9.67417 64.3237 0 66.4898 0 69.1619C0 71.8339 9.67417 74 21.6079 74Z" fill="#F4A17C"/>
<path d="M19.9355 5.20447C19.9355 5.20447 18.2802 5.05537 18.1298 3.56434C17.9793 2.07331 21.8943 0.206958 24.3772 0.132407C26.8627 0.0578553 29.2704 2.74427 29.2704 4.90626C29.2704 7.06825 29.6466 10.1274 31.5275 10.7238C33.4085 11.3203 34.6902 14.9758 33.559 16.3178C32.4304 17.6597 32.5056 17.6597 33.6342 18.8551C34.7628 20.0479 33.7847 22.1379 33.0323 22.5852C32.2799 23.0325 30.0202 23.7035 24.9765 23.2562C19.9329 22.8089 16.9208 18.2587 16.695 16.3923C16.4693 14.5285 18.1998 13.2586 18.8017 12.4385C19.4036 11.6185 18.3503 10.9475 18.4255 10.0503C18.5008 9.15569 19.6294 8.41018 19.9303 7.66209C20.2365 6.91915 19.9355 5.20447 19.9355 5.20447Z" fill="#3F4553"/>
<path d="M28.0585 23.5312C27.1738 23.5312 26.1516 23.4875 24.9685 23.3821C19.681 22.9117 16.7804 18.1404 16.5702 16.4077C16.386 14.8961 17.4238 13.7804 18.1788 12.9655C18.3915 12.7367 18.5732 12.5388 18.7029 12.364C19.0064 11.9475 18.8222 11.5747 18.6095 11.1403C18.4408 10.8009 18.2696 10.4513 18.3033 10.0426C18.35 9.47445 18.7703 8.98601 19.1777 8.51556C19.4475 8.20193 19.7017 7.9063 19.8185 7.61837C20.065 7.00911 19.8808 5.68004 19.8263 5.31756C19.4475 5.2533 18.1399 4.93195 18.0024 3.5746C17.966 3.22241 18.1243 2.84709 18.4668 2.45891C19.5539 1.23266 22.3688 0.0604091 24.3743 0.00128212C25.5081 -0.0295667 26.7197 0.497433 27.716 1.45632C28.7564 2.45633 29.4024 3.77769 29.4024 4.90625C29.4024 6.77774 29.6852 10.004 31.5714 10.603C32.5598 10.9166 33.4757 12.0657 33.9064 13.5285C34.2592 14.729 34.1684 15.8036 33.6651 16.4026C32.6429 17.616 32.6429 17.616 33.6366 18.6623L33.7377 18.7677C34.3007 19.3615 34.3293 20.107 34.2566 20.6263C34.1243 21.5723 33.5665 22.4207 33.1073 22.6957C32.7181 22.922 31.3794 23.5312 28.0585 23.5312ZM24.4755 0.258356C24.4444 0.258356 24.4133 0.258354 24.3795 0.260925C22.4674 0.317481 19.6862 1.46917 18.6588 2.63114C18.363 2.96277 18.2281 3.27383 18.2566 3.55147C18.3941 4.92167 19.93 5.07592 19.9456 5.07849C20.0053 5.08363 20.052 5.12733 20.0624 5.18389C20.0753 5.25587 20.3659 6.94484 20.0546 7.71606C19.9223 8.04255 19.655 8.3536 19.3722 8.68266C18.9935 9.12483 18.5991 9.57985 18.5602 10.0657C18.5316 10.4051 18.6899 10.7213 18.8404 11.0297C19.0713 11.495 19.3074 11.9758 18.913 12.5182C18.7755 12.7059 18.5887 12.909 18.3708 13.1429C17.6495 13.9218 16.661 14.9887 16.8297 16.382C17.032 18.0607 19.8522 22.6752 24.9944 23.1328C30.5466 23.6264 32.5028 22.7574 32.9724 22.4798C33.3719 22.2433 33.8778 21.4541 33.9998 20.5955C34.0646 20.1302 34.0387 19.4669 33.5483 18.9476L33.4498 18.8422C32.3808 17.7162 32.3289 17.598 33.4705 16.2406C33.9193 15.7059 33.992 14.7213 33.6625 13.603C33.3304 12.4694 32.5313 11.1788 31.4987 10.8524C29.4543 10.2045 29.1507 6.8523 29.1507 4.91139C29.1507 3.84967 28.5359 2.6003 27.5448 1.64655C26.616 0.759648 25.5055 0.258356 24.4755 0.258356Z" fill="#3F4553"/>
<path d="M31.9424 17.1944C31.8957 17.1944 31.8671 17.1893 31.8594 17.1867C31.7893 17.1713 31.7452 17.1019 31.7608 17.0325C31.7763 16.9631 31.8464 16.9194 31.9164 16.9348C31.919 16.9348 32.0436 16.9554 32.1992 16.8422C32.399 16.6983 32.6636 16.3358 32.796 15.4129C32.9672 14.2252 31.068 12.6674 29.0599 11.0195C28.1674 10.2869 27.2438 9.52849 26.4343 8.75213C23.7517 6.17882 23.3729 3.13507 23.3677 3.10423C23.3599 3.03482 23.4118 2.97055 23.4819 2.96283C23.5467 2.95512 23.6168 3.00654 23.6246 3.07595C23.6272 3.10423 23.9982 6.06314 26.6134 8.56704C27.4151 9.33569 28.3335 10.0915 29.2234 10.819C31.3794 12.5877 33.2422 14.1173 33.0502 15.4463C32.9309 16.2715 32.6896 16.814 32.3316 17.0582C32.1733 17.1739 32.028 17.1944 31.9424 17.1944Z" fill="#AC9B8F"/>
<path d="M19.1466 3.98339C18.306 3.98339 18.0388 3.65948 18.0258 3.64148C17.9817 3.58493 17.9921 3.50524 18.0491 3.46153C18.1036 3.41783 18.1866 3.42811 18.2308 3.48467C18.2333 3.48724 18.6666 3.96797 20.2674 3.5695C21.9486 3.15304 23.6609 1.80855 23.6765 1.79312C23.7336 1.74942 23.814 1.75713 23.8581 1.81369C23.9022 1.87025 23.8944 1.94994 23.8374 1.99364C23.7647 2.0502 22.0654 3.38698 20.3297 3.81629C19.8471 3.93969 19.4579 3.98339 19.1466 3.98339Z" fill="#AC9B8F"/>
<path d="M12.0301 66.5474C12.0301 66.5474 13.1509 68.005 14.4041 68.6914C15.6572 69.3778 17.9066 68.9048 17.258 67.2775C16.6093 65.6502 15.5716 64.7916 14.7932 64.4934C14.0149 64.1926 11.9912 64.9613 12.0301 66.5474Z" fill="#E49621"/>
<path d="M15.6779 69.1258C15.2161 69.1258 14.7387 69.0204 14.3418 68.8045C13.0783 68.1129 11.973 66.6862 11.9263 66.627C11.9108 66.6065 11.9004 66.5782 11.9004 66.5525C11.8848 65.8764 12.2221 65.262 12.8552 64.8198C13.4934 64.3751 14.347 64.1823 14.8399 64.3725C15.2291 64.5216 16.5574 65.1694 17.3773 67.2312C17.6082 67.8096 17.5122 68.3237 17.1075 68.6759C16.7676 68.9741 16.2331 69.1258 15.6779 69.1258ZM12.1598 66.5037C12.3337 66.7222 13.3559 67.9715 14.4663 68.5808C15.2395 69.0024 16.394 68.9561 16.9388 68.4831C17.2605 68.2029 17.328 67.8044 17.1386 67.3263C16.3577 65.3622 15.1097 64.753 14.7465 64.6142C14.3859 64.4753 13.6361 64.5936 13.0056 65.0332C12.6865 65.2517 12.1598 65.735 12.1598 66.5037Z" fill="#3F4553"/>
<path d="M13.6257 68.1335L13.6386 68.172C13.8825 68.3648 14.1394 68.5448 14.404 68.6887C15.6571 69.3751 17.9065 68.9021 17.2579 67.2748C15.2264 66.0358 13.6257 68.1335 13.6257 68.1335Z" fill="#F1BD54"/>
<path d="M15.6779 69.1258C15.2161 69.1258 14.7387 69.0204 14.3417 68.8045C14.0927 68.6682 13.8306 68.4909 13.5582 68.2749C13.5375 68.2595 13.5219 68.2364 13.5141 68.2106L13.5011 68.1695C13.4882 68.131 13.496 68.0873 13.5219 68.0538C13.5401 68.0333 15.2161 65.8764 17.3254 67.1644C17.3487 67.1798 17.3669 67.2004 17.3772 67.2261C17.6081 67.8045 17.5122 68.3186 17.1074 68.6708C16.7675 68.9742 16.2331 69.1258 15.6779 69.1258ZM13.7943 68.1335C14.0278 68.3135 14.2535 68.4626 14.4663 68.5808C15.2394 69.0024 16.3939 68.9562 16.9388 68.4831C17.2501 68.2106 17.3254 67.8276 17.1541 67.3675C15.46 66.3623 14.1031 67.7685 13.7943 68.1335Z" fill="#3F4553"/>
<path d="M14.4039 68.6915C15.5792 69.3341 17.6288 68.9614 17.346 67.5706C16.9257 68.0154 16.0877 68.5604 14.9228 68.1336C13.6723 67.6786 12.6008 66.4318 12.1571 65.8585C12.0741 66.0667 12.0222 66.2955 12.03 66.5475C12.03 66.5475 13.1508 68.0051 14.4039 68.6915Z" fill="#F1BD54"/>
<path d="M15.6777 69.1233C15.2133 69.1233 14.7333 69.0179 14.3415 68.8019C13.078 68.1104 11.9728 66.6837 11.9261 66.6245C11.9105 66.604 11.9002 66.5757 11.9002 66.55C11.895 66.3006 11.9391 66.0513 12.0377 65.8096C12.0558 65.7659 12.0947 65.7351 12.1414 65.7299C12.1856 65.7222 12.2323 65.7428 12.2608 65.7788C12.6655 66.3006 13.737 67.5629 14.9668 68.0127C16.1629 68.4498 16.962 67.7865 17.2499 67.4806C17.2837 67.4446 17.333 67.4317 17.3797 67.4446C17.4264 67.4575 17.4627 67.496 17.4705 67.5423C17.5691 68.0307 17.4056 68.46 17.0087 68.748C16.6714 68.9999 16.1836 69.1233 15.6777 69.1233ZM12.1596 66.5037C12.3334 66.7222 13.3557 67.9716 14.4661 68.5809C15.1899 68.9767 16.2874 68.9613 16.8582 68.5449C17.1072 68.3649 17.237 68.131 17.2422 67.8482C16.8193 68.2081 16.0046 68.6683 14.876 68.257C13.7163 67.8328 12.7018 66.7402 12.2037 66.1284C12.1752 66.2518 12.1596 66.3752 12.1596 66.5037Z" fill="#3F4553"/>
<path d="M30.8244 66.4934C30.8244 66.4934 29.7036 67.951 28.4505 68.6374C27.1973 69.3238 24.948 68.8508 25.5966 67.2235C26.2452 65.5963 27.283 64.7376 28.0613 64.4394C28.8396 64.1387 30.8633 64.9073 30.8244 66.4934Z" fill="#E49621"/>
<path d="M27.1769 69.0719C26.6216 69.0719 26.0872 68.9177 25.7447 68.6195C25.34 68.2673 25.244 67.7557 25.4749 67.1747C26.2947 65.1156 27.6257 64.4677 28.0123 64.3161C28.5052 64.1258 29.3588 64.3186 29.997 64.7634C30.6301 65.203 30.97 65.8199 30.9518 66.496C30.9518 66.5218 30.9414 66.55 30.9259 66.5706C30.8792 66.6323 29.7739 68.059 28.5104 68.748C28.1161 68.9639 27.6387 69.0719 27.1769 69.0719ZM28.4611 64.5012C28.321 64.5012 28.2017 64.5191 28.1057 64.5551C27.7424 64.694 26.4971 65.3058 25.7136 67.2673C25.5242 67.7454 25.5916 68.1439 25.9133 68.4241C26.4582 68.8997 27.6127 68.9434 28.3859 68.5218C29.4963 67.9151 30.5185 66.6657 30.6924 66.4472C30.6924 65.6785 30.1657 65.1952 29.8466 64.9742C29.3821 64.6503 28.8529 64.5012 28.4611 64.5012Z" fill="#3F4553"/>
<path d="M29.2285 68.0795L29.2155 68.118C28.9716 68.3108 28.7148 68.4908 28.4501 68.6348C27.197 69.3211 24.9476 68.8481 25.5962 67.2209C27.6277 65.9792 29.2285 68.0795 29.2285 68.0795Z" fill="#F1BD54"/>
<path d="M27.1765 69.0719C26.6213 69.0719 26.0868 68.9177 25.7443 68.6195C25.3396 68.2673 25.2436 67.7557 25.4745 67.1747C25.4849 67.149 25.5031 67.1259 25.5264 67.113C27.6357 65.8251 29.3143 67.9794 29.3299 68.0025C29.3559 68.0359 29.3636 68.0796 29.3507 68.1182L29.3377 68.1568C29.3299 68.1825 29.3143 68.203 29.2936 68.2185C29.0212 68.4344 28.7565 68.6118 28.5101 68.748C28.1157 68.964 27.6383 69.0719 27.1765 69.0719ZM25.7002 67.3084C25.529 67.7686 25.6042 68.1542 25.9156 68.4241C26.4604 68.8997 27.615 68.9434 28.3881 68.5218C28.6009 68.4061 28.8266 68.257 29.0601 68.0745C28.7487 67.712 27.3918 66.3084 25.7002 67.3084Z" fill="#3F4553"/>
<path d="M28.4505 68.6374C27.2752 69.2801 25.2256 68.9073 25.5084 67.5165C25.9287 67.9613 26.7667 68.5063 27.9316 68.0795C29.1821 67.6245 30.2536 66.3777 30.6973 65.8044C30.7803 66.0127 30.8322 66.2415 30.8244 66.4934C30.8244 66.4934 29.7036 67.951 28.4505 68.6374Z" fill="#F1BD54"/>
<path d="M27.1766 69.0694C26.6707 69.0694 26.1829 68.9435 25.8405 68.6967C25.4435 68.4087 25.2801 67.9794 25.3787 67.491C25.389 67.4447 25.4228 67.4062 25.4695 67.3933C25.5162 67.3804 25.5681 67.3933 25.5992 67.4293C25.8872 67.7352 26.6863 68.3959 27.8823 67.9614C29.1121 67.5116 30.1862 66.2493 30.5883 65.7275C30.6169 65.6915 30.6636 65.6735 30.7077 65.6786C30.7544 65.6838 30.7933 65.7146 30.8115 65.7583C30.9075 66 30.9542 66.2493 30.949 66.4987C30.949 66.527 30.9386 66.5527 30.923 66.5732C30.8763 66.6349 29.7711 68.0617 28.5076 68.7507C28.121 68.964 27.641 69.0694 27.1766 69.0694ZM25.6096 67.7918C25.6174 68.0745 25.7445 68.3085 25.9935 68.4884C26.5643 68.9049 27.6618 68.9203 28.3856 68.5244C29.4961 67.9177 30.5183 66.6684 30.6921 66.4498C30.6921 66.3239 30.6766 66.1979 30.6454 66.0745C30.1473 66.6838 29.1328 67.7789 27.9731 68.2031C26.8471 68.6118 26.0325 68.1517 25.6096 67.7918Z" fill="#3F4553"/>
<path d="M22.0422 10.6211C22.0422 10.6211 21.7412 13.0839 21.5155 13.6057C21.2898 14.1276 18.5033 14.2767 17.2995 14.724C16.0957 15.1713 13.5349 17.3359 11.9549 18.8269C10.3749 20.3179 8.94276 24.2717 8.94276 24.7936C8.94276 25.3154 10.5228 23.3025 11.9549 21.8835C13.3845 20.467 16.5471 18.6752 16.5471 18.6752C16.5471 18.6752 17.6783 24.2254 17.8288 24.8244C17.9792 25.4208 17.8262 26.4157 17.8262 26.6394C17.8262 26.863 14.6635 32.3078 14.1369 36.858C13.6102 41.4083 14.5883 50.0614 14.5883 50.0614C14.5883 50.0614 12.8578 53.4187 12.7073 57.1489C12.5568 60.879 11.7292 65.2801 11.8044 65.5783C11.8797 65.8765 11.654 66.4729 12.0302 66.5475C12.4064 66.622 12.7073 65.5783 13.6102 65.3547C14.5131 65.131 15.7169 65.7274 15.87 65.131C16.0204 64.5346 15.87 63.3418 16.0204 61.7736C16.1709 60.2081 18.6564 53.7915 18.8069 51.6295C18.9574 49.4675 20.7631 38.8735 21.1419 38.3516C21.5181 37.8298 21.5181 37.8298 21.5181 37.8298C21.5181 37.8298 21.8943 36.9352 22.12 37.9043C22.3457 38.8735 22.12 48.4958 22.5714 49.9148C23.0229 51.3313 26.5799 60.8482 27.0313 61.9664C27.4827 63.0847 26.5046 64.4292 26.8056 65.0256C27.1065 65.622 27.9342 65.3984 28.6866 65.3984C29.439 65.3984 30.2225 66.4935 30.8244 66.4935C31.4263 66.4935 31.6235 65.622 31.6235 64.6529C31.6235 63.6837 28.9694 54.2414 28.8189 51.9277C28.6684 49.614 28.1417 47.8248 28.1417 47.8248C28.1417 47.8248 29.1198 37.1588 28.8941 34.8452C28.6684 32.5315 26.7122 26.6394 26.7122 26.6394L28.0665 19.2742C28.0665 19.2742 32.2072 21.5879 33.6368 23.4516C35.0663 25.3154 36.047 25.2409 35.894 23.7499C35.7435 22.2588 32.2046 17.8577 30.3237 15.9168C28.4427 13.9785 25.882 14.3512 25.1296 13.8294C24.3772 13.3075 24.8286 8.1609 24.8286 8.1609L22.0422 10.6211Z" fill="#FED9CE"/>
<path d="M12.0717 66.6811C12.0509 66.6811 12.0276 66.6785 12.0068 66.6734C11.6436 66.6014 11.667 66.2158 11.6851 65.9356C11.6929 65.8147 11.7007 65.6888 11.6799 65.6091C11.6488 65.4883 11.7007 65.0872 11.8719 63.8738C12.1158 62.1437 12.4842 59.5293 12.5802 57.1436C12.7229 53.632 14.2744 50.4083 14.4586 50.0381C14.3885 49.4083 13.5064 41.2025 14.0098 36.8451C14.4326 33.1921 16.5679 28.9169 17.3722 27.3077C17.5408 26.9709 17.6861 26.6804 17.6991 26.6239C17.6965 26.5853 17.7069 26.485 17.7172 26.3539C17.7536 25.9555 17.8132 25.2922 17.7043 24.8578C17.5693 24.3179 16.6535 19.8448 16.4563 18.8808C15.8051 19.2613 13.2677 20.7677 12.0458 21.9785C11.5476 22.4721 11.0287 23.0428 10.5695 23.5467C9.43054 24.7961 9.14256 25.0788 8.9324 24.9991C8.8883 24.9811 8.81306 24.9349 8.81306 24.7986C8.81306 24.2125 10.2582 20.2536 11.8641 18.7368C13.151 17.5234 15.9322 15.0967 17.2528 14.6082C17.7613 14.4206 18.5319 14.2843 19.2791 14.1532C20.1742 13.9964 21.2898 13.801 21.3936 13.5594C21.6089 13.0606 21.9073 10.6364 21.9099 10.6107C21.9125 10.5799 21.928 10.5516 21.9514 10.531L24.7378 8.06827C24.7767 8.03228 24.8364 8.02714 24.8831 8.05028C24.9298 8.07341 24.9584 8.12483 24.9532 8.17624C24.7819 10.1377 24.6963 13.3794 25.1996 13.729C25.4254 13.8858 25.8742 13.9604 26.3957 14.0478C27.5476 14.2406 29.1224 14.5054 30.4119 15.8345C32.2851 17.7651 35.8603 22.1816 36.0185 23.7421C36.1067 24.6238 35.8006 24.8809 35.6086 24.9554C35.1182 25.1482 34.3788 24.6418 33.5278 23.5338C32.2877 21.9168 28.9253 19.9245 28.1547 19.4823L26.8393 26.6367C27.0106 27.1509 28.8007 32.6008 29.0187 34.8399C29.2392 37.1047 28.3311 47.1229 28.2689 47.8196C28.3311 48.0407 28.8033 49.7682 28.9434 51.9251C29.0291 53.231 29.9449 56.938 30.6817 59.9175C31.2758 62.3237 31.748 64.226 31.748 64.6579C31.748 65.9279 31.4185 66.6271 30.8192 66.6271C30.4923 66.6271 30.1499 66.37 29.7892 66.1001C29.4182 65.8225 29.0342 65.532 28.6814 65.532C28.5205 65.532 28.3545 65.5422 28.1936 65.5525C27.5865 65.5911 26.9587 65.6296 26.6837 65.0872C26.528 64.7813 26.6499 64.3546 26.79 63.861C26.9561 63.2723 27.1429 62.6065 26.9068 62.0203C26.4502 60.8892 22.9035 51.398 22.4443 49.9584C22.1745 49.1075 22.1434 45.5188 22.1148 42.3516C22.0967 40.2796 22.0811 38.3258 21.9903 37.9377C21.9151 37.6189 21.8424 37.5855 21.8424 37.5855C21.8009 37.5932 21.6945 37.7423 21.6349 37.8837C21.6323 37.894 21.6271 37.9017 21.6219 37.9094L21.2457 38.4312C20.9136 38.8914 19.1027 49.2618 18.9366 51.6423C18.851 52.8557 18.0415 55.3955 17.3255 57.6372C16.7547 59.4213 16.2176 61.1077 16.1502 61.7915C16.0749 62.5679 16.0749 63.262 16.0749 63.8224C16.0749 64.3983 16.0749 64.8559 15.9971 65.1695C15.8829 65.6245 15.3589 65.5602 14.8037 65.4934C14.4275 65.4471 14.002 65.3957 13.6439 65.4857C13.1795 65.6014 12.8812 65.9613 12.6399 66.2518C12.4479 66.478 12.2818 66.6811 12.0717 66.6811ZM16.5471 18.5492C16.5653 18.5492 16.5835 18.5517 16.6016 18.5594C16.6405 18.5774 16.6665 18.6109 16.6743 18.652C16.6846 18.7086 17.808 24.2074 17.9559 24.7935C18.0753 25.2691 18.013 25.9606 17.9767 26.3745C17.9663 26.4953 17.9559 26.5879 17.9559 26.6393C17.9559 26.7087 17.9066 26.8115 17.6031 27.4208C16.804 29.0198 14.6843 33.2641 14.2666 36.8734C13.7477 41.3567 14.7077 49.961 14.718 50.0484C14.7206 50.0741 14.7154 50.0998 14.7051 50.1204C14.6869 50.1538 12.9849 53.4958 12.8371 57.1539C12.7411 59.5524 12.3727 62.1746 12.1288 63.9098C12.012 64.7325 11.9134 65.442 11.9316 65.55C11.9601 65.6656 11.9524 65.8122 11.942 65.951C11.9238 66.2621 11.9342 66.3983 12.0561 66.4214C12.1469 66.4369 12.2948 66.2569 12.4401 66.0821C12.6892 65.7787 13.0316 65.3649 13.5817 65.2286C13.989 65.1284 14.4378 65.1823 14.8348 65.2312C15.3641 65.2954 15.6884 65.3212 15.7454 65.1001C15.8181 64.8173 15.8181 64.3751 15.8181 63.8173C15.8181 63.2543 15.8181 62.5525 15.8933 61.7633C15.9608 61.0512 16.4797 59.4316 17.079 57.555C17.7899 55.3287 18.5967 52.8042 18.6798 51.6217C18.8095 49.7502 20.6023 38.8811 21.0381 38.277L21.4065 37.7654C21.461 37.6395 21.6271 37.3078 21.871 37.3233C22.0993 37.3413 22.1953 37.6472 22.2471 37.8734C22.3431 38.2873 22.3587 40.0765 22.3795 42.3413C22.4054 45.3337 22.4365 49.0587 22.696 49.871C23.1552 51.3081 26.6966 60.7864 27.1533 61.9149C27.4231 62.5833 27.2129 63.3237 27.0469 63.9201C26.9275 64.3443 26.8134 64.7453 26.9249 64.9638C27.1221 65.3546 27.6151 65.3237 28.1859 65.2877C28.3545 65.2775 28.5231 65.2672 28.6918 65.2672C29.1328 65.2672 29.5505 65.5834 29.9553 65.8867C30.2796 66.1309 30.5883 66.3623 30.827 66.3623C31.4315 66.3623 31.4964 65.1643 31.4964 64.6502C31.4964 64.2492 30.9827 62.1694 30.4378 59.9715C29.6595 56.8274 28.78 53.2644 28.6918 51.9353C28.5439 49.6654 28.025 47.8787 28.0198 47.8607C28.0146 47.8453 28.0146 47.8299 28.0146 47.8144C28.025 47.7065 28.9901 37.133 28.767 34.8579C28.5465 32.5854 26.6084 26.7395 26.5903 26.6804C26.5825 26.6598 26.5825 26.6393 26.5851 26.6161L27.9394 19.251C27.9472 19.2098 27.9731 19.1764 28.012 19.1584C28.0509 19.1404 28.0951 19.143 28.1314 19.1636C28.3026 19.2587 32.311 21.5107 33.7432 23.3744C34.6279 24.5287 35.2531 24.8166 35.5204 24.7112C35.7305 24.629 35.8213 24.2845 35.7694 23.7626C35.619 22.2819 32.0334 17.8628 30.2355 16.0067C29.0057 14.7393 27.4776 14.4823 26.362 14.2946C25.786 14.1969 25.332 14.1224 25.0595 13.9321C24.3564 13.4437 24.5848 9.67498 24.6782 8.46673L22.1719 10.6827C22.1278 11.04 21.858 13.1558 21.6426 13.6545C21.4896 14.0067 20.6645 14.1686 19.3336 14.4C18.5993 14.5285 17.8366 14.6622 17.3514 14.8422C16.2384 15.2561 13.823 17.2458 12.0509 18.9168C10.5436 20.3384 9.22039 23.9503 9.09067 24.6958C9.33455 24.5158 9.88717 23.9117 10.3827 23.3667C10.8445 22.8603 11.366 22.287 11.8693 21.7909C13.2963 20.377 16.3603 18.6366 16.4901 18.562C16.503 18.5543 16.5264 18.5492 16.5471 18.5492Z" fill="#3F4553"/>
<path d="M26.8025 65.0256C27.1034 65.622 27.9311 65.3984 28.6835 65.3984C29.4358 65.3984 30.2194 66.4935 30.8213 66.4935C31.4232 66.4935 31.6204 65.622 31.6204 64.6529C31.6204 63.6837 28.9662 54.2414 28.8158 51.9277C28.6653 49.6141 28.1386 47.8248 28.1386 47.8248C28.1386 47.8248 29.1167 37.1589 28.891 34.8452C28.8547 34.4776 28.7743 34.0174 28.6653 33.5084L15.3324 32.223C14.7824 33.7166 14.3128 35.3388 14.1363 36.8606C13.6097 41.4108 14.5878 50.0639 14.5878 50.0639C14.5878 50.0639 12.8573 53.4213 12.7068 57.1515C12.5563 60.8816 11.7287 65.2827 11.8039 65.5809C11.8792 65.8791 11.6534 66.4755 12.0296 66.5501C12.4058 66.6246 12.7068 65.5809 13.6097 65.3573C14.5125 65.1336 15.7164 65.73 15.8694 65.1336C16.0199 64.5372 15.8694 63.3444 16.0199 61.7762C16.1704 60.2106 18.6559 53.7941 18.8064 51.6321C18.9568 49.4701 20.7626 38.8761 21.1414 38.3542C21.5176 37.8324 21.5176 37.8324 21.5176 37.8324C21.5176 37.8324 21.8938 36.9378 22.1195 37.9069C22.3452 38.8761 22.1195 48.4984 22.5709 49.9174C23.0223 51.3339 26.5793 60.8508 27.0308 61.969C27.4822 63.0847 26.5015 64.4292 26.8025 65.0256Z" fill="#3F4553"/>
<path d="M12.0715 66.6811C12.0507 66.6811 12.0274 66.6785 12.0066 66.6734C11.6434 66.6014 11.6667 66.2158 11.6849 65.9356C11.6927 65.8148 11.7005 65.6888 11.6797 65.6091C11.6486 65.4883 11.7005 65.0873 11.8717 63.8739C12.1156 62.1438 12.484 59.5293 12.58 57.1437C12.7227 53.6321 14.2742 50.4083 14.4584 50.0382C14.3883 49.4083 13.5062 41.2025 14.0095 36.8451C14.1652 35.4955 14.5699 33.9248 15.2133 32.1767C15.2341 32.1227 15.286 32.0893 15.3483 32.0918L28.6812 33.3772C28.7382 33.3824 28.7849 33.4235 28.7953 33.4775C28.9121 34.0225 28.9873 34.4775 29.0236 34.8297C29.2442 37.0945 28.3361 47.1127 28.2738 47.8093C28.3361 48.0304 28.8083 49.758 28.9484 51.9148C29.034 53.2207 29.9498 56.9277 30.6867 59.9072C31.2808 62.3134 31.753 64.2158 31.753 64.6477C31.753 65.9176 31.4235 66.6168 30.8242 66.6168C30.4973 66.6168 30.1548 66.3598 29.7942 66.0898C29.4232 65.8122 29.0392 65.5217 28.6863 65.5217C28.5255 65.5217 28.3594 65.532 28.1986 65.5423C27.5915 65.5808 26.9636 65.6194 26.6886 65.077C26.5329 64.771 26.6549 64.3443 26.795 63.8507C26.961 63.262 27.1478 62.5962 26.9117 62.0101C26.4551 60.879 22.9085 51.3878 22.4493 49.9482C22.1794 49.0973 22.1483 45.5085 22.1198 42.3414C22.1016 40.2694 22.086 38.3156 21.9952 37.9274C21.92 37.6086 21.8474 37.5752 21.8474 37.5752C21.8059 37.5829 21.6995 37.732 21.6398 37.8734C21.6372 37.8837 21.632 37.8914 21.6268 37.8991L21.2506 38.421C20.9185 38.8812 19.1076 49.2515 18.9416 51.632C18.856 52.8454 18.0465 55.3853 17.3304 57.627C16.7596 59.4111 16.2226 61.0975 16.1551 61.7813C16.0799 62.5577 16.0799 63.2518 16.0799 63.8122C16.0799 64.388 16.0799 64.843 16.0021 65.1592C15.8879 65.6143 15.3638 65.55 14.8086 65.4831C14.4324 65.4369 14.0069 65.3855 13.6489 65.4754C13.1845 65.5911 12.8861 65.951 12.6448 66.2415C12.4477 66.478 12.2816 66.6811 12.0715 66.6811ZM15.4235 32.3592C14.8086 34.0507 14.4194 35.5701 14.2664 36.8734C13.7475 41.3568 14.7074 49.961 14.7178 50.0484C14.7204 50.0741 14.7152 50.0999 14.7048 50.1204C14.6867 50.1538 12.9847 53.4958 12.8368 57.154C12.7408 59.5525 12.3724 62.1746 12.1285 63.9099C12.0118 64.7325 11.9132 65.442 11.9314 65.55C11.9599 65.6657 11.9521 65.8122 11.9417 65.951C11.9236 66.2621 11.934 66.3983 12.0559 66.4215C12.1467 66.4369 12.2946 66.2569 12.4399 66.0821C12.6889 65.7788 13.0314 65.3649 13.5814 65.2286C13.9888 65.1284 14.4376 65.1824 14.8346 65.2312C15.3638 65.2955 15.6881 65.3212 15.7452 65.1001C15.8179 64.8173 15.8179 64.3752 15.8179 63.8173C15.8179 63.2543 15.8179 62.5525 15.8931 61.7633C15.9605 61.0512 16.4794 59.4316 17.0788 57.555C17.7896 55.3287 18.5965 52.8043 18.6795 51.6217C18.8093 49.7502 20.602 38.8812 21.0379 38.277L21.4063 37.7655C21.4608 37.6395 21.6268 37.3079 21.8707 37.3233C22.099 37.3413 22.195 37.6472 22.2469 37.8734C22.3429 38.2873 22.3585 40.0766 22.3792 42.3414C22.4052 45.3337 22.4363 49.0587 22.6957 49.8711C23.155 51.3081 26.6964 60.7864 27.153 61.915C27.4228 62.5834 27.2127 63.3237 27.0466 63.9201C26.9273 64.3443 26.8131 64.7453 26.9247 64.9639C27.1219 65.3546 27.6148 65.3238 28.1856 65.2878C28.3543 65.2775 28.5229 65.2672 28.6915 65.2672C29.1326 65.2672 29.5503 65.5834 29.955 65.8868C30.2793 66.131 30.5881 66.3623 30.8268 66.3623C31.4313 66.3623 31.4961 65.1644 31.4961 64.6502C31.4961 64.2492 30.9824 62.1695 30.4376 59.9715C29.6593 56.8275 28.7797 53.2644 28.6915 51.9354C28.5437 49.6628 28.0248 47.8787 28.0196 47.8607C28.0144 47.8453 28.0144 47.8299 28.0144 47.8145C28.0248 47.7065 28.9899 37.1331 28.7668 34.858C28.7356 34.534 28.6682 34.1202 28.5644 33.6266L15.4235 32.3592Z" fill="#3F4553"/>
<path d="M30.3236 15.9193C28.4426 13.9809 25.8819 14.3537 25.1295 13.8318C24.5795 13.4514 24.6729 10.6107 24.7611 9.10167L24.2759 8.64922L22.0421 10.6235C22.0421 10.6235 21.7411 13.0863 21.5154 13.6082C21.2897 14.13 18.5032 14.2791 17.2994 14.7264C16.1137 15.166 13.6205 17.2663 12.0353 18.7522L13.5945 20.5569C15.0085 19.5491 16.547 18.6802 16.547 18.6802C16.547 18.6802 17.6782 24.2305 17.8287 24.8294C17.9792 25.4259 17.8261 26.4207 17.8261 26.6444C17.8261 26.8089 16.1008 29.8244 14.9878 33.2203C17.1463 34.2049 21.3961 35.3232 28.8396 34.4337C28.4556 31.9041 26.7095 26.6418 26.7095 26.6418L28.0638 19.2766C28.0638 19.2766 29.3662 20.0042 30.762 20.9708L32.9154 18.909C31.997 17.7522 31.0396 16.6571 30.3236 15.9193Z" fill="#9776A5"/>
<path d="M23.7103 34.8862C19.4035 34.8862 16.63 34.1073 14.9358 33.3335C14.8761 33.3052 14.8476 33.2384 14.8658 33.1767C15.6778 30.7011 16.822 28.408 17.372 27.3077C17.5407 26.9709 17.6859 26.6779 17.6989 26.6213C17.6963 26.5828 17.7067 26.4825 17.7171 26.3514C17.7534 25.9529 17.8131 25.2897 17.7041 24.8552C17.5692 24.3154 16.6534 19.8423 16.4562 18.8783C16.0307 19.1251 14.8061 19.8526 13.6723 20.6572C13.6178 20.6958 13.5426 20.6881 13.4985 20.6366L11.9392 18.8346C11.8951 18.7831 11.8977 18.706 11.9496 18.6572C13.3143 17.377 15.9658 15.0813 17.2579 14.6031C17.7664 14.4155 18.5369 14.2792 19.2841 14.1481C20.1792 13.9913 21.2948 13.7959 21.3986 13.5543C21.614 13.0555 21.9123 10.6288 21.9149 10.6056C21.9175 10.5748 21.9331 10.5465 21.9564 10.5259L24.1902 8.55161C24.2395 8.50791 24.3174 8.50791 24.3667 8.55418L24.8518 9.00663C24.8804 9.03234 24.8959 9.0709 24.8933 9.10689C24.7065 12.2226 24.9323 13.5363 25.2073 13.7239C25.433 13.8807 25.8818 13.9553 26.4033 14.0427C27.5553 14.2355 29.1301 14.5003 30.4195 15.8294C31.1693 16.6006 32.1397 17.7214 33.0192 18.8294C33.0607 18.8808 33.0555 18.9554 33.0088 19.0017L30.8554 21.0634C30.8113 21.1071 30.7412 21.1122 30.692 21.0762C29.5971 20.3179 28.5515 19.7035 28.1624 19.4798L26.847 26.6342C26.9923 27.0738 28.6086 32.0045 28.9718 34.4158C28.977 34.4492 28.9692 34.4852 28.9459 34.5135C28.9225 34.5418 28.894 34.5598 28.8577 34.5623C26.9378 34.7886 25.228 34.8862 23.7103 34.8862ZM15.1486 33.1484C17.4187 34.1562 21.588 35.151 28.6916 34.3207C28.2765 31.7834 26.6057 26.7319 26.5875 26.6805C26.5797 26.6599 26.5797 26.6393 26.5823 26.6162L27.9366 19.251C27.9444 19.2099 27.9704 19.1765 28.0093 19.1585C28.0482 19.1405 28.0923 19.143 28.1286 19.1636C28.1416 19.1713 29.3973 19.8731 30.749 20.8037L32.7416 18.8963C31.888 17.8268 30.954 16.7523 30.2301 16.0067C29.0004 14.7394 27.4722 14.4823 26.3566 14.2946C25.7807 14.1969 25.3266 14.1224 25.0542 13.9322C24.6054 13.6211 24.4601 12.0118 24.6287 9.14802L24.2759 8.8164L22.1666 10.6802C22.1225 11.0375 21.8526 13.1532 21.6373 13.652C21.4842 14.0041 20.6592 14.1661 19.3282 14.3975C18.594 14.526 17.8312 14.6597 17.3461 14.8396C16.2746 15.2381 13.9577 17.1302 12.2142 18.7549L13.6178 20.377C14.9955 19.4053 16.4691 18.5698 16.4821 18.5621C16.5184 18.5415 16.5625 18.5389 16.6015 18.5569C16.6404 18.5749 16.6663 18.6083 16.6741 18.6495C16.6845 18.706 17.8079 24.2048 17.9558 24.791C18.0751 25.2665 18.0128 25.9581 17.9765 26.372C17.9661 26.4928 17.9558 26.5853 17.9558 26.6368C17.9558 26.7062 17.9065 26.809 17.6029 27.4183C17.0659 28.5031 15.9528 30.7319 15.1486 33.1484Z" fill="#3F4553"/>
<path d="M26.6578 14.2173C25.9755 14.099 25.4203 14.0296 25.1297 13.8291C24.5797 13.4486 24.6731 10.608 24.7613 9.09894L24.2761 8.64649L22.0423 10.6208C22.0423 10.6208 21.7413 13.0836 21.5156 13.6054C21.4274 13.806 20.9578 13.9525 20.3481 14.081C20.8488 15.5721 21.9489 18.2405 23.394 18.2405C24.8002 18.2431 26.0403 15.7289 26.6578 14.2173Z" fill="#FED9CE"/>
<path d="M23.394 18.3718C21.8762 18.3718 20.758 15.7111 20.2236 14.1223C20.2132 14.0864 20.2158 14.0504 20.2339 14.0169C20.2521 13.9861 20.2832 13.963 20.3196 13.9553C21.142 13.783 21.3573 13.6416 21.3963 13.5542C21.6116 13.0555 21.91 10.6287 21.9126 10.6056C21.9151 10.5747 21.9307 10.5465 21.9541 10.5259L24.1879 8.55157C24.2372 8.50786 24.315 8.50786 24.3643 8.55414L24.8495 9.00659C24.878 9.03229 24.8936 9.07086 24.891 9.10685C24.7042 12.2226 24.9299 13.5362 25.2049 13.7239C25.4306 13.8807 25.8821 13.9553 26.4035 14.0427L26.6786 14.0889C26.7175 14.0966 26.7512 14.1198 26.7694 14.1532C26.7875 14.1866 26.7901 14.2277 26.7771 14.2637C26.0118 16.1378 24.8028 18.3718 23.394 18.3718ZM20.5167 14.1763C20.9604 15.4617 22.0397 18.1121 23.394 18.1121C24.6782 18.1121 25.8535 15.7985 26.4762 14.3152L26.362 14.2946C25.7861 14.1969 25.3294 14.1224 25.057 13.9321C24.6082 13.6211 24.4629 12.0118 24.6315 9.14798L24.2787 8.81635L22.1694 10.6801C22.1253 11.0375 21.8555 13.1532 21.6401 13.6519C21.5441 13.8653 21.2172 14.0195 20.5167 14.1763Z" fill="#3F4553"/>
<path d="M24.7455 9.37145C24.4679 9.38945 24.1617 9.45886 23.9464 9.51284C23.635 9.58996 23.0331 9.91645 22.4597 10.2532L22.0446 10.6208C22.0446 10.6208 21.9227 11.6234 21.7748 12.4846C22.2937 12.2995 23.8011 11.716 24.6988 10.8676C24.7014 10.338 24.7221 9.81619 24.7455 9.37145Z" fill="#C6FF00"/>
<path d="M24.7455 9.37145C24.4679 9.38945 24.1617 9.45886 23.9464 9.51284C23.635 9.58996 23.0331 9.91645 22.4597 10.2532L22.0446 10.6208C22.0446 10.6208 21.9227 11.6234 21.7748 12.4846C22.2937 12.2995 23.8011 11.716 24.6988 10.8676C24.7014 10.338 24.7221 9.81619 24.7455 9.37145Z" fill="#BFB2AA"/>
<path d="M21.8139 47.6448C30.0544 47.6448 36.7346 41.0256 36.7346 32.8605C36.7346 24.6953 30.0544 18.0762 21.8139 18.0762C13.5734 18.0762 6.89318 24.6953 6.89318 32.8605C6.89318 41.0256 13.5734 47.6448 21.8139 47.6448Z" fill="#FA6E5A"/>
<path d="M26.7197 45.1511C18.4797 45.1511 11.799 38.5315 11.799 30.3668C11.799 25.6136 14.0666 21.3873 17.5846 18.6829C11.4046 20.4901 6.89288 26.1508 6.89288 32.8605C6.89288 41.0251 13.5736 47.6448 21.8136 47.6448C25.2565 47.6448 28.4243 46.4854 30.9487 44.547C29.6074 44.9378 28.1882 45.1511 26.7197 45.1511Z" fill="#E3604D"/>
<path d="M11.3449 27.39C11.0828 27.39 10.8441 27.2101 10.7845 26.9479C10.7118 26.6394 10.9064 26.3335 11.2178 26.2641L15.3325 25.3257L12.956 24.5905C12.6525 24.4954 12.4838 24.1766 12.5772 23.8758C12.6706 23.5751 12.9949 23.408 13.2985 23.5005L17.7065 24.8656C17.9555 24.9427 18.1216 25.1741 18.1112 25.4337C18.1008 25.6908 17.9192 25.9093 17.665 25.9684L11.4746 27.3798C11.4305 27.3875 11.3864 27.39 11.3449 27.39Z" fill="#3F4553"/>
<path d="M31.9709 27.3901C31.9268 27.3901 31.8801 27.385 31.836 27.3747L25.9337 25.9634C25.6794 25.9017 25.5004 25.6806 25.4926 25.4235C25.4848 25.1665 25.6534 24.9351 25.9051 24.8605L30.5362 23.4955C30.8424 23.4055 31.1615 23.5777 31.2523 23.8811C31.3431 24.1844 31.1693 24.5006 30.8657 24.5906L28.2868 25.3515L32.1085 26.2642C32.4172 26.3387 32.6092 26.6472 32.5339 26.9531C32.4665 27.2153 32.2304 27.3901 31.9709 27.3901Z" fill="#3F4553"/>
<path d="M10.4161 29.8066C11.9209 36.2078 16.4534 40.8582 21.8136 40.8582C27.1737 40.8582 31.7088 36.2078 33.211 29.8066L31.2314 29.4801C24.8984 28.4313 18.4486 28.4441 12.1207 29.5187L10.4161 29.8066Z" fill="#3F4553"/>
<path d="M29.584 36.5059C27.6174 35.2128 24.9062 34.4133 21.907 34.4133C18.8508 34.4133 16.0929 35.2488 14.1185 36.5856C16.1966 38.8967 18.8793 40.2977 21.8136 40.2977C24.7843 40.2977 27.4955 38.8658 29.584 36.5059Z" fill="#4E5567"/>
<path d="M19.8602 4.38185C19.8602 4.38185 19.3336 5.94743 18.8821 6.84462C18.4307 7.73923 19.1078 10.5002 19.6345 11.3203C20.1612 12.1403 21.1393 11.9912 21.5155 11.9167C21.8917 11.8421 23.547 10.7984 24.1515 10.202C24.7534 9.60559 25.0543 9.30738 25.0543 9.30738C25.0543 9.30738 25.3553 9.30738 25.6563 8.71097C25.9572 8.11456 24.7534 6.77264 23.7 5.12994C22.6467 3.48981 22.1952 3.56436 22.1952 3.56436L19.8602 4.38185Z" fill="#FED9CE"/>
<path d="M20.95 12.1043C20.1691 12.1043 19.7488 11.7341 19.5257 11.3871C18.9834 10.5413 18.2855 7.7392 18.7655 6.78546C19.2092 5.90883 19.7332 4.35611 19.7384 4.34068C19.7514 4.30212 19.7799 4.27384 19.8188 4.26099L22.1539 3.44092C22.2628 3.42293 22.7661 3.43064 23.8117 5.06049C24.0919 5.49751 24.3799 5.90626 24.6575 6.30216C25.4566 7.44099 26.0326 8.26363 25.7757 8.7675C25.5163 9.28164 25.2413 9.3999 25.1193 9.42818L24.245 10.2945C23.6275 10.9063 21.9463 11.9655 21.5442 12.0452C21.3236 12.0863 21.1264 12.1043 20.95 12.1043ZM19.9641 4.48207C19.863 4.78028 19.4037 6.0965 18.999 6.90114C18.5683 7.75205 19.2533 10.4873 19.7462 11.2508C20.0809 11.7727 20.6698 11.9526 21.4949 11.7907C21.8192 11.7264 23.4589 10.7084 24.0634 10.1094L24.9662 9.2148C24.9896 9.19167 25.0233 9.17624 25.057 9.17624C25.0545 9.17624 25.2905 9.15053 25.5422 8.65181C25.729 8.28419 25.1323 7.43328 24.4422 6.44869C24.1646 6.05022 23.8766 5.6389 23.5912 5.19931C22.7194 3.84196 22.2862 3.70571 22.2161 3.69286L19.9641 4.48207Z" fill="#3F4553"/>
<path d="M20.3893 8.10175C20.3738 8.10175 20.3582 8.09918 20.3426 8.09404C19.5565 7.79327 19.6265 7.59018 19.6473 7.52591C19.6992 7.36909 20.3037 6.48476 20.4879 6.2174C20.5294 6.15827 20.6099 6.14285 20.6669 6.18398C20.7266 6.22511 20.7422 6.30481 20.7007 6.36136C20.3556 6.86266 19.9846 7.42308 19.9042 7.57732C19.969 7.64416 20.1999 7.76499 20.4334 7.85496C20.5009 7.88067 20.5346 7.95522 20.5087 8.02206C20.4905 8.06834 20.4412 8.10175 20.3893 8.10175Z" fill="#3F4553"/>
<path d="M23.0175 6.9268C22.9682 6.9268 22.9215 6.89852 22.9008 6.85225C22.7814 6.60032 22.6258 6.44094 22.4364 6.37667C22.1821 6.29184 21.946 6.40238 21.9434 6.40238C21.8786 6.43322 21.8007 6.40752 21.7696 6.34582C21.7385 6.28155 21.7644 6.20443 21.8267 6.17358C21.8396 6.16587 22.1614 6.01163 22.522 6.13502C22.7788 6.22243 22.9864 6.42808 23.1369 6.74428C23.168 6.80855 23.1395 6.88567 23.0746 6.91652C23.0538 6.92166 23.0357 6.9268 23.0175 6.9268Z" fill="#3F4553"/>
<path d="M20.2337 6.21219C20.1922 6.21219 20.1533 6.1942 20.1274 6.15821C20.1248 6.15307 20.0028 5.99111 19.8212 5.97055C19.7045 5.95769 19.5748 6.01168 19.4424 6.12736C19.388 6.17363 19.3075 6.17106 19.2582 6.11708C19.2115 6.06309 19.2141 5.9834 19.2686 5.93456C19.458 5.76489 19.6526 5.69291 19.8524 5.71348C20.1507 5.7469 20.3323 5.99625 20.3375 6.00654C20.379 6.06566 20.3635 6.14536 20.3064 6.18649C20.2856 6.20448 20.2597 6.21219 20.2337 6.21219Z" fill="#3F4553"/>
<path d="M23.4304 6.10932C23.3759 6.10932 23.3266 6.0759 23.3084 6.02192C22.9452 4.98335 22.3044 5.12731 22.2784 5.13502C22.2084 5.15044 22.1383 5.11188 22.1202 5.04247C22.102 4.97306 22.1435 4.90365 22.211 4.88566C22.2188 4.88309 23.1061 4.66458 23.5523 5.93708C23.5756 6.00392 23.5393 6.07847 23.4719 6.10161C23.4589 6.10675 23.4433 6.10932 23.4304 6.10932Z" fill="#3F4553"/>
<path d="M19.616 5.59765C19.5953 5.59765 19.5771 5.5925 19.5589 5.58479C19.4941 5.55394 19.4681 5.47682 19.5019 5.41255C19.6471 5.12206 19.8417 4.94982 20.0804 4.89584C20.4437 4.81357 20.7654 5.05265 20.7783 5.06293C20.8354 5.10664 20.8458 5.18633 20.8017 5.24289C20.7576 5.29944 20.6772 5.30972 20.6201 5.26602C20.6175 5.26345 20.3788 5.08864 20.1349 5.1452C19.9766 5.18119 19.8417 5.30972 19.7328 5.52567C19.7094 5.57194 19.6627 5.59765 19.616 5.59765Z" fill="#3F4553"/>
<path d="M19.9251 8.68777C19.9251 8.68777 20.8513 9.04511 22.0369 8.38186C22.0369 8.38186 21.4195 9.29961 20.6982 9.40244C19.977 9.5027 19.9251 8.68777 19.9251 8.68777Z" fill="#3F4553"/>
<path d="M11.5425 19.3023C11.5425 19.3023 8.28124 22.0144 7.75975 23.76C7.23827 25.5055 7.63003 29.5107 7.56517 30.7369C7.50031 31.9632 8.34869 33.3205 8.73786 33.5802C9.12963 33.8398 9.19449 33.3874 9.12963 32.9349C9.06477 32.4825 9.06477 30.156 9.06477 30.156C9.06477 30.156 9.65112 31.8346 9.71598 31.5133C9.78084 31.1894 9.78084 30.6084 9.52139 29.7035C9.26195 28.7986 8.60814 27.5081 8.673 27.2484C8.73786 26.9888 10.8238 23.1147 11.1507 21.8859" fill="#FED9CE"/>
<path d="M8.93754 33.7834C8.8649 33.7834 8.77409 33.7577 8.66512 33.6857C8.2552 33.4158 7.3653 32.0173 7.43275 30.7294C7.45091 30.3643 7.43016 29.7397 7.40421 29.0147C7.34454 27.3052 7.26152 24.9632 7.63253 23.7241C8.1592 21.9632 11.3193 19.3153 11.4542 19.2048C11.5087 19.1585 11.5917 19.1662 11.6358 19.2202C11.6825 19.2742 11.6747 19.3564 11.6202 19.4002C11.5891 19.4259 8.38492 22.1097 7.879 23.7961C7.52096 24.9966 7.60139 27.3129 7.66107 29.007C7.68701 29.7371 7.70777 30.3695 7.68961 30.7448C7.62734 31.9222 8.4446 33.2359 8.80523 33.4749C8.88047 33.5238 8.93236 33.5341 8.94792 33.5263C8.99722 33.4955 9.04651 33.2976 8.99721 32.9556C8.93235 32.5006 8.92976 30.2564 8.92976 30.1587C8.92976 30.097 8.97646 30.043 9.03873 30.0327C9.10099 30.0224 9.16326 30.0584 9.18402 30.1175C9.32152 30.5134 9.49535 30.9582 9.61729 31.2204C9.63026 30.9196 9.59394 30.4415 9.39417 29.7422C9.2826 29.3515 9.09062 28.8785 8.92198 28.462C8.64177 27.7679 8.49908 27.3977 8.54318 27.2203C8.56653 27.1278 8.73518 26.791 9.11397 26.0404C9.74702 24.7833 10.803 22.6804 11.0235 21.8578C11.0417 21.7884 11.1143 21.7472 11.1818 21.7652C11.2518 21.7832 11.2933 21.8526 11.2752 21.922C11.0494 22.7704 10.0246 24.8064 9.34747 26.1535C9.07505 26.6959 8.8182 27.2049 8.79744 27.282C8.77409 27.3951 8.99203 27.9324 9.16586 28.3643C9.33709 28.7885 9.52908 29.2666 9.64583 29.6702C9.939 30.6908 9.8975 31.2795 9.84301 31.5392C9.81707 31.6651 9.72626 31.6806 9.69772 31.6831C9.61989 31.6883 9.51351 31.696 9.19699 30.8913C9.20218 31.6111 9.21774 32.6369 9.25666 32.9145C9.29298 33.1613 9.31893 33.5983 9.08802 33.7397C9.05429 33.7654 9.0024 33.7834 8.93754 33.7834Z" fill="#3F4553"/>
<path d="M8.91418 33.6856C8.86229 33.6856 8.8104 33.6522 8.79224 33.6008C8.78705 33.5905 8.37194 32.4465 8.16698 31.0172C8.1566 30.9478 8.2059 30.881 8.27595 30.8707C8.346 30.8604 8.41345 30.9092 8.42383 30.9787C8.6262 32.3797 9.03352 33.498 9.03612 33.5108C9.05947 33.5777 9.02574 33.6522 8.95828 33.6754C8.94272 33.6831 8.92715 33.6856 8.91418 33.6856Z" fill="#3F4553"/>
<path d="M8.44981 33.3773C8.40311 33.3773 8.35641 33.3515 8.33307 33.3053C8.3149 33.2719 7.91018 32.4569 7.65074 31.1227C7.63777 31.0533 7.68446 30.9865 7.75451 30.9711C7.82456 30.9582 7.89202 31.0019 7.90758 31.0739C8.15924 32.3721 8.56397 33.1819 8.56656 33.1896C8.5977 33.2539 8.57175 33.331 8.50949 33.3618C8.48873 33.3747 8.46797 33.3773 8.44981 33.3773Z" fill="#3F4553"/>
<path d="M33.0428 19.3023C33.0428 19.3023 36.304 22.0144 36.8255 23.76C37.347 25.5055 36.9552 29.5107 37.0201 30.7369C37.085 31.9632 36.2366 33.3205 35.8474 33.5802C35.4582 33.8398 35.3908 33.3874 35.4556 32.9349C35.5205 32.4825 35.5205 30.156 35.5205 30.156C35.5205 30.156 34.9342 31.8346 34.8693 31.5133C34.8044 31.192 34.8044 30.6084 35.0639 29.7035C35.3259 28.7986 35.9771 27.5081 35.9123 27.2484C35.8474 26.9888 33.7615 23.1147 33.4346 21.8859" fill="#FED9CE"/>
<path d="M35.6478 33.7834C35.5829 33.7834 35.5336 33.7629 35.4947 33.7397C35.2664 33.5983 35.2923 33.1613 35.326 32.9145C35.365 32.6369 35.3805 31.6086 35.3857 30.8913C35.0692 31.6934 34.968 31.6883 34.885 31.6831C34.8564 31.6806 34.7656 31.6651 34.7397 31.5392C34.6878 31.2795 34.6437 30.6908 34.9369 29.6702C35.0536 29.2666 35.2456 28.7885 35.4168 28.3643C35.5907 27.9324 35.806 27.3951 35.7827 27.282C35.7619 27.2075 35.5051 26.6933 35.2326 26.1509C34.5555 24.8038 33.5307 22.7678 33.3076 21.922C33.2894 21.8526 33.3309 21.7832 33.401 21.7652C33.4684 21.7472 33.5411 21.7884 33.5592 21.8578C33.7772 22.6778 34.8357 24.7833 35.4661 26.0378C35.8449 26.791 36.0136 27.1278 36.0369 27.2203C36.081 27.3977 35.9383 27.7679 35.6581 28.462C35.4895 28.8785 35.3001 29.3515 35.1859 29.7422C34.9836 30.4415 34.9473 30.9196 34.9628 31.2204C35.0848 30.9556 35.256 30.5134 35.3961 30.1175C35.4169 30.0584 35.4765 30.0224 35.5414 30.0327C35.6037 30.043 35.6503 30.097 35.6503 30.1587C35.6503 30.2538 35.6504 32.4981 35.5829 32.9556C35.5336 33.2976 35.5829 33.4955 35.6322 33.5263C35.6478 33.5366 35.6996 33.5263 35.7749 33.4749C36.1355 33.2359 36.9528 31.9222 36.8905 30.7448C36.8697 30.3695 36.8931 29.7371 36.919 29.007C36.9787 27.3154 37.0591 24.9966 36.7011 23.7961C36.1952 22.1097 32.9936 19.4284 32.9599 19.4002C32.9054 19.3539 32.8976 19.2742 32.9443 19.2202C32.991 19.1662 33.0715 19.1585 33.126 19.2048C33.2609 19.3153 36.4209 21.9632 36.9476 23.7241C37.3186 24.9632 37.2356 27.3052 37.1759 29.0147C37.1499 29.7397 37.1292 30.3669 37.1474 30.7294C37.2148 32.0173 36.3249 33.4158 35.915 33.6857C35.8086 33.7603 35.7204 33.7834 35.6478 33.7834Z" fill="#3F4553"/>
<path d="M35.6526 33.5828C35.6423 33.5828 35.6319 33.5828 35.6189 33.5777C35.5489 33.5597 35.5073 33.4903 35.5255 33.4209C35.5307 33.4055 35.9354 31.8373 35.9354 30.7936C35.9354 30.7216 35.9925 30.6651 36.0652 30.6651C36.1378 30.6651 36.1949 30.7216 36.1949 30.7936C36.1949 31.8707 35.7953 33.4209 35.7772 33.4851C35.7642 33.5443 35.7097 33.5828 35.6526 33.5828Z" fill="#3F4553"/>
<path d="M36.1171 33.5314C36.1016 33.5314 36.0886 33.5288 36.073 33.5237C36.0056 33.5006 35.9719 33.426 35.9952 33.3592C36.0004 33.3438 36.6075 31.6856 36.6075 31.0507C36.6075 30.9787 36.6646 30.9221 36.7372 30.9221C36.8098 30.9221 36.8669 30.9787 36.8669 31.0507C36.8669 31.7293 36.265 33.3772 36.2391 33.4466C36.2209 33.5006 36.169 33.5314 36.1171 33.5314Z" fill="#3F4553"/>
</svg>
