<svg width="26" height="9" viewBox="0 0 26 9" fill="none" xmlns="http://www.w3.org/2000/svg">
<path d="M4.87966 4.43143V3.46312C5.95302 3.4859 6.82822 3.40236 7.50526 3.2125C8.31441 2.99985 8.71898 2.66569 8.71898 2.21002C8.71898 1.87586 8.46303 1.60625 7.95112 1.4012C7.45572 1.18855 6.81171 1.08223 6.01907 1.08223C5.09433 1.08223 4.37601 1.24551 3.8641 1.57207C3.35219 1.89105 3.11274 2.27077 3.14577 2.71126H0.322008C0.404574 1.91383 0.941254 1.26829 1.93205 0.774646C2.98889 0.258215 4.36775 0 6.06861 0C7.53829 0 8.78504 0.178472 9.80886 0.535417C10.9648 0.930334 11.5427 1.46195 11.5427 2.13027C11.5427 3.00365 10.7253 3.57324 9.09053 3.83905V3.86184C10.0648 3.95297 10.8327 4.18081 11.3941 4.54535C11.9556 4.90229 12.2363 5.33898 12.2363 5.85541C12.2363 6.58449 11.6253 7.17686 10.4033 7.63254C9.24741 8.07302 7.81076 8.29326 6.09338 8.29326C4.14482 8.29326 2.63386 8.03884 1.5605 7.53001C0.553193 7.04396 0.0330264 6.37184 0 5.51365H2.82376C2.79074 6.01489 3.05495 6.41741 3.6164 6.72119C4.19436 7.04775 5.02002 7.21104 6.09338 7.21104C7.06766 7.21104 7.8603 7.08573 8.47129 6.83511C9.09879 6.57689 9.41254 6.22754 9.41254 5.78706C9.41254 4.82255 7.90158 4.37067 4.87966 4.43143Z" fill="#A1A4B2"/>
<path d="M18.6434 4.43143V3.46312C19.7167 3.4859 20.5919 3.40236 21.269 3.2125C22.0781 2.99985 22.4827 2.66569 22.4827 2.21002C22.4827 1.87586 22.2267 1.60625 21.7148 1.4012C21.2194 1.18855 20.5754 1.08223 19.7828 1.08223C18.858 1.08223 18.1397 1.24551 17.6278 1.57207C17.1159 1.89105 16.8765 2.27077 16.9095 2.71126H14.0857C14.1683 1.91383 14.705 1.26829 15.6958 0.774646C16.7526 0.258215 18.1315 0 19.8323 0C21.302 0 22.5487 0.178472 23.5726 0.535417C24.7285 0.930334 25.3065 1.46195 25.3065 2.13027C25.3065 3.00365 24.4891 3.57324 22.8542 3.83905V3.86184C23.8285 3.95297 24.5964 4.18081 25.1578 4.54535C25.7193 4.90229 26 5.33898 26 5.85541C26 6.58449 25.389 7.17686 24.167 7.63254C23.0111 8.07302 21.5745 8.29326 19.8571 8.29326C17.9085 8.29326 16.3976 8.03884 15.3242 7.53001C14.3169 7.04396 13.7967 6.37184 13.7637 5.51365H16.5875C16.5544 6.01489 16.8187 6.41741 17.3801 6.72119C17.9581 7.04775 18.7837 7.21104 19.8571 7.21104C20.8314 7.21104 21.624 7.08573 22.235 6.83511C22.8625 6.57689 23.1763 6.22754 23.1763 5.78706C23.1763 4.82255 21.6653 4.37067 18.6434 4.43143Z" fill="#A1A4B2"/>
</svg>
