<svg width="176" height="123" viewBox="0 0 176 123" fill="none" xmlns="http://www.w3.org/2000/svg">
<mask id="mask0_1006_4482" style="mask-type:alpha" maskUnits="userSpaceOnUse" x="0" y="0" width="178" height="123">
<rect width="177.002" height="122.928" rx="10" fill="#AFDBC5"/>
</mask>
<g mask="url(#mask0_1006_4482)">
<path d="M176 -3.71514H-7.69306V178.369H176V-3.71514Z" fill="#4C53B4"/>
<path d="M149.225 102.72C164.551 71.3095 147.841 31.8778 111.902 14.6472C75.9621 -2.58342 34.4026 8.91184 19.0759 40.3226C3.74916 71.7334 20.4592 111.165 56.3987 128.396C92.3383 145.626 133.898 134.131 149.225 102.72Z" fill="#5F65BF"/>
<path d="M165.121 16.0191C163.856 14.7572 162.135 14.2019 160.577 14.5333C161.569 13.4098 161.714 11.5963 160.882 10.2944C160.035 8.96879 158.264 8.26594 156.672 8.62465C155.366 8.91781 154.265 9.78999 153.692 10.9353C153.826 10.003 153.817 8.86136 153.363 7.74518C152.812 6.39048 151.67 5.37809 150.378 5.10314C148.804 4.76811 146.973 5.5711 145.922 7.05873C145.248 8.01285 144.798 9.23463 144.634 10.5019C144.384 9.62976 143.798 8.82858 142.994 8.34788C141.798 7.63411 140.18 7.61226 138.87 8.28962C137.65 8.92145 136.695 10.1432 136.315 11.5617C135.99 12.778 136.067 14.1036 136.537 15.4146C135.404 14.4495 134.213 13.5245 132.617 13.8049C131.548 13.9925 130.664 14.6444 130.194 15.593C129.726 16.5362 129.744 17.6196 130.242 18.5664C131.083 20.1651 132.804 21.163 135.501 21.6164C137.367 21.9295 139.289 21.9496 141.146 21.9678C141.491 21.9714 141.835 21.9751 142.18 21.9805C142.452 21.9842 142.693 21.9896 142.915 21.9969C144.438 22.0443 145.962 22.0752 147.445 22.088C148.082 22.0934 148.716 22.0971 149.351 22.0971C151.657 22.0971 153.938 22.057 156.159 21.9787C156.708 21.9587 157.267 21.9295 157.807 21.9022C158.604 21.8603 159.427 21.8185 160.237 21.8057C161.6 21.7821 162.818 21.722 163.927 21.2303C164.886 20.8043 166.169 20.0741 166.255 18.652C166.31 17.7507 165.897 16.7911 165.121 16.0191Z" fill="#93A1ED"/>
<path d="M173.915 44.7831C173.037 43.9091 171.847 43.5249 170.767 43.7544C171.454 42.975 171.555 41.7205 170.978 40.8173C170.392 39.8996 169.165 39.4117 168.063 39.6593C167.157 39.8632 166.397 40.4659 165.998 41.2598C166.09 40.6134 166.084 39.8232 165.77 39.0493C165.39 38.1116 164.597 37.4105 163.702 37.2194C162.613 36.9863 161.343 37.5435 160.616 38.5741C160.149 39.235 159.837 40.0817 159.723 40.9594C159.551 40.3549 159.145 39.7995 158.588 39.4681C157.76 38.9747 156.639 38.9583 155.732 39.428C154.887 39.865 154.225 40.7117 153.963 41.695C153.737 42.538 153.79 43.4557 154.117 44.3643C153.332 43.6961 152.508 43.0552 151.402 43.25C150.662 43.3793 150.05 43.8308 149.723 44.4882C149.4 45.1418 149.411 45.892 149.756 46.5475C150.338 47.6546 151.53 48.3465 153.399 48.6597C154.692 48.8764 156.022 48.891 157.309 48.9037C157.548 48.9055 157.787 48.9092 158.026 48.9128C158.215 48.9164 158.38 48.9201 158.535 48.9237C159.589 48.9565 160.645 48.9784 161.672 48.9875C162.113 48.9911 162.554 48.9929 162.993 48.9929C164.589 48.9929 166.171 48.9656 167.708 48.911C168.089 48.8982 168.476 48.8782 168.849 48.8582C169.4 48.829 169.971 48.7999 170.532 48.7908C171.476 48.7744 172.319 48.7325 173.087 48.392C173.75 48.0971 174.639 47.5909 174.7 46.6058C174.738 45.9812 174.452 45.3166 173.915 44.7831Z" fill="#93A1ED"/>
<path d="M12.8677 81.6624C12.2137 81.0124 11.3265 80.7247 10.5238 80.8958C11.0363 80.315 11.1097 79.3809 10.6817 78.709C10.2445 78.0244 9.33159 77.662 8.51048 77.8478C7.83633 77.9989 7.26872 78.4486 6.97297 79.0404C7.04278 78.5597 7.03727 77.9697 6.80397 77.3944C6.51925 76.6952 5.9296 76.1726 5.26463 76.0305C4.4527 75.8576 3.50668 76.2727 2.96479 77.0393C2.61761 77.5309 2.38432 78.1628 2.29982 78.8164C2.17124 78.3667 1.86814 77.9534 1.453 77.7057C0.835788 77.3379 0.00182028 77.327 -0.67417 77.6766C-1.30424 78.0025 -1.79653 78.6325 -1.99309 79.3645C-2.16208 79.9909 -2.12167 80.6755 -1.87736 81.3529C-2.4615 80.8558 -3.07688 80.3769 -3.89982 80.5226C-4.4509 80.6191 -4.90646 80.9559 -5.15077 81.4457C-5.39141 81.9319 -5.38406 82.4909 -5.12689 82.9789C-4.69337 83.8037 -3.80614 84.319 -2.41374 84.5521C-1.45119 84.7141 -0.459249 84.7233 0.499628 84.7342C0.677811 84.736 0.855994 84.7378 1.03234 84.7396C1.17378 84.7415 1.29686 84.7451 1.41075 84.7487C2.19695 84.7724 2.98316 84.7888 3.74732 84.7961C4.07613 84.7997 4.40311 84.8015 4.73008 84.8015C5.91857 84.8015 7.09605 84.7815 8.24229 84.7396C8.52518 84.7287 8.81358 84.7141 9.09279 84.6996C9.50426 84.6777 9.92859 84.6559 10.3456 84.6486C11.0491 84.6359 11.6774 84.6067 12.2486 84.3518C12.7428 84.1315 13.4059 83.7546 13.45 83.0226C13.4794 82.5564 13.2663 82.0612 12.8677 81.6624Z" fill="#93A1ED"/>
<path d="M174.165 90.4186C173.537 89.7941 172.684 89.5173 171.913 89.683C172.405 89.1258 172.477 88.2282 172.063 87.5818C171.644 86.9244 170.766 86.5767 169.978 86.7533C169.33 86.8989 168.786 87.3305 168.501 87.8986C168.568 87.4361 168.564 86.8698 168.338 86.3181C168.066 85.6462 167.499 85.1455 166.859 85.0089C166.08 84.8432 165.171 85.2402 164.651 85.9776C164.317 86.451 164.095 87.0555 164.012 87.6837C163.889 87.2522 163.599 86.8534 163.2 86.6167C162.609 86.2635 161.806 86.2525 161.157 86.5876C160.553 86.9008 160.079 87.5071 159.892 88.2081C159.73 88.8108 159.769 89.4682 160.002 90.1182C159.44 89.6411 158.85 89.1823 158.06 89.3207C157.531 89.4135 157.092 89.7358 156.859 90.2074C156.628 90.6754 156.635 91.2107 156.883 91.6805C157.3 92.4725 158.152 92.9678 159.489 93.1918C160.413 93.3466 161.367 93.3575 162.287 93.3666C162.458 93.3684 162.629 93.3702 162.8 93.372C162.936 93.3739 163.053 93.3775 163.163 93.3793C163.918 93.403 164.673 93.4176 165.408 93.4248C165.724 93.4285 166.038 93.4285 166.352 93.4285C167.495 93.4285 168.625 93.4085 169.725 93.3702C169.997 93.3611 170.274 93.3466 170.542 93.332C170.937 93.312 171.345 93.2901 171.746 93.2846C172.421 93.2737 173.024 93.2428 173.573 92.9988C174.047 92.7876 174.685 92.4252 174.727 91.7205C174.754 91.2763 174.549 90.8028 174.165 90.4186Z" fill="#93A1ED"/>
<path d="M15.647 43.645C14.9802 42.9822 14.0746 42.689 13.2553 42.8638C13.777 42.272 13.8542 41.3179 13.417 40.6333C12.9724 39.9359 12.0393 39.5663 11.2016 39.7538C10.5146 39.9086 9.936 40.3674 9.63291 40.9701C9.70271 40.4785 9.69904 39.8776 9.46024 39.2913C9.17 38.5794 8.56933 38.0459 7.88966 37.9002C7.06121 37.7236 6.09682 38.146 5.5439 38.929C5.18938 39.4315 4.95241 40.0743 4.86608 40.7407C4.73565 40.2819 4.42705 39.8594 4.00272 39.6063C3.37449 39.2312 2.52215 39.2185 1.8333 39.5754C1.19222 39.9068 0.688897 40.5514 0.488671 41.2979C0.317837 41.937 0.358249 42.6362 0.606235 43.3263C0.0092324 42.8183 -0.617161 42.3321 -1.45664 42.4796C-2.01874 42.5779 -2.48348 42.9221 -2.73147 43.421C-2.97762 43.9163 -2.96843 44.488 -2.70575 44.9851C-2.26305 45.8263 -1.35744 46.3507 0.0625035 46.5911C1.04526 46.7568 2.05557 46.7659 3.03282 46.7768C3.21468 46.7786 3.39469 46.7804 3.57655 46.7823C3.71983 46.7841 3.84658 46.7877 3.96414 46.7914C4.76504 46.8169 5.56778 46.8314 6.34848 46.8405C6.6828 46.8442 7.01712 46.846 7.35144 46.846C8.56382 46.846 9.76517 46.8241 10.9335 46.7841C11.2219 46.7732 11.5158 46.7586 11.8005 46.744C12.2193 46.7222 12.6528 46.7003 13.079 46.693C13.7954 46.6803 14.4383 46.6493 15.0206 46.3908C15.5239 46.1668 16.1999 45.7826 16.2459 45.0343C16.2734 44.5554 16.0548 44.051 15.647 43.645Z" fill="#93A1ED"/>
<path d="M35.969 125.523C34.5802 124.139 32.6919 123.529 30.9835 123.893C32.071 122.66 32.2308 120.67 31.3197 119.241C30.392 117.786 28.4486 117.016 26.7016 117.407C25.267 117.73 24.062 118.686 23.4319 119.944C23.5789 118.92 23.5678 117.668 23.0719 116.444C22.4675 114.958 21.2129 113.848 19.7966 113.545C18.0699 113.177 16.0603 114.059 14.9067 115.69C14.1664 116.737 13.6741 118.077 13.4923 119.469C13.2186 118.511 12.5756 117.631 11.6921 117.105C10.3805 116.322 8.6042 116.298 7.16772 117.041C5.83043 117.733 4.78154 119.075 4.36456 120.632C4.00636 121.967 4.0927 123.422 4.60887 124.86C3.36527 123.802 2.05921 122.786 0.308618 123.094C-0.865181 123.3 -1.83324 124.015 -2.34942 125.055C-2.86376 126.089 -2.84356 127.278 -2.29799 128.318C-1.37585 130.071 0.512517 131.166 3.47365 131.664C5.52183 132.009 7.62879 132.03 9.66778 132.05C10.0462 132.054 10.4246 132.058 10.8012 132.063C11.1006 132.067 11.3633 132.074 11.6076 132.081C13.2773 132.132 14.9508 132.167 16.5783 132.182C17.2763 132.189 17.9744 132.191 18.6687 132.191C21.1982 132.191 23.7019 132.147 26.1377 132.06C26.7402 132.038 27.3537 132.007 27.9452 131.976C28.8196 131.93 29.7234 131.885 30.6106 131.868C32.1059 131.843 33.4432 131.777 34.6592 131.237C35.7099 130.769 37.1189 129.967 37.2126 128.409C37.2732 127.422 36.8195 126.371 35.969 125.523Z" fill="#93A1ED"/>
<path d="M30.4379 9.91209C29.1998 8.67938 27.519 8.13495 25.9962 8.45906C26.9661 7.35927 27.1076 5.5876 26.2956 4.31483C25.469 3.01839 23.7368 2.33193 22.1809 2.68153C20.9024 2.96923 19.8278 3.81956 19.2675 4.9412C19.398 4.02896 19.3888 2.91278 18.9461 1.8221C18.4079 0.498347 17.2892 -0.492191 16.0272 -0.759855C14.4897 -1.08761 12.6968 -0.302823 11.67 1.15203C11.0105 2.0843 10.5715 3.27877 10.4099 4.51694C10.1655 3.66479 9.59242 2.88001 8.80622 2.41205C7.63793 1.71467 6.05449 1.69282 4.77415 2.3556C3.58199 2.97287 2.64882 4.16916 2.27593 5.55482C1.95814 6.74383 2.03345 8.04027 2.49452 9.32214C1.38685 8.37895 0.222239 7.47399 -1.33732 7.74893C-2.38253 7.93284 -3.24589 8.57013 -3.70512 9.49694C-4.16251 10.4183 -4.14598 11.478 -3.6592 12.403C-2.83625 13.9653 -1.15546 14.9413 1.48237 15.3855C3.30645 15.6933 5.18562 15.7115 7.00051 15.7297C7.33667 15.7333 7.67467 15.737 8.01082 15.7406C8.27718 15.7442 8.51231 15.7497 8.72907 15.757C10.217 15.8025 11.7067 15.8335 13.1579 15.8462C13.7806 15.8517 14.4015 15.8553 15.0206 15.8553C17.2726 15.8553 19.5045 15.8171 21.6758 15.7388C22.2121 15.7188 22.7595 15.6914 23.2867 15.6641C24.0656 15.6241 24.8702 15.5822 25.6619 15.5694C26.9937 15.5458 28.1858 15.4875 29.2696 15.0068C30.2065 14.5898 31.4611 13.8761 31.5456 12.4868C31.6007 11.6037 31.1966 10.6659 30.4379 9.91209Z" fill="#93A1ED"/>
<path d="M132.197 73.5871C128.313 69.7196 123.038 68.0135 118.262 69.0313C121.304 65.5845 121.746 60.0236 119.198 56.0305C116.603 51.9646 111.175 49.8087 106.29 50.9085C102.282 51.8098 98.9114 54.481 97.1516 57.9952C97.5613 55.1365 97.5337 51.6332 96.1432 48.2136C94.455 44.0603 90.9483 40.9558 86.9879 40.1127C82.1623 39.084 76.5431 41.5494 73.323 46.1069C71.2546 49.033 69.875 52.7803 69.3717 56.6642C68.6076 53.9894 66.8092 51.5312 64.3422 50.06C60.6757 47.8731 55.7123 47.804 51.6968 49.8834C47.9568 51.8189 45.0287 55.5698 43.8623 59.9162C42.863 63.6453 43.0999 67.713 44.5456 71.7316C41.0701 68.7746 37.4202 65.9359 32.5266 66.7953C29.2477 67.3707 26.54 69.37 25.0962 72.2779C23.6616 75.1694 23.7148 78.4924 25.2431 81.3948C27.8222 86.2965 33.0979 89.3555 41.3714 90.7485C47.0934 91.7117 52.9845 91.77 58.6826 91.8264C59.7389 91.8373 60.7969 91.8483 61.8513 91.8628C62.6871 91.8756 63.4237 91.892 64.1052 91.912C68.7747 92.0558 73.4479 92.1505 77.9961 92.1942C79.9488 92.2124 81.8978 92.2215 83.8412 92.2215C90.9079 92.2215 97.9084 92.0995 104.718 91.8555C106.402 91.7955 108.114 91.7081 109.771 91.6225C112.214 91.4968 114.74 91.3676 117.222 91.3239C121.401 91.2528 125.139 91.0689 128.537 89.5576C131.475 88.2503 135.411 86.0088 135.674 81.6516C135.843 78.8948 134.575 75.9541 132.197 73.5871Z" fill="#74C7E5"/>
<path d="M71.016 66.7936C70.6615 66.8337 70.408 67.1523 70.4484 67.5019C70.5751 68.5963 70.013 69.778 69.078 70.3752C68.1449 70.9725 66.826 70.9943 65.8726 70.428C64.9192 69.8617 64.3167 68.7 64.4086 67.6021C64.4379 67.2507 64.1734 66.9411 63.8189 66.912C63.4607 66.881 63.1521 67.145 63.1227 67.4965C63.0621 68.2193 63.2054 68.9477 63.5066 69.605C63.1962 70.0584 62.7921 70.4499 62.3255 70.7376C62.2244 70.7995 62.1932 70.9306 62.2557 71.0307C62.2961 71.0963 62.3659 71.1309 62.4394 71.1309C62.4779 71.1309 62.5183 71.1199 62.5533 71.0981C63.0051 70.8195 63.4056 70.4517 63.7289 70.0293C64.0485 70.5664 64.4839 71.0362 65.0037 71.3913C64.8182 71.7937 64.5096 72.1433 64.122 72.3618C64.0191 72.42 63.9824 72.5493 64.0412 72.6531C64.0797 72.7223 64.1532 72.7605 64.2285 72.7605C64.2653 72.7605 64.3002 72.7514 64.3351 72.7332C64.787 72.4801 65.1488 72.0795 65.3748 71.6152C66.0048 71.9521 66.7176 72.1214 67.4321 72.1214C68.2569 72.1214 69.0835 71.8974 69.7797 71.4513C71.1317 70.5864 71.9161 68.9422 71.7324 67.3563C71.692 67.0048 71.3705 66.7536 71.016 66.7936Z" fill="#231F20"/>
<path d="M98.3325 70.7376C97.8659 70.4499 97.4618 70.0584 97.1513 69.605C97.4526 68.9477 97.5958 68.2193 97.5352 67.4983C97.5058 67.1469 97.1991 66.8865 96.839 66.912C96.4845 66.9411 96.22 67.2488 96.2494 67.6021C96.3394 68.7 95.7369 69.8617 94.7853 70.428C93.832 70.9943 92.5149 70.9725 91.5799 70.3752C90.6467 69.778 90.0828 68.5963 90.2095 67.5019C90.25 67.1505 89.9965 66.8337 89.6419 66.7936C89.2892 66.7536 88.9678 67.0048 88.9274 67.3563C88.7437 68.9404 89.528 70.5864 90.88 71.4513C91.5781 71.8974 92.4029 72.1214 93.2276 72.1214C93.9422 72.1214 94.6531 71.9521 95.285 71.6152C95.5109 72.0795 95.8728 72.4801 96.3247 72.7332C96.3578 72.7514 96.3945 72.7605 96.4312 72.7605C96.5066 72.7605 96.58 72.7223 96.6186 72.6531C96.6774 72.5511 96.6406 72.42 96.5378 72.3618C96.1502 72.1451 95.8416 71.7955 95.6561 71.3913C96.1759 71.038 96.6113 70.5682 96.9309 70.0293C97.2542 70.4535 97.6546 70.8195 98.1083 71.0981C98.1433 71.1199 98.1837 71.1309 98.2222 71.1309C98.2939 71.1309 98.3637 71.0945 98.4059 71.0307C98.4629 70.9324 98.4335 70.8013 98.3325 70.7376Z" fill="#231F20"/>
<path d="M75.1784 81.9391C74.4988 81.1834 73.3011 80.9285 72.333 81.3364C71.3337 81.7552 70.7073 82.8222 70.8763 83.8182C71.0619 84.9125 72.1365 85.5061 73.1211 85.6081C73.235 85.619 73.3452 85.6263 73.4554 85.6263C74.2379 85.6263 74.9194 85.3313 75.3217 84.8051C75.9481 83.9857 75.8856 82.7275 75.1784 81.9391Z" fill="#91D9F2"/>
<path d="M66.4235 75.0273C65.347 74.3918 63.8169 74.3445 62.6045 74.3609C61.2415 74.3791 59.715 74.563 58.4622 75.1238C57.518 75.5462 56.9798 76.4712 57.4446 77.469C57.9644 78.587 59.4101 78.933 60.5269 79.0696C62.3492 79.2917 66.2416 79.4119 67.2134 77.4435C67.6616 76.5313 67.2868 75.5371 66.4235 75.0273Z" fill="#57B6DC"/>
<path d="M104.419 75.0273C103.342 74.3918 101.812 74.3445 100.6 74.3609C99.2367 74.3791 97.7102 74.563 96.4574 75.1238C95.5132 75.5462 94.975 76.4712 95.4397 77.469C95.9596 78.587 97.4052 78.933 98.5221 79.0696C100.344 79.2917 104.237 79.4119 105.209 77.4435C105.655 76.5313 105.282 75.5371 104.419 75.0273Z" fill="#57B6DC"/>
<path d="M29.321 69.4702C26.9532 70.4516 25.4065 73.0936 25.7225 75.6173C26.0384 78.141 28.1895 80.3297 30.7263 80.7066C30.7851 80.7157 30.8439 80.7193 30.9045 80.7193C31.4849 80.7193 31.9864 80.2896 32.0728 79.7215C32.1205 79.412 32.0415 79.1024 31.8542 78.8493C31.6668 78.598 31.3913 78.4323 31.079 78.3868C29.5543 78.1592 28.2611 76.8446 28.0701 75.3278C27.8809 73.8111 28.8104 72.2215 30.2322 71.6333C31.6558 71.0434 33.4486 71.504 34.4038 72.704C34.6004 72.9498 34.8814 73.1046 35.1937 73.141C35.5078 73.1774 35.8164 73.09 36.0644 72.897C36.3124 72.7022 36.4685 72.4236 36.5071 72.114C36.5457 71.8045 36.4557 71.4968 36.261 71.2509C34.672 69.2535 31.687 68.4887 29.321 69.4702Z" fill="#57B6DC"/>
<path d="M54.0755 50.3277C50.8995 50.8722 47.9935 53.1682 46.489 56.3201C45.1958 59.0313 44.8872 62.3799 45.6202 65.7466C45.7377 66.2819 46.2227 66.6716 46.7756 66.6716C46.8601 66.6716 46.9446 66.6625 47.0254 66.6443C47.334 66.5787 47.5985 66.3966 47.7694 66.1326C47.9402 65.8686 47.999 65.5554 47.931 65.2495C47.3065 62.3835 47.5526 59.5685 48.6254 57.3198C49.8047 54.8471 52.0476 53.0517 54.4742 52.6347C57.0018 52.2032 59.7278 53.4359 60.8171 55.5044C60.964 55.783 61.2102 55.9869 61.5114 56.0816C61.8127 56.1763 62.1342 56.1471 62.4134 56.0033C62.992 55.7047 63.218 54.9945 62.9149 54.421C61.3498 51.4421 57.63 49.7196 54.0755 50.3277Z" fill="#57B6DC"/>
<path d="M90.5071 46.1598C89.5501 43.1663 86.2565 40.9977 82.8471 41.1215C79.875 41.2271 76.9249 42.8968 74.952 45.5881C73.3778 47.7366 72.384 50.5171 72.0001 53.8529C71.9266 54.4956 72.3932 55.0783 73.0434 55.1511C73.0894 55.1566 73.1335 55.1584 73.1775 55.1584C73.7782 55.1584 74.2834 54.7123 74.3513 54.1187C74.6893 51.1908 75.5362 48.7836 76.8679 46.9646C78.4146 44.8524 80.6814 43.5432 82.9316 43.465C85.3178 43.3794 87.6048 44.8433 88.2514 46.8663C88.3469 47.1649 88.5545 47.4107 88.8355 47.5546C89.1166 47.6984 89.4362 47.7257 89.7356 47.631C90.3583 47.4362 90.7037 46.7771 90.5071 46.1598Z" fill="#57B6DC"/>
<path d="M119.2 56.0306C121.748 60.0237 121.303 65.5827 118.263 69.0314C119.702 68.7255 121.184 68.6672 122.659 68.8384C129.263 63.689 133.649 55.6992 134.459 47.2468C135.356 37.9041 132.582 28.1681 127.218 21.8388C121.752 15.3876 114.286 11.5019 105.03 10.2892C99.6404 9.58273 93.2497 10.4258 88.7474 12.4323C84.2341 14.4444 80.1689 18.1279 77.3033 22.8039C74.7922 26.9007 73.0931 31.8225 72.2554 37.4289C72.2407 37.5254 72.294 37.6182 72.384 37.6565C72.474 37.6947 72.5787 37.6656 72.6394 37.5891C74.5865 35.0508 77.9701 33.1717 82.1694 32.2941C86.2712 31.4383 90.4245 31.7533 93.8669 33.1827C97.651 34.7522 100.697 37.7803 102.017 41.2818C103.443 45.0636 102.831 49.4209 100.458 52.3816C100.414 52.438 100.399 52.5127 100.421 52.5801C100.443 52.6474 100.498 52.7002 100.568 52.7203C100.921 52.8186 101.251 52.8933 101.575 52.9643C102.98 52.0029 104.576 51.2909 106.292 50.9049C111.174 49.8106 116.604 51.9646 119.2 56.0306Z" fill="#F5C371"/>
<path d="M106.553 29.6538C106.402 28.9127 106.09 28.2281 105.811 27.6454C105.657 27.3267 105.273 27.1902 104.951 27.3431C104.63 27.4961 104.494 27.8766 104.646 28.1953C104.894 28.7088 105.168 29.3078 105.289 29.9051C105.372 30.3166 105.42 30.9193 105.168 31.4564C104.852 32.1319 104.069 32.6017 103.221 32.6254C102.425 32.6491 101.56 32.2976 100.857 31.664C100.592 31.4255 100.184 31.4455 99.9455 31.7059C99.7049 31.9681 99.7251 32.3723 99.9877 32.609C100.904 33.4357 102.051 33.9036 103.149 33.9036C103.184 33.9036 103.221 33.9036 103.256 33.9018C104.582 33.8654 105.82 33.097 106.338 31.9917C106.652 31.3217 106.726 30.5132 106.553 29.6538Z" fill="#231F20"/>
<path d="M85.1689 22.4433C83.2585 21.7987 81.0376 23.7707 81.3334 25.7208C81.4509 26.4892 81.8826 27.2685 82.4741 27.7783C83.5873 28.7361 85.4242 28.1516 86.3408 27.2048C87.7093 25.79 87.0333 23.0733 85.1689 22.4433Z" fill="#FFEAA3"/>
<path d="M98.1302 26.4638C97.445 24.876 95.7881 24.3298 94.28 25.0581C93.4259 25.4714 92.6103 26.2344 92.5111 27.2158C92.3402 28.9128 93.6867 30.934 95.5953 30.324C97.1034 29.8396 98.8558 28.1426 98.1302 26.4638Z" fill="#FFEAA3"/>
<path d="M105.329 14.0475C105.047 13.8544 104.738 13.6979 104.418 13.5868C103.057 13.1134 101.573 13.3847 100.636 14.5008C98.7974 16.6931 100.337 20.3931 103.43 19.7157C104.709 19.4353 106.241 18.6597 106.663 17.3304C107.08 16.0213 106.389 14.774 105.329 14.0475Z" fill="#FFEAA3"/>
<path d="M126.454 24.2878C126.203 23.5668 125.578 23.0169 124.865 22.762C123.179 22.1575 121.469 23.2591 121.019 24.9178C120.738 25.9539 121.061 27.1994 122.095 27.7165C123.33 28.3337 124.79 27.66 125.681 26.7533C126.348 26.0777 126.787 25.242 126.454 24.2878Z" fill="#FFEAA3"/>
<path d="M128.127 34.4172C125.748 34.3353 123.539 36.0997 123.73 38.567C123.732 38.5906 123.737 38.6125 123.743 38.6361C123.743 38.9348 123.805 39.2407 123.956 39.5502C124.419 40.5043 125.361 41.2491 126.34 41.6296C128.52 42.4818 130.96 41.6751 131.325 39.2243C131.665 36.9464 130.756 34.5065 128.127 34.4172Z" fill="#FFEAA3"/>
<path d="M114.154 43.3391C112.863 43.177 111.61 44.315 111.057 45.3802C110.513 46.4272 110.844 47.7091 111.747 48.4483C113.155 49.6009 115.309 48.9345 116.129 47.5507C117.201 46.1686 116.2 43.594 114.154 43.3391Z" fill="#FFEAA3"/>
<path d="M128.117 52.3307C127.132 50.7793 125.315 50.7866 123.927 51.8591C122.878 52.6694 122.196 54.0933 122.703 55.3842C123.179 56.5987 124.485 57.2561 125.749 57.2852C128.524 57.3489 129.406 54.3627 128.117 52.3307Z" fill="#FFEAA3"/>
<path d="M114.742 28.308C112.448 28.3991 110.894 30.433 109.731 32.2028C109.432 32.5834 109.213 33.0167 109.167 33.5211C109.088 34.3805 109.551 35.1799 110.363 35.504C112.185 36.2323 114.437 34.1165 115.374 32.7873C116.18 31.642 117.183 28.2115 114.742 28.308Z" fill="#FFEAA3"/>
<path d="M96.606 13.3154C96.4077 12.5961 95.4929 12.4286 94.9657 12.394C86.9677 11.8642 79.7301 19.3824 76.3924 26.5929C75.8469 27.7729 75.4574 28.9582 75.2388 30.1199L75.226 30.1855C75.0919 30.8883 74.9413 31.6858 74.8862 32.3941C74.8641 32.6746 74.9229 32.944 75.0515 33.1534C75.1029 33.2372 75.1654 33.3119 75.237 33.3719C75.3821 33.4958 75.5419 33.5577 75.7165 33.5577C75.7642 33.5577 75.812 33.5522 75.8616 33.5431C76.4843 33.4247 77.0831 32.5726 77.3127 32.1392C77.7683 31.278 78.0916 30.3439 78.4039 29.4426C78.5251 29.093 78.6464 28.7434 78.7749 28.3974C80.1637 24.661 82.2853 21.6148 85.0811 19.3442C87.6124 17.2885 90.7426 16.1104 93.7478 15.1435C93.847 15.1107 93.9902 15.0743 94.1592 15.0306C94.9124 14.834 96.1725 14.5026 96.5344 13.8835C96.6354 13.705 96.6611 13.5138 96.606 13.3154Z" fill="#FFF4D1"/>
<path d="M98.913 11.5801C98.5915 11.3944 98.2113 11.4071 97.8715 11.5346C97.6841 11.6056 97.5261 11.7003 97.4214 11.8787C97.0118 12.5743 98.0203 13.5211 98.7164 13.3518C99.0563 13.2699 99.3337 13.0077 99.4163 12.669C99.5247 12.232 99.2914 11.7986 98.913 11.5801Z" fill="#FFF4D1"/>
<path d="M134.537 46.3145C134.557 46.0122 134.576 45.7081 134.588 45.4059C134.427 45.5752 134.291 45.7846 134.197 46.0413C132.678 50.1273 130.341 53.9238 127.347 57.1121C126.058 58.485 124.662 59.7377 123.203 60.9194C123.436 60.7301 122.509 58.5287 122.378 58.2155C121.991 57.285 121.504 56.3946 120.931 55.5607C119.805 53.9238 118.346 52.509 116.662 51.442C113.137 49.2078 109.055 48.8108 105.119 50.1109C104.072 50.4569 103.12 50.9212 102.253 51.6204C101.792 51.6714 101.335 51.7351 100.883 51.8116C100.749 52.0082 100.605 52.1994 100.456 52.3852C100.412 52.4416 100.398 52.5163 100.42 52.5836C100.442 52.651 100.497 52.7038 100.567 52.7238C100.919 52.8222 101.25 52.8968 101.573 52.9678C102.979 52.0064 104.575 51.2945 106.291 50.9084C111.175 49.8105 116.603 51.9645 119.199 56.0305C121.333 59.3754 121.366 63.82 119.533 67.2032C119.533 67.2032 119.533 67.205 119.531 67.205C119.463 67.3288 119.393 67.4508 119.322 67.5728C119.316 67.5801 119.313 67.5892 119.307 67.5965C119.239 67.7094 119.169 67.8186 119.098 67.9279C119.087 67.9442 119.077 67.9606 119.066 67.9752C119 68.0753 118.93 68.1755 118.859 68.2738C118.842 68.2957 118.828 68.3193 118.811 68.3412C118.743 68.4359 118.671 68.5269 118.6 68.618C118.58 68.6434 118.561 68.6689 118.543 68.6926C118.451 68.8073 118.357 68.9202 118.26 69.0295C119.698 68.7236 121.181 68.6653 122.656 68.8365C129.26 63.6871 133.646 55.6973 134.456 47.2449C134.486 46.939 134.511 46.6331 134.532 46.3272C134.537 46.3236 134.537 46.3181 134.537 46.3145Z" fill="#EBCE72"/>
<path d="M37.1592 40.6972C37.0343 40.4787 36.7532 40.4022 36.5328 40.5261L30.8438 43.7271L34.74 36.5584C34.83 36.3909 34.8079 36.187 34.6812 36.0431C34.5563 35.9011 34.3542 35.8501 34.1742 35.9157C31.5915 36.8734 29.1079 38.1116 26.7952 39.5974C26.5821 39.734 26.5215 40.0162 26.6593 40.2274C26.7971 40.4387 27.0818 40.4987 27.2949 40.3622C29.2053 39.1368 31.2333 38.0825 33.3365 37.2212L29.2769 44.6885C29.1796 44.8669 29.2145 45.0873 29.3596 45.2293C29.4478 45.3149 29.5635 45.3586 29.681 45.3586C29.7582 45.3586 29.8372 45.3385 29.907 45.2985L36.9847 41.3145C37.207 41.1925 37.2841 40.9157 37.1592 40.6972Z" fill="#F7E9BC"/>
<path d="M42.3522 53.0096C42.253 52.7784 41.983 52.671 41.7497 52.7693C40.5539 53.2737 39.3158 53.6943 38.0556 54.0257C39.167 52.3268 40.0818 50.506 40.7835 48.6032C40.8423 48.443 40.8055 48.2627 40.6898 48.1371C40.5722 48.0114 40.3941 47.9623 40.2287 48.0078C38.0961 48.6014 36.0571 49.4827 34.1669 50.628C33.9501 50.7591 33.8821 51.0395 34.0144 51.2543C34.1466 51.4692 34.4295 51.5366 34.6463 51.4055C36.1985 50.4641 37.8573 49.7084 39.5876 49.1513C38.8161 51.034 37.826 52.8221 36.6357 54.4791C36.5255 54.632 36.5218 54.8378 36.6265 54.9944C36.7128 55.1236 36.858 55.1983 37.0104 55.1983C37.0435 55.1983 37.0766 55.1946 37.1078 55.1874C38.818 54.8177 40.5006 54.2842 42.1116 53.605C42.343 53.5085 42.4514 53.2409 42.3522 53.0096Z" fill="#F7E9BC"/>
<path d="M32.2436 30.0542C32.1297 29.8302 31.8523 29.7392 31.6264 29.8521L22.2507 34.5426C24.0086 30.9027 26.1266 27.4267 28.5605 24.1947C28.6781 24.0381 28.6818 23.8233 28.5697 23.663C28.4576 23.5028 28.2537 23.43 28.0645 23.4846C24.905 24.3932 21.9439 25.8116 19.2638 27.7035C19.0581 27.8491 19.0085 28.1332 19.1554 28.3389C19.3024 28.5429 19.5889 28.592 19.7965 28.4464C22.0137 26.8805 24.4311 25.6477 26.9973 24.7737C24.6129 28.0913 22.5501 31.6438 20.8564 35.351C20.7756 35.5276 20.816 35.7334 20.9575 35.8681C21.0456 35.9519 21.1595 35.9956 21.2752 35.9956C21.345 35.9956 21.4167 35.9792 21.4828 35.9464L32.0415 30.6642C32.2656 30.5531 32.3574 30.2781 32.2436 30.0542Z" fill="#F7E9BC"/>
<path d="M47.5251 40.0254C46.726 40.0254 46.7242 41.2563 47.5251 41.2563C48.3241 41.2563 48.326 40.0254 47.5251 40.0254Z" fill="#ADB9D1"/>
<path d="M50.2808 24.6666C49.7517 24.6666 49.7517 25.4805 50.2808 25.4805C50.8098 25.4805 50.8098 24.6666 50.2808 24.6666Z" fill="#ADB9D1"/>
<path d="M69.0153 11.786C67.7203 11.786 67.7185 13.7817 69.0153 13.7817C70.3104 13.7817 70.314 11.786 69.0153 11.786Z" fill="#ADB9D1"/>
<path d="M50.0056 13.1862C49.8178 13.1862 49.8178 13.4739 50.0056 13.4739C50.1934 13.4739 50.1934 13.1862 50.0056 13.1862Z" fill="#ADB9D1"/>
<path d="M5.92079 30.9027C5.68694 30.9027 5.68694 31.2615 5.92079 31.2615C6.15464 31.2615 6.15464 30.9027 5.92079 30.9027Z" fill="#ADB9D1"/>
<path d="M18.32 37.6182H18.0444C17.745 37.6182 17.4603 37.8785 17.4732 38.1844C17.4878 38.4903 17.7248 38.7507 18.0444 38.7507H18.32C18.6194 38.7507 18.9041 38.4903 18.8913 38.1844C18.8766 37.8767 18.6396 37.6182 18.32 37.6182Z" fill="#ADB9D1"/>
<path d="M5.36954 62.6949C4.21778 62.6949 4.21595 64.4702 5.36954 64.4702C6.52129 64.4702 6.52313 62.6949 5.36954 62.6949Z" fill="#ADB9D1"/>
<path d="M18.5954 70.437C17.5649 70.437 17.563 72.0247 18.5954 72.0247C19.6259 72.0229 19.6278 70.437 18.5954 70.437Z" fill="#ADB9D1"/>
<path d="M19.6978 77.6184C19.4824 77.6184 19.4805 77.9498 19.6978 77.9498C19.9132 77.9498 19.9132 77.6184 19.6978 77.6184Z" fill="#ADB9D1"/>
<path d="M4.79799 99.4176C4.41959 99.4176 4.41959 100 4.79799 100C5.1764 100 5.1764 99.4176 4.79799 99.4176Z" fill="#ADB9D1"/>
<path d="M19.6776 103.915C18.5203 103.915 18.5185 105.698 19.6776 105.698C20.8348 105.699 20.8367 103.915 19.6776 103.915Z" fill="#ADB9D1"/>
<path d="M38.5977 105.789C37.9805 105.789 37.9805 106.739 38.5977 106.739C39.2149 106.739 39.2149 105.789 38.5977 105.789Z" fill="#ADB9D1"/>
<path d="M55.6684 110.454C55.6592 110.268 55.5986 110.077 55.4572 109.947C55.4076 109.911 55.3598 109.873 55.3102 109.836C55.1982 109.771 55.0769 109.74 54.9465 109.738C54.7445 109.713 54.5185 109.829 54.3807 109.969C54.2356 110.117 54.1548 110.319 54.1548 110.527C54.153 110.942 54.5001 111.344 54.941 111.319C55.132 111.308 55.3121 111.246 55.4517 111.109C55.5766 110.985 55.6703 110.781 55.6629 110.603C55.6629 110.59 55.6592 110.578 55.6592 110.567C55.6648 110.527 55.6703 110.49 55.6684 110.454Z" fill="#ADB9D1"/>
<path d="M6.63531 112.107C5.71133 112.107 5.70949 113.531 6.63531 113.531C7.55929 113.531 7.56112 112.107 6.63531 112.107Z" fill="#ADB9D1"/>
<path d="M112.81 113.562C112.418 113.58 112.089 113.875 112.089 114.275V114.458C112.089 114.831 112.42 115.19 112.81 115.171C113.201 115.153 113.53 114.858 113.53 114.458V114.275C113.53 113.902 113.199 113.544 112.81 113.562Z" fill="#ADB9D1"/>
<path d="M123.832 115.472H123.648C123.547 115.472 123.547 115.628 123.648 115.628H123.832C123.933 115.628 123.933 115.472 123.832 115.472Z" fill="#ADB9D1"/>
<path d="M169.203 121.106C167.905 121.106 167.903 123.105 169.203 123.105C170.502 123.105 170.504 121.106 169.203 121.106Z" fill="#ADB9D1"/>
<path d="M168.653 106.996C167.712 106.996 167.71 108.445 168.653 108.445C169.593 108.445 169.595 106.996 168.653 106.996Z" fill="#ADB9D1"/>
<path d="M131.73 110.75C131.172 110.75 131.17 111.612 131.73 111.612C132.289 111.61 132.29 110.75 131.73 110.75Z" fill="#ADB9D1"/>
<path d="M128.135 102.726C128.075 102.666 128.012 102.604 127.951 102.544C127.79 102.384 127.549 102.286 127.321 102.286C127.103 102.286 126.842 102.382 126.691 102.544C126.535 102.712 126.419 102.934 126.43 103.169C126.441 103.404 126.52 103.624 126.691 103.793L126.875 103.975C127.037 104.135 127.277 104.234 127.505 104.234C127.724 104.234 127.985 104.137 128.135 103.975C128.291 103.808 128.407 103.586 128.396 103.351C128.385 103.116 128.306 102.895 128.135 102.726Z" fill="#ADB9D1"/>
<path d="M160.386 100.953C159.874 100.953 159.874 101.741 160.386 101.741C160.899 101.743 160.899 100.953 160.386 100.953Z" fill="#ADB9D1"/>
<path d="M148.079 89.3754C147.665 89.3754 147.665 90.0127 148.079 90.0127C148.492 90.0127 148.492 89.3754 148.079 89.3754Z" fill="#ADB9D1"/>
<path d="M138.344 78.72H138.159C138.097 78.72 138.097 78.8165 138.159 78.8165H138.344C138.406 78.8183 138.406 78.72 138.344 78.72Z" fill="#ADB9D1"/>
<path d="M140.959 67.2541C140.793 67.1048 140.591 67.0101 140.363 67.0101H140.18C139.965 67.0101 139.737 67.103 139.585 67.2541C139.44 67.398 139.329 67.6365 139.338 67.8441C139.348 68.059 139.419 68.2829 139.585 68.434C139.75 68.5834 139.952 68.678 140.18 68.678H140.363C140.578 68.678 140.806 68.5852 140.959 68.434C141.104 68.2902 141.214 68.0517 141.205 67.8441C141.194 67.6292 141.122 67.4053 140.959 67.2541Z" fill="#ADB9D1"/>
<path d="M143.411 53.8236V54.0057C143.411 54.1022 143.564 54.1022 143.564 54.0057V53.8236C143.562 53.7271 143.411 53.7271 143.411 53.8236Z" fill="#ADB9D1"/>
<path d="M157.08 80.3316H156.966C156.158 80.3316 156.156 81.5771 156.966 81.5771H157.08C157.888 81.5771 157.89 80.3316 157.08 80.3316Z" fill="#ADB9D1"/>
<path d="M150.283 62.8531C149.005 62.8531 149.001 64.8233 150.283 64.8233C151.562 64.8233 151.565 62.8531 150.283 62.8531Z" fill="#ADB9D1"/>
<path d="M166.081 54.5012C165.541 54.5012 165.541 55.3333 166.081 55.3333C166.621 55.3315 166.621 54.5012 166.081 54.5012Z" fill="#ADB9D1"/>
<path d="M139.445 42.1851H139.261C139.03 42.1851 138.787 42.2853 138.622 42.4473C138.466 42.6021 138.348 42.857 138.357 43.081C138.379 43.5653 138.754 43.9768 139.261 43.9768H139.445C139.676 43.9768 139.919 43.8767 140.084 43.7146C140.24 43.5598 140.358 43.3049 140.349 43.081C140.326 42.5966 139.952 42.1851 139.445 42.1851Z" fill="#ADB9D1"/>
<path d="M159.651 31.0651H159.284C158.902 31.0651 158.534 31.3983 158.551 31.7916C158.569 32.1849 158.872 32.5181 159.284 32.5181H159.651C160.033 32.5181 160.401 32.1849 160.384 31.7916C160.366 31.3983 160.061 31.0651 159.651 31.0651Z" fill="#ADB9D1"/>
<path d="M170.673 34.3444C169.497 34.3444 169.496 36.1562 170.673 36.1562C171.849 36.158 171.851 34.3444 170.673 34.3444Z" fill="#ADB9D1"/>
<path d="M171.04 25.7264C170.73 25.7264 170.73 26.2035 171.04 26.2035C171.351 26.2035 171.351 25.7264 171.04 25.7264Z" fill="#ADB9D1"/>
<path d="M164.749 2.88562C164.58 2.71811 164.302 2.59247 164.06 2.60157C163.808 2.6125 163.546 2.69444 163.371 2.88562C163.197 3.07499 163.085 3.30806 163.085 3.56844V3.75053C163.085 3.99816 163.193 4.25854 163.371 4.43334C163.54 4.60086 163.818 4.7265 164.06 4.71739C164.312 4.70647 164.574 4.62453 164.749 4.43334C164.923 4.24397 165.035 4.01091 165.035 3.75053V3.56844C165.035 3.32081 164.927 3.06043 164.749 2.88562Z" fill="#ADB9D1"/>
<path d="M152.601 0.137941H152.487C151.108 0.137941 151.104 2.26468 152.487 2.26468H152.601C153.981 2.26468 153.985 0.137941 152.601 0.137941Z" fill="#ADB9D1"/>
<path d="M126.036 8.55016C124.704 8.55016 124.701 10.6022 126.036 10.6022C127.368 10.6041 127.371 8.55016 126.036 8.55016Z" fill="#ADB9D1"/>
<path d="M104.176 1.54006C103.434 1.54006 103.432 2.68355 104.176 2.68355C104.918 2.68355 104.92 1.54006 104.176 1.54006Z" fill="#ADB9D1"/>
<path d="M74.0506 0.545906C72.9632 0.545906 72.9613 2.22108 74.0506 2.22108C75.1381 2.22108 75.1399 0.545906 74.0506 0.545906Z" fill="#ADB9D1"/>
<path d="M63.3962 39.4773C62.9719 39.4773 62.9719 40.1292 63.3962 40.1292C63.8205 40.1292 63.8205 39.4773 63.3962 39.4773Z" fill="#ADB9D1"/>
<path d="M35.4015 22.6126C35.3961 22.6126 35.3961 22.6198 35.4015 22.6198C35.4069 22.6198 35.4069 22.6126 35.4015 22.6126Z" fill="#515763"/>
<path d="M56.6216 2.12799L56.3461 1.85486C56.1992 1.70919 55.931 1.69827 55.7859 1.85486C55.6407 2.01145 55.6297 2.25545 55.7859 2.41022C55.8777 2.50126 55.9695 2.5923 56.0614 2.68334C56.2083 2.82901 56.4765 2.83994 56.6216 2.68334C56.7668 2.52675 56.7796 2.28276 56.6216 2.12799Z" fill="#515763"/>
<path d="M0.961056 21.0027H0.685516C0.409977 21.0027 0.147295 21.2431 0.160154 21.5235C0.173013 21.8057 0.391607 22.0442 0.685516 22.0442H0.961056C1.2366 22.0442 1.49928 21.8039 1.48642 21.5235C1.47356 21.2412 1.2568 21.0027 0.961056 21.0027Z" fill="#515763"/>
<path d="M12.5334 52.4704C11.5819 52.4704 11.5801 53.938 12.5334 53.938C13.485 53.938 13.4868 52.4704 12.5334 52.4704Z" fill="#515763"/>
<path d="M44.8431 121.016H44.6594C44.4684 121.016 44.2865 121.182 44.2957 121.377C44.3049 121.573 44.4555 121.737 44.6594 121.737H44.8431C45.0342 121.737 45.216 121.572 45.2068 121.377C45.1995 121.18 45.047 121.016 44.8431 121.016Z" fill="#515763"/>
<path d="M143.487 118.438C143.453 118.438 143.453 118.486 143.487 118.486C143.52 118.488 143.52 118.438 143.487 118.438Z" fill="#515763"/>
<path d="M156.712 110.18C155.887 110.18 155.886 111.45 156.712 111.45C157.537 111.451 157.539 110.18 156.712 110.18Z" fill="#515763"/>
<path d="M171.959 78.5359C171.182 78.5359 171.182 79.7322 171.959 79.7322C172.736 79.7304 172.736 78.5359 171.959 78.5359Z" fill="#515763"/>
<path d="M156.528 53.5559C156.183 53.5704 155.891 53.8326 155.891 54.1877V54.3698C155.891 54.6994 156.183 55.0162 156.528 55.0016C156.874 54.9871 157.166 54.7249 157.166 54.3698V54.1877C157.166 53.8581 156.872 53.5413 156.528 53.5559Z" fill="#515763"/>
<path d="M138.894 24.3077C138.635 24.3077 138.635 24.7065 138.894 24.7065C139.154 24.7083 139.154 24.3077 138.894 24.3077Z" fill="#515763"/>
<path d="M172.694 7.17539C172.649 7.17539 172.649 7.2424 172.694 7.2424C172.739 7.24422 172.739 7.17539 172.694 7.17539Z" fill="#515763"/>
<path d="M110.238 7.01889C110.225 7.01889 110.225 7.03803 110.238 7.03803C110.25 7.03629 110.25 7.01889 110.238 7.01889Z" fill="#515763"/>
<path d="M97.0124 5.83698C96.6597 5.85336 96.3621 6.11921 96.3621 6.48156V6.66364C96.3621 7.00049 96.6615 7.32278 97.0124 7.30822C97.365 7.29183 97.6626 7.02599 97.6626 6.66364V6.48156C97.6626 6.1447 97.3632 5.82241 97.0124 5.83698Z" fill="#515763"/>
<path d="M64.8841 24.9378C63.6424 24.9378 63.6405 26.8497 64.8841 26.8497C66.1241 26.8497 66.1277 24.9378 64.8841 24.9378Z" fill="#F2E3B5"/>
<path d="M37.5174 21.8842C37.3356 21.7039 37.0398 21.5692 36.779 21.5819C36.509 21.5947 36.2297 21.6821 36.0405 21.8842C35.8532 22.0863 35.7356 22.3358 35.7356 22.6162V22.8893C35.7356 23.1551 35.8513 23.4337 36.0405 23.6213C36.2224 23.8015 36.5181 23.9363 36.779 23.9235C37.049 23.9108 37.3282 23.8234 37.5174 23.6213C37.7048 23.4192 37.8224 23.1697 37.8224 22.8893V22.6162C37.8224 22.3503 37.7066 22.0717 37.5174 21.8842Z" fill="#F2E3B5"/>
<path d="M37.3305 7.6981C37.1114 7.6981 37.1095 8.03678 37.3305 8.03678C37.5515 8.03678 37.5515 7.6981 37.3305 7.6981Z" fill="#F2E3B5"/>
<path d="M17.493 19.4424H17.2175C16.9842 19.4424 16.7619 19.6463 16.773 19.883C16.784 20.1216 16.9695 20.3255 17.2175 20.3255H17.493C17.7263 20.3255 17.9486 20.1216 17.9376 19.883C17.9265 19.6463 17.7428 19.4424 17.493 19.4424Z" fill="#F2E3B5"/>
<path d="M25.2084 54.9924H24.9328C24.7234 54.9924 24.5213 55.1745 24.5324 55.3894C24.5416 55.6042 24.7087 55.7863 24.9328 55.7863H25.2084C25.4178 55.7863 25.6198 55.6042 25.6088 55.3894C25.5996 55.1745 25.4325 54.9924 25.2084 54.9924Z" fill="#F2E3B5"/>
<path d="M22.4526 86.7606C21.6958 86.7606 21.694 87.926 22.4526 87.926C23.2094 87.926 23.2113 86.7606 22.4526 86.7606Z" fill="#F2E3B5"/>
<path d="M12.2577 91.7063C11.5395 91.7063 11.5376 92.8134 12.2577 92.8134C12.976 92.8134 12.9778 91.7063 12.2577 91.7063Z" fill="#F2E3B5"/>
<path d="M-0.0330161 106.961C-0.104656 106.744 -0.24059 106.528 -0.451836 106.42C-0.606138 106.342 -0.767788 106.28 -0.944133 106.287C-1.18477 106.298 -1.43643 106.382 -1.60543 106.56C-1.79463 106.761 -1.88464 106.997 -1.89383 107.267C-1.90301 107.516 -1.78912 107.804 -1.60359 107.973C-1.27662 108.27 -0.839428 108.321 -0.449999 108.114C-0.251611 108.008 -0.0899612 107.784 -0.0311795 107.573C-0.00729943 107.487 -0.00178875 107.391 -0.00546261 107.294C0.00739589 107.181 0.00188552 107.069 -0.0330161 106.961Z" fill="#F2E3B5"/>
<path d="M34.1889 93.6108C33.5993 93.6108 33.5993 94.5176 34.1889 94.5176C34.7786 94.5176 34.7786 93.6108 34.1889 93.6108Z" fill="#F2E3B5"/>
<path d="M129.893 119.866C128.877 119.866 128.875 121.43 129.893 121.43C130.909 121.431 130.911 119.866 129.893 119.866Z" fill="#F2E3B5"/>
<path d="M143.565 120.024C143.505 119.964 143.442 119.902 143.382 119.842C143.22 119.682 142.981 119.583 142.752 119.583C142.533 119.583 142.272 119.68 142.122 119.842C141.966 120.009 141.85 120.232 141.861 120.466C141.872 120.7 141.951 120.922 142.122 121.091C142.182 121.151 142.245 121.213 142.305 121.273C142.467 121.433 142.706 121.532 142.935 121.532C143.154 121.532 143.415 121.435 143.565 121.273C143.722 121.106 143.837 120.883 143.826 120.649C143.815 120.415 143.734 120.193 143.565 120.024Z" fill="#F2E3B5"/>
<path d="M155.61 118.966C155.079 118.966 155.079 119.784 155.61 119.784C156.141 119.782 156.141 118.966 155.61 118.966Z" fill="#F2E3B5"/>
<path d="M146.609 101.557C146.425 101.564 146.269 101.704 146.269 101.894V102.076C146.269 102.253 146.425 102.42 146.609 102.413C146.793 102.405 146.949 102.265 146.949 102.076V101.894C146.949 101.717 146.793 101.55 146.609 101.557Z" fill="#F2E3B5"/>
<path d="M136.138 93.3213C135.411 93.3213 135.409 94.4411 136.138 94.4411C136.866 94.4429 136.868 93.3213 136.138 93.3213Z" fill="#F2E3B5"/>
<path d="M174.163 95.8941C173.465 95.8941 173.465 96.9684 174.163 96.9684C174.861 96.9684 174.861 95.8941 174.163 95.8941Z" fill="#F2E3B5"/>
<path d="M146.502 78.1464C146.442 78.0864 146.379 78.0244 146.319 77.9644C146.183 77.8296 145.933 77.8187 145.799 77.9644C145.665 78.11 145.654 78.3358 145.799 78.4797L145.982 78.6617C146.118 78.7965 146.368 78.8074 146.502 78.6617C146.636 78.5179 146.647 78.2921 146.502 78.1464Z" fill="#F2E3B5"/>
<path d="M161.121 69.5793C160.773 69.5793 160.772 70.1146 161.121 70.1146C161.468 70.1146 161.47 69.5793 161.121 69.5793Z" fill="#F2E3B5"/>
<path d="M168.652 64.7613C168.36 64.774 168.114 64.9962 168.114 65.2948V65.4769C168.114 65.7555 168.362 66.0231 168.652 66.0104C168.945 65.9976 169.191 65.7755 169.191 65.4769V65.2948C169.191 65.0162 168.943 64.7485 168.652 64.7613Z" fill="#F2E3B5"/>
<path d="M146.425 35.6699C146.232 35.679 146.067 35.8246 146.067 36.0249V36.116C146.067 36.3017 146.231 36.4783 146.425 36.471C146.618 36.4619 146.784 36.3163 146.784 36.116V36.0249C146.784 35.8392 146.618 35.6626 146.425 35.6699Z" fill="#F2E3B5"/>
<path d="M135.956 31.7897C135.714 31.7897 135.714 32.1594 135.956 32.1594C136.197 32.1575 136.197 31.7897 135.956 31.7897Z" fill="#F2E3B5"/>
<path d="M170.489 15.6787H170.305C170.067 15.6787 169.835 15.8881 169.848 16.1321C169.859 16.3779 170.05 16.5855 170.305 16.5855H170.489C170.728 16.5855 170.959 16.3761 170.946 16.1321C170.935 15.8862 170.746 15.6787 170.489 15.6787Z" fill="#F2E3B5"/>
<path d="M173.428 9.25305C172.299 9.25305 172.297 10.9938 173.428 10.9938C174.558 10.9938 174.56 9.25305 173.428 9.25305Z" fill="#F2E3B5"/>
<path d="M133.855 0.665991C133.807 0.622291 133.749 0.594978 133.682 0.594978H133.637C133.574 0.594978 133.508 0.622291 133.464 0.665991C133.422 0.707871 133.389 0.777063 133.392 0.83715C133.396 0.90088 133.416 0.96461 133.464 1.00831C133.512 1.05201 133.57 1.07932 133.637 1.07932H133.682C133.745 1.07932 133.811 1.05201 133.855 1.00831C133.897 0.96643 133.93 0.897238 133.927 0.83715C133.923 0.773421 133.903 0.709691 133.855 0.665991Z" fill="#F2E3B5"/>
<path d="M119.422 -1.24245C118.379 -1.24245 118.377 0.365355 119.422 0.365355C120.466 0.367176 120.468 -1.24245 119.422 -1.24245Z" fill="#F2E3B5"/>
<path d="M109.319 7.33554C108.3 7.33554 108.298 8.90511 109.319 8.90511C110.339 8.90511 110.341 7.33554 109.319 7.33554Z" fill="#F2E3B5"/>
<path d="M86.3581 7.55405C86.0947 7.55405 86.0929 7.9601 86.3581 7.9601C86.6214 7.95828 86.6232 7.55405 86.3581 7.55405Z" fill="#F2E3B5"/>
<path d="M65.0493 42.1046C64.9648 42.1046 64.9648 42.2332 65.0493 42.2332C65.1337 42.235 65.1337 42.1046 65.0493 42.1046Z" fill="#F2E3B5"/>
</g>
</svg>
