<svg width="28" height="26" viewBox="0 0 28 26" fill="none" xmlns="http://www.w3.org/2000/svg">
<mask id="path-1-outside-1_1006_713" maskUnits="userSpaceOnUse" x="-0.809455" y="-0.809471" width="29.3432" height="27.3195" fill="black">
<rect fill="white" x="-0.809455" y="-0.809471" width="29.3432" height="27.3195"/>
<path d="M25.1366 11.1344C24.2326 7.61557 21.6978 4.69042 18.2775 3.32349C17.6867 1.47848 15.9496 0.202364 14.0001 0.202364C12.0007 0.202364 10.303 1.51594 9.72285 3.32516C7.66296 4.15021 5.89897 5.54205 4.6084 7.36544C3.79311 8.51743 3.2053 9.79091 2.86112 11.1346C1.37663 11.2454 0.202379 12.4878 0.202379 14.0001C0.202379 15.5133 1.37782 16.7563 2.86349 16.8659C4.14015 21.824 8.64901 25.4982 14.0001 25.4982C19.351 25.4982 23.8599 21.824 25.1365 16.8659C26.6221 16.7563 27.7976 15.5133 27.7976 14C27.7976 12.487 26.6223 11.2441 25.1366 11.1344ZM1.35227 14C1.35227 13.2067 1.89086 12.5368 2.62149 12.3365C2.57212 12.6787 2.53774 13.0241 2.51909 13.3723C2.51876 13.3771 2.5186 13.3819 2.51833 13.3867C2.51499 13.4501 2.51203 13.5135 2.50976 13.5771C2.50885 13.6012 2.50836 13.6253 2.50772 13.6493C2.50631 13.6949 2.50486 13.7405 2.504 13.7861C2.50276 13.8574 2.502 13.9287 2.502 14.0001C2.502 14.0871 2.50335 14.1741 2.5054 14.2612C2.50599 14.2885 2.50675 14.3156 2.50761 14.3428C2.50944 14.4061 2.51192 14.4694 2.51483 14.5327C2.51602 14.5596 2.51709 14.5864 2.51844 14.6133C2.52264 14.6924 2.52771 14.7713 2.53348 14.8502C2.53623 14.8872 2.53946 14.9241 2.54248 14.9611C2.54641 15.0079 2.55051 15.0547 2.55498 15.1014C2.55892 15.1426 2.56296 15.1838 2.56733 15.2249C2.57239 15.2729 2.57816 15.321 2.58382 15.3689C2.59131 15.4318 2.59934 15.4945 2.6078 15.5569C2.61265 15.5927 2.61713 15.6284 2.6223 15.664C1.89124 15.464 1.35227 14.7937 1.35227 14ZM14.0001 1.35226C15.1387 1.35226 16.1802 1.93704 16.788 2.85237C16.7766 2.85226 16.7651 2.85221 16.7537 2.85221C16.7462 2.85221 16.739 2.85275 16.7316 2.8528C16.7287 2.85291 16.7258 2.85286 16.7229 2.85302C14.9328 2.86967 13.4817 4.33039 13.4817 6.12424C13.4817 6.82232 13.701 7.486 14.095 8.0336C14.0634 8.03446 14.0316 8.03495 14.0001 8.03495C12.1577 8.03495 10.6588 6.53607 10.6588 4.69371C10.6588 2.85119 12.1577 1.35226 14.0001 1.35226ZM24.3445 14.2724C24.3442 14.2865 24.3434 14.3004 24.343 14.3144C24.3406 14.3914 24.3378 14.4685 24.3337 14.5455C24.333 14.5592 24.332 14.573 24.3311 14.5867C24.3268 14.6636 24.3219 14.7406 24.3159 14.8175C24.3147 14.833 24.313 14.8484 24.3117 14.8639C24.3056 14.9382 24.2989 15.0124 24.2912 15.0865C24.2891 15.1071 24.2864 15.1277 24.2841 15.1483C24.2766 15.2162 24.2687 15.284 24.2598 15.3517C24.2561 15.3801 24.2519 15.4083 24.2479 15.4365C24.2398 15.4951 24.2315 15.5536 24.2223 15.612C24.2163 15.65 24.2099 15.6877 24.2035 15.7256C24.1955 15.7729 24.1876 15.8201 24.179 15.8672C24.1703 15.9151 24.1609 15.9628 24.1515 16.0104C24.1445 16.046 24.1375 16.0818 24.1301 16.1174C23.1503 20.8113 18.9805 24.3483 14 24.3483C9.01578 24.3483 4.8435 20.8063 3.86764 16.1073C3.85881 16.0647 3.85067 16.0218 3.84242 15.979C3.83444 15.9382 3.82631 15.8973 3.81887 15.8563C3.8083 15.7982 3.79866 15.7398 3.78906 15.6815C3.7847 15.6547 3.7799 15.628 3.77575 15.6012C3.76432 15.5273 3.75387 15.4534 3.74395 15.3793C3.74228 15.3667 3.74023 15.3542 3.73867 15.3417C3.72735 15.2544 3.717 15.1669 3.70789 15.0793C3.70789 15.079 3.70779 15.0785 3.70779 15.0781C3.67054 14.7202 3.65173 14.3601 3.65173 14.0002C3.65173 13.919 3.65308 13.8377 3.65502 13.7565C3.65572 13.7298 3.65653 13.7032 3.65739 13.6766C3.65906 13.6219 3.66133 13.5673 3.66391 13.5126C3.66537 13.4808 3.66677 13.449 3.66855 13.4172C3.6713 13.3688 3.67475 13.3204 3.67814 13.2721C3.68413 13.1885 3.69086 13.1051 3.69879 13.022C3.6997 13.0124 3.70046 13.0029 3.70137 12.9934C4.05472 9.41519 6.2708 6.2398 9.50937 4.6756C9.50937 4.68169 9.50894 4.68767 9.50894 4.69376C9.50894 5.10532 9.56564 5.50362 9.66982 5.88251C8.63791 6.43199 7.73174 7.16413 6.97217 8.06427C6.76736 8.30696 6.79813 8.66969 7.04083 8.87439C7.14873 8.96548 7.28035 9.00989 7.41132 9.00989C7.57484 9.00989 7.73729 8.94047 7.85096 8.80573C8.4926 8.04535 9.25368 7.42219 10.1179 6.94747C10.8968 8.28395 12.3448 9.18484 14.0001 9.18484C14.5077 9.18484 15.0064 9.10044 15.4822 8.93406C15.6895 8.86156 15.8374 8.6774 15.8633 8.45933C15.8893 8.24132 15.7888 8.02751 15.6044 7.90845C14.9952 7.51495 14.6315 6.84803 14.6315 6.12435C14.6315 4.97791 15.5455 4.04155 16.683 4.00399C20.5018 5.02571 23.3419 8.11353 24.1288 11.8769C24.1418 11.9392 24.1544 12.0015 24.1662 12.0641C24.1724 12.0967 24.178 12.1296 24.184 12.1624C24.1932 12.2135 24.2022 12.2648 24.2106 12.3161C24.2156 12.3468 24.2204 12.3776 24.2252 12.4084C24.2341 12.4661 24.2427 12.5239 24.2505 12.5818C24.2539 12.6059 24.2573 12.63 24.2605 12.6541C24.2824 12.8222 24.3002 12.9909 24.314 13.1599C24.3155 13.1793 24.3168 13.1988 24.3182 13.2182C24.3232 13.2832 24.3274 13.3483 24.3311 13.4134C24.3326 13.4387 24.3339 13.4641 24.3351 13.4894C24.3383 13.5514 24.3406 13.6134 24.3425 13.6754C24.3433 13.6994 24.3442 13.7234 24.3448 13.7473C24.3469 13.8316 24.3482 13.9159 24.3482 14.0001C24.3481 14.0909 24.3469 14.1817 24.3445 14.2724ZM25.3777 15.664C25.384 15.6206 25.3897 15.5769 25.3956 15.5333C25.4017 15.4873 25.4076 15.4411 25.4133 15.3949C25.4204 15.3369 25.4271 15.2788 25.4333 15.2207C25.4373 15.1827 25.4411 15.1445 25.4446 15.1063C25.4495 15.0562 25.4539 15.0061 25.458 14.9561C25.4609 14.9214 25.464 14.8868 25.4665 14.8519C25.4724 14.7721 25.4775 14.6923 25.4817 14.6123C25.4832 14.5866 25.4841 14.5607 25.4853 14.5349C25.4882 14.4706 25.4907 14.4064 25.4926 14.342C25.4934 14.3152 25.4941 14.2884 25.4948 14.2616C25.4967 14.1744 25.4981 14.0873 25.4981 14C25.4981 13.9242 25.4972 13.8483 25.4958 13.7725C25.4952 13.745 25.4942 13.7175 25.4935 13.6899C25.4923 13.6423 25.4908 13.5947 25.489 13.5471C25.4877 13.5133 25.4859 13.4794 25.4844 13.4456C25.4824 13.4047 25.4804 13.3638 25.4779 13.3229C25.4758 13.2862 25.4735 13.2495 25.471 13.2129C25.4684 13.1752 25.4656 13.1375 25.4626 13.0999C25.4596 13.0616 25.4567 13.0234 25.4533 12.9853C25.45 12.9484 25.4464 12.9117 25.4428 12.8749C25.4391 12.837 25.4356 12.7991 25.4315 12.7612C25.4269 12.7184 25.4217 12.6758 25.4166 12.6331C25.4109 12.5856 25.4052 12.5382 25.3989 12.4909C25.3921 12.4392 25.3853 12.3876 25.3778 12.3361C26.109 12.5361 26.6479 13.2063 26.6479 13.9999C26.6477 14.7938 26.1089 15.464 25.3777 15.664Z"/>
</mask>
<path d="M25.1366 11.1344C24.2326 7.61557 21.6978 4.69042 18.2775 3.32349C17.6867 1.47848 15.9496 0.202364 14.0001 0.202364C12.0007 0.202364 10.303 1.51594 9.72285 3.32516C7.66296 4.15021 5.89897 5.54205 4.6084 7.36544C3.79311 8.51743 3.2053 9.79091 2.86112 11.1346C1.37663 11.2454 0.202379 12.4878 0.202379 14.0001C0.202379 15.5133 1.37782 16.7563 2.86349 16.8659C4.14015 21.824 8.64901 25.4982 14.0001 25.4982C19.351 25.4982 23.8599 21.824 25.1365 16.8659C26.6221 16.7563 27.7976 15.5133 27.7976 14C27.7976 12.487 26.6223 11.2441 25.1366 11.1344ZM1.35227 14C1.35227 13.2067 1.89086 12.5368 2.62149 12.3365C2.57212 12.6787 2.53774 13.0241 2.51909 13.3723C2.51876 13.3771 2.5186 13.3819 2.51833 13.3867C2.51499 13.4501 2.51203 13.5135 2.50976 13.5771C2.50885 13.6012 2.50836 13.6253 2.50772 13.6493C2.50631 13.6949 2.50486 13.7405 2.504 13.7861C2.50276 13.8574 2.502 13.9287 2.502 14.0001C2.502 14.0871 2.50335 14.1741 2.5054 14.2612C2.50599 14.2885 2.50675 14.3156 2.50761 14.3428C2.50944 14.4061 2.51192 14.4694 2.51483 14.5327C2.51602 14.5596 2.51709 14.5864 2.51844 14.6133C2.52264 14.6924 2.52771 14.7713 2.53348 14.8502C2.53623 14.8872 2.53946 14.9241 2.54248 14.9611C2.54641 15.0079 2.55051 15.0547 2.55498 15.1014C2.55892 15.1426 2.56296 15.1838 2.56733 15.2249C2.57239 15.2729 2.57816 15.321 2.58382 15.3689C2.59131 15.4318 2.59934 15.4945 2.6078 15.5569C2.61265 15.5927 2.61713 15.6284 2.6223 15.664C1.89124 15.464 1.35227 14.7937 1.35227 14ZM14.0001 1.35226C15.1387 1.35226 16.1802 1.93704 16.788 2.85237C16.7766 2.85226 16.7651 2.85221 16.7537 2.85221C16.7462 2.85221 16.739 2.85275 16.7316 2.8528C16.7287 2.85291 16.7258 2.85286 16.7229 2.85302C14.9328 2.86967 13.4817 4.33039 13.4817 6.12424C13.4817 6.82232 13.701 7.486 14.095 8.0336C14.0634 8.03446 14.0316 8.03495 14.0001 8.03495C12.1577 8.03495 10.6588 6.53607 10.6588 4.69371C10.6588 2.85119 12.1577 1.35226 14.0001 1.35226ZM24.3445 14.2724C24.3442 14.2865 24.3434 14.3004 24.343 14.3144C24.3406 14.3914 24.3378 14.4685 24.3337 14.5455C24.333 14.5592 24.332 14.573 24.3311 14.5867C24.3268 14.6636 24.3219 14.7406 24.3159 14.8175C24.3147 14.833 24.313 14.8484 24.3117 14.8639C24.3056 14.9382 24.2989 15.0124 24.2912 15.0865C24.2891 15.1071 24.2864 15.1277 24.2841 15.1483C24.2766 15.2162 24.2687 15.284 24.2598 15.3517C24.2561 15.3801 24.2519 15.4083 24.2479 15.4365C24.2398 15.4951 24.2315 15.5536 24.2223 15.612C24.2163 15.65 24.2099 15.6877 24.2035 15.7256C24.1955 15.7729 24.1876 15.8201 24.179 15.8672C24.1703 15.9151 24.1609 15.9628 24.1515 16.0104C24.1445 16.046 24.1375 16.0818 24.1301 16.1174C23.1503 20.8113 18.9805 24.3483 14 24.3483C9.01578 24.3483 4.8435 20.8063 3.86764 16.1073C3.85881 16.0647 3.85067 16.0218 3.84242 15.979C3.83444 15.9382 3.82631 15.8973 3.81887 15.8563C3.8083 15.7982 3.79866 15.7398 3.78906 15.6815C3.7847 15.6547 3.7799 15.628 3.77575 15.6012C3.76432 15.5273 3.75387 15.4534 3.74395 15.3793C3.74228 15.3667 3.74023 15.3542 3.73867 15.3417C3.72735 15.2544 3.717 15.1669 3.70789 15.0793C3.70789 15.079 3.70779 15.0785 3.70779 15.0781C3.67054 14.7202 3.65173 14.3601 3.65173 14.0002C3.65173 13.919 3.65308 13.8377 3.65502 13.7565C3.65572 13.7298 3.65653 13.7032 3.65739 13.6766C3.65906 13.6219 3.66133 13.5673 3.66391 13.5126C3.66537 13.4808 3.66677 13.449 3.66855 13.4172C3.6713 13.3688 3.67475 13.3204 3.67814 13.2721C3.68413 13.1885 3.69086 13.1051 3.69879 13.022C3.6997 13.0124 3.70046 13.0029 3.70137 12.9934C4.05472 9.41519 6.2708 6.2398 9.50937 4.6756C9.50937 4.68169 9.50894 4.68767 9.50894 4.69376C9.50894 5.10532 9.56564 5.50362 9.66982 5.88251C8.63791 6.43199 7.73174 7.16413 6.97217 8.06427C6.76736 8.30696 6.79813 8.66969 7.04083 8.87439C7.14873 8.96548 7.28035 9.00989 7.41132 9.00989C7.57484 9.00989 7.73729 8.94047 7.85096 8.80573C8.4926 8.04535 9.25368 7.42219 10.1179 6.94747C10.8968 8.28395 12.3448 9.18484 14.0001 9.18484C14.5077 9.18484 15.0064 9.10044 15.4822 8.93406C15.6895 8.86156 15.8374 8.6774 15.8633 8.45933C15.8893 8.24132 15.7888 8.02751 15.6044 7.90845C14.9952 7.51495 14.6315 6.84803 14.6315 6.12435C14.6315 4.97791 15.5455 4.04155 16.683 4.00399C20.5018 5.02571 23.3419 8.11353 24.1288 11.8769C24.1418 11.9392 24.1544 12.0015 24.1662 12.0641C24.1724 12.0967 24.178 12.1296 24.184 12.1624C24.1932 12.2135 24.2022 12.2648 24.2106 12.3161C24.2156 12.3468 24.2204 12.3776 24.2252 12.4084C24.2341 12.4661 24.2427 12.5239 24.2505 12.5818C24.2539 12.6059 24.2573 12.63 24.2605 12.6541C24.2824 12.8222 24.3002 12.9909 24.314 13.1599C24.3155 13.1793 24.3168 13.1988 24.3182 13.2182C24.3232 13.2832 24.3274 13.3483 24.3311 13.4134C24.3326 13.4387 24.3339 13.4641 24.3351 13.4894C24.3383 13.5514 24.3406 13.6134 24.3425 13.6754C24.3433 13.6994 24.3442 13.7234 24.3448 13.7473C24.3469 13.8316 24.3482 13.9159 24.3482 14.0001C24.3481 14.0909 24.3469 14.1817 24.3445 14.2724ZM25.3777 15.664C25.384 15.6206 25.3897 15.5769 25.3956 15.5333C25.4017 15.4873 25.4076 15.4411 25.4133 15.3949C25.4204 15.3369 25.4271 15.2788 25.4333 15.2207C25.4373 15.1827 25.4411 15.1445 25.4446 15.1063C25.4495 15.0562 25.4539 15.0061 25.458 14.9561C25.4609 14.9214 25.464 14.8868 25.4665 14.8519C25.4724 14.7721 25.4775 14.6923 25.4817 14.6123C25.4832 14.5866 25.4841 14.5607 25.4853 14.5349C25.4882 14.4706 25.4907 14.4064 25.4926 14.342C25.4934 14.3152 25.4941 14.2884 25.4948 14.2616C25.4967 14.1744 25.4981 14.0873 25.4981 14C25.4981 13.9242 25.4972 13.8483 25.4958 13.7725C25.4952 13.745 25.4942 13.7175 25.4935 13.6899C25.4923 13.6423 25.4908 13.5947 25.489 13.5471C25.4877 13.5133 25.4859 13.4794 25.4844 13.4456C25.4824 13.4047 25.4804 13.3638 25.4779 13.3229C25.4758 13.2862 25.4735 13.2495 25.471 13.2129C25.4684 13.1752 25.4656 13.1375 25.4626 13.0999C25.4596 13.0616 25.4567 13.0234 25.4533 12.9853C25.45 12.9484 25.4464 12.9117 25.4428 12.8749C25.4391 12.837 25.4356 12.7991 25.4315 12.7612C25.4269 12.7184 25.4217 12.6758 25.4166 12.6331C25.4109 12.5856 25.4052 12.5382 25.3989 12.4909C25.3921 12.4392 25.3853 12.3876 25.3778 12.3361C26.109 12.5361 26.6479 13.2063 26.6479 13.9999C26.6477 14.7938 26.1089 15.464 25.3777 15.664Z" fill="white"/>
<path d="M25.1366 11.1344C24.2326 7.61557 21.6978 4.69042 18.2775 3.32349C17.6867 1.47848 15.9496 0.202364 14.0001 0.202364C12.0007 0.202364 10.303 1.51594 9.72285 3.32516C7.66296 4.15021 5.89897 5.54205 4.6084 7.36544C3.79311 8.51743 3.2053 9.79091 2.86112 11.1346C1.37663 11.2454 0.202379 12.4878 0.202379 14.0001C0.202379 15.5133 1.37782 16.7563 2.86349 16.8659C4.14015 21.824 8.64901 25.4982 14.0001 25.4982C19.351 25.4982 23.8599 21.824 25.1365 16.8659C26.6221 16.7563 27.7976 15.5133 27.7976 14C27.7976 12.487 26.6223 11.2441 25.1366 11.1344ZM1.35227 14C1.35227 13.2067 1.89086 12.5368 2.62149 12.3365C2.57212 12.6787 2.53774 13.0241 2.51909 13.3723C2.51876 13.3771 2.5186 13.3819 2.51833 13.3867C2.51499 13.4501 2.51203 13.5135 2.50976 13.5771C2.50885 13.6012 2.50836 13.6253 2.50772 13.6493C2.50631 13.6949 2.50486 13.7405 2.504 13.7861C2.50276 13.8574 2.502 13.9287 2.502 14.0001C2.502 14.0871 2.50335 14.1741 2.5054 14.2612C2.50599 14.2885 2.50675 14.3156 2.50761 14.3428C2.50944 14.4061 2.51192 14.4694 2.51483 14.5327C2.51602 14.5596 2.51709 14.5864 2.51844 14.6133C2.52264 14.6924 2.52771 14.7713 2.53348 14.8502C2.53623 14.8872 2.53946 14.9241 2.54248 14.9611C2.54641 15.0079 2.55051 15.0547 2.55498 15.1014C2.55892 15.1426 2.56296 15.1838 2.56733 15.2249C2.57239 15.2729 2.57816 15.321 2.58382 15.3689C2.59131 15.4318 2.59934 15.4945 2.6078 15.5569C2.61265 15.5927 2.61713 15.6284 2.6223 15.664C1.89124 15.464 1.35227 14.7937 1.35227 14ZM14.0001 1.35226C15.1387 1.35226 16.1802 1.93704 16.788 2.85237C16.7766 2.85226 16.7651 2.85221 16.7537 2.85221C16.7462 2.85221 16.739 2.85275 16.7316 2.8528C16.7287 2.85291 16.7258 2.85286 16.7229 2.85302C14.9328 2.86967 13.4817 4.33039 13.4817 6.12424C13.4817 6.82232 13.701 7.486 14.095 8.0336C14.0634 8.03446 14.0316 8.03495 14.0001 8.03495C12.1577 8.03495 10.6588 6.53607 10.6588 4.69371C10.6588 2.85119 12.1577 1.35226 14.0001 1.35226ZM24.3445 14.2724C24.3442 14.2865 24.3434 14.3004 24.343 14.3144C24.3406 14.3914 24.3378 14.4685 24.3337 14.5455C24.333 14.5592 24.332 14.573 24.3311 14.5867C24.3268 14.6636 24.3219 14.7406 24.3159 14.8175C24.3147 14.833 24.313 14.8484 24.3117 14.8639C24.3056 14.9382 24.2989 15.0124 24.2912 15.0865C24.2891 15.1071 24.2864 15.1277 24.2841 15.1483C24.2766 15.2162 24.2687 15.284 24.2598 15.3517C24.2561 15.3801 24.2519 15.4083 24.2479 15.4365C24.2398 15.4951 24.2315 15.5536 24.2223 15.612C24.2163 15.65 24.2099 15.6877 24.2035 15.7256C24.1955 15.7729 24.1876 15.8201 24.179 15.8672C24.1703 15.9151 24.1609 15.9628 24.1515 16.0104C24.1445 16.046 24.1375 16.0818 24.1301 16.1174C23.1503 20.8113 18.9805 24.3483 14 24.3483C9.01578 24.3483 4.8435 20.8063 3.86764 16.1073C3.85881 16.0647 3.85067 16.0218 3.84242 15.979C3.83444 15.9382 3.82631 15.8973 3.81887 15.8563C3.8083 15.7982 3.79866 15.7398 3.78906 15.6815C3.7847 15.6547 3.7799 15.628 3.77575 15.6012C3.76432 15.5273 3.75387 15.4534 3.74395 15.3793C3.74228 15.3667 3.74023 15.3542 3.73867 15.3417C3.72735 15.2544 3.717 15.1669 3.70789 15.0793C3.70789 15.079 3.70779 15.0785 3.70779 15.0781C3.67054 14.7202 3.65173 14.3601 3.65173 14.0002C3.65173 13.919 3.65308 13.8377 3.65502 13.7565C3.65572 13.7298 3.65653 13.7032 3.65739 13.6766C3.65906 13.6219 3.66133 13.5673 3.66391 13.5126C3.66537 13.4808 3.66677 13.449 3.66855 13.4172C3.6713 13.3688 3.67475 13.3204 3.67814 13.2721C3.68413 13.1885 3.69086 13.1051 3.69879 13.022C3.6997 13.0124 3.70046 13.0029 3.70137 12.9934C4.05472 9.41519 6.2708 6.2398 9.50937 4.6756C9.50937 4.68169 9.50894 4.68767 9.50894 4.69376C9.50894 5.10532 9.56564 5.50362 9.66982 5.88251C8.63791 6.43199 7.73174 7.16413 6.97217 8.06427C6.76736 8.30696 6.79813 8.66969 7.04083 8.87439C7.14873 8.96548 7.28035 9.00989 7.41132 9.00989C7.57484 9.00989 7.73729 8.94047 7.85096 8.80573C8.4926 8.04535 9.25368 7.42219 10.1179 6.94747C10.8968 8.28395 12.3448 9.18484 14.0001 9.18484C14.5077 9.18484 15.0064 9.10044 15.4822 8.93406C15.6895 8.86156 15.8374 8.6774 15.8633 8.45933C15.8893 8.24132 15.7888 8.02751 15.6044 7.90845C14.9952 7.51495 14.6315 6.84803 14.6315 6.12435C14.6315 4.97791 15.5455 4.04155 16.683 4.00399C20.5018 5.02571 23.3419 8.11353 24.1288 11.8769C24.1418 11.9392 24.1544 12.0015 24.1662 12.0641C24.1724 12.0967 24.178 12.1296 24.184 12.1624C24.1932 12.2135 24.2022 12.2648 24.2106 12.3161C24.2156 12.3468 24.2204 12.3776 24.2252 12.4084C24.2341 12.4661 24.2427 12.5239 24.2505 12.5818C24.2539 12.6059 24.2573 12.63 24.2605 12.6541C24.2824 12.8222 24.3002 12.9909 24.314 13.1599C24.3155 13.1793 24.3168 13.1988 24.3182 13.2182C24.3232 13.2832 24.3274 13.3483 24.3311 13.4134C24.3326 13.4387 24.3339 13.4641 24.3351 13.4894C24.3383 13.5514 24.3406 13.6134 24.3425 13.6754C24.3433 13.6994 24.3442 13.7234 24.3448 13.7473C24.3469 13.8316 24.3482 13.9159 24.3482 14.0001C24.3481 14.0909 24.3469 14.1817 24.3445 14.2724ZM25.3777 15.664C25.384 15.6206 25.3897 15.5769 25.3956 15.5333C25.4017 15.4873 25.4076 15.4411 25.4133 15.3949C25.4204 15.3369 25.4271 15.2788 25.4333 15.2207C25.4373 15.1827 25.4411 15.1445 25.4446 15.1063C25.4495 15.0562 25.4539 15.0061 25.458 14.9561C25.4609 14.9214 25.464 14.8868 25.4665 14.8519C25.4724 14.7721 25.4775 14.6923 25.4817 14.6123C25.4832 14.5866 25.4841 14.5607 25.4853 14.5349C25.4882 14.4706 25.4907 14.4064 25.4926 14.342C25.4934 14.3152 25.4941 14.2884 25.4948 14.2616C25.4967 14.1744 25.4981 14.0873 25.4981 14C25.4981 13.9242 25.4972 13.8483 25.4958 13.7725C25.4952 13.745 25.4942 13.7175 25.4935 13.6899C25.4923 13.6423 25.4908 13.5947 25.489 13.5471C25.4877 13.5133 25.4859 13.4794 25.4844 13.4456C25.4824 13.4047 25.4804 13.3638 25.4779 13.3229C25.4758 13.2862 25.4735 13.2495 25.471 13.2129C25.4684 13.1752 25.4656 13.1375 25.4626 13.0999C25.4596 13.0616 25.4567 13.0234 25.4533 12.9853C25.45 12.9484 25.4464 12.9117 25.4428 12.8749C25.4391 12.837 25.4356 12.7991 25.4315 12.7612C25.4269 12.7184 25.4217 12.6758 25.4166 12.6331C25.4109 12.5856 25.4052 12.5382 25.3989 12.4909C25.3921 12.4392 25.3853 12.3876 25.3778 12.3361C26.109 12.5361 26.6479 13.2063 26.6479 13.9999C26.6477 14.7938 26.1089 15.464 25.3777 15.664Z" stroke="#E6E7F2" stroke-width="0.4" mask="url(#path-1-outside-1_1006_713)"/>
<path d="M7.46366 14.6523L7.46366 14.6523C7.73858 13.6267 8.67207 12.9104 9.73378 12.9104C10.7957 12.9104 11.729 13.6267 12.0039 14.6523C12.0933 14.9861 11.8954 15.329 11.5615 15.4185M7.46366 14.6523L8.67205 14.9762M7.46366 14.6523C7.37423 14.9861 7.57226 15.329 7.90592 15.4185L7.90594 15.4185M7.46366 14.6523L7.90594 15.4185M11.5615 15.4185L11.5486 15.3701L11.5615 15.4185C11.5615 15.4185 11.5615 15.4185 11.5615 15.4185ZM11.5615 15.4185C11.5074 15.433 11.4528 15.4399 11.3993 15.4399C11.1231 15.4399 10.8703 15.2557 10.7954 14.9762C10.6669 14.4965 10.2302 14.1614 9.73373 14.1614C9.23729 14.1614 8.80065 14.4965 8.67205 14.9762M8.67205 14.9762C8.58262 15.3099 8.23968 15.5078 7.90594 15.4185M8.67205 14.9762L7.90594 15.4185" fill="white" stroke="#E6E7F2" stroke-width="0.1"/>
<path d="M15.9964 14.6524L15.9964 14.6524C16.2712 13.6267 17.2047 12.9104 18.2666 12.9104C19.3283 12.9104 20.2617 13.6267 20.5366 14.6523C20.626 14.986 20.428 15.329 20.0943 15.4185C20.0943 15.4185 20.0943 15.4185 20.0943 15.4185L15.9964 14.6524ZM15.9964 14.6524C15.907 14.9861 16.105 15.3291 16.4387 15.4185M15.9964 14.6524L16.4387 15.4185M16.4387 15.4185C16.7724 15.508 17.1154 15.3098 17.2048 14.9762L16.4387 15.4185Z" fill="white" stroke="#E6E7F2" stroke-width="0.1"/>
<path d="M15.8281 18.6504L15.828 18.6504L15.1108 19.1058L15.0619 19.0927C15.0619 19.0927 15.0619 19.0927 15.0619 19.0927C14.9333 19.5724 14.4967 19.9075 14.0002 19.9075C13.5037 19.9075 13.0671 19.5724 12.9386 19.0927L12.9386 19.0927C12.8491 18.759 12.5062 18.5609 12.1724 18.6504C11.8387 18.7398 11.6408 19.0828 11.7302 19.4165C12.005 20.4423 12.9384 21.1585 14.0003 21.1585C15.0621 21.1585 15.9955 20.4422 16.2704 19.4165L16.2704 19.4165C16.3597 19.0828 16.1617 18.7398 15.8281 18.6504Z" fill="white" stroke="#E6E7F2" stroke-width="0.1"/>
</svg>
