<svg width="118" height="85" viewBox="0 0 118 85" fill="none" xmlns="http://www.w3.org/2000/svg">
<g clip-path="url(#clip0_1006_8699)">
<path d="M28.565 77.7199C28.565 78.1247 26.1934 78.4511 23.2695 78.4511C20.3455 78.4511 17.9739 78.1247 17.9739 77.7199C17.9739 77.3151 20.3455 76.9888 23.2695 76.9888C26.1934 76.9888 28.565 77.3151 28.565 77.7199Z" fill="#FDF9E7"/>
<path d="M40.4233 84.9998C50.788 84.9998 59.1902 83.838 59.1902 82.4048C59.1902 80.9716 50.788 79.8097 40.4233 79.8097C30.0586 79.8097 21.6564 80.9716 21.6564 82.4048C21.6564 83.838 30.0586 84.9998 40.4233 84.9998Z" fill="#F05D48"/>
<path d="M88.9853 84.1119C101.322 84.1119 111.322 82.7295 111.322 81.0242C111.322 79.3189 101.322 77.9365 88.9853 77.9365C76.649 77.9365 66.6485 79.3189 66.6485 81.0242C66.6485 82.7295 76.649 84.1119 88.9853 84.1119Z" fill="#F05D48"/>
<path d="M60.3323 78.9091C74.0887 78.9091 85.2405 77.3679 85.2405 75.4668C85.2405 73.5657 74.0887 72.0245 60.3323 72.0245C46.5759 72.0245 35.4242 73.5657 35.4242 75.4668C35.4242 77.3679 46.5759 78.9091 60.3323 78.9091Z" fill="#F05D48"/>
<path d="M117.07 74.7076C117.07 75.5862 111.912 76.3017 105.546 76.3017C99.1829 76.3017 94.0215 75.5893 94.0215 74.7076C94.0215 73.829 99.1797 73.1135 105.546 73.1135C111.908 73.1135 117.07 73.8258 117.07 74.7076Z" fill="#F05D48"/>
<path d="M17.5779 69.8878C11.6457 68.5259 6.0818 63.8724 3.14849 58.4375C0.218309 53.0026 -0.917567 46.4475 0.820573 40.5168C2.55559 34.5862 7.39867 29.4839 13.4119 28.2005C20.7296 26.6378 28.1097 30.692 33.6986 35.6907C35.9828 37.7335 38.136 39.9803 40.7791 41.5241C43.4253 43.0648 46.7362 43.8242 49.5571 42.6381C52.9429 41.2135 54.6811 37.5295 56.3287 34.2347C60.3854 26.1201 65.709 18.52 72.724 12.7996C79.739 7.07603 88.5483 3.32935 97.5791 3.36073C103.205 3.37956 109.078 5.01441 112.998 9.07175C117.966 14.2148 118.833 22.2416 117.351 29.2549C115.869 36.2681 112.402 42.6663 109.646 49.2779C106.891 55.8895 104.8 63.1664 106.276 70.1796L17.5779 69.8878Z" fill="#F05D48"/>
<path d="M55.2051 26.6315C56.9214 23.7979 58.4099 20.7761 59.0684 17.5284C59.9296 13.2796 59.1932 8.79554 56.2661 5.4819C52.1408 0.815811 43.6498 -1.39642 37.8331 0.931914C35.4365 1.89212 33.3551 3.90666 32.8059 6.43896C31.8729 10.7254 35.1245 14.4344 37.1403 17.8547C38.2232 19.6935 39.0314 21.8336 39.1094 23.9894C39.1812 26.0478 37.8986 27.9494 38.2107 30.0267C38.3854 31.194 39.0844 32.239 39.9894 32.9952C41.9678 34.6489 44.7638 35.2514 47.2446 34.6144C51.0798 33.6322 53.2829 29.8071 55.2051 26.6315Z" fill="#F05D48"/>
<path d="M46.4179 13.8068H3.83814C3.75701 13.8068 3.68835 13.8727 3.68835 13.9574V47.5677C3.68835 47.6493 3.75389 47.7183 3.83814 47.7183H46.4179C46.499 47.7183 46.5677 47.6524 46.5677 47.5677V13.9574C46.5677 13.8759 46.499 13.8068 46.4179 13.8068ZM33.5082 30.6135H29.542V26.7382H33.5082V30.6135ZM33.8078 26.7382H37.774V30.6135H33.8078V26.7382ZM24.9798 30.9148V34.7901H21.0136V30.9148H24.9798ZM21.0136 30.6135V26.7382H24.9798V30.6135H21.0136V30.6135ZM25.2793 30.9148H29.2456V34.7901H25.2793V30.9148ZM25.2793 30.6135V26.7382H29.2456V30.6135H25.2793V30.6135ZM29.542 26.4401V22.5648H33.5082V26.4401H29.542V26.4401ZM29.2456 26.4401H25.2793V22.5648H29.2456V26.4401ZM24.9798 26.4401H21.0136V22.5648H24.9798V26.4401V26.4401ZM20.714 26.4401H16.7478V22.5648H20.714V26.4401ZM20.714 26.7382V30.6135H16.7478V26.7382H20.714ZM16.4514 30.6135H12.4851V26.7382H16.4514V30.6135ZM12.1856 30.6135H8.21937V26.7382H12.1856V30.6135ZM12.1856 30.9148V34.7901H8.21937V30.9148H12.1856ZM12.4851 30.9148H16.4514V34.7901H12.4851V30.9148ZM16.7478 30.9148H20.714V34.7901H16.7478V30.9148ZM20.714 35.0882V38.9635H16.7478V35.0882H20.714ZM21.0136 35.0882H24.9798V38.9635H21.0136V35.0882ZM25.2793 35.0882H29.2456V38.9635H25.2793V35.0882ZM29.542 35.0882H33.5082V38.9635H29.542V35.0882ZM29.542 34.787V30.9148H33.5082V34.7901H29.542V34.787ZM33.8078 30.9148H37.774V34.7901H33.8078V30.9148ZM38.0704 30.9148H42.0366V34.7901H38.0704V30.9148ZM38.0704 30.6135V26.7382H42.0366V30.6135H38.0704V30.6135ZM38.0704 26.4401V22.5648H42.0366V26.4401H38.0704V26.4401ZM37.774 26.4401H33.8078V22.5648H37.774V26.4401V26.4401ZM33.8078 22.2635V18.3913H37.774V22.2667H33.8078V22.2635ZM33.5082 22.2635H29.542V18.3913H33.5082V22.2635ZM29.2456 22.2635H25.2793V18.3913H29.2456V22.2635ZM24.9798 22.2635H21.0136V18.3913H24.9798V22.2635V22.2635ZM20.714 22.2635H16.7478V18.3913H20.714V22.2635ZM16.4514 22.2635H12.4851V18.3913H16.4514V22.2635ZM16.4514 22.5648V26.4401H12.4851V22.5648H16.4514ZM12.1856 26.4401H8.21937V22.5648H12.1856V26.4401ZM7.9198 26.4401H3.98793V22.5648H7.9198V26.4401ZM7.9198 26.7382V30.6135H3.98793V26.7382H7.9198ZM7.9198 30.9148V34.7901H3.98793V30.9148H7.9198ZM7.9198 35.0882V38.9635H3.98793V35.0882H7.9198ZM8.21937 35.0882H12.1856V38.9635H8.21937V35.0882ZM12.4851 35.0882H16.4514V38.9635H12.4851V35.0882ZM16.4514 39.2616V43.137H12.4851V39.2616H16.4514ZM16.7478 39.2616H20.714V43.137H16.7478V39.2616ZM21.0136 39.2616H24.9798V43.137H21.0136V39.2616ZM25.2793 39.2616H29.2456V43.137H25.2793V39.2616ZM29.542 39.2616H33.5082V43.137H29.542V39.2616ZM33.8078 39.2616H37.774V43.137H33.8078V39.2616ZM33.8078 38.9635V35.0882H37.774V38.9635H33.8078ZM38.0704 35.0882H42.0366V38.9635H38.0704V35.0882ZM42.3362 35.0882H46.2681V38.9635H42.3362V35.0882ZM42.3362 34.787V30.9148H46.2681V34.7901H42.3362V34.787ZM42.3362 30.6135V26.7382H46.2681V30.6135H42.3362V30.6135ZM42.3362 26.4401V22.5648H46.2681V26.4401H42.3362V26.4401ZM42.3362 22.2635V18.3913H46.2681V22.2667H42.3362V22.2635ZM42.0366 22.2635H38.0704V18.3913H42.0366V22.2635ZM38.0704 18.0901V14.1081H42.0366V18.0901H38.0704ZM37.774 18.0901H33.8078V14.1081H37.774V18.0901V18.0901ZM33.5082 18.0901H29.542V14.1081H33.5082V18.0901ZM29.2456 18.0901H25.2793V14.1081H29.2456V18.0901ZM24.9798 18.0901H21.0136V14.1081H24.9798V18.0901V18.0901ZM20.714 18.0901H16.7478V14.1081H20.714V18.0901ZM16.4514 18.0901H12.4851V14.1081H16.4514V18.0901ZM12.1856 18.0901H8.21937V14.1081H12.1856V18.0901ZM12.1856 18.3913V22.2667H8.21937V18.3913H12.1856ZM7.9198 22.2635H3.98793V18.3913H7.9198V22.2635ZM3.98793 39.2616H7.9198V43.137H3.98793V39.2616ZM8.21937 39.2616H12.1856V43.137H8.21937V39.2616ZM12.1856 43.4382V47.4202H8.21937V43.4382H12.1856ZM12.4851 43.4382H16.4514V47.4202H12.4851V43.4382ZM16.7478 43.4382H20.714V47.4202H16.7478V43.4382ZM21.0136 43.4382H24.9798V47.4202H21.0136V43.4382ZM25.2793 43.4382H29.2456V47.4202H25.2793V43.4382ZM29.542 43.4382H33.5082V47.4202H29.542V43.4382ZM33.8078 43.4382H37.774V47.4202H33.8078V43.4382ZM38.0704 43.4382H42.0366V47.4202H38.0704V43.4382ZM38.0704 43.137V39.2616H42.0366V43.137H38.0704ZM42.3362 39.2616H46.2681V43.137H42.3362V39.2616ZM46.2681 18.0901H42.3362V14.1081H46.2681V18.0901ZM7.9198 14.1081V18.0901H3.98793V14.1081H7.9198ZM3.98793 43.4382H7.9198V47.4202H3.98793V43.4382ZM42.3362 47.4202V43.4382H46.2681V47.4202H42.3362Z" fill="#E7DFC2"/>
<path d="M21.2506 23.4183C21.2506 23.4183 22.2024 31.9629 26.9237 33.4503L35.6113 30.9996C35.6113 30.9996 30.425 28.599 29.8945 23.4183H21.2506Z" fill="#FEDEA6"/>
<path d="M16.748 31.3166C16.748 31.3166 16.024 41.0441 12.4291 42.7355L5.8136 39.9458C5.8136 39.9458 9.7642 37.2159 10.1667 31.3166H16.748Z" fill="#F7F4E3"/>
<path d="M39.0885 16.6176L33.3026 18.3093L35.3047 25.2333L41.0906 23.5415L39.0885 16.6176Z" fill="#F7F4E3"/>
<path d="M38.7877 17.3036L33.9246 18.7255L35.2176 23.1968L40.0806 21.7749L38.7877 17.3036Z" fill="#FDFDFD"/>
<path d="M22.6469 37.6212L18.1959 36.3946L16.7452 41.7177L21.1961 42.9443L22.6469 37.6212Z" fill="#D2CDB8"/>
<path d="M22.1789 37.9474L18.4382 36.9165L17.5004 40.3573L21.2412 41.3882L22.1789 37.9474Z" fill="#E7DFC2"/>
<path d="M92.5114 34.9343C91.8779 34.9343 91.2413 34.9312 90.6078 34.9312C90.2958 34.9312 89.9962 35.2073 90.0118 35.5305C90.0274 35.8569 90.2739 36.1299 90.6078 36.1299C91.2413 36.1299 91.8779 36.133 92.5114 36.133C92.8234 36.133 93.123 35.8569 93.1074 35.5336C93.0918 35.2104 92.8453 34.9374 92.5114 34.9343Z" fill="#CCC6AD"/>
<path d="M111.144 50.8594C105.302 45.6379 99.4606 40.4195 93.619 35.198C92.7608 34.4324 91.4908 35.7001 92.3552 36.4689L109.88 52.1303C110.735 52.8991 112.005 51.6313 111.144 50.8594Z" fill="#CCC6AD"/>
<path d="M113.772 73.0161H112.087C110.542 72.5706 108.077 72.285 105.296 72.285C102.516 72.285 100.054 72.5737 98.506 73.0161H96.8209C96.7429 73.4711 96.8209 74.1081 96.8209 74.1081C96.8209 75.1154 100.615 75.9313 105.293 75.9313C109.974 75.9313 113.765 75.1154 113.765 74.1081C113.925 73.4335 113.772 73.0161 113.772 73.0161Z" fill="#CCC6AD"/>
<path d="M113.772 73.0164C113.772 74.0237 109.98 74.8427 105.303 74.8427C100.622 74.8427 96.8304 74.0237 96.8304 73.0164C96.8304 72.0123 100.625 71.1933 105.303 71.1933C105.643 71.1933 105.977 71.1964 106.304 71.2058C106.607 71.2152 106.904 71.2246 107.197 71.2403C110.963 71.4223 113.772 72.1535 113.772 73.0164Z" fill="#E7DFC2"/>
<path d="M107.197 71.2371L106.32 72.7559L106.304 72.781V71.2057C106.604 71.2152 106.903 71.2214 107.197 71.2371Z" fill="#E7DFC2"/>
<path d="M109.871 51.2611L104.579 72.3008C104.295 73.4242 106.02 73.9043 106.304 72.7778C108.067 65.7646 109.834 58.7513 111.597 51.7381C111.881 50.6147 110.155 50.1377 109.871 51.2611Z" fill="#E7DFC2"/>
<path d="M111.537 50.4639C105.695 45.2424 99.8538 40.0241 94.0122 34.8026C93.154 34.0369 91.884 35.3046 92.7484 36.0766L110.273 51.7379C111.128 52.5036 112.398 51.2359 111.537 50.4639Z" fill="#E7DFC2"/>
<path d="M75.9171 34.9313C75.9171 34.9313 81.0285 26.5625 87.644 30.5508C94.2596 34.5391 89.3291 43.0146 89.3291 43.0146L75.9171 34.9313Z" fill="#E7DFC2"/>
<path d="M89.3284 43.0178C88.9602 43.636 86.6166 42.93 83.7364 41.4175C83.1154 41.0911 82.4694 40.7271 81.8141 40.3318C81.1588 39.9364 80.5347 39.5347 79.9574 39.1394C77.2738 37.2974 75.5512 35.5527 75.9194 34.9345C76.2627 34.3603 78.3191 34.9314 80.931 36.2368C81.7236 36.6322 82.5724 37.0966 83.4368 37.6206C84.3012 38.1415 85.1063 38.6718 85.8303 39.1927C88.1956 40.8872 89.6685 42.4404 89.3284 43.0178Z" fill="#C1B894"/>
<path d="M85.8238 39.1864C85.5835 40.2564 84.7784 41.113 83.7362 41.4143C83.4709 41.4927 83.187 41.5335 82.8936 41.5335C81.4457 41.5335 80.238 40.5043 79.9541 39.133C79.9135 38.9322 79.8917 38.7219 79.8917 38.5086C79.8917 37.5954 80.2911 36.7827 80.9277 36.2304C81.7203 36.6258 82.5691 37.0902 83.4335 37.6143C84.2947 38.1383 85.0998 38.6686 85.8238 39.1864Z" fill="#FAC978"/>
<path d="M93.023 33.9836C91.1038 33.9836 91.1007 36.9834 93.023 36.9834C94.9421 36.9834 94.9453 33.9836 93.023 33.9836Z" fill="#E7DFC2"/>
<path d="M93.023 34.8653C92.2335 34.8653 92.2304 36.1016 93.023 36.1016C93.8156 36.1016 93.8156 34.8653 93.023 34.8653Z" fill="#E7DFC2"/>
<path d="M110.57 49.4724C108.102 49.4724 108.099 53.3289 110.57 53.3289C113.039 53.3289 113.042 49.4724 110.57 49.4724Z" fill="#E7DFC2"/>
<path d="M110.57 50.6208C109.571 50.6208 109.568 52.1835 110.57 52.1835C111.568 52.1835 111.571 50.6208 110.57 50.6208Z" fill="#E7DFC2"/>
<path d="M28.5591 68.9308H17.9805C17.9805 68.9308 17.6934 75.2882 20.867 77.5413C21.1291 77.7264 21.4568 77.8237 21.7907 77.8237H23.2698H24.7489C25.0828 77.8237 25.4105 77.7264 25.6726 77.5413C28.8462 75.2914 28.5591 68.9308 28.5591 68.9308Z" fill="#536969"/>
<path d="M28.5653 68.9338C28.5653 69.1221 26.8365 69.2852 24.5086 69.326C24.1123 69.3355 23.6941 69.3386 23.2666 69.3386C22.9015 69.3386 22.5489 69.3355 22.2025 69.3292C19.7903 69.2947 17.9742 69.1283 17.9742 68.9338C17.9742 68.7549 19.5126 68.6012 21.6377 68.5478C22.1495 68.5353 22.6987 68.529 23.2697 68.529C23.7191 68.529 24.156 68.5321 24.571 68.5416C26.8646 68.5855 28.5653 68.7455 28.5653 68.9338Z" fill="#405050"/>
<path d="M30.0757 70.7946C29.5141 70.1137 28.6029 69.9913 27.7759 70.0196C27.0114 70.0447 27.0083 71.2433 27.7759 71.2182C28.3782 71.1994 29.0241 71.2151 29.3331 71.8176C29.6202 72.3699 29.5702 73.0884 29.2894 73.6344C28.6185 74.9524 27.0863 75.3164 25.7257 75.1312C25.4074 75.0873 25.1297 75.4387 25.1297 75.7306C25.1297 76.0914 25.4043 76.286 25.7257 76.3299C27.1924 76.5276 28.8057 76.1228 29.8105 74.9712C30.8028 73.8321 31.0868 72.0215 30.0757 70.7946Z" fill="#536969"/>
<path opacity="0.5" d="M26.253 65.3472C25.451 66.1568 24.5866 67.0825 24.5617 68.2278C24.5586 68.3565 24.5679 68.4851 24.5742 68.6169C24.5898 68.8899 24.6054 69.1629 24.5149 69.4014C24.1186 69.4108 23.7004 69.414 23.2729 69.414C22.9078 69.414 22.5552 69.4108 22.2088 69.4045C21.981 69.1943 21.7875 68.9182 21.6409 68.6232C21.4879 68.3408 21.3756 68.0427 21.307 67.776C21.1759 67.2708 21.1665 66.731 21.2976 66.2258C21.6377 64.9048 22.8235 63.8253 22.7986 62.4635C22.783 61.5817 22.2525 60.7972 21.6627 60.1477C21.0698 59.5013 20.3864 58.9208 19.9433 58.1614C19.185 56.8686 19.2724 55.1145 20.1929 53.9346C21.1104 52.7547 22.8235 52.2558 24.2091 52.8018C25.5977 53.3509 26.5214 54.9262 26.278 56.4041C26.1188 57.3675 25.529 58.3528 25.9035 59.2565C26.1095 59.7492 26.5588 60.0849 26.9364 60.4646C27.4607 60.9981 27.8663 61.6978 27.8819 62.4478C27.9069 63.59 27.055 64.5376 26.253 65.3472Z" fill="#54C1BB"/>
<path d="M33.8421 70.3208C33.8421 70.3208 27.1111 43.4978 30.1286 40.2564C33.1462 37.0149 58.2353 35.515 60.9845 38.0253C63.7337 40.5356 63.5121 70.2863 63.5121 70.2863L33.8421 70.3208Z" fill="#54C1BB"/>
<path d="M60.9875 38.0253C60.9032 37.95 60.7971 37.8747 60.6723 37.8057C52.3467 37.2879 37.468 38.7408 35.1869 41.1915C32.5095 44.0721 37.5148 65.5418 38.6694 70.3145L63.512 70.2863C63.512 70.2863 63.7367 40.5357 60.9875 38.0253Z" fill="#8DD1CD"/>
<path d="M68.5861 47.9943C68.5861 47.9943 73.763 63.6337 75.1548 64.0228C76.5466 64.4119 90.8074 67.1137 90.8074 67.1137L90.1115 70.6125C90.1115 70.6125 72.7364 71.1585 68.5861 68.2025C64.4327 65.2466 68.5861 47.9943 68.5861 47.9943Z" fill="#DDBB8F"/>
<path d="M68.5861 47.9943C68.5861 47.9943 64.4326 65.2466 68.5861 68.2025C70.1776 69.3353 73.7069 69.9535 77.4578 70.2861L78.4626 65.2466L78.319 65.1587L78.2129 64.6724C76.6683 64.3617 75.5074 64.117 75.1579 64.0197C73.7631 63.6337 68.5861 47.9943 68.5861 47.9943Z" fill="#405050"/>
<path d="M79.9387 65.0177C79.2677 65.73 78.8153 66.6149 78.5625 67.5406C78.3097 68.4662 78.2473 69.4296 78.2941 70.3835C78.3004 70.4871 78.1943 70.6 78.0882 70.6251C77.9821 70.6502 77.8697 70.6283 77.7605 70.6126C77.6513 70.5969 77.5327 70.5906 77.4391 70.6471C77.3455 70.7036 77.2924 70.8134 77.1926 70.8542C77.0646 70.9044 76.9273 70.8322 76.7994 70.7852C76.5217 70.6816 76.2127 70.7036 75.9163 70.6816C75.6198 70.6628 75.2953 70.5843 75.1237 70.3521C74.9988 70.1858 74.9801 69.9693 74.9645 69.7653C74.8927 68.8177 74.8303 67.8135 75.2766 66.9632C75.5605 66.4234 76.0286 65.981 76.272 65.4256C76.3906 65.1557 76.4499 64.8639 76.6122 64.616C76.7713 64.3681 77.074 64.1673 77.3736 64.2332C77.6232 64.2897 77.798 64.5125 78.0414 64.5815C78.2629 64.6411 78.4938 64.5658 78.7216 64.5407C79.2022 64.4873 79.6328 64.6537 79.9387 65.0177Z" fill="#536969"/>
<path d="M42.7758 70.3206H69.1007C68.3642 65.1806 67.6808 59.4916 67.7588 56.5419C67.8244 54.1257 68.5827 48.0319 68.5827 48.0319C68.2924 47.6867 61.7924 42.6253 56.4999 42.7822C47.5222 43.052 42.9599 49.4283 42.9599 49.4283C42.9599 49.4283 43.2626 54.1571 43.4842 56.6141C43.7494 59.5387 43.2595 65.1995 42.7758 70.3206Z" fill="#F7F4E3"/>
<path d="M67.7557 57.0974C67.7557 56.8903 67.7557 56.6926 67.762 56.5043C67.8244 54.1823 68.5265 48.4744 68.5827 48.0257C68.3081 47.7119 63.6304 44.0625 59.0026 43.0426L59.0432 47.5079C59.0432 47.5079 60.7657 58.1329 61.5271 70.2829H69.0976C68.4079 65.4599 67.7651 60.16 67.7557 57.0974Z" fill="#405050"/>
<path d="M59.6082 42.4025L63.7647 47.3761L60.6816 46.4441L59.0402 47.5079L57.171 42.8136L59.6082 42.4025Z" fill="#536969"/>
<path d="M42.7758 70.2862H54.8336C53.5978 59.4165 53.1953 49.1084 53.1953 49.1084L51.841 43.4852C45.9494 45.2236 42.9599 49.3939 42.9599 49.3939C42.9599 49.3939 43.2626 54.1228 43.4842 56.5798C43.7494 59.5043 43.2595 65.162 42.7758 70.2862Z" fill="#405050"/>
<path d="M67.5469 31.1688C69.5971 29.7316 71.1043 27.3907 71.6535 24.7831C71.8282 23.9579 71.9094 23.0949 71.7471 22.2634C71.588 21.4318 71.1604 20.6348 70.4989 20.1923C69.8373 19.7499 68.9261 19.7279 68.3239 20.2488C67.912 19.524 67.032 19.1976 66.2706 19.3357C65.5091 19.4738 64.8351 19.9413 64.2016 20.4214C61.7083 19.32 58.7033 19.957 56.7592 21.9559C55.1084 22.2414 53.623 23.5217 52.9583 25.2005C52.2937 26.8793 52.2843 28.8122 52.6588 30.6071C52.9271 31.8874 53.4139 33.1708 54.3189 34.0337C55.408 35.0692 56.9339 35.3422 58.3662 35.3203C61.7052 35.2669 64.7446 33.1331 67.5469 31.1688Z" fill="#405050"/>
<path d="M54.4782 29.1073C53.8697 34.9846 52.3531 45.3868 52.3531 45.3868C53.6762 47.7402 58.6659 47.4421 58.5505 46.6545C58.4849 46.2089 58.591 45.4339 58.85 44.7373C59.0498 44.1975 59.3431 43.7017 59.7176 43.4382C59.8736 43.3283 60.1513 43.2938 60.5102 43.2907C60.5695 43.2938 60.6007 43.2907 60.6007 43.2907C62.2514 43.3032 65.45 43.9371 66.8449 41.9288C68.5799 39.431 68.7702 32.4774 68.583 29.1261C68.4738 27.2088 66.8355 24.5196 63.5371 23.936C59.5054 23.2205 55.0898 23.1923 54.4782 29.1073Z" fill="#FDBCA0"/>
<path d="M55.0521 41.6526C55.0521 41.6526 56.3003 43.4632 58.8498 44.734C59.0495 44.1943 59.3428 43.6985 59.7173 43.4349C59.8733 43.3251 60.151 43.2906 60.5099 43.2874C60.0168 43.2749 57.5641 43.1243 55.0521 41.6526Z" fill="#F0A38B"/>
<path d="M64.5074 35.6844C64.732 35.6812 64.9661 35.6875 65.1533 35.8287C65.3 35.9386 65.3686 36.1206 65.3561 36.3026C65.3218 36.7168 64.9505 36.949 64.5822 37.0368C64.4637 37.0651 64.4075 36.8831 64.5261 36.8548C64.8069 36.7889 65.1221 36.6352 65.1658 36.3151C65.1845 36.1865 65.1408 36.0547 65.0347 35.9762C64.8881 35.8695 64.6915 35.8758 64.5167 35.8758C64.3919 35.8789 64.3857 35.6875 64.5074 35.6844Z" fill="#3F4553"/>
<path d="M62.1609 33.4C62.1484 33.7515 62.37 34.0433 62.6571 34.0527C62.9442 34.0621 63.1844 33.786 63.1969 33.4345C63.2094 33.0831 62.9878 32.7913 62.7008 32.7818C62.4137 32.7724 62.1734 33.0486 62.1609 33.4Z" fill="#3F4553"/>
<path d="M65.6184 33.7356C65.6059 34.0871 65.8274 34.3789 66.1145 34.3883C66.4016 34.3977 66.6419 34.1216 66.6544 33.7701C66.6669 33.4187 66.4453 33.1269 66.1582 33.1175C65.8742 33.108 65.6308 33.3842 65.6184 33.7356Z" fill="#3F4553"/>
<path d="M61.2774 30.4252C61.8953 30.0392 62.6786 29.9639 63.3526 30.262C63.4462 30.3028 63.5024 30.4095 63.4649 30.5099C63.4306 30.604 63.3151 30.6636 63.2184 30.6228C62.6786 30.3844 62.0232 30.4095 61.5177 30.7264C61.4303 30.7797 61.3211 30.786 61.2494 30.6982C61.1901 30.6228 61.1901 30.4816 61.2774 30.4252Z" fill="#3F4553"/>
<path d="M67.8589 31.0433C67.3658 30.5036 66.6325 30.2212 65.9054 30.3247C65.8024 30.3404 65.7244 30.4252 65.7338 30.5318C65.7432 30.6323 65.8368 30.7201 65.9398 30.7044C66.5233 30.6197 67.1474 30.8237 67.55 31.263C67.6186 31.3383 67.7247 31.3728 67.8152 31.3069C67.8901 31.2567 67.9275 31.1218 67.8589 31.0433Z" fill="#3F4553"/>
<path d="M60.5382 34.787C60.5163 35.0569 60.9095 35.311 61.415 35.355C61.9237 35.3989 62.3543 35.2169 62.3762 34.947C62.398 34.6772 62.0048 34.423 61.4993 34.3791C60.9906 34.3351 60.56 34.5171 60.5382 34.787Z" fill="#FBAD8B"/>
<path d="M66.1394 35.2857C66.1175 35.5556 66.5107 35.8098 67.0162 35.8537C67.5249 35.8976 67.9555 35.7156 67.9774 35.4458C67.9992 35.1759 67.606 34.9217 67.1005 34.8778C66.5918 34.8339 66.1612 35.0159 66.1394 35.2857Z" fill="#FBAD8B"/>
<path d="M65.4591 38.9225C65.3998 39.2551 65.2156 39.5564 64.9629 39.7792C64.9161 39.8231 64.8724 39.8576 64.8225 39.8921C64.501 40.1243 64.1016 40.2373 63.7053 40.2499C63.1249 40.2718 62.532 40.071 62.1138 39.6662C61.9516 39.5093 61.8174 39.3242 61.7238 39.1202C61.5677 38.797 61.5053 38.4299 61.5677 38.0784C61.6021 37.8807 61.6988 37.6705 61.886 37.6203C62.0077 37.5889 62.1263 37.6297 62.2387 37.6956C62.2979 37.7301 62.3541 37.7709 62.4072 37.8086C62.8409 38.1318 63.309 38.4267 63.8332 38.5522C64.2015 38.6401 64.604 38.6338 64.9598 38.4989C65.0783 38.4518 65.2562 38.2949 65.3873 38.3765C65.3904 38.3797 65.3904 38.3797 65.3935 38.3797C65.5308 38.4864 65.4871 38.7813 65.4591 38.9225Z" fill="#4E5567"/>
<path d="M65.3839 38.3827C65.3589 38.4737 65.3121 38.5647 65.2528 38.64C65.1218 38.8032 64.9252 38.9099 64.7255 38.9758C64.0514 39.1986 63.2869 39.0228 62.7034 38.6181C62.5161 38.4863 62.3383 38.3262 62.254 38.1097C62.2041 37.9811 62.1947 37.8336 62.2353 37.7018C62.2946 37.7363 62.3507 37.7771 62.4038 37.8147C62.8375 38.138 63.3056 38.4329 63.8299 38.5584C64.1981 38.6463 64.6007 38.64 64.9564 38.5051C65.075 38.458 65.2528 38.3011 65.3839 38.3827Z" fill="white"/>
<path d="M64.9632 39.7824C64.9164 39.8264 64.8727 39.8609 64.8227 39.8954C64.5013 40.1276 64.1019 40.2406 63.7056 40.2531C63.1252 40.2751 62.5323 40.0743 62.1141 39.6695C61.9519 39.5126 61.8177 39.3274 61.7241 39.1235C62.1734 39.0764 62.6321 39.0701 63.0846 39.1046C63.6245 39.1454 64.1737 39.249 64.6355 39.5283C64.7479 39.6036 64.8602 39.6852 64.9632 39.7824Z" fill="#3F4553"/>
<path d="M65.328 27.8268C63.9113 28.1186 62.3479 27.4942 61.5178 26.3018C61.4148 26.6627 61.1153 26.9608 60.7533 27.0643C60.3944 27.1679 59.9825 27.0706 59.7048 26.8164C59.6486 27.9774 59.3459 29.1479 58.6813 30.0955C58.0166 31.0463 56.9618 31.7524 55.8104 31.8434C55.1675 31.8936 54.4841 31.7398 54.0036 31.3036C53.5573 30.8957 53.3358 30.2964 53.2016 29.7064C52.8802 28.285 52.9769 26.7537 53.5604 25.4169C54.1409 24.0801 55.2175 22.9505 56.5562 22.3857C57.8356 21.8428 59.271 21.8303 60.6597 21.8773C62.0889 21.9275 63.5306 22.0405 64.888 22.4955C65.9895 22.8626 67.0349 23.4714 67.8057 24.3531C67.9555 24.5257 68.2176 24.7673 68.2145 25.009C68.2114 25.2443 68.046 25.5518 67.943 25.7589C67.7027 26.2453 67.3595 26.6752 66.9475 27.0235C66.4857 27.422 65.924 27.7044 65.328 27.8268Z" fill="#405050"/>
<path d="M55.0772 31.9187C54.5935 31.3476 53.8914 30.9145 53.1238 30.9773C52.3655 31.0401 51.7695 31.5578 51.576 32.2952C51.448 32.791 51.4886 33.3151 51.5822 33.8203C51.679 34.3506 51.8288 34.8746 52.0815 35.3484C52.559 36.2427 53.5544 37.0586 54.6248 36.704C56.0508 36.2302 56.1476 34.4635 55.7918 33.2303C55.6545 32.7722 55.4049 32.3078 55.0772 31.9187Z" fill="#FDBCA0"/>
<path d="M53.1924 32.2544C53.0613 32.1853 52.949 32.383 53.0769 32.452C53.9881 32.9259 54.4968 33.9457 54.3127 34.9655C54.2877 35.1099 54.5062 35.1695 54.5311 35.0251C54.734 33.9112 54.2003 32.7784 53.1924 32.2544Z" fill="#F0A38B"/>
<path d="M54.2346 33.4375C53.8476 33.2774 53.4201 33.2429 53.0145 33.3276C52.9552 33.3402 52.9208 33.4124 52.9364 33.4688C52.9552 33.5316 53.0144 33.5598 53.0769 33.5473C53.4451 33.472 53.8289 33.5128 54.1784 33.6571C54.2346 33.6791 54.3032 33.632 54.3188 33.5787C54.3313 33.5128 54.2908 33.4626 54.2346 33.4375Z" fill="#F0A38B"/>
<path d="M52.8367 42.4025L50.2966 43.4819L48.0342 49.9335L51.8912 47.8468L53.1987 49.1082L52.8367 42.4025Z" fill="#536969"/>
<path d="M42.9633 49.3952C42.9633 49.3952 32.9526 67.1151 35.1183 70.1495C37.2839 73.1838 56.6219 76.1397 56.6219 76.1397L57.4177 72.2048C57.4177 72.2048 43.3378 68.3389 43.0476 67.2312L43.4033 62.791C43.4002 62.791 44.561 50.9799 42.9633 49.3952Z" fill="#FDBCA0"/>
<path d="M43.0445 67.2297L43.4002 62.7896C43.4002 62.7896 44.561 50.9784 42.9633 49.3906C42.9633 49.3906 32.9526 67.1105 35.1183 70.1449C35.8173 71.1239 38.3137 72.0966 41.3687 72.9658L42.3142 72.6364L44.1741 67.964C43.5094 67.6659 43.0913 67.4117 43.0445 67.2297Z" fill="#405050"/>
<path d="M46.4364 68.4817C44.8855 69.8655 43.8557 71.8298 43.5936 73.8977C43.1848 73.904 42.8072 73.7345 42.4702 73.5023C42.0739 73.7722 41.5496 73.7126 41.0784 73.6404C40.8912 73.6122 40.6821 73.5714 40.5729 73.4176C40.5011 73.3172 40.4887 73.1885 40.4762 73.0662C40.4294 72.5829 40.3826 72.0903 40.498 71.6196C40.6104 71.1614 40.8694 70.7535 41.1253 70.355C41.5684 69.6678 42.0115 68.9775 42.4546 68.2903C42.6075 68.0549 42.7604 67.8133 42.982 67.6438C43.2035 67.4713 43.5031 67.3771 43.7652 67.4713C43.9275 67.5309 44.0586 67.6533 44.2115 67.7348C44.4673 67.8698 44.7669 67.8792 45.054 67.8698C45.3411 67.8604 45.6344 67.8321 45.9122 67.9074C46.1899 67.9827 46.3771 68.1961 46.4364 68.4817Z" fill="#536969"/>
<path d="M43.4345 52.3248C43.394 56.1624 43.2473 60.0001 42.9914 63.8315C42.9196 64.9204 42.8354 66.0092 42.7449 67.0981C42.7199 67.3899 43.1755 67.3805 43.2005 67.0887C43.5188 63.2636 43.7279 59.429 43.8308 55.5913C43.8589 54.4993 43.8776 53.4073 43.8901 52.3185C43.8932 52.0204 43.4376 52.0298 43.4345 52.3248Z" fill="#A1B8B8"/>
<path d="M56.6188 76.1353C56.6188 76.1353 64.3141 79.2858 64.6636 78.6425C65.0131 78.0024 61.3652 76.7849 61.3652 76.7849C61.3652 76.7849 66.4797 77.8267 66.6139 77.2995C66.7481 76.7755 61.827 75.4638 61.827 75.4638C61.827 75.4638 67.703 76.5432 67.7748 75.9282C67.8465 75.3132 62.5915 74.1584 62.5915 74.1584C62.5915 74.1584 67.5282 74.4408 67.5626 73.9921C67.6219 73.1857 57.4146 72.2004 57.4146 72.2004L56.6188 76.1353Z" fill="#FDBCA0"/>
<path d="M58.1477 72.2787C58.1477 72.2787 62.0733 70.8478 62.4697 71.1585C62.866 71.4692 60.7378 73.035 60.7378 73.035L58.1477 72.2787Z" fill="#FDBCA0"/>
<path d="M46.5675 68.0708H26.2466C26.0313 68.0708 25.9033 68.2466 25.9626 68.4631L29.4982 81.3819C29.5575 81.5984 29.779 81.7741 29.9944 81.7741H50.3153C50.5306 81.7741 50.6586 81.5984 50.5993 81.3819L47.0637 68.4631C47.0075 68.2466 46.7828 68.0708 46.5675 68.0708Z" fill="#E7DFC2"/>
<path d="M49.0731 81.6173L46.0712 70.6534C46.0212 70.4683 45.8309 70.3208 45.6499 70.3208H28.4058C28.2217 70.3208 28.1156 70.4683 28.1655 70.6534L31.1675 81.6173C31.1644 81.611 31.1862 81.6895 31.2112 81.7711H49.1199L49.0731 81.6173Z" fill="#F7F4E3"/>
<path d="M27.7224 69.0405C27.7224 69.3072 27.5071 69.5206 27.245 69.5206C26.9797 69.5206 26.7675 69.3041 26.7675 69.0405C26.7675 68.7769 26.9828 68.5604 27.245 68.5604C27.5071 68.5604 27.7224 68.7769 27.7224 69.0405Z" fill="#405050"/>
<path d="M27.4668 69.0405C27.4668 69.1628 27.3669 69.2633 27.2452 69.2633C27.1235 69.2633 27.0237 69.1628 27.0237 69.0405C27.0237 68.9181 27.1235 68.8177 27.2452 68.8177C27.3669 68.8177 27.4668 68.9181 27.4668 69.0405Z" fill="#576E6E"/>
<path d="M45.2695 70.4714H28.0254C27.8413 70.4714 27.7352 70.6189 27.7852 70.804L30.7871 81.7679C30.784 81.7554 30.8807 82.1005 30.8807 82.1005H48.7864L48.6959 81.7679L45.6939 70.804C45.6409 70.6189 45.4536 70.4714 45.2695 70.4714Z" fill="#EBB254"/>
<path d="M48.6926 81.7679L46.761 74.7076H28.8522L30.7838 81.7679C30.7807 81.7554 30.8775 82.1005 30.8775 82.1005H48.7831L48.6926 81.7679Z" fill="#FEDEA6"/>
<path d="M45.3036 83.7982H27.4073L30.8867 82.1006H48.783L45.3036 83.7982Z" fill="#EBB254"/>
<path d="M68.1242 49.5947L104.606 43.4977C105.202 43.3973 105.745 43.868 105.742 44.483L105.586 67.7601C105.583 68.2308 105.259 68.6324 104.806 68.7266L69.2164 76.132C68.3426 76.3391 67.3035 75.7806 67.3035 74.4909V50.5737C67.3066 50.0904 67.653 49.6762 68.1242 49.5947Z" fill="#FEDEA6"/>
<path d="M69.775 49.5287L104.606 43.7204C105.202 43.62 105.745 44.0875 105.742 44.6963L105.593 67.7976C105.589 68.262 105.265 68.6606 104.812 68.7547L70.1307 75.9186C69.5253 76.0441 68.9574 75.5797 68.9574 74.9552V50.5014C68.9605 50.015 69.3038 49.6071 69.775 49.5287Z" fill="#FAC978"/>
<path d="M85.5179 61.6411L83.4989 73.151L94.4707 70.8854L85.5179 61.6411Z" fill="#EBB254"/>
<path d="M85.0622 82.7059L80.2472 81.0616C79.4764 80.798 79.5232 79.6872 80.3127 79.4895L88.476 77.4342C88.6196 77.3997 88.7662 77.4028 88.9067 77.4436L93.6468 78.8682C94.43 79.1036 94.4206 80.2207 93.6343 80.4435L85.5459 82.7184C85.3867 82.7624 85.2182 82.7592 85.0622 82.7059Z" fill="#EBB254"/>
<path d="M92.2647 60.5428C92.1711 60.1098 91.756 59.8305 91.3223 59.909L86.1859 60.8441C85.802 60.9131 85.5212 61.2489 85.5149 61.6411L85.2996 82.7876L96.3463 79.6779L92.2647 60.5428ZM90.9509 76.9855C89.4031 77.1456 87.9646 75.4605 87.7368 73.22C87.509 70.9827 88.5793 69.0372 90.1271 68.8803C91.6749 68.7203 93.1134 70.4053 93.3412 72.6458C93.569 74.8831 92.4987 76.8255 90.9509 76.9855Z" fill="#FEDEA6"/>
<path d="M89.3753 22.5741C84.1484 22.5741 79.8951 18.2971 79.8951 13.0411C79.8951 7.7851 84.1484 3.50812 89.3753 3.50812C94.6022 3.50812 98.8555 7.7851 98.8555 13.0411C98.8555 18.2971 94.6022 22.5741 89.3753 22.5741ZM89.3753 6.20987C85.6275 6.20987 82.5787 9.27562 82.5787 13.0443C82.5787 16.8129 85.6275 19.8787 89.3753 19.8787C93.123 19.8787 96.1718 16.8129 96.1718 13.0443C96.1718 9.27562 93.123 6.20987 89.3753 6.20987Z" fill="#F5E2D5"/>
<path d="M85.8239 15.4478L85.4026 14.6539L88.9944 12.7366L90.511 7.02873L91.3754 7.26094L89.7589 13.3485L85.8239 15.4478Z" fill="#F5E2D5"/>
</g>
<defs>
<clipPath id="clip0_1006_8699">
<rect width="118" height="85" fill="white"/>
</clipPath>
</defs>
</svg>
