<svg width="20" height="24" viewBox="0 0 20 24" fill="none" xmlns="http://www.w3.org/2000/svg">
<path d="M4.44287 5.66379C4.44287 8.72746 6.9346 11.2174 10.0002 11.2174C13.0659 11.2174 15.5575 8.71988 15.5575 5.65639C15.5575 2.59271 13.0658 0.102779 10.0002 0.102779C6.93451 0.102779 4.44287 2.5928 4.44287 5.66379ZM6.13062 5.65639C6.13062 3.5283 7.86332 1.78952 10.0002 1.78952C12.137 1.78952 13.8697 3.5283 13.8697 5.65639C13.8697 7.78434 12.1298 9.52325 10.0002 9.52325C7.87061 9.52325 6.13062 7.78434 6.13062 5.65639Z" fill="#A0A3B1" stroke="#A0A3B1" stroke-width="0.2"/>
<path d="M15.1624 23.8419H4.83754C2.16606 23.8419 0 21.3995 0 18.3873C0 15.3751 2.17509 12.9328 4.83754 12.9328H15.1624C17.8339 12.9328 20 15.3853 20 18.3873C20 21.3894 17.8339 23.8419 15.1624 23.8419ZM4.83754 14.9681C3.16787 14.9681 1.80505 16.5047 1.80505 18.3873C1.80505 20.27 3.16787 21.8066 4.83754 21.8066H15.1624C16.8321 21.8066 18.1949 20.27 18.1949 18.3873C18.1949 16.5047 16.8321 14.9681 15.1624 14.9681H4.83754Z" fill="#A0A3B1"/>
</svg>
