<svg width="414" height="291" viewBox="0 0 414 291" fill="none" xmlns="http://www.w3.org/2000/svg">
<mask id="mask0_1006_1583" style="mask-type:alpha" maskUnits="userSpaceOnUse" x="0" y="0" width="415" height="291">
<rect width="414.005" height="290.067" rx="20" fill="#AFDBC5"/>
</mask>
<g mask="url(#mask0_1006_1583)">
<path d="M394 -8.76628H4.34551C-6.70032 -8.76628 -15.6547 0.188122 -15.6547 11.234V400.888C-15.6547 411.934 -6.70033 420.888 4.3455 420.888H394C405.046 420.888 414 411.934 414 400.888V11.234C414 0.188134 405.046 -8.76628 394 -8.76628Z" fill="#4C53B4"/>
<path d="M351.373 242.384C387.222 168.266 348.137 75.2207 264.075 34.5624C180.013 -6.09585 82.8063 21.0289 46.9574 95.1474C11.1085 169.266 50.1929 262.311 134.255 302.969C218.317 343.627 315.524 316.502 351.373 242.384Z" fill="#5F65BF"/>
<path d="M388.556 37.7995C388.329 37.5715 388.096 37.3532 387.857 37.1448C385.281 34.8962 380.469 27.1794 378.639 24.2912V24.2912C376.658 21.1633 372.517 19.5048 368.791 20.3513C368.304 20.4616 367.829 20.6066 367.37 20.7834C366.065 21.2856 361.576 19.5729 361.053 18.276V18.276C359.764 15.0794 357.092 12.6905 354.071 12.0417C350.389 11.2512 346.106 13.146 343.648 16.6562C343.23 17.2531 342.849 17.8943 342.507 18.5702C341.852 19.8657 338.043 20.4475 336.799 19.6982V19.6982C334.002 18.0139 330.217 17.9624 327.154 19.5607C324.301 21.0516 322.066 23.9346 321.177 27.2816V27.2816C320.532 29.7167 316.096 32.3613 313.579 32.4605C313.237 32.474 312.887 32.5113 312.528 32.5749C310.028 33.0175 307.961 34.5557 306.861 36.7942C305.765 39.0198 305.808 41.5762 306.973 43.8104C308.94 47.5828 312.966 49.9373 319.274 51.0071C323.639 51.7461 328.133 51.7934 332.477 51.8364C333.285 51.845 334.088 51.8536 334.896 51.8664C335.532 51.875 336.095 51.8879 336.615 51.9051C340.176 52.0168 343.743 52.0899 347.21 52.1199C348.701 52.1328 350.183 52.1414 351.67 52.1414C357.062 52.1414 362.398 52.0469 367.593 51.8622C368.877 51.8149 370.183 51.7461 371.447 51.6817C373.311 51.5829 375.236 51.4841 377.131 51.454C380.319 51.3981 383.168 51.2563 385.763 50.0963C388.006 49.0909 391.005 47.368 391.206 44.0124C391.335 41.8856 390.369 39.6213 388.556 37.7995Z" fill="#93A1ED"/>
<path d="M409.123 105.673C408.966 105.515 408.805 105.364 408.64 105.22C406.853 103.661 403.522 98.3188 402.253 96.3148V96.3148C400.882 94.1493 398.012 92.9978 395.434 93.5822C395.097 93.6588 394.768 93.7593 394.45 93.8817C393.539 94.2325 390.437 93.0489 390.072 92.1428V92.1428C389.183 89.9301 387.327 88.2759 385.234 87.8248C382.687 87.2748 379.718 88.5896 378.016 91.0214C377.726 91.4358 377.462 91.881 377.225 92.3504C376.772 93.2474 374.134 93.6485 373.273 93.131V93.131C371.335 91.9667 368.714 91.928 366.592 93.0365C364.615 94.0677 363.069 96.0656 362.454 98.3857V98.3857C362.007 100.069 358.931 101.905 357.19 101.975C356.954 101.985 356.712 102.011 356.465 102.055C354.733 102.36 353.303 103.426 352.538 104.977C351.782 106.519 351.807 108.289 352.615 109.836C353.977 112.448 356.766 114.081 361.135 114.82C364.16 115.331 367.271 115.366 370.283 115.396C370.841 115.4 371.4 115.409 371.958 115.417C372.401 115.426 372.787 115.434 373.148 115.443C375.615 115.52 378.085 115.572 380.487 115.593C381.518 115.602 382.549 115.606 383.576 115.606C387.31 115.606 391.009 115.542 394.605 115.413C395.495 115.383 396.401 115.336 397.273 115.288C398.562 115.22 399.899 115.151 401.209 115.129C403.417 115.091 405.39 114.992 407.186 114.188C408.737 113.492 410.816 112.298 410.958 109.973C411.048 108.5 410.378 106.932 409.123 105.673Z" fill="#93A1ED"/>
<path d="M32.4366 192.695C32.3198 192.578 32.1998 192.466 32.077 192.359C30.7475 191.2 28.2653 187.217 27.3237 185.726V185.726C26.3011 184.111 24.1658 183.256 22.2452 183.694C21.9934 183.751 21.7479 183.826 21.5103 183.917C20.8403 184.175 18.5214 183.29 18.2537 182.624V182.624C17.5877 180.974 16.2086 179.741 14.6532 179.406C12.7541 178.998 10.5414 179.977 9.27393 181.786C9.05817 182.094 8.86122 182.426 8.6846 182.776C8.34716 183.444 6.37921 183.745 5.73787 183.359V183.359C4.29423 182.491 2.34359 182.465 0.762465 183.29C-0.71125 184.059 -1.86272 185.546 -2.32246 187.273V187.273C-2.65767 188.526 -4.94584 189.893 -6.24225 189.946C-6.41805 189.953 -6.59793 189.973 -6.78227 190.005C-8.07124 190.233 -9.13678 191.028 -9.70822 192.184C-10.2711 193.331 -10.2539 194.65 -9.65237 195.801C-8.63838 197.748 -6.56315 198.964 -3.30636 199.514C-1.05497 199.896 1.26516 199.918 3.50796 199.943C3.92472 199.948 4.34149 199.952 4.75396 199.956C5.08479 199.961 5.37266 199.969 5.63905 199.978C7.47797 200.034 9.31689 200.072 11.1043 200.089C11.8733 200.098 12.6381 200.102 13.4029 200.102C16.1828 200.102 18.9369 200.055 21.6179 199.956C22.2796 199.93 22.9541 199.896 23.6072 199.862C24.5696 199.81 25.5621 199.759 26.5375 199.741C28.183 199.711 29.6525 199.643 30.9887 199.041C32.1444 198.521 33.6955 197.632 33.7986 195.905C33.8674 194.805 33.369 193.636 32.4366 192.695Z" fill="#93A1ED"/>
<path d="M409.708 213.356C409.596 213.244 409.481 213.137 409.364 213.034C408.089 211.923 405.698 208.09 404.793 206.662V206.662C403.813 205.111 401.759 204.291 399.916 204.707C399.674 204.762 399.438 204.834 399.21 204.922C398.561 205.172 396.341 204.325 396.079 203.681V203.681C395.443 202.095 394.116 200.914 392.621 200.591C390.799 200.2 388.672 201.137 387.456 202.877C387.249 203.174 387.06 203.492 386.89 203.827C386.565 204.471 384.68 204.756 384.062 204.385V204.385C382.678 203.552 380.801 203.526 379.284 204.316C377.871 205.055 376.762 206.486 376.324 208.14V208.14C376.002 209.35 373.806 210.66 372.556 210.709C372.388 210.716 372.216 210.734 372.04 210.766C370.803 210.985 369.776 211.745 369.23 212.858C368.689 213.962 368.706 215.225 369.286 216.334C370.261 218.203 372.255 219.372 375.383 219.9C377.544 220.265 379.774 220.291 381.927 220.313C382.326 220.317 382.726 220.321 383.125 220.325C383.443 220.33 383.718 220.338 383.976 220.343C385.742 220.398 387.508 220.433 389.226 220.45C389.965 220.459 390.7 220.459 391.435 220.459C394.107 220.459 396.75 220.411 399.323 220.321C399.959 220.3 400.608 220.265 401.235 220.231C402.159 220.184 403.113 220.132 404.049 220.119C405.631 220.093 407.04 220.02 408.325 219.445C409.433 218.946 410.924 218.091 411.023 216.428C411.087 215.38 410.606 214.263 409.708 213.356Z" fill="#93A1ED"/>
<path d="M38.9378 102.987C38.8183 102.867 38.6955 102.752 38.5697 102.643C37.2128 101.461 34.6842 97.4008 33.7218 95.8805V95.8805C32.6821 94.2349 30.4994 93.3627 28.5402 93.8052C28.2835 93.8636 28.0333 93.9402 27.7911 94.0336C27.0977 94.3011 24.7453 93.4031 24.4671 92.7139V92.7139C23.7882 91.034 22.3832 89.7751 20.7935 89.4313C18.8558 89.0146 16.6001 90.0114 15.3068 91.8589C15.0876 92.1724 14.8876 92.5091 14.7082 92.8637C14.3643 93.5438 12.355 93.8501 11.702 93.4572V93.4572C10.2326 92.5721 8.239 92.542 6.6278 93.3842C5.1283 94.1661 3.95105 95.6871 3.48272 97.4487V97.4487C3.14318 98.7302 0.807789 100.124 -0.516863 100.177C-0.696034 100.184 -0.879394 100.204 -1.06732 100.237C-2.38206 100.469 -3.46909 101.281 -4.04912 102.458C-4.62486 103.627 -4.60338 104.976 -3.98897 106.149C-2.9535 108.134 -0.835305 109.372 2.48593 109.939C4.78458 110.33 7.14768 110.351 9.43344 110.377C9.8588 110.381 10.2799 110.386 10.7052 110.39C11.0403 110.394 11.3368 110.403 11.6118 110.411C13.4851 110.472 15.3627 110.506 17.1887 110.527C17.9707 110.536 18.7527 110.54 19.5346 110.54C22.3703 110.54 25.1803 110.489 27.9129 110.394C28.5874 110.368 29.2749 110.334 29.9409 110.3C30.9205 110.248 31.9345 110.197 32.9313 110.179C34.6069 110.149 36.1107 110.076 37.4727 109.466C38.65 108.938 40.2311 108.031 40.3385 106.265C40.403 105.135 39.8917 103.945 38.9378 102.987Z" fill="#93A1ED"/>
<path d="M86.4702 296.19C86.2222 295.941 85.9674 295.702 85.7065 295.474C82.8803 293.007 77.5998 284.539 75.5957 281.367V281.367C73.4259 277.934 68.8802 276.116 64.7942 277.04C64.2578 277.162 63.7353 277.322 63.2297 277.516C61.7964 278.068 56.8768 276.193 56.3042 274.767V274.767C54.8906 271.261 51.9561 268.64 48.6434 267.927C44.6047 267.059 39.9042 269.139 37.206 272.989C36.747 273.644 36.3288 274.347 35.954 275.089C35.2339 276.513 31.0555 277.149 29.6871 276.327V276.327C26.6193 274.479 22.4646 274.424 19.1047 276.177C15.9768 277.809 13.5234 280.976 12.5481 284.649V284.649C11.8371 287.322 6.97431 290.223 4.2106 290.333C3.83654 290.348 3.45372 290.389 3.06135 290.458C0.315861 290.944 -1.94842 292.632 -3.15575 295.086C-4.35878 297.526 -4.31152 300.332 -3.03545 302.785C-0.87858 306.923 3.53827 309.505 10.4643 310.682C15.255 311.494 20.1831 311.546 24.9523 311.593C25.8374 311.602 26.7224 311.61 27.6032 311.623C28.3036 311.632 28.918 311.649 29.4894 311.666C33.395 311.786 37.3091 311.868 41.1159 311.902C42.7486 311.92 44.3812 311.924 46.0053 311.924C51.9217 311.924 57.7779 311.821 63.4751 311.615C64.8844 311.563 66.3194 311.49 67.7029 311.417C69.7481 311.309 71.862 311.202 73.9372 311.163C77.4346 311.103 80.5625 310.949 83.4068 309.673C85.8644 308.568 89.1599 306.678 89.379 303C89.5208 300.671 88.4595 298.192 86.4702 296.19Z" fill="#93A1ED"/>
<path d="M73.5332 23.3892C73.3119 23.1669 73.0845 22.954 72.8517 22.7509C70.3319 20.552 65.6318 13.0082 63.8445 10.1816V10.1816C61.911 7.12246 57.8594 5.50266 54.2202 6.3276C53.7432 6.43589 53.2782 6.57798 52.8284 6.75106C51.5521 7.24213 47.1644 5.56828 46.654 4.29963V4.29963C45.3951 1.17604 42.7785 -1.16129 39.8268 -1.79288C36.2306 -2.56626 32.0372 -0.714445 29.6354 2.7185C29.2265 3.30165 28.8538 3.92828 28.5199 4.58878C27.8774 5.85945 24.1577 6.42468 22.9371 5.69171V5.69171C20.2045 4.04613 16.5008 3.99457 13.5061 5.55851C10.7177 7.01504 8.53504 9.83787 7.66284 13.1075V13.1075C7.03284 15.4855 2.69396 18.074 0.235943 18.1727C-0.0975019 18.1861 -0.438741 18.2227 -0.788471 18.2849C-3.23321 18.7188 -5.25258 20.2226 -6.32672 22.4096C-7.39656 24.5836 -7.35789 27.0842 -6.21931 29.2669C-4.29445 32.9533 -0.363111 35.2562 5.80673 36.3046C10.0732 37.0307 14.4686 37.0737 18.7136 37.1167C19.4998 37.1252 20.2904 37.1338 21.0767 37.1424C21.6997 37.151 22.2496 37.1639 22.7566 37.1811C26.2368 37.2885 29.7213 37.3616 33.1156 37.3916C34.5721 37.4045 36.0243 37.4131 37.4723 37.4131C42.7398 37.4131 47.9602 37.3229 53.0387 37.1381C54.2933 37.0909 55.5736 37.0264 56.8067 36.962C58.6285 36.8675 60.5104 36.7686 62.3622 36.7386C65.4772 36.6827 68.2656 36.5452 70.8006 35.4109C72.9918 34.427 75.9264 32.7428 76.124 29.4645C76.2529 27.3807 75.3077 25.168 73.5332 23.3892Z" fill="#93A1ED"/>
<path d="M311.545 173.64C310.85 172.942 310.137 172.274 309.406 171.637C301.507 164.744 286.746 141.073 281.142 132.213V132.213C275.071 122.618 262.375 117.531 250.951 120.126C249.454 120.466 247.996 120.912 246.584 121.455C242.575 122.999 228.823 117.752 227.217 113.768V113.768C223.268 103.967 215.066 96.6415 205.803 94.6522C194.515 92.2247 181.372 98.0422 173.841 108.796C172.558 110.627 171.389 112.593 170.341 114.665C168.333 118.636 156.648 120.418 152.835 118.124V118.124C144.259 112.964 132.65 112.801 123.257 117.707C114.509 122.275 107.661 131.126 104.932 141.381V141.381C102.951 148.842 89.3471 156.958 81.6337 157.264C80.5873 157.305 79.5163 157.419 78.4185 157.614C70.7492 158.971 64.4161 163.689 61.039 170.551C57.6834 177.374 57.808 185.215 61.3827 192.063C67.415 203.63 79.7547 210.848 99.1064 214.135C112.49 216.408 126.269 216.545 139.597 216.678C142.068 216.704 144.542 216.73 147.009 216.764C148.964 216.794 150.686 216.833 152.28 216.88C163.202 217.22 174.133 217.443 184.771 217.546C189.338 217.589 193.897 217.611 198.443 217.611C214.971 217.611 231.345 217.323 247.273 216.747C251.213 216.605 255.217 216.399 259.093 216.197C264.807 215.901 270.715 215.596 276.519 215.493C286.294 215.325 295.038 214.891 302.986 211.325C309.856 208.24 319.064 202.951 319.678 192.669C320.073 186.164 317.109 179.225 311.545 173.64Z" fill="#74C7E5"/>
<path d="M168.444 157.61C167.615 157.704 167.022 158.456 167.117 159.281C167.413 161.863 166.098 164.652 163.911 166.061C161.729 167.47 158.644 167.522 156.414 166.186C154.184 164.849 152.775 162.108 152.99 159.517C153.058 158.688 152.44 157.958 151.61 157.889C150.773 157.816 150.051 158.439 149.982 159.268C149.948 159.681 149.941 160.094 149.961 160.506C150.078 162.908 150.159 165.646 148.117 166.916V166.916C147.881 167.062 147.808 167.372 147.954 167.608C148.049 167.763 148.212 167.844 148.384 167.844C148.474 167.844 148.568 167.818 148.65 167.767C148.911 167.604 149.165 167.429 149.411 167.242C150.484 166.425 152.174 166.521 153.148 167.453V167.453C153.813 168.09 154.128 169.101 153.512 169.784C153.167 170.166 152.766 170.495 152.319 170.749C152.079 170.886 151.993 171.191 152.13 171.436C152.221 171.599 152.392 171.69 152.569 171.69C152.654 171.69 152.736 171.668 152.818 171.625V171.625C154.546 170.649 156.732 169.834 158.7 170.093C159.151 170.152 159.606 170.181 160.062 170.181C161.991 170.181 163.924 169.653 165.553 168.6C168.715 166.56 170.55 162.68 170.12 158.937C170.025 158.108 169.274 157.515 168.444 157.61Z" fill="#231F20"/>
<path d="M232.338 166.916V166.916C230.296 165.646 230.377 162.908 230.494 160.506C230.514 160.096 230.507 159.684 230.473 159.273C230.404 158.443 229.687 157.829 228.844 157.889C228.015 157.958 227.397 158.684 227.465 159.517C227.676 162.108 226.267 164.849 224.041 166.186C221.811 167.522 218.73 167.47 216.543 166.061C214.361 164.652 213.042 161.863 213.338 159.281C213.433 158.452 212.84 157.704 212.011 157.61C211.186 157.515 210.434 158.108 210.339 158.937C209.91 162.675 211.744 166.56 214.906 168.6C216.539 169.653 218.468 170.181 220.397 170.181C220.853 170.181 221.308 170.152 221.759 170.092C223.728 169.833 225.913 170.648 227.641 171.625V171.625C227.719 171.668 227.805 171.69 227.891 171.69C228.067 171.69 228.239 171.599 228.329 171.436C228.466 171.195 228.38 170.886 228.14 170.749C227.692 170.496 227.289 170.167 226.943 169.783C226.329 169.1 226.644 168.093 227.309 167.458V167.458C228.284 166.527 229.977 166.429 231.051 167.243C231.297 167.43 231.551 167.605 231.813 167.767C231.895 167.818 231.99 167.844 232.08 167.844C232.247 167.844 232.411 167.758 232.509 167.608C232.643 167.376 232.574 167.067 232.338 166.916Z" fill="#231F20"/>
<path d="M178.18 193.348C176.591 191.565 173.789 190.963 171.525 191.926C169.188 192.914 167.723 195.432 168.118 197.782C168.552 200.364 171.065 201.765 173.368 202.005C173.635 202.031 173.892 202.048 174.15 202.048C175.98 202.048 177.575 201.352 178.515 200.111C179.981 198.177 179.834 195.208 178.18 193.348Z" fill="#91D9F2"/>
<path d="M157.703 177.038C155.185 175.539 151.606 175.427 148.77 175.466C145.582 175.509 142.012 175.943 139.081 177.266C136.873 178.263 135.614 180.446 136.701 182.8C137.917 185.438 141.298 186.254 143.911 186.577C148.173 187.101 157.277 187.384 159.55 182.74C160.599 180.587 159.722 178.241 157.703 177.038Z" fill="#57B6DC"/>
<path d="M246.573 177.038C244.055 175.539 240.476 175.427 237.64 175.466C234.452 175.509 230.882 175.943 227.951 177.266C225.743 178.263 224.484 180.446 225.571 182.8C226.787 185.438 230.168 186.254 232.781 186.577C237.043 187.101 246.147 187.384 248.42 182.74C249.464 180.587 248.592 178.241 246.573 177.038Z" fill="#57B6DC"/>
<path d="M70.9208 163.926C65.3826 166.242 61.7649 172.476 62.5039 178.431C63.2429 184.386 68.2742 189.55 74.2077 190.44C74.3452 190.461 74.4827 190.47 74.6245 190.47C75.9822 190.47 77.1551 189.456 77.3571 188.115C77.4688 187.385 77.284 186.654 76.8458 186.057C76.4075 185.464 75.7631 185.073 75.0326 184.966C71.4665 184.429 68.4417 181.327 67.9949 177.748C67.5524 174.169 69.7264 170.418 73.0519 169.03C76.3818 167.638 80.5752 168.725 82.8094 171.556C83.2691 172.136 83.9265 172.502 84.6569 172.588C85.3916 172.673 86.1134 172.467 86.6935 172.012C87.2735 171.552 87.6387 170.895 87.7289 170.164C87.8192 169.434 87.6086 168.708 87.1532 168.128C83.4367 163.414 76.4548 161.61 70.9208 163.926Z" fill="#57B6DC"/>
<path d="M128.821 118.756C121.392 120.041 114.595 125.459 111.076 132.896C108.052 139.294 107.33 147.195 109.044 155.139C109.319 156.402 110.453 157.322 111.747 157.322C111.944 157.322 112.142 157.3 112.331 157.257C113.053 157.103 113.672 156.673 114.071 156.05C114.471 155.427 114.608 154.688 114.449 153.966C112.988 147.204 113.564 140.561 116.073 135.255C118.832 129.42 124.078 125.184 129.754 124.2C135.666 123.182 142.042 126.09 144.589 130.971C144.933 131.629 145.509 132.11 146.214 132.333C146.918 132.557 147.67 132.488 148.323 132.148C149.677 131.444 150.205 129.768 149.496 128.415C145.836 121.386 137.135 117.321 128.821 118.756Z" fill="#57B6DC"/>
<path d="M214.035 108.921C211.796 101.858 204.092 96.7405 196.118 97.0327C189.166 97.2819 182.266 101.222 177.651 107.572C173.969 112.642 171.645 119.203 170.747 127.074C170.575 128.591 171.666 129.966 173.187 130.138C173.295 130.151 173.398 130.155 173.501 130.155C174.906 130.155 176.087 129.102 176.246 127.701C177.037 120.793 179.018 115.113 182.133 110.82C185.75 105.836 191.052 102.747 196.316 102.562C201.897 102.36 207.246 105.815 208.758 110.588C208.982 111.293 209.467 111.873 210.125 112.212C210.782 112.552 211.53 112.616 212.23 112.393C213.686 111.933 214.494 110.378 214.035 108.921Z" fill="#57B6DC"/>
<path d="M281.146 132.213C285.436 138.995 286.099 147.691 283.482 155.067C282.511 157.805 285.092 162.083 287.988 162.312V162.312C288.784 162.375 289.591 162.16 290.209 161.655C305.113 149.486 314.983 131.009 316.838 111.486C318.934 89.4406 312.446 66.4669 299.901 51.5321C287.114 36.3095 269.653 27.1406 248.003 24.2791C235.396 22.6121 220.449 24.6014 209.918 29.3362C199.361 34.0839 189.853 42.7758 183.15 53.8093C177.277 63.4765 173.303 75.0901 171.344 88.3192C171.309 88.5469 171.434 88.766 171.644 88.8562C171.855 88.9465 172.1 88.8777 172.242 88.6973C176.796 82.7079 184.71 78.2738 194.532 76.2029C204.126 74.1835 213.841 74.9268 221.892 78.2996C230.743 82.0032 237.867 89.1484 240.956 97.4107C244.29 106.335 242.86 116.616 237.308 123.602C237.205 123.736 237.171 123.912 237.223 124.071C237.274 124.23 237.403 124.354 237.566 124.402V124.402C239.054 124.82 240.631 124.457 241.966 123.676C244.727 122.062 247.752 120.845 250.954 120.118C262.374 117.536 275.075 122.619 281.146 132.213Z" fill="#F5C371"/>
<path d="M251.565 69.9728C251.212 68.2241 250.482 66.6086 249.829 65.2337C249.468 64.4818 248.57 64.1596 247.818 64.5205C247.066 64.8814 246.748 65.7794 247.105 66.5313C247.685 67.7429 248.325 69.1564 248.609 70.5657C248.802 71.5367 248.914 72.9589 248.325 74.2264C247.586 75.8204 245.756 76.9289 243.771 76.9848C241.91 77.0406 239.887 76.2114 238.241 74.7162C237.623 74.1533 236.669 74.2006 236.11 74.815C235.547 75.4337 235.595 76.3875 236.209 76.9461C238.353 78.8967 241.034 80.0009 243.603 80.0009C243.685 80.0009 243.771 80.0009 243.852 79.9966C246.955 79.9107 249.85 78.0976 251.062 75.4896C251.797 73.9084 251.969 72.0008 251.565 69.9728Z" fill="#231F20"/>
<path d="M201.548 52.9583C197.08 51.4374 191.885 56.0905 192.577 60.6921C192.852 62.5053 193.862 64.3442 195.245 65.5472C197.849 67.8072 202.145 66.428 204.289 64.1938C207.49 60.8554 205.909 54.4449 201.548 52.9583Z" fill="#FFEAA3"/>
<path d="M231.864 62.4456C230.262 58.699 226.386 57.41 222.859 59.1286C220.861 60.1039 218.953 61.9042 218.721 64.22C218.322 68.2244 221.471 72.9936 225.935 71.5542C229.463 70.4114 233.561 66.407 231.864 62.4456Z" fill="#FFEAA3"/>
<path d="M248.703 33.1473C248.041 32.6919 247.319 32.3224 246.572 32.0603C243.388 30.9432 239.916 31.5834 237.725 34.2172C233.424 39.3902 237.025 48.1208 244.26 46.5225C247.25 45.8608 250.834 44.0305 251.822 40.894C252.797 37.8048 251.182 34.8617 248.703 33.1473Z" fill="#FFEAA3"/>
<path d="M298.113 57.3111C297.525 55.6096 296.064 54.3121 294.397 53.7106C290.453 52.2841 286.452 54.8835 285.4 58.7977C284.742 61.2424 285.499 64.1812 287.918 65.4015C290.805 66.858 294.221 65.2683 296.304 63.1286C297.864 61.5346 298.891 59.5624 298.113 57.3111Z" fill="#FFEAA3"/>
<path d="M302.027 81.2129C296.463 81.0196 291.294 85.1829 291.741 91.0048V91.0048C291.749 91.1149 291.77 91.2238 291.774 91.3342C291.795 91.986 291.945 92.6518 292.269 93.3249C293.352 95.5763 295.556 97.3336 297.846 98.2316C302.946 100.242 308.652 98.339 309.507 92.5558C310.302 87.1808 308.175 81.4235 302.027 81.2129Z" fill="#FFEAA3"/>
<path d="M269.343 102.265C266.323 101.883 263.392 104.568 262.099 107.082C260.827 109.552 261.601 112.577 263.715 114.321C267.006 117.041 272.046 115.469 273.962 112.203C276.471 108.942 274.129 102.867 269.343 102.265Z" fill="#FFEAA3"/>
<path d="M302.002 123.482C299.699 119.822 295.45 119.839 292.201 122.37C289.748 124.282 288.154 127.641 289.34 130.688C290.453 133.553 293.508 135.105 296.464 135.173C302.956 135.324 305.018 128.277 302.002 123.482Z" fill="#FFEAA3"/>
<path d="M270.718 66.7973C265.352 67.0121 261.717 71.8114 258.997 75.9876C258.297 76.8856 257.786 77.9082 257.678 79.0983C257.494 81.1263 258.576 83.0125 260.475 83.7773C264.738 85.4959 270.005 80.5033 272.196 77.3668C274.083 74.6643 276.429 66.5696 270.718 66.7973Z" fill="#FFEAA3"/>
<path d="M228.299 31.4199C227.835 29.7228 225.695 29.3275 224.462 29.2459C205.755 27.9956 188.827 45.736 181.02 62.7503C179.744 65.5345 178.833 68.3316 178.322 71.0728L178.291 71.2274C177.978 72.8859 177.625 74.7678 177.497 76.4391C177.445 77.1008 177.583 77.7367 177.883 78.2308C178.004 78.4284 178.15 78.6046 178.317 78.7464C178.657 79.0386 179.03 79.1846 179.439 79.1846C179.55 79.1846 179.662 79.1717 179.778 79.1503C181.235 78.871 182.635 76.8602 183.172 75.8376C184.238 73.8054 184.994 71.6012 185.724 69.4744C186.008 68.6495 186.292 67.8246 186.592 67.0082C189.841 58.1917 194.803 51.0036 201.342 45.6458C207.263 40.795 214.584 38.0151 221.614 35.7337C221.846 35.6563 222.181 35.5704 222.576 35.4673C224.338 35.0032 227.285 34.2213 228.131 32.7604C228.368 32.3394 228.428 31.8882 228.299 31.4199Z" fill="#FFF4D1"/>
<path d="M233.695 27.3253C232.943 26.887 232.054 26.9171 231.259 27.2179C230.821 27.3854 230.451 27.6089 230.207 28.0299C229.248 29.6712 231.607 31.9054 233.236 31.5058C234.03 31.3125 234.679 30.6938 234.873 29.8946C235.126 28.8634 234.58 27.8409 233.695 27.3253Z" fill="#FFF4D1"/>
<path d="M317.018 109.286C317.026 109.161 317.035 109.035 317.043 108.909C317.081 108.298 316.431 108.066 316.223 108.642V108.642C312.67 118.283 307.205 127.241 300.201 134.765C297.185 138.004 293.92 140.96 290.508 143.749C291.054 143.302 288.884 138.107 288.579 137.368C287.673 135.173 286.534 133.072 285.194 131.104C282.56 127.241 279.148 123.903 275.208 121.385C266.963 116.113 257.416 115.177 248.209 118.244C246.177 118.922 244.298 119.792 242.559 121.011C241.854 121.505 241.05 121.852 240.196 121.968C240.118 121.978 240.04 121.989 239.962 122C238.899 122.148 237.972 122.77 237.304 123.611V123.611C237.201 123.744 237.167 123.92 237.218 124.079C237.27 124.238 237.399 124.363 237.562 124.41V124.41C239.05 124.829 240.627 124.465 241.961 123.685C244.723 122.07 247.748 120.853 250.95 120.126C262.375 117.536 275.071 122.618 281.142 132.213C286.134 140.105 286.212 150.592 281.925 158.574C281.924 158.576 281.924 158.576 281.924 158.577V158.577C281.923 158.58 281.919 158.582 281.917 158.585C281.759 158.875 281.597 159.162 281.43 159.448C281.417 159.466 281.408 159.487 281.395 159.504C281.236 159.771 281.073 160.028 280.906 160.286C280.88 160.325 280.858 160.364 280.833 160.398C280.678 160.634 280.515 160.871 280.347 161.103C280.308 161.154 280.274 161.21 280.235 161.262C280.076 161.485 279.909 161.7 279.741 161.915C279.694 161.975 279.651 162.035 279.608 162.091V162.091C279.404 162.348 279.638 162.744 279.961 162.686C282.603 162.214 285.301 162.095 287.997 162.309C288.787 162.372 289.579 162.158 290.193 161.657C305.101 149.488 314.974 131.008 316.829 111.482C316.897 110.771 316.956 110.061 317.003 109.351C317.004 109.329 317.018 109.308 317.018 109.286V109.286Z" fill="#EBCE72"/>
<path d="M89.2536 96.0313C88.9614 95.5157 88.3041 95.3353 87.7885 95.6274V95.6274C83.9452 97.8091 79.643 93.6011 81.739 89.7104L83.595 86.2652C83.8056 85.87 83.754 85.3888 83.4575 85.0493C83.1654 84.7142 82.6928 84.5939 82.2717 84.7486C76.2308 87.0085 70.4218 89.9302 65.0125 93.4362C64.5141 93.7584 64.3723 94.4244 64.6945 94.9228C65.0168 95.4212 65.6827 95.563 66.1811 95.2407V95.2407C70.677 92.3314 75.2725 97.1816 72.7321 101.896L70.8171 105.449C70.5894 105.87 70.671 106.39 71.0104 106.725C71.2167 106.927 71.4874 107.03 71.7623 107.03C71.9428 107.03 72.1276 106.983 72.2908 106.889L88.8454 97.4878C89.3653 97.2 89.5458 96.5469 89.2536 96.0313Z" fill="#F7E9BC"/>
<path d="M101.4 125.084C101.168 124.539 100.537 124.285 99.9908 124.517V124.517C97.0227 125.78 94.4067 122.41 95.7556 119.479C96.478 117.91 97.1371 116.311 97.7309 114.687C97.8683 114.309 97.7824 113.883 97.5117 113.587C97.2368 113.29 96.82 113.174 96.4333 113.282C91.445 114.682 86.6758 116.762 82.2547 119.464C81.7477 119.774 81.5887 120.435 81.8981 120.942C82.2074 121.449 82.8691 121.608 83.3761 121.299V121.299C87.6789 118.666 91.77 123.033 88.9533 127.217C88.6513 127.666 88.3432 128.111 88.0293 128.552C87.7715 128.913 87.7629 129.398 88.0078 129.768C88.2097 130.073 88.5491 130.249 88.9057 130.249C88.9831 130.249 89.0604 130.24 89.1335 130.223C93.1336 129.351 97.0692 128.092 100.837 126.489C101.379 126.262 101.632 125.63 101.4 125.084Z" fill="#F7E9BC"/>
<path d="M77.7563 70.9175C77.4899 70.389 76.8411 70.1742 76.3126 70.4406V70.4406C69.1811 74.0399 62.1863 66.8695 66.7866 60.3387C67.5568 59.2452 68.342 58.1625 69.1417 57.0912C69.4167 56.7217 69.4253 56.2147 69.1632 55.8366C68.9011 55.4585 68.4242 55.2866 67.9816 55.4155C60.5916 57.5595 53.6655 60.9065 47.3968 65.3706C46.9156 65.7144 46.7996 66.3846 47.1434 66.8701C47.4871 67.3513 48.1573 67.4674 48.6428 67.1236V67.1236C53.4722 63.6827 58.2717 69.3707 55.4732 74.5986C53.9252 77.4903 52.4733 80.432 51.122 83.4161C50.9329 83.8329 51.0274 84.3184 51.3583 84.6364C51.5645 84.834 51.8309 84.9371 52.1016 84.9371C52.2648 84.9371 52.4324 84.8985 52.5871 84.8211L77.2836 72.3568C77.8078 72.0947 78.0227 71.446 77.7563 70.9175Z" fill="#F7E9BC"/>
<path d="M113.5 94.4462C111.631 94.4462 111.626 97.3506 113.5 97.3506C115.369 97.3506 115.373 94.4462 113.5 94.4462Z" fill="#ADB9D1"/>
<path d="M119.945 58.2047C118.708 58.2047 118.708 60.1252 119.945 60.1252C121.183 60.1252 121.183 58.2047 119.945 58.2047Z" fill="#ADB9D1"/>
<path d="M163.765 27.8111C160.736 27.8111 160.732 32.5202 163.765 32.5202C166.794 32.5202 166.803 27.8111 163.765 27.8111Z" fill="#ADB9D1"/>
<path d="M119.301 31.115C118.863 31.115 118.863 31.7939 119.301 31.7939C119.739 31.7939 119.739 31.115 119.301 31.115Z" fill="#ADB9D1"/>
<path d="M16.1874 72.9199C15.6417 72.9199 15.6417 73.7663 16.1874 73.7663C16.733 73.7663 16.733 72.9199 16.1874 72.9199Z" fill="#ADB9D1"/>
<path d="M45.1894 88.7659H44.5449C43.8446 88.7659 43.1786 89.3803 43.2087 90.1021C43.243 90.8239 43.7973 91.4383 44.5449 91.4383H45.1894C45.8897 91.4383 46.5557 90.8239 46.5256 90.1021C46.4912 89.376 45.937 88.7659 45.1894 88.7659Z" fill="#ADB9D1"/>
<path d="M14.8984 147.938C12.2045 147.938 12.2002 152.127 14.8984 152.127C17.5923 152.127 17.5966 147.938 14.8984 147.938Z" fill="#ADB9D1"/>
<path d="M45.8334 166.207C43.423 166.207 43.4187 169.953 45.8334 169.953C48.2438 169.949 48.248 166.207 45.8334 166.207Z" fill="#ADB9D1"/>
<path d="M48.4111 183.153C47.9084 183.153 47.9041 183.935 48.4111 183.935C48.9138 183.935 48.9138 183.153 48.4111 183.153Z" fill="#ADB9D1"/>
<path d="M13.5621 234.591C12.677 234.591 12.677 235.966 13.5621 235.966C14.4472 235.966 14.4472 234.591 13.5621 234.591Z" fill="#ADB9D1"/>
<path d="M48.3647 245.203C45.6579 245.203 45.6536 249.409 48.3647 249.409C51.0716 249.414 51.0759 245.203 48.3647 245.203Z" fill="#ADB9D1"/>
<path d="M92.6184 249.625C91.1747 249.625 91.1747 251.867 92.6184 251.867C94.062 251.867 94.062 249.625 92.6184 249.625Z" fill="#ADB9D1"/>
<path d="M132.547 260.632C132.525 260.194 132.384 259.743 132.053 259.438C131.937 259.352 131.825 259.262 131.709 259.176C131.447 259.021 131.163 258.948 130.858 258.944C130.386 258.884 129.857 259.159 129.535 259.489C129.196 259.837 129.007 260.314 129.007 260.804C129.002 261.784 129.814 262.733 130.845 262.673C131.292 262.647 131.713 262.501 132.04 262.179C132.332 261.887 132.551 261.406 132.534 260.985C132.534 260.955 132.525 260.924 132.525 260.899C132.538 260.804 132.551 260.718 132.547 260.632Z" fill="#ADB9D1"/>
<path d="M17.8592 264.533C15.698 264.533 15.6937 267.893 17.8592 267.893C20.0204 267.893 20.0247 264.533 17.8592 264.533Z" fill="#ADB9D1"/>
<path d="M266.199 267.966C265.284 268.009 264.515 268.705 264.515 269.65V270.08C264.515 270.961 265.288 271.807 266.199 271.764C267.114 271.721 267.883 271.025 267.883 270.08V269.65C267.883 268.77 267.11 267.923 266.199 267.966Z" fill="#ADB9D1"/>
<path d="M291.979 272.474H291.549C291.313 272.474 291.313 272.843 291.549 272.843H291.979C292.215 272.843 292.215 272.474 291.979 272.474Z" fill="#ADB9D1"/>
<path d="M398.103 285.767C395.065 285.767 395.061 290.485 398.103 290.485C401.141 290.485 401.145 285.767 398.103 285.767Z" fill="#ADB9D1"/>
<path d="M396.815 252.473C394.615 252.473 394.61 255.893 396.815 255.893C399.014 255.893 399.019 252.473 396.815 252.473Z" fill="#ADB9D1"/>
<path d="M310.454 261.333C309.148 261.333 309.143 263.365 310.454 263.365C311.76 263.36 311.764 261.333 310.454 261.333Z" fill="#ADB9D1"/>
<path d="M302.046 242.398C301.904 242.256 301.758 242.11 301.616 241.968C301.238 241.59 300.675 241.358 300.142 241.358C299.631 241.358 299.021 241.586 298.668 241.968C298.303 242.364 298.033 242.888 298.058 243.442C298.084 243.996 298.269 244.516 298.668 244.916L299.098 245.345C299.476 245.723 300.039 245.955 300.572 245.955C301.083 245.955 301.693 245.728 302.046 245.345C302.411 244.95 302.681 244.426 302.656 243.872C302.63 243.317 302.445 242.798 302.046 242.398Z" fill="#ADB9D1"/>
<path d="M377.48 238.213C376.281 238.213 376.281 240.074 377.48 240.074C378.678 240.078 378.678 238.213 377.48 238.213Z" fill="#ADB9D1"/>
<path d="M348.693 210.895C347.727 210.895 347.727 212.399 348.693 212.399C349.66 212.399 349.66 210.895 348.693 210.895Z" fill="#ADB9D1"/>
<path d="M325.921 185.752H325.491C325.345 185.752 325.345 185.98 325.491 185.98H325.921C326.067 185.984 326.067 185.752 325.921 185.752Z" fill="#ADB9D1"/>
<path d="M332.039 158.696C331.653 158.344 331.18 158.121 330.647 158.121H330.218C329.715 158.121 329.182 158.34 328.826 158.696C328.486 159.036 328.228 159.599 328.25 160.088C328.271 160.595 328.439 161.124 328.826 161.481C329.212 161.833 329.685 162.056 330.218 162.056H330.647C331.15 162.056 331.683 161.837 332.039 161.481C332.379 161.141 332.637 160.578 332.615 160.088C332.589 159.582 332.422 159.053 332.039 158.696Z" fill="#ADB9D1"/>
<path d="M337.775 127.005V127.435C337.775 127.662 338.132 127.662 338.132 127.435V127.005C338.128 126.777 337.775 126.777 337.775 127.005Z" fill="#ADB9D1"/>
<path d="M369.747 189.554H369.48C367.59 189.554 367.585 192.493 369.48 192.493H369.747C371.637 192.493 371.641 189.554 369.747 189.554Z" fill="#ADB9D1"/>
<path d="M353.849 148.312C350.858 148.312 350.85 152.96 353.849 152.96C356.839 152.96 356.848 148.312 353.849 148.312Z" fill="#ADB9D1"/>
<path d="M390.799 128.604C389.536 128.604 389.536 130.567 390.799 130.567C392.062 130.563 392.062 128.604 390.799 128.604Z" fill="#ADB9D1"/>
<path d="M328.499 99.5423H328.069C327.528 99.5423 326.961 99.7786 326.574 100.161C326.209 100.526 325.934 101.128 325.955 101.656C326.007 102.799 326.883 103.77 328.069 103.77H328.499C329.04 103.77 329.607 103.534 329.994 103.151C330.359 102.786 330.634 102.185 330.613 101.656C330.561 100.513 329.685 99.5423 328.499 99.5423Z" fill="#ADB9D1"/>
<path d="M375.761 73.3029H374.902C374.008 73.3029 373.149 74.0892 373.187 75.0173C373.23 75.9453 373.939 76.7316 374.902 76.7316H375.761C376.655 76.7316 377.514 75.9453 377.475 75.0173C377.432 74.0892 376.719 73.3029 375.761 73.3029Z" fill="#ADB9D1"/>
<path d="M401.541 81.041C398.791 81.041 398.787 85.3161 401.541 85.3161C404.291 85.3204 404.295 81.041 401.541 81.041Z" fill="#ADB9D1"/>
<path d="M402.4 60.7055C401.673 60.7055 401.673 61.8312 402.4 61.8312C403.126 61.8312 403.126 60.7055 402.4 60.7055Z" fill="#ADB9D1"/>
<path d="M387.684 6.80925C387.289 6.41397 386.64 6.11751 386.073 6.13899C385.484 6.16477 384.87 6.35812 384.462 6.80925C384.054 7.2561 383.792 7.80605 383.792 8.42046V8.85012C383.792 9.43445 384.045 10.0489 384.462 10.4613C384.857 10.8566 385.506 11.1531 386.073 11.1316C386.662 11.1058 387.276 10.9125 387.684 10.4613C388.092 10.0145 388.354 9.46452 388.354 8.85012V8.42046C388.354 7.83613 388.101 7.22172 387.684 6.80925Z" fill="#ADB9D1"/>
<path d="M359.271 0.325688H359.005C355.778 0.325688 355.769 5.34405 359.005 5.34405H359.271C362.498 5.34405 362.506 0.325688 359.271 0.325688Z" fill="#ADB9D1"/>
<path d="M297.135 20.1756C294.02 20.1756 294.011 25.0178 297.135 25.0178C300.25 25.0221 300.258 20.1756 297.135 20.1756Z" fill="#ADB9D1"/>
<path d="M246.006 3.6342C244.27 3.6342 244.266 6.33243 246.006 6.33243C247.742 6.33243 247.746 3.6342 246.006 3.6342Z" fill="#ADB9D1"/>
<path d="M175.542 1.28835C172.999 1.28835 172.994 5.24117 175.542 5.24117C178.086 5.24117 178.09 1.28835 175.542 1.28835Z" fill="#ADB9D1"/>
<path d="M150.622 93.1528C149.63 93.1528 149.63 94.691 150.622 94.691C151.615 94.691 151.615 93.1528 150.622 93.1528Z" fill="#ADB9D1"/>
<path d="M85.1424 53.3581C85.1296 53.3581 85.1296 53.3752 85.1424 53.3752C85.1553 53.3752 85.1553 53.3581 85.1424 53.3581Z" fill="#515763"/>
<path d="M134.776 5.02155L134.132 4.37707C133.788 4.03334 133.161 4.00756 132.821 4.37707C132.482 4.74657 132.456 5.32231 132.821 5.68751C133.036 5.90234 133.251 6.11717 133.466 6.33199C133.809 6.67572 134.437 6.7015 134.776 6.33199C135.116 5.96249 135.146 5.38675 134.776 5.02155Z" fill="#515763"/>
<path d="M4.58658 49.5593H3.9421C3.29761 49.5593 2.68321 50.1264 2.71328 50.7881C2.74336 51.4541 3.25465 52.0169 3.9421 52.0169H4.58658C5.23106 52.0169 5.84547 51.4498 5.81539 50.7881C5.78532 50.1222 5.27832 49.5593 4.58658 49.5593Z" fill="#515763"/>
<path d="M31.6547 123.812C29.4291 123.812 29.4248 127.275 31.6547 127.275C33.8803 127.275 33.8846 123.812 31.6547 123.812Z" fill="#515763"/>
<path d="M-0.440566 210.71H-0.616724C-2.92397 210.71 -2.92826 214.298 -0.616724 214.298H-0.440566C1.87098 214.302 1.87527 210.71 -0.440566 210.71Z" fill="#515763"/>
<path d="M107.226 285.556H106.797C106.35 285.556 105.925 285.947 105.946 286.407C105.968 286.871 106.32 287.258 106.797 287.258H107.226C107.673 287.258 108.099 286.867 108.077 286.407C108.06 285.943 107.703 285.556 107.226 285.556Z" fill="#515763"/>
<path d="M337.95 279.472C337.874 279.472 337.874 279.586 337.95 279.586C338.026 279.59 338.026 279.472 337.95 279.472Z" fill="#515763"/>
<path d="M368.886 259.987C366.957 259.987 366.953 262.982 368.886 262.982C370.815 262.986 370.82 259.987 368.886 259.987Z" fill="#515763"/>
<path d="M404.548 185.318C402.73 185.318 402.73 188.14 404.548 188.14C406.365 188.136 406.365 185.318 404.548 185.318Z" fill="#515763"/>
<path d="M368.456 126.373C367.649 126.408 366.965 127.027 366.965 127.864V128.294C366.965 129.072 367.649 129.819 368.456 129.785C369.264 129.751 369.947 129.132 369.947 128.294V127.864C369.947 127.087 369.26 126.339 368.456 126.373Z" fill="#515763"/>
<path d="M327.21 57.3579C326.604 57.3579 326.604 58.2988 327.21 58.2988C327.815 58.3031 327.815 57.3579 327.21 57.3579Z" fill="#515763"/>
<path d="M406.266 16.9316C406.163 16.9316 406.163 17.0898 406.266 17.0898C406.368 17.0941 406.368 16.9316 406.266 16.9316Z" fill="#515763"/>
<path d="M260.183 16.5624C260.154 16.5624 260.154 16.6075 260.183 16.6075C260.212 16.6034 260.212 16.5624 260.183 16.5624Z" fill="#515763"/>
<path d="M229.249 13.7734C228.424 13.8121 227.728 14.4394 227.728 15.2944V15.7241C227.728 16.5189 228.428 17.2794 229.249 17.2451C230.074 17.2064 230.77 16.5791 230.77 15.7241V15.2944C230.77 14.4996 230.07 13.7391 229.249 13.7734Z" fill="#515763"/>
<path d="M154.102 58.8446C151.198 58.8446 151.194 63.356 154.102 63.356C157.003 63.356 157.011 58.8446 154.102 58.8446Z" fill="#F2E3B5"/>
<path d="M90.0922 51.6391C89.6668 51.2138 88.9751 50.8958 88.365 50.9259C87.7334 50.956 87.0803 51.1622 86.6378 51.6391C86.1995 52.116 85.9246 52.7047 85.9246 53.3663V54.0108C85.9246 54.6381 86.1952 55.2955 86.6378 55.738C87.0631 56.1634 87.7549 56.4813 88.365 56.4512C88.9966 56.4212 89.6497 56.2149 90.0922 55.738C90.5304 55.2611 90.8054 54.6725 90.8054 54.0108V53.3663C90.8054 52.739 90.5347 52.0817 90.0922 51.6391Z" fill="#F2E3B5"/>
<path d="M89.6539 18.1649C89.1426 18.1649 89.1383 18.9641 89.6539 18.9641C90.1694 18.9641 90.1694 18.1649 89.6539 18.1649Z" fill="#F2E3B5"/>
<path d="M43.2557 45.8773H42.6112C42.0655 45.8773 41.5457 46.3586 41.5714 46.9171C41.5972 47.48 42.0312 47.9612 42.6112 47.9612H43.2557C43.8013 47.9612 44.3212 47.48 44.2954 46.9171C44.2697 46.3586 43.84 45.8773 43.2557 45.8773Z" fill="#F2E3B5"/>
<path d="M0.0752293 126.73C-1.71643 126.73 -1.72073 129.515 0.0752293 129.515C1.86689 129.515 1.87119 126.73 0.0752293 126.73Z" fill="#F2E3B5"/>
<path d="M61.3013 129.763H60.6569C60.1671 129.763 59.6944 130.193 59.7202 130.7C59.7417 131.207 60.1327 131.636 60.6569 131.636H61.3013C61.7911 131.636 62.2638 131.207 62.238 130.7C62.2165 130.193 61.8255 129.763 61.3013 129.763Z" fill="#F2E3B5"/>
<path d="M54.856 204.725C53.0858 204.725 53.0815 207.475 54.856 207.475C56.6262 207.475 56.6305 204.725 54.856 204.725Z" fill="#F2E3B5"/>
<path d="M31.0101 216.395C29.3301 216.395 29.3258 219.007 31.0101 219.007C32.69 219.007 32.6943 216.395 31.0101 216.395Z" fill="#F2E3B5"/>
<path d="M2.26255 252.391C2.09498 251.88 1.77704 251.368 1.28293 251.115C0.922025 250.93 0.543931 250.784 0.131463 250.801C-0.431384 250.827 -1.02001 251.024 -1.41529 251.446C-1.85784 251.918 -2.06837 252.477 -2.08985 253.113C-2.11133 253.701 -1.84495 254.38 -1.411 254.78C-0.646212 255.48 0.376365 255.6 1.28723 255.111C1.75126 254.861 2.12935 254.333 2.26684 253.834V253.834C2.38445 253.409 2.39702 252.948 2.29767 252.518C2.28779 252.475 2.27612 252.433 2.26255 252.391Z" fill="#F2E3B5"/>
<path d="M82.307 220.889C80.9278 220.889 80.9278 223.029 82.307 223.029C83.6862 223.029 83.6862 220.889 82.307 220.889Z" fill="#F2E3B5"/>
<path d="M306.157 282.841C303.781 282.841 303.776 286.532 306.157 286.532C308.533 286.536 308.537 282.841 306.157 282.841Z" fill="#F2E3B5"/>
<path d="M338.136 283.215C337.994 283.073 337.848 282.927 337.706 282.785C337.328 282.407 336.77 282.175 336.233 282.175C335.721 282.175 335.111 282.403 334.759 282.785C334.394 283.18 334.123 283.705 334.149 284.259C334.175 284.809 334.36 285.333 334.759 285.733C334.901 285.874 335.047 286.02 335.189 286.162C335.567 286.54 336.125 286.772 336.662 286.772C337.174 286.772 337.784 286.545 338.136 286.162C338.501 285.767 338.772 285.243 338.746 284.688C338.72 284.138 338.531 283.614 338.136 283.215Z" fill="#F2E3B5"/>
<path d="M366.309 280.719C365.067 280.719 365.067 282.648 366.309 282.648C367.55 282.643 367.55 280.719 366.309 280.719Z" fill="#F2E3B5"/>
<path d="M345.255 239.639C344.826 239.656 344.461 239.987 344.461 240.434V240.863C344.461 241.28 344.826 241.675 345.255 241.658C345.685 241.641 346.05 241.31 346.05 240.863V240.434C346.05 240.017 345.685 239.622 345.255 239.639Z" fill="#F2E3B5"/>
<path d="M320.765 220.206C319.064 220.206 319.059 222.848 320.765 222.848C322.467 222.852 322.471 220.206 320.765 220.206Z" fill="#F2E3B5"/>
<path d="M409.703 226.277C408.071 226.277 408.071 228.811 409.703 228.811C411.336 228.811 411.336 226.277 409.703 226.277Z" fill="#F2E3B5"/>
<path d="M345.006 184.398C344.864 184.257 344.718 184.11 344.576 183.969C344.258 183.651 343.674 183.625 343.36 183.969C343.047 184.312 343.021 184.845 343.36 185.185L343.79 185.614C344.108 185.932 344.692 185.958 345.006 185.614C345.32 185.275 345.345 184.742 345.006 184.398Z" fill="#F2E3B5"/>
<path d="M379.198 164.183C378.386 164.183 378.381 165.446 379.198 165.446C380.01 165.446 380.014 164.183 379.198 164.183Z" fill="#F2E3B5"/>
<path d="M396.814 152.814C396.131 152.844 395.555 153.368 395.555 154.073V154.503C395.555 155.16 396.135 155.792 396.814 155.761C397.498 155.731 398.073 155.207 398.073 154.503V154.073C398.073 153.416 397.493 152.784 396.814 152.814Z" fill="#F2E3B5"/>
<path d="M344.825 84.1685C344.374 84.19 343.988 84.5337 343.988 85.0063V85.2211C343.988 85.6594 344.37 86.0761 344.825 86.059C345.277 86.0375 345.663 85.6938 345.663 85.2211V85.0063C345.663 84.5681 345.277 84.1513 344.825 84.1685Z" fill="#F2E3B5"/>
<path d="M320.336 75.0127C319.773 75.0127 319.773 75.8849 320.336 75.8849C320.899 75.8806 320.899 75.0127 320.336 75.0127Z" fill="#F2E3B5"/>
<path d="M401.11 36.9963H400.68C400.122 36.9963 399.581 37.4904 399.611 38.0661C399.636 38.6462 400.083 39.136 400.68 39.136H401.11C401.669 39.136 402.21 38.6419 402.18 38.0661C402.154 37.4861 401.712 36.9963 401.11 36.9963Z" fill="#F2E3B5"/>
<path d="M407.985 21.834C405.343 21.834 405.338 25.9415 407.985 25.9415C410.628 25.9415 410.632 21.834 407.985 21.834Z" fill="#F2E3B5"/>
<path d="M315.425 1.5716C315.313 1.46849 315.175 1.40404 315.021 1.40404H314.913C314.767 1.40404 314.613 1.46849 314.509 1.5716C314.411 1.67043 314.333 1.83369 314.342 1.97548C314.35 2.12586 314.398 2.27624 314.509 2.37936C314.621 2.48247 314.759 2.54692 314.913 2.54692H315.021C315.167 2.54692 315.321 2.48247 315.425 2.37936C315.523 2.28054 315.601 2.11727 315.592 1.97548C315.584 1.8251 315.536 1.67472 315.425 1.5716Z" fill="#F2E3B5"/>
<path d="M281.666 -2.93165C279.226 -2.93165 279.222 0.862205 281.666 0.862205C284.107 0.866501 284.111 -2.93165 281.666 -2.93165Z" fill="#F2E3B5"/>
<path d="M258.036 17.3094C255.651 17.3094 255.647 21.013 258.036 21.013C260.42 21.013 260.425 17.3094 258.036 17.3094Z" fill="#F2E3B5"/>
<path d="M204.328 17.825C203.714 17.825 203.71 18.7831 204.328 18.7831C204.943 18.7789 204.947 17.825 204.328 17.825Z" fill="#F2E3B5"/>
<path d="M154.488 99.3521C154.291 99.3521 154.291 99.6556 154.488 99.6556C154.684 99.6598 154.684 99.3521 154.488 99.3521Z" fill="#F2E3B5"/>
</g>
</svg>
