<svg width="23" height="11" viewBox="0 0 23 11" fill="none" xmlns="http://www.w3.org/2000/svg">
<path d="M18.8488 2.5915C19.5623 1.70225 19.8986 1.00165 19.8986 1.00165L18.8488 2.5915ZM18.8488 2.5915C18.1701 3.43745 17.15 4.45421 15.7533 5.20094M18.8488 2.5915L15.7533 5.20094M18.8488 2.5915L21.9982 4.15112M11.5 6.25077C9.81189 6.25077 8.40078 5.81803 7.24676 5.20094M11.5 6.25077L7.24676 5.20094M11.5 6.25077C13.1881 6.25077 14.5992 5.81803 15.7533 5.20094M11.5 6.25077L15.7533 5.20094M11.5 6.25077V9.92515M7.24676 5.20094L4.15124 8.35042M7.24676 5.20094C5.92461 4.49399 4.93991 3.54516 4.26282 2.7284M7.24676 5.20094L4.26282 2.7284M15.7533 5.20094L18.3239 8.35042M4.26282 2.7284C3.47271 1.77518 3.10142 1.00165 3.10142 1.00165L4.26282 2.7284ZM4.26282 2.7284L1.00177 4.15112" stroke="#3F414E" stroke-width="2" stroke-linecap="round" stroke-linejoin="round"/>
</svg>
