<svg width="45" height="91" viewBox="0 0 45 91" fill="none" xmlns="http://www.w3.org/2000/svg">
<path d="M21.2541 90.9982C32.9816 90.9982 42.4887 88.7822 42.4887 86.0485C42.4887 83.3149 32.9816 81.0989 21.2541 81.0989C9.52657 81.0989 0.0195314 83.3149 0.0195314 86.0485C0.0195314 88.7822 9.52657 90.9982 21.2541 90.9982Z" fill="#F4A17C"/>
<path d="M22.4786 91C34.8932 91 44.9572 88.7908 44.9572 86.0657C44.9572 83.3405 34.8932 81.1313 22.4786 81.1313C10.064 81.1313 0 83.3405 0 86.0657C0 88.7908 10.064 91 22.4786 91Z" fill="#F4A17C"/>
<path d="M12.331 82.6078C12.331 82.6078 9.18209 84.2474 8.58908 85.0967C7.99606 85.946 8.78588 86.6208 9.96932 86.703C11.1528 86.7851 16.0238 85.1609 16.464 84.9504C16.9068 84.74 16.5857 83.4648 16.2646 82.8079C15.9461 82.1485 12.331 82.6078 12.331 82.6078Z" fill="#E49621"/>
<path d="M10.0601 86.8338C10.0238 86.8338 9.99017 86.8338 9.95909 86.8312C9.17445 86.7773 8.55554 86.4669 8.3406 86.0255C8.23702 85.81 8.17487 85.461 8.48044 85.0248C9.0864 84.1601 12.1395 82.5641 12.269 82.4948C12.2819 82.4871 12.2975 82.482 12.313 82.482C12.9319 82.4025 16.0368 82.0484 16.3787 82.7514C16.5573 83.1184 16.7127 83.6187 16.7749 84.0267C16.8603 84.5937 16.7749 84.9427 16.5159 85.0659C16.0809 85.2737 11.43 86.8338 10.0601 86.8338ZM12.37 82.7309C12.0981 82.8746 9.23919 84.3885 8.69279 85.1685C8.50375 85.4379 8.4649 85.6894 8.57366 85.9126C8.74717 86.2718 9.2858 86.5259 9.97722 86.5746C11.1425 86.6593 15.9695 85.0428 16.4071 84.8349C16.5418 84.7708 16.5858 84.4834 16.5211 84.0652C16.4641 83.6803 16.3165 83.2082 16.1482 82.8618C15.9566 82.4666 13.8331 82.5487 12.37 82.7309Z" fill="#3F4553"/>
<path d="M16.6268 83.9086C15.3786 84.45 11.9345 85.91 10.7459 86.0614C9.77735 86.1846 8.88653 85.8228 8.39451 85.5636C8.31423 86.182 9.01342 86.6362 9.96898 86.7029C11.1524 86.785 16.0234 85.1608 16.4637 84.9504C16.7071 84.8323 16.7174 84.391 16.6268 83.9086Z" fill="#F1BD54"/>
<path d="M10.0598 86.8338C10.0235 86.8338 9.98985 86.8338 9.95878 86.8313C9.29584 86.7851 8.75203 86.5619 8.46718 86.218C8.30403 86.0205 8.23412 85.7895 8.2626 85.5483C8.26778 85.5073 8.29368 85.4688 8.33252 85.4508C8.36878 85.4303 8.41539 85.4303 8.45164 85.4508C8.89446 85.6843 9.7801 86.0564 10.7279 85.9358C11.9139 85.7844 15.5005 84.2577 16.5726 83.7932C16.6088 83.7778 16.6503 83.7779 16.6839 83.7984C16.7176 83.8163 16.7435 83.8497 16.7513 83.8882C16.873 84.5271 16.7927 84.9351 16.5182 85.0659C16.0805 85.2738 11.4297 86.8338 10.0598 86.8338ZM8.52674 85.7741C8.54746 85.8742 8.59407 85.9666 8.66658 86.0564C8.90223 86.3412 9.39166 86.5336 9.97431 86.5747C11.1396 86.6594 15.9666 85.0428 16.4042 84.835C16.5363 84.7709 16.5777 84.4937 16.5234 84.0935C15.0603 84.7247 11.9036 86.0435 10.759 86.1898C9.87073 86.3001 9.03689 86.0128 8.52674 85.7741Z" fill="#3F4553"/>
<path d="M27.5814 82.6078C27.5814 82.6078 30.7303 84.2474 31.3234 85.0967C31.9164 85.946 31.1266 86.6209 29.9431 86.703C28.7597 86.7851 23.8887 85.1609 23.4484 84.9505C23.0056 84.7401 23.3267 83.4648 23.6478 82.8079C23.969 82.1485 27.5814 82.6078 27.5814 82.6078Z" fill="#E49621"/>
<path d="M29.855 86.8338C28.4826 86.8338 23.8343 85.2737 23.394 85.0659C23.1377 84.9427 23.0496 84.5938 23.1351 84.0267C23.1972 83.6187 23.3526 83.1184 23.5313 82.7515C23.8731 82.0458 26.978 82.4025 27.5969 82.482C27.6125 82.4846 27.628 82.4897 27.6409 82.4949C27.7704 82.5616 30.8261 84.1576 31.4295 85.0249C31.7351 85.4611 31.6755 85.81 31.5693 86.0256C31.3544 86.4695 30.7355 86.7774 29.9509 86.8312C29.9224 86.8312 29.8887 86.8338 29.855 86.8338ZM25.2741 82.5796C24.4894 82.5796 23.8653 82.6565 23.7643 82.8618C23.596 83.2082 23.4484 83.6803 23.3914 84.0652C23.3267 84.4834 23.3707 84.7708 23.5054 84.835C23.9327 85.0402 28.5447 86.5798 29.8447 86.5798C29.8783 86.5798 29.9068 86.5798 29.9353 86.5772C30.6267 86.5285 31.1628 86.2745 31.3389 85.9152C31.4476 85.692 31.4062 85.4405 31.2197 85.1711C30.6759 84.3911 27.8144 82.8772 27.5425 82.7335C26.8434 82.6437 25.9914 82.5796 25.2741 82.5796Z" fill="#3F4553"/>
<path d="M23.2874 83.9087C24.5356 84.4501 27.9798 85.9101 29.1684 86.0615C30.1369 86.1847 31.0277 85.8229 31.5197 85.5637C31.6 86.1821 30.9008 86.6363 29.9453 86.703C28.7618 86.7851 23.8908 85.1609 23.4506 84.9505C23.2046 84.8324 23.1942 84.3911 23.2874 83.9087Z" fill="#F1BD54"/>
<path d="M29.8547 86.8338C28.4822 86.8338 23.8339 85.2737 23.3937 85.0659C23.1192 84.935 23.0389 84.5271 23.1606 83.8882C23.1684 83.8497 23.1917 83.8163 23.2279 83.7984C23.2642 83.7804 23.303 83.7778 23.3393 83.7932C24.4114 84.2577 28.0005 85.7844 29.184 85.9358C30.1317 86.0564 31.0174 85.6843 31.4602 85.4508C31.499 85.4303 31.5431 85.4303 31.5793 85.4508C31.6182 85.4713 31.6441 85.5072 31.6492 85.5483C31.6803 85.7895 31.6104 86.0204 31.4447 86.218C31.1598 86.5618 30.616 86.7851 29.9531 86.8313C29.922 86.8313 29.8883 86.8338 29.8547 86.8338ZM23.3885 84.0934C23.3315 84.4937 23.3755 84.7708 23.5076 84.835C23.9349 85.0403 28.5469 86.5772 29.8469 86.5798C29.8805 86.5798 29.909 86.5798 29.9375 86.5772C30.5202 86.5362 31.0096 86.3412 31.2453 86.0589C31.3178 85.9717 31.3644 85.8767 31.3851 85.7767C30.8775 86.0153 30.0463 86.3052 29.1503 86.1923C28.0057 86.0435 24.8516 84.7247 23.3885 84.0934Z" fill="#3F4553"/>
<path d="M13.8897 50.5005C13.8897 50.5005 11.0231 62.7912 10.6243 64.5463C10.2255 66.3014 9.93286 68.2746 10.399 69.4549C10.8651 70.6352 12.3593 82.2177 12.3593 82.2177L16.6528 83.3775C16.6528 83.3775 16.7072 75.9364 16.5648 73.0112C16.4224 70.0861 16.2566 66.3886 16.2566 66.3886L20.8195 55.1217L21.573 56.1096L24.9887 66.209L22.9792 83.1363L27.063 82.0766C27.063 82.0766 30.5718 71.31 31.1441 69.07C31.7139 66.83 31.9883 65.3238 31.5429 64.2948C31.0975 63.2659 28.2076 51.7835 28.2076 51.7835L13.8897 50.5005Z" fill="#3F4553"/>
<path d="M16.6503 83.5032C16.6399 83.5032 16.627 83.5007 16.6166 83.4981L12.3231 82.3383C12.2739 82.3255 12.235 82.2819 12.2298 82.2305C12.2143 82.1151 10.7305 70.6506 10.2773 69.4985C9.88886 68.5106 9.95878 66.8813 10.4974 64.5155C10.891 62.781 13.7344 50.5929 13.7629 50.4697C13.7784 50.4082 13.8354 50.3645 13.9001 50.3697L28.2127 51.6526C28.2671 51.6578 28.3137 51.6962 28.3267 51.7501C28.3552 51.8656 31.2193 63.2351 31.6569 64.241C32.1049 65.2725 31.8641 66.7427 31.2633 69.0982C30.6987 71.3177 27.2158 82.0048 27.1821 82.1125C27.1691 82.1536 27.1355 82.1869 27.0915 82.1972L23.0077 83.2569C22.9663 83.2672 22.9222 83.2569 22.8886 83.2287C22.8549 83.2005 22.8394 83.1594 22.8445 83.1158L24.8515 66.2193L21.4513 56.1661L20.848 55.3758L16.3861 66.4092C16.4017 66.753 16.557 70.2247 16.6943 73.0035C16.8367 75.8979 16.7823 83.3031 16.7823 83.3775C16.7823 83.4186 16.7642 83.4545 16.7305 83.4776C16.7072 83.4955 16.6787 83.5032 16.6503 83.5032ZM12.4759 82.1151L16.5234 83.2082C16.5311 82.0894 16.5648 75.6593 16.4353 73.0138C16.2929 70.0887 16.1272 66.3912 16.1272 66.3912C16.1272 66.3732 16.1298 66.3553 16.1375 66.3373L20.7004 55.0704C20.7185 55.0268 20.7573 54.996 20.804 54.9909C20.8532 54.9857 20.8972 55.0037 20.9257 55.0422L21.6792 56.0301C21.687 56.0403 21.6948 56.0532 21.6974 56.066L25.113 66.1654C25.1182 66.1834 25.1208 66.2013 25.1182 66.2219L23.1294 82.9618L26.962 81.9663C27.2598 81.0528 30.4786 71.1535 31.0173 69.0341C31.6025 66.735 31.8408 65.3033 31.4238 64.341C30.994 63.3532 28.394 53.0485 28.104 51.899L13.9933 50.634C13.7085 51.8579 11.1267 62.9247 10.7538 64.5694C10.2281 66.8839 10.153 68.4645 10.5233 69.4036C10.9687 70.548 12.3282 80.9784 12.4759 82.1151Z" fill="#3F4553"/>
<path d="M24.3539 80.5652C24.3487 80.5652 24.3435 80.5652 24.3383 80.5652C24.2684 80.5575 24.2166 80.4934 24.2244 80.4215C24.2399 80.2984 25.7186 68.0795 25.7963 67.397C25.8377 67.048 25.8481 66.9428 26.0889 66.93C26.2028 66.9249 26.4437 66.912 26.972 66.5605C27.0988 66.4758 27.1817 66.4143 27.2335 66.3732C27.1636 66.3732 27.0755 66.3758 27.0004 66.3783C26.6793 66.3886 26.2391 66.404 25.9258 66.268C25.1981 65.9524 23.2766 59.589 22.8985 58.3137C22.8778 58.247 22.9167 58.1751 22.9866 58.1546C23.0539 58.1341 23.1264 58.1726 23.1471 58.2419C24.227 61.8803 25.6047 65.8472 26.0293 66.0319C26.2909 66.1448 26.6975 66.132 26.9927 66.1217C27.3319 66.1115 27.5209 66.1038 27.5727 66.2577C27.6168 66.3912 27.5106 66.5118 27.1196 66.7735C26.5317 67.1661 26.2443 67.1815 26.1044 67.1866C26.0993 67.1866 26.0941 67.1866 26.0889 67.1866C26.0785 67.2328 26.0682 67.3226 26.0578 67.4252C25.9801 68.1103 24.4989 80.3292 24.4834 80.4523C24.4756 80.5165 24.4186 80.5652 24.3539 80.5652Z" fill="#4E5567"/>
<path d="M16.4013 77.8815C16.3366 77.8815 16.2796 77.8327 16.2719 77.7686L16.1631 76.8525C16.1553 76.7833 16.2071 76.7191 16.277 76.7114C16.347 76.7037 16.4117 76.755 16.4195 76.8243L16.5282 77.7404C16.536 77.8096 16.4842 77.8738 16.4143 77.8815C16.4117 77.8815 16.4065 77.8815 16.4013 77.8815Z" fill="#4E5567"/>
<path d="M16.1347 75.5978C16.07 75.5978 16.013 75.549 16.0052 75.4849L15.0393 67.2663C14.8684 67.2303 14.4722 67.1431 13.9517 66.9994C13.8585 66.9738 13.6617 66.9199 13.6539 66.7659C13.6435 66.594 13.8481 66.5119 14.2987 66.3323C14.6483 66.1937 15.0859 66.0192 15.4847 65.7703C15.9612 65.4753 17.0929 63.0223 18.5871 59.0425C18.613 58.9758 18.6855 58.9425 18.7528 58.9681C18.8201 58.9938 18.8538 59.0656 18.8279 59.1323C17.7403 62.0267 16.3005 65.5651 15.6194 65.9885C15.1999 66.2476 14.7338 66.4349 14.3919 66.5709C14.2443 66.6299 14.0838 66.6941 13.9828 66.7428C13.9931 66.7454 14.0035 66.748 14.0164 66.7531C14.7079 66.943 15.174 67.0328 15.1792 67.0353C15.2335 67.0456 15.2776 67.0918 15.2828 67.1457L16.259 75.4566C16.2668 75.5259 16.215 75.5901 16.1451 75.5978C16.1451 75.5978 16.1399 75.5978 16.1347 75.5978Z" fill="#4E5567"/>
<path d="M19.2033 57.8749C19.1878 57.8749 19.1748 57.8723 19.1593 57.8672C19.0919 57.8441 19.0583 57.7697 19.0816 57.703C19.2577 57.2206 19.3613 56.9255 19.3613 56.9255C19.3846 56.8588 19.4597 56.8229 19.527 56.846C19.5943 56.8691 19.6306 56.9435 19.6073 57.0102C19.6073 57.0102 19.5037 57.3053 19.3276 57.7902C19.3069 57.8415 19.2577 57.8749 19.2033 57.8749Z" fill="#4E5567"/>
<path d="M22.562 30.5017C22.562 30.5017 15.6141 29.3701 12.8148 28.8723C10.0155 28.3745 7.60975 27.905 7.60975 27.905L6.39006 31.7769C6.39006 31.7769 11.9447 33.6295 13.4078 34.0631C14.8709 34.4968 15.4484 34.7328 15.4484 34.7328C15.4484 34.7328 15.64 44.0805 15.0393 46.0921C14.4385 48.1038 13.0867 52.1477 13.0867 52.1477L20.2443 56.1197L21.6815 53.9233L21.7929 55.9991C21.7929 55.9991 24.0432 55.8682 26.0709 55.2242C28.0985 54.5801 29.326 53.8052 29.326 53.8052L27.7179 46.8054L29.9112 37.776C29.9112 37.776 40.9636 35.6001 41.0283 34.8945C41.093 34.1889 39.5082 31.6024 39.5082 31.6024L24.5327 30.6351L22.562 30.5017Z" fill="#FFF9F1"/>
<path d="M20.2449 56.2507C20.2242 56.2507 20.2009 56.2455 20.1827 56.2353L13.0251 52.2632C12.9708 52.2325 12.9449 52.1683 12.9656 52.1119C12.9785 52.0708 14.3251 48.0475 14.9181 46.0589C15.4749 44.1909 15.3402 35.767 15.3221 34.8228C15.1201 34.7458 14.5167 34.5251 13.3721 34.1864C11.9246 33.7579 6.40617 31.9182 6.35178 31.9002C6.28446 31.8771 6.2482 31.8078 6.26892 31.7411L7.48861 27.8692C7.50933 27.8076 7.57148 27.7665 7.63622 27.7819C7.65952 27.7871 10.073 28.2566 12.8387 28.7467C15.5707 29.2317 22.3399 30.335 22.5781 30.3761L24.5436 30.5121L39.5191 31.4794C39.5606 31.482 39.5994 31.5051 39.6227 31.541C39.7859 31.8104 41.2283 34.1864 41.1609 34.9126C41.1428 35.0999 41.1117 35.4463 35.4768 36.7318C32.9986 37.2963 30.497 37.7992 30.0206 37.8942L27.8531 46.8158L29.4534 53.7848C29.4664 53.8387 29.4431 53.8926 29.3965 53.9208C29.3835 53.9285 28.1302 54.7137 26.1103 55.3552C24.0904 55.9966 21.8245 56.1352 21.8012 56.1352C21.7676 56.1378 21.7339 56.1249 21.708 56.1018C21.6821 56.0788 21.6666 56.048 21.664 56.012L21.5733 54.3288L20.3537 56.1942C20.3278 56.2301 20.2863 56.2507 20.2449 56.2507ZM13.2427 52.0913L20.2009 55.953L21.5708 53.8592C21.6018 53.8131 21.6588 53.7925 21.7132 53.8054C21.7676 53.8208 21.8064 53.8669 21.809 53.9234L21.9152 55.8684C22.4227 55.8299 24.3183 55.6528 26.03 55.1088C27.734 54.5674 28.8786 53.926 29.1789 53.7489L27.5915 46.8415C27.5864 46.821 27.5864 46.803 27.5915 46.7825L29.7849 37.753C29.7979 37.7043 29.8367 37.6684 29.8859 37.6581C35.0444 36.642 40.6586 35.3231 40.9046 34.8767C40.9486 34.3609 39.8895 32.4852 39.4337 31.7334L24.5255 30.7712L22.5522 30.6352C22.547 30.6352 22.5444 30.6352 22.5393 30.6327C22.4693 30.6224 15.5603 29.4934 12.7921 29.0033C10.363 28.5722 8.20851 28.1566 7.69837 28.0591L6.55118 31.7026C7.36949 31.9746 12.1188 33.5527 13.4446 33.9478C14.8974 34.3789 15.4749 34.6124 15.4982 34.6226C15.5448 34.6432 15.5759 34.6868 15.5785 34.7381C15.5862 35.1204 15.7623 44.1293 15.1641 46.1359C14.6229 47.9448 13.4576 51.4524 13.2427 52.0913Z" fill="#3F4553"/>
<path d="M20.1303 30.0194L19.8273 34.4507L23.4967 33.0266L27.3966 36.0082L27.2723 30.1836L20.1303 30.0194Z" fill="white"/>
<path d="M27.3969 36.1365C27.3685 36.1365 27.34 36.1263 27.3167 36.1109L23.4763 33.1755L19.8742 34.5739C19.8328 34.5893 19.7862 34.5841 19.7499 34.5585C19.7137 34.5328 19.6955 34.4892 19.6981 34.4456L20.0011 30.0143C20.0063 29.945 20.071 29.8962 20.1332 29.8937L27.2726 30.0579C27.3426 30.0605 27.3969 30.1143 27.3995 30.1836L27.5238 36.0082C27.5238 36.057 27.4979 36.1032 27.4539 36.1263C27.4358 36.1314 27.4177 36.1365 27.3969 36.1365ZM23.497 32.8984C23.5255 32.8984 23.554 32.9086 23.5773 32.924L27.2623 35.7414L27.1458 30.3094L20.2523 30.1503L19.97 34.2583L23.4504 32.9086C23.466 32.9009 23.4815 32.8984 23.497 32.8984Z" fill="#3F4553"/>
<path d="M21.8242 53.6308C21.8216 53.6308 21.8164 53.6308 21.8138 53.6308C21.7413 53.6257 21.6895 53.5641 21.6947 53.4923L23.1345 36.5214C23.1397 36.4495 23.2044 36.4008 23.2743 36.4033C23.3469 36.4085 23.3986 36.4701 23.3935 36.5419L21.9537 53.5128C21.9459 53.5821 21.8889 53.6308 21.8242 53.6308Z" fill="#3F4553"/>
<path d="M29.9117 37.9068C29.8858 37.9068 29.8599 37.8991 29.8392 37.8837C29.7874 37.8478 29.7667 37.7811 29.7951 37.7221L31.5276 34.099C31.5587 34.0349 31.6363 34.0092 31.7011 34.0374C31.7658 34.0682 31.7943 34.1452 31.7632 34.2094L30.3856 37.0883L33.5293 33.7552C33.5785 33.7039 33.6588 33.7013 33.7132 33.7501C33.765 33.7988 33.7676 33.8784 33.7184 33.9322L30.0075 37.8683C29.9816 37.894 29.9453 37.9068 29.9117 37.9068Z" fill="#3F4553"/>
<path d="M15.4488 34.8637C15.4099 34.8637 15.3711 34.8458 15.3452 34.8124L12.5018 31.1124C12.4578 31.0559 12.4682 30.9764 12.5251 30.9328C12.5821 30.8891 12.6624 30.8994 12.7064 30.9558L14.9542 33.8784L14.1695 31.9848C14.1436 31.9206 14.1747 31.8436 14.2394 31.818C14.3042 31.7923 14.3819 31.8231 14.4078 31.8873L15.5653 34.6841C15.5886 34.7431 15.5653 34.8124 15.5109 34.8432C15.4928 34.856 15.4695 34.8637 15.4488 34.8637Z" fill="#3F4553"/>
<path d="M21.814 30.3787L23.2616 36.5317L25.8563 30.7251L24.5305 30.6404L22.5598 30.5044C22.5624 30.5018 22.2801 30.4557 21.814 30.3787Z" fill="white"/>
<path d="M23.2617 36.66C23.2566 36.66 23.254 36.66 23.2488 36.66C23.1944 36.6548 23.1478 36.6163 23.1348 36.5625L21.6873 30.4094C21.6769 30.3684 21.6899 30.3247 21.7184 30.2914C21.7468 30.258 21.7909 30.2452 21.8349 30.2529L22.5833 30.3761L25.8668 30.5967C25.9083 30.5993 25.9471 30.6224 25.9704 30.6583C25.9911 30.6942 25.9963 30.7378 25.9782 30.7763L23.3834 36.583C23.3601 36.6292 23.3135 36.66 23.2617 36.66ZM21.9851 30.5377L23.3006 36.1288L25.6649 30.8405L22.5522 30.6301L21.9851 30.5377Z" fill="#3F4553"/>
<path d="M21.814 30.3787L23.2616 36.5317L25.8563 30.7251L24.5305 30.6404L22.5598 30.5044C22.5624 30.5018 22.2801 30.4557 21.814 30.3787Z" fill="#C6FF00"/>
<path d="M21.814 30.3787L23.2616 36.5317L25.8563 30.7251L24.5305 30.6404L22.5598 30.5044C22.5624 30.5018 22.2801 30.4557 21.814 30.3787Z" fill="#FED9CE"/>
<path d="M43.769 33.4911C43.769 33.4911 43.8958 34.5149 43.321 34.964C42.7487 35.413 40.3274 36.1905 39.6489 35.7876C38.9705 35.3848 38.0097 33.2525 38.3852 31.7514C38.7607 30.2529 41.0292 30.8097 41.0292 30.8097C41.0292 30.8097 43.2459 31.5128 43.769 33.4911Z" fill="white"/>
<path d="M40.2156 36.0263C39.9541 36.0263 39.734 35.9878 39.5838 35.898C38.8276 35.449 37.8876 33.2141 38.2605 31.7207C38.4288 31.0484 38.9726 30.6584 39.8376 30.5891C40.4668 30.5404 41.0365 30.6764 41.0598 30.6841C41.1608 30.7149 43.3594 31.4333 43.8928 33.4553C43.8954 33.4604 43.8954 33.4655 43.8954 33.4732C43.9006 33.5168 44.0223 34.574 43.4008 35.0615C42.9502 35.4182 41.2592 36.0263 40.2156 36.0263ZM40.1198 30.838C39.4854 30.838 38.7033 31.0048 38.5091 31.7823C38.144 33.2397 39.1073 35.3156 39.7158 35.6774C40.3296 36.0417 42.6757 35.3053 43.2403 34.864C43.7245 34.4842 43.6494 33.6067 43.6416 33.5143C43.1393 31.636 41.0106 30.9407 40.9899 30.933C40.9821 30.9304 40.5911 30.838 40.1198 30.838Z" fill="#575C69"/>
<path d="M41.7176 34.5765C40.6558 34.6355 39.721 33.8812 39.4517 32.8625C38.7758 30.2863 37.1288 24.2231 36.5021 23.8074C35.7045 23.2814 35.0934 23.148 35.1037 22.6605C35.1141 22.1755 35.1555 20.2305 35.1555 20.2305C35.1555 20.2305 35.5103 19.702 35.746 20.1946C35.9816 20.6847 35.9246 21.0722 35.9246 21.0722C35.9246 21.0722 36.3157 19.9868 36.2742 19.6455C36.2328 19.3042 36.1525 18.3805 36.1577 18.1368C36.1629 17.893 36.4866 17.6826 36.9657 18.1778C37.4447 18.673 38.3796 19.7379 38.1983 20.2434C38.017 20.7489 37.6933 23.2455 37.6933 23.2455C37.6933 23.2455 43.6908 31.9696 43.5769 32.7445C43.494 33.3013 43.0098 34.5047 41.7176 34.5765Z" fill="#FED9CE"/>
<path d="M41.601 34.7073C40.5523 34.7073 39.6071 33.9607 39.3274 32.8932C37.9446 27.6203 36.8336 24.1794 36.4322 23.9126C36.2018 23.7612 35.9868 23.6431 35.7978 23.5379C35.3161 23.2711 34.9665 23.0786 34.9769 22.6578L35.0287 20.2279C35.0287 20.2048 35.0365 20.1792 35.0494 20.1586C35.0701 20.1253 35.2695 19.8379 35.5259 19.8559C35.6657 19.8661 35.7797 19.9611 35.8651 20.1381C35.9195 20.251 35.9583 20.3613 35.9894 20.4614C36.0852 20.1304 36.1629 19.7994 36.1474 19.6609C36.1059 19.3299 36.0257 18.3933 36.0309 18.1341C36.0334 17.9751 36.1318 17.8339 36.2795 17.7775C36.4089 17.7262 36.686 17.7005 37.0615 18.0905C37.6209 18.6678 38.5272 19.7199 38.3226 20.2895C38.1595 20.7385 37.8772 22.8682 37.8306 23.2172C38.8975 24.7696 43.8229 31.99 43.709 32.7675C43.6157 33.4039 43.0797 34.6304 41.7305 34.7048C41.6813 34.7073 41.6399 34.7073 41.601 34.7073ZM35.2825 20.2741L35.2333 22.663C35.2281 22.917 35.4534 23.053 35.9221 23.3147C36.1163 23.4225 36.3364 23.5431 36.5747 23.6996C37.1832 24.0999 38.5427 28.8853 39.5786 32.8291C39.8375 33.8221 40.7335 34.5021 41.7098 34.4482C42.8932 34.3815 43.3645 33.2961 43.4474 32.729C43.5251 32.2004 39.8919 26.6786 37.5846 23.3198C37.5665 23.2942 37.5587 23.2634 37.5639 23.2326C37.5768 23.13 37.8902 20.718 38.074 20.2023C38.1828 19.8969 37.7115 19.1374 36.8699 18.2676C36.6394 18.0289 36.4607 17.9802 36.3675 18.0161C36.3079 18.0392 36.2846 18.0957 36.2846 18.1393C36.2794 18.3702 36.3545 19.2734 36.3986 19.6301C36.4426 19.9919 36.0852 21.0003 36.0438 21.1157C36.0205 21.1773 35.9558 21.2132 35.891 21.1978C35.8263 21.1824 35.7848 21.1209 35.7952 21.0541C35.7952 21.0516 35.8418 20.6949 35.6295 20.2484C35.5906 20.1663 35.544 20.115 35.5052 20.1125C35.4508 20.1048 35.3446 20.1971 35.2825 20.2741Z" fill="#3F4553"/>
<path d="M37.2091 21.162C37.1961 21.162 37.1832 21.1595 37.1728 21.1569C37.1055 21.1364 37.064 21.0645 37.0873 20.9978L37.367 20.0715C37.3075 19.9381 37.1417 19.5481 37.1236 19.1914C37.1132 18.9938 37.1935 18.904 37.2609 18.863C37.4344 18.7578 37.6778 18.8912 37.7244 18.9168C37.7865 18.9528 37.8047 19.0323 37.7684 19.0913C37.7322 19.1529 37.6519 19.1734 37.5923 19.1375C37.5146 19.0913 37.4162 19.0682 37.3929 19.0811C37.3929 19.0811 37.3748 19.1016 37.38 19.1786C37.4007 19.5583 37.6182 20.0022 37.6208 20.0074C37.6363 20.0356 37.6389 20.0689 37.6286 20.0997L37.3334 21.0748C37.3152 21.1261 37.2634 21.162 37.2091 21.162Z" fill="#263238"/>
<path d="M36.7662 21.0464C36.7559 21.0464 36.7455 21.0464 36.7352 21.0439C36.6652 21.0259 36.6238 20.9566 36.6394 20.8899L36.8569 20.0098C36.7921 19.8713 36.6212 19.4325 36.7222 18.9706C36.7688 18.7628 36.8621 18.6242 37.0019 18.5626C37.1935 18.4754 37.3826 18.5755 37.4033 18.5857C37.4654 18.6191 37.4887 18.6986 37.4551 18.7602C37.4214 18.8218 37.3437 18.8449 37.279 18.8115C37.2764 18.809 37.1806 18.7628 37.1081 18.7961C37.033 18.8295 36.9941 18.9398 36.976 19.0245C36.875 19.4812 37.1055 19.9303 37.1081 19.9354C37.1236 19.9636 37.1262 19.9944 37.1184 20.0252L36.8905 20.9515C36.8776 21.0079 36.8232 21.0464 36.7662 21.0464Z" fill="#263238"/>
<path d="M36.396 21.0207C36.3883 21.0207 36.3805 21.0207 36.3727 21.0181C36.3028 21.0053 36.2562 20.9386 36.2666 20.8693L36.4763 19.6967C36.4427 19.5633 36.3028 18.9834 36.2821 18.5677C36.2717 18.3727 36.352 18.2572 36.4219 18.1931C36.6187 18.0109 36.9424 18.0468 36.9787 18.0519C37.0486 18.0622 37.1004 18.1238 37.09 18.1956C37.0823 18.2649 37.0175 18.3162 36.945 18.306C36.8777 18.2983 36.6887 18.2957 36.5954 18.3804C36.554 18.4189 36.5359 18.4753 36.5385 18.5549C36.5618 18.9911 36.7301 19.6556 36.7327 19.6608C36.7379 19.6787 36.7379 19.6967 36.7353 19.7147L36.5203 20.9129C36.5126 20.9771 36.4582 21.0207 36.396 21.0207Z" fill="#263238"/>
<path d="M25.6176 31.8233C34.4862 31.8233 41.6756 24.6996 41.6756 15.9121C41.6756 7.12456 34.4862 0.00087834 25.6176 0.00087834C16.749 0.00087834 9.55963 7.12456 9.55963 15.9121C9.55963 24.6996 16.749 31.8233 25.6176 31.8233Z" fill="#FA6E5A"/>
<path opacity="0.3" d="M14.5346 15.2655C14.8557 7.53699 20.6926 1.32749 28.1273 0.198494C27.5213 0.103555 26.905 0.0394079 26.2783 0.0137488C17.4168 -0.348044 9.93805 6.4747 9.57033 15.2527C9.2052 24.0332 16.0909 31.4435 24.9499 31.8079C26.0116 31.8515 27.05 31.7899 28.0625 31.636C20.1177 30.3992 14.1953 23.4251 14.5346 15.2655Z" fill="#AC3E2F"/>
<path d="M15.8865 17.3413C15.8865 17.3413 27.6716 15.8044 37.424 18.224C37.424 18.224 36.5099 27.9231 26.3276 27.6999C17.4998 27.5075 15.8865 17.3413 15.8865 17.3413Z" fill="#3F4553"/>
<path d="M26.8169 12.302C26.431 12.302 26.097 12.0198 26.0478 11.6298C25.8018 9.73356 24.0616 8.30435 21.9977 8.30435C20.1591 8.30435 18.5406 9.45388 18.0615 11.0961C17.9424 11.504 17.5099 11.7401 17.0982 11.6221C16.6864 11.504 16.4482 11.0781 16.5673 10.6676C17.238 8.3685 19.4702 6.76481 21.9977 6.76481C24.8384 6.76481 27.2416 8.77135 27.5886 11.4348C27.6429 11.8556 27.3426 12.243 26.9179 12.2969C26.8842 12.2995 26.8505 12.302 26.8169 12.302Z" fill="#3F4553"/>
<path d="M38.131 14.1289C37.7115 14.1289 37.3671 13.7979 37.3541 13.3796C37.3075 11.6887 35.9013 10.2774 34.0835 10.0978C32.465 9.93874 30.9345 10.806 30.3648 12.2096C30.2043 12.6047 29.7511 12.7946 29.3549 12.6381C28.9561 12.479 28.7645 12.0325 28.9224 11.6374C29.7485 9.60004 31.9315 8.33762 34.2362 8.56598C36.8284 8.82257 38.8353 10.8753 38.9053 13.336C38.9182 13.7619 38.579 14.116 38.1491 14.1263C38.1465 14.1289 38.1387 14.1289 38.131 14.1289Z" fill="#3F4553"/>
<path d="M17.4195 17.6391C17.5154 18.024 18.2275 20.1306 22.3864 20.3025C26.9648 20.4898 31.538 20.8465 33.9178 20.7746C35.3421 20.731 36.0231 19.5173 36.3416 18.5474C29.1322 16.9129 21.0191 17.3286 17.4195 17.6391Z" fill="white"/>
<path d="M29.3731 26.9225C29.3757 24.6414 26.9052 22.7118 23.7692 22.5835C22.0316 22.5117 20.4546 23.012 19.3566 23.8562C20.931 25.6447 23.2125 27.0893 26.4857 27.1611C27.5474 27.1842 28.5056 27.0944 29.3731 26.9225Z" fill="#4E5567"/>
<path d="M11.8697 82.6642L16.9997 84.2602L17.0411 82.1638L11.6626 81.0656L11.8697 82.6642Z" fill="#4E5567"/>
<path d="M17 84.3884C16.9871 84.3884 16.9741 84.3858 16.9612 84.3833L11.8312 82.7873C11.782 82.7719 11.7483 82.7308 11.7406 82.6821L11.5334 81.081C11.5282 81.0399 11.5438 80.9988 11.5748 80.9706C11.6059 80.9424 11.6473 80.9296 11.6888 80.9398L17.0673 82.038C17.1295 82.0509 17.1709 82.1047 17.1709 82.1663L17.1295 84.2627C17.1295 84.3037 17.1088 84.3396 17.0751 84.3653C17.0544 84.3807 17.0285 84.3884 17 84.3884ZM11.9866 82.5666L16.8731 84.0856L16.9094 82.2664L11.8131 81.2246L11.9866 82.5666Z" fill="#3F4553"/>
<path d="M22.407 82.9746L23.0389 84.8324L28.0911 82.795L27.7105 81.063L22.407 82.9746Z" fill="#4E5567"/>
<path d="M23.0388 84.9582C23.0207 84.9582 23.0025 84.953 22.9844 84.9453C22.9507 84.9299 22.9274 84.9043 22.9145 84.8709L22.2826 83.0158C22.2593 82.9491 22.2956 82.8772 22.3603 82.8541L27.6638 80.9425C27.7 80.9297 27.7389 80.9323 27.7699 80.9502C27.8036 80.9682 27.8269 80.999 27.8347 81.0349L28.2154 82.7669C28.2283 82.8285 28.1946 82.89 28.1377 82.9131L23.0854 84.9479C23.0725 84.9556 23.0543 84.9582 23.0388 84.9582ZM22.5701 83.0517L23.1165 84.6605L27.9409 82.7181L27.6146 81.235L22.5701 83.0517Z" fill="#3F4553"/>
<path d="M3.57609 29.3476C3.57609 29.3476 3.23167 30.3201 3.69521 30.882C4.15874 31.4439 6.35471 32.7141 7.1031 32.4626C7.85149 32.2137 9.24986 30.3303 9.20842 28.7882C9.1644 27.2435 6.8286 27.3077 6.8286 27.3077C6.8286 27.3077 4.51352 27.5258 3.57609 29.3476Z" fill="white"/>
<path d="M6.88255 32.6213C5.91405 32.6213 4.00811 31.4615 3.59378 30.9612C3.0914 30.353 3.43582 29.3472 3.45135 29.3036C3.45394 29.2984 3.45653 29.2933 3.45912 29.2882C4.41727 27.4228 6.71941 27.1893 6.81522 27.179C7.68014 27.1611 9.29863 27.4613 9.33747 28.7827C9.3815 30.3197 7.98053 32.3031 7.1441 32.5828C7.069 32.6085 6.98095 32.6213 6.88255 32.6213ZM3.69478 29.396C3.66629 29.4858 3.40474 30.3248 3.79577 30.7995C4.25154 31.3512 6.38535 32.5648 7.06382 32.3416C7.73711 32.1158 9.12254 30.294 9.0811 28.793C9.04226 27.3945 6.85665 27.4382 6.83335 27.4382C6.81781 27.4382 4.59077 27.6691 3.69478 29.396Z" fill="#3F4553"/>
<path d="M4.81078 30.6969C5.83626 30.9792 6.91093 30.4403 7.3926 29.5012C8.60711 27.1277 11.523 21.552 12.2248 21.28C13.1182 20.9336 13.7423 20.9336 13.8381 20.4564C13.9339 19.9791 14.312 18.0726 14.312 18.0726C14.312 18.0726 14.0789 17.4825 13.7448 17.9136C13.4108 18.3421 13.3823 18.7346 13.3823 18.7346C13.3823 18.7346 13.2347 17.5928 13.3486 17.267C13.4626 16.9436 13.7397 16.0558 13.7863 15.8172C13.8329 15.5786 13.5636 15.304 12.9887 15.6864C12.4138 16.0687 11.2718 16.9103 11.3391 17.444C11.409 17.9777 11.1837 20.4846 11.1837 20.4846C11.1837 20.4846 3.44349 27.7384 3.38911 28.521C3.35026 29.0778 3.56261 30.3531 4.81078 30.6969Z" fill="#FED9CE"/>
<path d="M5.36749 30.9022C5.17068 30.9022 4.97387 30.8766 4.77707 30.8227C3.47451 30.4634 3.21555 29.1548 3.25957 28.5108C3.31395 27.7256 9.68173 21.7137 11.0594 20.423C11.0905 20.0715 11.2717 17.9316 11.2096 17.4594C11.1319 16.8616 12.2454 16.0251 12.9135 15.5786C13.3667 15.2784 13.6283 15.3631 13.7448 15.4401C13.8769 15.5273 13.9416 15.6838 13.9105 15.8429C13.8613 16.0969 13.5791 16.995 13.4677 17.3106C13.4211 17.444 13.4263 17.7827 13.4496 18.1266C13.4988 18.0342 13.5609 17.9367 13.6386 17.8366C13.7577 17.6827 13.8898 17.6134 14.0296 17.6339C14.2808 17.6698 14.4155 17.9931 14.4284 18.0291C14.4362 18.0521 14.4388 18.0752 14.4336 18.1009L13.9649 20.4795C13.882 20.8926 13.5014 21.0055 12.9731 21.1646C12.7659 21.2262 12.5303 21.298 12.2713 21.3981C11.8207 21.5726 9.99507 24.7004 7.50908 29.5577C7.08179 30.3942 6.23759 30.9022 5.36749 30.9022ZM4.84698 30.5738C5.787 30.8329 6.80989 30.3582 7.2786 29.4422C9.13792 25.8089 11.497 21.4212 12.1781 21.1595C12.4448 21.0568 12.6856 20.985 12.898 20.9208C13.4133 20.7669 13.6619 20.6822 13.7111 20.4307L14.1772 18.0855C14.1358 17.9983 14.0581 17.8905 13.996 17.8828C13.9545 17.8751 13.9028 17.9162 13.8458 17.988C13.5402 18.378 13.5091 18.7372 13.5091 18.7398C13.504 18.8065 13.4496 18.8578 13.3822 18.8578C13.3071 18.8604 13.2579 18.8117 13.2502 18.7449C13.2346 18.6243 13.1026 17.5621 13.2243 17.2182C13.3434 16.8795 13.6127 16.0123 13.6567 15.7865C13.6645 15.7428 13.6567 15.6838 13.6024 15.6479C13.5195 15.594 13.3356 15.6017 13.0585 15.7865C12.0486 16.4587 11.4245 17.1002 11.466 17.4209C11.5359 17.9623 11.3209 20.3846 11.3132 20.4898C11.3106 20.5206 11.295 20.5513 11.2743 20.5719C8.29631 23.3636 3.55737 27.9925 3.52112 28.5236C3.4771 29.0984 3.70498 30.2607 4.84698 30.5738Z" fill="#3F4553"/>
<path d="M12.3828 18.6833C12.3802 18.6833 12.3776 18.6833 12.3776 18.6833C12.3051 18.6808 12.2507 18.6192 12.2559 18.5499C12.2559 18.5422 12.2896 17.8443 12.2715 17.503C12.2507 17.1335 12.8049 15.789 12.8696 15.6376C12.8955 15.5709 12.9732 15.5401 13.038 15.5683C13.1027 15.594 13.1364 15.671 13.1079 15.7351C12.8774 16.2893 12.5175 17.2541 12.5304 17.4902C12.5485 17.8443 12.5149 18.5345 12.5149 18.5627C12.5097 18.6294 12.4527 18.6833 12.3828 18.6833Z" fill="#263238"/>
<path d="M11.9526 18.5396L11.6937 18.5345C11.6937 18.5345 11.7118 17.7852 11.7248 17.5055C11.7377 17.2207 12.0251 16.3381 12.0562 16.2406C12.0769 16.1738 12.152 16.1353 12.2194 16.1584C12.2867 16.179 12.3255 16.2534 12.3022 16.3201C12.2168 16.5818 11.9915 17.3054 11.9811 17.5184C11.9708 17.7955 11.9526 18.5396 11.9526 18.5396Z" fill="#263238"/>
</svg>
