<svg width="28" height="26" viewBox="0 0 28 26" fill="none" xmlns="http://www.w3.org/2000/svg">
<mask id="path-1-outside-1_1006_7585" maskUnits="userSpaceOnUse" x="-0.809518" y="-0.809471" width="29.3432" height="27.3196" fill="black">
<rect fill="white" x="-0.809518" y="-0.809471" width="29.3432" height="27.3196"/>
<path d="M25.1366 11.1344C24.2325 7.61558 21.6978 4.69043 18.2775 3.32349C17.6867 1.47848 15.9495 0.202364 14 0.202364C12.0007 0.202364 10.3029 1.51594 9.7228 3.32516C7.66291 4.15022 5.89891 5.54205 4.60835 7.36545C3.79305 8.51744 3.20525 9.79092 2.86106 11.1346C1.37657 11.2454 0.202318 12.4878 0.202318 14.0001C0.202318 15.5133 1.37776 16.7563 2.86343 16.8659C4.14009 21.824 8.64896 25.4982 14 25.4982C19.351 25.4982 23.8598 21.824 25.1364 16.8659C26.6221 16.7563 27.7976 15.5133 27.7976 14C27.7976 12.487 26.6222 11.2441 25.1366 11.1344ZM1.35221 14C1.35221 13.2067 1.8908 12.5368 2.62143 12.3365C2.57206 12.6787 2.53768 13.0242 2.51903 13.3723C2.51871 13.3771 2.51854 13.3819 2.51827 13.3867C2.51493 13.4501 2.51197 13.5135 2.5097 13.5771C2.50879 13.6012 2.5083 13.6253 2.50766 13.6494C2.50626 13.695 2.5048 13.7405 2.50394 13.7861C2.5027 13.8575 2.50194 13.9288 2.50194 14.0001C2.50194 14.0871 2.50329 14.1741 2.50534 14.2612C2.50593 14.2885 2.50669 14.3156 2.50755 14.3428C2.50938 14.4061 2.51186 14.4695 2.51477 14.5327C2.51596 14.5596 2.51703 14.5865 2.51838 14.6134C2.52259 14.6924 2.52765 14.7713 2.53342 14.8502C2.53617 14.8873 2.5394 14.9241 2.54242 14.9611C2.54635 15.0079 2.55045 15.0547 2.55492 15.1015C2.55886 15.1426 2.5629 15.1839 2.56727 15.2249C2.57233 15.273 2.5781 15.321 2.58376 15.3689C2.59125 15.4318 2.59928 15.4945 2.60774 15.5569C2.61259 15.5927 2.61707 15.6285 2.62224 15.664C1.89118 15.464 1.35221 14.7938 1.35221 14ZM14 1.35226C15.1387 1.35226 16.1802 1.93704 16.788 2.85237C16.7766 2.85227 16.7651 2.85221 16.7536 2.85221C16.7462 2.85221 16.739 2.85275 16.7315 2.85281C16.7287 2.85291 16.7258 2.85286 16.7228 2.85302C14.9328 2.86968 13.4816 4.33039 13.4816 6.12425C13.4816 6.82232 13.7009 7.48601 14.095 8.03361C14.0633 8.03447 14.0316 8.03496 14 8.03496C12.1577 8.03496 10.6588 6.53608 10.6588 4.69371C10.6587 2.85119 12.1576 1.35226 14 1.35226ZM24.3445 14.2725C24.3442 14.2865 24.3433 14.3004 24.3429 14.3144C24.3405 14.3914 24.3377 14.4685 24.3337 14.5455C24.333 14.5592 24.3319 14.573 24.3311 14.5867C24.3267 14.6636 24.3219 14.7406 24.3159 14.8175C24.3147 14.833 24.313 14.8484 24.3117 14.8639C24.3056 14.9382 24.2988 15.0124 24.2911 15.0865C24.289 15.1072 24.2863 15.1277 24.2841 15.1483C24.2765 15.2162 24.2686 15.284 24.2598 15.3518C24.2561 15.3801 24.2519 15.4083 24.2479 15.4365C24.2398 15.4951 24.2315 15.5536 24.2223 15.612C24.2163 15.65 24.2098 15.6877 24.2034 15.7256C24.1955 15.7729 24.1876 15.8201 24.179 15.8672C24.1702 15.9151 24.1609 15.9628 24.1515 16.0104C24.1445 16.0461 24.1375 16.0818 24.13 16.1174C23.1502 20.8114 18.9804 24.3484 13.9999 24.3484C9.01573 24.3484 4.84345 20.8063 3.86759 16.1073C3.85875 16.0647 3.85061 16.0219 3.84236 15.9791C3.83439 15.9382 3.82625 15.8974 3.81881 15.8563C3.80825 15.7982 3.7986 15.7399 3.789 15.6815C3.78464 15.6548 3.77984 15.628 3.77569 15.6012C3.76427 15.5273 3.75381 15.4534 3.74389 15.3793C3.74222 15.3667 3.74017 15.3542 3.73861 15.3417C3.72729 15.2544 3.71694 15.1669 3.70784 15.0794C3.70784 15.079 3.70773 15.0785 3.70773 15.0781C3.67049 14.7202 3.65168 14.3602 3.65168 14.0002C3.65168 13.919 3.65302 13.8377 3.65496 13.7565C3.65566 13.7298 3.65647 13.7032 3.65733 13.6766C3.65901 13.6219 3.66127 13.5673 3.66386 13.5126C3.66531 13.4808 3.66671 13.449 3.66849 13.4172C3.67124 13.3688 3.67469 13.3204 3.67808 13.2721C3.68407 13.1885 3.6908 13.1052 3.69873 13.022C3.69964 13.0125 3.7004 13.0029 3.70131 12.9934C4.05466 9.4152 6.27075 6.23981 9.50932 4.6756C9.50932 4.68169 9.50888 4.68768 9.50888 4.69377C9.50888 5.10533 9.56558 5.50362 9.66977 5.88252C8.63785 6.432 7.73168 7.16414 6.97211 8.06427C6.7673 8.30697 6.79808 8.6697 7.04078 8.8744C7.14868 8.96549 7.28029 9.0099 7.41126 9.0099C7.57479 9.0099 7.73723 8.94048 7.8509 8.80574C8.49255 8.04536 9.25363 7.4222 10.1178 6.94747C10.8967 8.28396 12.3447 9.18485 14 9.18485C14.5076 9.18485 15.0064 9.10045 15.4822 8.93407C15.6894 8.86157 15.8373 8.67741 15.8633 8.45934C15.8893 8.24133 15.7888 8.02752 15.6043 7.90846C14.9952 7.51496 14.6315 6.84803 14.6315 6.12436C14.6315 4.97791 15.5454 4.04156 16.683 4.00399C20.5018 5.02572 23.3419 8.11354 24.1287 11.877C24.1417 11.9392 24.1544 12.0016 24.1662 12.0641C24.1723 12.0967 24.178 12.1296 24.184 12.1624C24.1931 12.2135 24.2021 12.2648 24.2105 12.3161C24.2156 12.3468 24.2204 12.3776 24.2252 12.4084C24.2341 12.4662 24.2426 12.5239 24.2505 12.5818C24.2538 12.6059 24.2573 12.63 24.2605 12.6541C24.2823 12.8222 24.3002 12.9909 24.3139 13.1599C24.3155 13.1793 24.3167 13.1988 24.3182 13.2182C24.3231 13.2832 24.3274 13.3483 24.3311 13.4135C24.3325 13.4387 24.3339 13.4641 24.3351 13.4894C24.3382 13.5514 24.3405 13.6135 24.3425 13.6754C24.3433 13.6994 24.3442 13.7234 24.3448 13.7473C24.3469 13.8316 24.3481 13.9159 24.3481 14.0001C24.3481 14.0909 24.3469 14.1818 24.3445 14.2725ZM25.3777 15.664C25.384 15.6206 25.3897 15.5769 25.3955 15.5333C25.4017 15.4873 25.4076 15.4412 25.4133 15.3949C25.4203 15.3369 25.4271 15.2788 25.4333 15.2207C25.4373 15.1827 25.441 15.1445 25.4446 15.1063C25.4494 15.0562 25.4538 15.0062 25.458 14.9561C25.4609 14.9214 25.4639 14.8868 25.4665 14.852C25.4724 14.7721 25.4775 14.6923 25.4817 14.6123C25.4832 14.5866 25.484 14.5608 25.4853 14.5349C25.4882 14.4706 25.4907 14.4064 25.4925 14.342C25.4933 14.3153 25.4941 14.2884 25.4948 14.2616C25.4967 14.1744 25.4981 14.0873 25.4981 14C25.4981 13.9242 25.4972 13.8483 25.4957 13.7725C25.4951 13.745 25.4942 13.7175 25.4935 13.6899C25.4922 13.6424 25.4908 13.5948 25.489 13.5471C25.4876 13.5133 25.4859 13.4794 25.4844 13.4456C25.4824 13.4047 25.4804 13.3638 25.4779 13.323C25.4758 13.2862 25.4735 13.2495 25.4709 13.2129C25.4683 13.1752 25.4655 13.1376 25.4626 13.0999C25.4596 13.0617 25.4566 13.0234 25.4533 12.9853C25.45 12.9484 25.4464 12.9117 25.4427 12.8749C25.4391 12.837 25.4355 12.7991 25.4315 12.7612C25.4269 12.7184 25.4217 12.6758 25.4165 12.6331C25.4109 12.5856 25.4051 12.5382 25.3989 12.4909C25.392 12.4393 25.3853 12.3876 25.3778 12.3362C26.109 12.5361 26.6478 13.2063 26.6478 13.9999C26.6477 14.7939 26.1089 15.464 25.3777 15.664Z"/>
</mask>
<path d="M25.1366 11.1344C24.2325 7.61558 21.6978 4.69043 18.2775 3.32349C17.6867 1.47848 15.9495 0.202364 14 0.202364C12.0007 0.202364 10.3029 1.51594 9.7228 3.32516C7.66291 4.15022 5.89891 5.54205 4.60835 7.36545C3.79305 8.51744 3.20525 9.79092 2.86106 11.1346C1.37657 11.2454 0.202318 12.4878 0.202318 14.0001C0.202318 15.5133 1.37776 16.7563 2.86343 16.8659C4.14009 21.824 8.64896 25.4982 14 25.4982C19.351 25.4982 23.8598 21.824 25.1364 16.8659C26.6221 16.7563 27.7976 15.5133 27.7976 14C27.7976 12.487 26.6222 11.2441 25.1366 11.1344ZM1.35221 14C1.35221 13.2067 1.8908 12.5368 2.62143 12.3365C2.57206 12.6787 2.53768 13.0242 2.51903 13.3723C2.51871 13.3771 2.51854 13.3819 2.51827 13.3867C2.51493 13.4501 2.51197 13.5135 2.5097 13.5771C2.50879 13.6012 2.5083 13.6253 2.50766 13.6494C2.50626 13.695 2.5048 13.7405 2.50394 13.7861C2.5027 13.8575 2.50194 13.9288 2.50194 14.0001C2.50194 14.0871 2.50329 14.1741 2.50534 14.2612C2.50593 14.2885 2.50669 14.3156 2.50755 14.3428C2.50938 14.4061 2.51186 14.4695 2.51477 14.5327C2.51596 14.5596 2.51703 14.5865 2.51838 14.6134C2.52259 14.6924 2.52765 14.7713 2.53342 14.8502C2.53617 14.8873 2.5394 14.9241 2.54242 14.9611C2.54635 15.0079 2.55045 15.0547 2.55492 15.1015C2.55886 15.1426 2.5629 15.1839 2.56727 15.2249C2.57233 15.273 2.5781 15.321 2.58376 15.3689C2.59125 15.4318 2.59928 15.4945 2.60774 15.5569C2.61259 15.5927 2.61707 15.6285 2.62224 15.664C1.89118 15.464 1.35221 14.7938 1.35221 14ZM14 1.35226C15.1387 1.35226 16.1802 1.93704 16.788 2.85237C16.7766 2.85227 16.7651 2.85221 16.7536 2.85221C16.7462 2.85221 16.739 2.85275 16.7315 2.85281C16.7287 2.85291 16.7258 2.85286 16.7228 2.85302C14.9328 2.86968 13.4816 4.33039 13.4816 6.12425C13.4816 6.82232 13.7009 7.48601 14.095 8.03361C14.0633 8.03447 14.0316 8.03496 14 8.03496C12.1577 8.03496 10.6588 6.53608 10.6588 4.69371C10.6587 2.85119 12.1576 1.35226 14 1.35226ZM24.3445 14.2725C24.3442 14.2865 24.3433 14.3004 24.3429 14.3144C24.3405 14.3914 24.3377 14.4685 24.3337 14.5455C24.333 14.5592 24.3319 14.573 24.3311 14.5867C24.3267 14.6636 24.3219 14.7406 24.3159 14.8175C24.3147 14.833 24.313 14.8484 24.3117 14.8639C24.3056 14.9382 24.2988 15.0124 24.2911 15.0865C24.289 15.1072 24.2863 15.1277 24.2841 15.1483C24.2765 15.2162 24.2686 15.284 24.2598 15.3518C24.2561 15.3801 24.2519 15.4083 24.2479 15.4365C24.2398 15.4951 24.2315 15.5536 24.2223 15.612C24.2163 15.65 24.2098 15.6877 24.2034 15.7256C24.1955 15.7729 24.1876 15.8201 24.179 15.8672C24.1702 15.9151 24.1609 15.9628 24.1515 16.0104C24.1445 16.0461 24.1375 16.0818 24.13 16.1174C23.1502 20.8114 18.9804 24.3484 13.9999 24.3484C9.01573 24.3484 4.84345 20.8063 3.86759 16.1073C3.85875 16.0647 3.85061 16.0219 3.84236 15.9791C3.83439 15.9382 3.82625 15.8974 3.81881 15.8563C3.80825 15.7982 3.7986 15.7399 3.789 15.6815C3.78464 15.6548 3.77984 15.628 3.77569 15.6012C3.76427 15.5273 3.75381 15.4534 3.74389 15.3793C3.74222 15.3667 3.74017 15.3542 3.73861 15.3417C3.72729 15.2544 3.71694 15.1669 3.70784 15.0794C3.70784 15.079 3.70773 15.0785 3.70773 15.0781C3.67049 14.7202 3.65168 14.3602 3.65168 14.0002C3.65168 13.919 3.65302 13.8377 3.65496 13.7565C3.65566 13.7298 3.65647 13.7032 3.65733 13.6766C3.65901 13.6219 3.66127 13.5673 3.66386 13.5126C3.66531 13.4808 3.66671 13.449 3.66849 13.4172C3.67124 13.3688 3.67469 13.3204 3.67808 13.2721C3.68407 13.1885 3.6908 13.1052 3.69873 13.022C3.69964 13.0125 3.7004 13.0029 3.70131 12.9934C4.05466 9.4152 6.27075 6.23981 9.50932 4.6756C9.50932 4.68169 9.50888 4.68768 9.50888 4.69377C9.50888 5.10533 9.56558 5.50362 9.66977 5.88252C8.63785 6.432 7.73168 7.16414 6.97211 8.06427C6.7673 8.30697 6.79808 8.6697 7.04078 8.8744C7.14868 8.96549 7.28029 9.0099 7.41126 9.0099C7.57479 9.0099 7.73723 8.94048 7.8509 8.80574C8.49255 8.04536 9.25363 7.4222 10.1178 6.94747C10.8967 8.28396 12.3447 9.18485 14 9.18485C14.5076 9.18485 15.0064 9.10045 15.4822 8.93407C15.6894 8.86157 15.8373 8.67741 15.8633 8.45934C15.8893 8.24133 15.7888 8.02752 15.6043 7.90846C14.9952 7.51496 14.6315 6.84803 14.6315 6.12436C14.6315 4.97791 15.5454 4.04156 16.683 4.00399C20.5018 5.02572 23.3419 8.11354 24.1287 11.877C24.1417 11.9392 24.1544 12.0016 24.1662 12.0641C24.1723 12.0967 24.178 12.1296 24.184 12.1624C24.1931 12.2135 24.2021 12.2648 24.2105 12.3161C24.2156 12.3468 24.2204 12.3776 24.2252 12.4084C24.2341 12.4662 24.2426 12.5239 24.2505 12.5818C24.2538 12.6059 24.2573 12.63 24.2605 12.6541C24.2823 12.8222 24.3002 12.9909 24.3139 13.1599C24.3155 13.1793 24.3167 13.1988 24.3182 13.2182C24.3231 13.2832 24.3274 13.3483 24.3311 13.4135C24.3325 13.4387 24.3339 13.4641 24.3351 13.4894C24.3382 13.5514 24.3405 13.6135 24.3425 13.6754C24.3433 13.6994 24.3442 13.7234 24.3448 13.7473C24.3469 13.8316 24.3481 13.9159 24.3481 14.0001C24.3481 14.0909 24.3469 14.1818 24.3445 14.2725ZM25.3777 15.664C25.384 15.6206 25.3897 15.5769 25.3955 15.5333C25.4017 15.4873 25.4076 15.4412 25.4133 15.3949C25.4203 15.3369 25.4271 15.2788 25.4333 15.2207C25.4373 15.1827 25.441 15.1445 25.4446 15.1063C25.4494 15.0562 25.4538 15.0062 25.458 14.9561C25.4609 14.9214 25.4639 14.8868 25.4665 14.852C25.4724 14.7721 25.4775 14.6923 25.4817 14.6123C25.4832 14.5866 25.484 14.5608 25.4853 14.5349C25.4882 14.4706 25.4907 14.4064 25.4925 14.342C25.4933 14.3153 25.4941 14.2884 25.4948 14.2616C25.4967 14.1744 25.4981 14.0873 25.4981 14C25.4981 13.9242 25.4972 13.8483 25.4957 13.7725C25.4951 13.745 25.4942 13.7175 25.4935 13.6899C25.4922 13.6424 25.4908 13.5948 25.489 13.5471C25.4876 13.5133 25.4859 13.4794 25.4844 13.4456C25.4824 13.4047 25.4804 13.3638 25.4779 13.323C25.4758 13.2862 25.4735 13.2495 25.4709 13.2129C25.4683 13.1752 25.4655 13.1376 25.4626 13.0999C25.4596 13.0617 25.4566 13.0234 25.4533 12.9853C25.45 12.9484 25.4464 12.9117 25.4427 12.8749C25.4391 12.837 25.4355 12.7991 25.4315 12.7612C25.4269 12.7184 25.4217 12.6758 25.4165 12.6331C25.4109 12.5856 25.4051 12.5382 25.3989 12.4909C25.392 12.4393 25.3853 12.3876 25.3778 12.3362C26.109 12.5361 26.6478 13.2063 26.6478 13.9999C26.6477 14.7939 26.1089 15.464 25.3777 15.664Z" fill="white"/>
<path d="M25.1366 11.1344C24.2325 7.61558 21.6978 4.69043 18.2775 3.32349C17.6867 1.47848 15.9495 0.202364 14 0.202364C12.0007 0.202364 10.3029 1.51594 9.7228 3.32516C7.66291 4.15022 5.89891 5.54205 4.60835 7.36545C3.79305 8.51744 3.20525 9.79092 2.86106 11.1346C1.37657 11.2454 0.202318 12.4878 0.202318 14.0001C0.202318 15.5133 1.37776 16.7563 2.86343 16.8659C4.14009 21.824 8.64896 25.4982 14 25.4982C19.351 25.4982 23.8598 21.824 25.1364 16.8659C26.6221 16.7563 27.7976 15.5133 27.7976 14C27.7976 12.487 26.6222 11.2441 25.1366 11.1344ZM1.35221 14C1.35221 13.2067 1.8908 12.5368 2.62143 12.3365C2.57206 12.6787 2.53768 13.0242 2.51903 13.3723C2.51871 13.3771 2.51854 13.3819 2.51827 13.3867C2.51493 13.4501 2.51197 13.5135 2.5097 13.5771C2.50879 13.6012 2.5083 13.6253 2.50766 13.6494C2.50626 13.695 2.5048 13.7405 2.50394 13.7861C2.5027 13.8575 2.50194 13.9288 2.50194 14.0001C2.50194 14.0871 2.50329 14.1741 2.50534 14.2612C2.50593 14.2885 2.50669 14.3156 2.50755 14.3428C2.50938 14.4061 2.51186 14.4695 2.51477 14.5327C2.51596 14.5596 2.51703 14.5865 2.51838 14.6134C2.52259 14.6924 2.52765 14.7713 2.53342 14.8502C2.53617 14.8873 2.5394 14.9241 2.54242 14.9611C2.54635 15.0079 2.55045 15.0547 2.55492 15.1015C2.55886 15.1426 2.5629 15.1839 2.56727 15.2249C2.57233 15.273 2.5781 15.321 2.58376 15.3689C2.59125 15.4318 2.59928 15.4945 2.60774 15.5569C2.61259 15.5927 2.61707 15.6285 2.62224 15.664C1.89118 15.464 1.35221 14.7938 1.35221 14ZM14 1.35226C15.1387 1.35226 16.1802 1.93704 16.788 2.85237C16.7766 2.85227 16.7651 2.85221 16.7536 2.85221C16.7462 2.85221 16.739 2.85275 16.7315 2.85281C16.7287 2.85291 16.7258 2.85286 16.7228 2.85302C14.9328 2.86968 13.4816 4.33039 13.4816 6.12425C13.4816 6.82232 13.7009 7.48601 14.095 8.03361C14.0633 8.03447 14.0316 8.03496 14 8.03496C12.1577 8.03496 10.6588 6.53608 10.6588 4.69371C10.6587 2.85119 12.1576 1.35226 14 1.35226ZM24.3445 14.2725C24.3442 14.2865 24.3433 14.3004 24.3429 14.3144C24.3405 14.3914 24.3377 14.4685 24.3337 14.5455C24.333 14.5592 24.3319 14.573 24.3311 14.5867C24.3267 14.6636 24.3219 14.7406 24.3159 14.8175C24.3147 14.833 24.313 14.8484 24.3117 14.8639C24.3056 14.9382 24.2988 15.0124 24.2911 15.0865C24.289 15.1072 24.2863 15.1277 24.2841 15.1483C24.2765 15.2162 24.2686 15.284 24.2598 15.3518C24.2561 15.3801 24.2519 15.4083 24.2479 15.4365C24.2398 15.4951 24.2315 15.5536 24.2223 15.612C24.2163 15.65 24.2098 15.6877 24.2034 15.7256C24.1955 15.7729 24.1876 15.8201 24.179 15.8672C24.1702 15.9151 24.1609 15.9628 24.1515 16.0104C24.1445 16.0461 24.1375 16.0818 24.13 16.1174C23.1502 20.8114 18.9804 24.3484 13.9999 24.3484C9.01573 24.3484 4.84345 20.8063 3.86759 16.1073C3.85875 16.0647 3.85061 16.0219 3.84236 15.9791C3.83439 15.9382 3.82625 15.8974 3.81881 15.8563C3.80825 15.7982 3.7986 15.7399 3.789 15.6815C3.78464 15.6548 3.77984 15.628 3.77569 15.6012C3.76427 15.5273 3.75381 15.4534 3.74389 15.3793C3.74222 15.3667 3.74017 15.3542 3.73861 15.3417C3.72729 15.2544 3.71694 15.1669 3.70784 15.0794C3.70784 15.079 3.70773 15.0785 3.70773 15.0781C3.67049 14.7202 3.65168 14.3602 3.65168 14.0002C3.65168 13.919 3.65302 13.8377 3.65496 13.7565C3.65566 13.7298 3.65647 13.7032 3.65733 13.6766C3.65901 13.6219 3.66127 13.5673 3.66386 13.5126C3.66531 13.4808 3.66671 13.449 3.66849 13.4172C3.67124 13.3688 3.67469 13.3204 3.67808 13.2721C3.68407 13.1885 3.6908 13.1052 3.69873 13.022C3.69964 13.0125 3.7004 13.0029 3.70131 12.9934C4.05466 9.4152 6.27075 6.23981 9.50932 4.6756C9.50932 4.68169 9.50888 4.68768 9.50888 4.69377C9.50888 5.10533 9.56558 5.50362 9.66977 5.88252C8.63785 6.432 7.73168 7.16414 6.97211 8.06427C6.7673 8.30697 6.79808 8.6697 7.04078 8.8744C7.14868 8.96549 7.28029 9.0099 7.41126 9.0099C7.57479 9.0099 7.73723 8.94048 7.8509 8.80574C8.49255 8.04536 9.25363 7.4222 10.1178 6.94747C10.8967 8.28396 12.3447 9.18485 14 9.18485C14.5076 9.18485 15.0064 9.10045 15.4822 8.93407C15.6894 8.86157 15.8373 8.67741 15.8633 8.45934C15.8893 8.24133 15.7888 8.02752 15.6043 7.90846C14.9952 7.51496 14.6315 6.84803 14.6315 6.12436C14.6315 4.97791 15.5454 4.04156 16.683 4.00399C20.5018 5.02572 23.3419 8.11354 24.1287 11.877C24.1417 11.9392 24.1544 12.0016 24.1662 12.0641C24.1723 12.0967 24.178 12.1296 24.184 12.1624C24.1931 12.2135 24.2021 12.2648 24.2105 12.3161C24.2156 12.3468 24.2204 12.3776 24.2252 12.4084C24.2341 12.4662 24.2426 12.5239 24.2505 12.5818C24.2538 12.6059 24.2573 12.63 24.2605 12.6541C24.2823 12.8222 24.3002 12.9909 24.3139 13.1599C24.3155 13.1793 24.3167 13.1988 24.3182 13.2182C24.3231 13.2832 24.3274 13.3483 24.3311 13.4135C24.3325 13.4387 24.3339 13.4641 24.3351 13.4894C24.3382 13.5514 24.3405 13.6135 24.3425 13.6754C24.3433 13.6994 24.3442 13.7234 24.3448 13.7473C24.3469 13.8316 24.3481 13.9159 24.3481 14.0001C24.3481 14.0909 24.3469 14.1818 24.3445 14.2725ZM25.3777 15.664C25.384 15.6206 25.3897 15.5769 25.3955 15.5333C25.4017 15.4873 25.4076 15.4412 25.4133 15.3949C25.4203 15.3369 25.4271 15.2788 25.4333 15.2207C25.4373 15.1827 25.441 15.1445 25.4446 15.1063C25.4494 15.0562 25.4538 15.0062 25.458 14.9561C25.4609 14.9214 25.4639 14.8868 25.4665 14.852C25.4724 14.7721 25.4775 14.6923 25.4817 14.6123C25.4832 14.5866 25.484 14.5608 25.4853 14.5349C25.4882 14.4706 25.4907 14.4064 25.4925 14.342C25.4933 14.3153 25.4941 14.2884 25.4948 14.2616C25.4967 14.1744 25.4981 14.0873 25.4981 14C25.4981 13.9242 25.4972 13.8483 25.4957 13.7725C25.4951 13.745 25.4942 13.7175 25.4935 13.6899C25.4922 13.6424 25.4908 13.5948 25.489 13.5471C25.4876 13.5133 25.4859 13.4794 25.4844 13.4456C25.4824 13.4047 25.4804 13.3638 25.4779 13.323C25.4758 13.2862 25.4735 13.2495 25.4709 13.2129C25.4683 13.1752 25.4655 13.1376 25.4626 13.0999C25.4596 13.0617 25.4566 13.0234 25.4533 12.9853C25.45 12.9484 25.4464 12.9117 25.4427 12.8749C25.4391 12.837 25.4355 12.7991 25.4315 12.7612C25.4269 12.7184 25.4217 12.6758 25.4165 12.6331C25.4109 12.5856 25.4051 12.5382 25.3989 12.4909C25.392 12.4393 25.3853 12.3876 25.3778 12.3362C26.109 12.5361 26.6478 13.2063 26.6478 13.9999C26.6477 14.7939 26.1089 15.464 25.3777 15.664Z" stroke="white" stroke-width="0.4" mask="url(#path-1-outside-1_1006_7585)"/>
<path d="M7.46354 14.6524L7.46354 14.6524C7.73847 13.6267 8.67196 12.9104 9.73367 12.9104C10.7955 12.9104 11.7289 13.6267 12.0038 14.6524C12.0932 14.9861 11.8953 15.3291 11.5614 15.4185M7.46354 14.6524L8.67193 14.9762M7.46354 14.6524C7.37412 14.9861 7.57214 15.3291 7.9058 15.4185L7.90582 15.4185M7.46354 14.6524L7.90582 15.4185M11.5614 15.4185L11.5485 15.3701L11.5614 15.4185C11.5614 15.4185 11.5614 15.4185 11.5614 15.4185ZM11.5614 15.4185C11.5072 15.433 11.4527 15.4399 11.3991 15.4399C11.123 15.4399 10.8702 15.2557 10.7953 14.9762C10.6667 14.4965 10.2301 14.1614 9.73362 14.1614C9.23717 14.1614 8.80054 14.4965 8.67193 14.9762M8.67193 14.9762C8.5825 15.3099 8.23957 15.5078 7.90582 15.4185M8.67193 14.9762L7.90582 15.4185" fill="white" stroke="white" stroke-width="0.1"/>
<path d="M15.9963 14.6524L15.9963 14.6524C16.2711 13.6267 17.2046 12.9104 18.2665 12.9104C19.3283 12.9104 20.2616 13.6267 20.5365 14.6524C20.6259 14.986 20.428 15.3291 20.0942 15.4185C20.0942 15.4185 20.0942 15.4185 20.0942 15.4185L15.9963 14.6524ZM15.9963 14.6524C15.9069 14.9861 16.105 15.3291 16.4387 15.4185M15.9963 14.6524L16.4387 15.4185M16.4387 15.4185C16.7723 15.508 17.1153 15.3098 17.2047 14.9762L16.4387 15.4185Z" fill="white" stroke="white" stroke-width="0.1"/>
<path d="M15.828 18.6504L15.828 18.6504L15.1107 19.1058L15.0619 19.0927C15.0619 19.0927 15.0619 19.0927 15.0619 19.0927C14.9333 19.5724 14.4966 19.9075 14.0002 19.9075C13.5036 19.9075 13.067 19.5724 12.9385 19.0927L12.9385 19.0927C12.8491 18.759 12.5061 18.561 12.1724 18.6504C11.8387 18.7398 11.6407 19.0828 11.7301 19.4165C12.005 20.4423 12.9384 21.1586 14.0003 21.1586C15.062 21.1586 15.9955 20.4423 16.2704 19.4165L16.2704 19.4165C16.3597 19.0829 16.1617 18.7398 15.828 18.6504Z" fill="white" stroke="white" stroke-width="0.1"/>
</svg>
