<svg width="176" height="94" viewBox="0 0 176 94" fill="none" xmlns="http://www.w3.org/2000/svg">
<path fill-rule="evenodd" clip-rule="evenodd" d="M0.595169 50.3307C5.09644 59.0194 12.1005 72.5394 36.5 68.3485C56.1432 64.9746 61.9405 75.462 67.3765 85.2958C68.2514 86.8785 69.117 88.4444 70.0294 89.9327C71.4713 92.2846 74.1102 93.5329 76.8689 93.5329H88H99.1311C101.89 93.5329 104.529 92.2846 105.971 89.9327C106.883 88.4444 107.749 86.8785 108.624 85.2958C114.06 75.462 119.857 64.9746 139.5 68.3485C163.899 72.5394 170.904 59.0194 175.405 50.3307V50.3307C175.794 49.5785 176 48.744 176 47.8968V9.00929C176 2.59332 169.478 -1.76208 163.552 0.696031L91.4481 30.6027C89.2406 31.5183 86.7594 31.5183 84.5519 30.6027L12.4481 0.696031C6.5217 -1.76208 0 2.59332 0 9.00929V47.8968C0 48.744 0.205497 49.5785 0.595169 50.3307V50.3307Z" fill="#F4A17C"/>
</svg>
