<svg width="107" height="66" viewBox="0 0 107 66" fill="none" xmlns="http://www.w3.org/2000/svg">
<path d="M70.4927 2.63226C70.4927 2.63226 71.5567 2.75055 72.4676 3.5657C73.3785 4.38085 74.2194 2.30312 72.7116 1.87883C71.2064 1.45454 70.4927 2.63226 70.4927 2.63226Z" fill="#F5E2D5"/>
<path d="M69.4805 2.53705C69.4805 2.53705 70.176 1.72962 71.3672 1.43904C72.5584 1.14847 71.2919 -0.705541 70.0929 0.29218C68.8966 1.29247 69.4805 2.53705 69.4805 2.53705Z" fill="#F5E2D5"/>
<path d="M55.5883 7.36357C55.5883 7.36357 54.8487 8.12986 54.6774 9.33587C54.5061 10.5393 52.5156 9.47987 53.398 8.19672C54.2777 6.91357 55.5883 7.36357 55.5883 7.36357Z" fill="#F5E2D5"/>
<path d="M56.3051 6.64869C56.3051 6.64869 55.2488 6.47126 54.1459 7.00612C53.0429 7.54098 52.8146 5.31411 54.382 5.31668C55.9469 5.31925 56.3051 6.64869 56.3051 6.64869Z" fill="#F5E2D5"/>
<path d="M71.6467 13.6813C73.9556 9.91317 72.7446 5.00382 68.9417 2.71596C65.1388 0.428098 60.1841 1.6281 57.8751 5.39624C55.5662 9.16437 56.7773 14.0737 60.5802 16.3616C64.3831 18.6495 69.3377 17.4494 71.6467 13.6813Z" fill="#F5E2D5"/>
<path d="M58.5183 8.17865C58.3808 8.21465 58.2328 8.15551 58.1628 8.02694C58.0823 7.87779 58.1368 7.69008 58.2899 7.61036L60.296 6.53807L58.9517 6.49178C58.7804 6.48664 58.6455 6.34264 58.6507 6.17292C58.6559 6.00321 58.8012 5.86949 58.9725 5.87464L61.4638 5.95949C61.604 5.96464 61.7233 6.06235 61.7571 6.19864C61.7882 6.33492 61.7259 6.47378 61.6014 6.54064L58.5832 8.15294C58.5624 8.16322 58.5417 8.17094 58.5183 8.17865Z" fill="#3F4553"/>
<path d="M69.2573 5.25232C69.2339 5.25746 69.2105 5.2626 69.1846 5.2626L65.9069 5.36546C65.7668 5.3706 65.6396 5.2806 65.5981 5.14689C65.5566 5.01317 65.6111 4.86917 65.7304 4.7946L67.9441 3.42659C68.0894 3.33659 68.2815 3.38031 68.3723 3.52431C68.4631 3.66831 68.419 3.8586 68.2737 3.9486L67.041 4.70974L69.1638 4.64289C69.3351 4.63774 69.4804 4.77146 69.4856 4.94117C69.4882 5.09032 69.3922 5.21375 69.2573 5.25232Z" fill="#3F4553"/>
<path d="M58.3832 9.5674C60.0908 12.6866 63.122 14.4634 65.9144 13.7023C68.7042 12.9411 70.3936 9.87597 70.2509 6.33252L69.1739 6.44309C65.7249 6.79538 62.3694 7.71853 59.2318 9.17397L58.3832 9.5674Z" fill="#3F4553"/>
<path d="M69.3299 10.3363C68.1206 9.94285 66.592 9.90943 65.0323 10.3363C63.4415 10.7709 62.1257 11.5963 61.2927 12.5734C62.707 13.4812 64.3057 13.8309 65.8342 13.4143C67.3809 12.99 68.5851 11.8612 69.3299 10.3363Z" fill="#4E5567"/>
<path d="M15.7973 40.7105C17.031 36.4751 14.5659 32.0507 10.2914 30.8283C6.01693 29.6059 1.55168 32.0484 0.318007 36.2838C-0.915669 40.5192 1.5494 44.9436 5.82389 46.166C10.0984 47.3884 14.5636 44.9459 15.7973 40.7105Z" fill="#F5E2D5"/>
<path d="M3.94168 33.6514C3.80932 33.5974 3.72887 33.4611 3.75223 33.3171C3.78078 33.15 3.93908 33.0342 4.11036 33.0625L6.36038 33.4225L5.32231 32.5765C5.18996 32.4685 5.17179 32.2731 5.28079 32.1419C5.38978 32.0108 5.58702 31.9928 5.71937 32.1008L7.64499 33.672C7.75399 33.7594 7.78773 33.9111 7.73063 34.0371C7.67354 34.1631 7.53599 34.2377 7.39845 34.2145L4.01175 33.6745C3.9858 33.6668 3.96244 33.6617 3.94168 33.6514Z" fill="#3F4553"/>
<path d="M14.2603 37.8044C14.2369 37.7941 14.2162 37.7838 14.1954 37.7684L11.5328 35.8732C11.4186 35.7909 11.3745 35.6443 11.4238 35.5132C11.4731 35.3821 11.6054 35.3023 11.7456 35.3152L14.3407 35.5646C14.512 35.5801 14.6366 35.7318 14.621 35.9015C14.6054 36.0712 14.4523 36.1946 14.281 36.1792L12.8355 36.0404L14.5613 37.2669C14.7015 37.3672 14.7326 37.5575 14.6314 37.6964C14.5432 37.8172 14.39 37.8584 14.2603 37.8044Z" fill="#3F4553"/>
<path d="M9.07254 41.8517C7.89692 41.8517 6.84847 41.5894 5.93497 41.0674C3.52925 39.6917 2.97388 37.0225 2.95052 36.9094C2.909 36.7011 3.04654 36.4979 3.25675 36.4568C3.46696 36.4157 3.67198 36.5519 3.7135 36.7602C3.71869 36.7834 4.22994 39.2057 6.33203 40.404C7.86318 41.2783 9.86666 41.3065 12.288 40.4888C12.493 40.4194 12.7136 40.5274 12.781 40.7305C12.8511 40.9311 12.7421 41.1523 12.5371 41.2191C11.2836 41.6383 10.1262 41.8517 9.07254 41.8517Z" fill="#3F4553"/>
<path d="M56.6578 63.2784C60.1168 59.851 60.1168 54.2942 56.6578 50.8669C53.1989 47.4395 47.5908 47.4395 44.1318 50.8669C40.6729 54.2942 40.6729 59.851 44.1318 63.2784C47.5908 66.7057 53.1989 66.7057 56.6578 63.2784Z" fill="#F5E2D5"/>
<path d="M45.4051 59.9442C45.4051 59.9442 51.1015 56.7221 56.5903 55.943C56.5903 55.943 58.1656 61.0859 52.9181 63.0762C48.3688 64.8016 45.4051 59.9442 45.4051 59.9442Z" fill="#3F4553"/>
<path d="M46.5289 57.4654C46.3421 57.4654 46.1604 57.3651 46.067 57.1877L44.7746 54.7139C44.6422 54.4619 44.7435 54.1508 44.9978 54.0196C45.2521 53.8885 45.5661 53.9888 45.6985 54.2408L46.9909 56.7145C47.1232 56.9665 47.022 57.2777 46.7677 57.4088C46.6898 57.4474 46.6094 57.4654 46.5289 57.4654Z" fill="#3F4553"/>
<path d="M53.4165 54.989C53.1777 54.989 52.9623 54.8244 52.9104 54.5827L52.3083 51.767C52.2486 51.4893 52.4277 51.2167 52.708 51.1576C52.9882 51.0984 53.2633 51.2759 53.323 51.5536L53.9251 54.3693C53.9848 54.647 53.8057 54.9196 53.5255 54.9787C53.4865 54.9864 53.4502 54.989 53.4165 54.989Z" fill="#3F4553"/>
<path d="M54.3117 62.0502C53.8342 60.8853 52.1655 60.4096 50.5358 60.9907C49.6326 61.3147 48.932 61.8959 48.5505 62.5516C49.7313 63.1405 51.2001 63.4053 52.887 62.765C53.4346 62.5593 53.9017 62.3176 54.3117 62.0502Z" fill="#4E5567"/>
<path d="M101.636 34.3251C106.131 32.412 108.209 27.2508 106.279 22.7974C104.348 18.3439 99.139 16.2845 94.6445 18.1977C90.1499 20.1108 88.0716 25.2719 90.0024 29.7254C91.9331 34.1789 97.1419 36.2382 101.636 34.3251Z" fill="#F5E2D5"/>
<path d="M99.2701 28.2154C96.2104 28.2154 93.8877 26.4514 93.854 26.4257C93.7424 26.3383 93.7216 26.1763 93.8099 26.0657C93.8981 25.9551 94.0616 25.9345 94.1732 26.022C94.36 26.166 98.8004 29.5268 103.425 26.3897C103.544 26.31 103.705 26.3408 103.786 26.4566C103.866 26.5748 103.838 26.7343 103.718 26.814C102.182 27.8554 100.651 28.2154 99.2701 28.2154Z" fill="#3F4553"/>
<path d="M101.795 23.556C101.795 24.096 101.582 24.5357 101.318 24.5357C101.053 24.5357 100.84 24.0986 100.84 23.556C100.84 23.0134 101.053 22.5763 101.318 22.5763C101.582 22.5763 101.795 23.016 101.795 23.556Z" fill="#3F4553"/>
<path d="M97.2096 23.3683C97.2096 23.9083 96.9968 24.348 96.7321 24.348C96.4674 24.348 96.2546 23.9109 96.2546 23.3683C96.2546 22.8283 96.4674 22.3886 96.7321 22.3886C96.9968 22.3886 97.2096 22.8257 97.2096 23.3683Z" fill="#3F4553"/>
</svg>
