<svg width="176" height="86" viewBox="0 0 176 86" fill="none" xmlns="http://www.w3.org/2000/svg">
<path d="M119.324 33.5821C120.197 38.9182 73.6507 37.5303 65.499 35.4814C60.8607 34.5109 66.2917 11.9317 63.3772 4.56763C61.6984 -2.32684 114.021 -0.511041 117.884 4.05628C120.858 7.56961 118.096 26.0685 119.324 33.5821Z" fill="#FBF5EB"/>
<path d="M71.8717 20.6002C72.0552 19.6784 71.8198 18.6175 71.9513 18.1061C72.249 16.9582 72.3978 16.3842 72.2213 16.2207C71.5048 15.5529 71.0064 18.5931 70.3314 18.5688C70.0614 18.4192 69.8329 17.5008 69.7429 16.8399C69.6356 16.0503 69.9368 13.7127 69.466 13.7545C69.0679 13.7892 68.8014 15.4902 68.8118 16.0607C68.798 15.4659 69.0368 12.857 68.4068 13.0761C67.9464 13.2362 67.9395 16.2173 67.9499 16.6138C67.9361 16.4225 68.0434 13.5631 67.5864 13.7614C67.0603 13.9875 67.1676 16.5616 67.178 16.9547C67.1572 16.7147 67.3234 14.2623 66.7661 14.5302C66.4199 14.6971 66.278 17.073 66.2884 17.4695C66.3299 19.2158 67.9603 23.4283 68.2545 23.9153L70.9614 23.9709C70.9614 23.9709 71.3421 22.8474 71.4529 22.2978C71.5948 21.6055 71.8025 20.9446 71.8717 20.6002Z" fill="#FDBCA0"/>
<path d="M86.3337 41.4298C86.6625 43.9552 83.1422 52.7211 83.8934 57.0728C91.1728 58.6103 108.342 55.8518 109.678 50.067C109.785 46.1502 109.646 41.7672 109.723 39.1583C109.916 32.3403 108.663 20.6559 97.3687 24.2736C96.7907 24.1519 96.8114 23.2961 91.1174 23.6857C85.6102 24.0545 85.3437 33.8813 86.3337 41.4298Z" fill="#8E97FD"/>
<path d="M67.1952 24.0962C64.9072 35.8154 71.9927 44.5952 81.8821 44.1256C95.932 43.4612 104.392 32.3682 100.55 24.6701L96.7662 24.7258C85.5546 22.7569 82.872 31.1855 79.4971 30.8793C77.0707 30.6602 73.0658 28.5244 72.2419 23.5814C72.062 22.503 67.3786 23.1605 67.1952 24.0962Z" fill="#8E97FD"/>
<path d="M93.6924 24.837C91.8163 29.3452 84.4538 31.4776 85.6342 24.8196C85.9977 22.7638 83.3116 21.1359 83.0693 19.6749C82.5189 16.3494 85.8246 15.2815 86.5515 12.2517C87.6453 7.68782 89.4556 0.111558 101.726 7.26344C105.458 9.43405 93.6924 24.837 93.6924 24.837Z" fill="#3F414E"/>
<path d="M99.7187 16.5825L99.7395 25.0215C99.3068 27.4495 93.3808 27.8078 93.6923 25.0423L93.675 21.4177L99.7187 16.5825Z" fill="#F0A38B"/>
<path d="M89.8054 16.4573C89.7673 16.9721 89.7016 17.4417 89.7292 17.9461C89.7673 18.6035 89.9092 19.2714 90.1585 19.8976C90.8231 21.5603 92.2076 23.9222 93.9418 23.964C97.0017 24.0335 100.969 20.562 100.477 16.0781C100.048 12.1648 96.756 6.16427 95.5652 8.47403C93.7168 12.0604 91.6434 10.6794 90.3211 12.8953C90.0442 13.3579 89.7881 13.9423 89.8089 15.2885C89.8158 15.7268 89.8296 16.1025 89.8054 16.4573Z" fill="#FDBCA0"/>
<path d="M96.1053 18.6662C96.0706 19.6228 96.8114 20.4263 97.7633 20.4646C98.7152 20.4993 99.5148 19.7549 99.5529 18.7983C99.5875 17.8417 98.8467 17.0382 97.8948 16.9999C96.9429 16.9617 96.1433 17.7096 96.1053 18.6662Z" fill="#F4A07B"/>
<path d="M89.7292 17.9461C89.7673 18.6035 89.9162 19.2679 90.1585 19.8976C90.9442 19.7584 91.5569 19.0871 91.588 18.2522C91.6227 17.2956 90.8819 16.4921 89.93 16.4538C89.8885 16.4538 89.8469 16.4538 89.8054 16.4538C89.7673 16.9721 89.7016 17.4417 89.7292 17.9461Z" fill="#F4A07B"/>
<path d="M94.9248 16.4503C94.9248 16.4503 95.6171 17.6052 97.7459 16.2972C98.0124 16.1338 96.8321 16.499 96.1017 16.5581C95.354 16.6138 94.7379 16.1999 94.9248 16.4503Z" fill="#002869"/>
<path d="M90.1722 15.7059C90.3453 15.9912 91.8787 17.1774 92.4429 16.1268C92.5918 15.852 91.9999 16.4295 91.3111 16.1755C90.6049 15.9181 90.0615 15.5251 90.1722 15.7059Z" fill="#002869"/>
<path d="M93.9593 19.2331C93.5058 19.254 92.8066 19.1426 92.6889 18.6069C92.637 18.3704 92.7582 18.1686 92.8655 17.9669C93.1424 17.4486 93.3882 16.9755 93.3708 16.3668C93.3674 16.2868 93.492 16.2694 93.4955 16.3494C93.5128 16.9303 93.312 17.4034 93.042 17.9078C92.8828 18.2034 92.6924 18.4643 92.9347 18.7878C93.1562 19.08 93.5993 19.1287 93.942 19.1113C94.0216 19.1079 94.0389 19.2296 93.9593 19.2331Z" fill="#F27979"/>
<path d="M95.2608 20.4645C95.3958 20.1932 93.9662 21.1498 92.4086 20.301C91.7405 19.9357 93.3431 21.9046 95.2608 20.4645Z" fill="#F27979"/>
<path fill-rule="evenodd" clip-rule="evenodd" d="M0 74.7718V53.287C0.828978 48.8905 2.16844 45.185 3.99518 43.4875C4.16441 43.329 4.34133 43.1809 4.52594 43.0603C12.2102 35.0496 19.9507 31 37.9063 37.4981C51.4356 34.5646 60.0379 35.911 68.9732 37.3095C76.7847 38.5322 84.8508 39.7947 96.6859 38.2721L96.7075 38.2728C96.807 38.276 96.9003 38.279 96.9936 38.279C101.197 38.3641 104.024 37.7103 106.609 37.1124C111.237 36.0418 115.091 35.1502 124.692 39.0001C124.879 39.0086 125.285 38.8687 125.888 38.6609C128.45 37.7776 134.572 35.6668 142.648 38.5001C160.926 35.0189 167.087 39.0001 171.576 42.0001C173.427 43.4434 174.891 45.9288 176 48.9843V81.7475C175.651 82.2038 175.271 82.5226 174.861 82.6823C167.068 85.7289 135.384 85.5078 105.701 85.3006C90.6446 85.1955 76.103 85.094 65.4556 85.4244C64.7249 85.4485 63.9941 85.4692 63.2634 85.4899C49.9944 85.886 37.21 86.103 26.7948 85.9515C25.5563 85.9342 24.3487 85.9101 23.1795 85.8791C11.7412 85.5966 3.81057 84.7837 2.33367 83.1405C1.7538 82.4947 0.739148 78.7137 0 74.7718Z" fill="#3F414E"/>
<path d="M82.6582 40.0335C84.0186 39.9848 85.3789 39.9395 86.7393 39.8908C87.3069 39.87 87.3104 38.9795 86.7393 39.0003C85.3789 39.049 84.0186 39.0943 82.6582 39.143C82.0906 39.1638 82.0871 40.0543 82.6582 40.0335Z" fill="#656B7B"/>
<path d="M77.4003 74.6172C76.2858 75.3998 75.1677 76.1825 74.0531 76.9652C73.5858 77.2922 74.067 78.0401 74.5343 77.7131C75.6489 76.9304 76.7669 76.1477 77.8815 75.3651C78.3488 75.0381 77.8676 74.2902 77.4003 74.6172Z" fill="#656B7B"/>
<path d="M85.0085 45.3765C84.022 47.0601 83.0321 48.7402 82.0455 50.4238C81.7582 50.9143 82.4748 51.4396 82.7621 50.9456C83.7486 49.262 84.7385 47.5819 85.725 45.8982C86.0158 45.4113 85.2993 44.8825 85.0085 45.3765Z" fill="#656B7B"/>
<path d="M86.4693 69.9524C87.3935 71.2394 88.4215 72.4395 89.5569 73.5457C89.9653 73.9458 90.5919 73.3161 90.1834 72.9161C89.1034 71.8621 88.1169 70.7281 87.2343 69.5037C86.902 69.041 86.1335 69.4863 86.4693 69.9524Z" fill="#656B7B"/>
<path d="M89.3802 55.1895C89.3802 55.1895 89.3802 58.108 89.3802 59.6385C89.3802 60.2125 90.2664 60.2125 90.2664 59.6385C90.2664 58.1045 90.2664 56.6713 90.2664 55.1895C90.2664 54.5981 89.3802 54.5981 89.3802 55.1895C89.3802 54.5981 89.3802 55.1895 89.3802 55.1895Z" fill="#656B7B"/>
<path d="M68.2032 63.7188C67.0644 63.3953 65.9291 63.0718 64.7903 62.7483C64.2434 62.5918 63.9526 63.4336 64.503 63.5901C65.6418 63.9136 66.7771 64.2371 67.9159 64.5606C68.4629 64.7137 68.7536 63.8753 68.2032 63.7188Z" fill="#656B7B"/>
<path d="M71.7306 43.4355C73.0771 44.253 74.3474 45.1783 75.5416 46.2079C75.9743 46.5801 76.4624 45.8357 76.0332 45.467C74.839 44.4373 73.5686 43.5155 72.2221 42.6946C71.7341 42.3989 71.2391 43.1398 71.7306 43.4355Z" fill="#656B7B"/>
<path d="M14.4784 63.9519C13.6615 63.9032 12.8446 63.858 12.0277 63.8128C12.0138 63.5206 12.0069 63.2249 12 62.9223C12.8169 62.971 13.6303 63.0162 14.4472 63.0614C15.0114 63.0962 15.0495 63.9867 14.4784 63.9519Z" fill="#656B7B"/>
<path d="M53.0803 73.4275C54.4406 73.4762 55.8009 73.5214 57.1613 73.5701C57.729 73.591 57.7324 74.4815 57.1613 74.4606C55.8009 74.4119 54.4406 74.3667 53.0803 74.318C52.5091 74.2971 52.5091 73.4066 53.0803 73.4275Z" fill="#656B7B"/>
<path d="M54.1083 51.7144C53.1218 50.0308 52.1319 48.3507 51.1453 46.667C50.858 46.1766 51.5746 45.6513 51.8619 46.1453C52.8484 47.8289 53.8383 49.509 54.8249 51.1926C55.1156 51.6831 54.3991 52.2083 54.1083 51.7144Z" fill="#656B7B"/>
<path d="M41.848 80.2767C41.5192 80.301 41.1904 80.3219 40.8615 80.3428C40.28 79.3514 39.6985 78.3635 39.117 77.3721C38.8297 76.8816 39.5462 76.3564 39.8335 76.8503C40.505 77.9948 41.1765 79.1357 41.848 80.2767Z" fill="#656B7B"/>
<path d="M63.7658 52.1284C63.7658 52.1284 63.7658 49.2099 63.7658 47.6794C63.7658 47.1054 64.6519 47.1054 64.6519 47.6794C64.6519 49.2134 64.6519 50.6465 64.6519 52.1284C64.6519 52.7232 63.7658 52.7232 63.7658 52.1284C63.7658 52.7232 63.7658 52.1284 63.7658 52.1284Z" fill="#656B7B"/>
<path d="M48.4108 55.8574C47.272 56.1809 46.1367 56.5044 44.9979 56.8279C44.4509 56.9845 44.1602 56.1427 44.7106 55.9861C45.8494 55.6626 46.9847 55.3391 48.1235 55.0156C48.667 54.8591 48.9577 55.7009 48.4108 55.8574Z" fill="#656B7B"/>
<path d="M45.0253 68.0878C46.3718 67.2704 47.6422 66.3451 48.8364 65.3154C49.2691 64.9432 49.7571 65.6876 49.3279 66.0564C48.1337 67.086 46.8634 68.0078 45.5169 68.8288C45.0288 69.1244 44.5338 68.387 45.0253 68.0878Z" fill="#656B7B"/>
<path d="M24.4507 80.8089C23.8934 80.7915 23.35 80.7672 22.8239 80.7359C22.2181 80.2802 21.6331 79.8002 21.0654 79.2958C20.6397 78.9166 21.1935 78.2244 21.6193 78.6035C22.5193 79.3966 23.4608 80.1341 24.4507 80.8089Z" fill="#656B7B"/>
<path d="M34.333 65.9068C33.6511 67.7365 32.9692 69.5662 32.2873 71.3925C32.09 71.9247 31.2316 71.6951 31.4324 71.1594C32.1143 69.3297 32.7962 67.5 33.4781 65.6737C33.6788 65.1415 34.5338 65.3711 34.333 65.9068Z" fill="#656B7B"/>
<path d="M20.349 43.6616C19.051 43.2581 17.7495 42.8511 16.4514 42.4476C15.908 42.2772 16.1399 41.418 16.6834 41.5884C17.9814 41.9919 19.2829 42.3989 20.5809 42.8024C21.1244 42.9729 20.8925 43.8321 20.349 43.6616Z" fill="#656B7B"/>
<path d="M29.5874 47.7558C30.0997 49.6411 30.6155 51.523 31.1278 53.4084C31.2766 53.9545 30.4493 54.2746 30.3005 53.7215C29.7882 51.8361 29.2724 49.9542 28.7601 48.0688C28.6078 47.5227 29.4351 47.2027 29.5874 47.7558Z" fill="#656B7B"/>
<path d="M23.0939 67.7296C21.8651 68.7279 20.5601 69.615 19.1755 70.3837C18.6771 70.662 18.234 69.8898 18.7359 69.6115C20.0547 68.881 21.3008 68.0461 22.4743 67.0965C22.9104 66.7382 23.5369 67.3678 23.0939 67.7296Z" fill="#656B7B"/>
<path d="M20.7192 52.9737C20.7192 52.9737 19.9577 55.7878 19.5561 57.2697C19.4073 57.8228 18.5523 57.5897 18.7012 57.0366C19.1027 55.5582 19.4765 54.1738 19.8642 52.7406C20.02 52.1667 20.8715 52.3997 20.7192 52.9737C20.8715 52.3997 20.7192 52.9737 20.7192 52.9737Z" fill="#656B7B"/>
<path d="M35.7108 61.2213C36.8911 61.2109 38.0749 61.197 39.2553 61.1865C39.823 61.1796 39.8853 62.0701 39.3141 62.0736C38.1338 62.084 36.95 62.0979 35.7696 62.1084C35.2019 62.1153 35.1396 61.2283 35.7108 61.2213Z" fill="#656B7B"/>
<path d="M44.6656 49.0255C43.153 49.4603 41.6853 50.0169 40.2662 50.6952C39.7504 50.9422 39.4769 50.0934 39.9858 49.8499C41.405 49.1716 42.8726 48.6151 44.3853 48.1802C44.9322 48.0237 45.216 48.869 44.6656 49.0255Z" fill="#656B7B"/>
<path d="M160.658 40.0335C162.019 39.9848 163.379 39.9395 164.739 39.8908C165.307 39.87 165.31 38.9795 164.739 39.0003C163.379 39.049 162.019 39.0943 160.658 39.143C160.091 39.1638 160.087 40.0543 160.658 40.0335Z" fill="#656B7B"/>
<path d="M155.4 74.6172C154.286 75.3998 153.168 76.1825 152.053 76.9652C151.586 77.2922 152.067 78.0401 152.534 77.7131C153.649 76.9304 154.767 76.1477 155.881 75.3651C156.349 75.0381 155.868 74.2902 155.4 74.6172Z" fill="#656B7B"/>
<path d="M163.009 45.3765C162.022 47.0601 161.032 48.7402 160.046 50.4238C159.758 50.9143 160.475 51.4396 160.762 50.9456C161.749 49.262 162.739 47.5819 163.725 45.8982C164.016 45.4113 163.299 44.8825 163.009 45.3765Z" fill="#656B7B"/>
<path d="M164.469 69.9524C165.393 71.2394 166.422 72.4395 167.557 73.5457C167.965 73.9458 168.592 73.3161 168.183 72.9161C167.103 71.8621 166.117 70.7281 165.234 69.5037C164.902 69.041 164.134 69.4863 164.469 69.9524Z" fill="#656B7B"/>
<path d="M167.38 55.1895C167.38 55.1895 167.38 58.108 167.38 59.6385C167.38 60.2125 168.266 60.2125 168.266 59.6385C168.266 58.1045 168.266 56.6713 168.266 55.1895C168.266 54.5981 167.38 54.5981 167.38 55.1895C167.38 54.5981 167.38 55.1895 167.38 55.1895Z" fill="#656B7B"/>
<path d="M146.203 63.7188C145.064 63.3953 143.929 63.0718 142.79 62.7483C142.243 62.5918 141.953 63.4336 142.503 63.5901C143.642 63.9136 144.777 64.2371 145.916 64.5606C146.463 64.7137 146.754 63.8753 146.203 63.7188Z" fill="#656B7B"/>
<path d="M149.731 43.4355C151.077 44.253 152.347 45.1783 153.542 46.2079C153.974 46.5801 154.462 45.8357 154.033 45.467C152.839 44.4373 151.569 43.5155 150.222 42.6946C149.734 42.3989 149.239 43.1398 149.731 43.4355Z" fill="#656B7B"/>
<path d="M92.4784 63.9519C91.6615 63.9032 90.8446 63.858 90.0277 63.8128C90.0138 63.5206 90.0069 63.2249 90 62.9223C90.8169 62.971 91.6303 63.0162 92.4472 63.0614C93.0114 63.0962 93.0495 63.9867 92.4784 63.9519Z" fill="#656B7B"/>
<path d="M131.08 73.4275C132.441 73.4762 133.801 73.5214 135.161 73.5701C135.729 73.591 135.732 74.4815 135.161 74.4606C133.801 74.4119 132.441 74.3667 131.08 74.318C130.509 74.2971 130.509 73.4066 131.08 73.4275Z" fill="#656B7B"/>
<path d="M132.108 51.7144C131.122 50.0308 130.132 48.3507 129.145 46.667C128.858 46.1766 129.575 45.6513 129.862 46.1453C130.848 47.8289 131.838 49.509 132.825 51.1926C133.116 51.6831 132.399 52.2083 132.108 51.7144Z" fill="#656B7B"/>
<path d="M119.848 80.2767C119.519 80.301 119.19 80.3219 118.862 80.3428C118.28 79.3514 117.698 78.3635 117.117 77.3721C116.83 76.8816 117.546 76.3564 117.833 76.8503C118.505 77.9948 119.176 79.1357 119.848 80.2767Z" fill="#656B7B"/>
<path d="M141.766 52.1284C141.766 52.1284 141.766 49.2099 141.766 47.6794C141.766 47.1054 142.652 47.1054 142.652 47.6794C142.652 49.2134 142.652 50.6465 142.652 52.1284C142.652 52.7232 141.766 52.7232 141.766 52.1284C141.766 52.7232 141.766 52.1284 141.766 52.1284Z" fill="#656B7B"/>
<path d="M126.411 55.8574C125.272 56.1809 124.137 56.5044 122.998 56.8279C122.451 56.9845 122.16 56.1427 122.711 55.9861C123.849 55.6626 124.985 55.3391 126.124 55.0156C126.667 54.8591 126.958 55.7009 126.411 55.8574Z" fill="#656B7B"/>
<path d="M123.025 68.0878C124.372 67.2704 125.642 66.3451 126.836 65.3154C127.269 64.9432 127.757 65.6876 127.328 66.0564C126.134 67.086 124.863 68.0078 123.517 68.8288C123.029 69.1244 122.534 68.387 123.025 68.0878Z" fill="#656B7B"/>
<path d="M102.451 80.8089C101.893 80.7915 101.35 80.7672 100.824 80.7359C100.218 80.2802 99.6331 79.8002 99.0654 79.2958C98.6397 78.9166 99.1935 78.2244 99.6193 78.6035C100.519 79.3966 101.461 80.1341 102.451 80.8089Z" fill="#656B7B"/>
<path d="M112.333 65.9068C111.651 67.7365 110.969 69.5662 110.287 71.3925C110.09 71.9247 109.232 71.6951 109.432 71.1594C110.114 69.3297 110.796 67.5 111.478 65.6737C111.679 65.1415 112.534 65.3711 112.333 65.9068Z" fill="#656B7B"/>
<path d="M98.349 43.6616C97.0509 43.2581 95.7494 42.8511 94.4514 42.4476C93.908 42.2772 94.1399 41.418 94.6833 41.5884C95.9814 41.9919 97.2829 42.3989 98.5809 42.8024C99.1243 42.9729 98.8924 43.8321 98.349 43.6616Z" fill="#656B7B"/>
<path d="M107.587 47.7558C108.1 49.6411 108.615 51.523 109.128 53.4084C109.277 53.9545 108.449 54.2746 108.3 53.7215C107.788 51.8361 107.272 49.9542 106.76 48.0688C106.608 47.5227 107.435 47.2027 107.587 47.7558Z" fill="#656B7B"/>
<path d="M101.094 67.7296C99.865 68.7279 98.5601 69.615 97.1755 70.3837C96.677 70.662 96.234 69.8898 96.7359 69.6115C98.0547 68.881 99.3008 68.0461 100.474 67.0965C100.91 66.7382 101.537 67.3678 101.094 67.7296Z" fill="#656B7B"/>
<path d="M98.7191 52.9737C98.7191 52.9737 97.9576 55.7878 97.5561 57.2697C97.4073 57.8228 96.5523 57.5897 96.7011 57.0366C97.1027 55.5582 97.4765 54.1738 97.8642 52.7406C98.0199 52.1667 98.8715 52.3997 98.7191 52.9737C98.8715 52.3997 98.7191 52.9737 98.7191 52.9737Z" fill="#656B7B"/>
<path d="M113.711 61.2213C114.891 61.2109 116.075 61.197 117.255 61.1865C117.823 61.1796 117.885 62.0701 117.314 62.0736C116.134 62.084 114.95 62.0979 113.77 62.1084C113.202 62.1153 113.14 61.2283 113.711 61.2213Z" fill="#656B7B"/>
<path d="M122.666 49.0255C121.153 49.4603 119.685 50.0169 118.266 50.6952C117.75 50.9422 117.477 50.0934 117.986 49.8499C119.405 49.1716 120.873 48.6151 122.385 48.1802C122.932 48.0237 123.216 48.869 122.666 49.0255Z" fill="#656B7B"/>
<path d="M113.911 73.4391C112.807 76.0898 105.918 80.2293 104.783 79.6205C102.924 78.6187 96.043 68.7466 96.6141 66.3951C97.1575 64.1584 103.7 60.1163 103.7 60.1163C103.7 60.1163 110.408 57.4031 114.16 57.337C116.223 57.2987 124.482 69.8632 123.478 72.4652C122.987 73.7279 117.033 74.521 113.911 73.4391Z" fill="white"/>
<path d="M113.741 72.6879C113.416 75.5577 105.423 80.118 103.855 79.4954C102.935 79.1301 95.1809 68.1936 95.7486 65.8456C96.292 63.6089 106.5 58.652 106.5 58.652C106.5 58.652 112.052 57.598 115.808 57.5284C117.871 57.4901 124.209 69.4981 123.205 72.1035C122.717 73.3662 115.493 74.7854 113.741 72.6879Z" fill="white"/>
<path d="M113.582 72.2461C112.454 75.8846 104.035 79.6693 103.059 79.0119C101.477 77.9405 95.4925 68.4788 96.0601 66.1273C96.6036 63.8906 106.704 59.0555 106.704 59.0555C109.799 58.8676 112.305 57.838 116.316 57.7267C118.386 57.6675 124.911 68.7571 124.125 71.366C123.662 72.9105 114.87 73.7697 113.582 72.2461Z" fill="white"/>
<path d="M111.924 73.1644C111.924 73.1644 112.609 74.6149 114.229 73.9853C115.984 73.3035 115.794 71.526 115.794 71.526C114.215 71.6756 112.862 72.1347 111.924 73.1644Z" fill="#E8E2E3"/>
<path d="M113.232 71.3938C112.637 71.8391 112.353 72.5313 112.395 73.4879C112.613 74.3993 104.371 78.2639 102.267 78.4518C100.854 78.577 94.6964 66.4786 94.9456 65.042C95.1395 63.9324 104.887 59.6051 105.344 58.725C105.344 58.725 106.801 57.6223 107.798 57.8693C108.781 58.1128 117.13 56.0883 118.113 56.0639C119.653 56.0291 125.517 67.7066 125.496 70.0615C125.486 71.0355 115.797 73.1435 115.465 72.3435C115.108 71.4773 113.232 71.3938 113.232 71.3938Z" fill="#8E97FD"/>
<path d="M104.932 58.7842L112.395 73.4845C113.146 72.5453 114.468 71.6826 115.465 72.3435L108.276 57.6989C107.909 56.9684 104.686 58.2972 104.932 58.7842Z" fill="#4E5567"/>
<path d="M103.122 75.175C105.098 74.4027 106.967 73.4322 108.643 72.1208C108.881 71.9364 109.148 72.3191 108.913 72.5069C107.203 73.8427 105.295 74.8306 103.284 75.6167C103.004 75.7281 102.841 75.2863 103.122 75.175Z" fill="#4E5567"/>
<path d="M102.526 73.2966C103.783 72.7087 105.157 72.1661 106.268 71.3173C106.507 71.1329 106.777 71.519 106.538 71.7034C105.399 72.573 103.976 73.1366 102.689 73.7384C102.415 73.8636 102.256 73.4218 102.526 73.2966Z" fill="#4E5567"/>
<path d="M91.1658 46.4214C90.2762 46.1396 89.1962 46.2614 88.7047 46.0735C87.604 45.6526 87.0501 45.4404 86.8667 45.6004C86.1294 46.244 89.0855 47.0684 88.9851 47.7398C88.8085 47.9937 87.874 48.1259 87.2128 48.1433C86.4202 48.1641 84.1425 47.6145 84.1321 48.0911C84.1252 48.4911 85.7763 48.9398 86.344 48.992C85.7521 48.9398 83.201 48.425 83.3499 49.0755C83.4606 49.5521 86.4063 49.8791 86.8009 49.9104C86.6105 49.9034 83.7929 49.4895 83.9383 49.966C84.1044 50.5156 86.6624 50.6861 87.0536 50.7174C86.8113 50.7104 84.4056 50.2826 84.6098 50.867C84.7379 51.2287 87.0744 51.6253 87.4655 51.6601C89.1962 51.8062 93.5403 50.6304 94.0526 50.3869L94.3988 47.6876C94.3988 47.6876 93.3292 47.1867 92.7961 47.0162C92.135 46.8075 91.5015 46.5257 91.1658 46.4214Z" fill="#FDBCA0"/>
<path d="M93.9729 51.3018C96.8147 51.674 109.92 58.5093 113.869 49.2147C119.394 36.2188 109.276 22.6699 100.785 23.8317L104.039 35.9823C102.744 38.1286 103.488 41.788 103.173 42.7133C102.384 45.03 103.277 46.3205 93.8102 46.1849C92.7268 46.1744 93.0314 51.18 93.9729 51.3018Z" fill="#8E97FD"/>
<path d="M94.0524 5.58341C93.8274 4.29635 105.181 0.901291 108.559 11.7717C109.764 15.6538 118.715 15.5425 114.575 23.0213C113.267 25.3833 122.557 27.4913 114.496 33.5822C106.953 39.28 95.4301 34.2883 96.4685 30.3193C97.6177 25.9259 101.564 28.267 98.9815 22.6735C97.6696 19.828 99.2134 18.134 99.5319 17.1809C99.5942 16.9826 99.6565 16.7843 99.7188 16.5826C99.9092 15.9042 99.9888 15.2711 99.7188 14.652C98.9088 12.8014 93.3843 13.9249 94.5647 9.57677C95.6793 5.46861 94.0524 5.58341 94.0524 5.58341Z" fill="#3F414E"/>
<path d="M101.27 45.8197C104.835 44.9605 102.405 37.9477 104.253 35.6693C104.357 35.5406 104.174 35.3527 104.07 35.4849C102.197 37.7912 104.399 44.797 101.2 45.5692C101.038 45.6075 101.107 45.8614 101.27 45.8197Z" fill="#5863E3"/>
<path d="M97.9536 52.6516C101.581 53.8795 106.406 55.0379 110.062 53.4273C110.214 53.3612 110.082 53.1351 109.93 53.2012C106.351 54.7804 101.585 53.6047 98.0228 52.3976C97.8636 52.3455 97.7944 52.5994 97.9536 52.6516Z" fill="#5863E3"/>
<path d="M106.97 8.975C107.587 10.1299 108.345 11.0969 109.393 11.8796C110.487 12.697 111.491 13.2953 112.128 14.572C112.204 14.7215 112.433 14.5998 112.36 14.4502C111.886 13.5006 111.228 12.8536 110.377 12.2448C109.016 11.2778 108.005 10.3595 107.202 8.84977C107.119 8.70367 106.891 8.82542 106.97 8.975Z" fill="#002869"/>
<path d="M85.3297 22.2004C85.6724 23.477 84.6547 24.8754 84.627 26.1694C84.5959 27.5226 85.5651 28.1 86.7835 28.3227C86.9462 28.354 87.0189 28.1 86.8527 28.0687C83.0729 27.3765 86.1708 24.3258 85.5824 22.1274C85.5374 21.9708 85.2847 22.0404 85.3297 22.2004Z" fill="#002869"/>
</svg>
