<svg width="170" height="130" viewBox="0 0 170 130" fill="none" xmlns="http://www.w3.org/2000/svg">
<mask id="mask0_1006_8458" style="mask-type:alpha" maskUnits="userSpaceOnUse" x="0" y="0" width="177" height="210">
<rect width="176.435" height="210" rx="10" fill="#FA6E5A"/>
</mask>
<g mask="url(#mask0_1006_8458)">
<path d="M12.7731 35.4473C-12.7269 39.8272 -19.2269 24.8626 -23.7269 16.2853V-37.3683H64.2731V60.6317H48.7731C40.4397 50.047 38.2731 31.0674 12.7731 35.4473Z" fill="#808AFF"/>
<path d="M115.773 35.4473C141.273 39.8272 147.773 24.8626 152.273 16.2853V-37.3683H64.2731V60.6317H79.7731C88.1064 50.0469 90.2731 31.0674 115.773 35.4473Z" fill="#808AFF"/>
<g clip-path="url(#clip0_1006_8458)">
<path d="M156.386 24.3394H153V41.3394H156.386V24.3394Z" fill="#9BA3FF"/>
<path d="M161.693 30.0536H158.307V41.3391H161.693V30.0536Z" fill="#9BA3FF"/>
<path d="M167.007 35.4393H163.621V41.3394H167.007V35.4393Z" fill="#9BA3FF"/>
</g>
<g clip-path="url(#clip1_1006_8458)">
<path d="M91.5 129.339C110.554 129.339 126 126.653 126 123.339C126 120.026 110.554 117.339 91.5 117.339C72.4462 117.339 57 120.026 57 123.339C57 126.653 72.4462 129.339 91.5 129.339Z" fill="#808AFF"/>
</g>
<path d="M85.6816 45.4955C85.6816 45.4955 84.3301 60.436 89.9284 60.2109C95.9338 59.9663 94.3185 45.4955 94.3185 45.4955C93.5336 43.163 93.221 41.7799 93.5727 39.3333H86.2809C86.6326 41.7799 86.4632 43.163 85.6816 45.4955Z" fill="#FDBCA0"/>
<path d="M86.4275 42.2234C87.2547 42.4713 88.0884 42.6996 88.9514 42.7714C89.7689 42.8399 90.6091 42.7877 91.4233 42.6996C92.1007 42.6246 92.8237 42.5039 93.5011 42.2788C93.3936 41.3915 93.4099 40.4781 93.576 39.3299H86.2842C86.4438 40.4553 86.4926 41.3556 86.4275 42.2234Z" fill="#F0A38B"/>
<path d="M89.9283 41.3721C92.0094 41.3721 94.0122 40.5501 95.4778 39.0691C97.2234 37.3075 98.5912 35.3437 98.9918 33.0374C99.5063 30.0754 98.5065 27.1166 96.3245 24.7353H83.5288C81.3468 27.1134 80.347 30.0754 80.8616 33.0374C81.2621 35.3437 82.6332 37.3075 84.3756 39.0691C85.8444 40.5468 87.8473 41.3721 89.9283 41.3721Z" fill="#FDBCA0"/>
<path d="M90.5635 47.2375C90.2997 47.5279 90.0522 47.8443 89.8177 48.1607C89.5344 47.965 89.3097 47.7269 89.0622 47.4822C89.0394 47.4594 88.9938 47.4822 89.0035 47.5148C89.1436 47.8998 89.4367 48.2129 89.7363 48.4804C89.8014 48.5359 89.8926 48.5424 89.9578 48.4804C90.2737 48.1705 90.5831 47.8084 90.8273 47.4365C90.9315 47.2832 90.6905 47.0973 90.5635 47.2375Z" fill="#DF8370"/>
<path d="M97.6046 46.6666C95.6603 46.833 93.7421 47.1494 91.85 47.6322C91.736 47.6616 91.7848 47.8345 91.8988 47.8084C93.7812 47.3908 95.6831 47.107 97.6046 46.9765C97.8065 46.9635 97.8033 46.6503 97.6046 46.6666Z" fill="#DF8370"/>
<path d="M82.2491 46.6666C84.1934 46.833 86.1116 47.1494 88.0037 47.6322C88.1177 47.6616 88.0689 47.8345 87.9549 47.8084C86.0725 47.3908 84.1706 47.107 82.2491 46.9765C82.0504 46.9635 82.0504 46.6503 82.2491 46.6666Z" fill="#DF8370"/>
<path d="M82.5844 19.8095C79.8651 21.3688 77.9501 23.8252 77.9175 27.1265C77.885 30.8486 82.4118 36.7758 82.3499 36.629C80.8453 33.0081 80.4513 28.0235 84.2063 25.528C84.5808 25.2801 85.0498 25.1366 85.3852 24.8462C85.3754 22.8792 84.291 20.9741 82.5844 19.8095Z" fill="#3F4553"/>
<path d="M97.0049 19.8095C99.7243 21.3688 101.639 23.8252 101.672 27.1265C101.704 30.8486 99.48 34.1596 97.2654 36.9716C97.8289 35.745 99.1348 28.0203 95.3798 25.528C95.0053 25.2801 94.5363 25.1366 94.2009 24.8462C94.2139 22.8792 95.3016 20.9741 97.0049 19.8095Z" fill="#424495"/>
<path d="M136.05 17.8392C133.973 16.8051 131.546 16.5833 129.286 17.0433C128.192 17.2651 127.156 17.6533 126.169 18.1785C125.515 18.5243 124.851 19.0201 124.088 19.0789C123.164 19.1474 122.353 18.5439 121.665 18.0089C119.529 16.3452 117.357 14.887 114.608 14.4858C113.279 14.29 111.794 14.4336 110.765 15.2491C109.71 13.8529 108.137 12.858 106.404 12.4926C104.112 12.0098 101.933 12.6981 100.132 14.0813C99.1158 13.5822 97.3377 12.8645 97.1129 12.8025C90.3389 10.9366 81.0898 15.6699 82.2883 23.6524C83.3174 30.5126 91.9901 33.6834 97.9988 32.2742C99.2949 34.7305 102.402 35.3014 104.796 34.0227C104.978 34.1629 105.16 34.3032 105.346 34.4402C109.166 37.2456 113.612 39.0692 118.412 38.2406C120.236 37.9242 121.942 37.2652 123.512 36.3192C125.004 37.4414 126.967 37.7969 128.775 36.9292C130.12 36.2866 131.022 35.0992 131.344 33.7552C131.367 33.7552 131.39 33.7552 131.413 33.7552C135.406 33.7062 139.639 31.7196 140.659 27.5278C141.587 23.7176 139.522 19.5649 136.05 17.8392Z" fill="#4E5567"/>
<path d="M117.897 16.5964C119.21 17.6697 119.988 19.1409 119.171 20.7622C118.506 22.0833 117.311 23.0457 116.441 24.2168C115.422 25.5869 115.246 27.3451 116.917 28.3466C118.562 29.3318 120.623 28.1052 121.994 27.1755C123.688 26.024 125.505 22.6933 126.964 21.2645C133.445 14.9197 139.88 21.7017 139.906 21.7245C139.066 20.0739 137.724 18.6744 136.05 17.8393C133.972 16.8052 131.546 16.5834 129.286 17.0433C128.192 17.2652 127.156 17.6534 126.169 18.1786C125.515 18.5243 124.85 19.0202 124.088 19.0789C123.163 19.1474 122.352 18.5439 121.665 18.0089C119.529 16.3452 117.357 14.8871 114.608 14.4858C113.308 14.2966 111.859 14.4336 110.833 15.2035C113.071 14.3325 116.103 15.1252 117.897 16.5964Z" fill="#3F4553"/>
<path d="M135.158 32.6788C133.572 32.8647 132.087 32.7766 130.628 32.1275C129.999 33.7618 128.713 35.4124 126.895 35.6701C125.674 35.843 124.231 35.4614 123.981 34.1663C115.396 41.1668 105.772 33.3573 104.844 31.8926C102.167 33.6411 98.7931 31.5077 97.7933 28.7773C95.7546 29.57 93.4032 29.3253 91.4231 28.4739C87.7333 26.8918 85.6881 22.5303 86.9777 18.681C88.0524 15.4808 90.9151 13.2919 94.0871 12.4014C87.9026 12.3655 81.2622 16.815 82.288 23.6525C83.3172 30.5127 91.9866 33.6835 97.9985 32.2743C99.2947 34.7307 102.402 35.3015 104.795 34.0228C104.978 34.163 105.16 34.3033 105.346 34.4403C109.166 37.2458 113.611 39.0693 118.412 38.2407C120.235 37.9243 121.942 37.2653 123.512 36.3193C125.003 37.4415 126.967 37.797 128.775 36.9293C130.12 36.2867 131.022 35.0993 131.344 33.7553C131.367 33.7553 131.39 33.7553 131.413 33.7553C133.318 33.7324 135.275 33.266 136.916 32.333C136.34 32.5059 135.741 32.6103 135.158 32.6788Z" fill="#3F4553"/>
<path d="M87.6421 34.786C86.5022 34.9752 84.6491 35.0372 83.5972 33.9085C83.3888 33.6834 83.1054 33.9379 83.366 34.163C83.4083 34.1989 83.4506 34.2315 83.493 34.2641C83.3692 34.3 83.239 34.3163 83.1022 34.3065C83.0989 34.3065 83.0989 34.3098 83.1022 34.313C83.2683 34.3685 83.4376 34.3848 83.6037 34.3522C83.607 34.3554 83.6102 34.3587 83.6135 34.3587C83.4702 34.4533 83.2976 34.4925 83.1282 34.5479C83.125 34.5479 83.125 34.5512 83.1282 34.5544C83.3367 34.574 83.5549 34.5479 83.7275 34.437C83.747 34.45 83.7665 34.4566 83.7861 34.4696C83.6558 34.5707 83.5093 34.6458 83.3432 34.6849C83.3269 34.6882 83.3301 34.7143 83.3464 34.7143C83.5581 34.7241 83.76 34.6719 83.9294 34.5544C83.9652 34.574 84.0043 34.5903 84.0401 34.6099C83.9196 34.698 83.7959 34.7763 83.6558 34.8415C83.6428 34.848 83.6493 34.8709 83.6623 34.8709C83.848 34.8774 84.0108 34.7828 84.1574 34.6719C84.2029 34.6947 84.2485 34.711 84.2974 34.7306C84.2355 34.7926 84.1639 34.8513 84.0955 34.91C84.0857 34.9198 84.0955 34.9328 84.1085 34.9328C84.2257 34.9035 84.3332 34.8545 84.4244 34.786C85.4698 35.2166 86.6943 35.2297 87.743 34.8513C87.8537 34.8056 87.7691 34.7665 87.6421 34.786Z" fill="#3F4553"/>
<path d="M92.322 34.786C93.4618 34.9752 95.3149 35.0372 96.3668 33.9085C96.5752 33.6834 96.8586 33.9379 96.598 34.163C96.5557 34.1989 96.5134 34.2315 96.471 34.2641C96.598 34.3 96.725 34.3163 96.8618 34.3065C96.8651 34.3065 96.8651 34.3098 96.8618 34.313C96.6957 34.3685 96.5264 34.3848 96.3603 34.3522C96.357 34.3554 96.3538 34.3587 96.3505 34.3587C96.4938 34.4533 96.6664 34.4925 96.8358 34.5479C96.839 34.5479 96.839 34.5512 96.8358 34.5544C96.6273 34.574 96.4091 34.5479 96.2365 34.437C96.217 34.45 96.1975 34.4566 96.1779 34.4696C96.3082 34.5707 96.4547 34.6458 96.6208 34.6849C96.6371 34.6882 96.6339 34.7143 96.6176 34.7143C96.4059 34.7241 96.204 34.6719 96.0346 34.5544C95.9988 34.574 95.9597 34.5903 95.9239 34.6099C96.0444 34.698 96.1681 34.7763 96.3082 34.8415C96.3212 34.848 96.3147 34.8709 96.3017 34.8709C96.116 34.8774 95.9532 34.7828 95.8067 34.6719C95.7611 34.6947 95.7155 34.711 95.6699 34.7306C95.7317 34.7926 95.8034 34.8513 95.8718 34.91C95.8816 34.9198 95.8718 34.9328 95.8588 34.9328C95.7415 34.9035 95.634 34.8545 95.5429 34.786C94.4974 35.2166 93.2729 35.2297 92.221 34.8513C92.1135 34.8056 92.1949 34.7665 92.322 34.786Z" fill="#3F4553"/>
<path d="M90.7001 37.1642C90.166 37.4415 89.6352 37.5524 89.0848 37.2197C89.0457 37.1968 89.0001 37.2523 89.0359 37.2849C89.5082 37.7057 90.3484 37.8134 90.8206 37.3208C90.8988 37.236 90.8011 37.112 90.7001 37.1642Z" fill="#3F4553"/>
<path d="M91.9213 39.0887C91.2537 39.2877 90.5958 39.3627 89.9445 39.3333C89.2931 39.3627 88.6353 39.2877 87.9677 39.0887C87.9514 39.0821 87.9383 39.1115 87.9546 39.118C88.5962 39.392 89.2703 39.5388 89.9445 39.5551C90.6186 39.5388 91.2928 39.392 91.9343 39.118C91.9506 39.1115 91.9376 39.0854 91.9213 39.0887Z" fill="#3F4553"/>
<path d="M86.883 36.3845C86.8277 36.3584 86.7691 36.3356 86.7104 36.3193C85.9647 36.1268 85.0821 35.7614 84.3037 35.8952C83.7533 35.9898 83.6263 36.6585 83.939 37.0532C84.2744 37.4773 84.9323 37.598 85.4403 37.6372C85.9516 37.6763 86.7528 37.7318 87.1338 37.3305C87.479 36.9684 87.2445 36.5606 86.883 36.3845Z" fill="#FBAD8B"/>
<path d="M92.9794 36.3845C93.0348 36.3584 93.0934 36.3356 93.1521 36.3193C93.8978 36.1268 94.7804 35.7614 95.5588 35.8952C96.1092 35.9898 96.2362 36.6585 95.9235 37.0532C95.5881 37.4773 94.9302 37.598 94.4222 37.6372C93.9109 37.6763 93.1097 37.7318 92.7287 37.3305C92.3835 36.9684 92.6212 36.5606 92.9794 36.3845Z" fill="#FBAD8B"/>
<path d="M80.0932 31.501C79.3213 31.3868 78.4941 31.7065 78.6341 32.6232C78.7449 33.3539 79.5298 34.0813 80.7282 33.8628C80.4026 33.1059 80.1778 32.31 80.0932 31.501Z" fill="#F9CDB9"/>
<path d="M79.3473 32.2188C79.559 32.0426 79.8879 31.9643 80.1712 32.01C80.1549 31.9219 80.1452 31.8306 80.1321 31.7425C79.7446 31.7066 79.2886 31.8665 79.0672 32.147C78.722 32.5874 78.9825 33.0767 79.3636 33.3768C79.4189 33.4225 79.4971 33.3507 79.445 33.2953C79.1681 33.0017 78.976 32.5287 79.3473 32.2188Z" fill="#F8C4AB"/>
<path d="M80.3244 32.708C80.1225 32.5253 79.8587 32.4242 79.5558 32.4372C79.4874 32.4405 79.4614 32.5547 79.5395 32.5644C79.8163 32.6036 80.0541 32.7471 80.2006 32.969C80.0313 33.0603 79.9075 33.2593 80.0801 33.4224C80.2169 33.5529 80.4188 33.5822 80.611 33.5627C80.5035 33.2821 80.4025 32.9983 80.3244 32.708Z" fill="#F8C4AB"/>
<path d="M80.025 33.6507C80.0217 33.6475 80.0152 33.6507 80.0185 33.654C80.1422 33.9606 80.3181 34.6783 79.8947 34.8251C79.6114 34.923 79.5853 34.5576 79.6276 34.3651C79.6667 34.189 79.7644 34.0063 79.8458 33.8497C79.8458 33.8497 79.6504 33.8073 79.4713 33.716C79.2271 33.9248 79.1391 34.2347 79.1815 34.5609C79.2206 34.8577 79.4094 35.1839 79.7449 35.1937C80.0445 35.2035 80.2595 34.9458 80.305 34.6718C80.3572 34.3162 80.2139 33.9411 80.025 33.6507Z" fill="#FDCA27"/>
<path d="M142.345 89.8311C140.515 87.6487 136.555 87.4726 133.956 87.2018C126.143 86.3863 118.132 86.5885 110.315 87.2214C106.424 87.5378 102.551 88.0108 98.6954 88.6339C95.9044 89.0873 92.7877 89.4038 90 90.2976C87.2122 89.4038 84.0955 89.0841 81.3045 88.6339C77.4518 88.0076 73.5763 87.5346 69.6845 87.2214C61.8683 86.5885 53.8535 86.3863 46.0439 87.2018C43.4483 87.4726 39.4848 87.6487 37.6546 89.8311C35.8862 91.9384 38.0682 94.4927 39.7486 95.8334C42.0707 97.6863 45.018 98.5997 47.8318 99.3989C51.3654 100.397 54.9804 101.076 58.6149 101.591C74.8822 103.888 83.7145 102.195 92.2178 102.09C92.5435 102.504 92.8496 102.935 93.1297 103.382C101.75 103.437 112.823 102.749 121.382 101.591C125.02 101.098 128.631 100.4 132.165 99.3989C134.982 98.603 137.926 97.6896 140.248 95.8334C141.928 94.4927 144.111 91.9384 142.345 89.8311Z" fill="#93BFA8"/>
<path d="M130.803 91.3416C131.074 90.9958 132.712 90.5685 133.357 90.2814C130.318 90.526 127.267 90.8914 124.235 91.2046C118.467 91.7983 112.693 93.3282 107.228 95.2431C104.613 96.1597 102.004 97.1221 99.4053 98.0877C97.3471 98.851 95.3116 99.6861 93.3804 100.727C93.6767 100.635 93.9731 100.544 94.2695 100.456C97.3503 99.5491 109.905 92.7476 133.152 91.9092C132.614 91.7918 130.699 91.4753 130.803 91.3416Z" fill="#66A986"/>
<path d="M49.5384 90.8619C49.2681 90.5161 47.6299 90.0888 46.9851 89.8017C50.0236 90.0464 53.0752 90.4117 56.1072 90.7249C61.8749 91.3186 67.649 92.8485 73.1138 94.7634C75.729 95.6801 78.3376 96.6424 80.9365 97.608C82.9948 98.3713 85.0302 99.2064 86.9614 100.247C86.6651 100.156 86.3687 100.064 86.0724 99.9763C82.9915 99.0694 70.4368 92.2679 47.1903 91.4295C47.7244 91.3121 49.6393 90.9956 49.5384 90.8619Z" fill="#66A986"/>
<path d="M97.8585 98.0746C96.5493 97.5494 95.1652 97.5364 93.8918 98.0812C91.7163 99.0174 89.0491 97.5821 86.7889 97.8398C84.7078 98.0779 83.441 100.449 85.0335 101.963C85.4178 102.328 89.2803 103.731 95.3997 100.874C96.0706 100.56 96.7252 100.381 97.484 100.391C97.6598 100.394 97.8259 100.56 98.0116 100.541C98.4089 100.492 98.7346 100.42 98.956 100.035C99.4771 99.1283 98.6075 98.3748 97.8585 98.0746Z" fill="#FDB597"/>
<path d="M82.5843 102.886C83.6883 102.009 85.0138 101.598 86.3849 101.758C88.7363 102.032 90.8824 99.8916 93.1231 99.4904C95.1846 99.1218 97.0767 101.03 95.9825 102.942C95.7187 103.402 92.4164 105.852 85.7368 104.866C85.004 104.759 84.3266 104.775 83.6037 105C83.4376 105.052 83.3236 105.261 83.1379 105.294C82.7439 105.362 82.4117 105.385 82.0893 105.082C81.3337 104.361 81.9525 103.389 82.5843 102.886Z" fill="#FDBCA0"/>
<path d="M126.967 49.2959C126.214 49.684 125.423 50.1212 124.684 50.5289C125.075 50.2092 127.243 47.9975 128.087 47.4528C128.178 47.394 127.963 46.497 125.745 48.2715C125.084 48.8 124.303 49.335 123.681 49.9124C124.472 48.4086 125.133 46.8851 126.169 45.5085C126.211 45.4531 126.198 45.3911 126.162 45.3487C125.951 45.1823 125.42 45.3715 125.182 45.626C124.759 46.0761 123.15 47.8181 122.368 49.6547C122.381 49.0251 122.326 48.0041 121.88 47.7953C121.6 47.6615 121.134 47.8377 120.834 47.8605C120.245 47.9029 119.473 47.9877 118.923 47.7529C118.841 47.7202 118.636 47.6941 118.711 47.9649C118.962 48.8522 120.199 48.9631 120.968 49.1588C121.228 49.7917 120.496 50.8291 120.033 51.1422C119.281 51.6544 118.183 51.152 118.372 50.1473C118.538 49.2632 119.066 48.862 118.6 47.9943C118.447 47.7072 117.789 47.4462 117.936 47.9095C118.314 49.0936 117.229 50.0886 117.089 51.2336C116.978 52.1404 117.457 52.9462 117.939 53.6736C117.91 53.7487 117.887 53.8237 117.861 53.8955C117.206 55.0307 116.698 56.2279 116.33 57.4805C117.17 57.7578 119.639 57.5817 119.629 57.5621C119.639 57.5817 119.926 55.8266 120.583 55.0861C121.303 54.2739 122.209 53.6475 123.075 53.0082C124.895 51.6609 126.745 50.3528 128.621 49.0806C128.729 49.012 128.641 48.4314 126.967 49.2959Z" fill="#FDBCA0"/>
<path d="M53.2314 49.2959C53.9837 49.684 54.775 50.1212 55.5143 50.5289C55.1235 50.2092 52.9545 47.9975 52.111 47.4528C52.0199 47.394 52.2348 46.497 54.4526 48.2715C55.1137 48.8 55.8954 49.335 56.5174 49.9124C55.726 48.4086 55.0649 46.8851 54.0293 45.5085C53.9869 45.4531 53.9999 45.3911 54.0358 45.3487C54.2475 45.1823 54.7783 45.3715 55.016 45.626C55.4394 46.0761 57.0482 47.8181 57.8299 49.6547C57.8168 49.0251 57.8722 48.0041 58.3184 47.7953C58.5984 47.6615 59.0642 47.8377 59.3638 47.8605C59.9532 47.9029 60.7251 47.9877 61.2755 47.7529C61.3569 47.7202 61.5621 47.6941 61.4872 47.9649C61.2364 48.8522 59.9988 48.9631 59.2303 49.1588C58.9697 49.7917 59.7025 50.8291 60.1649 51.1422C60.9172 51.6544 62.0148 51.152 61.8259 50.1473C61.6598 49.2632 61.1322 48.862 61.5979 47.9943C61.751 47.7072 62.4088 47.4462 62.2623 47.9095C61.8845 49.0936 62.969 50.0886 63.109 51.2336C63.2197 52.1404 62.741 52.9462 62.259 53.6736C62.2883 53.7487 62.3111 53.8237 62.3372 53.8955C62.9918 55.0307 63.4998 56.2279 63.8678 57.4805C63.0276 57.7578 60.559 57.5817 60.5688 57.5621C60.559 57.5817 60.2724 55.8266 59.6145 55.0861C58.8948 54.2739 57.9894 53.6475 57.1231 53.0082C55.3026 51.6609 53.4528 50.3528 51.5769 49.0806C51.4695 49.012 51.5574 48.4314 53.2314 49.2959Z" fill="#FDBCA0"/>
<path d="M115.451 56.3258C114.23 59.4803 110.088 71.1261 108.358 76.0649C107.329 73.4226 104.548 61.9497 102.206 48.6304C101.477 44.4908 96.8164 45.0812 94.3217 45.4955C94.1426 48.2749 91.4493 55.98 90.0033 55.9963C88.5573 55.98 85.6914 48.8196 85.6849 45.4955C83.1935 45.0812 78.5299 44.4908 77.8004 48.6304C75.4555 61.9497 72.6775 73.4259 71.6484 76.0649C69.9158 71.1261 65.7765 59.4803 64.5552 56.3258C62.9888 57.0663 61.2562 57.4741 59.5269 57.5752C60.8654 61.1407 65.2848 86.3896 71.7982 86.3896C74.6218 86.3896 76.4097 83.3852 79.2887 72.2548C79.432 74.1142 79.4808 77.6862 79.4092 81.4409C79.3571 84.1452 77.491 87.2703 74.9931 86.6669C74.4883 86.5462 73.8304 86.9278 74.4557 87.6063C74.625 87.7923 74.8432 87.9293 75.068 88.0337C79.0575 89.9257 79.2138 92.754 81.5684 94.4014C82.9916 95.3963 84.7437 95.7095 86.4144 96.0487C88.2251 96.4141 90.0912 96.6881 91.9346 96.4108C94.9991 95.9509 97.3798 93.899 99.9168 92.294C101.333 91.3969 102.773 90.6793 104.437 90.4346C108.72 89.805 108.436 86.7778 107.541 86.8397C104.541 87.0453 100.591 83.2155 100.568 79.0009C100.552 76.1954 100.607 73.7064 100.718 72.2548C103.597 83.3852 105.385 86.3896 108.208 86.3896C114.722 86.3896 119.141 61.1407 120.48 57.5752C118.75 57.4741 117.018 57.063 115.451 56.3258Z" fill="#F2EDE4"/>
<path d="M98.2202 67.3517C98.1877 67.3746 98.1616 67.3974 98.1355 67.4202C97.6047 67.9389 97.1911 68.562 96.67 69.0905C96.1489 69.6157 95.4748 70.056 94.7355 70.0528C92.9606 70.043 92.0715 67.9096 91.0033 66.8233C89.3619 65.1596 87.7694 68.9502 86.5481 69.6939C85.2943 70.4573 84.4442 69.9973 83.5193 69.0937C82.9527 68.5392 82.4707 67.9161 81.9463 67.3224C81.8096 67.1658 81.4969 67.3322 81.5816 67.5344C82.1938 69.0089 83.578 71.4555 85.405 71.4946C86.5253 71.5175 87.4437 70.8748 88.1797 70.0854C88.5412 69.6972 89.5378 67.6127 90.1859 67.8867C90.3064 67.9389 90.391 68.0466 90.4725 68.151C90.7949 68.575 91.0945 69.0219 91.4397 69.4265C91.6188 69.6352 92.1366 69.981 92.1366 70.2681C92.8694 71.0151 93.8757 71.6023 94.9146 71.4751C95.9763 71.3446 96.8166 70.5127 97.4321 69.6352C97.8685 69.0122 98.2365 68.3402 98.5264 67.6355C98.5687 67.5344 98.6045 67.4072 98.5296 67.3256C98.4482 67.2408 98.3244 67.28 98.2202 67.3517Z" fill="#D9C9AC"/>
<g clip-path="url(#clip2_1006_8458)">
<path d="M157.99 84.2946L169.135 80.5589L163.548 64.1592L152.403 67.8949C151.966 68.0406 151.729 68.5101 151.88 68.9431L156.933 83.7725C157.08 84.2056 157.553 84.4403 157.99 84.2946Z" fill="#3F4553"/>
<path d="M157.998 83.9708L169.421 80.1421L164.038 64.3454L152.615 68.1741C152.333 68.2672 152.182 68.5708 152.276 68.8541L157.312 83.6349C157.41 83.9142 157.716 84.0639 157.998 83.9708Z" fill="#DDDDE3"/>
<path d="M158.239 83.89L169.662 80.0613L164.279 64.2646L152.856 68.0933C152.574 68.1864 152.423 68.49 152.517 68.7733L157.553 83.5541C157.651 83.8334 157.957 83.9872 158.239 83.89Z" fill="#E2E5FF"/>
<path d="M158.855 84.0032L170 80.2675L164.413 63.8718L153.268 67.6075C152.831 67.7532 152.594 68.2227 152.745 68.6557L157.798 83.4851C157.945 83.9182 158.418 84.1489 158.855 84.0032Z" fill="#4E5567"/>
<path d="M163.789 64.0813L163.549 64.1616L169.136 80.5615L169.376 80.4812L163.789 64.0813Z" fill="#3F4553"/>
<path d="M165.381 76.892L165.63 76.3659L166.152 76.633L162.071 64.657C161.997 64.4465 161.814 64.4627 161.602 64.5356C161.389 64.6084 161.23 64.7056 161.304 64.916L165.381 76.892Z" fill="#93BFA8"/>
<path d="M140.338 68.4296L147.84 59.6092L146.323 58.3411L138.822 67.1614L140.338 68.4296Z" fill="#3F4553"/>
<path d="M138.821 67.1584L140.335 68.4253L138.147 69.6192C138.074 69.6597 137.976 69.5747 138 69.4978L138.821 67.1584Z" fill="#F2EDE4"/>
<path d="M138.151 69.6231L138.743 69.2994L138.229 68.8663L138.009 69.4977C137.98 69.5746 138.078 69.6596 138.151 69.6231Z" fill="#3F4553"/>
<path d="M139.836 68.0094L147.337 59.1891L146.822 58.7586L139.321 67.5789L139.836 68.0094Z" fill="#4E5567"/>
</g>
<g clip-path="url(#clip3_1006_8458)">
<path d="M57.5028 -16.6606C47.8335 -16.6606 40 -8.82713 40 0.842112C40 10.5058 47.8335 18.3449 57.5028 18.3449C67.1665 18.3449 75.0055 10.5114 75.0055 0.842112C75 -8.82713 67.1665 -16.6606 57.5028 -16.6606ZM57.5028 15.3846C49.4708 15.3846 42.9603 8.87409 42.9603 0.842112C42.9603 -7.18986 49.4708 -13.7003 57.5028 -13.7003C65.5347 -13.7003 72.0452 -7.18986 72.0452 0.842112C72.0452 8.87409 65.5347 15.3846 57.5028 15.3846Z" fill="#808AFF"/>
<path d="M70.9209 6.44907C74.0195 -0.960863 70.5244 -9.47969 63.1145 -12.5783C55.7046 -15.6769 47.1857 -12.1818 44.0872 -4.77189C40.9886 2.63804 44.4836 11.1569 51.8936 14.2555C59.3035 17.354 67.8223 13.859 70.9209 6.44907Z" fill="#AEB4FC"/>
<path d="M70.7383 0.868959C70.7383 -0.150888 69.1506 -0.156401 69.1506 0.868959C69.1506 1.89432 70.7383 1.89432 70.7383 0.868959Z" fill="#808AFF"/>
<path d="M57.469 14.0777C58.4888 14.0777 58.4943 12.49 57.469 12.49C56.4491 12.49 56.4436 14.0777 57.469 14.0777Z" fill="#808AFF"/>
<path d="M44.2618 0.809143C44.2618 1.82899 45.8495 1.8345 45.8495 0.809143C45.8495 -0.210702 44.2618 -0.216215 44.2618 0.809143Z" fill="#808AFF"/>
<path d="M63.7544 5.09236C63.6607 5.09236 63.5669 5.07031 63.4843 5.01518L57.2274 1.29413C57.0675 1.20041 56.9683 1.024 56.9683 0.836573V-9.16343C56.9683 -9.4556 57.2053 -9.69264 57.4975 -9.69264C57.7897 -9.69264 58.0267 -9.4556 58.0267 -9.16343V0.53889L64.0245 4.10559C64.2781 4.25443 64.3608 4.57968 64.2064 4.83327C64.1127 4.99865 63.9363 5.09236 63.7544 5.09236Z" fill="#808AFF"/>
</g>
<path d="M22.6207 36.7459L22.2715 34.7649L20.2463 35.11C19.925 34.1851 19.4013 33.3706 18.7239 32.7079L19.9111 31.0444L18.249 29.8917L17.0688 31.5483C16.2168 31.1342 15.2671 30.9064 14.2754 30.9133L13.9193 28.9046L11.915 29.2498L12.2642 31.2515C11.3284 31.569 10.5043 32.0867 9.83392 32.7562L8.15091 31.5828L6.98467 33.2256L8.6607 34.3921C8.24169 35.2343 8.01124 36.173 8.01822 37.1531L6 37.4983L6.34917 39.4793L8.37438 39.1342C8.69562 40.0591 9.21938 40.8736 9.89677 41.5362L8.70959 43.1997L10.3717 44.3525L11.5519 42.6959C12.4038 43.11 13.3536 43.3378 14.3452 43.3309L14.7014 45.3395L16.7057 44.9944L16.3565 42.9927C17.2923 42.6752 18.1163 42.1575 18.7867 41.4879L20.4697 42.6614L21.636 41.0186L19.96 39.852C20.379 39.0099 20.6094 38.0712 20.6024 37.091L22.6207 36.7459ZM14.6316 38.9616C13.605 39.1411 12.6273 38.4577 12.4457 37.4431C12.2642 36.4284 12.9555 35.462 13.9821 35.2826C15.0087 35.1031 15.9864 35.7865 16.1679 36.8011C16.3495 37.8158 15.6651 38.7821 14.6316 38.9616Z" fill="#9BA3FF"/>
<path d="M41.7278 32.7492V30.2574H39.1788C38.9903 29.0564 38.5224 27.952 37.838 26.9994L39.6467 25.2117L37.8659 23.4515L36.0642 25.2324C35.1074 24.549 33.9971 24.0727 32.782 23.8726V21.3394H30.2609V23.8588C29.0458 24.0451 27.9215 24.5076 26.9647 25.1841L25.156 23.3963L23.3752 25.1564L25.177 26.9373C24.4856 27.8829 24.0037 28.9804 23.8012 30.1815H21.2383V32.6733H23.7872C23.9758 33.8743 24.4437 34.9787 25.1281 35.9313L23.3194 37.719L25.1001 39.4792L26.9019 37.6983C27.8586 38.3817 28.969 38.8579 30.1841 39.0581V41.5913H32.7051V39.0719C33.9203 38.8855 35.0376 38.4231 36.0013 37.7466L37.81 39.5344L39.5908 37.7742L37.7891 35.9934C38.4805 35.0477 38.9623 33.9502 39.1648 32.7492H41.7278V32.7492ZM31.483 33.7846C30.1911 33.7846 29.1366 32.7492 29.1366 31.4653C29.1366 30.1884 30.1841 29.1461 31.483 29.1461C32.775 29.1461 33.8295 30.1815 33.8295 31.4653C33.8225 32.7423 32.775 33.7846 31.483 33.7846Z" fill="#AEB4FC"/>
<g opacity="0.3">
<path d="M159.995 14.2365L141.266 10.027C141.082 9.987 140.966 9.80355 141.009 9.6201L143.367 -0.880136C143.407 -1.06359 143.591 -1.18033 143.774 -1.13697L162.503 3.0758C162.687 3.11582 162.803 3.29928 162.76 3.48273L160.398 13.983C160.358 14.1631 160.178 14.2798 159.995 14.2365Z" fill="#ECECEC"/>
<path d="M141.319 9.78018C141.269 9.77018 141.239 9.72014 141.253 9.67345L143.614 -0.826787C143.624 -0.87682 143.674 -0.90684 143.721 -0.893498L162.45 3.31927C162.5 3.32928 162.53 3.37931 162.517 3.42601L160.155 13.9262C160.145 13.9763 160.095 14.0063 160.048 13.993L141.319 9.78018Z" fill="#F5F4F5"/>
<path d="M159.867 2.47996L146.414 -0.545364L146.359 -0.301304L159.812 2.72402L159.867 2.47996Z" fill="#706F6E"/>
<path d="M145.105 0.96433L144.485 0.824239C144.408 0.807561 144.358 0.730844 144.375 0.650791L144.471 0.213837C144.488 0.13712 144.565 0.0870878 144.645 0.103765L145.265 0.243857C145.342 0.260534 145.392 0.337252 145.375 0.417304L145.279 0.854259C145.259 0.930976 145.182 0.981008 145.105 0.96433Z" fill="#585857"/>
<path d="M144.511 0.700877C144.501 0.697541 144.494 0.687535 144.498 0.677528L144.594 0.240574C144.598 0.230568 144.608 0.223896 144.618 0.227232L145.238 0.367324C145.248 0.37066 145.255 0.380666 145.252 0.390673L145.155 0.827626C145.152 0.837633 145.142 0.844304 145.132 0.840968L144.511 0.700877Z" fill="#5E5E5D"/>
<path d="M146.242 1.21793L145.622 1.07784C145.545 1.06116 145.495 0.984445 145.512 0.904392L145.609 0.467439C145.625 0.390722 145.702 0.340689 145.782 0.357366L146.402 0.497459C146.479 0.514137 146.529 0.590854 146.512 0.670907L146.416 1.10786C146.396 1.18791 146.319 1.23461 146.242 1.21793Z" fill="#585857"/>
<path d="M145.649 0.957591C145.639 0.954255 145.632 0.944248 145.635 0.934241L145.732 0.497288C145.735 0.487281 145.745 0.48061 145.755 0.483946L146.376 0.624038C146.386 0.627374 146.392 0.63738 146.389 0.647387L146.292 1.08434C146.289 1.09435 146.279 1.10102 146.269 1.09768L145.649 0.957591Z" fill="#5E5E5D"/>
<path d="M147.38 1.47466L146.759 1.33457C146.683 1.31789 146.633 1.24117 146.649 1.16112L146.746 0.724169C146.763 0.647451 146.839 0.597418 146.92 0.614096L147.54 0.754188C147.617 0.770866 147.667 0.847583 147.65 0.927636L147.553 1.36459C147.533 1.44131 147.457 1.49134 147.38 1.47466Z" fill="#585857"/>
<path d="M146.786 1.21119C146.776 1.20786 146.769 1.19785 146.773 1.18784L146.87 0.750889C146.873 0.740883 146.883 0.734211 146.893 0.737547L147.513 0.877639C147.523 0.880975 147.53 0.890981 147.527 0.900988L147.43 1.33794C147.427 1.34795 147.417 1.35462 147.407 1.35128L146.786 1.21119Z" fill="#5E5E5D"/>
<path d="M148.517 1.72803L147.897 1.58794C147.82 1.57126 147.77 1.49455 147.787 1.41449L147.884 0.977539C147.9 0.900822 147.977 0.85079 148.057 0.867468L148.677 1.00756C148.754 1.02424 148.804 1.10095 148.787 1.18101L148.691 1.61796C148.671 1.69801 148.594 1.74805 148.517 1.72803Z" fill="#585857"/>
<path d="M147.924 1.46792C147.914 1.46459 147.907 1.45458 147.91 1.44457L148.007 1.00762C148.01 0.997612 148.02 0.99094 148.03 0.994276L148.651 1.13437C148.661 1.1377 148.667 1.14771 148.664 1.15772L148.567 1.59467C148.564 1.60468 148.554 1.61135 148.544 1.60801L147.924 1.46792Z" fill="#5E5E5D"/>
<path d="M149.651 1.98499L149.031 1.8449C148.954 1.82822 148.904 1.7515 148.921 1.67145L149.018 1.2345C149.034 1.15778 149.111 1.10775 149.191 1.12443L149.811 1.26452C149.888 1.28119 149.938 1.35791 149.921 1.43796L149.825 1.87492C149.808 1.95497 149.731 2.00167 149.651 1.98499Z" fill="#585857"/>
<path d="M149.061 1.72486C149.051 1.72153 149.044 1.71152 149.048 1.70152L149.145 1.26456C149.148 1.25455 149.158 1.24788 149.168 1.25122L149.788 1.39131C149.798 1.39465 149.805 1.40465 149.802 1.41466L149.705 1.85161C149.702 1.86162 149.692 1.86829 149.682 1.86496L149.061 1.72486Z" fill="#5E5E5D"/>
<path d="M150.789 2.24171L150.168 2.10161C150.092 2.08494 150.042 2.00822 150.058 1.92817L150.155 1.49121C150.172 1.4145 150.248 1.36446 150.329 1.38114L150.949 1.52123C151.026 1.53791 151.076 1.61463 151.059 1.69468L150.962 2.13163C150.946 2.20835 150.869 2.25838 150.789 2.24171Z" fill="#585857"/>
<path d="M150.198 1.97823C150.188 1.9749 150.182 1.96489 150.185 1.95489L150.282 1.51793C150.285 1.50793 150.295 1.50126 150.305 1.50459L150.925 1.64468C150.935 1.64802 150.942 1.65802 150.939 1.66803L150.842 2.10499C150.839 2.11499 150.829 2.12166 150.819 2.11833L150.198 1.97823Z" fill="#5E5E5D"/>
<path d="M151.926 2.49531L151.306 2.35521C151.229 2.33854 151.179 2.26182 151.196 2.18177L151.293 1.74481C151.309 1.6681 151.386 1.61806 151.466 1.63474L152.086 1.77483C152.163 1.79151 152.213 1.86823 152.196 1.94828L152.1 2.38523C152.083 2.46529 152.003 2.51532 151.926 2.49531Z" fill="#585857"/>
<path d="M151.336 2.23519C151.326 2.23186 151.319 2.22185 151.322 2.21184L151.419 1.77489C151.422 1.76488 151.432 1.75821 151.442 1.76155L152.063 1.90164C152.073 1.90498 152.08 1.91498 152.076 1.92499L151.979 2.36194C151.976 2.37195 151.966 2.37862 151.956 2.37529L151.336 2.23519Z" fill="#5E5E5D"/>
<path d="M153.064 2.75225L152.443 2.61216C152.367 2.59548 152.317 2.51876 152.333 2.43871L152.43 2.00176C152.447 1.92504 152.523 1.87501 152.604 1.89168L153.224 2.03177C153.301 2.04845 153.351 2.12517 153.334 2.20522L153.237 2.64218C153.217 2.72223 153.141 2.76893 153.064 2.75225Z" fill="#585857"/>
<path d="M152.473 2.49191C152.463 2.48857 152.457 2.47857 152.46 2.46856L152.557 2.03161C152.56 2.0216 152.57 2.01493 152.58 2.01826L153.2 2.15836C153.21 2.16169 153.217 2.1717 153.214 2.1817L153.117 2.61866C153.114 2.62866 153.104 2.63533 153.094 2.632L152.473 2.49191Z" fill="#5E5E5D"/>
<path d="M154.201 3.00898L153.581 2.86889C153.504 2.85221 153.454 2.77549 153.471 2.69544L153.568 2.25848C153.584 2.18177 153.661 2.13174 153.741 2.14841L154.362 2.2885C154.438 2.30518 154.488 2.3819 154.472 2.46195L154.375 2.89891C154.355 2.97562 154.278 3.02566 154.201 3.00898Z" fill="#585857"/>
<path d="M153.607 2.74551C153.597 2.74217 153.591 2.73217 153.594 2.72216L153.691 2.28521C153.694 2.2752 153.704 2.26853 153.714 2.27186L154.334 2.41196C154.344 2.41529 154.351 2.4253 154.348 2.4353L154.251 2.87226C154.248 2.88226 154.238 2.88894 154.228 2.8856L153.607 2.74551Z" fill="#5E5E5D"/>
<path d="M155.338 3.26258L154.718 3.12249C154.641 3.10581 154.591 3.02909 154.608 2.94904L154.705 2.51209C154.721 2.43537 154.798 2.38534 154.878 2.40201L155.499 2.54211C155.575 2.55878 155.625 2.6355 155.609 2.71555L155.512 3.15251C155.492 3.23256 155.415 3.28259 155.338 3.26258Z" fill="#585857"/>
<path d="M154.745 3.00245C154.735 2.99911 154.728 2.98911 154.731 2.9791L154.828 2.54215C154.831 2.53214 154.841 2.52547 154.851 2.52881L155.472 2.6689C155.482 2.67223 155.489 2.68224 155.485 2.69225L155.388 3.1292C155.385 3.13921 155.375 3.14588 155.365 3.14254L154.745 3.00245Z" fill="#5E5E5D"/>
<path d="M156.476 3.51931L155.856 3.37922C155.779 3.36254 155.729 3.28582 155.746 3.20577L155.842 2.76881C155.859 2.6921 155.936 2.64207 156.016 2.65874L156.636 2.79883C156.713 2.81551 156.763 2.89223 156.746 2.97228L156.649 3.40924C156.629 3.48929 156.553 3.53599 156.476 3.51931Z" fill="#585857"/>
<path d="M155.882 3.25918C155.872 3.25584 155.865 3.24584 155.868 3.23583L155.965 2.79888C155.969 2.78887 155.979 2.7822 155.989 2.78554L156.609 2.92563C156.619 2.92896 156.626 2.93897 156.622 2.94898L156.526 3.38593C156.522 3.39594 156.512 3.40261 156.502 3.39927L155.882 3.25918Z" fill="#5E5E5D"/>
<path d="M157.613 3.77625L156.993 3.63616C156.916 3.61948 156.866 3.54276 156.883 3.46271L156.979 3.02576C156.996 2.94904 157.073 2.89901 157.153 2.91569L157.773 3.05578C157.85 3.07245 157.9 3.14917 157.883 3.22922L157.786 3.66618C157.766 3.7429 157.69 3.79293 157.613 3.77625Z" fill="#585857"/>
<path d="M157.019 3.51255C157.009 3.50922 157.003 3.49921 157.006 3.4892L157.103 3.05225C157.106 3.04224 157.116 3.03557 157.126 3.03891L157.746 3.179C157.756 3.18234 157.763 3.19234 157.76 3.20235L157.663 3.6393C157.66 3.64931 157.65 3.65598 157.64 3.65264L157.019 3.51255Z" fill="#5E5E5D"/>
<path d="M158.751 4.02962L158.13 3.88953C158.053 3.87285 158.003 3.79614 158.02 3.71608L158.117 3.27913C158.134 3.20241 158.21 3.15238 158.29 3.16906L158.911 3.30915C158.987 3.32583 159.037 3.40255 159.021 3.4826L158.924 3.91955C158.904 3.9996 158.827 4.04964 158.751 4.02962Z" fill="#585857"/>
<path d="M158.157 3.76951C158.147 3.76617 158.14 3.75617 158.144 3.74616L158.24 3.30921C158.244 3.2992 158.254 3.29253 158.264 3.29587L158.884 3.43596C158.894 3.43929 158.901 3.4493 158.897 3.45931L158.801 3.89626C158.797 3.90627 158.787 3.91294 158.777 3.9096L158.157 3.76951Z" fill="#5E5E5D"/>
<path d="M159.888 4.28635L159.268 4.14626C159.191 4.12958 159.141 4.05287 159.158 3.97281L159.254 3.53586C159.271 3.45914 159.348 3.40911 159.428 3.42579L160.048 3.56588C160.125 3.58256 160.175 3.65927 160.158 3.73933L160.062 4.17628C160.042 4.25633 159.965 4.30303 159.888 4.28635Z" fill="#585857"/>
<path d="M159.294 4.02645C159.284 4.02312 159.278 4.01311 159.281 4.0031L159.378 3.56615C159.381 3.55614 159.391 3.54947 159.401 3.55281L160.022 3.6929C160.032 3.69624 160.038 3.70624 160.035 3.71625L159.938 4.1532C159.935 4.16321 159.925 4.16988 159.915 4.16655L159.294 4.02645Z" fill="#5E5E5D"/>
<path d="M161.022 4.5433L160.402 4.4032C160.325 4.38653 160.275 4.30981 160.292 4.22976L160.388 3.7928C160.405 3.71609 160.482 3.66605 160.562 3.68273L161.182 3.82282C161.259 3.8395 161.309 3.91622 161.292 3.99627L161.195 4.43322C161.179 4.50994 161.102 4.55997 161.022 4.5433Z" fill="#585857"/>
<path d="M160.432 4.27983C160.422 4.27649 160.415 4.26648 160.419 4.25648L160.515 3.81952C160.519 3.80952 160.529 3.80285 160.539 3.80618L161.159 3.94627C161.169 3.94961 161.176 3.95962 161.172 3.96962L161.076 4.40657C161.072 4.41658 161.062 4.42325 161.052 4.41992L160.432 4.27983Z" fill="#5E5E5D"/>
<path d="M144.471 0.974454L145.238 1.1479C145.325 1.16792 145.382 1.25464 145.362 1.3447L145.192 2.09853C145.172 2.18525 145.085 2.24195 144.995 2.22194L144.228 2.04849C144.141 2.02848 144.084 1.94176 144.104 1.8517L144.274 1.09787C144.294 1.01114 144.381 0.954441 144.471 0.974454Z" fill="#585857"/>
<path d="M144.258 1.92484C144.238 1.9215 144.225 1.89815 144.228 1.87814L144.398 1.12431C144.401 1.1043 144.425 1.09096 144.445 1.09429L145.212 1.26774C145.232 1.27107 145.245 1.29442 145.242 1.31444L145.072 2.06826C145.068 2.08828 145.045 2.10162 145.025 2.09828L144.258 1.92484Z" fill="#5E5E5D"/>
<path d="M145.782 1.27105L146.549 1.4445C146.636 1.46451 146.692 1.55124 146.672 1.6413L146.502 2.39512C146.482 2.48185 146.396 2.53855 146.305 2.51854L145.538 2.34509C145.452 2.32508 145.395 2.23836 145.415 2.1483L145.585 1.39447C145.605 1.30441 145.692 1.25104 145.782 1.27105Z" fill="#585857"/>
<path d="M145.569 2.2217C145.549 2.21836 145.535 2.19501 145.539 2.175L145.709 1.42117C145.712 1.40116 145.735 1.38782 145.755 1.39115L146.523 1.5646C146.543 1.56793 146.556 1.59128 146.553 1.6113L146.382 2.36512C146.379 2.38514 146.356 2.39848 146.336 2.39514L145.569 2.2217Z" fill="#5E5E5D"/>
<path d="M147.093 1.56485L147.861 1.73829C147.947 1.75831 148.004 1.84503 147.984 1.93509L147.814 2.68892C147.794 2.77564 147.707 2.83235 147.617 2.81233L146.85 2.63889C146.763 2.61887 146.706 2.53215 146.726 2.44209L146.897 1.68826C146.917 1.60154 147.007 1.54483 147.093 1.56485Z" fill="#585857"/>
<path d="M146.88 2.51523C146.86 2.5119 146.846 2.48855 146.85 2.46853L147.02 1.7147C147.023 1.69469 147.046 1.68135 147.066 1.68468L147.834 1.85813C147.854 1.86147 147.867 1.88482 147.864 1.90483L147.694 2.65866C147.69 2.67867 147.667 2.69201 147.647 2.68868L146.88 2.51523Z" fill="#5E5E5D"/>
<path d="M148.404 1.85838L149.171 2.03183C149.258 2.05184 149.315 2.13857 149.295 2.22862L149.124 2.98245C149.104 3.06918 149.018 3.12588 148.928 3.10587L148.16 2.93242C148.074 2.91241 148.017 2.82568 148.037 2.73562L148.207 1.9818C148.227 1.89507 148.317 1.83837 148.404 1.85838Z" fill="#585857"/>
<path d="M148.191 2.8121C148.171 2.80877 148.157 2.78542 148.161 2.76541L148.331 2.01158C148.334 1.99157 148.357 1.97822 148.377 1.98156L149.145 2.15501C149.165 2.15834 149.178 2.18169 149.175 2.2017L149.005 2.95553C149.001 2.97555 148.978 2.98889 148.958 2.98555L148.191 2.8121Z" fill="#5E5E5D"/>
<path d="M149.715 2.15519L150.482 2.32864C150.568 2.34865 150.625 2.43538 150.605 2.52544L150.435 3.27927C150.415 3.36599 150.328 3.42269 150.238 3.40268L149.471 3.22923C149.384 3.20922 149.328 3.1225 149.348 3.03244L149.518 2.27861C149.541 2.18855 149.628 2.13518 149.715 2.15519Z" fill="#585857"/>
<path d="M149.501 3.10562C149.481 3.10229 149.468 3.07894 149.471 3.05893L149.641 2.3051C149.645 2.28508 149.668 2.27174 149.688 2.27508L150.455 2.44852C150.475 2.45186 150.489 2.47521 150.485 2.49522L150.315 3.24905C150.312 3.26906 150.288 3.28241 150.268 3.27907L149.501 3.10562Z" fill="#5E5E5D"/>
<path d="M151.026 2.44877L151.793 2.62222C151.879 2.64223 151.936 2.72896 151.916 2.81902L151.746 3.57285C151.726 3.65957 151.639 3.71627 151.549 3.69626L150.782 3.52281C150.695 3.5028 150.639 3.41608 150.659 3.32602L150.829 2.57219C150.852 2.48546 150.939 2.42876 151.026 2.44877Z" fill="#585857"/>
<path d="M150.812 3.39937C150.792 3.39604 150.779 3.37269 150.782 3.35267L150.952 2.59884C150.955 2.57883 150.979 2.56549 150.999 2.56882L151.766 2.74227C151.786 2.74561 151.799 2.76896 151.796 2.78897L151.626 3.5428C151.622 3.56281 151.599 3.57615 151.579 3.57282L150.812 3.39937Z" fill="#5E5E5D"/>
<path d="M152.337 2.74537L153.104 2.91882C153.191 2.93883 153.247 3.02556 153.227 3.11562L153.057 3.86944C153.037 3.95617 152.95 4.01287 152.86 3.99286L152.093 3.81941C152.006 3.7994 151.95 3.71267 151.97 3.62262L152.14 2.86879C152.163 2.77873 152.25 2.72536 152.337 2.74537Z" fill="#585857"/>
<path d="M152.123 3.69602C152.103 3.69268 152.09 3.66933 152.093 3.64932L152.263 2.89549C152.266 2.87548 152.29 2.86214 152.31 2.86547L153.077 3.03892C153.097 3.04225 153.11 3.0656 153.107 3.08562L152.937 3.83944C152.933 3.85946 152.91 3.8728 152.89 3.86946L152.123 3.69602Z" fill="#5E5E5D"/>
<path d="M153.651 3.03917L154.418 3.21261C154.505 3.23263 154.561 3.31935 154.541 3.40941L154.371 4.16324C154.351 4.24996 154.265 4.30667 154.175 4.28665L153.407 4.11321C153.321 4.09319 153.264 4.00647 153.284 3.91641L153.454 3.16258C153.474 3.07586 153.561 3.01915 153.651 3.03917Z" fill="#585857"/>
<path d="M153.434 3.98976C153.414 3.98643 153.401 3.96308 153.404 3.94307L153.574 3.18924C153.577 3.16922 153.601 3.15588 153.621 3.15922L154.388 3.33266C154.408 3.336 154.421 3.35935 154.418 3.37936L154.248 4.13319C154.245 4.1532 154.221 4.16655 154.201 4.16321L153.434 3.98976Z" fill="#5E5E5D"/>
<path d="M154.961 3.33247L155.729 3.50592C155.815 3.52593 155.872 3.61266 155.852 3.70271L155.682 4.45654C155.662 4.54327 155.575 4.59997 155.485 4.57996L154.718 4.40651C154.631 4.3865 154.574 4.29977 154.594 4.20971L154.765 3.45589C154.785 3.36916 154.871 3.31246 154.961 3.33247Z" fill="#585857"/>
<path d="M154.748 4.28641C154.728 4.28307 154.715 4.25972 154.718 4.23971L154.888 3.48588C154.892 3.46587 154.915 3.45253 154.935 3.45586L155.702 3.62931C155.722 3.63265 155.735 3.656 155.732 3.67601L155.562 4.42984C155.559 4.44985 155.535 4.46319 155.515 4.45986L154.748 4.28641Z" fill="#5E5E5D"/>
<path d="M156.272 3.62951L157.04 3.80296C157.126 3.82297 157.183 3.9097 157.163 3.99976L156.993 4.75358C156.973 4.84031 156.886 4.89701 156.796 4.877L156.029 4.70355C155.942 4.68354 155.886 4.59681 155.906 4.50676L156.076 3.75293C156.096 3.66287 156.182 3.6095 156.272 3.62951Z" fill="#585857"/>
<path d="M156.059 4.58017C156.039 4.57684 156.025 4.55349 156.029 4.53347L156.199 3.77965C156.202 3.75963 156.226 3.74629 156.246 3.74963L157.013 3.92307C157.033 3.92641 157.046 3.94976 157.043 3.96977L156.873 4.7236C156.869 4.74361 156.846 4.75695 156.826 4.75362L156.059 4.58017Z" fill="#5E5E5D"/>
<path d="M157.583 3.92286L158.35 4.09631C158.437 4.11633 158.494 4.20305 158.474 4.29311L158.304 5.04694C158.284 5.13366 158.197 5.19036 158.107 5.17035L157.343 4.9969C157.256 4.97689 157.2 4.89017 157.22 4.80011L157.39 4.04628C157.407 3.95955 157.493 3.90285 157.583 3.92286Z" fill="#585857"/>
<path d="M157.37 4.87369C157.35 4.87035 157.336 4.847 157.34 4.82699L157.51 4.07316C157.513 4.05315 157.537 4.03981 157.557 4.04314L158.324 4.21659C158.344 4.21993 158.357 4.24328 158.354 4.26329L158.18 5.01712C158.177 5.03713 158.154 5.05047 158.134 5.04714L157.37 4.87369Z" fill="#5E5E5D"/>
<path d="M158.894 4.21991L159.661 4.39335C159.748 4.41337 159.805 4.50009 159.785 4.59015L159.615 5.34398C159.595 5.4307 159.508 5.4874 159.418 5.46739L158.651 5.29394C158.564 5.27393 158.507 5.18721 158.527 5.09715L158.697 4.34332C158.717 4.25326 158.807 4.19989 158.894 4.21991Z" fill="#585857"/>
<path d="M158.681 5.17056C158.661 5.16723 158.648 5.14388 158.651 5.12387L158.821 4.37004C158.824 4.35003 158.848 4.33668 158.868 4.34002L159.635 4.51347C159.655 4.5168 159.668 4.54015 159.665 4.56016L159.495 5.31399C159.491 5.334 159.468 5.34735 159.448 5.34401L158.681 5.17056Z" fill="#5E5E5D"/>
<path d="M160.205 4.51327L160.972 4.68672C161.059 4.70673 161.115 4.79346 161.095 4.88351L160.925 5.63734C160.905 5.72407 160.818 5.78077 160.728 5.76076L159.961 5.58731C159.875 5.5673 159.818 5.48057 159.838 5.39051L160.011 4.63669C160.028 4.54996 160.118 4.49326 160.205 4.51327Z" fill="#585857"/>
<path d="M159.991 5.46408C159.971 5.46075 159.958 5.4374 159.961 5.41739L160.132 4.66356C160.135 4.64354 160.158 4.6302 160.178 4.63354L160.945 4.80698C160.965 4.81032 160.979 4.83367 160.975 4.85368L160.805 5.60751C160.802 5.62752 160.779 5.64087 160.759 5.63753L159.991 5.46408Z" fill="#5E5E5D"/>
<path d="M144.194 2.19517L144.961 2.36862C145.048 2.38863 145.105 2.47536 145.085 2.56542L144.915 3.31924C144.895 3.40597 144.808 3.46267 144.718 3.44266L143.951 3.26921C143.864 3.2492 143.807 3.16247 143.827 3.07241L144.001 2.31859C144.021 2.23186 144.108 2.17516 144.194 2.19517Z" fill="#585857"/>
<path d="M143.981 3.14577C143.961 3.14243 143.948 3.11908 143.951 3.09907L144.121 2.34524C144.124 2.32523 144.148 2.31189 144.168 2.31522L144.935 2.48867C144.955 2.49201 144.968 2.51535 144.965 2.53537L144.795 3.2892C144.792 3.30921 144.768 3.32255 144.748 3.31922L143.981 3.14577Z" fill="#5E5E5D"/>
<path d="M145.509 2.49198L146.276 2.66543C146.363 2.68545 146.419 2.77217 146.399 2.86223L146.229 3.61606C146.209 3.70278 146.123 3.75948 146.032 3.73947L145.265 3.56602C145.179 3.54601 145.122 3.45929 145.142 3.36923L145.312 2.6154C145.332 2.52534 145.419 2.47197 145.509 2.49198Z" fill="#585857"/>
<path d="M145.292 3.44264C145.272 3.43931 145.259 3.41596 145.262 3.39595L145.432 2.64212C145.435 2.6221 145.459 2.60876 145.479 2.6121L146.246 2.78555C146.266 2.78888 146.279 2.81223 146.276 2.83224L146.106 3.58607C146.103 3.60608 146.079 3.61943 146.059 3.61609L145.292 3.44264Z" fill="#5E5E5D"/>
<path d="M146.819 2.78557L147.587 2.95901C147.673 2.97903 147.73 3.06575 147.71 3.15581L147.54 3.90964C147.52 3.99636 147.433 4.05306 147.343 4.03305L146.576 3.8596C146.489 3.83959 146.432 3.75287 146.453 3.66281L146.623 2.90898C146.643 2.82226 146.729 2.76555 146.819 2.78557Z" fill="#585857"/>
<path d="M146.606 3.73616C146.586 3.73283 146.573 3.70948 146.576 3.68947L146.746 2.93564C146.75 2.91562 146.773 2.90228 146.793 2.90562L147.56 3.07906C147.58 3.0824 147.593 3.10575 147.59 3.12576L147.42 3.87959C147.417 3.8996 147.393 3.91295 147.373 3.90961L146.606 3.73616Z" fill="#5E5E5D"/>
<path d="M148.13 3.0791L148.897 3.25255C148.984 3.27256 149.041 3.35928 149.021 3.44934L148.851 4.20317C148.83 4.2899 148.744 4.3466 148.654 4.32659L147.887 4.15314C147.8 4.13313 147.743 4.0464 147.763 3.95634L147.933 3.20251C147.953 3.11579 148.04 3.05909 148.13 3.0791Z" fill="#585857"/>
<path d="M147.917 4.0297C147.897 4.02636 147.883 4.00301 147.887 3.983L148.057 3.22917C148.06 3.20916 148.084 3.19581 148.104 3.19915L148.871 3.3726C148.891 3.37593 148.904 3.39928 148.901 3.41929L148.731 4.17312C148.727 4.19314 148.704 4.20648 148.684 4.20314L147.917 4.0297Z" fill="#5E5E5D"/>
<path d="M149.442 3.37591L150.209 3.54936C150.295 3.56937 150.352 3.65609 150.332 3.74615L150.162 4.49998C150.142 4.58671 150.055 4.64341 149.965 4.6234L149.198 4.44995C149.111 4.42994 149.055 4.34321 149.075 4.25315L149.245 3.49933C149.265 3.40927 149.355 3.3559 149.442 3.37591Z" fill="#585857"/>
<path d="M149.228 4.32657C149.208 4.32324 149.194 4.29989 149.198 4.27987L149.368 3.52604C149.371 3.50603 149.395 3.49269 149.415 3.49602L150.182 3.66947C150.202 3.67281 150.215 3.69616 150.212 3.71617L150.042 4.47C150.038 4.49001 150.015 4.50335 149.995 4.50002L149.228 4.32657Z" fill="#5E5E5D"/>
<path d="M150.752 3.66926L151.519 3.84271C151.606 3.86272 151.663 3.94945 151.643 4.03951L151.473 4.79334C151.453 4.88006 151.366 4.93676 151.276 4.91675L150.509 4.7433C150.422 4.72329 150.365 4.63657 150.385 4.54651L150.555 3.79268C150.575 3.70596 150.665 3.64925 150.752 3.66926Z" fill="#585857"/>
<path d="M150.539 4.62009C150.519 4.61675 150.506 4.5934 150.509 4.57339L150.679 3.81956C150.682 3.79955 150.706 3.78621 150.726 3.78954L151.493 3.96299C151.513 3.96633 151.526 3.98967 151.523 4.00969L151.353 4.76352C151.349 4.78353 151.326 4.79687 151.306 4.79354L150.539 4.62009Z" fill="#5E5E5D"/>
<path d="M152.063 3.9663L152.83 4.13975C152.917 4.15976 152.973 4.24649 152.953 4.33655L152.783 5.09038C152.763 5.1771 152.677 5.2338 152.586 5.21379L151.819 5.04034C151.733 5.02033 151.676 4.93361 151.696 4.84355L151.866 4.08972C151.889 3.99966 151.976 3.94629 152.063 3.9663Z" fill="#585857"/>
<path d="M151.85 4.91696C151.829 4.91363 151.816 4.89028 151.819 4.87027L151.99 4.11644C151.993 4.09642 152.016 4.08308 152.036 4.08642L152.803 4.25987C152.823 4.2632 152.837 4.28655 152.833 4.30656L152.663 5.06039C152.66 5.0804 152.637 5.09375 152.617 5.09041L151.85 4.91696Z" fill="#5E5E5D"/>
<path d="M153.374 4.25967L154.141 4.43312C154.228 4.45313 154.284 4.53986 154.264 4.62992L154.094 5.38374C154.074 5.47047 153.988 5.52717 153.897 5.50716L153.13 5.33371C153.044 5.3137 152.987 5.22697 153.007 5.13692L153.177 4.38309C153.2 4.29636 153.287 4.23966 153.374 4.25967Z" fill="#585857"/>
<path d="M153.16 5.21048C153.14 5.20715 153.127 5.1838 153.13 5.16378L153.3 4.40996C153.304 4.38994 153.327 4.3766 153.347 4.37994L154.114 4.55338C154.134 4.55672 154.147 4.58007 154.144 4.60008L153.974 5.35391C153.971 5.37392 153.947 5.38726 153.927 5.38393L153.16 5.21048Z" fill="#5E5E5D"/>
<path d="M154.685 4.55342L155.452 4.72687C155.539 4.74688 155.595 4.8336 155.575 4.92366L155.405 5.67749C155.385 5.76421 155.299 5.82092 155.209 5.8009L154.441 5.62746C154.355 5.60744 154.298 5.52072 154.318 5.43066L154.488 4.67683C154.511 4.59011 154.598 4.53341 154.685 4.55342Z" fill="#585857"/>
<path d="M154.471 5.50401C154.451 5.50068 154.438 5.47733 154.441 5.45732L154.611 4.70349C154.615 4.68348 154.638 4.67013 154.658 4.67347L155.425 4.84692C155.445 4.85025 155.458 4.8736 155.455 4.89361L155.285 5.64744C155.282 5.66745 155.258 5.6808 155.238 5.67746L154.471 5.50401Z" fill="#5E5E5D"/>
<path d="M155.995 4.85023L156.763 5.02368C156.849 5.04369 156.906 5.13041 156.886 5.22047L156.716 5.9743C156.696 6.06103 156.609 6.11773 156.519 6.09772L155.752 5.92427C155.665 5.90426 155.609 5.81753 155.629 5.72747L155.799 4.97364C155.822 4.88359 155.909 4.83022 155.995 4.85023Z" fill="#585857"/>
<path d="M155.782 5.80087C155.762 5.79754 155.749 5.77419 155.752 5.75418L155.922 5.00035C155.926 4.98034 155.949 4.96699 155.969 4.97033L156.736 5.14378C156.756 5.14711 156.769 5.17046 156.766 5.19047L156.596 5.9443C156.593 5.96431 156.569 5.97766 156.549 5.97432L155.782 5.80087Z" fill="#5E5E5D"/>
<path d="M157.31 5.14381L158.077 5.31726C158.163 5.33727 158.22 5.424 158.2 5.51406L158.03 6.26788C158.01 6.35461 157.923 6.41131 157.833 6.3913L157.066 6.21785C156.979 6.19784 156.923 6.11111 156.943 6.02105L157.113 5.26723C157.133 5.1805 157.22 5.1238 157.31 5.14381Z" fill="#585857"/>
<path d="M157.093 6.09441C157.073 6.09107 157.059 6.06772 157.063 6.04771L157.233 5.29388C157.236 5.27387 157.26 5.26053 157.28 5.26386L158.047 5.43731C158.067 5.44064 158.08 5.46399 158.077 5.48401L157.907 6.23783C157.903 6.25785 157.88 6.27119 157.86 6.26785L157.093 6.09441Z" fill="#5E5E5D"/>
<path d="M158.621 5.44062L159.388 5.61407C159.475 5.63408 159.531 5.72081 159.511 5.81087L159.341 6.5647C159.321 6.65142 159.234 6.70812 159.144 6.68811L158.377 6.51466C158.29 6.49465 158.234 6.40793 158.254 6.31787L158.424 5.56404C158.444 5.47398 158.531 5.42061 158.621 5.44062Z" fill="#585857"/>
<path d="M158.407 6.39128C158.387 6.38795 158.374 6.3646 158.377 6.34459L158.548 5.59076C158.551 5.57074 158.574 5.5574 158.594 5.56074L159.361 5.73418C159.381 5.73752 159.395 5.76087 159.391 5.78088L159.221 6.53471C159.218 6.55472 159.195 6.56807 159.175 6.56473L158.407 6.39128Z" fill="#5E5E5D"/>
<path d="M159.932 5.7342L160.699 5.90765C160.786 5.92766 160.842 6.01439 160.822 6.10445L160.652 6.85828C160.632 6.945 160.545 7.0017 160.455 6.98169L159.688 6.80824C159.602 6.78823 159.545 6.70151 159.565 6.61145L159.735 5.85762C159.755 5.7709 159.842 5.71419 159.932 5.7342Z" fill="#585857"/>
<path d="M159.718 6.6848C159.698 6.68147 159.685 6.65812 159.688 6.6381L159.858 5.88428C159.861 5.86426 159.885 5.85092 159.905 5.85426L160.672 6.0277C160.692 6.03104 160.705 6.05439 160.702 6.0744L160.532 6.82823C160.529 6.84824 160.505 6.86158 160.485 6.85825L159.718 6.6848Z" fill="#5E5E5D"/>
<path d="M143.921 3.41589L144.688 3.58934C144.775 3.60935 144.832 3.69608 144.812 3.78613L144.642 4.53996C144.622 4.62669 144.535 4.68339 144.445 4.66338L143.678 4.48993C143.591 4.46992 143.534 4.38319 143.554 4.29313L143.724 3.53931C143.748 3.45258 143.835 3.39588 143.921 3.41589Z" fill="#585857"/>
<path d="M143.707 4.36649C143.687 4.36315 143.674 4.3398 143.677 4.31979L143.848 3.56596C143.851 3.54595 143.874 3.53261 143.894 3.53594L144.661 3.70939C144.681 3.71272 144.695 3.73607 144.691 3.75609L144.521 4.50991C144.518 4.52993 144.495 4.54327 144.475 4.53993L143.707 4.36649Z" fill="#5E5E5D"/>
<path d="M145.232 3.70933L145.999 3.88277C146.086 3.90279 146.142 3.98951 146.122 4.07957L145.952 4.8334C145.932 4.92012 145.846 4.97683 145.756 4.95681L144.988 4.78336C144.902 4.76335 144.845 4.67663 144.865 4.58657L145.035 3.83274C145.058 3.74602 145.145 3.69265 145.232 3.70933Z" fill="#585857"/>
<path d="M145.019 4.66358C144.999 4.66024 144.985 4.63689 144.989 4.61688L145.159 3.86305C145.162 3.84304 145.185 3.82969 145.205 3.83303L145.973 4.00648C145.993 4.00981 146.006 4.03316 146.003 4.05317L145.832 4.807C145.829 4.82702 145.806 4.84036 145.786 4.83702L145.019 4.66358Z" fill="#5E5E5D"/>
<path d="M146.542 4.00628L147.31 4.17973C147.396 4.19974 147.453 4.28647 147.433 4.37653L147.263 5.13036C147.243 5.21708 147.156 5.27378 147.066 5.25377L146.299 5.08032C146.212 5.06031 146.156 4.97359 146.176 4.88353L146.346 4.1297C146.369 4.04297 146.456 3.98627 146.542 4.00628Z" fill="#585857"/>
<path d="M146.329 4.95688C146.309 4.95354 146.296 4.9302 146.299 4.91018L146.469 4.15635C146.473 4.13634 146.496 4.123 146.516 4.12633L147.283 4.29978C147.303 4.30312 147.316 4.32647 147.313 4.34648L147.143 5.10031C147.14 5.12032 147.116 5.13366 147.096 5.13033L146.329 4.95688Z" fill="#5E5E5D"/>
<path d="M147.857 4.29982L148.624 4.47326C148.711 4.49328 148.768 4.58 148.748 4.67006L148.577 5.42389C148.557 5.51061 148.471 5.56732 148.381 5.5473L147.614 5.37386C147.527 5.35384 147.47 5.26712 147.49 5.17706L147.66 4.42323C147.68 4.33651 147.767 4.2798 147.857 4.29982Z" fill="#585857"/>
<path d="M147.64 5.25041C147.62 5.24708 147.607 5.22373 147.61 5.20372L147.78 4.44989C147.784 4.42987 147.807 4.41653 147.827 4.41987L148.594 4.59332C148.614 4.59665 148.628 4.62 148.624 4.64001L148.454 5.39384C148.451 5.41386 148.427 5.4272 148.407 5.42386L147.64 5.25041Z" fill="#5E5E5D"/>
<path d="M149.168 4.59684L149.935 4.77029C150.022 4.7903 150.078 4.87703 150.058 4.96709L149.888 5.72091C149.868 5.80764 149.781 5.86434 149.691 5.84433L148.924 5.67088C148.837 5.65087 148.781 5.56414 148.801 5.47409L148.971 4.72026C148.991 4.6302 149.078 4.57683 149.168 4.59684Z" fill="#585857"/>
<path d="M148.954 5.54727C148.934 5.54394 148.921 5.52059 148.924 5.50058L149.094 4.74675C149.098 4.72673 149.121 4.71339 149.141 4.71673L149.908 4.89018C149.928 4.89351 149.942 4.91686 149.938 4.93687L149.768 5.6907C149.765 5.71071 149.742 5.72406 149.722 5.72072L148.954 5.54727Z" fill="#5E5E5D"/>
<path d="M150.479 4.89021L151.246 5.06366C151.333 5.08367 151.389 5.17039 151.369 5.26045L151.199 6.01428C151.179 6.10101 151.092 6.15771 151.002 6.1377L150.235 5.96425C150.148 5.94424 150.092 5.85751 150.112 5.76745L150.282 5.01363C150.302 4.9269 150.389 4.8702 150.479 4.89021Z" fill="#585857"/>
<path d="M150.265 5.84081C150.245 5.83747 150.232 5.81412 150.235 5.79411L150.405 5.04028C150.408 5.02027 150.432 5.00693 150.452 5.01026L151.219 5.18371C151.239 5.18704 151.252 5.21039 151.249 5.23041L151.079 5.98424C151.075 6.00425 151.052 6.01759 151.032 6.01425L150.265 5.84081Z" fill="#5E5E5D"/>
<path d="M151.79 5.18365L152.557 5.35709C152.644 5.37711 152.7 5.46383 152.68 5.55389L152.51 6.30772C152.49 6.39444 152.403 6.45115 152.313 6.43113L151.546 6.25769C151.46 6.23767 151.403 6.15095 151.423 6.06089L151.593 5.30706C151.613 5.22034 151.7 5.16697 151.79 5.18365Z" fill="#585857"/>
<path d="M151.576 6.13768C151.556 6.13435 151.543 6.111 151.546 6.09099L151.716 5.33716C151.719 5.31714 151.743 5.3038 151.763 5.30714L152.53 5.48058C152.55 5.48392 152.563 5.50727 152.56 5.52728L152.39 6.28111C152.387 6.30112 152.363 6.31447 152.343 6.31113L151.576 6.13768Z" fill="#5E5E5D"/>
<path d="M153.1 5.48054L153.868 5.65399C153.954 5.674 154.011 5.76072 153.991 5.85078L153.821 6.60461C153.801 6.69134 153.714 6.74804 153.624 6.72803L152.857 6.55458C152.77 6.53457 152.713 6.44784 152.733 6.35778L152.904 5.60395C152.924 5.5139 153.014 5.46053 153.1 5.48054Z" fill="#585857"/>
<path d="M152.887 6.4312C152.867 6.42786 152.854 6.40452 152.857 6.3845L153.027 5.63067C153.031 5.61066 153.054 5.59732 153.074 5.60065L153.841 5.7741C153.861 5.77744 153.874 5.80079 153.871 5.8208L153.701 6.57463C153.698 6.59464 153.674 6.60798 153.654 6.60465L152.887 6.4312Z" fill="#5E5E5D"/>
<path d="M154.411 5.77414L155.178 5.94758C155.265 5.9676 155.322 6.05432 155.302 6.14438L155.131 6.89821C155.111 6.98493 155.025 7.04164 154.935 7.02162L154.167 6.84818C154.081 6.82816 154.024 6.74144 154.044 6.65138L154.214 5.89755C154.234 5.81083 154.324 5.75412 154.411 5.77414Z" fill="#585857"/>
<path d="M154.198 6.72473C154.178 6.7214 154.164 6.69805 154.168 6.67804L154.338 5.92421C154.341 5.90419 154.364 5.89085 154.384 5.89419L155.152 6.06764C155.172 6.07097 155.185 6.09432 155.182 6.11433L155.008 6.86816C155.005 6.88817 154.982 6.90152 154.962 6.89818L154.198 6.72473Z" fill="#5E5E5D"/>
<path d="M155.722 6.07095L156.489 6.2444C156.576 6.26441 156.633 6.35113 156.613 6.44119L156.442 7.19502C156.422 7.28174 156.336 7.33845 156.246 7.31844L155.479 7.14499C155.392 7.12498 155.335 7.03825 155.355 6.94819L155.525 6.19436C155.549 6.1043 155.635 6.05094 155.722 6.07095Z" fill="#585857"/>
<path d="M155.508 7.02159C155.488 7.01826 155.475 6.99824 155.478 6.9749L155.648 6.22107C155.652 6.20105 155.675 6.18771 155.695 6.19105L156.462 6.36449C156.482 6.36783 156.496 6.39118 156.492 6.41119L156.322 7.16502C156.319 7.18503 156.295 7.19838 156.275 7.19504L155.508 7.02159Z" fill="#5E5E5D"/>
<path d="M157.033 6.36453L157.8 6.53798C157.887 6.55799 157.944 6.64471 157.924 6.73477L157.754 7.4886C157.734 7.57533 157.647 7.63203 157.557 7.61202L156.79 7.43857C156.703 7.41856 156.646 7.33183 156.666 7.24177L156.836 6.48794C156.86 6.40122 156.946 6.34452 157.033 6.36453Z" fill="#585857"/>
<path d="M156.819 7.31513C156.799 7.31179 156.786 7.28844 156.789 7.26843L156.959 6.5146C156.963 6.49459 156.986 6.48125 157.006 6.48458L157.773 6.65803C157.793 6.66136 157.807 6.68471 157.803 6.70473L157.633 7.45855C157.63 7.47857 157.607 7.49191 157.587 7.48857L156.819 7.31513Z" fill="#5E5E5D"/>
<path d="M158.344 6.65805L159.111 6.8315C159.198 6.85151 159.254 6.93823 159.234 7.02829L159.064 7.78212C159.044 7.86884 158.957 7.92555 158.867 7.90554L158.1 7.73209C158.013 7.71207 157.957 7.62535 157.977 7.53529L158.147 6.78146C158.17 6.69474 158.257 6.63803 158.344 6.65805Z" fill="#585857"/>
<path d="M158.13 7.612C158.11 7.60867 158.097 7.58532 158.1 7.5653L158.27 6.81148C158.274 6.79146 158.297 6.77812 158.317 6.78146L159.084 6.9549C159.104 6.95824 159.118 6.98159 159.114 7.0016L158.944 7.75209C158.941 7.77211 158.918 7.78545 158.898 7.78211L158.13 7.612Z" fill="#5E5E5D"/>
<path d="M159.658 6.95486L160.425 7.12831C160.512 7.14832 160.568 7.23504 160.548 7.3251L160.378 8.07893C160.358 8.16566 160.272 8.22236 160.181 8.20235L159.414 8.0289C159.328 8.00888 159.271 7.92216 159.291 7.8321L159.461 7.07827C159.481 6.98821 159.568 6.93485 159.658 6.95486Z" fill="#585857"/>
<path d="M159.441 7.90552C159.421 7.90218 159.408 7.87884 159.411 7.85882L159.581 7.10499C159.584 7.08498 159.608 7.07164 159.628 7.07497L160.395 7.24842C160.415 7.25176 160.428 7.27511 160.425 7.29512L160.255 8.04895C160.252 8.06896 160.228 8.0823 160.208 8.07897L159.441 7.90552Z" fill="#5E5E5D"/>
<path d="M143.647 4.63684L144.414 4.81029C144.501 4.8303 144.558 4.91702 144.538 5.00708L144.368 5.76091C144.348 5.84763 144.261 5.90434 144.171 5.88432L143.404 5.71088C143.317 5.69086 143.26 5.60414 143.28 5.51408L143.451 4.76025C143.471 4.67353 143.561 4.61683 143.647 4.63684Z" fill="#585857"/>
<path d="M143.434 5.58743C143.414 5.5841 143.401 5.56075 143.404 5.54074L143.574 4.78691C143.577 4.7669 143.601 4.75355 143.621 4.75689L144.388 4.93034C144.408 4.93367 144.421 4.95702 144.418 4.97703L144.248 5.73086C144.245 5.75087 144.221 5.76422 144.201 5.76088L143.434 5.58743Z" fill="#5E5E5D"/>
<path d="M144.958 4.93036L145.726 5.1038C145.812 5.12382 145.869 5.21054 145.849 5.3006L145.679 6.05443C145.659 6.14115 145.572 6.19786 145.482 6.17784L144.715 6.00439C144.628 5.98438 144.571 5.89766 144.591 5.8076L144.762 5.05377C144.782 4.96705 144.872 4.91034 144.958 4.93036Z" fill="#585857"/>
<path d="M144.745 5.88095C144.725 5.87762 144.712 5.85427 144.715 5.83426L144.885 5.08043C144.888 5.06041 144.912 5.04707 144.932 5.05041L145.699 5.22385C145.719 5.22719 145.732 5.25054 145.729 5.27055L145.559 6.02438C145.556 6.04439 145.532 6.05774 145.512 6.0544L144.745 5.88095Z" fill="#5E5E5D"/>
<path d="M146.269 5.22717L147.037 5.40062C147.123 5.42063 147.18 5.50735 147.16 5.59741L146.99 6.35124C146.97 6.43796 146.883 6.49467 146.793 6.47465L146.026 6.30121C145.939 6.28119 145.883 6.19447 145.903 6.10441L146.076 5.35058C146.096 5.26052 146.183 5.20716 146.269 5.22717Z" fill="#585857"/>
<path d="M146.056 6.1776C146.036 6.17426 146.022 6.15091 146.026 6.1309L146.196 5.37707C146.199 5.35706 146.222 5.34372 146.242 5.34705L147.01 5.5205C147.03 5.52383 147.043 5.54718 147.04 5.5672L146.87 6.32103C146.866 6.34104 146.843 6.35438 146.823 6.35105L146.056 6.1776Z" fill="#5E5E5D"/>
<path d="M147.58 5.52075L148.347 5.6942C148.434 5.71421 148.491 5.80093 148.471 5.89099L148.301 6.64482C148.281 6.73155 148.194 6.78825 148.104 6.76824L147.337 6.59479C147.25 6.57478 147.193 6.48805 147.213 6.39799L147.383 5.64416C147.407 5.55744 147.493 5.50074 147.58 5.52075Z" fill="#585857"/>
<path d="M147.367 6.47135C147.347 6.46801 147.333 6.44466 147.337 6.42465L147.507 5.67082C147.51 5.65081 147.534 5.63746 147.554 5.6408L148.321 5.81425C148.341 5.81758 148.354 5.84093 148.351 5.86094L148.181 6.61477C148.177 6.63479 148.154 6.64813 148.134 6.64479L147.367 6.47135Z" fill="#5E5E5D"/>
<path d="M153.59 6.87159L148.884 5.81423C148.797 5.79422 148.714 5.84758 148.694 5.93431L148.51 6.74484C148.497 6.80488 148.534 6.86492 148.594 6.87826L153.344 7.94563C153.43 7.96564 153.52 7.90894 153.54 7.82222L153.71 7.06839C153.734 6.98166 153.68 6.8916 153.59 6.87159Z" fill="#585857"/>
<path d="M148.641 6.75812L148.821 5.96093C148.824 5.94425 148.844 5.9309 148.861 5.93758L153.567 6.99494C153.587 6.99827 153.6 7.02162 153.597 7.04164L153.427 7.79546C153.424 7.81548 153.4 7.82882 153.38 7.82548L148.641 6.75812Z" fill="#5E5E5D"/>
<path d="M154.138 6.99507L154.905 7.16852C154.992 7.18853 155.049 7.27525 155.029 7.36531L154.858 8.11914C154.838 8.20586 154.752 8.26257 154.662 8.24255L153.894 8.06911C153.808 8.0491 153.751 7.96237 153.771 7.87231L153.941 7.11848C153.961 7.03176 154.048 6.97506 154.138 6.99507Z" fill="#585857"/>
<path d="M153.924 7.94566C153.904 7.94233 153.891 7.91898 153.894 7.89897L154.064 7.14514C154.068 7.12513 154.091 7.11178 154.111 7.11512L154.878 7.28857C154.898 7.2919 154.912 7.31525 154.908 7.33526L154.738 8.08909C154.735 8.10911 154.711 8.12245 154.691 8.11911L153.924 7.94566Z" fill="#5E5E5D"/>
<path d="M155.449 7.29188L156.216 7.46533C156.302 7.48534 156.359 7.57207 156.339 7.66212L156.169 8.41595C156.149 8.50268 156.062 8.55938 155.972 8.53937L155.205 8.36592C155.118 8.34591 155.062 8.25918 155.082 8.16912L155.252 7.4153C155.272 7.32524 155.362 7.27187 155.449 7.29188Z" fill="#585857"/>
<path d="M155.235 8.24254C155.215 8.2392 155.202 8.21586 155.205 8.19584L155.375 7.44201C155.379 7.422 155.402 7.40866 155.422 7.41199L156.189 7.58544C156.209 7.58878 156.223 7.61213 156.219 7.63214L156.049 8.38597C156.046 8.40598 156.022 8.41932 156.002 8.41599L155.235 8.24254Z" fill="#5E5E5D"/>
<path d="M156.759 7.58546L157.526 7.75891C157.613 7.77892 157.67 7.86565 157.65 7.95571L157.48 8.70953C157.46 8.79626 157.373 8.85296 157.283 8.83295L156.516 8.6595C156.429 8.63949 156.372 8.55276 156.392 8.46271L156.562 7.70888C156.582 7.62215 156.672 7.56545 156.759 7.58546Z" fill="#585857"/>
<path d="M156.546 8.53606C156.526 8.53272 156.512 8.50937 156.516 8.48936L156.686 7.73553C156.689 7.71552 156.713 7.70218 156.733 7.70551L157.5 7.87896C157.52 7.8823 157.533 7.90564 157.53 7.92566L157.36 8.67949C157.356 8.6995 157.336 8.71284 157.313 8.70951L156.546 8.53606Z" fill="#5E5E5D"/>
<path d="M158.07 7.87877L158.837 8.05221C158.924 8.07223 158.981 8.15895 158.961 8.24901L158.791 9.00284C158.771 9.08956 158.684 9.14627 158.594 9.12625L157.827 8.95281C157.74 8.93279 157.683 8.84607 157.703 8.75601L157.873 8.00218C157.897 7.91546 157.983 7.85875 158.07 7.87877Z" fill="#585857"/>
<path d="M157.856 8.82959C157.836 8.82626 157.823 8.80291 157.826 8.7829L157.997 8.02907C158 8.00905 158.023 7.99571 158.043 7.99905L158.81 8.17249C158.83 8.17583 158.844 8.19918 158.84 8.21919L158.67 8.97302C158.667 8.99303 158.644 9.00637 158.624 9.00304L157.856 8.82959Z" fill="#5E5E5D"/>
<path d="M159.381 8.17581L160.148 8.34925C160.235 8.36927 160.292 8.45599 160.272 8.54605L160.102 9.29988C160.082 9.3866 159.995 9.44331 159.905 9.42329L159.138 9.24985C159.051 9.22983 158.994 9.14311 159.014 9.05305L159.184 8.29922C159.208 8.20916 159.295 8.15579 159.381 8.17581Z" fill="#585857"/>
<path d="M159.168 9.12647C159.148 9.12313 159.135 9.09978 159.138 9.07977L159.308 8.32594C159.311 8.30593 159.335 8.29259 159.355 8.29592L160.122 8.46937C160.142 8.4727 160.155 8.49605 160.152 8.51607L159.982 9.26989C159.979 9.28991 159.955 9.30325 159.935 9.29991L159.168 9.12647Z" fill="#5E5E5D"/>
<path d="M153.354 8.99958L149.504 8.13568C149.331 8.09565 149.158 8.20573 149.121 8.37917L148.657 10.4372C148.617 10.6106 148.727 10.7841 148.901 10.8208L152.75 11.6847C152.923 11.7247 153.097 11.6146 153.134 11.4412L153.597 9.38317C153.637 9.20972 153.527 9.03961 153.354 8.99958Z" fill="#EDEDED"/>
<path d="M153.384 8.8761L149.534 8.0122C149.294 7.95884 149.054 8.10893 149.001 8.34909L148.537 10.4071C148.484 10.6473 148.634 10.8874 148.874 10.9408L152.723 11.8047C152.963 11.8581 153.204 11.708 153.257 11.4678L153.721 9.40979C153.774 9.16963 153.624 8.93281 153.384 8.8761ZM153.137 11.4411C153.097 11.6146 152.927 11.7246 152.753 11.6846L148.904 10.8207C148.731 10.7807 148.621 10.6106 148.661 10.4371L149.124 8.37911C149.164 8.20567 149.334 8.09559 149.508 8.13562L153.357 8.99952C153.53 9.03955 153.64 9.20966 153.6 9.3831L153.137 11.4411Z" fill="#9D9B9B"/>
<path d="M148.888 9.42311L148.661 10.4371C148.621 10.6106 148.731 10.784 148.904 10.8207L152.754 11.6846C152.927 11.7246 153.1 11.6146 153.137 11.4411L153.364 10.4271L148.888 9.42311Z" fill="#DFDFDE"/>
<path d="M151.109 9.92031L148.888 9.41998L148.661 10.434C148.621 10.6074 148.731 10.7809 148.904 10.8176L150.812 11.2479L151.109 9.92031Z" fill="#D9D9DA"/>
<path d="M162.59 3.0924L143.691 -1.15705C143.581 -1.18374 143.504 -1.28714 143.514 -1.40055L145.492 -12.2143C145.519 -12.5112 145.799 -12.7146 146.089 -12.6479L165.338 -8.31843C165.629 -8.25171 165.795 -7.94818 165.692 -7.668L162.853 2.94898C162.813 3.05571 162.703 3.11909 162.59 3.0924Z" fill="#E3E1E1"/>
<path d="M144.338 -2.1945L146.163 -11.3238C146.189 -11.604 146.453 -11.7975 146.726 -11.7341L164.368 -7.76816C164.641 -7.70812 164.798 -7.41793 164.701 -7.15442L162.447 1.87484C162.367 2.09499 162.136 2.2184 161.906 2.16837L144.702 -1.70084C144.471 -1.75087 144.318 -1.96435 144.338 -2.1945Z" fill="#C7C7C6"/>
<path d="M144.465 -2.18117L146.289 -11.3172C146.309 -11.5206 146.499 -11.6607 146.699 -11.614L164.348 -7.64476C164.544 -7.6014 164.661 -7.39126 164.591 -7.20113L162.33 1.8348C162.273 1.99491 162.106 2.08497 161.939 2.04827L144.725 -1.82427C144.561 -1.86096 144.448 -2.01439 144.465 -2.18117Z" fill="#C6E6F2"/>
<path d="M159.851 2.47859L146.403 -0.546729L146.409 -0.773544L159.968 2.27513L159.851 2.47859Z" fill="#585857"/>
</g>
<path d="M35.8076 64.9767C34.9107 61.1851 31.1193 58.8467 27.3482 59.7473C23.5721 60.6478 21.2432 64.4547 22.1401 68.2412C22.772 70.9019 24.8308 72.8463 27.3075 73.4552C27.4502 73.8338 27.7152 76.1313 28.1891 76.8681C28.4031 77.2007 28.6732 77.257 29.086 77.17C29.4172 78.352 30.8033 79.4367 31.9449 79.3293C32.7449 79.2525 33.3259 78.6999 33.5858 77.958C33.7896 77.3798 33.9527 76.7146 34.0546 76.0699C34.605 76.0545 34.87 75.9982 34.8445 75.4814C34.7986 74.586 33.8304 72.1197 33.7947 71.7411C35.5528 70.0679 36.409 67.5197 35.8076 64.9767Z" fill="#FDFFFC"/>
<path d="M32.1538 64.721C32.0468 64.3372 31.6697 64.0814 31.2722 64.1786C30.9002 64.2656 30.6199 64.68 30.732 65.0638C30.7982 65.2992 30.9715 65.4885 31.1804 65.5755C31.0276 66.5681 30.8339 67.5454 30.7524 68.5483C30.6759 69.4796 30.5995 70.3904 30.3957 71.296C29.2898 69.6331 28.1891 67.9752 26.9711 66.3941C27.3075 66.0718 27.0527 65.3503 26.487 65.4834C25.8194 65.642 26.064 66.6858 26.7367 66.5272C26.7418 66.5272 26.7469 66.5221 26.752 66.517C28.0158 68.3129 29.2541 70.1345 30.2835 72.0789C30.3956 72.2887 30.7014 72.2426 30.7728 72.0277C31.1091 71.0249 31.2059 70.0015 31.2773 68.9525C31.3588 67.8217 31.5779 66.7114 31.6697 65.5857C32.0111 65.4731 32.2557 65.0842 32.1538 64.721Z" fill="#AEB4FC"/>
<path d="M23.6685 58.5399C22.2467 57.8338 20.8198 57.1226 19.398 56.4113C19.1024 56.2681 18.8323 56.6928 19.1279 56.8514C20.514 57.6189 21.9052 58.3813 23.2914 59.1488C23.699 59.374 24.0761 58.7446 23.6685 58.5399Z" fill="#808AFF"/>
<path d="M26.3441 53.1161C26.2269 52.8551 25.8906 53.0444 25.916 53.2798C26.0893 54.7534 26.6346 56.2578 27.0626 57.6802C27.1697 58.0282 27.7047 57.9105 27.6181 57.5472C27.2665 56.0838 26.9607 54.4925 26.3441 53.1161Z" fill="#808AFF"/>
<path d="M32.9692 52.6863C32.6023 53.0087 32.378 53.5204 32.1487 53.9502C31.9092 54.4004 31.6952 54.861 31.4913 55.3266C31.3282 55.7052 31.9551 55.9048 32.113 55.5159C32.3016 55.04 32.5054 54.5795 32.7398 54.1241C32.9386 53.7301 33.2291 53.3464 33.3463 52.9217C33.4125 52.6914 33.1373 52.5328 32.9692 52.6863Z" fill="#808AFF"/>
</g>
<defs>
<clipPath id="clip0_1006_8458">
<rect width="14" height="17" fill="white" transform="translate(153 24.3394)"/>
</clipPath>
<clipPath id="clip1_1006_8458">
<rect width="69" height="12" fill="white" transform="translate(57 117.339)"/>
</clipPath>
<clipPath id="clip2_1006_8458">
<rect width="32" height="26" fill="white" transform="translate(138 58.3394)"/>
</clipPath>
<clipPath id="clip3_1006_8458">
<rect width="35" height="35" fill="white" transform="translate(40 -16.6606)"/>
</clipPath>
</defs>
</svg>
