<svg width="384" height="139" viewBox="0 0 384 139" fill="none" xmlns="http://www.w3.org/2000/svg">
<circle cx="51.8965" cy="34.7536" r="25.3759" fill="#D3D4DE"/>
<circle cx="43.1326" cy="23.0465" r="4.6584" fill="#C5C6D0"/>
<circle cx="62.3672" cy="34.5394" r="6.75394" fill="#F1F1F3"/>
<path fill-rule="evenodd" clip-rule="evenodd" d="M70.7306 51.7604C67.7299 55.0814 63.8631 57.605 59.4863 58.975C59.1076 58.1315 58.8969 57.1961 58.8969 56.2115C58.8969 52.4814 61.9207 49.4575 65.6508 49.4575C67.6758 49.4575 69.4927 50.3488 70.7306 51.7604Z" fill="#C5C6D0"/>
<circle cx="46.1519" cy="50.7517" r="3.01943" fill="#C5C6D0"/>
<circle cx="69.1212" cy="25.3759" r="25.3759" fill="#1F265E"/>
<path d="M3.30001 69.061C3.30001 69.061 4.67224 76.1966 10.8225 74.5807C10.8225 74.5807 5.66292 78.5327 7.64428 83.205C7.64428 83.205 5.29209 77.9182 -1.77338e-05 78.1779C-1.77338e-05 78.1779 4.55041 76.6892 3.30001 69.061Z" fill="#FCFCFC"/>
<path d="M341.646 16.317C341.646 16.317 343.018 23.4526 349.169 21.8367C349.169 21.8367 344.009 25.7887 345.99 30.461C345.99 30.461 343.638 25.1742 338.346 25.434C338.346 25.434 342.896 23.9453 341.646 16.317Z" fill="#6D75B0"/>
<path d="M3.5224 129.313C3.5224 129.313 4.46226 134.2 8.67468 133.093C8.67468 133.093 5.1408 135.8 6.49787 139C6.49787 139 4.8868 135.379 1.26214 135.557C1.26214 135.557 4.37882 134.537 3.5224 129.313Z" fill="#6D75B0"/>
<path d="M363.994 67.315C363.994 67.315 359.785 69.4667 361.91 73.0161C361.91 73.0161 358.505 70.5095 355.946 72.5949C355.946 72.5949 358.822 70.1663 357.7 66.907C357.7 66.907 359.455 69.48 363.994 67.315Z" fill="white"/>
<path d="M16.8527 119.291C16.8527 119.291 17.7925 124.179 22.0049 123.072C22.0049 123.072 18.4711 125.779 19.8281 128.979C19.8281 128.979 18.2171 125.358 14.5924 125.536C14.5924 125.536 17.7091 124.516 16.8527 119.291Z" fill="#6D75B0"/>
<path d="M383.871 98.9702C383.871 98.9702 379.662 101.122 381.787 104.671C381.787 104.671 378.382 102.165 375.822 104.25C375.822 104.25 378.698 101.822 377.576 98.5623C377.576 98.5623 379.332 101.135 383.871 98.9702Z" fill="#6D75B0"/>
</svg>
