<svg width="20" height="24" viewBox="0 0 20 24" fill="none" xmlns="http://www.w3.org/2000/svg">
<path d="M4.4428 5.66378C4.4428 8.72745 6.93453 11.2174 10.0001 11.2174C13.0659 11.2174 15.5574 8.71986 15.5574 5.65638C15.5574 2.59271 13.0657 0.102779 10.0001 0.102779C6.93443 0.102779 4.4428 2.5928 4.4428 5.66378ZM6.13055 5.65638C6.13055 3.5283 7.86325 1.78952 10.0001 1.78952C12.137 1.78952 13.8697 3.5283 13.8697 5.65638C13.8697 7.78433 12.1297 9.52324 10.0001 9.52324C7.87053 9.52324 6.13055 7.78433 6.13055 5.65638Z" fill="#A0A3B1" stroke="#98A1BD" stroke-width="0.2"/>
<path d="M15.1624 23.8418H4.83754C2.16606 23.8418 0 21.3995 0 18.3873C0 15.3751 2.17509 12.9328 4.83754 12.9328H15.1624C17.8339 12.9328 20 15.3853 20 18.3873C20 21.3893 17.8339 23.8418 15.1624 23.8418ZM4.83754 14.968C3.16786 14.968 1.80505 16.5047 1.80505 18.3873C1.80505 20.2699 3.16786 21.8066 4.83754 21.8066H15.1624C16.8321 21.8066 18.1949 20.2699 18.1949 18.3873C18.1949 16.5047 16.8321 14.968 15.1624 14.968H4.83754Z" fill="#A0A3B1"/>
</svg>
