<svg width="79" height="42" viewBox="0 0 79 42" fill="none" xmlns="http://www.w3.org/2000/svg">
<path d="M70.9811 1.0382C72.3477 0.989276 73.7142 0.943853 75.0808 0.894931C75.6511 0.873965 75.6546 -0.0206036 75.0808 0.000362841C73.7142 0.0492844 72.3477 0.0947103 70.9811 0.143632C70.4108 0.164598 70.4074 1.05916 70.9811 1.0382Z" fill="#656B7B"/>
<path d="M65.6992 35.7799C64.5795 36.5662 63.4564 37.3524 62.3367 38.1387C61.8673 38.4672 62.3506 39.2185 62.82 38.89C63.9397 38.1037 65.0629 37.3175 66.1825 36.5313C66.652 36.2028 66.1686 35.4515 65.6992 35.7799Z" fill="#656B7B"/>
<path d="M73.3422 6.40562C72.3511 8.09692 71.3567 9.78474 70.3656 11.476C70.077 11.9688 70.7968 12.4964 71.0854 12.0002C72.0764 10.3089 73.0709 8.62109 74.062 6.92978C74.354 6.44056 73.6343 5.90941 73.3422 6.40562Z" fill="#656B7B"/>
<path d="M74.8096 31.0938C75.738 32.3868 76.7708 33.5924 77.9113 34.7036C78.3216 35.1055 78.951 34.473 78.5407 34.0711C77.4558 33.0123 76.4648 31.8731 75.5781 30.6431C75.2443 30.1783 74.4723 30.6256 74.8096 31.0938Z" fill="#656B7B"/>
<path d="M77.7338 16.2635C77.7338 16.2635 77.7338 19.1953 77.7338 20.7328C77.7338 21.3094 78.624 21.3094 78.624 20.7328C78.624 19.1918 78.624 17.7521 78.624 16.2635C78.624 15.6694 77.7338 15.6694 77.7338 16.2635C77.7338 15.6694 77.7338 16.2635 77.7338 16.2635Z" fill="#656B7B"/>
<path d="M56.4601 24.8318C55.3161 24.5068 54.1755 24.1818 53.0315 23.8568C52.4821 23.6996 52.19 24.5452 52.7429 24.7025C53.8869 25.0275 55.0275 25.3525 56.1715 25.6774C56.7209 25.8312 57.013 24.989 56.4601 24.8318Z" fill="#656B7B"/>
<path d="M60.0035 4.4558C61.3562 5.27699 62.6323 6.20651 63.832 7.24086C64.2667 7.61476 64.757 6.86696 64.3258 6.49655C63.1261 5.4622 61.85 4.53617 60.4973 3.71149C60.007 3.41446 59.5098 4.15877 60.0035 4.4558Z" fill="#656B7B"/>
<path d="M2.48972 25.066C1.66908 25.017 0.84845 24.9716 0.027818 24.9262C0.013909 24.6327 0.00695451 24.3356 0 24.0316C0.820632 24.0805 1.63779 24.126 2.45842 24.1714C3.02521 24.2063 3.06346 25.1009 2.48972 25.066Z" fill="#656B7B"/>
<path d="M41.268 34.5848C42.6345 34.6337 44.0011 34.6791 45.3677 34.7281C45.9379 34.749 45.9414 35.6436 45.3677 35.6227C44.0011 35.5737 42.6345 35.5283 41.268 35.4794C40.6942 35.4584 40.6942 34.5638 41.268 34.5848Z" fill="#656B7B"/>
<path d="M42.3008 12.7725C41.3097 11.0812 40.3152 9.39339 39.3242 7.70209C39.0356 7.20937 39.7554 6.68171 40.044 7.17792C41.035 8.86923 42.0295 10.557 43.0206 12.2483C43.3126 12.7411 42.5929 13.2687 42.3008 12.7725Z" fill="#656B7B"/>
<path d="M29.9844 41.4653C29.6541 41.4898 29.3238 41.5107 28.9934 41.5317C28.4092 40.5358 27.8251 39.5434 27.2409 38.5475C26.9523 38.0548 27.6721 37.5271 27.9607 38.0233C28.6353 39.173 29.3099 40.3191 29.9844 41.4653Z" fill="#656B7B"/>
<path d="M52.0023 13.1884C52.0023 13.1884 52.0023 10.2566 52.0023 8.71903C52.0023 8.14245 52.8925 8.14245 52.8925 8.71903C52.8925 10.2601 52.8925 11.6998 52.8925 13.1884C52.8925 13.786 52.0023 13.786 52.0023 13.1884C52.0023 13.786 52.0023 13.1884 52.0023 13.1884Z" fill="#656B7B"/>
<path d="M36.5772 16.9345C35.4332 17.2595 34.2927 17.5844 33.1486 17.9094C32.5992 18.0667 32.3072 17.221 32.86 17.0638C34.0041 16.7388 35.1446 16.4138 36.2886 16.0888C36.8345 15.9316 37.1266 16.7772 36.5772 16.9345Z" fill="#656B7B"/>
<path d="M33.1763 29.2208C34.5289 28.3996 35.8051 27.4701 37.0047 26.4357C37.4394 26.0618 37.9297 26.8096 37.4985 27.18C36.2988 28.2144 35.0227 29.1404 33.67 29.9651C33.1797 30.2621 32.6825 29.5213 33.1763 29.2208Z" fill="#656B7B"/>
<path d="M12.5076 42C11.9478 41.9825 11.4019 41.9581 10.8733 41.9266C10.2648 41.4688 9.67715 40.9866 9.10688 40.4799C8.67918 40.099 9.23554 39.4036 9.66324 39.7845C10.5673 40.5813 11.5131 41.3221 12.5076 42Z" fill="#656B7B"/>
<path d="M22.4351 27.0298C21.7501 28.8679 21.0651 30.7059 20.38 32.5405C20.1818 33.0752 19.3195 32.8445 19.5212 32.3064C20.2062 30.4683 20.8912 28.6302 21.5762 26.7956C21.7779 26.261 22.6368 26.4916 22.4351 27.0298Z" fill="#656B7B"/>
<path d="M8.38717 4.68293C7.0832 4.27758 5.77575 3.86872 4.47178 3.46337C3.92585 3.29214 4.15883 2.42902 4.70476 2.60024C6.00873 3.0056 7.31618 3.41445 8.62015 3.8198C9.16608 3.99103 8.9331 4.85416 8.38717 4.68293Z" fill="#656B7B"/>
<path d="M17.6678 8.7958C18.1824 10.6898 18.7005 12.5803 19.2152 14.4743C19.3647 15.0229 18.5336 15.3444 18.3841 14.7888C17.8695 12.8948 17.3514 11.0043 16.8367 9.11029C16.6837 8.56167 17.5148 8.24018 17.6678 8.7958Z" fill="#656B7B"/>
<path d="M11.1446 28.8609C9.91014 29.8638 8.59921 30.7549 7.20831 31.5271C6.70758 31.8067 6.2625 31.0309 6.7667 30.7514C8.09153 30.0175 9.34334 29.1789 10.5221 28.2249C10.9603 27.865 11.5897 28.4975 11.1446 28.8609Z" fill="#656B7B"/>
<path d="M8.75902 14.0376C8.75902 14.0376 7.99403 16.8646 7.59067 18.3532C7.44114 18.9088 6.58226 18.6747 6.73178 18.1191C7.13514 16.6339 7.51069 15.2431 7.90014 13.8034C8.05662 13.2268 8.91202 13.461 8.75902 14.0376C8.91202 13.461 8.75902 14.0376 8.75902 14.0376Z" fill="#656B7B"/>
<path d="M23.8191 22.3229C25.0049 22.3124 26.1941 22.2984 27.3798 22.2879C27.9501 22.281 28.0127 23.1755 27.439 23.179C26.2532 23.1895 25.064 23.2035 23.8782 23.214C23.308 23.221 23.2454 22.3299 23.8191 22.3229Z" fill="#656B7B"/>
<path d="M32.8149 10.0714C31.2954 10.5082 29.821 11.0673 28.3953 11.7487C27.8772 11.9968 27.6025 11.1441 28.1137 10.8995C29.5393 10.2181 31.0137 9.65901 32.5333 9.2222C33.0827 9.06495 33.3678 9.9141 32.8149 10.0714Z" fill="#656B7B"/>
</svg>
