<svg width="26" height="22" viewBox="0 0 26 22" fill="none" xmlns="http://www.w3.org/2000/svg">
<path d="M9.9638 10.4887C9.86425 10.4706 9.7647 10.4616 9.66515 10.4616H5.52036C2.47964 10.4616 0 12.9321 0 15.9819V16.4797C0 19.5204 2.47964 22 5.52036 22H6.25339C8.29863 22 10.0995 20.8778 11.0407 19.2036C11.5113 18.3982 11.7737 17.4751 11.7737 16.4797V12.5611C11.7737 11.5023 10.9774 10.6245 9.9638 10.4887ZM9.9638 16.4797C9.9638 18.5249 8.29863 20.1901 6.25339 20.1901H5.52036C3.47511 20.1901 1.80995 18.5249 1.80995 16.4797V15.9819C1.80995 13.9367 3.47511 12.2715 5.52036 12.2715H9.66515C9.82805 12.2715 9.9638 12.3982 9.9638 12.5611V16.4797V16.4797Z" fill="#A0A3B1"/>
<path d="M20.9052 0.036199H20.3079V0H15.593C12.4889 0 9.96401 2.52488 9.96401 5.62895V15.9004C9.96401 17.1402 10.3622 18.2805 11.0409 19.2036C11.5115 18.3982 11.774 17.4751 11.774 16.4796V5.62895C11.774 3.52036 13.4844 1.80995 15.593 1.80995H19.8554V1.819H20.9052C22.6518 1.819 24.0726 3.23981 24.0726 4.98642V9.14026C24.0273 9.13121 23.973 9.13121 23.9278 9.13121H20.3712C17.7649 9.13121 15.6292 11.2489 15.6292 13.8642V14.2896C15.6292 16.8959 17.7649 19.0316 20.3712 19.0316H20.9957C22.7513 19.0316 24.2988 18.0633 25.1042 16.6244C25.3757 16.1629 25.5749 15.6561 25.6654 15.1041C25.783 14.6787 25.8463 14.2443 25.8463 13.7918V4.98642C25.8463 2.25339 23.6291 0.036199 20.9052 0.036199ZM24.1812 14.2896C24.1812 14.5158 24.154 14.733 24.1178 14.9502C23.8101 16.3891 22.5251 17.4751 20.9957 17.4751H20.3712C18.6156 17.4751 17.1857 16.0452 17.1857 14.2896V13.8642C17.1857 12.1086 18.6156 10.6787 20.3712 10.6787H23.9278C23.9821 10.6787 24.0273 10.6968 24.0726 10.724C24.1359 10.7692 24.1812 10.8416 24.1812 10.9321V14.2896V14.2896Z" fill="#A0A3B1"/>
</svg>
