<svg width="414" height="289" viewBox="0 0 414 289" fill="none" xmlns="http://www.w3.org/2000/svg">
<mask id="mask0_1006_7610" style="mask-type:alpha" maskUnits="userSpaceOnUse" x="0" y="0" width="414" height="289">
<path d="M0 0H414V278.778C414 284.301 409.523 288.778 404 288.778H10C4.47716 288.778 0 284.301 0 278.778V0Z" fill="#3E476E"/>
</mask>
<g mask="url(#mask0_1006_7610)">
<path fill-rule="evenodd" clip-rule="evenodd" d="M-0.0305176 -26H413.962V319.303H-0.0305176V-26Z" fill="#444359"/>
<path d="M38.4321 27.2017C15.0748 20.6323 18.4809 40.3404 23.347 40.3404C25.3462 40.3404 29.4903 40.827 34.5395 40.827H49.868C69.3324 40.827 74.9286 39.5293 75.1721 39.1238C76.8753 26.2284 66.5752 27.445 61.0602 28.9048C61.9524 24.1198 61.0115 14.4523 50.1109 14.063C39.2104 13.6737 37.7832 22.6599 38.4321 27.2017Z" fill="#616077"/>
<path d="M347.623 128.617C312.782 118.817 317.863 148.215 325.121 148.215C328.103 148.215 334.285 148.94 341.816 148.94H364.681C393.715 148.94 402.062 147.005 402.425 146.4C404.966 127.165 389.602 128.979 381.375 131.157C382.706 124.019 381.303 109.599 365.043 109.018C348.784 108.438 346.655 121.842 347.623 128.617Z" fill="#616077"/>
<path d="M-127.906 -82.9999L117.564 6.65334C118.59 3.57291 119.765 0.578053 121.09 -2.33124L-44.6507 -82.9999H-9.62639L123.654 -7.59363C125.214 -10.5457 126.924 -13.3908 128.783 -16.129L35.2278 -82.9999H56.3407L132.351 -21.0063C134.467 -23.7231 136.711 -26.3329 139.104 -28.8143L85.7235 -82.9999H100.575L143.57 -33.1783C146.22 -35.5742 149.019 -37.8417 151.926 -39.9381L122.522 -82.9999H134.104L157.332 -43.5105C160.473 -45.4572 163.743 -47.2113 167.119 -48.7729L152.033 -82.9999H161.884L173.274 -51.3613C176.8 -52.6876 180.432 -53.8214 184.129 -54.7413L177.59 -82.9999H186.565L190.797 -56.1103C194.558 -56.7521 198.383 -57.1585 202.293 -57.3297L201.374 -82.9999H210.072L209.153 -57.3725C213.063 -57.2655 216.91 -56.9232 220.671 -56.3456L224.859 -82.9999H233.834L227.381 -55.0621C231.12 -54.2065 234.775 -53.1155 238.343 -51.832L249.584 -82.9999H259.435L244.604 -49.3077C248.024 -47.7889 251.336 -46.0562 254.52 -44.1309L277.342 -82.9999H288.967L259.99 -40.5799C262.961 -38.5048 265.781 -36.2801 268.495 -33.8842L310.849 -82.9999H325.701L273.068 -29.5417C275.505 -27.0602 277.812 -24.4504 279.992 -21.7122L355.105 -82.9999H376.154L283.604 -16.8135C285.505 -14.054 287.279 -11.1661 288.882 -8.1926L421.072 -82.9999H455.84L291.532 -2.93021C292.899 0.021868 294.117 3.0809 295.186 6.18272L539.266 -82.9999H614.123L296.852 11.6804C297.686 14.7395 298.37 17.8627 298.883 21.0287L842.411 -82.9999H989.838V-63.2338L299.652 26.6333C299.972 29.7351 300.143 32.8797 300.143 36.0671L989.838 15.6165V61.9085L300.015 41.6504C299.844 44.8164 299.502 47.9396 299.032 51.02L989.86 140.973V188.741L297.985 56.4963C297.301 59.5981 296.489 62.6358 295.506 65.6093L989.838 272.404V325.135L293.583 70.9358C292.408 73.9307 291.061 76.84 289.587 79.6637L989.817 420.436V482.108L286.766 84.6694C285.078 87.4931 283.24 90.2099 281.274 92.8197L989.817 598.993V678.079L953.233 648.195L277.599 97.4189C275.398 99.9645 273.09 102.403 270.632 104.714L875.598 718.852L929.962 773.979H840.104L825.551 757.058L266.059 108.757C263.388 110.96 260.589 113.014 257.683 114.917L707.806 773.979H637.971L252.383 118.169C249.306 119.902 246.1 121.485 242.809 122.875L530.056 774H470.35L236.805 125.164C233.407 126.341 229.902 127.303 226.334 128.073L375.385 774H321.021L219.923 129.229C216.333 129.742 212.7 130.063 208.982 130.17L231.826 774H179.428L202.486 130.106C198.789 129.956 195.156 129.592 191.587 129.015L90.2325 774H35.8689L185.198 127.774C181.65 126.961 178.189 125.934 174.812 124.715L-59.0964 774H-118.546L168.914 122.362C165.666 120.929 162.504 119.324 159.448 117.549L-172.14 681.181V591.87L154.212 114.276C151.349 112.35 148.613 110.275 146.006 108.051L-172.14 476.568V422.361L141.54 104.029C139.147 101.719 136.86 99.28 134.723 96.7344L-172.14 346.719V308.578L131.091 92.1565C129.167 89.5681 127.394 86.8727 125.727 84.0704L-172.14 252.339V222.433L122.97 79.0647C121.539 76.2838 120.256 73.3959 119.102 70.4652L-172.14 176.719V151.348L117.243 65.2028C116.303 62.2721 115.491 59.2773 114.85 56.2396L-172.14 111.11V88.0065L113.846 50.8275C113.375 47.8112 113.055 44.7308 112.884 41.629L-172.14 50.0146V27.5532L112.734 36.0885C112.734 32.9653 112.905 29.8635 113.226 26.8045L-172.14 -10.4174V-33.3708L113.952 21.3281C114.465 18.2049 115.128 15.1245 115.918 12.1083L-172.14 -73.78V-82.9999H-127.906Z" fill="#FFC773"/>
<g clip-path="url(#clip0_1006_7610)">
<path d="M182.08 -11.7636C174.809 -11.4186 168.857 -6.4733 165.67 -0.168623C164.149 2.83854 162.973 6.40566 163.195 9.81064C163.428 13.3947 165.236 16.8695 168.289 18.8566C175.646 23.6436 185.924 19.4015 190.954 13.2213C193.205 10.4535 194.857 6.94111 193.522 3.37022C192.88 1.65076 191.655 0.261242 189.768 -0.0309906C188.047 -0.298713 185.761 0.255586 184.577 1.57723C181.839 4.63153 182.004 9.45996 184.42 12.65C185.729 14.377 187.82 15.6515 189.691 16.696C191.656 17.7933 193.747 18.621 195.946 19.1149C199.832 19.9879 205.14 20.2688 208.528 17.7443C211.744 15.3499 213.969 11.2152 214.075 7.20694C214.145 4.59194 212.725 0.246158 209.354 0.657169C206.002 1.06441 205.85 4.98786 206.244 7.56328C206.852 11.5376 209.325 14.7654 212.35 17.2937C215.357 19.8088 219.154 22.2541 223.137 22.6689C227.329 23.1044 231.187 21.1624 233.802 17.9649C236.234 14.9897 236.84 11.4113 236.563 7.6764C236.071 1.04556 232.674 -5.64185 226.913 -9.22217C225.428 -10.146 223.815 -10.8304 222.125 -11.2848C221.12 -11.5563 220.595 -10.0272 221.603 -9.75384C227.144 -8.26063 231.257 -4.03175 233.397 1.18319C235.524 6.36607 236.101 13.127 232.051 17.5275C229.431 20.3706 225.691 21.7469 221.868 20.8287C218.732 20.0765 215.685 18.0045 213.247 15.9513C210.74 13.8397 208.591 11.1361 207.937 7.86494C207.695 6.65264 207.534 5.31969 207.816 4.09797C208.168 2.56893 209.681 1.61682 210.984 2.82534C213.522 5.17828 212.418 9.66924 211.028 12.2918C210.253 13.7511 209.219 15.0934 207.945 16.153C206.536 17.3257 204.661 17.7575 202.871 17.9781C198.987 18.4551 194.874 17.5444 191.406 15.7891C188.09 14.1112 184.595 11.794 184.208 7.79141C184.026 5.91169 184.568 3.39284 186.255 2.26727C188.062 1.06252 190.592 1.24918 191.685 3.22693C193.234 6.03613 192.001 9.23183 190.191 11.564C185.778 17.2522 177.519 21.3133 170.404 18.1817C167.187 16.7658 165.174 13.4833 164.831 10.0689C164.509 6.86381 165.664 3.39096 167.102 0.564786C169.988 -5.11018 175.376 -9.83303 181.983 -10.1479C183.017 -10.1988 183.123 -11.8127 182.08 -11.7636Z" fill="white"/>
<path d="M182.08 -11.9995C175.107 -11.6093 169.23 -7.09379 165.916 -1.1398C164.002 2.29912 162.564 6.39414 163.008 10.3742C163.382 13.7358 165.111 16.956 167.931 18.8998C173.563 22.7855 181.101 21.1509 186.445 17.5857C189.31 15.6739 191.929 13.0476 193.346 9.8783C194.662 6.93336 194.677 2.8176 191.906 0.647535C189.587 -1.17185 185.755 -0.374336 184.026 1.87491C182.055 4.4409 181.873 8.01933 183.146 10.9303C184.636 14.3372 188.267 16.4186 191.53 17.8798C194.859 19.3692 198.627 20.1385 202.284 19.9462C205.905 19.7576 208.926 18.3266 211.187 15.4741C213.209 12.9213 214.613 9.45221 214.27 6.1547C214.039 3.94505 212.977 0.971818 210.492 0.460883C207.744 -0.102843 206.14 2.23502 205.901 4.64263C205.18 11.8956 211.369 17.8119 217.258 20.968C220.59 22.7535 224.404 23.5925 228.066 22.3255C231.346 21.1905 234.194 18.617 235.632 15.4684C237.143 12.1596 237.105 8.3191 236.414 4.81043C235.728 1.3357 234.266 -2.01084 232.092 -4.82192C229.867 -7.69899 226.898 -9.93881 223.442 -11.1341C222.591 -11.4283 220.887 -12.0052 220.826 -10.495C220.811 -10.1274 220.989 -9.81626 221.303 -9.62773C222.025 -9.19221 223.059 -9.07154 223.843 -8.72275C230.575 -5.7401 234.755 1.7467 234.814 8.95259C234.846 12.9439 233.287 16.7806 229.897 19.0789C226.089 21.6619 221.705 21.0962 217.857 18.9224C214.327 16.9277 210.732 14.0261 208.988 10.2893C208.543 9.33532 208.25 8.33042 208.074 7.29346C207.869 6.08494 207.674 4.49934 208.35 3.39829C209.089 2.19354 210.335 2.37265 211.164 3.3455C211.812 4.1053 212.14 5.08192 212.236 6.0642C212.588 9.64263 210.596 13.6113 207.896 15.8794C206.168 17.3312 203.767 17.7478 201.57 17.844C199.391 17.9401 197.207 17.6291 195.12 17.0088C191.674 15.9831 187.522 13.9941 185.526 10.8625C183.703 8.00048 183.937 2.42921 188.1 1.79384C190.469 1.43185 191.963 3.32853 192.137 5.52687C192.3 7.58192 191.365 9.5823 190.168 11.2018C187.897 14.2769 184.587 16.7373 180.987 18.0438C177.453 19.3259 173.293 19.4975 169.908 17.6668C166.371 15.7531 164.721 11.6524 165.072 7.78554C165.445 3.66413 167.49 -0.476145 170.149 -3.61906C172.499 -6.3962 175.595 -8.60586 179.161 -9.50141C180.101 -9.73708 181.038 -9.76913 181.985 -9.92185C182.364 -9.98218 182.672 -10.1047 182.879 -10.4441C183.313 -11.1492 182.894 -11.958 182.08 -11.9995C181.775 -12.0146 181.777 -11.5433 182.08 -11.5282C182.574 -11.5037 182.652 -11.1172 182.515 -10.791C182.358 -10.412 182.055 -10.4007 181.703 -10.3706C181.402 -10.3442 181.102 -10.3197 180.801 -10.282C179.889 -10.1651 178.989 -9.96898 178.114 -9.68806C176.539 -9.18467 175.048 -8.43052 173.69 -7.48972C171.022 -5.64017 168.852 -3.10812 167.284 -0.281952C165.475 2.97785 164.096 6.89942 164.672 10.6664C165.144 13.7452 166.977 16.6807 169.789 18.1438C175.925 21.3376 183.405 18.5585 188.132 14.16C190.515 11.9428 192.937 8.83004 192.596 5.38547C192.461 4.02423 191.874 2.5461 190.653 1.80515C189.507 1.10945 188.047 1.14527 186.844 1.67695C184.218 2.83833 183.542 6.23954 184.136 8.79422C184.852 11.8674 187.498 13.913 190.128 15.376C193.473 17.235 197.22 18.3983 201.078 18.3323C202.807 18.304 204.631 18.0721 206.24 17.416C207.915 16.7335 209.214 15.4383 210.251 13.9903C211.954 11.6147 213.183 8.33796 212.611 5.39301C212.376 4.17883 211.666 2.68373 210.441 2.186C209.316 1.72785 208.225 2.45938 207.769 3.48879C207.068 5.07061 207.462 7.20296 207.922 8.80176C208.39 10.4194 209.225 11.9051 210.259 13.2267C212.607 16.2282 216.067 18.8112 219.573 20.3025C222.837 21.6901 226.407 21.7015 229.511 19.8802C232.418 18.1739 234.378 15.2969 235.012 12.0125C236.238 5.6777 233.499 -1.57343 228.843 -5.9456C227.678 -7.03912 226.364 -7.9818 224.941 -8.71521C224.271 -9.06023 223.576 -9.36001 222.866 -9.61264C222.525 -9.73331 221.966 -9.79175 221.663 -9.98783C221.326 -10.2047 221.19 -10.6439 221.483 -10.9079C221.845 -11.2322 222.317 -10.9965 222.688 -10.8815C226.578 -9.68617 229.884 -7.14847 232.221 -3.84907C236.385 2.02951 238.558 11.7278 233.63 17.7931C231.229 20.7493 227.596 22.6724 223.727 22.4745C219.417 22.2558 215.461 19.6539 212.285 16.9315C209.42 14.4748 207.047 11.2961 206.466 7.4952C206.066 4.88019 206.513 0.16488 210.359 0.913372C213.283 1.48275 214.026 5.62868 213.78 8.06269C213.393 11.9088 211.1 15.9605 207.735 17.9854C204.6 19.8708 200.504 19.7312 197.027 19.0902C193.035 18.3549 188.842 16.5355 185.809 13.7942C183.1 11.347 182.006 7.31986 183.398 3.89603C184.182 1.96541 185.619 0.623025 187.704 0.240295C189.734 -0.133008 191.658 0.528757 192.753 2.32363C195.086 6.14527 192.956 10.6174 190.293 13.6245C188.013 16.2018 185.045 18.2173 181.826 19.4428C178.629 20.6588 175.054 21.1208 171.725 20.1649C168.013 19.0996 165.123 16.3357 163.964 12.6592C162.65 8.49067 163.848 4.04309 165.721 0.23841C167.299 -2.9686 169.569 -5.86265 172.457 -8.00065C175.264 -10.0783 178.576 -11.3359 182.074 -11.532C182.383 -11.5451 182.385 -12.0165 182.08 -11.9995Z" fill="white"/>
<path d="M182.765 56.9132C183.255 63.8153 187.829 71.6541 195.297 72.5986C202.877 73.5564 208.879 65.4485 210.083 58.805C210.557 56.1797 206.399 55.8948 205.927 58.4989C204.875 64.314 198.75 71.1976 192.56 67.2479C188.889 64.905 187.148 60.2719 186.851 56.1059C186.666 53.4569 182.576 54.2774 182.765 56.9132Z" fill="#3F414E"/>
<path d="M182.386 56.9213C182.903 63.0662 186.21 69.7361 192.223 72.1766C198.433 74.6989 204.295 71.0949 207.637 65.8761C208.479 64.5595 209.171 63.1427 209.696 61.6705C210.093 60.557 210.817 58.8711 210.372 57.6759C209.767 56.0586 207.462 55.9477 206.309 57.0189C205.418 57.8474 205.424 59.2405 205.045 60.317C204.374 62.2087 203.269 64.0002 201.846 65.4223C198.191 69.0659 193.252 68.5857 190.151 64.4883C188.746 62.6335 187.906 60.3829 187.485 58.1112C187.265 56.9213 187.506 55.2644 186.369 54.4729C184.559 53.2143 182.402 55.0375 182.386 56.9213C182.383 57.4068 183.138 57.391 183.144 56.9055C183.16 55.0137 185.889 53.8766 186.475 56.1166C186.798 57.3487 186.777 58.6653 187.13 59.9133C187.829 62.3855 189.07 64.8075 191.012 66.541C195.014 70.116 200.049 68.9103 203.264 64.9737C204.003 64.0661 204.642 63.0741 205.151 62.0187C205.729 60.8156 205.888 59.4938 206.399 58.2907C207.019 56.8316 209.542 56.4807 209.744 58.4384C209.884 59.813 208.88 61.8393 208.334 63.024C205.85 68.4169 200.563 73.5169 194.147 72.0025C187.456 70.4247 183.679 63.2588 183.144 56.9028C183.101 56.4253 182.346 56.4385 182.386 56.9213Z" fill="#3F414E"/>
<path d="M156.792 77.6551C156.747 77.6551 156.705 77.6513 156.669 77.6419C156.537 77.6099 156.427 77.5307 156.363 77.4194C156.26 77.2422 156.319 77.0179 156.497 76.9142C162.074 73.6374 168.108 69.8327 169.714 68.4055C168.551 68.8523 165.314 70.5661 156.347 76.4541C155.455 77.0405 155.455 77.0405 155.293 77.0009C155.192 76.9764 155.107 76.9142 155.056 76.8256C154.925 76.5993 154.971 76.3391 155.425 75.8885C153.766 76.8369 152.995 77.1649 152.692 77.0914C152.575 77.0612 152.477 76.9896 152.418 76.8897C151.992 76.1544 153.465 75.0005 164.638 68.2773C164.79 68.1849 164.943 68.0944 165.095 68.002C163.96 68.6675 162.731 69.401 161.47 70.1645C159.773 71.2241 157.806 72.4402 155.527 73.8429C154.931 74.2087 154.385 74.5443 153.939 74.8214C153.512 75.0891 153.1 75.3512 152.704 75.6019C152.619 75.6566 152.513 75.6736 152.414 75.6491C152.316 75.6246 152.23 75.5624 152.179 75.4737C152.052 75.2531 152.157 75.0967 152.302 74.976L152.3 74.9741C152.302 74.9722 152.308 74.9685 152.319 74.9628C152.376 74.9176 152.439 74.878 152.497 74.8403C152.63 74.7554 152.825 74.6329 153.073 74.4783C153.253 74.367 153.461 74.2388 153.692 74.0955C155.336 73.0623 158.215 71.2637 161.135 69.4952C164.152 67.6117 167.367 65.5699 169.331 64.2143C168.585 64.6159 167.68 65.1193 166.659 65.7C165.08 66.7369 162.917 68.0906 159.947 69.8723C154.721 73.0058 149.488 75.9545 149.437 75.9847C149.259 76.0846 149.036 76.0243 148.931 75.8508C148.827 75.6774 148.884 75.4511 149.056 75.3455C149.109 75.3135 154.435 72.0405 159.813 68.8391C162.591 67.1856 164.699 65.9564 166.301 65.0458C166.905 64.6498 167.454 64.2803 167.937 63.9447C165.848 65.1551 162.877 66.8764 159.9 68.5978C148.835 74.9911 148.81 74.9817 148.594 74.9232C148.498 74.8987 148.416 74.8346 148.365 74.7498C148.318 74.6687 148.272 74.5367 148.31 74.3633C147.536 74.6857 146.998 74.8157 146.697 74.7441C146.483 74.6932 146.371 74.5669 146.316 74.4726C146.265 74.3821 146.214 74.2332 146.269 74.0333C146.297 73.9334 146.335 73.792 146.577 73.5205C146.471 73.5375 146.384 73.5375 146.318 73.5205C146.187 73.4884 146.081 73.4111 146.019 73.3018C145.841 72.9964 146.102 72.8173 146.354 72.6438C146.506 72.5401 146.727 72.3912 147.013 72.2026C147.577 71.8274 148.388 71.2995 149.361 70.666C150.513 69.9175 151.969 68.9749 153.711 67.8512C149.886 70.091 146.388 72.0461 145.006 72.8154C144.828 72.9153 144.602 72.8531 144.5 72.6758C144.398 72.5005 144.456 72.2743 144.633 72.1706C144.687 72.1385 150.14 68.8938 155.586 65.7094C157.656 64.499 159.349 63.5148 160.735 62.7154C162.163 61.8105 163.396 60.9941 164.356 60.3135C162.413 61.505 159.68 63.1717 156.929 64.8157C146.47 71.0695 145.964 70.9432 145.661 70.8678C145.545 70.8395 145.449 70.7679 145.392 70.6698C145.341 70.5793 145.29 70.4323 145.343 70.2343C145.364 70.1551 145.409 70.0665 145.473 69.9703C144.759 70.2381 144.555 70.1909 144.42 70.1589C144.271 70.1231 144.15 70.0363 144.078 69.9138C143.932 69.663 143.886 69.5838 144.981 68.8372C144.451 69.0371 144.091 69.1068 143.886 69.0578C143.695 69.0107 143.595 68.8976 143.544 68.8108C143.494 68.726 143.481 68.6242 143.506 68.528C143.532 68.4319 143.595 68.3508 143.682 68.3018C151.95 63.6016 160.838 58.1887 163.112 56.2222C160.442 57.4628 152.416 62.3893 147.833 65.2022C142.703 68.3508 142.701 68.3508 142.462 68.2924C142.364 68.2679 142.279 68.2037 142.227 68.117C142.125 67.9417 142.184 67.7173 142.358 67.6136C146.759 64.9647 152.842 61.226 156.97 58.5525C155.688 59.3331 154.31 60.1815 153.041 60.9639C144.807 66.0412 142.915 67.1084 142.39 66.9764C142.277 66.9481 142.182 66.8783 142.125 66.7803C142.027 66.6087 142.078 66.39 142.245 66.2826C144.097 65.0797 146.227 63.6939 148.327 62.3214C143.644 65.1834 142.568 65.7471 142.186 65.6528C142.076 65.6246 141.985 65.5586 141.93 65.4624C141.593 64.8817 142.216 64.3519 150.132 59.5819C152.442 58.1905 155.147 56.5597 156.667 55.5265C153.961 56.8991 148.244 60.551 145.784 62.1197C143.318 63.6939 143.32 63.6921 143.125 63.6449C143.027 63.6204 142.94 63.5563 142.888 63.4696C142.699 63.1415 142.794 63.0774 143.951 62.3044C144.553 61.901 145.4 61.3448 146.367 60.7075C147.339 60.0684 148.57 59.2577 149.818 58.4281C145.339 61.1016 145.021 61.2109 144.761 61.1449C144.665 61.1204 144.572 61.0507 144.521 60.9639C144.43 60.8074 144.466 60.6076 144.606 60.4926L147.674 57.9586C147.651 57.9568 147.629 57.9492 147.6 57.9436L147.693 57.5835L148.017 57.3987L147.693 57.5835L147.526 57.2516C147.568 57.229 147.812 57.0801 148.07 56.9217C150.855 55.2173 150.926 55.2362 151.136 55.289C151.234 55.3135 151.323 55.3813 151.374 55.4681C151.465 55.6246 151.429 55.8244 151.289 55.9394L148.051 58.6148C149.204 57.9341 150.469 57.1724 151.513 56.5465C155.912 53.9051 155.927 53.907 156.158 53.9673C156.255 53.9918 156.342 54.0578 156.391 54.1427C156.51 54.3482 156.596 54.4952 155.794 55.157C157.133 54.4519 157.874 54.1917 158.194 54.2671C158.33 54.301 158.442 54.3802 158.506 54.4933C158.69 54.8101 158.599 55.0967 157.173 56.0808C158.421 55.3757 158.872 55.2098 159.088 55.2644C159.198 55.2927 159.288 55.3587 159.343 55.4549C159.546 55.8055 159.546 55.8055 156.673 57.7211C155.916 58.2264 154.99 58.8391 153.904 59.5537C160.19 55.6868 161.521 54.9515 161.934 55.0552C162.044 55.0835 162.133 55.1494 162.188 55.2437C162.284 55.4096 162.366 55.5529 161.862 56.0242C163.133 55.37 163.786 55.14 164.048 55.2041C164.169 55.2343 164.267 55.3078 164.326 55.4096C164.375 55.4926 164.421 55.6321 164.371 55.8169C164.324 55.9941 164.244 56.2882 163.006 57.2479C163.517 56.9217 163.826 56.7275 164.023 56.6144C164.11 56.5597 164.157 56.5295 164.161 56.5258L164.167 56.5352C164.333 56.4503 164.377 56.4617 164.449 56.4786C164.547 56.5031 164.635 56.5654 164.686 56.654C164.786 56.8255 164.731 57.0461 164.563 57.1536C163.591 57.7701 162.555 58.4262 161.487 59.1031C160.366 59.8195 159.306 60.4945 158.304 61.1279C153.736 64.039 149.113 67.0009 146.595 68.6562C147.049 68.4281 147.568 68.1528 148.144 67.838C150.049 66.5974 152.863 64.9685 156.408 62.9379C159.194 61.2109 162.188 59.2991 165.063 57.4175C165.148 57.361 165.254 57.3421 165.354 57.3666C165.455 57.3911 165.54 57.4534 165.591 57.542C165.652 57.6476 165.667 57.7739 165.634 57.9002C165.455 58.5695 163.118 59.9571 156.982 63.4677C156.868 63.5318 156.755 63.5978 156.637 63.6638C156.334 63.8523 156.029 64.039 155.724 64.2275C152.475 66.2298 150.183 67.5665 148.558 68.4545C147.74 68.9824 147.066 69.45 146.623 69.812C149.748 68.3263 160.11 62.0744 166.729 57.97C166.814 57.9172 166.918 57.9002 167.017 57.9247C167.115 57.9492 167.199 58.0114 167.25 58.1C167.303 58.1924 167.354 58.3451 167.297 58.5525C167.235 58.7807 166.966 59.1031 166.534 59.4971C167.04 59.2614 167.119 59.2822 167.201 59.3029C167.297 59.3274 167.388 59.3953 167.437 59.482C167.538 59.6536 167.483 59.8723 167.316 59.9798C165.22 61.324 161.853 63.4847 158.434 65.683C160.357 64.5537 162.25 63.4658 163.873 62.542C167.759 60.1438 168.547 59.7497 168.869 59.827C168.968 59.8516 169.07 59.927 169.121 60.0137C169.17 60.1004 169.183 60.2022 169.157 60.2984C169.13 60.3945 169.066 60.4756 168.979 60.5246C167.468 61.3599 165.939 62.2158 164.43 63.0718C163.212 63.8221 161.856 64.6668 160.518 65.502C154.967 68.9654 151.289 71.2166 149.045 72.4289C148.074 73.1151 147.405 73.6525 147.125 73.9937C147.521 73.907 148.437 73.562 150.554 72.393C151.751 71.6182 153.44 70.6302 155.656 69.3708C158.421 67.6589 161.353 65.7678 163.625 64.2991C168.335 61.258 168.362 61.2618 168.619 61.324C168.719 61.3485 168.81 61.4145 168.86 61.5031C168.911 61.5899 168.96 61.735 168.907 61.9255C168.812 62.2724 168.288 62.7607 167.303 63.4413C168.5 62.7475 169.566 62.1272 170.43 61.6276C170.515 61.5786 170.617 61.5635 170.714 61.5899C170.81 61.6144 170.892 61.6785 170.941 61.7633C170.99 61.8482 171.037 61.9896 170.986 62.1781C170.958 62.2837 170.918 62.4289 170.649 62.7192C171.34 62.4138 171.475 62.4458 171.581 62.4741C171.695 62.5024 171.787 62.5721 171.844 62.6683C171.982 62.9077 172.096 63.1019 170.53 64.2577C170.952 64.1087 171.081 64.1408 171.181 64.1653C171.306 64.1955 171.41 64.2709 171.471 64.3764C171.691 64.7535 171.492 64.9364 169.543 66.1562C168.388 66.8783 166.754 67.8625 165.021 68.9051C161.633 70.9432 156.455 74.0578 154.194 75.717C156.171 74.6366 159.775 72.3912 162.608 70.6265C169.547 66.3033 170.941 65.5058 171.407 65.6208C171.518 65.6491 171.611 65.7169 171.666 65.8131C171.888 66.1939 171.64 66.3862 170.002 67.4194C169.877 67.4986 169.746 67.5797 169.608 67.6664C170.045 67.5156 170.287 67.4967 170.441 67.5326C170.59 67.5684 170.71 67.6532 170.782 67.7758C170.905 67.9869 171.03 68.2038 170.185 68.956C170.751 68.6393 170.867 68.6393 171.003 68.6713C171.102 68.6958 171.198 68.7656 171.25 68.8542C171.428 69.1634 171.428 69.1634 169.556 70.5001C168.653 71.1449 167.466 71.9896 166.261 72.8436C166.576 72.6419 166.875 72.4496 167.151 72.2724C170.197 70.3116 170.346 70.2437 170.604 70.3059C170.704 70.3304 170.797 70.3983 170.848 70.4869C170.95 70.6642 170.89 70.8923 170.712 70.9941C170.657 71.0262 170.598 71.0412 170.539 71.0431C170.2 71.1921 168.799 72.0952 167.557 72.8964C162.981 75.8433 161.252 76.8633 160.667 76.7237C160.538 76.6936 160.434 76.6163 160.372 76.5088C160.275 76.3429 160.322 76.1298 160.48 76.0205C160.904 75.7207 161.353 75.4059 161.815 75.0797C158.942 76.8501 157.414 77.6551 156.792 77.6551ZM170.202 70.8659C170.212 70.881 170.221 70.8961 170.231 70.9093C170.221 70.8961 170.212 70.881 170.202 70.8659Z" fill="#F38242"/>
<path d="M233.14 83.0003C233.098 83.0003 233.06 82.9965 233.028 82.989C232.882 82.9551 232.763 82.8702 232.695 82.7514C232.513 82.4366 232.776 82.2744 233.054 82.1029L233.71 81.7013C240.554 77.5082 244.023 75.2439 245.746 74.0278C242.584 75.736 236.278 79.5802 232.064 82.2235C231.979 82.2782 231.875 82.2952 231.776 82.2707C231.678 82.2462 231.592 82.1839 231.543 82.0953C231.369 81.7974 231.632 81.607 231.823 81.4694C231.943 81.3827 232.121 81.2582 232.346 81.1036C232.793 80.7944 233.437 80.3589 234.21 79.8404C235.361 79.0655 236.899 78.038 238.791 76.7786C235.026 78.9505 231.072 81.2375 228.752 82.5799C228.577 82.6817 228.352 82.6251 228.246 82.4535C228.14 82.282 228.189 82.0576 228.358 81.9464L230.733 80.3947C228.744 81.541 227.593 82.0538 227.131 81.9426C226.989 81.9087 226.871 81.8238 226.803 81.7051C226.617 81.3845 226.907 81.1979 227.212 81.0018C227.364 80.9057 227.568 80.7756 227.822 80.6191C226.017 81.5052 225.707 81.4317 225.525 81.3883C225.385 81.3544 225.269 81.2714 225.203 81.1564C225.1 80.9811 225.159 80.7567 225.333 80.653C225.769 80.391 226.22 80.1213 226.682 79.8423C224.797 80.785 224.5 80.7134 224.311 80.6662C224.176 80.6342 224.066 80.555 224.002 80.4419C223.949 80.3514 223.898 80.2024 223.953 80.0026C224.01 79.7971 224.214 79.5369 224.559 79.2258C224.485 79.2314 224.423 79.2277 224.371 79.2145C224.239 79.1824 224.129 79.1032 224.065 78.992C223.911 78.7281 223.896 78.5489 224.86 77.874C223.745 78.3887 223.536 78.3378 223.394 78.302C223.267 78.2718 223.163 78.1945 223.103 78.0889C222.894 77.7307 223.246 77.4913 223.779 77.1293C223.875 77.0633 223.985 76.9897 224.106 76.9106C223.059 77.4008 222.873 77.3555 222.739 77.3216C222.618 77.2914 222.519 77.2198 222.461 77.1179C222.411 77.0331 222.396 76.9238 222.423 76.8276C222.491 76.5769 222.5 76.5448 227.312 73.8016C230.886 71.7654 237.313 68.1021 240.544 65.8529C238.478 67.0689 235.393 68.8827 232.314 70.6775C221.402 77.0388 221.23 76.9973 220.997 76.9351C220.9 76.9106 220.813 76.8446 220.762 76.7578C220.51 76.3223 220.51 76.3223 227.015 72.4667C229.255 71.1394 232.354 69.3031 235.139 67.5874C234.016 68.2529 232.835 68.9524 231.653 69.6481C220.732 76.0753 220.413 75.9943 220.162 75.9302C220.065 75.9057 219.966 75.834 219.917 75.7473C219.817 75.5738 219.872 75.3532 220.042 75.2477C226.335 71.3091 235.276 65.6681 238.596 63.4754C238.336 63.5904 238.048 63.7299 237.73 63.8883C236.421 64.8725 234.102 66.4317 229.96 68.9618C225.477 71.7013 220.993 74.2673 220.947 74.2937C220.773 74.3936 220.552 74.3389 220.446 74.1692C220.34 73.9996 220.387 73.7771 220.552 73.664C221.824 72.8023 225.337 70.4419 229.055 68.0983C225.445 70.1798 221.733 72.3253 219.518 73.6074C219.432 73.6564 219.328 73.6715 219.234 73.6451C219.137 73.6206 219.056 73.5565 219.006 73.4716C218.819 73.1492 219.093 72.9683 219.508 72.6949C219.669 72.5893 219.877 72.4554 220.126 72.2971C219.601 72.5252 219.237 72.61 219.008 72.5554C218.859 72.5195 218.736 72.4328 218.662 72.3065C218.561 72.1349 218.616 71.9143 218.785 71.8069C223.419 68.8581 229.661 64.8536 233.414 62.38C231.365 63.5999 228.788 65.2514 226.775 66.541C221.366 70.0063 220.419 70.555 220.002 70.4569C219.891 70.4305 219.798 70.3608 219.741 70.2646C219.523 69.8876 219.798 69.716 221.118 68.8827C221.921 68.3755 223.021 67.7062 224.294 66.9294C226.847 65.374 230.664 63.0456 232.643 61.6428C229.956 63.0738 224.529 66.4166 220.929 68.7073C220.843 68.762 220.737 68.779 220.639 68.7545C220.54 68.7299 220.455 68.6677 220.404 68.5791C220.205 68.2379 220.23 68.0286 222.699 66.3355C222.122 66.6409 221.86 66.7051 221.68 66.6636C221.565 66.6353 221.468 66.5655 221.411 66.4656C221.25 66.1885 221.436 66.0357 221.745 65.7793C221.906 65.6455 222.137 65.4569 222.413 65.2307C222.845 64.88 223.39 64.4388 223.96 63.9788C223.943 63.9769 223.926 63.9732 223.911 63.9694C223.811 63.9449 223.71 63.8713 223.659 63.7846C223.557 63.6074 223.618 63.3793 223.796 63.2775C223.86 63.2397 223.928 63.2247 224 63.2284C224.265 63.1134 225.104 62.5723 225.671 62.2047C227.256 61.179 227.468 61.0678 227.714 61.1281C227.814 61.1526 227.911 61.2243 227.962 61.3129C228.055 61.4713 228.017 61.673 227.873 61.788C227.036 62.4611 226.036 63.2643 225.1 64.0184C225.631 63.6809 226.165 63.3397 226.651 63.0286C230.716 60.4249 231.56 59.9498 231.967 60.0497C232.083 60.078 232.178 60.1477 232.236 60.2477C232.435 60.5927 232.259 60.8114 230.875 61.7786C233.819 60.1081 234.117 60.1798 234.316 60.2269C234.435 60.2552 234.533 60.3287 234.592 60.4287C234.662 60.5493 234.692 60.6738 234.62 60.8378C235.876 60.1553 236.611 59.88 236.952 59.9611C237.09 59.995 237.204 60.0761 237.272 60.193C237.467 60.5286 237.226 60.6983 236.429 61.2545C236.418 61.262 236.408 61.2695 236.397 61.2771C237.145 60.9019 237.632 60.7511 237.904 60.8152C238.05 60.8491 238.169 60.9339 238.239 61.0565C238.416 61.3581 238.522 61.5429 235.736 63.3962C235.761 63.3811 235.787 63.368 235.812 63.3529C236.74 62.8212 237.514 62.38 238.058 62.0727C238.33 61.9181 238.546 61.7974 238.692 61.7164C238.934 61.5825 239.237 61.4166 239.423 61.7371C239.472 61.8238 239.522 61.9633 239.47 62.1519C239.451 62.2216 239.429 62.3103 239.334 62.4479C239.667 62.3536 239.925 62.3197 240.093 62.3593C240.315 62.4102 240.431 62.5384 240.487 62.6364C240.682 62.972 240.487 63.104 239.55 63.7356C239.039 64.0806 238.283 64.5765 237.302 65.21C236.012 66.0433 234.321 67.1255 232.257 68.4358C235.567 66.4826 239.048 64.4068 241.976 62.644C242.061 62.5931 242.165 62.578 242.262 62.6025C242.358 62.627 242.442 62.6892 242.493 62.7759C242.73 63.1851 242.398 63.6187 241.127 64.567C240.932 64.7122 240.718 64.8668 240.482 65.0327C241.234 64.5897 241.965 64.1579 242.663 63.745C242.749 63.6941 242.851 63.6809 242.949 63.7054C243.046 63.7299 243.127 63.794 243.178 63.8789C243.231 63.9713 243.284 64.1259 243.228 64.3333C243.171 64.5425 242.974 64.8065 242.641 65.1289C242.872 64.9837 243.101 64.8423 243.324 64.7028C243.409 64.65 243.514 64.633 243.612 64.6575C243.711 64.6821 243.794 64.7443 243.845 64.8329C244.186 65.4211 243.697 65.9641 231.214 73.449C230.098 74.1183 228.969 74.7952 227.939 75.4173C232.583 72.7948 239.849 68.3302 244.93 65.1195C245.015 65.0648 245.12 65.0478 245.22 65.0723C245.318 65.0968 245.404 65.1591 245.455 65.2477C245.604 65.5041 245.548 65.7888 244.862 66.3732C245.294 66.1866 245.561 66.13 245.727 66.1696C245.852 66.1998 245.955 66.2752 246.015 66.3808C246.08 66.4901 246.095 66.6221 246.059 66.7522C245.854 67.4969 243.084 69.1183 236.327 72.9173C232.045 75.325 226.354 78.5263 224.974 79.8216C227.723 78.7959 239.171 71.7597 246.341 67.1783C246.426 67.1236 246.532 67.1066 246.631 67.1293C246.729 67.1538 246.814 67.216 246.866 67.3046C247.117 67.7382 247.282 68.0229 236.372 74.7933C234.876 75.7228 233.369 76.6485 231.981 77.4969C236.581 74.8178 242.733 70.9679 247.195 68.0927C247.28 68.038 247.386 68.0192 247.485 68.0437C247.585 68.0682 247.67 68.1304 247.722 68.219C247.854 68.449 247.86 68.6998 246.979 69.4294C247.86 68.9524 248.303 68.8016 248.534 68.8563C248.655 68.8845 248.754 68.9581 248.812 69.0599C248.911 69.2314 248.86 69.4483 248.693 69.5557L240.141 75.1421C245.629 71.9766 247.398 70.9622 248.03 70.6511C248.098 70.6059 248.134 70.5833 248.134 70.5833L248.144 70.5983C248.343 70.5078 248.383 70.5192 248.437 70.5342C248.579 70.5719 248.686 70.6888 248.71 70.834C248.735 70.9792 248.67 71.1225 248.549 71.2035C247.318 72.0161 245.966 72.9117 244.582 73.8299C247.295 72.3235 247.563 72.3894 247.748 72.4347C247.864 72.463 247.96 72.5346 248.019 72.6327C248.157 72.8702 248.286 73.0927 246.474 74.42C246.724 74.2692 246.867 74.1843 246.873 74.1805C247.047 74.0769 247.271 74.1296 247.381 74.3012C247.489 74.4709 247.441 74.6971 247.273 74.8084C247.036 74.9667 246.758 75.1534 246.441 75.3608C247.89 74.6161 248.127 74.6726 248.282 74.7103C248.409 74.7405 248.511 74.8159 248.574 74.9215C248.757 75.2364 248.841 75.3796 245.099 78.0606C245.394 77.8872 245.68 77.7194 245.953 77.5591C246.131 77.4554 246.36 77.5139 246.464 77.6892C246.568 77.8664 246.51 78.0946 246.333 78.1983C238.495 82.8099 238.425 82.7873 238.226 82.7364C238.13 82.7118 238.046 82.6477 237.997 82.561C237.825 82.2631 238.01 82.133 238.461 81.8163C238.69 81.656 239.02 81.426 239.421 81.147C240.813 80.1779 244.178 77.8306 246.241 76.3054C243.803 77.6308 239.52 80.2722 235.626 82.7929C235.539 82.8495 235.435 82.8664 235.334 82.8419C235.234 82.8174 235.149 82.7552 235.098 82.6666C235.043 82.5704 234.986 82.4743 235.024 82.3272C234.153 82.7458 233.488 83.0003 233.14 83.0003ZM235.944 62.3517C234.09 63.417 231.217 65.3174 228.901 66.8521C231.564 65.1949 234.27 63.4867 235.944 62.3517Z" fill="#F38242"/>
<path d="M243.951 55.53C244.116 51.1447 241.061 44.9211 236.043 44.6948C233.789 44.593 231.678 46.2691 230.333 47.915C228.78 49.8136 227.716 52.0364 227.326 54.4591C227.023 56.3313 229.909 57.0685 230.214 55.185C230.485 53.5108 231.066 51.9742 232.03 50.5734C232.85 49.3818 234.145 47.8754 235.679 47.6737C237.401 47.4475 238.882 49.3686 239.671 50.6243C240.628 52.1477 241.042 53.8087 240.974 55.5979C240.902 57.5021 243.879 57.4324 243.951 55.53Z" fill="#3F414E"/>
<path d="M244.22 55.5245C244.296 51.8971 242.66 47.8077 239.615 45.6791C235.655 42.9095 231.555 45.4472 229.203 48.9974C228.206 50.5 226.705 53.1791 227.065 55.0626C227.277 56.1656 228.636 56.9065 229.668 56.3861C230.146 56.1467 230.337 55.7395 230.475 55.2493C230.888 53.7768 231.18 52.4156 232.013 51.0883C232.772 49.876 233.918 48.3809 235.38 48.0057C237.094 47.5664 238.45 49.25 239.276 50.5038C240.209 51.9216 240.664 53.4657 240.713 55.1569C240.734 55.8997 240.732 56.5879 241.444 57.0177C242.628 57.7304 244.065 56.8839 244.216 55.5962C244.256 55.2568 243.732 55.1211 243.692 55.4642C243.588 56.3635 242.588 57.1196 241.707 56.5464C240.946 56.0506 241.264 54.5498 241.141 53.773C240.882 52.129 240.133 50.6263 239.09 49.3349C238.253 48.2998 237.077 47.2383 235.64 47.408C234.1 47.589 232.884 48.9389 232.03 50.1098C231.502 50.8337 231.055 51.6105 230.71 52.4363C230.328 53.3545 230.297 54.4555 229.884 55.3303C229.356 56.4484 227.85 56.0411 227.612 54.9344C227.402 53.9691 228.032 52.5702 228.396 51.6784C229.989 47.7757 234.132 43.2169 238.679 45.7244C242.012 47.5626 243.76 51.8877 243.682 55.5377C243.673 55.8828 244.215 55.8714 244.22 55.5245Z" fill="#3F414E"/>
<path d="M167.071 49.5314C167.236 45.1461 164.181 38.9206 159.163 38.6962C156.909 38.5944 154.798 40.2705 153.453 41.9164C151.9 43.815 150.836 46.0379 150.446 48.4606C150.143 50.3327 153.029 51.0699 153.334 49.1864C153.605 47.5122 154.186 45.9756 155.15 44.5748C155.97 43.3833 157.265 41.8768 158.799 41.6751C160.521 41.4489 162.002 43.3701 162.791 44.6257C163.748 46.1491 164.162 47.8101 164.094 49.5993C164.024 51.5035 167.001 51.4319 167.071 49.5314Z" fill="#3F414E"/>
<path d="M167.342 49.5255C167.418 45.898 165.782 41.8087 162.737 39.6801C158.777 36.9105 154.677 39.4482 152.325 42.9983C151.328 44.501 149.827 47.1801 150.187 49.0636C150.399 50.1665 151.758 50.9075 152.79 50.3871C153.268 50.1477 153.459 49.7404 153.597 49.2502C154.01 47.7777 154.302 46.4165 155.135 45.0892C155.894 43.8769 157.04 42.3818 158.502 42.0066C160.216 41.5673 161.572 43.251 162.398 44.5047C163.331 45.9225 163.786 47.4667 163.835 49.1578C163.856 49.9007 163.852 50.5888 164.566 51.0187C165.75 51.7314 167.187 50.8848 167.338 49.5971C167.378 49.2578 166.854 49.122 166.814 49.4652C166.708 50.3645 165.71 51.1205 164.829 50.5474C164.068 50.0515 164.386 48.5507 164.263 47.774C164.004 46.1299 163.255 44.6273 162.212 43.3358C161.375 42.3007 160.199 41.2393 158.762 41.409C157.222 41.59 156.006 42.9399 155.152 44.1107C154.624 44.8347 154.177 45.6115 153.832 46.4373C153.45 47.3554 153.419 48.4565 153.006 49.3313C152.478 50.4493 150.972 50.0421 150.734 48.9354C150.524 47.9701 151.154 46.5711 151.518 45.6793C153.111 41.7785 157.254 37.2197 161.801 39.7253C165.134 41.5636 166.882 45.8886 166.804 49.5387C166.795 49.8837 167.335 49.8705 167.342 49.5255Z" fill="#3F414E"/>
</g>
<path d="M384.84 208.795C366.393 208.795 350.404 219.317 342.539 234.681C335.192 222.431 321.785 214.239 306.459 214.239C297.536 214.239 289.268 217.018 282.461 221.761C274.558 215.038 264.311 210.973 253.119 210.973C238.029 210.973 224.659 218.358 216.422 229.702C209.12 221.548 198.515 216.417 186.714 216.417C176.557 216.417 167.292 220.216 160.249 226.466C155.765 224.22 150.702 222.949 145.342 222.949C135.756 222.949 127.123 226.999 121.047 233.471C114.743 226.352 105.531 221.86 95.2678 221.86C87.3726 221.86 80.0941 224.525 74.285 228.994C67.2273 219.386 55.8527 213.15 43.0163 213.15C33.8039 213.15 25.3453 216.363 18.6911 221.731C13.8032 215.876 7.34698 211.369 -0.0305176 208.856V242.242C0.0836851 242.242 0.190274 242.234 0.304477 242.234C2.02513 242.234 3.70772 242.401 5.33701 242.698C11.7628 243.878 17.412 247.259 21.4777 252.048C23.2744 249.421 25.6118 247.198 28.3298 245.531C31.7483 243.437 35.7606 242.234 40.0622 242.234C48.4523 242.234 55.7689 246.833 59.6442 253.639C60.0782 253.449 60.5274 253.274 60.9842 253.121C62.7657 252.512 64.6767 252.17 66.6715 252.17C69.9605 252.17 73.044 253.076 75.6783 254.659C77.3837 252.634 79.4241 250.906 81.7158 249.551C85.1952 247.503 89.2455 246.322 93.57 246.322C100.887 246.322 107.419 249.688 111.713 254.949C111.827 254.857 111.934 254.773 112.048 254.682C115.619 252.002 120.05 250.411 124.854 250.411C126.369 250.411 127.846 250.571 129.27 250.868C133.792 251.819 137.789 254.202 140.759 257.522C142.479 254.636 144.71 252.101 147.329 250.015C152.072 246.239 158.079 243.97 164.612 243.97C169.218 243.97 173.558 245.097 177.38 247.084C180.905 248.911 183.988 251.469 186.424 254.568C190.117 252.299 194.457 250.989 199.109 250.989C199.801 250.989 200.479 251.028 201.157 251.081C203.441 248.911 206.09 247.129 209.006 245.828C212.501 244.267 216.376 243.384 220.449 243.384C221.842 243.384 223.205 243.49 224.538 243.681C229.03 244.335 233.164 246.056 236.696 248.576C242.361 243.186 250.02 239.874 258.448 239.874C261.486 239.874 264.425 240.315 267.204 241.115C273.736 242.995 279.401 246.931 283.451 252.177C286.793 250.662 290.501 249.817 294.407 249.817C295.617 249.817 296.813 249.908 297.978 250.061C305.934 251.127 312.771 255.71 316.89 262.204C321.45 256.776 328.279 253.327 335.923 253.327C336.426 253.327 336.921 253.35 337.416 253.373C341.436 253.609 345.197 254.804 348.47 256.73C351.303 258.39 353.777 260.598 355.749 263.202C360.195 253.578 369.933 246.893 381.231 246.893C387.726 246.893 393.702 249.109 398.461 252.809C398.91 253.159 399.344 253.517 399.77 253.89C402.633 252.771 405.747 252.154 409.005 252.154C410.665 252.154 412.295 252.322 413.871 252.626V228.05V218.708C405.869 212.503 395.788 208.795 384.84 208.795Z" fill="#3B3A55"/>
<path d="M399.801 252.657C399.374 252.284 398.94 251.926 398.491 251.576C393.733 247.868 387.756 245.66 381.262 245.66C369.963 245.66 360.226 252.345 355.779 261.969C353.808 259.365 351.333 257.157 348.501 255.497C345.22 253.571 341.458 252.375 337.446 252.139C336.951 252.109 336.456 252.094 335.954 252.094C328.31 252.094 321.481 255.543 316.92 260.971C312.809 254.484 305.972 249.901 298.008 248.828C296.836 248.668 295.648 248.584 294.437 248.584C290.532 248.584 286.824 249.429 283.482 250.944C279.431 245.698 273.767 241.762 267.234 239.882C264.455 239.082 261.517 238.641 258.479 238.641C250.043 238.641 242.391 241.953 236.727 247.343C233.194 244.823 229.053 243.11 224.568 242.447C223.236 242.249 221.865 242.151 220.48 242.151C216.399 242.151 212.531 243.026 209.037 244.594C206.121 245.896 203.471 247.678 201.187 249.848C200.509 249.794 199.832 249.756 199.139 249.756C194.487 249.756 190.147 251.066 186.455 253.335C184.019 250.244 180.935 247.678 177.41 245.851C173.588 243.864 169.248 242.737 164.642 242.737C158.102 242.737 152.103 244.998 147.36 248.782C144.74 250.868 142.51 253.403 140.789 256.289C137.82 252.969 133.823 250.586 129.3 249.635C127.877 249.338 126.4 249.178 124.884 249.178C120.08 249.178 115.642 250.769 112.079 253.449C111.964 253.533 111.858 253.624 111.744 253.715C107.457 248.455 100.925 245.089 93.6005 245.089C89.2761 245.089 85.2257 246.269 81.7463 248.317C79.4546 249.665 77.4142 251.401 75.7088 253.426C73.0745 251.85 69.9986 250.937 66.702 250.937C64.7072 250.937 62.7963 251.272 61.0147 251.881C60.5579 252.033 60.1163 252.208 59.6747 252.398C55.807 245.584 48.4905 240.993 40.0928 240.993C35.7911 240.993 31.7788 242.196 28.3603 244.29C25.6423 245.957 23.305 248.18 21.5082 250.807C17.4426 246.026 11.7933 242.638 5.36753 241.458C3.73062 241.161 2.05565 240.993 0.334995 240.993C0.220792 240.993 0.106589 241.001 0 241.001V274.356C0.114203 274.356 0.220792 274.348 0.334995 274.348C4.97162 274.348 9.17428 276.183 12.2806 279.16C12.5395 277.934 12.8897 276.746 13.3236 275.597C14.4048 272.734 16.0112 270.13 18.0136 267.892C20.1986 265.455 22.8634 263.461 25.8555 262.052C26.2742 261.854 26.7082 261.672 27.1422 261.496C29.9744 260.362 33.0579 259.73 36.2936 259.73C41.2805 259.73 45.9247 261.222 49.8 263.781C53.6067 266.293 56.675 269.841 58.6012 274.021C59.1646 273.777 59.7356 273.564 60.3295 273.381C61.974 272.871 63.7175 272.597 65.5295 272.597C65.5752 272.597 65.6285 272.597 65.6742 272.605C67.4329 272.62 69.1231 272.886 70.7219 273.381C70.9732 273.457 71.2244 273.541 71.468 273.632C73.3257 268.448 76.5082 263.895 80.5966 260.37C80.9697 260.05 81.3504 259.738 81.7311 259.433C87.091 255.223 93.8518 252.71 101.191 252.71C104.625 252.71 107.929 253.266 111.028 254.279C111.363 254.393 111.705 254.5 112.033 254.621C112.223 254.69 112.406 254.766 112.589 254.842C118.002 256.944 122.699 260.484 126.186 265.014C126.925 264.725 127.686 264.473 128.455 264.253C130.754 263.598 133.176 263.24 135.688 263.24C136.404 263.24 137.104 263.278 137.805 263.331C140.515 263.544 143.111 264.169 145.532 265.151C146.575 265.57 147.588 266.057 148.562 266.605C153.526 269.399 157.493 273.754 159.8 279.008C163.333 275.901 167.901 273.96 172.933 273.777C173.192 273.769 173.443 273.754 173.702 273.754C174.098 273.754 174.486 273.769 174.875 273.792C181.026 274.127 186.47 277.112 190.102 281.619C191.213 282.997 192.15 284.512 192.888 286.141C193.627 284.954 194.464 283.842 195.408 282.822C199.527 278.33 205.435 275.513 212.006 275.513C212.242 275.513 212.486 275.521 212.722 275.528C215.287 275.612 217.739 276.114 220.023 276.982C221.058 277.378 222.056 277.843 223.015 278.383C224.043 278.962 225.017 279.617 225.939 280.34C226.441 279.183 227.02 278.056 227.659 276.982C231.93 269.78 239.087 264.496 247.538 262.715C249.563 262.288 251.665 262.06 253.819 262.06C257.953 262.06 261.897 262.89 265.491 264.382C266.838 264.938 268.133 265.593 269.374 266.339C275.647 270.084 280.459 276.023 282.751 283.096C284.547 281.269 286.641 279.738 288.948 278.574C290.159 277.964 291.422 277.462 292.747 277.066C294.864 276.434 297.11 276.092 299.432 276.092C303.741 276.092 307.776 277.264 311.24 279.297C314.194 281.033 316.737 283.393 318.679 286.202C319.768 287.778 320.666 289.491 321.351 291.311H327.754H328.432C328.584 291.075 328.744 290.839 328.911 290.611C330.997 287.656 333.853 285.281 337.187 283.774C339.761 282.609 342.616 281.946 345.631 281.946C345.669 281.946 345.707 281.946 345.745 281.946C349.209 281.962 352.475 282.845 355.33 284.383C356.579 285.053 357.744 285.852 358.817 286.758C358.931 286.857 359.046 286.948 359.152 287.047C363.294 280.469 370.611 276.092 378.963 276.092C380.569 276.092 382.13 276.251 383.645 276.564C383.881 276.609 384.117 276.67 384.353 276.723C388.129 271.409 393.634 267.412 400.052 265.554C402.511 264.846 405.1 264.443 407.772 264.405C407.909 264.405 408.054 264.397 408.191 264.397C410.155 264.397 412.074 264.595 413.931 264.961V251.386C412.355 251.081 410.734 250.914 409.066 250.914C405.777 250.921 402.663 251.538 399.801 252.657Z" fill="#64637D"/>
<path d="M407.742 263.62C405.062 263.659 402.473 264.054 400.022 264.77C393.603 266.628 388.099 270.625 384.322 275.939C384.086 275.886 383.85 275.825 383.614 275.779C382.099 275.475 380.539 275.307 378.932 275.307C370.588 275.307 363.263 279.685 359.122 286.263C359.008 286.164 358.901 286.065 358.787 285.974C357.713 285.068 356.548 284.268 355.3 283.598C352.445 282.06 349.178 281.177 345.714 281.162C345.676 281.162 345.638 281.162 345.6 281.162C342.593 281.162 339.73 281.817 337.157 282.989C333.83 284.497 330.975 286.872 328.881 289.826C328.713 290.055 328.561 290.291 328.401 290.527H354.196H356.221H357.005H359.388H362.784H379.023H388.464H400.844H403.135H413.901V282.464V264.184C412.043 263.818 410.125 263.62 408.16 263.62C408.016 263.613 407.879 263.62 407.742 263.62ZM311.21 278.505C307.746 276.472 303.711 275.3 299.401 275.3C297.079 275.3 294.833 275.642 292.717 276.274C291.4 276.67 290.128 277.173 288.918 277.782C286.603 278.946 284.509 280.477 282.72 282.304C280.428 275.231 275.617 269.293 269.343 265.547C268.102 264.808 266.808 264.153 265.46 263.59C261.867 262.098 257.923 261.268 253.789 261.268C251.634 261.268 249.533 261.496 247.508 261.923C239.057 263.697 231.9 268.988 227.629 276.19C226.989 277.272 226.411 278.391 225.908 279.548C224.987 278.825 224.012 278.17 222.985 277.591C222.025 277.051 221.028 276.586 219.992 276.19C217.716 275.322 215.257 274.812 212.691 274.736C212.455 274.729 212.219 274.721 211.975 274.721C205.405 274.721 199.489 277.538 195.378 282.03C194.441 283.05 193.596 284.162 192.858 285.349C192.119 283.72 191.183 282.197 190.071 280.827C186.44 276.32 180.996 273.343 174.844 273C174.456 272.977 174.068 272.962 173.672 272.962C173.413 272.962 173.162 272.97 172.903 272.985C167.878 273.168 163.302 275.109 159.77 278.216C157.47 272.962 153.504 268.607 148.532 265.813C147.557 265.265 146.545 264.778 145.502 264.359C143.081 263.384 140.484 262.76 137.774 262.539C137.074 262.486 136.373 262.448 135.658 262.448C133.153 262.448 130.724 262.806 128.425 263.461C127.656 263.681 126.894 263.933 126.156 264.222C122.661 259.7 117.971 256.152 112.558 254.05C112.375 253.982 112.185 253.898 112.002 253.83C111.667 253.708 111.332 253.601 110.997 253.487C107.899 252.474 104.594 251.919 101.161 251.919C93.8136 251.919 87.0605 254.431 81.7005 258.641C81.3122 258.946 80.9316 259.258 80.5661 259.578C76.4777 263.103 73.2952 267.656 71.4375 272.84C71.1939 272.749 70.9427 272.665 70.6914 272.589C69.0926 272.094 67.3948 271.828 65.6436 271.813C65.598 271.813 65.5447 271.813 65.499 271.813C63.687 271.813 61.9435 272.087 60.299 272.597C59.7127 272.78 59.1341 272.993 58.5707 273.236C56.6445 269.057 53.5762 265.509 49.7695 262.996C45.8942 260.438 41.2576 258.946 36.2631 258.946C33.0274 258.946 29.9363 259.578 27.1117 260.712C26.6777 260.887 26.2513 261.07 25.825 261.268C22.8329 262.676 20.1681 264.671 17.9831 267.107C15.9731 269.346 14.3742 271.95 13.2931 274.812C12.8592 275.962 12.5089 277.15 12.2501 278.368C9.15138 275.391 4.94111 273.556 0.304477 273.556C0.190274 273.556 0.0760716 273.564 -0.0305176 273.564V286.438V290.527H12.7373H16.5136H17.5491H48.0031H59.7965H70.3945H83.0024H88.5527H98.5949H109.429H120.073H129.65H131.965H146.225H152.933H161.932H170.162H182.1H183.029H190.498H194.449H201.964H203.281H216.155H223.426H225.977H233.491H234.991H238.988H273.287H277.505H280.291H281.982H284.182H285.21H315.611H315.694H321.336C320.658 288.707 319.752 286.994 318.664 285.418C316.707 282.601 314.164 280.241 311.21 278.505Z" fill="#7B7B91"/>
<path fill-rule="evenodd" clip-rule="evenodd" d="M257.085 174.509C257.093 170.885 256.697 167.063 257.268 163.013C258.06 157.379 261.532 151.6 259.187 147.162C258.57 147.078 257.946 146.987 257.329 146.903C257.999 145.982 260.55 146.598 261.052 147.428C262.697 143.865 263.755 141.771 266.572 139.67C270.234 136.944 275.472 136.579 276.157 129.955C277.231 131.851 275.761 135.155 275.152 137.081C276.66 135.772 277.954 134.181 278.198 131.189C281.51 129.331 285.073 127.808 285.75 122.456C286.466 123.666 286.603 125.326 286.337 127.283C288.08 119.647 295.648 117.834 295.29 108.63C299.325 114.195 299.759 129.917 291.879 132.803C293.432 132.536 294.392 131.478 295.907 131.158C292.8 136.845 289.725 142.571 282.827 143.218C284.441 143.644 287.418 142.7 289.291 142.236C286.573 143.842 284.022 150.017 280.01 151.989C282.043 152.118 283.657 152.567 283.466 154.372C282.979 153.816 282.37 153.352 281.784 152.872C273.432 153.854 261.433 159.952 258.928 169.249C258.631 170.345 258.524 171.502 258.463 172.713C258.38 174.076 257.078 177.448 257.085 174.509Z" fill="white"/>
<path fill-rule="evenodd" clip-rule="evenodd" d="M257.268 175.591C257.58 170.924 257.588 167.604 258.867 164.132C261.44 157.12 268.605 148.616 274.269 143.949C277.375 141.391 280.33 138.909 283.185 136.252C285.682 133.922 288.088 131.775 290.075 129.217C292.823 125.669 294.704 121.824 295.488 117.667C295.899 115.49 296.006 113.228 295.785 110.883L295.519 109.802L295.952 110.929C296.31 113.327 296.28 115.68 295.899 117.972C295.222 122.052 293.432 125.912 290.798 129.399C288.659 132.239 286.002 134.523 283.238 136.99C283.139 137.081 283.04 137.173 282.933 137.257C280.413 139.495 277.809 141.566 275.145 143.88C269.267 148.989 261.928 156.823 259.293 164.368C258.106 167.756 257.755 171.182 257.268 175.591Z" fill="#D1D3D4"/>
<path fill-rule="evenodd" clip-rule="evenodd" d="M257.748 163.043C259.339 158.087 261.258 153.937 260.535 148.479C262.088 153.663 259.712 158.33 257.748 163.043Z" fill="#D1D3D4"/>
<path fill-rule="evenodd" clip-rule="evenodd" d="M262.742 146.766C264.09 144.002 264.973 141.627 267.759 140.157C269.807 139.076 272 138.01 273.957 136.32C272.19 138.452 269.906 139.403 267.797 140.477C265.019 141.885 264.455 144.603 262.742 146.766Z" fill="#D1D3D4"/>
<path fill-rule="evenodd" clip-rule="evenodd" d="M276.416 136.906C277.52 135.285 278.571 133.823 278.632 131.942C281.456 130.465 284.22 129.026 285.4 126.133C284.707 129.209 281.769 130.678 278.974 132.117C278.83 134.12 278.061 135.612 276.416 136.906Z" fill="#D1D3D4"/>
<path fill-rule="evenodd" clip-rule="evenodd" d="M259.682 166.31C262.91 158.666 272.937 153.138 280.893 152.659C272.526 151.874 261.455 159.785 259.682 166.31Z" fill="#D1D3D4"/>
<path fill-rule="evenodd" clip-rule="evenodd" d="M282.88 143.652C284.433 143.903 285.636 143.652 286.991 143.18L287.852 142.906C284.966 145.608 283.786 150.253 279.66 151.615C282.873 149.796 284.776 146.606 286.793 143.545C285.789 143.812 284.03 144.367 282.88 143.652Z" fill="#D1D3D4"/>
<path fill-rule="evenodd" clip-rule="evenodd" d="M289.39 133.564C290.958 133.815 292.176 133.564 293.539 133.092L294.407 132.818C291.681 135.696 290.296 140.241 286.124 141.611C289.58 139.86 291.103 136.381 293.334 133.457C292.329 133.724 290.547 134.28 289.39 133.564Z" fill="#D1D3D4"/>
<path fill-rule="evenodd" clip-rule="evenodd" d="M292.58 131.965C296.752 127.047 297.742 123.004 297.818 117.56C297.338 122.167 295.107 128.158 292.58 131.965Z" fill="#D1D3D4"/>
<path fill-rule="evenodd" clip-rule="evenodd" d="M287.38 126.468C287.76 123.94 289.656 121.999 291.186 120.073C292.983 117.812 294.643 115.588 295.214 112.589C294.871 115.642 293.303 118.207 291.407 120.499C289.831 122.41 288.415 124.169 287.38 126.468Z" fill="#D1D3D4"/>
<path fill-rule="evenodd" clip-rule="evenodd" d="M258.897 215.775C260.199 212.615 261.212 209.136 263.153 205.808C265.856 201.172 270.942 197.373 270.478 192.66C269.967 192.363 269.457 192.066 268.947 191.769C269.861 191.206 271.863 192.652 272.008 193.551C274.711 191.031 276.386 189.576 279.591 188.754C283.763 187.681 288.461 189.234 291.422 183.699C291.681 185.739 289.222 188.092 288.004 189.561C289.785 188.952 291.483 188.023 292.762 185.503C296.31 185.062 299.965 185.001 302.47 180.577C302.66 181.894 302.188 183.387 301.259 184.993C305.507 178.956 312.748 180.075 315.725 171.913C317.263 178.202 312.032 192.081 304.129 191.792C305.583 192.112 306.794 191.525 308.225 191.792C303.49 195.644 298.762 199.55 292.511 197.654C293.767 198.598 296.706 198.834 298.503 199.101C295.556 199.535 291.133 204.012 286.93 204.301C288.659 205.138 289.907 206.105 289.093 207.613C288.872 206.95 288.506 206.326 288.156 205.702C280.52 203.578 267.874 204.621 262.377 211.838C261.73 212.691 261.22 213.658 260.732 214.701C260.192 215.858 257.847 218.333 258.897 215.775Z" fill="white"/>
<path fill-rule="evenodd" clip-rule="evenodd" d="M258.677 216.779C260.618 212.82 261.806 209.927 264.158 207.354C268.902 202.154 278.19 197.281 284.791 195.233C288.415 194.106 291.879 193.002 295.321 191.693C298.328 190.551 301.198 189.531 303.84 188.008C307.502 185.899 310.517 183.211 312.687 179.862C313.821 178.11 314.727 176.177 315.367 174.052L315.519 173.017L315.496 174.151C314.956 176.375 314.088 178.415 312.938 180.273C310.89 183.585 307.959 186.318 304.411 188.427C301.533 190.14 298.396 191.183 295.107 192.355C294.986 192.401 294.864 192.439 294.749 192.485C291.75 193.535 288.742 194.411 285.59 195.484C278.639 197.845 269.442 202.063 264.455 207.704C262.202 210.247 260.671 213.11 258.677 216.779Z" fill="#D1D3D4"/>
<path fill-rule="evenodd" clip-rule="evenodd" d="M263.572 206.007C266.724 202.253 269.884 199.314 271.201 194.297C270.698 199.368 266.968 202.596 263.572 206.007Z" fill="#D1D3D4"/>
<path fill-rule="evenodd" clip-rule="evenodd" d="M273.729 193.581C275.891 191.647 277.505 189.896 280.467 189.607C282.644 189.394 284.936 189.241 287.243 188.472C284.936 189.706 282.614 189.721 280.383 189.904C277.459 190.14 275.998 192.302 273.729 193.581Z" fill="#D1D3D4"/>
<path fill-rule="evenodd" clip-rule="evenodd" d="M289.184 189.858C290.73 188.838 292.161 187.932 292.884 186.318C295.876 186.036 298.8 185.77 300.863 183.669C299.165 186.105 296.074 186.333 293.12 186.6C292.275 188.29 291.08 189.31 289.184 189.858Z" fill="#D1D3D4"/>
<path fill-rule="evenodd" clip-rule="evenodd" d="M264.09 209.547C269.632 204.027 280.352 202.786 287.463 205.199C280.451 201.53 267.973 204.484 264.09 209.547Z" fill="#D1D3D4"/>
<path fill-rule="evenodd" clip-rule="evenodd" d="M292.412 198.05C293.684 198.827 294.818 199.04 296.166 199.109L297.011 199.177C293.531 200.509 290.844 204.141 286.755 203.852C290.204 203.41 293.006 201.309 295.853 199.36C294.894 199.223 293.166 199.078 292.412 198.05Z" fill="#D1D3D4"/>
<path fill-rule="evenodd" clip-rule="evenodd" d="M301.693 191.571C302.972 192.355 304.122 192.569 305.485 192.637L306.337 192.706C302.934 194.251 300.102 197.715 295.975 197.426C299.615 197.129 302.188 194.639 305.173 192.881C304.198 192.751 302.447 192.607 301.693 191.571Z" fill="#D1D3D4"/>
<path fill-rule="evenodd" clip-rule="evenodd" d="M305.051 191.312C310.441 188.51 312.748 185.336 314.758 180.615C312.695 184.46 308.614 188.891 305.051 191.312Z" fill="#D1D3D4"/>
<path fill-rule="evenodd" clip-rule="evenodd" d="M302.47 184.666C303.703 182.595 306.048 181.575 308.066 180.448C310.441 179.116 312.68 177.768 314.248 175.354C312.862 177.897 310.578 179.572 308.104 180.897C306.056 181.993 304.198 183.029 302.47 184.666Z" fill="#D1D3D4"/>
<path fill-rule="evenodd" clip-rule="evenodd" d="M324.762 203.73C327.686 202.71 330.662 201.316 334.088 200.631C338.862 199.679 344.504 200.852 347.42 197.7C347.313 197.175 347.214 196.649 347.108 196.124C348.044 196.406 348.257 198.636 347.732 199.276C351.067 199.596 353.061 199.855 355.551 201.537C358.787 203.722 360.561 207.849 366.096 206.532C364.87 207.933 361.786 207.681 360.058 207.735C361.543 208.58 363.195 209.174 365.669 208.526C368.106 210.673 370.336 213.117 374.851 212.158C374.075 213.079 372.78 213.658 371.121 213.993C377.775 213.247 381.368 218.835 388.7 215.95C385.35 220.777 372.788 225.565 368.227 220.023C368.882 221.203 370.009 221.675 370.694 222.809C365.228 221.911 359.738 221.043 357.264 215.66C357.378 217.084 358.985 219.216 359.883 220.594C357.812 218.85 352.117 218.538 349.392 215.858C349.864 217.541 349.955 218.965 348.448 219.322C348.76 218.774 348.965 218.15 349.186 217.541C346.034 211.077 337.728 203.121 329.52 203.722C328.553 203.791 327.587 204.027 326.589 204.324C325.478 204.651 322.394 204.552 324.762 203.73Z" fill="white"/>
<path fill-rule="evenodd" clip-rule="evenodd" d="M323.94 204.179C327.792 203.113 330.472 202.184 333.639 202.23C340.02 202.329 348.912 205.702 354.28 208.953C357.226 210.734 360.058 212.425 363.012 213.97C365.593 215.325 368.014 216.658 370.634 217.541C374.273 218.759 377.904 219.193 381.483 218.652C383.356 218.371 385.213 217.823 387.041 216.977L387.84 216.46L387.056 217.13C385.221 218.097 383.31 218.736 381.361 219.071C377.882 219.673 374.258 219.322 370.702 218.18C367.809 217.251 365.213 215.752 362.441 214.229C362.342 214.176 362.236 214.115 362.137 214.061C359.617 212.661 357.211 211.138 354.592 209.646C348.806 206.341 340.415 202.641 333.586 202.641C330.503 202.641 327.632 203.326 323.94 204.179Z" fill="#D1D3D4"/>
<path fill-rule="evenodd" clip-rule="evenodd" d="M334.203 201.027C338.649 200.913 342.54 201.294 346.742 199.162C342.996 201.872 338.558 201.278 334.203 201.027Z" fill="#D1D3D4"/>
<path fill-rule="evenodd" clip-rule="evenodd" d="M348.745 200.456C351.356 200.761 353.518 200.806 355.498 202.641C356.952 203.989 358.429 205.458 360.34 206.562C358.117 205.74 356.708 204.171 355.247 202.763C353.328 200.913 350.975 201.225 348.745 200.456Z" fill="#D1D3D4"/>
<path fill-rule="evenodd" clip-rule="evenodd" d="M360.561 208.709C362.182 209.143 363.659 209.577 365.19 209.098C367.177 210.963 369.118 212.783 371.791 212.92C369.111 213.232 367.101 211.275 365.144 209.425C363.492 209.867 362.076 209.669 360.561 208.709Z" fill="#D1D3D4"/>
<path fill-rule="evenodd" clip-rule="evenodd" d="M332.109 203.502C339.19 203.951 346.483 210.483 349.118 216.764C347.389 209.798 337.88 203.098 332.109 203.502Z" fill="#D1D3D4"/>
<path fill-rule="evenodd" clip-rule="evenodd" d="M356.944 215.828C357.18 217.152 357.721 218.058 358.482 219.01L358.947 219.627C355.947 218.066 351.866 218.416 349.605 215.47C351.98 217.548 355.094 218.188 358.132 218.949C357.637 218.218 356.693 216.955 356.944 215.828Z" fill="#D1D3D4"/>
<path fill-rule="evenodd" clip-rule="evenodd" d="M366.926 218.226C367.162 219.566 367.71 220.48 368.479 221.439L368.951 222.056C365.86 220.67 361.802 220.838 359.51 217.861C361.901 220.152 365.136 220.404 368.121 221.371C367.626 220.647 366.674 219.368 366.926 218.226Z" fill="#D1D3D4"/>
<path fill-rule="evenodd" clip-rule="evenodd" d="M369.118 220.358C374.265 222.33 377.805 221.995 382.221 220.518C378.369 221.432 372.902 221.317 369.118 220.358Z" fill="#D1D3D4"/>
<path fill-rule="evenodd" clip-rule="evenodd" d="M372.08 214.61C374.227 214.206 376.328 215.188 378.316 215.874C380.645 216.681 382.907 217.396 385.495 217.016C382.937 217.602 380.425 217.061 378.034 216.178C376.047 215.432 374.227 214.792 372.08 214.61Z" fill="#D1D3D4"/>
</g>
<defs>
<clipPath id="clip0_1006_7610">
<rect width="107" height="95" fill="white" transform="translate(141.86 -11.9999)"/>
</clipPath>
</defs>
</svg>
