<svg width="20" height="17" viewBox="0 0 20 17" fill="none" xmlns="http://www.w3.org/2000/svg">
<g clip-path="url(#clip0_1006_7704)">
<path d="M20 10.65V13.65C20 15.03 18.88 16.15 17.5 16.15H15.5C15.22 16.15 15 15.92 15 15.65V8.65C15 8.37 15.22 8.15 15.5 8.15H16V8.14H17V8.15H17.5C18.88 8.15 20 9.27 20 10.65Z" fill="#7FD2F2"/>
<path d="M5 8.65V15.65C5 15.92 4.78 16.15 4.5 16.15H2.5C1.12 16.15 0 15.03 0 13.65V10.65C0 9.27 1.12 8.15 2.5 8.15H3V8.14H4V8.15H4.5C4.78 8.15 5 8.36 5 8.65Z" fill="#7FD2F2"/>
<path d="M17 7.13V8.14H16V7.13C16 3.82 13.31 1.13 10 1.13C6.69 1.13 4 3.82 4 7.13V8.14H3V7.13C3 3.27 6.13 0.130001 10 0.130001C13.87 0.130001 17 3.27 17 7.13Z" fill="#7FD2F2" stroke="#7FD2F2" stroke-width="0.25" stroke-miterlimit="10"/>
</g>
<defs>
<clipPath id="clip0_1006_7704">
<rect width="20" height="16.15" fill="white"/>
</clipPath>
</defs>
</svg>
