<svg width="23" height="14" viewBox="0 0 23 14" fill="none" xmlns="http://www.w3.org/2000/svg">
<path d="M4.3456 7.10059V5.54904C5.30148 5.58555 6.08089 5.45169 6.68384 5.14747C7.40443 4.80674 7.76472 4.2713 7.76472 3.54117C7.76472 3.00573 7.53678 2.57373 7.0809 2.24517C6.63972 1.90444 6.06619 1.73408 5.36031 1.73408C4.53677 1.73408 3.89707 1.99571 3.44118 2.51897C2.9853 3.03007 2.77206 3.63852 2.80148 4.34432H0.286765C0.360295 3.06658 0.838237 2.03222 1.72059 1.24123C2.66177 0.413745 3.88971 0 5.40442 0C6.71325 0 7.82355 0.28597 8.73531 0.857911C9.76473 1.4907 10.2794 2.34252 10.2794 3.41339C10.2794 4.81282 9.55149 5.72549 8.09561 6.15141V6.18792C8.96325 6.33394 9.64708 6.69901 10.1471 7.28312C10.6471 7.85506 10.8971 8.55478 10.8971 9.38227C10.8971 10.5505 10.353 11.4997 9.26473 12.2298C8.23531 12.9356 6.9559 13.2885 5.42648 13.2885C3.69118 13.2885 2.34559 12.8808 1.38971 12.0655C0.492648 11.2867 0.0294118 10.2098 0 8.83466H2.51471C2.4853 9.63781 2.72059 10.2828 3.22059 10.7695C3.7353 11.2928 4.4706 11.5544 5.42648 11.5544C6.29413 11.5544 7.00001 11.3536 7.54413 10.9521C8.10296 10.5383 8.38237 9.97854 8.38237 9.27275C8.38237 7.72729 7.03678 7.00324 4.3456 7.10059Z" fill="#A1A4B2"/>
<path d="M22.9779 11.1711V13.033H12.4338C12.4485 11.0981 13.5809 9.4857 15.8309 8.19579C16.5367 7.80639 17.2353 7.41698 17.9264 7.02757C18.7206 6.56515 19.3162 6.12707 19.7132 5.71333C20.2132 5.17789 20.4706 4.60595 20.4853 3.9975C20.5 3.41339 20.3382 2.92055 20 2.51897C19.5588 1.99571 18.8529 1.73408 17.8823 1.73408C16.1912 1.73408 15.3088 2.79886 15.2353 4.92843H12.7206C12.7206 3.46815 13.1764 2.29385 14.0882 1.40551C15.0441 0.468505 16.3603 0 18.0367 0C19.7426 0 21.0441 0.450251 21.9412 1.35075C22.647 2.06872 23 2.92663 23 3.92449C23 5.46995 21.8529 6.90588 19.5588 8.2323C18.7059 8.70689 17.8529 9.18148 17 9.65607C16.1617 10.1915 15.647 10.6965 15.4559 11.1711H22.9779Z" fill="#A1A4B2"/>
</svg>
