<svg width="504" height="276" viewBox="0 0 504 276" fill="none" xmlns="http://www.w3.org/2000/svg">
<path fill-rule="evenodd" clip-rule="evenodd" d="M49.5369 118.273C20.3987 130.827 1.0112e-05 159.805 7.16219e-06 193.547C3.20662e-06 238.794 36.6795 275.473 81.9259 275.473C109.423 275.473 133.757 261.926 148.616 241.142C153.623 242.564 158.908 243.325 164.37 243.325C184.365 243.325 201.978 233.129 212.295 217.653C219.869 225.791 230.673 230.881 242.667 230.881C258.88 230.881 272.921 221.579 279.744 208.021C291.089 214.642 304.287 218.436 318.37 218.436C344.063 218.436 366.806 205.81 380.735 186.425C385.312 187.688 390.133 188.362 395.111 188.362C403.574 188.362 411.581 186.413 418.708 182.939C426.563 196.709 441.383 205.992 458.37 205.992C483.571 205.992 504 185.563 504 160.362C504 137.033 486.492 117.793 463.899 115.064L463.899 2.70386e-05L49.5369 -9.18614e-06L49.5369 118.273ZM215.229 158.288L214.954 158.288C214.984 158.343 215.013 158.398 215.043 158.453C215.105 158.398 215.167 158.343 215.229 158.288Z" fill="#1F265E"/>
</svg>
