<svg width="140" height="123" viewBox="0 0 140 123" fill="none" xmlns="http://www.w3.org/2000/svg">
<path fill-rule="evenodd" clip-rule="evenodd" d="M43.8041 31.038C45.8518 35.81 50.019 37.4816 53.6129 36.6637C56.4369 36.0208 60.1131 30.0935 59.9833 27.3561C59.5951 19.1451 50.5678 3.50259 45.6551 2.46359C41.6858 5.52435 40.5611 23.4774 43.8041 31.038Z" fill="#FEDEA6"/>
<path d="M51.8494 37.0701C50.5306 37.0701 49.2183 36.7518 48.0306 36.132C46.1166 35.1326 44.5883 33.3997 43.6101 31.1198C42.0947 27.5862 41.4057 21.4288 41.8144 15.0492C42.1358 10.0203 43.2798 4.02913 45.5253 2.29619L45.6025 2.23612L45.6976 2.25657C50.7234 3.31985 59.7995 19.0288 60.1929 27.3446C60.3291 30.2226 56.5745 36.2023 53.6593 36.8669C53.0641 37.0036 52.4561 37.0701 51.8494 37.0701ZM45.7079 2.6898C43.9597 4.14287 42.6332 8.86629 42.236 15.076C41.8324 21.3943 42.5073 27.4788 43.9983 30.9549C45.731 34.9933 48.9663 36.6445 51.8893 36.6445C52.4651 36.6445 53.0281 36.5806 53.5667 36.4579C56.2724 35.8419 59.9011 30.0476 59.7738 27.3638C59.5964 23.6001 57.5115 17.8377 54.3341 12.3232C51.2183 6.91609 47.9264 3.24445 45.7079 2.6898Z" fill="#F5C371"/>
<path d="M45.7916 2.39356L45.3808 2.48802L53.3411 36.689L53.7519 36.5945L45.7916 2.39356Z" fill="#F9CF88"/>
<path d="M48.7851 15.5872L48.4445 15.3393C48.4702 15.3047 51.0178 11.8414 52.7312 9.55511L53.0693 9.8056C51.3571 12.0906 48.8108 15.5527 48.7851 15.5872Z" fill="#F9CF88"/>
<path d="M53.875 11.3584L48.8876 17.1838L49.2086 17.4556L54.1961 11.6301L53.875 11.3584Z" fill="#F9CF88"/>
<path d="M41.9585 19.6461L41.7522 20.0116L50.6898 24.9983L50.8961 24.6327L41.9585 19.6461Z" fill="#F9CF88"/>
<path d="M59.1225 23.3511L52.0092 30.5557L52.3101 30.8493L59.4233 23.6447L59.1225 23.3511Z" fill="#F9CF88"/>
<path d="M42.3998 25.4064L42.2519 25.799L51.7219 29.3249L51.8698 28.9323L42.3998 25.4064Z" fill="#F9CF88"/>
<path d="M47.6656 12.143C46.9329 11.4784 45.0022 9.71739 42.9084 7.70457L43.2014 7.40296C45.2915 9.41067 47.2195 11.1692 47.9509 11.8324L47.6656 12.143Z" fill="#F9CF88"/>
<path fill-rule="evenodd" clip-rule="evenodd" d="M44.294 26.5076C43.5215 25.7293 42.6808 24.9484 41.7875 24.174C33.4967 16.9866 20.7085 10.3679 16.0001 11.8606C13.5283 17.7905 23.6121 38.6855 32.0725 45.0741C37.4133 49.1061 43.1358 48.3342 46.6244 45.1469C47.2092 44.6127 47.7311 44.0095 48.1784 43.3514C50.3983 40.0797 50.7672 35.4113 47.7774 30.7249C46.9136 29.3677 45.7195 27.9427 44.294 26.5076Z" fill="#FEDEA6"/>
<path d="M39.6769 48.0339C37.0367 48.0339 34.3721 47.0728 31.9453 45.2415C28.0107 42.2702 23.3358 35.8125 19.747 28.3862C16.9268 22.5522 14.4101 15.1271 15.8047 11.7801L15.842 11.6906L15.9358 11.6612C18.1968 10.9443 22.355 11.9795 27.6431 14.575C32.6098 17.0134 37.8156 20.455 41.925 24.0168C42.8325 24.804 43.6795 25.5925 44.4431 26.3606C45.929 27.8558 47.1102 29.2859 47.956 30.6111C50.7234 34.9499 50.8713 39.7551 48.3532 43.4676C47.8994 44.1373 47.3647 44.7546 46.767 45.3003C44.9366 46.9719 42.5523 47.9406 40.0496 48.0275C39.9262 48.0313 39.8015 48.0339 39.6769 48.0339ZM16.1582 12.0318C15.1054 14.7718 16.6183 20.947 20.1262 28.2047C23.688 35.5735 28.3153 41.9737 32.1998 44.9066C37.6369 49.0115 43.2901 47.9073 46.4817 44.9923C47.0562 44.467 47.5678 43.8753 48.0036 43.2338C50.4252 39.6644 50.2736 35.0304 47.6 30.8361C46.7709 29.5364 45.6076 28.1293 44.1436 26.6558C43.3878 25.8954 42.5484 25.1133 41.6486 24.3337C33.7397 17.4761 20.9475 10.6567 16.1582 12.0318Z" fill="#F5C371"/>
<path d="M16.1559 11.7188L15.8448 12.0018L46.4714 45.2895L46.7825 45.0066L16.1559 11.7188Z" fill="#F5C371"/>
<path d="M18.3896 25.0443L18.3742 24.6251C22.0555 24.4858 27.5994 24.326 27.6546 24.3248L27.6662 24.7439C27.6109 24.7465 22.0696 24.9063 18.3896 25.0443Z" fill="#F5C371"/>
<path d="M29.3025 26.1358L19.4664 27.1445L19.5097 27.5615L29.3457 26.5528L29.3025 26.1358Z" fill="#F5C371"/>
<path d="M37.0281 20.5794L35.8296 33.6199L36.2495 33.658L37.448 20.6175L37.0281 20.5794Z" fill="#F5C371"/>
<path d="M41.2714 39.1639L28.4179 41.4058L28.4907 41.8187L41.3442 39.5768L41.2714 39.1639Z" fill="#F5C371"/>
<path d="M42.8337 25.244L39.6941 37.7819L40.1032 37.8832L43.2428 25.3452L42.8337 25.244Z" fill="#F5C371"/>
<path d="M24.341 21.1822C24.1675 19.9272 23.697 16.6122 23.0826 12.9559L23.4991 12.8868C24.1148 16.5483 24.5865 19.8685 24.76 21.126L24.341 21.1822Z" fill="#F5C371"/>
<path fill-rule="evenodd" clip-rule="evenodd" d="M112.021 94.5287C106.903 93.514 103.163 95.992 101.814 99.4029C100.753 102.083 103.599 108.446 105.945 109.885C112.98 114.202 131.063 115.624 134.699 112.178C134.398 107.193 120.129 96.1351 112.021 94.5287Z" fill="#FEDEA6"/>
<path d="M125.528 114.317C118.731 114.317 110.205 112.746 105.834 110.064C103.369 108.551 100.523 102.093 101.618 99.3263C102.33 97.5269 103.676 96.0329 105.406 95.1217C107.316 94.1147 109.617 93.8399 112.063 94.3243C115.853 95.0744 121.353 97.987 126.419 101.923C130.412 105.026 134.74 109.347 134.911 112.169L134.918 112.266L134.847 112.334C133.406 113.693 129.809 114.317 125.528 114.317ZM109.778 94.5108C105.789 94.5108 103.054 96.8393 102.009 99.4796C100.994 102.048 103.755 108.296 106.054 109.707C109.279 111.686 115.24 113.228 121.613 113.734C127.862 114.23 132.768 113.601 134.48 112.093C134.261 109.838 131.088 106.083 126.158 102.252C121.141 98.3537 115.707 95.4732 111.98 94.7345C111.21 94.5811 110.475 94.5108 109.778 94.5108Z" fill="#F5C371"/>
<path d="M101.951 99.1687L101.798 99.5591L134.683 112.337L134.836 111.946L101.951 99.1687Z" fill="#F5C371"/>
<path d="M124.417 114.118C123.488 111.422 122.051 107.379 122.037 107.338L122.434 107.199C122.448 107.24 123.885 111.284 124.816 113.982L124.417 114.118Z" fill="#F5C371"/>
<path d="M120.65 106.516L120.243 106.626L122.263 114.007L122.67 113.897L120.65 106.516Z" fill="#F5C371"/>
<path d="M122.333 99.0734L113.147 103.592L113.334 103.968L122.52 99.4491L122.333 99.0734Z" fill="#F5C371"/>
<path d="M107.791 101.534L107.377 101.615L109.342 111.52L109.756 111.439L107.791 101.534Z" fill="#F5C371"/>
<path d="M117.25 96.2073L108.978 101.989L109.22 102.332L117.493 96.5502L117.25 96.2073Z" fill="#F5C371"/>
<path d="M125.624 108.771L125.528 108.363C126.496 108.135 129.054 107.545 131.898 106.963L131.983 107.374C129.145 107.954 126.591 108.544 125.624 108.771Z" fill="#F5C371"/>
<path fill-rule="evenodd" clip-rule="evenodd" d="M111.123 88.3547C106.718 91.1369 105.736 95.4961 107.13 98.8904C108.227 101.556 114.705 104.203 117.4 103.632C125.487 101.921 139.548 90.5273 139.783 85.5381C136.102 82.1399 118.101 83.947 111.123 88.3547Z" fill="#FEDEA6"/>
<path d="M116.546 103.921C113.417 103.921 107.96 101.46 106.936 98.9697C106.201 97.1793 106.135 95.1754 106.752 93.3274C107.433 91.2878 108.905 89.5075 111.011 88.1784C114.272 86.1183 120.272 84.4454 126.669 83.8116C131.713 83.3119 137.844 83.4627 139.928 85.3847L140 85.4512L139.995 85.5483C139.753 90.6513 125.635 102.103 117.445 103.836C117.175 103.894 116.873 103.921 116.546 103.921ZM131.5 83.9764C130.028 83.9764 128.419 84.0595 126.71 84.2282C120.375 84.8557 114.445 86.5055 111.237 88.5324C106.775 91.3504 106.058 95.7262 107.327 98.8112C108.377 101.366 114.715 103.986 117.358 103.426C121.064 102.641 126.446 99.6624 131.405 95.6508C136.267 91.7172 139.378 87.8922 139.568 85.6263C138.314 84.5528 135.389 83.9764 131.5 83.9764Z" fill="#F5C371"/>
<path d="M139.711 85.2701L107.059 98.6236L107.219 99.0112L139.871 85.6578L139.711 85.2701Z" fill="#F5C371"/>
<path d="M133.698 94.0022C131.153 92.6923 127.304 90.7561 127.266 90.7357L127.456 90.3612C127.495 90.3804 131.344 92.3178 133.891 93.629L133.698 94.0022Z" fill="#F5C371"/>
<path d="M125.696 91.0998L125.478 91.4588L132.068 95.4085L132.285 95.0495L125.696 91.0998Z" fill="#F5C371"/>
<path d="M121.729 84.5494L118.227 94.1254L118.623 94.2686L122.125 84.6926L121.729 84.5494Z" fill="#F5C371"/>
<path d="M112.928 96.3257L112.686 96.6685L120.989 102.48L121.232 102.137L112.928 96.3257Z" fill="#F5C371"/>
<path d="M116.068 85.9845L114.103 95.8463L114.517 95.9277L116.481 86.0659L116.068 85.9845Z" fill="#F5C371"/>
<path d="M130.855 89.3069L130.501 89.0782C131.042 88.25 132.481 86.066 134.135 83.6902L134.482 83.9292C132.831 86.3011 131.396 88.4801 130.855 89.3069Z" fill="#F5C371"/>
<path fill-rule="evenodd" clip-rule="evenodd" d="M59.0892 43.2939C22.8428 30.205 4.68068 38.2883 0.457447 64.9023C-3.76578 91.5163 21.6811 117.118 59.0894 122.331C89.054 126.507 119.5 107.732 124.534 63.4308C129.568 19.1297 95.3356 56.3828 59.0892 43.2939Z" fill="#F5C371"/>
<path fill-rule="evenodd" clip-rule="evenodd" d="M54.5301 43.0234C54.1984 43.0809 53.8681 43.1448 53.5377 43.2113C52.6907 43.3799 51.8462 43.564 51.0055 43.7608C49.8268 44.0368 48.6546 44.3384 47.4913 44.6707C46.1648 45.049 44.8485 45.4669 43.5529 45.941C42.1672 46.4484 40.788 47.0235 39.4808 47.7085C39.4538 47.7225 39.4217 47.7123 39.4075 47.6855C39.3934 47.6586 39.4037 47.6267 39.4307 47.6126C40.7417 46.9238 42.1248 46.3474 43.5156 45.8388C44.8126 45.3647 46.1326 44.9455 47.4604 44.5659C48.625 44.2336 49.7998 43.9308 50.9798 43.6547C51.8218 43.4579 52.6675 43.2726 53.5159 43.1052C53.8462 43.04 54.1779 42.9748 54.5108 42.9173C54.5403 42.9122 54.5686 42.9314 54.5738 42.9608C54.5802 42.9902 54.5596 43.0183 54.5301 43.0234Z" fill="white"/>
<path d="M39.4559 47.7425C39.4264 47.7425 39.3981 47.7272 39.3827 47.6991C39.3724 47.6799 39.3698 47.6582 39.3762 47.6364C39.3827 47.616 39.3968 47.5981 39.4161 47.5879C40.5986 46.9668 41.9354 46.3866 43.5049 45.8128C44.7311 45.3642 46.0229 44.9476 47.4523 44.5399C48.5809 44.2178 49.766 43.9111 50.973 43.6287C51.838 43.4268 52.6915 43.2415 53.5103 43.0791C53.8098 43.0191 54.1594 42.9514 54.5052 42.8913C54.527 42.8875 54.5489 42.8926 54.5669 42.9053C54.5849 42.9181 54.5965 42.9373 54.6003 42.9577C54.6042 42.9795 54.599 43.0012 54.5862 43.0191C54.5733 43.037 54.554 43.0485 54.5335 43.0523C54.1928 43.1111 53.8432 43.1801 53.5424 43.2389C52.7249 43.4012 51.874 43.5852 51.0115 43.7884C49.8084 44.0696 48.6258 44.3763 47.4986 44.6984C46.0718 45.106 44.7851 45.5214 43.5627 45.9674C42.001 46.5386 40.6706 47.1163 39.4945 47.7336C39.4829 47.7387 39.4688 47.7425 39.4559 47.7425ZM54.5206 42.9437C54.5193 42.9437 54.518 42.9437 54.5155 42.9437C54.1697 43.0037 53.8214 43.0715 53.5219 43.1315C52.7044 43.2939 51.8522 43.4792 50.9871 43.6811C49.7814 43.9635 48.5976 44.2702 47.469 44.5923C46.0409 45 44.7504 45.4166 43.5254 45.8639C41.9586 46.4377 40.6231 47.0166 39.4431 47.6364C39.4366 47.639 39.4328 47.6454 39.4302 47.6518C39.4276 47.6582 39.4289 47.6658 39.4315 47.6722C39.4379 47.685 39.4546 47.6901 39.4675 47.6824C40.6462 47.0639 41.9791 46.485 43.5434 45.9124C44.7671 45.4651 46.0551 45.0498 47.4831 44.6421C48.6117 44.3201 49.7943 44.0134 50.9987 43.7322C51.8624 43.5303 52.7147 43.345 53.5322 43.1827C53.8329 43.1226 54.1826 43.0549 54.5245 42.9948C54.5309 42.9935 54.5373 42.9897 54.5412 42.9846C54.545 42.9795 54.5463 42.9718 54.545 42.9654C54.5438 42.959 54.5399 42.9526 54.5348 42.9488C54.5309 42.945 54.5258 42.9437 54.5206 42.9437Z" fill="white"/>
<path fill-rule="evenodd" clip-rule="evenodd" d="M87.1566 31.1824C89.9986 26.2711 91.9138 21.1221 92.5038 19.4467C92.694 17.531 89.4715 11.4197 89.4715 11.4197C86.6514 11.5679 76.8542 12.0088 72.6125 11.2625C72.6125 11.2625 69.9671 9.73786 67.8977 11.4529C65.8282 13.168 69.3926 15.5309 69.3926 15.5309L54.5207 42.9692C62.9528 52.7253 70.1587 47.3897 70.1587 47.3897L72.3052 40.9871C77.2193 43.0714 81.6564 39.3385 85.1282 34.3786C85.7414 33.4112 86.4458 32.2853 87.1566 31.1824Z" fill="#FDBCA0"/>
<path fill-rule="evenodd" clip-rule="evenodd" d="M76.9621 111.915L72.9183 117.396L91.1631 117.473C87.1012 114.196 76.9621 111.915 76.9621 111.915Z" fill="#FDBCA0"/>
<path fill-rule="evenodd" clip-rule="evenodd" d="M87.1565 31.1824C86.5254 32.2738 85.848 33.3524 85.1294 34.3799C83.0548 37.6592 82.425 39.8829 82.425 40.7979C82.425 41.7129 82.889 44.6715 82.889 44.6715L88.3275 44.5565C88.3275 44.5565 88.3275 41.6363 88.7864 40.1883C89.2465 38.7404 92.1592 26.3171 91.2389 26.1637C91.0255 26.1279 90.6939 26.3759 90.2838 26.8168C90.298 26.8257 89.9522 27.1976 89.7478 27.4455C88.9895 28.3976 88.0666 29.7715 87.1565 31.1824Z" fill="#FDBCA0"/>
<path fill-rule="evenodd" clip-rule="evenodd" d="M68.7794 2.07892C58.8138 7.71865 39.4559 47.6594 39.4559 47.6594C45.3816 44.5488 54.5206 42.9692 54.5206 42.9692L69.3925 15.531C69.3925 15.531 65.8282 13.168 67.8976 11.4529C69.9671 9.73786 72.6124 11.2625 72.6124 11.2625C76.8542 12.0088 86.6514 11.5667 89.4715 11.4197C89.4715 11.4197 92.694 17.531 92.5037 19.4467C91.9125 21.1221 89.9985 26.2724 87.1565 31.1824C88.8533 28.551 90.5924 26.0564 91.2402 26.1638C92.1605 26.3158 89.2466 38.7404 88.7877 40.1883C88.3275 41.6363 88.3288 44.5565 88.3288 44.5565L89.4779 44.5322C89.4779 44.5322 90.0435 49.754 90.7209 57.2213C91.0384 60.7127 91.379 64.6962 91.6991 68.865C92.7917 67.4605 95.1863 64.1415 95.3046 61.9102C95.4576 59.0143 98.2173 35.2336 96.991 19.0761C95.7635 2.91728 88.7877 4.06107 88.7877 4.06107C88.7877 4.06107 78.745 -3.56081 68.7794 2.07892Z" fill="#3F4553"/>
<path fill-rule="evenodd" clip-rule="evenodd" d="M85.1294 34.3799C81.6575 39.3397 77.2204 43.0727 72.3063 40.9883L70.1597 47.391C70.1597 47.391 78.9865 50.632 80.975 54.8992C81.6627 48.7354 82.2719 44.6855 82.2719 44.6855L82.8902 44.6727C82.8902 44.6727 82.4262 41.7129 82.4262 40.7992C82.4249 39.8829 83.0535 37.6592 85.1294 34.3799Z" fill="#3F4553"/>
<path fill-rule="evenodd" clip-rule="evenodd" d="M35.7758 97.7627C34.2462 97.6272 32.6768 97.5173 31.0701 97.4342C32.0945 96.3313 33.5444 93.5198 35.0843 90.0846C35.2887 92.4182 35.6062 95.907 35.7758 97.7627ZM36.736 49.4103C31.5225 53.6787 7.91129 90.2635 16.1904 108.251C16.1904 108.251 22.6302 114.654 72.9183 117.398L76.9621 111.916L77.9789 110.539C77.9789 110.539 74.5842 108.176 68.0634 105.445C68.0634 105.445 69.7254 101.815 71.6612 97.4649C71.6612 97.4649 78.5933 110.235 84.8788 113.74C76.529 105.663 79.0573 72.0765 80.9751 54.9005C78.9879 50.6333 70.1599 47.3923 70.1599 47.3923C70.1599 47.3923 62.954 52.7279 54.5219 42.9718C54.5219 42.9718 45.3828 44.5514 39.4572 47.662C38.4315 48.1975 37.5034 48.7815 36.736 49.4103Z" fill="#63A6DC"/>
<path fill-rule="evenodd" clip-rule="evenodd" d="M80.9738 54.8992C79.056 72.0752 76.5277 105.662 84.8775 113.739C84.8775 113.739 91.163 118.921 92.6965 103.678C93.4536 96.1499 92.6772 81.6333 91.6978 68.8662C91.3777 64.6975 91.0371 60.714 90.7196 57.2226C90.0422 49.7553 89.4766 44.5335 89.4766 44.5335L88.3275 44.5578L82.889 44.6728L82.2708 44.6856C82.2708 44.6856 81.6615 48.7355 80.9738 54.8992Z" fill="#63A6DC"/>
<path fill-rule="evenodd" clip-rule="evenodd" d="M73.1239 65.5537C73.3862 66.4662 73.6458 67.3787 73.9042 68.2925C74.4659 70.2797 75.0212 72.2695 75.5623 74.2632C76.0611 76.0945 76.5521 77.931 77.0058 79.7738C77.1704 80.4448 77.3323 81.1208 77.4724 81.7982C77.52 82.0307 77.5663 82.2646 77.6023 82.4985C77.6241 82.6416 77.6485 82.8014 77.6485 82.9471C77.6485 83.1017 77.5881 83.3164 77.547 83.4659C77.4647 83.7599 77.3645 84.0512 77.2629 84.3388C76.9506 85.2219 76.5996 86.0973 76.2474 86.965C75.777 88.1216 75.2924 89.2718 74.8014 90.4194C74.2499 91.7102 73.6895 92.9971 73.1265 94.2815C72.6573 95.3511 72.1843 96.4195 71.7087 97.4866C71.6971 97.5135 71.665 97.5263 71.6367 97.5148C71.6097 97.5033 71.5969 97.4713 71.6085 97.4432C72.0828 96.3761 72.5558 95.3077 73.025 94.238C73.5892 92.9537 74.1484 91.6667 74.6998 90.376C75.1896 89.2283 75.6754 88.0794 76.1446 86.9229C76.4968 86.0564 76.8464 85.1823 77.1588 84.3017C77.2603 84.0167 77.3593 83.7266 77.4403 83.4365C77.4789 83.2998 77.538 83.0902 77.538 82.9471C77.538 82.8078 77.5148 82.6531 77.493 82.5151C77.457 82.2825 77.4107 82.0499 77.3632 81.8199C77.2244 81.1438 77.0624 80.4703 76.8979 79.7994C76.4454 77.9578 75.9531 76.1214 75.4556 74.2913C74.9132 72.2989 74.3592 70.3091 73.7975 68.3219C73.5391 67.4081 73.2808 66.4956 73.0172 65.5831C73.0095 65.555 73.0262 65.5244 73.0545 65.5167C73.0867 65.509 73.1162 65.5256 73.1239 65.5537Z" fill="#A7D1F3"/>
<path d="M71.6599 97.5455C71.6484 97.5455 71.6381 97.5429 71.6265 97.5378C71.5854 97.5199 71.5661 97.4713 71.5841 97.4292C72.088 96.2981 72.5507 95.2502 73.0006 94.224C73.6253 92.799 74.1741 91.5364 74.6754 90.3632C75.2526 89.0124 75.7127 87.9146 76.1202 86.9114C76.4415 86.1203 76.8117 85.2001 77.1331 84.2915C77.2295 84.018 77.331 83.7241 77.4146 83.4276C77.4531 83.2895 77.511 83.0838 77.511 82.9458C77.511 82.8065 77.4865 82.6467 77.466 82.5176C77.4274 82.271 77.3799 82.0282 77.3374 81.8237C77.1961 81.1413 77.0302 80.4499 76.8721 79.8045C76.4145 77.9425 75.9081 76.0562 75.4299 74.2964C74.9338 72.4701 74.3914 70.5174 73.7718 68.3269C73.5276 67.463 73.2641 66.5326 72.9916 65.5895C72.9852 65.569 72.9877 65.546 72.9993 65.5269C73.0096 65.5077 73.0276 65.4936 73.0481 65.4872C73.0687 65.4809 73.0918 65.4834 73.1111 65.4949C73.1304 65.5051 73.1445 65.523 73.151 65.5435C73.4286 66.5058 73.7011 67.4681 73.9312 68.2822C74.5495 70.4701 75.0919 72.4229 75.5893 74.2529C76.0688 76.014 76.5752 77.9016 77.0328 79.7649C77.1922 80.4115 77.358 81.1055 77.4994 81.7892C77.5418 81.9962 77.5907 82.2416 77.6292 82.4908C77.6485 82.6173 77.6755 82.7911 77.6755 82.9432C77.6755 83.103 77.6138 83.3228 77.5727 83.4685C77.4878 83.7701 77.3863 84.0666 77.2886 84.3426C76.966 85.2551 76.5945 86.1778 76.2732 86.9701C75.8657 87.9746 75.4055 89.0724 74.8271 90.4245C74.3232 91.6015 73.7757 92.8655 73.151 94.2879C72.7011 95.3115 72.2384 96.3608 71.7332 97.4931C71.7216 97.5276 71.6921 97.5455 71.6599 97.5455ZM73.0726 65.5422C73.07 65.5422 73.0674 65.5422 73.0648 65.5435C73.0584 65.546 73.052 65.5499 73.0494 65.5563C73.0456 65.5626 73.0456 65.569 73.0469 65.5754C73.3194 66.5199 73.5829 67.4489 73.8271 68.3141C74.4466 70.5046 74.9891 72.4574 75.4852 74.2836C75.9634 76.0434 76.4698 77.9297 76.9274 79.793C77.0855 80.4384 77.2526 81.1298 77.3927 81.8135C77.4351 82.0192 77.484 82.2621 77.5225 82.51C77.5431 82.6403 77.5675 82.8014 77.5675 82.9458C77.5675 83.0915 77.5084 83.301 77.4698 83.4403C77.385 83.7407 77.2835 84.0359 77.1871 84.3107C76.8644 85.2206 76.4942 86.142 76.1729 86.9331C75.7654 87.9376 75.3053 89.0341 74.7281 90.3862C74.2255 91.5607 73.678 92.8233 73.0533 94.2483C72.6034 95.2745 72.1394 96.3224 71.6368 97.4534C71.6304 97.4662 71.6368 97.4816 71.6496 97.4879C71.6625 97.4931 71.6779 97.4879 71.6844 97.4752C72.1882 96.3429 72.6522 95.2936 73.1008 94.27C73.7242 92.8489 74.2731 91.5849 74.7757 90.4079C75.3541 89.0558 75.813 87.958 76.2217 86.9535C76.5431 86.1612 76.9146 85.2397 77.2372 84.3285C77.3349 84.0538 77.4364 83.7573 77.5213 83.4582C77.5611 83.3151 77.6215 83.1004 77.6215 82.947C77.6215 82.7988 77.5945 82.6276 77.5752 82.5036C77.5367 82.2557 77.4878 82.0103 77.4454 81.8045C77.304 81.1208 77.1382 80.4281 76.9788 79.7815C76.5212 77.9182 76.0148 76.0319 75.5353 74.2708C75.0379 72.442 74.4955 70.4893 73.8772 68.3014C73.6471 67.4873 73.3746 66.525 73.097 65.5626C73.0957 65.5563 73.0906 65.5511 73.0841 65.5473C73.0816 65.5435 73.0764 65.5422 73.0726 65.5422Z" fill="#A7D1F3"/>
<path fill-rule="evenodd" clip-rule="evenodd" d="M31.1883 97.3857C36.9455 97.6835 42.6848 98.3634 48.3405 99.4701C53.8471 100.547 59.2945 102.032 64.5543 103.981C66.5094 104.706 68.4426 105.496 70.3398 106.358C71.7589 107.004 73.16 107.691 74.5328 108.43C75.4017 108.898 76.2616 109.386 77.101 109.905C77.4056 110.094 77.7154 110.288 78.0097 110.493C78.0226 110.502 78.0303 110.513 78.0316 110.528C78.0341 110.544 78.0303 110.557 78.0213 110.569L72.962 117.43C72.944 117.454 72.9106 117.459 72.8862 117.441C72.8618 117.423 72.8566 117.39 72.8746 117.366L77.9018 110.55C77.6228 110.358 77.331 110.174 77.0431 109.997C76.2063 109.479 75.3477 108.991 74.4813 108.525C73.1111 107.787 71.7113 107.101 70.2948 106.457C68.4002 105.594 66.4695 104.806 64.517 104.082C59.2624 102.136 53.8201 100.654 48.3199 99.5762C42.6347 98.463 36.8659 97.7819 31.0778 97.488C31.0713 97.4892 31.0649 97.488 31.0585 97.4867C29.4248 97.4036 27.791 97.3512 26.156 97.3295C26.1265 97.3295 26.102 97.3039 26.102 97.2745C26.102 97.2451 26.1277 97.2209 26.1573 97.2209C27.7885 97.2426 29.4183 97.295 31.0482 97.378C31.2731 97.1327 31.4762 96.8554 31.6639 96.5819C31.9184 96.2087 32.1549 95.8202 32.3811 95.4291C32.966 94.4157 33.4956 93.3588 34.0007 92.3045C34.6177 91.0163 35.2026 89.7114 35.7694 88.4002C36.3877 86.9714 36.9867 85.5337 37.5728 84.0909C38.9135 80.7924 40.1937 77.4658 41.4367 74.129C42.0074 72.5942 42.5755 71.0568 43.1244 69.5142C43.1347 69.4861 43.1655 69.4708 43.1938 69.481C43.2221 69.4912 43.2375 69.5219 43.2272 69.55C42.6784 71.0925 42.1115 72.6312 41.5395 74.1661C40.2965 77.5042 39.0163 80.8308 37.6756 84.1318C37.0895 85.5746 36.4905 87.0136 35.871 88.4424C35.3028 89.7536 34.718 91.0597 34.101 92.3492C33.5945 93.4061 33.0637 94.4655 32.4775 95.4815C32.25 95.8751 32.0135 96.2662 31.7564 96.6419C31.5803 96.8963 31.3927 97.1531 31.1883 97.3857Z" fill="#A7D1F3"/>
<path fill-rule="evenodd" clip-rule="evenodd" d="M72.6007 11.3162C72.5955 11.3149 72.5904 11.3136 72.5852 11.3098C72.4464 11.2293 72.2857 11.159 72.1392 11.0976C71.7793 10.9481 71.3988 10.8344 71.0158 10.7654C69.8975 10.5634 68.8216 10.7602 67.9334 11.4964C67.5594 11.8069 67.2985 12.1993 67.3049 12.6977C67.3113 13.1986 67.5864 13.6855 67.8859 14.0728C68.1725 14.4447 68.5234 14.7833 68.8859 15.0811C69.0556 15.2217 69.2394 15.3648 69.4232 15.4862C69.4476 15.5028 69.4553 15.5361 69.4386 15.5616C69.4219 15.5859 69.3885 15.5936 69.3628 15.577C69.1751 15.453 68.9887 15.3073 68.8165 15.1642C68.4476 14.86 68.0915 14.5162 67.7998 14.1379C67.0954 13.2267 66.8769 12.2312 67.864 11.412C68.7766 10.6554 69.8859 10.451 71.0351 10.658C71.4258 10.7283 71.814 10.8446 72.1816 10.9967C72.3307 11.058 72.4914 11.1296 72.6328 11.2101C73.1572 11.3021 73.6881 11.3647 74.2177 11.4146C74.8501 11.4746 75.4851 11.5155 76.1188 11.5462C77.5545 11.6152 78.9955 11.6344 80.4325 11.6305C82.6716 11.6254 84.9146 11.5654 87.1525 11.4734C87.9212 11.4414 88.6911 11.4082 89.4598 11.3673C89.4675 11.366 89.4739 11.3647 89.4816 11.366C89.7361 11.3519 89.9893 11.3379 90.2426 11.3226C90.2721 11.3213 90.2978 11.343 90.3004 11.3737C90.3017 11.4031 90.2798 11.4286 90.249 11.4312C90.0202 11.4452 89.7901 11.458 89.5613 11.4708C89.767 11.8631 89.9649 12.2606 90.1603 12.658C90.6115 13.5769 91.0433 14.5073 91.4392 15.4504C91.749 16.1891 92.0459 16.9495 92.2747 17.7163C92.393 18.1137 92.5382 18.6492 92.5652 19.1144C92.5935 19.0326 92.6218 18.9495 92.6488 18.8678C92.6578 18.8396 92.6886 18.8243 92.7169 18.8333C92.7452 18.8422 92.7606 18.8729 92.7516 18.901C92.6899 19.0888 92.6244 19.2767 92.5575 19.4633C92.5575 19.4646 92.5575 19.4646 92.5562 19.4659C92.5524 19.4761 92.5447 19.485 92.5357 19.4914C92.5254 19.4978 92.5138 19.5016 92.501 19.5004C92.4958 19.5004 92.4907 19.4991 92.4868 19.4965C92.4766 19.4927 92.4676 19.485 92.4611 19.4761C92.4547 19.4659 92.4508 19.4544 92.4521 19.4416C92.4753 19.2039 92.4444 18.9406 92.4046 18.7055C92.3493 18.3834 92.2645 18.0614 92.1706 17.7482C91.9418 16.9853 91.6475 16.2274 91.339 15.4926C90.9444 14.5507 90.5125 13.6216 90.0626 12.7053C89.8608 12.2938 89.6551 11.8823 89.443 11.4772C88.6821 11.5181 87.9186 11.5513 87.1576 11.582C84.9185 11.674 82.6742 11.7341 80.4338 11.7392C78.9954 11.743 77.552 11.7238 76.1149 11.6548C75.4786 11.6242 74.8424 11.5833 74.2087 11.5232C73.6727 11.4721 73.1354 11.4095 72.6058 11.3162C72.602 11.3162 72.602 11.3162 72.6007 11.3162Z" fill="white"/>
<path d="M92.5036 19.5285C92.5011 19.5285 92.4985 19.5285 92.4946 19.5285C92.4869 19.5272 92.4792 19.5259 92.4728 19.5234C92.4574 19.517 92.4432 19.5068 92.4342 19.4914C92.4239 19.4761 92.4188 19.4569 92.4214 19.439C92.4407 19.2435 92.4252 19.0109 92.3738 18.7106C92.325 18.4294 92.2517 18.1266 92.1412 17.7572C91.9458 17.1029 91.69 16.4089 91.3108 15.5054C90.9483 14.6428 90.5319 13.7316 90.0357 12.7194C89.8712 12.3846 89.6539 11.9462 89.4239 11.5079C88.7683 11.5424 88.0678 11.5743 87.1564 11.6127C84.6885 11.7136 82.4879 11.7648 80.4313 11.7699C78.759 11.7737 77.3862 11.7469 76.1111 11.6855C75.4042 11.651 74.7808 11.6089 74.2036 11.5539C73.5776 11.4951 73.0673 11.4287 72.5982 11.3469H72.5943C72.5866 11.3456 72.5776 11.3418 72.5712 11.3379C72.4208 11.251 72.246 11.1756 72.1277 11.1271C71.7614 10.975 71.3848 10.8638 71.0095 10.7961C69.8359 10.5839 68.778 10.8344 67.9502 11.5207C67.5338 11.8657 67.3255 12.2619 67.332 12.7002C67.3371 13.1156 67.5312 13.5718 67.9065 14.0587C68.1649 14.3936 68.5004 14.731 68.9027 15.0632C69.1097 15.2332 69.2793 15.3623 69.4374 15.4671C69.4554 15.4786 69.4683 15.4977 69.4721 15.5195C69.476 15.5412 69.4721 15.5629 69.4606 15.5808C69.4349 15.6179 69.3834 15.6281 69.3462 15.6038C69.1829 15.4952 69.0081 15.3636 68.7973 15.1898C68.3847 14.8498 68.0415 14.5035 67.7754 14.1584C66.9412 13.0785 66.9643 12.1226 67.8436 11.3941C68.7099 10.6759 69.814 10.4139 71.0377 10.6337C71.4246 10.704 71.8128 10.8178 72.1894 10.975C72.3771 11.0529 72.5211 11.1207 72.6393 11.1884C73.0995 11.2689 73.6021 11.3341 74.2178 11.3916C74.7898 11.4453 75.4119 11.4887 76.1176 11.5219C77.3888 11.5833 78.759 11.6088 80.4287 11.6063C82.4828 11.6012 84.6808 11.5501 87.1474 11.4491C88.0729 11.4108 88.7837 11.3788 89.4547 11.343C89.4598 11.3405 89.4714 11.3405 89.4817 11.3418C89.7298 11.3277 89.983 11.3136 90.2375 11.2983C90.2594 11.297 90.2812 11.3047 90.2966 11.3187C90.3133 11.3328 90.3236 11.3533 90.3249 11.375C90.3275 11.4197 90.2928 11.4593 90.2478 11.4619C90.0331 11.4747 89.8185 11.4874 89.6025 11.4989C89.7735 11.8261 89.9534 12.1839 90.1809 12.6491C90.6784 13.6626 91.0961 14.5763 91.4599 15.4441C91.8417 16.354 92.1 17.0543 92.2967 17.7125C92.3982 18.0512 92.5319 18.5368 92.5769 18.9815C92.5898 18.9419 92.6039 18.9023 92.6168 18.8627C92.6232 18.8422 92.6386 18.8256 92.6579 18.8154C92.6772 18.8052 92.7003 18.8039 92.7209 18.8103C92.7414 18.8167 92.7581 18.832 92.7684 18.8512C92.7787 18.8703 92.78 18.8933 92.7736 18.9138C92.7106 19.1042 92.6437 19.2959 92.5795 19.4761C92.5718 19.4953 92.5615 19.5081 92.5461 19.5183C92.5358 19.5234 92.5203 19.5285 92.5036 19.5285ZM89.4573 11.4478L89.4663 11.4644C89.7002 11.9092 89.92 12.3552 90.0871 12.6939C90.5833 13.706 91.001 14.6185 91.3635 15.4824C91.744 16.3885 91.9998 17.085 92.1964 17.7406C92.307 18.1125 92.3815 18.4179 92.4304 18.7016C92.4831 19.0084 92.4985 19.2435 92.4792 19.4454C92.4792 19.4518 92.4805 19.4569 92.4831 19.462C92.4856 19.4672 92.4908 19.4697 92.4959 19.4723L92.5036 19.4735C92.5114 19.4735 92.5165 19.4723 92.5203 19.4697C92.5255 19.4672 92.5281 19.462 92.5306 19.4569C92.5949 19.2755 92.6617 19.085 92.7247 18.8933C92.7273 18.887 92.726 18.8793 92.7234 18.8729C92.7209 18.8665 92.7144 18.8614 92.708 18.8601C92.7016 18.8576 92.6939 18.8588 92.6874 18.8614C92.681 18.8639 92.6759 18.8703 92.6746 18.8767C92.6476 18.9598 92.6193 19.0416 92.591 19.1247L92.5448 19.2588L92.5371 19.117C92.5101 18.6441 92.3584 18.0959 92.2478 17.7253C92.0512 17.0684 91.7941 16.3706 91.4136 15.462C91.0499 14.5955 90.6321 13.683 90.136 12.6709C89.8995 12.1878 89.7144 11.821 89.5383 11.4836L89.5177 11.4453L89.5614 11.4427C89.7902 11.4299 90.0203 11.4172 90.2491 11.4031C90.2632 11.4018 90.2748 11.3903 90.2735 11.375C90.2735 11.3686 90.2696 11.3622 90.2645 11.3571C90.2594 11.352 90.2529 11.3494 90.2452 11.3507C89.992 11.366 89.7375 11.3801 89.4843 11.3941C89.4753 11.3929 89.4714 11.3929 89.4688 11.3941C88.7927 11.4312 88.0819 11.4632 87.1552 11.5015C84.6872 11.6025 82.4892 11.6536 80.4339 11.6587C78.7629 11.6625 77.3914 11.6357 76.1189 11.5743C75.4119 11.5398 74.7898 11.4977 74.2165 11.4427C73.5969 11.3839 73.0931 11.3187 72.629 11.2382L72.62 11.2344C72.5031 11.1679 72.3604 11.1002 72.1727 11.0223C71.7987 10.8676 71.4156 10.7539 71.0326 10.6849C69.8256 10.4663 68.7369 10.7258 67.8847 11.4325C66.8088 12.3245 67.2587 13.3852 67.8243 14.1188C68.0878 14.46 68.4284 14.8038 68.8372 15.1412C69.0467 15.3137 69.2202 15.4454 69.3809 15.5514C69.3924 15.5591 69.4091 15.5565 69.4169 15.5438C69.4207 15.5374 69.422 15.531 69.4207 15.5246C69.4194 15.5182 69.4156 15.5118 69.4091 15.508C69.2498 15.4019 69.0775 15.2728 68.8693 15.1003C68.4631 14.7655 68.125 14.4242 67.8641 14.0869C67.4798 13.5897 67.2831 13.122 67.278 12.6951C67.2716 12.2402 67.4875 11.8287 67.9168 11.4721C68.7575 10.7756 69.8308 10.5213 71.0223 10.736C71.4015 10.8037 71.782 10.9175 72.1522 11.0708C72.2717 11.1207 72.4491 11.1961 72.602 11.2855C72.6046 11.2868 72.6072 11.2881 72.6098 11.2881C73.0789 11.3711 73.5866 11.4363 74.2113 11.4951C74.7872 11.5488 75.4106 11.5922 76.1163 11.6267C77.3901 11.6881 78.7629 11.7149 80.4339 11.7111C82.4905 11.706 84.6898 11.6549 87.1564 11.5539C88.0755 11.5168 88.7799 11.4836 89.4406 11.4491L89.4573 11.4478Z" fill="#F0A38B"/>
<path fill-rule="evenodd" clip-rule="evenodd" d="M80.9369 54.7004C81.1965 52.3898 81.478 50.0817 81.7852 47.7775C81.9228 46.7436 82.0629 45.7085 82.2184 44.6771C82.2223 44.6503 82.2441 44.6311 82.2711 44.6311L82.8264 44.6196C82.7223 43.9551 82.6272 43.2867 82.541 42.6196C82.4973 42.2745 82.4549 41.9282 82.4215 41.5832C82.3958 41.3263 82.3701 41.0566 82.3701 40.7985C82.3701 40.4905 82.4318 40.1569 82.5025 39.8592C82.6143 39.3837 82.7724 38.9134 82.9472 38.4572C83.1902 37.8284 83.4742 37.2137 83.7814 36.6144C84.1786 35.8412 84.6169 35.0872 85.0822 34.3523C85.0977 34.3268 85.1324 34.3191 85.1568 34.3357C85.1825 34.3511 85.1902 34.3856 85.1735 34.4098C84.7108 35.1421 84.2737 35.8923 83.8778 36.6629C83.5719 37.2597 83.2891 37.8706 83.0475 38.4955C82.874 38.9467 82.7171 39.4131 82.6066 39.8834C82.5385 40.1735 82.4768 40.4994 82.4768 40.7985C82.4768 41.0528 82.5025 41.3186 82.5269 41.5717C82.5603 41.9167 82.6027 42.2618 82.6464 42.6055C82.7326 43.2765 82.8277 43.9487 82.9331 44.6171L89.4731 44.4791C89.5014 44.4791 89.5258 44.4995 89.5284 44.5276C89.6569 45.7149 89.7777 46.9034 89.8973 48.0919C90.2045 51.1322 90.495 54.1751 90.7714 57.218C91.1236 61.0967 91.4513 64.9792 91.7495 68.8617C91.7521 68.8911 91.729 68.9179 91.6994 68.9192C91.6698 68.9217 91.6428 68.8987 91.6416 68.8693C91.3433 64.9868 91.0156 61.1056 90.6634 57.2269C90.387 54.1841 90.0965 51.1412 89.7893 48.1009C89.6711 46.9289 89.5515 45.757 89.4256 44.5864L82.3148 44.7372C82.1618 45.7532 82.0243 46.773 81.8893 47.7903C81.5757 50.1507 81.2878 52.515 81.023 54.8818C81.0281 54.8972 81.0256 54.9125 81.0179 54.9253C80.9857 55.209 80.9549 55.494 80.924 55.7777C80.514 59.5222 80.1592 63.2743 79.87 67.0303C79.5397 71.3218 79.2954 75.6235 79.1746 79.9264C79.0756 83.4792 79.0615 87.0397 79.1849 90.5925C79.244 92.2794 79.3353 93.9676 79.4702 95.6507C79.5975 97.2303 79.762 98.8073 79.9831 100.375C80.1849 101.811 80.4343 103.242 80.7544 104.655C81.0384 105.912 81.3803 107.163 81.8135 108.378C82.4832 110.259 83.4562 112.291 84.9126 113.701C84.9344 113.721 84.9344 113.756 84.9139 113.778C84.8933 113.799 84.8586 113.799 84.8367 113.779C83.3675 112.358 82.3868 110.313 81.7107 108.415C81.2762 107.196 80.933 105.941 80.6477 104.68C80.3276 103.262 80.0782 101.828 79.8751 100.391C79.6541 98.8201 79.4882 97.2405 79.3623 95.6597C79.2273 93.9753 79.1361 92.2858 79.0769 90.5976C78.9522 87.0435 78.9677 83.4805 79.0666 79.9252C79.1862 75.6209 79.4317 71.3179 79.762 67.0239C80.0512 63.2667 80.4047 59.5132 80.8161 55.7675C80.8482 55.4786 80.8803 55.1898 80.9125 54.901C80.1374 53.2562 78.388 51.8479 76.9008 50.8575C75.474 49.9066 73.9238 49.0887 72.3646 48.3756C71.8389 48.1354 71.3068 47.9053 70.7708 47.6881C70.5613 47.6037 70.3505 47.5194 70.1384 47.4414C70.1101 47.4312 70.0959 47.4005 70.1062 47.3724L72.2425 41.0004C72.0536 40.7755 71.8736 40.5288 71.704 40.2911C71.2399 39.6406 70.8145 38.9569 70.425 38.2578C69.1602 35.9869 68.254 33.4948 67.8041 30.9363C67.799 30.9069 67.8182 30.8788 67.8478 30.8737C67.8774 30.8686 67.9056 30.8877 67.9108 30.9171C68.3594 33.4629 69.2617 35.9447 70.5201 38.2042C70.907 38.8981 71.3299 39.5793 71.7927 40.2272C71.9662 40.47 72.1513 40.7243 72.3454 40.9518C72.3518 40.9595 72.3557 40.9672 72.3569 40.9761C72.3582 40.9851 72.3582 40.994 72.3557 41.0042L70.2258 47.3571C70.4224 47.4299 70.6178 47.5079 70.8119 47.5871C71.3492 47.8044 71.8826 48.0357 72.4109 48.2759C73.9765 48.9916 75.5318 49.8121 76.9625 50.7655C78.4227 51.7393 80.1194 53.1016 80.9369 54.7004Z" fill="#F0A38B"/>
<path d="M84.8775 113.821C84.8557 113.821 84.8351 113.813 84.8197 113.798C83.569 112.587 82.5445 110.83 81.6872 108.424C81.2861 107.296 80.9378 106.073 80.6242 104.686C80.3247 103.36 80.0715 101.956 79.8517 100.394C79.6421 98.9065 79.4738 97.3589 79.3375 95.6604C79.2077 94.0489 79.1151 92.3926 79.0521 90.5971C78.9365 87.3011 78.9326 83.8097 79.0419 79.9234C79.155 75.8555 79.3825 71.6356 79.7373 67.0209C80.0175 63.3761 80.3722 59.5881 80.7913 55.7644C80.8221 55.4781 80.8543 55.1919 80.8864 54.9056C80.2617 53.5867 78.9172 52.2333 76.8889 50.88C75.5803 50.0071 74.097 49.1969 72.3566 48.4007C71.818 48.154 71.282 47.9227 70.764 47.7144C70.5738 47.6377 70.3514 47.5483 70.1329 47.4677C70.0905 47.4524 70.0686 47.4051 70.084 47.3629L72.2152 41.005C72.0288 40.7826 71.8501 40.5373 71.6843 40.3059C71.2409 39.6848 70.8103 38.9998 70.4041 38.2701C69.1097 35.9467 68.2279 33.4802 67.7806 30.9396C67.7768 30.9179 67.7819 30.8962 67.7948 30.8783C67.8076 30.8604 67.8269 30.8489 67.8475 30.845C67.8924 30.8374 67.9349 30.8668 67.9426 30.9115C68.386 33.433 69.2627 35.8828 70.5481 38.1896C70.9517 38.9142 71.3784 39.5928 71.8193 40.2101C71.9915 40.4516 72.1779 40.7059 72.3707 40.9334C72.3797 40.9436 72.3862 40.9564 72.3887 40.9705C72.3913 40.9845 72.3913 40.9999 72.3862 41.0127L70.2653 47.3399C70.4427 47.4064 70.6187 47.4767 70.827 47.5598C71.3463 47.7693 71.8849 48.0019 72.426 48.2499C74.1741 49.0486 75.6652 49.864 76.9814 50.7419C78.9185 52.0327 80.2437 53.3311 80.9211 54.604C81.1833 52.273 81.4661 49.9751 81.7592 47.7732C81.8838 46.8351 82.0304 45.7463 82.1923 44.6728C82.1988 44.6332 82.2322 44.6038 82.272 44.6025L82.7952 44.591C82.6936 43.9418 82.5998 43.2798 82.515 42.6216C82.461 42.2063 82.425 41.8868 82.3954 41.5839C82.3723 41.3526 82.344 41.0638 82.344 40.7967C82.344 40.536 82.3864 40.2356 82.4764 39.851C82.5767 39.4229 82.7232 38.9641 82.9224 38.4452C83.1487 37.8586 83.4225 37.2541 83.7579 36.5998C84.1346 35.8637 84.5613 35.1237 85.06 34.3352C85.0716 34.3173 85.0896 34.3045 85.1114 34.2994C85.1333 34.2943 85.1551 34.2981 85.1731 34.3096C85.1924 34.3212 85.2053 34.339 85.2091 34.3608C85.2143 34.3825 85.2104 34.4042 85.1989 34.4221C84.7027 35.2055 84.2798 35.9416 83.9045 36.6739C83.5716 37.3244 83.3003 37.9225 83.0754 38.504C82.8787 39.0152 82.7348 39.4676 82.6358 39.888C82.5484 40.2612 82.5073 40.55 82.5073 40.7967C82.5073 41.0561 82.5343 41.3283 82.5574 41.5673C82.587 41.8664 82.6242 42.1846 82.6769 42.5999C82.7618 43.2632 82.8569 43.9316 82.9597 44.5872L89.4753 44.4492C89.5177 44.4479 89.555 44.4798 89.5589 44.522C89.6926 45.7616 89.8198 47.0115 89.9278 48.0863C90.226 51.0435 90.5203 54.1145 90.8018 57.2136C91.1656 61.2252 91.4947 65.1422 91.78 68.8586C91.7813 68.8803 91.7749 68.9021 91.7607 68.9187C91.7466 68.9353 91.726 68.9455 91.7042 68.9468C91.6823 68.9481 91.6605 68.9417 91.6438 68.9276C91.6271 68.9135 91.6168 68.8931 91.6155 68.8714C91.3301 65.1537 91.0011 61.2367 90.6373 57.229C90.3558 54.1273 90.0615 51.0576 89.7633 48.1042C89.6579 47.0537 89.5332 45.8319 89.4021 44.6166L82.3414 44.7661C82.1846 45.814 82.0407 46.8786 81.9198 47.7962C81.6165 50.0761 81.3247 52.4595 81.0535 54.8813C81.0573 54.8992 81.0561 54.9184 81.0471 54.935C81.0149 55.2174 80.9841 55.4999 80.9532 55.7823C80.5342 59.606 80.1794 63.3914 79.8992 67.0336C79.5445 71.6459 79.3182 75.8632 79.2051 79.9285C79.0971 83.811 79.101 87.2999 79.2154 90.5919C79.2784 92.385 79.3709 94.0399 79.5008 95.6489C79.637 97.3435 79.8041 98.8886 80.0136 100.372C80.2334 101.929 80.4854 103.328 80.7836 104.65C81.0959 106.031 81.443 107.248 81.8414 108.369C82.6782 110.718 83.7181 112.504 84.9341 113.68C84.9495 113.695 84.9585 113.716 84.9585 113.737C84.9585 113.759 84.9508 113.78 84.9354 113.796C84.9212 113.812 84.9006 113.821 84.8775 113.821C84.8788 113.821 84.8788 113.821 84.8775 113.821ZM67.859 30.9013C67.8577 30.9013 67.8565 30.9013 67.8539 30.9013C67.8475 30.9026 67.841 30.9064 67.8372 30.9115C67.8333 30.9179 67.832 30.9243 67.8333 30.9307C68.2794 33.4649 69.1598 35.925 70.4516 38.2433C70.8565 38.9704 71.2871 39.6542 71.7293 40.274C71.8964 40.5091 72.0777 40.7571 72.2666 40.982L72.2769 40.9935L72.2718 41.0088L70.1354 47.3808C70.1303 47.3949 70.138 47.409 70.1509 47.4141C70.3707 47.4946 70.593 47.584 70.7833 47.6607C71.3013 47.8703 71.8386 48.1016 72.3784 48.3483C74.1227 49.1445 75.6073 49.9573 76.9197 50.8314C78.9609 52.1924 80.3131 53.556 80.9404 54.8864L80.9442 54.8941L80.943 54.9018C80.9108 55.1906 80.8787 55.4794 80.8465 55.7682C80.4275 59.592 80.0727 63.3786 79.7925 67.0234C79.4378 71.6369 79.2103 75.8568 79.0971 79.9234C78.9892 83.8084 78.993 87.2986 79.1074 90.5932C79.1704 92.3888 79.2642 94.0438 79.3928 95.6553C79.529 97.3512 79.6961 98.8988 79.9056 100.385C80.1254 101.946 80.3774 103.347 80.6782 104.671C80.9918 106.057 81.3388 107.279 81.7399 108.403C82.5934 110.801 83.614 112.552 84.8582 113.755C84.8634 113.76 84.8685 113.766 84.8775 113.763C84.8839 113.763 84.8916 113.76 84.8955 113.755C84.9006 113.75 84.9032 113.744 84.9032 113.736C84.9032 113.73 84.9006 113.722 84.8955 113.718C83.6564 112.52 82.6409 110.775 81.79 108.385C81.3903 107.262 81.0432 106.043 80.7296 104.66C80.4301 103.337 80.1782 101.937 79.9583 100.377C79.7488 98.8924 79.5817 97.3461 79.4455 95.6502C79.3169 94.0399 79.2231 92.385 79.1601 90.5907C79.0444 87.2973 79.0406 83.8071 79.1498 79.9234C79.263 75.8581 79.4905 71.6395 79.8452 67.026C80.1254 63.3824 80.4802 59.5971 80.8992 55.7721C80.9301 55.4884 80.9622 55.2034 80.9931 54.9197L80.9969 54.9082C81.0008 54.9018 81.0021 54.8941 80.9995 54.8877L80.9982 54.8826L80.9995 54.8762C81.2707 52.4519 81.5625 50.0659 81.8659 47.7847C81.9893 46.8607 82.1332 45.7859 82.2913 44.7303L82.2952 44.7073H82.3183L89.4548 44.5565L89.4573 44.5821C89.5897 45.8076 89.7144 47.0383 89.8211 48.0965C90.1193 51.0499 90.4137 54.1209 90.6952 57.2226C91.0589 61.2303 91.388 65.1486 91.6733 68.8663C91.6733 68.8727 91.6772 68.879 91.6823 68.8842C91.6875 68.8893 91.6939 68.8905 91.7016 68.8905C91.708 68.8905 91.7145 68.8867 91.7196 68.8816C91.7248 68.8765 91.726 68.8701 91.726 68.8624C91.4407 65.1473 91.1116 61.229 90.7479 57.2187C90.4664 54.1196 90.172 51.0499 89.8738 48.0927C89.7658 47.0179 89.6386 45.768 89.5049 44.5284C89.5036 44.5143 89.492 44.5067 89.4779 44.5054L82.9122 44.6447L82.9083 44.6204C82.8042 43.9571 82.7078 43.2798 82.6217 42.6076C82.5677 42.1922 82.5317 41.8727 82.5021 41.5737C82.479 41.3322 82.452 41.0587 82.452 40.7967C82.452 40.5449 82.4931 40.2523 82.5818 39.8753C82.6808 39.4522 82.826 38.9973 83.024 38.4835C83.2489 37.9008 83.5214 37.3001 83.8556 36.6484C84.231 35.9161 84.6551 35.1774 85.1526 34.3927C85.1564 34.3863 85.1577 34.3799 85.1564 34.3735C85.1552 34.3672 85.1513 34.3608 85.1449 34.3569C85.1384 34.3531 85.132 34.3518 85.1256 34.3531C85.1192 34.3544 85.1127 34.3582 85.1089 34.3646C84.6114 35.1518 84.186 35.8905 83.8094 36.6241C83.4739 37.2771 83.2014 37.8791 82.9764 38.4644C82.7772 38.9794 82.6319 39.4369 82.5317 39.8625C82.4417 40.2433 82.4006 40.5398 82.4006 40.7954C82.4006 41.0599 82.4289 41.3462 82.452 41.5775C82.4816 41.8791 82.5188 42.1986 82.5715 42.614C82.6576 43.2824 82.7528 43.9546 82.8556 44.614L82.8607 44.646L82.2733 44.6587C82.2605 44.6587 82.2502 44.6677 82.2476 44.6805C82.0857 45.754 81.9391 46.8428 81.8144 47.7809C81.5175 50.0109 81.2322 52.3394 80.9661 54.7024L80.9558 54.7957L80.9134 54.7126C80.2527 53.4231 78.9198 52.103 76.9493 50.7905C75.6356 49.9138 74.1471 49.101 72.4016 48.3035C71.8604 48.0569 71.3231 47.8243 70.8038 47.6147C70.5866 47.5265 70.4041 47.4537 70.219 47.386L70.1933 47.377L70.2023 47.3514L72.3309 40.996C72.3322 40.9922 72.3322 40.9871 72.3322 40.9833C72.3309 40.9794 72.3296 40.9756 72.327 40.9718C72.1329 40.743 71.9453 40.4874 71.773 40.2446C71.3321 39.6261 70.9028 38.9449 70.4992 38.219C69.2113 35.9058 68.3321 33.4508 67.8873 30.923C67.8835 30.9102 67.8719 30.9013 67.859 30.9013Z" fill="#A7D1F3"/>
<path fill-rule="evenodd" clip-rule="evenodd" d="M87.4971 18.7898C87.573 18.9892 87.6642 19.1898 87.7542 19.3828C87.9496 19.7994 88.172 20.2148 88.429 20.5982C88.582 20.8269 88.7504 21.0506 88.9419 21.2487C88.9625 21.2704 88.9612 21.3049 88.9406 21.3253C88.9188 21.3458 88.8841 21.3458 88.8635 21.3241C88.6681 21.1209 88.4946 20.8921 88.3391 20.6582C88.0794 20.2697 87.8545 19.8506 87.6565 19.4288C87.5653 19.2333 87.474 19.0301 87.3956 18.8282C87.3853 18.8001 87.3995 18.7694 87.4264 18.7579C87.4547 18.7477 87.4856 18.7617 87.4971 18.7898Z" fill="#3F4553"/>
<path d="M88.902 21.4442C88.9008 21.4442 88.8995 21.4442 88.8982 21.4442C88.8558 21.4429 88.8159 21.4263 88.7864 21.3957C88.6064 21.2078 88.4303 20.9867 88.2504 20.7158C88.0087 20.3541 87.7825 19.9477 87.5601 19.4723C87.4444 19.2269 87.3634 19.0391 87.2966 18.864C87.2812 18.8244 87.2825 18.7809 87.3005 18.7426C87.3185 18.7042 87.3493 18.6748 87.3891 18.6595C87.429 18.6442 87.4727 18.6454 87.5113 18.6633C87.5498 18.6812 87.5794 18.7119 87.5948 18.7515C87.6591 18.9189 87.7375 19.1004 87.8493 19.3381C88.0653 19.7995 88.2838 20.1918 88.5164 20.5394C88.6874 20.7937 88.8506 21.002 89.0177 21.1758C89.0781 21.2397 89.0769 21.3407 89.0126 21.4008C88.983 21.4289 88.9445 21.4442 88.902 21.4442Z" fill="#3F4553"/>
<path fill-rule="evenodd" clip-rule="evenodd" d="M80.7103 16.5457C80.9031 16.5854 81.0972 16.6211 81.2913 16.6557C81.7117 16.7311 82.1358 16.7988 82.5587 16.8525C82.8351 16.887 83.114 16.9164 83.3929 16.933C83.6114 16.9458 83.848 16.9521 84.0652 16.9266C84.0948 16.9228 84.1217 16.9445 84.1256 16.9739C84.1295 17.0033 84.1076 17.0301 84.078 17.0339C83.8544 17.0608 83.6115 17.0531 83.3865 17.0403C83.105 17.025 82.8235 16.9943 82.5446 16.9598C82.1191 16.9061 81.6937 16.8384 81.2708 16.763C81.0767 16.7285 80.8813 16.6927 80.6872 16.6531C80.6576 16.6467 80.6384 16.6186 80.6448 16.5892C80.6525 16.5585 80.6821 16.5394 80.7103 16.5457Z" fill="#3F4553"/>
<path d="M83.7348 17.1566C83.6127 17.1566 83.4919 17.1515 83.3826 17.1451C83.1307 17.131 82.8608 17.1042 82.533 17.0633C82.1409 17.0135 81.7232 16.9496 81.254 16.8652C81.0921 16.8358 80.88 16.7975 80.6679 16.754C80.5818 16.7361 80.5265 16.6518 80.5432 16.5662C80.5522 16.524 80.5766 16.4882 80.6126 16.4652C80.6486 16.4422 80.691 16.4345 80.7322 16.4422C80.9327 16.4831 81.1371 16.5202 81.3106 16.5521C81.7733 16.6352 82.1859 16.6991 82.5728 16.7476C82.8942 16.7885 83.1564 16.8141 83.4006 16.8269C83.6037 16.8384 83.8402 16.8473 84.0549 16.8218C84.0973 16.8167 84.1384 16.8282 84.1731 16.855C84.2066 16.8818 84.2284 16.9189 84.2335 16.9611C84.2438 17.048 84.1808 17.1272 84.0934 17.1374C83.9739 17.1515 83.8531 17.1566 83.7348 17.1566Z" fill="#3F4553"/>
<path fill-rule="evenodd" clip-rule="evenodd" d="M86.7334 24.257C86.7373 24.4104 86.754 24.5714 86.7733 24.7222C86.8144 25.0468 86.8838 25.3778 86.9957 25.6858C87.0934 25.9529 87.2347 26.2328 87.4443 26.4296C87.4661 26.45 87.4674 26.4845 87.4468 26.5062C87.4263 26.528 87.3916 26.5292 87.3697 26.5088C87.1461 26.2992 86.9969 26.0078 86.8928 25.7228C86.7784 25.4085 86.7077 25.0685 86.6653 24.7362C86.6448 24.5816 86.628 24.4167 86.6242 24.2596C86.6229 24.2302 86.6473 24.2046 86.6769 24.2046C86.7077 24.2033 86.7322 24.2276 86.7334 24.257Z" fill="#3F4553"/>
<path d="M87.4071 26.6277C87.3672 26.6277 87.3286 26.6136 87.2978 26.5842C87.0934 26.3925 86.9238 26.1139 86.7939 25.7586C86.6873 25.466 86.6089 25.126 86.56 24.7503C86.5356 24.5573 86.5215 24.4027 86.5189 24.2634C86.5176 24.2212 86.533 24.1803 86.5626 24.1496C86.5921 24.119 86.632 24.1011 86.6744 24.1011C86.7168 24.0985 86.758 24.1151 86.7888 24.1445C86.8196 24.1739 86.8376 24.2135 86.8389 24.2557C86.8415 24.3835 86.8544 24.5279 86.8775 24.7107C86.9225 25.0647 86.9957 25.3803 87.0947 25.6513C87.2065 25.9605 87.3492 26.197 87.5163 26.3542C87.5806 26.4142 87.5831 26.5152 87.5227 26.5791C87.4919 26.611 87.4495 26.6277 87.4071 26.6277Z" fill="#3F4553"/>
<path fill-rule="evenodd" clip-rule="evenodd" d="M77.8964 20.5573C78.0019 20.6365 78.1214 20.7119 78.2345 20.7809C78.525 20.9573 78.8322 21.1132 79.1459 21.2448C80.0893 21.6435 81.1254 21.8429 82.1511 21.7279C82.1807 21.724 82.2077 21.7458 82.2115 21.7752C82.2154 21.8046 82.1935 21.8314 82.164 21.8352C81.1202 21.9528 80.0662 21.7509 79.1047 21.3445C78.7859 21.2103 78.4749 21.0518 78.1792 20.8729C78.0636 20.8026 77.9402 20.7247 77.8322 20.6429C77.8078 20.625 77.8039 20.5905 77.8219 20.5675C77.8386 20.5432 77.872 20.5394 77.8964 20.5573Z" fill="#3F4553"/>
<path d="M81.5715 21.972C80.7488 21.972 79.8927 21.7918 79.0624 21.4404C78.7333 21.3011 78.4184 21.14 78.1241 20.9611C78.0135 20.8934 77.8837 20.8129 77.768 20.726C77.6973 20.6723 77.6845 20.5726 77.7372 20.5036C77.7629 20.4704 77.8001 20.4487 77.8426 20.4423C77.885 20.4359 77.9274 20.4474 77.9608 20.4729C78.0649 20.5522 78.1858 20.6276 78.2899 20.6902C78.5701 20.8602 78.8722 21.0148 79.1871 21.1477C80.173 21.5643 81.1935 21.7292 82.1383 21.6231C82.1807 21.618 82.2219 21.6308 82.2553 21.6563C82.2887 21.6832 82.3093 21.7202 82.3144 21.7624C82.3247 21.8493 82.2617 21.9286 82.1743 21.9388C81.9763 21.9618 81.7745 21.972 81.5715 21.972Z" fill="#3F4553"/>
<path fill-rule="evenodd" clip-rule="evenodd" d="M76.5071 32.8604C76.7321 32.9652 76.9943 33.2131 77.1524 33.3959C77.6498 33.9697 77.9313 34.7173 78.0701 35.4534C78.0753 35.4828 78.056 35.5109 78.0264 35.516C77.9969 35.5211 77.9686 35.502 77.9635 35.4726C77.8272 34.7556 77.5547 34.0246 77.0701 33.4661C76.9442 33.3205 76.8002 33.1837 76.6434 33.0712C76.5894 33.0329 76.5226 32.9869 76.4622 32.9588C76.4352 32.946 76.4236 32.9141 76.4364 32.8872C76.4467 32.8591 76.4801 32.8476 76.5071 32.8604Z" fill="#3F4553"/>
<path d="M78.0173 35.6208C77.9415 35.6208 77.8747 35.5671 77.8605 35.4917C77.7089 34.693 77.4081 34.0156 76.9903 33.5338C76.8592 33.383 76.7217 33.2552 76.5816 33.1543C76.5379 33.1223 76.4723 33.0776 76.4171 33.052C76.3785 33.0341 76.3489 33.0022 76.3348 32.9626C76.3206 32.923 76.3219 32.8795 76.3399 32.8412C76.3579 32.8028 76.3901 32.7734 76.4299 32.7594C76.4698 32.7453 76.5135 32.7466 76.552 32.7645C76.7911 32.8757 77.0597 33.1274 77.232 33.3255C77.6921 33.8572 78.0096 34.5652 78.1742 35.4316C78.1819 35.4738 78.1729 35.516 78.1497 35.5505C78.1253 35.585 78.0893 35.6093 78.0469 35.617C78.0366 35.6208 78.0263 35.6208 78.0173 35.6208ZM76.5045 32.8629C76.5045 32.8629 76.5057 32.8629 76.5045 32.8629C76.5057 32.8629 76.5045 32.8629 76.5045 32.8629Z" fill="#3F4553"/>
<path fill-rule="evenodd" clip-rule="evenodd" d="M84.3543 26.4078C84.0973 27.2309 83.8273 28.0539 83.5446 28.8692C83.3556 29.4149 83.1589 29.967 82.9379 30.4999C82.862 30.6827 82.781 30.8718 82.6859 31.0444C82.6474 31.1146 82.56 31.2744 82.4687 31.2846C82.209 31.3127 81.943 31.2092 81.7257 31.0763C81.3067 30.8207 80.9404 30.3951 80.6563 30.0041C80.6383 29.9798 80.6447 29.9466 80.6679 29.9287C80.6923 29.9108 80.7257 29.9172 80.7437 29.9402C81.0188 30.3185 81.3774 30.7364 81.7823 30.983C81.979 31.1019 82.2219 31.2015 82.4558 31.176C82.4944 31.1632 82.5831 31.0047 82.6024 30.969C82.6949 30.7977 82.7733 30.6124 82.8479 30.4322C83.0651 29.9082 83.2566 29.3664 83.443 28.8309C83.7258 28.0168 83.9944 27.1951 84.2515 26.3733C84.2605 26.3452 84.2914 26.3286 84.3196 26.3375C84.3479 26.349 84.3633 26.3797 84.3543 26.4078Z" fill="#3F4553"/>
<path d="M82.3826 31.3958C82.1615 31.3958 81.9173 31.3178 81.6705 31.1683C81.3093 30.9485 80.9494 30.5881 80.5702 30.068C80.5458 30.0335 80.5355 29.9913 80.5419 29.9504C80.5484 29.9082 80.5715 29.8712 80.6062 29.8469C80.6782 29.7958 80.7772 29.8111 80.8299 29.8827C81.1782 30.3606 81.5175 30.7019 81.8376 30.8974C81.9854 30.9868 82.2026 31.0891 82.4122 31.0776C82.4353 31.0482 82.4764 30.9843 82.5086 30.9229C82.6011 30.7517 82.6808 30.5613 82.7502 30.3964C82.9739 29.8546 83.1731 29.2884 83.3428 28.8015C83.6178 28.0079 83.8903 27.1823 84.15 26.3465C84.1628 26.3056 84.1898 26.2724 84.2284 26.2532C84.2657 26.2327 84.3094 26.2289 84.3505 26.2417C84.3904 26.2545 84.4238 26.2813 84.4443 26.3197C84.4649 26.3567 84.4688 26.4002 84.4559 26.4411C84.195 27.2794 83.9212 28.1088 83.6448 28.905C83.4713 29.4073 83.2656 29.9887 83.0356 30.5421C82.9597 30.7236 82.8775 30.9166 82.7785 31.0968C82.6975 31.2424 82.6075 31.3766 82.4816 31.3907C82.4481 31.3932 82.416 31.3958 82.3826 31.3958Z" fill="#3F4553"/>
</svg>
