<svg width="7" height="11" viewBox="0 0 7 11" fill="none" xmlns="http://www.w3.org/2000/svg">
<path d="M5.63101 7.60081C5.81602 6.6712 5.57865 5.60128 5.7113 5.08562C6.0115 3.928 6.1616 3.34919 5.98357 3.18432C5.261 2.51079 4.75834 5.57673 4.07766 5.55217C3.80538 5.40133 3.575 4.47524 3.48424 3.80873C3.37603 3.01243 3.67972 0.655096 3.20498 0.697191C2.80356 0.73227 2.53477 2.44765 2.54525 3.02295C2.53128 2.42309 2.77214 -0.207857 2.13684 0.0131433C1.67257 0.174508 1.66559 3.18081 1.67606 3.58071C1.6621 3.38778 1.77031 0.504255 1.30954 0.704207C0.778957 0.932223 0.887168 3.52809 0.89764 3.92449C0.876696 3.68244 1.04425 1.20935 0.482249 1.47946C0.13318 1.64784 -0.00993862 4.04376 0.000533445 4.44367C0.0424217 6.20465 1.68654 10.4528 1.98324 10.9439L4.71296 11C4.71296 11 5.09694 9.86693 5.20864 9.31268C5.35176 8.6146 5.5612 7.94809 5.63101 7.60081Z" fill="#FDBCA0"/>
</svg>
