<svg width="24" height="33" viewBox="0 0 24 33" fill="none" xmlns="http://www.w3.org/2000/svg">
<path d="M0.00332856 1.54313C-0.223804 0.243834 11.2377 -3.1835 14.6481 7.79029C15.8642 11.7092 24.9005 11.5969 20.7213 19.1468C19.4004 21.5312 28.7793 23.6593 20.6409 29.8081C13.0268 35.5601 1.39408 30.521 2.44238 26.5142C3.60251 22.079 7.58606 24.4424 4.97928 18.7957C3.65492 15.9232 5.2134 14.213 5.53488 13.2508C5.59778 13.0507 5.66068 12.8505 5.72358 12.6468C5.91576 11.9621 5.99613 11.323 5.72358 10.6979C4.9059 8.82973 -0.671079 9.96398 0.520493 5.57446C1.64567 1.42725 0.00332856 1.54313 0.00332856 1.54313Z" fill="#3F414E"/>
</svg>
