<svg width="24" height="13" viewBox="0 0 24 13" fill="none" xmlns="http://www.w3.org/2000/svg">
<path d="M11.0131 10.5437V12.301H0C0.0153601 10.4748 1.19808 8.95294 3.54817 7.73548C4.28545 7.36794 5.01505 7.00041 5.73697 6.63287C6.56642 6.19642 7.1885 5.78295 7.60322 5.39244C8.12546 4.88708 8.39426 4.34726 8.40962 3.77298C8.42498 3.22168 8.25602 2.75652 7.90274 2.3775C7.44194 1.88362 6.70466 1.63668 5.69089 1.63668C3.92449 1.63668 3.00289 2.64166 2.92609 4.65162H0.299521C0.299521 3.27337 0.775682 2.16502 1.728 1.32657C2.72641 0.442191 4.10113 0 5.85217 0C7.63394 0 8.9933 0.424963 9.93026 1.27489C10.6675 1.95253 11.0362 2.76226 11.0362 3.70407C11.0362 5.16273 9.8381 6.51802 7.44194 7.76994C6.55105 8.21787 5.66017 8.6658 4.76929 9.11374C3.89377 9.6191 3.35617 10.0957 3.15649 10.5437H11.0131Z" fill="#A4A7B5"/>
<path d="M18.3091 10.9916C19.2 10.9916 19.9296 10.7906 20.4979 10.3886C21.0816 9.98664 21.3734 9.44107 21.3734 8.75195C21.3734 8.09727 21.0816 7.58043 20.4979 7.2014C19.9296 6.82238 19.2 6.63287 18.3091 6.63287C17.4182 6.63287 16.6809 6.82238 16.0973 7.2014C15.5289 7.58043 15.2448 8.09727 15.2448 8.75195C15.2448 9.44107 15.5289 9.98664 16.0973 10.3886C16.6809 10.7906 17.4182 10.9916 18.3091 10.9916ZM18.3091 12.5422C16.6349 12.5422 15.2678 12.2033 14.208 11.5257C13.1481 10.8366 12.6182 9.91198 12.6182 8.75195C12.6182 8.00539 12.8793 7.37369 13.4016 6.85684C13.9392 6.32851 14.6611 5.9782 15.5673 5.80592V5.78869C14.0467 5.34075 13.2864 4.50806 13.2864 3.29059C13.2864 2.2569 13.7241 1.45291 14.5997 0.87864C15.4752 0.29288 16.7117 0 18.3091 0C19.9065 0 21.143 0.29288 22.0185 0.87864C22.8941 1.45291 23.3318 2.2569 23.3318 3.29059C23.3318 4.50806 22.5715 5.34075 21.0509 5.78869V5.80592C21.9571 5.9782 22.6713 6.32851 23.1936 6.85684C23.7312 7.37369 24 8.00539 24 8.75195C24 9.91198 23.4701 10.8366 22.4102 11.5257C21.3504 12.2033 19.9833 12.5422 18.3091 12.5422ZM18.3091 1.55054C17.5718 1.55054 16.9651 1.71708 16.4889 2.05016C16.0128 2.37175 15.7747 2.81969 15.7747 3.39396C15.7747 3.94527 16.0051 4.38172 16.4659 4.70331C16.9421 5.01342 17.5565 5.16847 18.3091 5.16847C19.0617 5.16847 19.6685 5.01342 20.1293 4.70331C20.6054 4.38172 20.8435 3.94527 20.8435 3.39396C20.8435 2.81969 20.6054 2.37175 20.1293 2.05016C19.6531 1.71708 19.0464 1.55054 18.3091 1.55054Z" fill="#A4A7B5"/>
</svg>
